<svg width="65" height="65" viewBox="0 0 65 65" fill="none" xmlns="http://www.w3.org/2000/svg">
<path d="M29.8127 62.8814H17.813C17.415 62.8814 17.0931 62.5594 17.0931 62.1614V50.1618C17.0931 49.7638 17.415 49.4418 17.813 49.4418H29.8127C30.2107 49.4418 30.5327 49.7638 30.5327 50.1618V62.1614C30.5327 62.5594 30.2107 62.8814 29.8127 62.8814ZM18.533 61.4414H29.0927V50.8817H18.533V61.4414ZM45.8123 46.8818H33.8126C33.4146 46.8818 33.0926 46.5599 33.0926 46.1619V34.1622C33.0926 33.7642 33.4146 33.4422 33.8126 33.4422H45.8123C46.2102 33.4422 46.5322 33.7642 46.5322 34.1622V46.1619C46.5322 46.5599 46.2102 46.8818 45.8123 46.8818ZM34.5326 45.4419H45.0903V34.8822H34.5326V45.4419ZM7.81332 14.8827C4.10742 14.8827 1.09351 11.8688 1.09351 8.16293C1.09351 4.45703 4.10742 1.44312 7.81332 1.44312C11.5192 1.44312 14.5331 4.45703 14.5331 8.16293C14.5331 11.8688 11.5192 14.8827 7.81332 14.8827ZM7.81332 2.88307C4.9014 2.88307 2.53347 5.25101 2.53347 8.16293C2.53347 11.0748 4.9014 13.4428 7.81332 13.4428C10.7252 13.4428 13.0932 11.0748 13.0932 8.16293C13.0932 5.25101 10.7252 2.88307 7.81332 2.88307ZM7.81332 62.8814C4.10742 62.8814 1.09351 59.8655 1.09351 56.1616C1.09351 52.4577 4.10742 49.4418 7.81332 49.4418C11.5192 49.4418 14.5331 52.4557 14.5331 56.1616C14.5331 59.8675 11.5192 62.8814 7.81332 62.8814ZM7.81332 50.8817C4.9014 50.8817 2.53347 53.2497 2.53347 56.1616C2.53347 59.0735 4.9014 61.4414 7.81332 61.4414C10.7252 61.4414 13.0932 59.0735 13.0932 56.1616C13.0932 53.2497 10.7252 50.8817 7.81332 50.8817ZM39.8124 62.8814C36.1065 62.8814 33.0926 59.8655 33.0926 56.1616C33.0926 52.4577 36.1065 49.4418 39.8124 49.4418C43.5183 49.4418 46.5322 52.4577 46.5322 56.1616C46.5322 59.8655 43.5183 62.8814 39.8124 62.8814ZM39.8124 50.8817C36.9005 50.8817 34.5326 53.2497 34.5326 56.1616C34.5326 59.0735 36.9005 61.4414 39.8124 61.4414C42.7243 61.4414 45.0923 59.0735 45.0923 56.1616C45.0923 53.2497 42.7243 50.8817 39.8124 50.8817ZM55.812 62.8814C52.1061 62.8814 49.0922 59.8655 49.0922 56.1616C49.0922 52.4577 52.1081 49.4418 55.812 49.4418C59.5159 49.4418 62.5318 52.4577 62.5318 56.1616C62.5318 59.8655 59.5179 62.8814 55.812 62.8814ZM55.812 50.8817C52.9001 50.8817 50.5321 53.2497 50.5321 56.1616C50.5321 59.0735 52.9001 61.4414 55.812 61.4414C58.7239 61.4414 61.0918 59.0735 61.0918 56.1616C61.0918 53.2497 58.7239 50.8817 55.812 50.8817ZM23.8129 46.8818C20.107 46.8818 17.0931 43.8659 17.0931 40.162C17.0931 36.4581 20.107 33.4422 23.8129 33.4422C27.5188 33.4422 30.5327 36.4561 30.5327 40.162C30.5327 43.8679 27.5188 46.8818 23.8129 46.8818ZM23.8129 34.8822C20.9009 34.8822 18.533 37.2501 18.533 40.162C18.533 43.074 20.9029 45.4419 23.8129 45.4419C26.7228 45.4419 29.0927 43.074 29.0927 40.162C29.0927 37.2501 26.7248 34.8822 23.8129 34.8822ZM62.7398 46.8818H48.8842C48.6262 46.8818 48.3902 46.7439 48.2602 46.5199C48.1302 46.2959 48.1322 46.0239 48.2602 45.8019L55.188 33.8002C55.446 33.3542 56.176 33.3542 56.434 33.8002L63.3618 45.8019C63.4898 46.0239 63.4898 46.2979 63.3618 46.5199C63.2338 46.7418 62.9978 46.8818 62.7398 46.8818ZM50.1301 45.4419H61.4938L55.812 35.6022L50.1301 45.4419ZM13.3052 27.6544L8.5333 32.4242V20.1626H7.09334V32.4242L2.32147 27.6544L1.3035 28.6724L7.81332 35.1802L14.3211 28.6724L13.3052 27.6544Z" fill="#5B5B5B"/>
<path d="M29.8127 62.8814H17.813C17.415 62.8814 17.0931 62.5594 17.0931 62.1614V50.1618C17.0931 49.7638 17.415 49.4418 17.813 49.4418H29.8127C30.2107 49.4418 30.5327 49.7638 30.5327 50.1618V62.1614C30.5327 62.5594 30.2107 62.8814 29.8127 62.8814ZM18.533 61.4414H29.0927V50.8817H18.533V61.4414ZM45.8123 46.8818H33.8126C33.4146 46.8818 33.0926 46.5599 33.0926 46.1619V34.1622C33.0926 33.7642 33.4146 33.4422 33.8126 33.4422H45.8123C46.2102 33.4422 46.5322 33.7642 46.5322 34.1622V46.1619C46.5322 46.5599 46.2102 46.8818 45.8123 46.8818ZM34.5326 45.4419H45.0903V34.8822H34.5326V45.4419ZM7.81332 14.8827C4.10742 14.8827 1.09351 11.8688 1.09351 8.16293C1.09351 4.45703 4.10742 1.44312 7.81332 1.44312C11.5192 1.44312 14.5331 4.45703 14.5331 8.16293C14.5331 11.8688 11.5192 14.8827 7.81332 14.8827ZM7.81332 2.88307C4.9014 2.88307 2.53347 5.25101 2.53347 8.16293C2.53347 11.0748 4.9014 13.4428 7.81332 13.4428C10.7252 13.4428 13.0932 11.0748 13.0932 8.16293C13.0932 5.25101 10.7252 2.88307 7.81332 2.88307ZM7.81332 62.8814C4.10742 62.8814 1.09351 59.8655 1.09351 56.1616C1.09351 52.4577 4.10742 49.4418 7.81332 49.4418C11.5192 49.4418 14.5331 52.4557 14.5331 56.1616C14.5331 59.8675 11.5192 62.8814 7.81332 62.8814ZM7.81332 50.8817C4.9014 50.8817 2.53347 53.2497 2.53347 56.1616C2.53347 59.0735 4.9014 61.4414 7.81332 61.4414C10.7252 61.4414 13.0932 59.0735 13.0932 56.1616C13.0932 53.2497 10.7252 50.8817 7.81332 50.8817ZM39.8124 62.8814C36.1065 62.8814 33.0926 59.8655 33.0926 56.1616C33.0926 52.4577 36.1065 49.4418 39.8124 49.4418C43.5183 49.4418 46.5322 52.4577 46.5322 56.1616C46.5322 59.8655 43.5183 62.8814 39.8124 62.8814ZM39.8124 50.8817C36.9005 50.8817 34.5326 53.2497 34.5326 56.1616C34.5326 59.0735 36.9005 61.4414 39.8124 61.4414C42.7243 61.4414 45.0923 59.0735 45.0923 56.1616C45.0923 53.2497 42.7243 50.8817 39.8124 50.8817ZM55.812 62.8814C52.1061 62.8814 49.0922 59.8655 49.0922 56.1616C49.0922 52.4577 52.1081 49.4418 55.812 49.4418C59.5159 49.4418 62.5318 52.4577 62.5318 56.1616C62.5318 59.8655 59.5179 62.8814 55.812 62.8814ZM55.812 50.8817C52.9001 50.8817 50.5321 53.2497 50.5321 56.1616C50.5321 59.0735 52.9001 61.4414 55.812 61.4414C58.7239 61.4414 61.0918 59.0735 61.0918 56.1616C61.0918 53.2497 58.7239 50.8817 55.812 50.8817ZM23.8129 46.8818C20.107 46.8818 17.0931 43.8659 17.0931 40.162C17.0931 36.4581 20.107 33.4422 23.8129 33.4422C27.5188 33.4422 30.5327 36.4561 30.5327 40.162C30.5327 43.8679 27.5188 46.8818 23.8129 46.8818ZM23.8129 34.8822C20.9009 34.8822 18.533 37.2501 18.533 40.162C18.533 43.074 20.9029 45.4419 23.8129 45.4419C26.7228 45.4419 29.0927 43.074 29.0927 40.162C29.0927 37.2501 26.7248 34.8822 23.8129 34.8822ZM62.7398 46.8818H48.8842C48.6262 46.8818 48.3902 46.7439 48.2602 46.5199C48.1302 46.2959 48.1322 46.0239 48.2602 45.8019L55.188 33.8002C55.446 33.3542 56.176 33.3542 56.434 33.8002L63.3618 45.8019C63.4898 46.0239 63.4898 46.2979 63.3618 46.5199C63.2338 46.7418 62.9978 46.8818 62.7398 46.8818ZM50.1301 45.4419H61.4938L55.812 35.6022L50.1301 45.4419ZM13.3052 27.6544L8.5333 32.4242V20.1626H7.09334V32.4242L2.32147 27.6544L1.3035 28.6724L7.81332 35.1802L14.3211 28.6724L13.3052 27.6544Z" fill="url(#paint0_linear_236_315)" fill-opacity="0.8"/>
<defs>
<linearGradient id="paint0_linear_236_315" x1="63.4578" y1="62.8814" x2="-2.8317" y2="58.3054" gradientUnits="userSpaceOnUse">
<stop offset="0.249194" stop-color="#764BC1" stop-opacity="0.77"/>
<stop offset="0.482702" stop-color="#3972ED" stop-opacity="0.65"/>
<stop offset="1" stop-color="#32D4EF" stop-opacity="0.72"/>
</linearGradient>
</defs>
</svg>
