<svg width="63" height="62" viewBox="0 0 63 62" fill="none" xmlns="http://www.w3.org/2000/svg">
<path d="M22.6242 35.1472C22.6242 36.2509 21.7285 37.1466 20.6249 37.1466C19.5213 37.1466 18.6256 36.2509 18.6256 35.1472C18.6256 34.0436 19.5213 33.1479 20.6249 33.1479C21.7285 33.1479 22.6242 34.0436 22.6242 35.1472ZM28.6223 33.1479C27.5186 33.1479 26.6229 34.0436 26.6229 35.1472C26.6229 36.2509 27.5186 37.1466 28.6223 37.1466C29.7259 37.1466 30.6216 36.2509 30.6216 35.1472C30.6216 34.0436 29.7259 33.1479 28.6223 33.1479ZM12.6275 33.1479C11.5239 33.1479 10.6282 34.0436 10.6282 35.1472C10.6282 36.2509 11.5239 37.1466 12.6275 37.1466C13.7312 37.1466 14.6269 36.2509 14.6269 35.1472C14.6269 34.0436 13.7312 33.1479 12.6275 33.1479ZM45.6167 11.1591C44.513 11.1591 43.6173 12.0548 43.6173 13.1584C43.6173 14.2621 44.513 15.1578 45.6167 15.1578C46.7203 15.1578 47.616 14.2621 47.616 13.1584C47.616 12.0548 46.7203 11.1591 45.6167 11.1591ZM53.6141 11.1591C52.5104 11.1591 51.6147 12.0548 51.6147 13.1584C51.6147 14.2621 52.5104 15.1578 53.6141 15.1578C54.7177 15.1578 55.6134 14.2621 55.6134 13.1584C55.6134 12.0548 54.7177 11.1591 53.6141 11.1591ZM37.6193 11.1591C36.5157 11.1591 35.62 12.0548 35.62 13.1584C35.62 14.2621 36.5157 15.1578 37.6193 15.1578C38.7229 15.1578 39.6187 14.2621 39.6187 13.1584C39.6187 12.0548 38.7229 11.1591 37.6193 11.1591ZM22.2224 60.7428L14.225 48.7488C14.093 48.5488 13.8671 48.4289 13.6272 48.4289H5.62983C3.82242 48.4289 2.3509 46.9593 2.3509 45.1499V25.1545C2.3509 23.3471 3.82242 21.8756 5.62983 21.8756H35.62C37.4274 21.8756 38.8989 23.3471 38.8989 25.1545V45.1499C38.8989 46.9573 37.4294 48.4289 35.62 48.4289H21.6246V49.8704H35.62C38.2231 49.8704 40.3384 47.7531 40.3384 45.1519V25.8743H45.6167V24.4347H40.2844C39.9366 22.1735 37.9772 20.4361 35.62 20.4361H30.3417V5.16108C30.3417 3.35367 31.8132 1.88215 33.6206 1.88215H57.6127C59.4201 1.88215 60.8917 3.35367 60.8917 5.16108V21.1558C60.8917 22.9632 59.4221 24.4347 57.6127 24.4347H51.6147C51.3408 24.4347 51.0929 24.5887 50.9709 24.8326L46.9722 32.83L48.2618 33.4738L52.0606 25.8743H57.6127C60.2159 25.8743 62.3312 23.757 62.3312 21.1558V5.16108C62.3312 2.55993 60.2139 0.442627 57.6127 0.442627H33.6206C31.0195 0.442627 28.9022 2.55993 28.9022 5.16108V20.4361H5.62983C3.02868 20.4361 0.911377 22.5534 0.911377 25.1545V45.1499C0.911377 47.7531 3.02868 49.8684 5.62983 49.8684H13.2413L21.0268 61.5425L22.2224 60.7428Z" fill="#5B5B5B"/>
<path d="M22.6242 35.1472C22.6242 36.2509 21.7285 37.1466 20.6249 37.1466C19.5213 37.1466 18.6256 36.2509 18.6256 35.1472C18.6256 34.0436 19.5213 33.1479 20.6249 33.1479C21.7285 33.1479 22.6242 34.0436 22.6242 35.1472ZM28.6223 33.1479C27.5186 33.1479 26.6229 34.0436 26.6229 35.1472C26.6229 36.2509 27.5186 37.1466 28.6223 37.1466C29.7259 37.1466 30.6216 36.2509 30.6216 35.1472C30.6216 34.0436 29.7259 33.1479 28.6223 33.1479ZM12.6275 33.1479C11.5239 33.1479 10.6282 34.0436 10.6282 35.1472C10.6282 36.2509 11.5239 37.1466 12.6275 37.1466C13.7312 37.1466 14.6269 36.2509 14.6269 35.1472C14.6269 34.0436 13.7312 33.1479 12.6275 33.1479ZM45.6167 11.1591C44.513 11.1591 43.6173 12.0548 43.6173 13.1584C43.6173 14.2621 44.513 15.1578 45.6167 15.1578C46.7203 15.1578 47.616 14.2621 47.616 13.1584C47.616 12.0548 46.7203 11.1591 45.6167 11.1591ZM53.6141 11.1591C52.5104 11.1591 51.6147 12.0548 51.6147 13.1584C51.6147 14.2621 52.5104 15.1578 53.6141 15.1578C54.7177 15.1578 55.6134 14.2621 55.6134 13.1584C55.6134 12.0548 54.7177 11.1591 53.6141 11.1591ZM37.6193 11.1591C36.5157 11.1591 35.62 12.0548 35.62 13.1584C35.62 14.2621 36.5157 15.1578 37.6193 15.1578C38.7229 15.1578 39.6187 14.2621 39.6187 13.1584C39.6187 12.0548 38.7229 11.1591 37.6193 11.1591ZM22.2224 60.7428L14.225 48.7488C14.093 48.5488 13.8671 48.4289 13.6272 48.4289H5.62983C3.82242 48.4289 2.3509 46.9593 2.3509 45.1499V25.1545C2.3509 23.3471 3.82242 21.8756 5.62983 21.8756H35.62C37.4274 21.8756 38.8989 23.3471 38.8989 25.1545V45.1499C38.8989 46.9573 37.4294 48.4289 35.62 48.4289H21.6246V49.8704H35.62C38.2231 49.8704 40.3384 47.7531 40.3384 45.1519V25.8743H45.6167V24.4347H40.2844C39.9366 22.1735 37.9772 20.4361 35.62 20.4361H30.3417V5.16108C30.3417 3.35367 31.8132 1.88215 33.6206 1.88215H57.6127C59.4201 1.88215 60.8917 3.35367 60.8917 5.16108V21.1558C60.8917 22.9632 59.4221 24.4347 57.6127 24.4347H51.6147C51.3408 24.4347 51.0929 24.5887 50.9709 24.8326L46.9722 32.83L48.2618 33.4738L52.0606 25.8743H57.6127C60.2159 25.8743 62.3312 23.757 62.3312 21.1558V5.16108C62.3312 2.55993 60.2139 0.442627 57.6127 0.442627H33.6206C31.0195 0.442627 28.9022 2.55993 28.9022 5.16108V20.4361H5.62983C3.02868 20.4361 0.911377 22.5534 0.911377 25.1545V45.1499C0.911377 47.7531 3.02868 49.8684 5.62983 49.8684H13.2413L21.0268 61.5425L22.2224 60.7428Z" fill="url(#paint0_linear_236_339)" fill-opacity="0.8"/>
<defs>
<linearGradient id="paint0_linear_236_339" x1="62.3312" y1="61.5425" x2="-2.96036" y2="57.0791" gradientUnits="userSpaceOnUse">
<stop offset="0.249194" stop-color="#764BC1" stop-opacity="0.77"/>
<stop offset="0.482702" stop-color="#3972ED" stop-opacity="0.65"/>
<stop offset="1" stop-color="#32D4EF" stop-opacity="0.72"/>
</linearGradient>
</defs>
</svg>
