<svg width="61" height="61" viewBox="0 0 61 61" fill="none" xmlns="http://www.w3.org/2000/svg">
<path fill-rule="evenodd" clip-rule="evenodd" d="M30.2756 1.46475C14.4263 1.46475 1.57816 14.3129 1.57816 30.1622C1.57816 46.0115 14.4263 58.8596 30.2756 58.8596C46.1249 58.8596 58.973 46.0115 58.973 30.1622C58.973 14.3129 46.1249 1.46475 30.2756 1.46475ZM0.191528 30.1622C0.191528 13.5471 13.6605 0.078125 30.2756 0.078125C46.8907 0.078125 60.3596 13.5471 60.3596 30.1622C60.3596 46.7773 46.8907 60.2462 30.2756 60.2462C13.6605 60.2462 0.191528 46.7773 0.191528 30.1622ZM21.4049 22.1646C21.4049 21.7817 21.7153 21.4713 22.0982 21.4713H38.0829C38.4658 21.4713 38.7762 21.7817 38.7762 22.1646V38.1493C38.7762 38.5322 38.4658 38.8426 38.0829 38.8426H22.0982C21.7153 38.8426 21.4049 38.5322 21.4049 38.1493V22.1646ZM22.7915 22.8579V37.456H37.3896V22.8579H22.7915ZM6.73132 30.1571C6.73132 29.7742 7.04173 29.4637 7.42464 29.4637H13.16C13.5429 29.4637 13.8533 29.7742 13.8533 30.1571C13.8533 30.54 13.5429 30.8504 13.16 30.8504H7.42464C7.04173 30.8504 6.73132 30.54 6.73132 30.1571ZM47.3915 29.4637C47.0086 29.4637 46.6982 29.7742 46.6982 30.1571C46.6982 30.54 47.0086 30.8504 47.3915 30.8504H53.1268C53.5097 30.8504 53.8202 30.54 53.8202 30.1571C53.8202 29.7742 53.5097 29.4637 53.1268 29.4637H47.3915Z" fill="#5B5B5B"/>
<path fill-rule="evenodd" clip-rule="evenodd" d="M30.2756 1.46475C14.4263 1.46475 1.57816 14.3129 1.57816 30.1622C1.57816 46.0115 14.4263 58.8596 30.2756 58.8596C46.1249 58.8596 58.973 46.0115 58.973 30.1622C58.973 14.3129 46.1249 1.46475 30.2756 1.46475ZM0.191528 30.1622C0.191528 13.5471 13.6605 0.078125 30.2756 0.078125C46.8907 0.078125 60.3596 13.5471 60.3596 30.1622C60.3596 46.7773 46.8907 60.2462 30.2756 60.2462C13.6605 60.2462 0.191528 46.7773 0.191528 30.1622ZM21.4049 22.1646C21.4049 21.7817 21.7153 21.4713 22.0982 21.4713H38.0829C38.4658 21.4713 38.7762 21.7817 38.7762 22.1646V38.1493C38.7762 38.5322 38.4658 38.8426 38.0829 38.8426H22.0982C21.7153 38.8426 21.4049 38.5322 21.4049 38.1493V22.1646ZM22.7915 22.8579V37.456H37.3896V22.8579H22.7915ZM6.73132 30.1571C6.73132 29.7742 7.04173 29.4637 7.42464 29.4637H13.16C13.5429 29.4637 13.8533 29.7742 13.8533 30.1571C13.8533 30.54 13.5429 30.8504 13.16 30.8504H7.42464C7.04173 30.8504 6.73132 30.54 6.73132 30.1571ZM47.3915 29.4637C47.0086 29.4637 46.6982 29.7742 46.6982 30.1571C46.6982 30.54 47.0086 30.8504 47.3915 30.8504H53.1268C53.5097 30.8504 53.8202 30.54 53.8202 30.1571C53.8202 29.7742 53.5097 29.4637 53.1268 29.4637H47.3915Z" fill="url(#paint0_linear_236_322)" fill-opacity="0.8"/>
<defs>
<linearGradient id="paint0_linear_236_322" x1="60.3596" y1="60.2462" x2="-3.60439" y2="55.8964" gradientUnits="userSpaceOnUse">
<stop offset="0.249194" stop-color="#764BC1" stop-opacity="0.77"/>
<stop offset="0.482702" stop-color="#3972ED" stop-opacity="0.65"/>
<stop offset="1" stop-color="#32D4EF" stop-opacity="0.72"/>
</linearGradient>
</defs>
</svg>
