<svg width="61" height="61" viewBox="0 0 61 61" fill="none" xmlns="http://www.w3.org/2000/svg">
<path fill-rule="evenodd" clip-rule="evenodd" d="M30.6436 1.46481C14.7943 1.46481 1.9462 14.3129 1.9462 30.1622C1.9462 46.0115 14.7943 58.8597 30.6436 58.8597C46.4929 58.8597 59.3411 46.0115 59.3411 30.1622C59.3411 14.3129 46.4929 1.46481 30.6436 1.46481ZM0.55957 30.1622C0.55957 13.5471 14.0285 0.078186 30.6436 0.078186C47.2587 0.078186 60.7277 13.5471 60.7277 30.1622C60.7277 46.7774 47.2587 60.2463 30.6436 60.2463C14.0285 60.2463 0.55957 46.7774 0.55957 30.1622ZM21.7729 22.1647C21.7729 21.7818 22.0834 21.4714 22.4663 21.4714H38.4509C38.8338 21.4714 39.1442 21.7818 39.1442 22.1647V38.1493C39.1442 38.5322 38.8338 38.8426 38.4509 38.8426H22.4663C22.0834 38.8426 21.7729 38.5322 21.7729 38.1493V22.1647ZM23.1596 22.858V37.456H37.7576V22.858H23.1596ZM30.6569 6.61249L30.6436 6.61237L30.6302 6.61249C17.6303 6.61972 7.09387 17.1606 7.09387 30.1622C7.09387 43.1683 17.6376 53.712 30.6436 53.712C43.6497 53.712 54.1934 43.1684 54.1934 30.1622C54.1934 17.1606 43.6569 6.61967 30.6569 6.61249ZM29.9503 8.00975V13.0401C29.9503 13.423 30.2607 13.7334 30.6436 13.7334C31.0265 13.7334 31.3369 13.423 31.3369 13.0401V8.00975C43.0244 8.36888 52.4342 17.7769 52.7959 29.4638H47.7595C47.3766 29.4638 47.0662 29.7742 47.0662 30.1571C47.0662 30.54 47.3766 30.8504 47.7595 30.8504H52.7962C52.4396 42.5421 43.0278 51.9555 31.3369 52.3147V47.2726C31.3369 46.8897 31.0265 46.5793 30.6436 46.5793C30.2607 46.5793 29.9503 46.8897 29.9503 47.2726V52.3147C18.2594 51.9554 8.84759 42.542 8.49098 30.8504H13.528C13.9109 30.8504 14.2213 30.54 14.2213 30.1571C14.2213 29.7742 13.9109 29.4638 13.528 29.4638H8.4913C8.85308 17.777 18.2628 8.36892 29.9503 8.00975Z" fill="#5B5B5B"/>
<path fill-rule="evenodd" clip-rule="evenodd" d="M30.6436 1.46481C14.7943 1.46481 1.9462 14.3129 1.9462 30.1622C1.9462 46.0115 14.7943 58.8597 30.6436 58.8597C46.4929 58.8597 59.3411 46.0115 59.3411 30.1622C59.3411 14.3129 46.4929 1.46481 30.6436 1.46481ZM0.55957 30.1622C0.55957 13.5471 14.0285 0.078186 30.6436 0.078186C47.2587 0.078186 60.7277 13.5471 60.7277 30.1622C60.7277 46.7774 47.2587 60.2463 30.6436 60.2463C14.0285 60.2463 0.55957 46.7774 0.55957 30.1622ZM21.7729 22.1647C21.7729 21.7818 22.0834 21.4714 22.4663 21.4714H38.4509C38.8338 21.4714 39.1442 21.7818 39.1442 22.1647V38.1493C39.1442 38.5322 38.8338 38.8426 38.4509 38.8426H22.4663C22.0834 38.8426 21.7729 38.5322 21.7729 38.1493V22.1647ZM23.1596 22.858V37.456H37.7576V22.858H23.1596ZM30.6569 6.61249L30.6436 6.61237L30.6302 6.61249C17.6303 6.61972 7.09387 17.1606 7.09387 30.1622C7.09387 43.1683 17.6376 53.712 30.6436 53.712C43.6497 53.712 54.1934 43.1684 54.1934 30.1622C54.1934 17.1606 43.6569 6.61967 30.6569 6.61249ZM29.9503 8.00975V13.0401C29.9503 13.423 30.2607 13.7334 30.6436 13.7334C31.0265 13.7334 31.3369 13.423 31.3369 13.0401V8.00975C43.0244 8.36888 52.4342 17.7769 52.7959 29.4638H47.7595C47.3766 29.4638 47.0662 29.7742 47.0662 30.1571C47.0662 30.54 47.3766 30.8504 47.7595 30.8504H52.7962C52.4396 42.5421 43.0278 51.9555 31.3369 52.3147V47.2726C31.3369 46.8897 31.0265 46.5793 30.6436 46.5793C30.2607 46.5793 29.9503 46.8897 29.9503 47.2726V52.3147C18.2594 51.9554 8.84759 42.542 8.49098 30.8504H13.528C13.9109 30.8504 14.2213 30.54 14.2213 30.1571C14.2213 29.7742 13.9109 29.4638 13.528 29.4638H8.4913C8.85308 17.777 18.2628 8.36892 29.9503 8.00975Z" fill="url(#paint0_linear_426_450)" fill-opacity="0.8"/>
<defs>
<linearGradient id="paint0_linear_426_450" x1="60.7277" y1="60.2463" x2="-3.23635" y2="55.8964" gradientUnits="userSpaceOnUse">
<stop offset="0.249194" stop-color="#764BC1" stop-opacity="0.77"/>
<stop offset="0.482702" stop-color="#3972ED" stop-opacity="0.65"/>
<stop offset="1" stop-color="#32D4EF" stop-opacity="0.72"/>
</linearGradient>
</defs>
</svg>
