<svg width="47" height="52" viewBox="0 0 47 52" fill="none" xmlns="http://www.w3.org/2000/svg">
<path d="M23.631 51.8815C21.2731 51.8815 19.3131 50.1436 18.9651 47.8817H1.6316V46.4417H18.9651C19.2771 44.4138 20.8831 42.8098 22.911 42.4958V39.8819H1.6316C1.23361 39.8819 0.911621 39.5599 0.911621 39.1619V29.1622C0.911621 28.7642 1.23361 28.4422 1.6316 28.4422H45.6304C46.0284 28.4422 46.3503 28.7642 46.3503 29.1622V39.1619C46.3503 39.5599 46.0284 39.8819 45.6304 39.8819H24.351V42.4958C26.3789 42.8078 27.9849 44.4138 28.2969 46.4417H45.6304V47.8837H28.2969C27.9489 50.1436 25.9889 51.8815 23.631 51.8815ZM23.631 43.8818C21.823 43.8818 20.3511 45.3517 20.3511 47.1617C20.3511 48.9716 21.823 50.4416 23.631 50.4416C25.4389 50.4416 26.9109 48.9716 26.9109 47.1617C26.9109 45.3517 25.4389 43.8818 23.631 43.8818ZM2.35158 38.4419H44.9104V29.8822H2.35158V38.4419ZM41.6305 33.8821H29.6308V32.4421H41.6305V33.8821ZM15.6312 33.8821H13.6313V32.4421H15.6312V33.8821ZM11.6313 33.8821H9.63138V32.4421H11.6313V33.8821ZM7.63143 33.8821H5.63149V32.4421H7.63143V33.8821ZM45.6304 25.8823H1.6316C1.23361 25.8823 0.911621 25.5603 0.911621 25.1623V15.1626C0.911621 14.7646 1.23361 14.4426 1.6316 14.4426H45.6304C46.0284 14.4426 46.3503 14.7646 46.3503 15.1626V25.1623C46.3503 25.5603 46.0284 25.8823 45.6304 25.8823ZM2.35158 24.4423H44.9104V15.8826H2.35158V24.4423ZM41.6305 19.8824H29.6308V18.4425H41.6305V19.8824ZM15.6312 19.8824H13.6313V18.4425H15.6312V19.8824ZM11.6313 19.8824H9.63138V18.4425H11.6313V19.8824ZM7.63143 19.8824H5.63149V18.4425H7.63143V19.8824ZM45.6304 11.8827H1.6316C1.23361 11.8827 0.911621 11.5607 0.911621 11.1627V1.16297C0.911621 0.764984 1.23361 0.442993 1.6316 0.442993H45.6304C46.0284 0.442993 46.3503 0.764984 46.3503 1.16297V11.1627C46.3503 11.5607 46.0284 11.8827 45.6304 11.8827ZM2.35158 10.4427H44.9104V1.88295H2.35158V10.4427ZM41.6305 5.88284H29.6308V4.44288H41.6305V5.88284ZM15.6312 5.88284H13.6313V4.44288H15.6312V5.88284ZM11.6313 5.88284H9.63138V4.44288H11.6313V5.88284ZM7.63143 5.88284H5.63149V4.44288H7.63143V5.88284Z" fill="#5B5B5B"/>
<path d="M23.631 51.8815C21.2731 51.8815 19.3131 50.1436 18.9651 47.8817H1.6316V46.4417H18.9651C19.2771 44.4138 20.8831 42.8098 22.911 42.4958V39.8819H1.6316C1.23361 39.8819 0.911621 39.5599 0.911621 39.1619V29.1622C0.911621 28.7642 1.23361 28.4422 1.6316 28.4422H45.6304C46.0284 28.4422 46.3503 28.7642 46.3503 29.1622V39.1619C46.3503 39.5599 46.0284 39.8819 45.6304 39.8819H24.351V42.4958C26.3789 42.8078 27.9849 44.4138 28.2969 46.4417H45.6304V47.8837H28.2969C27.9489 50.1436 25.9889 51.8815 23.631 51.8815ZM23.631 43.8818C21.823 43.8818 20.3511 45.3517 20.3511 47.1617C20.3511 48.9716 21.823 50.4416 23.631 50.4416C25.4389 50.4416 26.9109 48.9716 26.9109 47.1617C26.9109 45.3517 25.4389 43.8818 23.631 43.8818ZM2.35158 38.4419H44.9104V29.8822H2.35158V38.4419ZM41.6305 33.8821H29.6308V32.4421H41.6305V33.8821ZM15.6312 33.8821H13.6313V32.4421H15.6312V33.8821ZM11.6313 33.8821H9.63138V32.4421H11.6313V33.8821ZM7.63143 33.8821H5.63149V32.4421H7.63143V33.8821ZM45.6304 25.8823H1.6316C1.23361 25.8823 0.911621 25.5603 0.911621 25.1623V15.1626C0.911621 14.7646 1.23361 14.4426 1.6316 14.4426H45.6304C46.0284 14.4426 46.3503 14.7646 46.3503 15.1626V25.1623C46.3503 25.5603 46.0284 25.8823 45.6304 25.8823ZM2.35158 24.4423H44.9104V15.8826H2.35158V24.4423ZM41.6305 19.8824H29.6308V18.4425H41.6305V19.8824ZM15.6312 19.8824H13.6313V18.4425H15.6312V19.8824ZM11.6313 19.8824H9.63138V18.4425H11.6313V19.8824ZM7.63143 19.8824H5.63149V18.4425H7.63143V19.8824ZM45.6304 11.8827H1.6316C1.23361 11.8827 0.911621 11.5607 0.911621 11.1627V1.16297C0.911621 0.764984 1.23361 0.442993 1.6316 0.442993H45.6304C46.0284 0.442993 46.3503 0.764984 46.3503 1.16297V11.1627C46.3503 11.5607 46.0284 11.8827 45.6304 11.8827ZM2.35158 10.4427H44.9104V1.88295H2.35158V10.4427ZM41.6305 5.88284H29.6308V4.44288H41.6305V5.88284ZM15.6312 5.88284H13.6313V4.44288H15.6312V5.88284ZM11.6313 5.88284H9.63138V4.44288H11.6313V5.88284ZM7.63143 5.88284H5.63149V4.44288H7.63143V5.88284Z" fill="url(#paint0_linear_236_345)" fill-opacity="0.8"/>
<defs>
<linearGradient id="paint0_linear_236_345" x1="46.3503" y1="51.8815" x2="-2.00394" y2="48.9768" gradientUnits="userSpaceOnUse">
<stop offset="0.249194" stop-color="#764BC1" stop-opacity="0.77"/>
<stop offset="0.482702" stop-color="#3972ED" stop-opacity="0.65"/>
<stop offset="1" stop-color="#32D4EF" stop-opacity="0.72"/>
</linearGradient>
</defs>
</svg>
