<svg width="51" height="38" viewBox="0 0 51 38" fill="none" xmlns="http://www.w3.org/2000/svg">
<path d="M33.3806 15.7605H32.6254C32.1098 13.6101 30.6507 11.8075 28.6545 10.8553C26.6585 9.90305 24.3395 9.90305 22.3436 10.8553C20.3476 11.8076 18.8886 13.6101 18.3726 15.7605H17.6195C17.2321 15.7605 16.9182 16.0745 16.9182 16.4619V20.9439C16.9182 21.3309 17.2321 21.6448 17.6195 21.6452H18.1656V22.7118C18.1656 25.3319 19.5632 27.7536 21.8326 29.0637C24.1019 30.3741 26.8981 30.3741 29.1675 29.0637C31.4368 27.7536 32.8345 25.3319 32.8345 22.7118V21.6448H33.3806C33.768 21.6448 34.0819 21.3309 34.0819 20.9434V16.4619C34.0819 16.0745 33.768 15.7605 33.3806 15.7605ZM18.3213 20.2421V17.1632H32.6795V20.2421H18.3213ZM25.5005 11.5441C26.7738 11.5453 28.0129 11.9561 29.0352 12.7155C30.0576 13.4745 30.8086 14.5424 31.1785 15.7605H19.8255C20.1904 14.5398 20.9402 13.4694 21.9629 12.7096C22.9857 11.9498 24.2269 11.5407 25.5009 11.5441H25.5005ZM31.4323 22.7111C31.4323 24.8306 30.3018 26.789 28.4666 27.8485C26.631 28.908 24.37 28.908 22.5344 27.8485C20.6992 26.7889 19.5687 24.8306 19.5687 22.7111V21.6445H31.4326L31.4323 22.7111ZM25.5005 27.5997C26.0916 27.5997 26.659 27.3651 27.0773 26.9468C27.4952 26.5289 27.7302 25.9615 27.7302 25.3704C27.7302 24.7788 27.4956 24.2119 27.0773 23.7936C26.6594 23.3753 26.0921 23.1407 25.5009 23.1407C24.9094 23.1407 24.3425 23.3753 23.9242 23.7936C23.5058 24.2115 23.2712 24.7788 23.2712 25.37C23.2716 25.9611 23.5071 26.528 23.925 26.9459C24.3429 27.3638 24.9094 27.5989 25.5005 27.5997ZM25.5005 24.5434C25.8349 24.5429 26.1367 24.7446 26.2645 25.0535C26.3926 25.3624 26.3221 25.7181 26.0854 25.9548C25.8491 26.1911 25.4934 26.2621 25.1845 26.1339C24.8751 26.0062 24.6739 25.7048 24.6739 25.3699C24.6743 24.9137 25.0442 24.5438 25.5005 24.5434ZM49.396 37.669L1.60394 37.6694C1.21652 37.669 0.902588 37.355 0.902588 36.968V1.34972C0.902588 0.96273 1.21652 0.648793 1.60394 0.648376H49.396C49.7834 0.648794 50.0974 0.96273 50.0974 1.34972V36.968C50.0974 37.355 49.7834 37.669 49.396 37.6694V37.669ZM2.30608 36.2663H48.6949V2.05119H2.30608V36.2663ZM45.6555 33.9289L5.34446 33.9293C4.95705 33.9293 4.64311 33.6149 4.64311 33.2279V5.0896C4.64311 4.70261 4.95705 4.38825 5.34446 4.38825H19.4216C19.6078 4.38825 19.7861 4.46215 19.9176 4.59407L21.1149 5.79136L29.885 5.79094L31.0823 4.59365V4.59407C31.2138 4.46215 31.392 4.38825 31.5782 4.38825H45.6554C46.0428 4.38825 46.3568 4.70261 46.3568 5.0896V7.86197C46.3568 8.24896 46.0428 8.56332 45.6554 8.56332C45.268 8.56332 44.9541 8.24896 44.9541 7.86197V5.7909H31.8687L30.6714 6.98818C30.5399 7.11969 30.3616 7.19358 30.1754 7.19358H20.8241C20.6379 7.19358 20.4597 7.11969 20.3282 6.98818L19.1309 5.7909H6.04548V32.526H44.9544L44.954 13.973C44.954 13.586 45.2679 13.2717 45.6553 13.2717C46.0427 13.2717 46.3567 13.586 46.3567 13.973V33.2271C46.3567 33.6141 46.0427 33.9284 45.6553 33.9284L45.6555 33.9289Z" fill="#1C1F25"/>
</svg>
