<svg width="33" height="32" viewBox="0 0 33 32" fill="none" xmlns="http://www.w3.org/2000/svg">
<path fill-rule="evenodd" clip-rule="evenodd" d="M16.3176 32C25.1542 32 32.3176 24.8366 32.3176 16C32.3176 7.16344 25.1542 0 16.3176 0C7.48107 0 0.317627 7.16344 0.317627 16C0.317627 24.8366 7.48107 32 16.3176 32ZM20.5676 17.5H18.0676V26H14.0676V17.5H11.0676V13.5H14.0676V10.7C14.0676 7.657 15.9956 6 18.7106 6C20.0106 6 21.2416 6.097 21.5676 6.14V9.5H20.0676C18.0676 9.5 18.0676 10.47 18.0676 11.5V13.5H21.5676L20.5676 17.5Z" fill="white"/>
</svg>
