<svg width="32" height="32" viewBox="0 0 32 32" fill="none" xmlns="http://www.w3.org/2000/svg">
<path fill-rule="evenodd" clip-rule="evenodd" d="M16 32C24.8366 32 32 24.8366 32 16C32 7.16344 24.8366 0 16 0C7.16344 0 0 7.16344 0 16C0 24.8366 7.16344 32 16 32ZM6.6753 25.5499H10.8217V12.197H6.6753V25.5499ZM6.34459 7.9513C6.34459 9.27701 7.4203 10.3756 8.74601 10.3756C10.0717 10.3756 11.1474 9.27701 11.1474 7.9513C11.1474 7.3144 10.8944 6.70359 10.4441 6.25323C9.99373 5.80287 9.38291 5.54987 8.74601 5.54987C8.10912 5.54987 7.4983 5.80287 7.04795 6.25323C6.59759 6.70359 6.34459 7.3144 6.34459 7.9513ZM22.2031 25.5499H26.3403H26.3439V18.2149C26.3439 14.6256 25.5724 11.862 21.376 11.862C19.3589 11.862 18.0067 12.9692 17.4531 14.0184H17.3953V12.197H13.4189V25.5499H17.561V18.9385C17.561 17.197 17.8917 15.5142 20.0474 15.5142C22.1717 15.5142 22.2031 17.5006 22.2031 19.0499V25.5499Z" fill="white"/>
</svg>
