<svg width="33" height="32" viewBox="0 0 33 32" fill="none" xmlns="http://www.w3.org/2000/svg">
<path fill-rule="evenodd" clip-rule="evenodd" d="M16.3176 32C25.1541 32 32.3175 24.8366 32.3175 16C32.3175 7.16344 25.1541 0 16.3176 0C7.48105 0 0.317627 7.16344 0.317627 16C0.317627 24.8366 7.48105 32 16.3176 32ZM19.5879 5.85825C18.8463 5.8405 18.1044 5.83304 17.3626 5.83589L15.2726 5.83487C14.5311 5.83308 13.7897 5.84155 13.0484 5.86028L12.8512 5.86537L12.1274 5.89586C11.0448 5.94669 10.3078 6.11747 9.65926 6.36856C8.98119 6.62429 8.36713 7.02499 7.85998 7.54267C7.3415 8.04936 6.94038 8.66353 6.68485 9.34196C6.43377 9.99051 6.26299 10.7275 6.21216 11.8101C6.19996 12.0805 6.1898 12.3062 6.18166 12.5339L6.17455 12.7311C6.1568 13.4724 6.14935 14.2139 6.15218 14.9553V17.0454C6.15038 17.7872 6.15886 18.529 6.1776 19.2706L6.18268 19.4678C6.19169 19.7091 6.20185 19.9504 6.21318 20.1916C6.264 21.2732 6.43478 22.0112 6.68587 22.6587C6.94125 23.3373 7.34159 23.9521 7.85896 24.46C8.36646 24.9773 8.98091 25.3773 9.65926 25.6321C10.3078 25.8822 11.0458 26.055 12.1274 26.1058C12.3686 26.1174 12.6099 26.1276 12.8512 26.1363L13.0484 26.1424C13.79 26.1605 14.5318 26.1683 15.2736 26.1658H16.6043L17.3626 26.1648C18.1044 26.1673 18.8463 26.1595 19.5879 26.1414L19.7851 26.1353C20.0058 26.1274 20.2236 26.1176 20.484 26.1059L20.5088 26.1048C21.5904 26.054 22.3285 25.8832 22.976 25.6321C23.6543 25.3767 24.269 24.9768 24.7773 24.46C25.2948 23.9524 25.6949 23.3375 25.9494 22.6587C26.1995 22.0112 26.3723 21.2732 26.4231 20.1916L26.4242 20.1666C26.4359 19.9063 26.4457 19.6885 26.4536 19.4678L26.4597 19.2706C26.4778 18.529 26.4856 17.7872 26.4831 17.0454V15.7137L26.4821 14.9553C26.4845 14.2139 26.4767 13.4724 26.4587 12.7311L26.4526 12.5339C26.4444 12.3062 26.4343 12.0805 26.4221 11.8101C26.3713 10.7285 26.2005 9.9895 25.9494 9.34196C25.6941 8.66387 25.2941 8.04953 24.7773 7.54165C24.2121 6.97645 23.6469 6.62676 22.976 6.36856C22.3285 6.11747 21.5904 5.94669 20.5088 5.89586L20.4839 5.89474C20.2236 5.88304 20.0058 5.87325 19.7851 5.86537L19.5879 5.85825ZM14.3506 11.2846C14.9755 11.0335 15.6442 10.9091 16.3176 10.9186C17.6657 10.9186 18.9585 11.4531 19.9117 12.4063C20.8649 13.3595 21.4004 14.6523 21.4004 16.0003C21.4004 17.3484 20.8649 18.6412 19.9117 19.5944C18.9585 20.5476 17.6657 21.0831 16.3176 21.0831C15.6442 21.0926 14.9755 20.9682 14.3506 20.7171C13.7256 20.4659 13.1568 20.0931 12.6772 19.6202C12.1976 19.1473 11.8168 18.5839 11.5568 17.9625C11.2969 17.3412 11.163 16.6744 11.163 16.0009C11.163 15.3273 11.2969 14.6605 11.5568 14.0392C11.8168 13.4178 12.1976 12.8544 12.6772 12.3815C13.1568 11.9086 13.7256 11.5358 14.3506 11.2846ZM17.5017 13.1674C17.1253 13.0176 16.7227 12.9443 16.3176 12.9517L16.3186 12.9507C15.5098 12.9507 14.7341 13.272 14.1622 13.8439C13.5903 14.4158 13.269 15.1915 13.269 16.0003C13.269 16.8092 13.5903 17.5848 14.1622 18.1568C14.7341 18.7287 15.5098 19.05 16.3186 19.05C16.7237 19.0573 17.1263 18.9838 17.5026 18.8339C17.879 18.6839 18.2218 18.4604 18.5108 18.1765C18.7999 17.8926 19.0294 17.5539 19.1861 17.1803C19.3428 16.8066 19.4235 16.4055 19.4234 16.0003C19.4234 15.5952 19.3426 15.1941 19.1858 14.8205C19.0289 14.4469 18.7992 14.1083 18.5101 13.8245C18.2209 13.5406 17.8781 13.3173 17.5017 13.1674ZM20.789 9.78311C21.0164 9.54644 21.3265 9.40693 21.6545 9.3938V9.39177C21.9915 9.39177 22.3147 9.52564 22.553 9.76394C22.7913 10.0022 22.9252 10.3254 22.9252 10.6625C22.9252 10.9995 22.7913 11.3227 22.553 11.561C22.3147 11.7993 21.9915 11.9331 21.6545 11.9331C21.3265 11.92 21.0164 11.7805 20.789 11.5438C20.5616 11.3072 20.4346 10.9917 20.4346 10.6635C20.4346 10.3353 20.5616 10.0198 20.789 9.78311Z" fill="white"/>
</svg>
