<svg width="26" height="26" viewBox="0 0 26 26" fill="none" xmlns="http://www.w3.org/2000/svg">
<path d="M24.8317 8.24567C24.7394 8.24567 24.6644 8.1707 24.6644 8.07822V1.33468H17.717C17.6248 1.33468 17.5498 1.25971 17.5498 1.16746C17.5498 1.07497 17.6248 1 17.717 1H24.8318C24.9236 1.00163 24.9977 1.07567 24.9993 1.16746V8.0778C24.9993 8.12218 24.9818 8.16491 24.9503 8.19621C24.919 8.22751 24.8765 8.24526 24.8318 8.24526L24.8317 8.24567Z" fill="#1C1F25"/>
<path fill-rule="evenodd" clip-rule="evenodd" d="M25.1568 8.74567H24.8317C24.4628 8.74567 24.1644 8.4464 24.1644 8.07822V1.83468H17.717C17.3486 1.83468 17.0498 1.53585 17.0498 1.16746C17.0498 0.79928 17.3482 0.5 17.717 0.5H24.8408C25.2017 0.506429 25.4928 0.797599 25.4992 1.15853L25.4994 1.16746L25.4993 8.0778C25.4993 8.25318 25.4302 8.42408 25.3029 8.55064C25.3028 8.55078 25.3031 8.55051 25.3029 8.55064L25.2615 8.50974L25.2087 8.62869C25.0988 8.70388 24.9675 8.74567 24.8317 8.74567L24.8318 8.24575C24.8765 8.24575 24.919 8.22751 24.9503 8.19621C24.9817 8.16501 24.9992 8.12244 24.9993 8.07822C24.9993 8.07808 24.9993 8.07835 24.9993 8.07822L24.9993 1.16746C24.9977 1.07567 24.9236 1.00163 24.8318 1H17.717C17.6248 1 17.5498 1.07497 17.5498 1.16746C17.5498 1.25971 17.6248 1.33468 17.717 1.33468H24.6644V8.0778C24.6644 8.12071 24.6806 8.16026 24.7071 8.18989C24.7073 8.19017 24.7076 8.19044 24.7078 8.19071C24.7384 8.22447 24.7828 8.24575 24.8318 8.24575M25.1568 8.74567L25.2087 8.62869ZM25.1329 8.37888L25.2889 8.44808L25.2622 8.50816" fill="#1C1F25"/>
<path d="M24.8317 24.9996H17.9214C17.8289 24.9996 17.7539 24.9246 17.7539 24.8321C17.7539 24.7399 17.8289 24.6649 17.9214 24.6649H24.6649V17.7175C24.6649 17.6252 24.7399 17.5503 24.8321 17.5503C24.8767 17.5503 24.9192 17.5678 24.9505 17.5993C24.9821 17.6306 24.9996 17.6731 24.9996 17.7175V24.8323C24.9979 24.9241 24.9239 24.9981 24.8321 24.9998L24.8317 24.9996Z" fill="#1C1F25"/>
<path fill-rule="evenodd" clip-rule="evenodd" d="M24.9996 17.7175C24.9996 17.6731 24.9821 17.6306 24.9505 17.5993C24.9192 17.5678 24.8767 17.5503 24.8321 17.5503C24.7399 17.5503 24.6649 17.6252 24.6649 17.7175V24.6649H17.9214C17.8289 24.6649 17.7539 24.7399 17.7539 24.8321C17.7539 24.9246 17.8289 24.9996 17.9214 24.9996H24.8317C24.9235 24.9979 24.9979 24.9241 24.9996 24.8323V17.7175ZM24.7242 25.4996L24.7289 25.5017L24.841 25.4997C25.202 25.4932 25.4931 25.2022 25.4995 24.8412L25.4996 17.7175C25.4996 17.5418 25.4303 17.3718 25.3041 17.2458C25.1779 17.1193 25.0077 17.0503 24.8321 17.0503C24.4637 17.0503 24.1649 17.3491 24.1649 17.7175V24.1649H17.9214C17.5532 24.1649 17.2539 24.4633 17.2539 24.8321C17.2539 25.2008 17.5527 25.4996 17.9214 25.4996H24.7242Z" fill="#1C1F25"/>
<path d="M1.16746 8.44957C1.07497 8.44957 1 8.3746 1 8.28235V1.16753C1.00163 1.07574 1.07567 1.00171 1.16746 1.00007H8.0778C8.12218 1.00007 8.16491 1.01759 8.19621 1.04912C8.22751 1.08041 8.24526 1.12292 8.24526 1.16753C8.24526 1.2119 8.22751 1.25441 8.19621 1.28571C8.16492 1.31724 8.12218 1.33475 8.0778 1.33475H1.33427V8.28217C1.33427 8.32654 1.31675 8.36905 1.28522 8.40035C1.25392 8.43187 1.21142 8.44939 1.16704 8.44939L1.16746 8.44957Z" fill="#1C1F25"/>
<path fill-rule="evenodd" clip-rule="evenodd" d="M1.16746 8.94957C0.799283 8.94957 0.5 8.6512 0.5 8.28235V1.15862C0.506429 0.797647 0.797609 0.506593 1.15853 0.500152L1.16746 0.499992L8.0778 0.500072C8.25314 0.500072 8.42401 0.569147 8.55056 0.696362C8.67475 0.820971 8.74526 0.990155 8.74526 1.16753C8.74526 1.34513 8.67442 1.51425 8.55043 1.63859C8.42388 1.76574 8.25306 1.83475 8.0778 1.83475H1.83427V8.28217C1.83427 8.45788 1.76497 8.62793 1.63878 8.75389C1.51292 8.87999 1.34299 8.94945 1.16746 8.94957ZM1.16754 8.44939C1.21082 8.44926 1.25229 8.43247 1.28327 8.40228C1.28393 8.40164 1.28458 8.40099 1.28522 8.40034C1.31671 8.36909 1.33422 8.32666 1.33427 8.28235C1.33427 8.28229 1.33427 8.28241 1.33427 8.28235L1.33427 1.33475H8.0778C8.12218 1.33475 8.16492 1.31723 8.19621 1.28571C8.22751 1.25441 8.24526 1.2119 8.24526 1.16753C8.24526 1.12292 8.22751 1.08041 8.19621 1.04912C8.16491 1.01759 8.12218 1.00007 8.0778 1.00007H1.16746C1.07567 1.00171 1.00163 1.07574 1 1.16753V8.28217C1 8.33732 1.02679 8.38647 1.0681 8.41695C1.09577 8.43736 1.13053 8.44928 1.16754 8.44939Z" fill="#1C1F25"/>
<path fill-rule="evenodd" clip-rule="evenodd" d="M17.2111 18.094C17.5876 18.4135 18.01 18.6993 18.4784 18.9429C17.9939 19.2028 17.4815 19.4015 16.953 19.536C16.3728 19.6836 15.7732 19.754 15.1697 19.7433C14.0165 19.7229 12.8878 19.4072 11.8914 18.8263C10.8949 18.2455 10.0641 17.4189 9.47809 16.4254C8.89211 15.432 8.57059 14.305 8.54424 13.1519C8.51789 11.9988 8.78758 10.8583 9.32757 9.83912C9.86755 8.81996 10.6598 7.95626 11.6286 7.33049C12.5975 6.70472 13.7106 6.33777 14.8616 6.2647C15.5066 6.22375 16.2923 6.32424 17.0416 6.50817C17.4558 6.60987 17.859 6.73708 18.221 6.87999C18.3727 6.93989 18.5171 7.00254 18.6522 7.06723L18.396 7.20514C17.9985 7.4191 17.635 7.66333 17.3054 7.93268C14.1283 10.5294 14.1077 15.46 17.2111 18.094ZM15.6835 18.4301C12.8881 15.4072 12.9053 10.5903 15.7605 7.59301C15.4653 7.55876 15.1864 7.5467 14.944 7.56209C14.0148 7.62108 13.1161 7.91732 12.334 8.42251C11.5518 8.9277 10.9122 9.62498 10.4763 10.4478C10.0404 11.2705 9.82263 12.1913 9.8439 13.1222C9.86518 14.0531 10.1247 14.963 10.5978 15.765C11.0709 16.567 11.7417 17.2343 12.5461 17.7032C13.3505 18.1722 14.2617 18.427 15.1927 18.4435C15.3568 18.4464 15.5206 18.4419 15.6835 18.4301Z" fill="#1C1F25"/>
<path d="M8.28228 24.9996H1.16746C1.07567 24.9979 1.00164 24.9239 1 24.8321V17.9218C1 17.8293 1.07497 17.7543 1.16746 17.7543C1.21183 17.7543 1.25433 17.7721 1.28563 17.8034C1.31716 17.8347 1.33468 17.8774 1.33468 17.9218V24.6653H8.2821C8.32647 24.6653 8.36897 24.6828 8.40027 24.7144C8.4318 24.7457 8.44932 24.7882 8.44932 24.8325C8.44932 24.8772 8.4318 24.9197 8.40027 24.951C8.36898 24.9825 8.32647 25 8.2821 25L8.28228 24.9996Z" fill="#1C1F25"/>
<path fill-rule="evenodd" clip-rule="evenodd" d="M8.40023 24.951C8.43176 24.9197 8.44928 24.8772 8.44928 24.8325C8.44928 24.7882 8.43176 24.7457 8.40023 24.7144C8.36897 24.6829 8.32654 24.6654 8.28224 24.6653C8.28218 24.6653 8.2823 24.6653 8.28224 24.6653H1.33464V17.9218C1.33464 17.8774 1.31712 17.8347 1.28559 17.8034C1.25429 17.7721 1.21179 17.7543 1.16741 17.7543C1.07493 17.7543 0.999958 17.8293 0.999958 17.9218V24.8321C1.0016 24.9239 1.07563 24.998 1.16741 24.9996H8.28224C8.2823 24.9996 8.28218 24.9996 8.28224 24.9996C8.28255 24.9996 8.28285 25 8.28316 25C8.32714 24.9997 8.3692 24.9822 8.40023 24.951ZM8.75396 25.3043C8.62797 25.4306 8.45783 25.5 8.28205 25.5H7.51233L1.15851 25.4996C0.797535 25.4932 0.506479 25.202 0.500037 24.8411L0.499878 24.8321L0.499958 17.9218C0.499958 17.5532 0.798785 17.2543 1.16741 17.2543C1.34502 17.2543 1.51414 17.3252 1.63848 17.4492C1.76563 17.5757 1.83464 17.7465 1.83464 17.9218V24.1653H8.28205C8.45776 24.1653 8.62782 24.2346 8.75377 24.3608C8.79572 24.4027 8.83137 24.4494 8.86029 24.4996H9.05196L8.94334 24.7437C8.94728 24.773 8.94928 24.8027 8.94928 24.8325C8.94928 25.008 8.8803 25.1781 8.75396 25.3043Z" fill="#1C1F25"/>
</svg>
