<svg width="26" height="26" viewBox="0 0 26 26" fill="none" xmlns="http://www.w3.org/2000/svg">
<path d="M13.0996 16.8944C12.0629 16.8944 11.0687 16.4823 10.336 15.7486C9.6034 15.0149 9.19229 14.0202 9.19336 12.983C9.19447 11.9461 9.60781 10.9522 10.342 10.2201C11.0761 9.48819 12.0713 9.07805 13.108 9.08026C14.1447 9.08246 15.138 9.4968 15.8691 10.232C16.6002 10.9673 17.0091 11.9631 17.0056 13C17.0023 14.0341 16.5894 15.0247 15.8572 15.7546C15.1251 16.4845 14.1334 16.8944 13.0996 16.8944ZM13.0996 9.4001C12.1482 9.4001 11.2356 9.77799 10.5624 10.4507C9.88936 11.1233 9.51087 12.0358 9.51002 12.9875C9.50914 13.9392 9.88604 14.8522 10.5579 15.526C11.2298 16.1998 12.1418 16.5793 13.0932 16.581C14.0447 16.5828 14.9579 16.2064 15.6322 15.535C16.3066 14.8634 16.6866 13.9517 16.6892 13C16.6916 12.0462 16.3145 11.1305 15.6411 10.4551C14.9676 9.77971 14.0533 9.40005 13.0996 9.40005V9.4001Z" fill="white"/>
<path d="M12.9414 7H13.258V8.69398H12.9414V7Z" fill="white"/>
<path fill-rule="evenodd" clip-rule="evenodd" d="M12.4414 6.5H13.758V9.19398H12.4414V6.5ZM12.9414 7H13.258V8.69398H12.9414V7Z" fill="white"/>
<path d="M12.9414 17.306H13.258V19H12.9414V17.306Z" fill="white"/>
<path fill-rule="evenodd" clip-rule="evenodd" d="M12.4414 16.806H13.758V19.5H12.4414V16.806ZM12.9414 17.306H13.258V19H12.9414V17.306Z" fill="white"/>
<path d="M7 12.9808H8.69356V13.2975H7V12.9808Z" fill="white"/>
<path fill-rule="evenodd" clip-rule="evenodd" d="M6.5 12.4808H9.19356V13.7975H6.5V12.4808ZM8.69356 12.9808H7V13.2975H8.69356V12.9808Z" fill="white"/>
<path d="M17.3064 12.9808H19V13.2975H17.3064V12.9808Z" fill="white"/>
<path fill-rule="evenodd" clip-rule="evenodd" d="M16.8064 12.4808H19.5V13.7975H16.8064V12.4808ZM19 12.9808H17.3064V13.2975H19V12.9808Z" fill="white"/>
<path d="M8.73486 8.77251L8.95876 8.54856L10.1562 9.7463L9.9323 9.97025L8.73486 8.77251Z" fill="white"/>
<path fill-rule="evenodd" clip-rule="evenodd" d="M8.02783 8.77251L8.95875 7.84137L10.8632 9.7463L9.93229 10.6774L8.02783 8.77251ZM10.1562 9.7463L9.93229 9.97025L8.73485 8.77251L8.9588 8.54862L10.1562 9.7463Z" fill="white"/>
<path d="M16.0227 16.0588L16.2466 15.8348L17.444 17.0325L17.2201 17.2565L16.0227 16.0588Z" fill="white"/>
<path fill-rule="evenodd" clip-rule="evenodd" d="M15.3157 16.0588L16.2466 15.1276L18.151 17.0326L17.2201 17.9637L15.3157 16.0588ZM16.0227 16.0588L16.2466 15.8348L17.444 17.0326L17.2201 17.2565L16.0227 16.0588Z" fill="white"/>
<path d="M8.76147 17.2071L9.95891 16.0093L10.1828 16.2333L8.98537 17.431L8.76147 17.2071Z" fill="white"/>
<path fill-rule="evenodd" clip-rule="evenodd" d="M8.05444 17.2071L9.9589 15.3022L10.8898 16.2333L8.98535 18.1382L8.05444 17.2071ZM10.1828 16.2333L9.9589 16.0093L8.76146 17.2071L8.98541 17.431L10.1828 16.2333Z" fill="white"/>
<path d="M16.0459 9.91461L17.2433 8.71688L17.4672 8.94082L16.2698 10.1386L16.0459 9.91461Z" fill="white"/>
<path fill-rule="evenodd" clip-rule="evenodd" d="M15.3389 9.91461L17.2433 8.00968L18.1742 8.94082L16.2698 10.8458L15.3389 9.91461ZM16.2698 10.1385L16.0459 9.91461L17.2433 8.71693L17.4672 8.94082L16.2698 10.1385Z" fill="white"/>
<path d="M24.8317 8.24567C24.7394 8.24567 24.6644 8.1707 24.6644 8.07822V1.33468H17.717C17.6248 1.33468 17.5498 1.25971 17.5498 1.16746C17.5498 1.07497 17.6248 1 17.717 1H24.8318C24.9236 1.00163 24.9977 1.07567 24.9993 1.16746V8.0778C24.9993 8.12218 24.9818 8.16492 24.9503 8.19621C24.919 8.22751 24.8765 8.24526 24.8318 8.24526L24.8317 8.24567Z" fill="white"/>
<path fill-rule="evenodd" clip-rule="evenodd" d="M25.1569 8.74567H24.8317C24.4628 8.74567 24.1644 8.4464 24.1644 8.07822V1.83468H17.717C17.3486 1.83468 17.0498 1.53585 17.0498 1.16746C17.0498 0.79928 17.3482 0.5 17.717 0.5H24.8408C25.2017 0.506429 25.4928 0.797598 25.4992 1.15853L25.4994 1.16746L25.4993 8.0778C25.4993 8.25318 25.4302 8.42408 25.3029 8.55065C25.3028 8.55078 25.3031 8.55051 25.3029 8.55065L25.2615 8.50975L25.2088 8.62864C25.0989 8.70386 24.9676 8.74567 24.8317 8.74567L24.8318 8.24575C24.8765 8.24575 24.919 8.22751 24.9503 8.19621C24.9817 8.16501 24.9992 8.12244 24.9993 8.07822C24.9993 8.07808 24.9993 8.07835 24.9993 8.07822L24.9993 1.16746C24.9977 1.07567 24.9236 1.00163 24.8318 1H17.717C17.6248 1 17.5498 1.07497 17.5498 1.16746C17.5498 1.25971 17.6248 1.33468 17.717 1.33468H24.6644V8.0778C24.6644 8.12075 24.6806 8.16032 24.7072 8.18996C24.7074 8.19024 24.7076 8.19051 24.7079 8.19078C24.7385 8.2245 24.7828 8.24575 24.8318 8.24575M25.1569 8.74567L25.2088 8.62864ZM25.1327 8.37869L25.2889 8.44795L25.2622 8.50817" fill="white"/>
<path d="M24.8317 24.9996H17.9214C17.8289 24.9996 17.7539 24.9246 17.7539 24.8321C17.7539 24.7399 17.8289 24.6649 17.9214 24.6649H24.6649V17.7175C24.6649 17.6252 24.7399 17.5503 24.8321 17.5503C24.8767 17.5503 24.9192 17.5678 24.9505 17.5993C24.9821 17.6306 24.9996 17.6731 24.9996 17.7175V24.8323C24.9979 24.9241 24.9239 24.9981 24.8321 24.9998L24.8317 24.9996Z" fill="white"/>
<path fill-rule="evenodd" clip-rule="evenodd" d="M24.9996 17.7175C24.9996 17.6731 24.9821 17.6306 24.9505 17.5993C24.9192 17.5678 24.8767 17.5503 24.8321 17.5503C24.7399 17.5503 24.6649 17.6252 24.6649 17.7175V24.6649H17.9214C17.8289 24.6649 17.7539 24.7399 17.7539 24.8321C17.7539 24.9246 17.8289 24.9996 17.9214 24.9996H24.8317C24.9235 24.9979 24.9979 24.9241 24.9996 24.8323V17.7175ZM24.7241 25.4996L24.7288 25.5017L24.841 25.4997C25.202 25.4933 25.4931 25.2022 25.4995 24.8412L25.4996 17.7175C25.4996 17.5418 25.4303 17.3717 25.304 17.2457C25.1778 17.1193 25.0077 17.0503 24.8321 17.0503C24.4637 17.0503 24.1649 17.3491 24.1649 17.7175V24.1649H17.9214C17.5532 24.1649 17.2539 24.4633 17.2539 24.8321C17.2539 25.2008 17.5527 25.4996 17.9214 25.4996H24.7241Z" fill="white"/>
<path d="M8.28228 24.9996H1.16746C1.07567 24.998 1.00164 24.9239 1 24.8321V17.9218C1 17.8293 1.07497 17.7543 1.16746 17.7543C1.21183 17.7543 1.25433 17.7721 1.28563 17.8034C1.31716 17.8347 1.33468 17.8774 1.33468 17.9218V24.6653H8.2821C8.32647 24.6653 8.36897 24.6828 8.40027 24.7144C8.4318 24.7457 8.44932 24.7882 8.44932 24.8325C8.44932 24.8772 8.4318 24.9197 8.40027 24.951C8.36898 24.9825 8.32647 25 8.2821 25L8.28228 24.9996Z" fill="white"/>
<path fill-rule="evenodd" clip-rule="evenodd" d="M8.40035 24.951C8.43188 24.9197 8.4494 24.8772 8.4494 24.8325C8.4494 24.7882 8.43188 24.7457 8.40035 24.7144C8.3691 24.6829 8.32667 24.6654 8.28236 24.6653C8.2823 24.6653 8.28242 24.6653 8.28236 24.6653H1.33476V17.9218C1.33476 17.8774 1.31724 17.8347 1.28571 17.8034C1.25441 17.7721 1.21191 17.7543 1.16754 17.7543C1.07505 17.7543 1.00008 17.8293 1.00008 17.9218V24.8321C1.00172 24.9239 1.07575 24.998 1.16754 24.9996H8.28236C8.28242 24.9996 8.2823 24.9996 8.28236 24.9996C8.28267 24.9996 8.28298 25 8.28328 25C8.32726 24.9997 8.36932 24.9822 8.40035 24.951ZM8.75408 25.3043C8.6281 25.4306 8.45795 25.5 8.28218 25.5H7.51245L1.15863 25.4996C0.797657 25.4932 0.506601 25.202 0.500159 24.8411L0.5 24.8321L0.50008 17.9218C0.50008 17.5532 0.798907 17.2543 1.16754 17.2543C1.34514 17.2543 1.51426 17.3252 1.6386 17.4492C1.76575 17.5757 1.83476 17.7465 1.83476 17.9218V24.1653H8.28218C8.45788 24.1653 8.62794 24.2346 8.7539 24.3608C8.79584 24.4027 8.83149 24.4494 8.86041 24.4996H9.05208L8.94346 24.7437C8.9474 24.773 8.9494 24.8027 8.9494 24.8325C8.9494 25.008 8.88042 25.1781 8.75408 25.3043Z" fill="white"/>
<path d="M1.16746 8.44956C1.07497 8.44956 1 8.37459 1 8.28234V1.16751C1.00163 1.07573 1.07567 1.0017 1.16746 1.00006H8.0778C8.12218 1.00006 8.16491 1.01757 8.19621 1.0491C8.22751 1.0804 8.24526 1.12291 8.24526 1.16751C8.24526 1.21189 8.22751 1.25439 8.19621 1.28569C8.16492 1.31722 8.12218 1.33474 8.0778 1.33474H1.33427V8.28215C1.33427 8.32653 1.31675 8.36903 1.28522 8.40033C1.25392 8.43186 1.21142 8.44938 1.16704 8.44938L1.16746 8.44956Z" fill="white"/>
<path fill-rule="evenodd" clip-rule="evenodd" d="M1.16746 8.94956C0.799282 8.94956 0.5 8.65119 0.5 8.28234V1.15861C0.506429 0.797632 0.797609 0.506578 1.15853 0.500136L1.16746 0.499977L8.0778 0.500057C8.25314 0.500057 8.42401 0.569132 8.55056 0.696347C8.67475 0.820956 8.74526 0.99014 8.74526 1.16751C8.74526 1.34511 8.67442 1.51423 8.55043 1.63858C8.42388 1.76572 8.25306 1.83474 8.0778 1.83474H1.83427V8.28215C1.83427 8.45786 1.76497 8.62792 1.63878 8.75387C1.51292 8.87998 1.34299 8.94944 1.16746 8.94956ZM1.16754 8.44937C1.21091 8.44925 1.25246 8.43239 1.28346 8.40207C1.28405 8.4015 1.28464 8.40092 1.28522 8.40033C1.31671 8.36907 1.33422 8.32664 1.33427 8.28234C1.33427 8.28227 1.33427 8.2824 1.33427 8.28234L1.33427 1.33474H8.0778C8.12218 1.33474 8.16492 1.31722 8.19621 1.28569C8.22751 1.25439 8.24526 1.21189 8.24526 1.16751C8.24526 1.1229 8.22751 1.0804 8.19621 1.0491C8.16491 1.01757 8.12218 1.00006 8.0778 1.00006H1.16746C1.07567 1.00169 1.00163 1.07573 1 1.16751V8.28215C1 8.33725 1.02674 8.38637 1.06799 8.41685C1.09568 8.43731 1.13048 8.44927 1.16754 8.44937Z" fill="white"/>
</svg>
