<svg width="33" height="32" viewBox="0 0 33 32" fill="none" xmlns="http://www.w3.org/2000/svg">
<path d="M16.3176 0C7.48163 0 0.317627 7.164 0.317627 16C0.317627 24.836 7.48163 32 16.3176 32C25.1536 32 32.3176 24.836 32.3176 16C32.3176 7.164 25.1536 0 16.3176 0ZM24.1763 10.9613L21.5496 23.3347C21.3563 24.212 20.8336 24.4253 20.1043 24.012L16.1043 21.0653L14.1763 22.924C14.0818 23.0463 13.9606 23.1453 13.8219 23.2135C13.6833 23.2817 13.5308 23.3172 13.3763 23.3173H13.3696L13.6536 19.2453L21.067 12.5493C21.387 12.2653 20.995 12.104 20.5696 12.388L11.411 18.156L7.46429 16.924C6.61096 16.6533 6.58696 16.0707 7.64429 15.652L23.0656 9.708C23.783 9.44667 24.407 9.87867 24.175 10.9627L24.1763 10.9613Z" fill="white"/>
</svg>
