<svg width="47" height="40" viewBox="0 0 47 40" fill="none" xmlns="http://www.w3.org/2000/svg">
<path d="M0.911377 27.7605V36.7887L7.75027 39.4466L14.5894 36.7887V36.78L14.5897 27.7689V27.7602L7.75056 25.1023L0.911377 27.7605ZM2.15775 29.5908L7.1272 31.5224V37.8681L2.15775 35.9364V29.5908ZM13.3432 35.9364L8.37349 37.8681V31.5224L13.3432 29.5908V35.9364ZM7.77015 30.4201H7.73016L2.61924 28.434L7.75012 26.4394L12.881 28.434L7.77015 30.4201Z" fill="#1C1F25"/>
<path d="M20.2172 8.45335L22.0665 8.45335C22.3057 8.45335 22.4999 8.25906 22.4999 8.01987C22.4999 7.78067 22.3057 7.58639 22.0665 7.58639L20.2172 7.58639C20.0214 6.78019 19.2984 6.17755 18.4322 6.17755C17.4162 6.17755 16.5898 7.00387 16.5898 8.01987C16.5898 9.03587 17.4162 9.86218 18.4322 9.86218C19.2983 9.86218 20.0213 9.26034 20.2172 8.45335ZM17.4569 8.01987C17.4569 7.48227 17.8946 7.04453 18.4322 7.04453C18.9698 7.04453 19.4076 7.48227 19.4076 8.01987C19.4076 8.55746 18.9698 8.9952 18.4322 8.9952C17.8946 8.9952 17.4569 8.55823 17.4569 8.01987Z" fill="#1C1F25"/>
<path fill-rule="evenodd" clip-rule="evenodd" d="M20.4393 8.75333C20.14 9.57303 19.3573 10.1622 18.4321 10.1622C17.2504 10.1622 16.2898 9.20154 16.2898 8.01985C16.2898 6.83817 17.2504 5.87754 18.4321 5.87754C19.3574 5.87754 20.14 6.46738 20.4392 7.28637L22.0664 7.28637C22.4713 7.28637 22.7999 7.61498 22.7999 8.01985C22.7999 8.42473 22.4713 8.75333 22.0664 8.75333L20.4393 8.75333ZM20.2172 7.58637L22.0664 7.58637C22.3056 7.58637 22.4999 7.78066 22.4999 8.01985C22.4999 8.25905 22.3056 8.45333 22.0664 8.45333L20.2172 8.45333C20.0213 9.26033 19.2983 9.86217 18.4321 9.86217C17.4161 9.86217 16.5898 9.03585 16.5898 8.01985C16.5898 7.00385 17.4161 6.17754 18.4321 6.17754C19.2983 6.17754 20.0213 6.78018 20.2172 7.58637ZM18.4322 7.34452C18.0603 7.34452 17.7569 7.64794 17.7569 8.01985C17.7569 8.39238 18.0601 8.69519 18.4322 8.69519C18.8041 8.69519 19.1075 8.39176 19.1075 8.01985C19.1075 7.64794 18.8041 7.34452 18.4322 7.34452ZM18.4322 7.04452C17.8946 7.04452 17.4569 7.48226 17.4569 8.01985C17.4569 8.55822 17.8946 8.99519 18.4322 8.99519C18.9698 8.99519 19.4075 8.55745 19.4075 8.01985C19.4075 7.48226 18.9698 7.04452 18.4322 7.04452Z" fill="#1C1F25"/>
<path d="M8.18418 19.4749L8.18418 17.6257C8.18418 17.3865 7.98989 17.1922 7.7507 17.1922C7.51151 17.1922 7.31722 17.3865 7.31722 17.6257L7.31722 19.4749C6.51103 19.6708 5.90838 20.3938 5.90838 21.26C5.90838 22.276 6.7347 23.1023 7.7507 23.1023C8.7667 23.1023 9.59302 22.276 9.59302 21.26C9.59302 20.3938 8.99118 19.6708 8.18418 19.4749ZM7.7507 22.2352C7.21311 22.2352 6.77536 21.7975 6.77536 21.2599C6.77536 20.7223 7.21311 20.2846 7.7507 20.2846C8.2883 20.2846 8.72604 20.7223 8.72604 21.2599C8.72604 21.7975 8.28907 22.2352 7.7507 22.2352Z" fill="#1C1F25"/>
<path fill-rule="evenodd" clip-rule="evenodd" d="M8.48423 19.2528C9.30392 19.5521 9.89307 20.3348 9.89307 21.26C9.89307 22.4417 8.93243 23.4023 7.75075 23.4023C6.56906 23.4023 5.60843 22.4416 5.60843 21.26C5.60843 20.3347 6.19828 19.5521 7.01727 19.2529L7.01727 17.6257C7.01727 17.2208 7.34587 16.8922 7.75075 16.8922C8.15563 16.8922 8.48423 17.2208 8.48423 17.6257L8.48423 19.2528ZM7.31727 19.4749L7.31727 17.6257C7.31727 17.3865 7.51156 17.1922 7.75075 17.1922C7.98994 17.1922 8.18423 17.3865 8.18423 17.6257L8.18423 19.4749C8.99123 19.6708 9.59307 20.3938 9.59307 21.26C9.59307 22.276 8.76675 23.1023 7.75075 23.1023C6.73475 23.1023 5.90843 22.2759 5.90843 21.26C5.90843 20.3937 6.51107 19.6708 7.31727 19.4749ZM7.07541 21.2599C7.07541 21.6318 7.37884 21.9352 7.75075 21.9352C8.12328 21.9352 8.42608 21.632 8.42608 21.2599C8.42608 20.888 8.12266 20.5846 7.75075 20.5846C7.37884 20.5846 7.07541 20.888 7.07541 21.2599ZM6.77541 21.2599C6.77541 21.7975 7.21315 22.2352 7.75075 22.2352C8.28912 22.2352 8.72608 21.7975 8.72608 21.2599C8.72608 20.7223 8.28834 20.2846 7.75075 20.2846C7.21315 20.2846 6.77541 20.7223 6.77541 21.2599Z" fill="#1C1F25"/>
<path d="M18.8726 31.8411L17.0234 31.8411C16.7842 31.8411 16.5899 32.0354 16.5899 32.2746C16.5899 32.5138 16.7842 32.7081 17.0234 32.7081L18.8726 32.7081C19.0685 33.5143 19.7915 34.1169 20.6577 34.1169C21.6737 34.1169 22.5 33.2906 22.5 32.2746C22.5 31.2586 21.6737 30.4323 20.6577 30.4323C19.7915 30.4323 19.0685 31.0342 18.8726 31.8411ZM21.6329 32.2746C21.6329 32.8122 21.1952 33.25 20.6576 33.25C20.12 33.25 19.6823 32.8122 19.6823 32.2746C19.6823 31.737 20.12 31.2993 20.6576 31.2993C21.1952 31.2993 21.6329 31.7363 21.6329 32.2746Z" fill="#1C1F25"/>
<path fill-rule="evenodd" clip-rule="evenodd" d="M18.6506 31.5412C18.9498 30.7215 19.7325 30.1323 20.6577 30.1323C21.8394 30.1323 22.8 31.093 22.8 32.2746C22.8 33.4563 21.8394 34.417 20.6577 34.417C19.7324 34.417 18.9499 33.8271 18.6506 33.0081L17.0234 33.0081C16.6186 33.0081 16.29 32.6795 16.29 32.2746C16.29 31.8698 16.6186 31.5412 17.0234 31.5412L18.6506 31.5412ZM18.8727 32.7081L17.0234 32.7081C16.7842 32.7081 16.5899 32.5138 16.5899 32.2746C16.59 32.0354 16.7842 31.8412 17.0234 31.8412L18.8727 31.8412C19.0686 31.0342 19.7915 30.4323 20.6577 30.4323C21.6737 30.4323 22.5 31.2586 22.5 32.2746C22.5 33.2906 21.6737 34.117 20.6577 34.117C19.7915 34.117 19.0685 33.5143 18.8727 32.7081ZM20.6577 32.95C21.0296 32.95 21.333 32.6466 21.333 32.2746C21.333 31.9021 21.0297 31.5993 20.6577 31.5993C20.2857 31.5993 19.9823 31.9027 19.9823 32.2746C19.9823 32.6466 20.2857 32.95 20.6577 32.95ZM20.6577 33.25C21.1952 33.25 21.633 32.8122 21.633 32.2746C21.633 31.7363 21.1952 31.2993 20.6577 31.2993C20.1201 31.2993 19.6823 31.737 19.6823 32.2746C19.6823 32.8122 20.1201 33.25 20.6577 33.25Z" fill="#1C1F25"/>
<path d="M28.1274 8.45335L29.9766 8.45335C30.2158 8.45335 30.4101 8.25906 30.4101 8.01987C30.4101 7.78067 30.2158 7.58639 29.9766 7.58639L28.1274 7.58639C27.9315 6.78019 27.2085 6.17755 26.3423 6.17755C25.3263 6.17755 24.5 7.00387 24.5 8.01987C24.5 9.03587 25.3263 9.86218 26.3423 9.86218C27.2085 9.86218 27.9315 9.26034 28.1274 8.45335ZM25.3671 8.01987C25.3671 7.48227 25.8048 7.04453 26.3424 7.04453C26.88 7.04453 27.3177 7.48227 27.3177 8.01987C27.3177 8.55746 26.88 8.9952 26.3424 8.9952C25.8048 8.9952 25.3671 8.55823 25.3671 8.01987Z" fill="#1C1F25"/>
<path fill-rule="evenodd" clip-rule="evenodd" d="M28.3494 8.75333C28.0502 9.57303 27.2675 10.1622 26.3423 10.1622C25.1606 10.1622 24.2 9.20154 24.2 8.01985C24.2 6.83817 25.1606 5.87754 26.3423 5.87754C27.2676 5.87754 28.0501 6.46738 28.3494 7.28637L29.9766 7.28637C30.3814 7.28637 30.71 7.61498 30.71 8.01985C30.71 8.42473 30.3814 8.75333 29.9766 8.75333L28.3494 8.75333ZM28.1273 7.58637L29.9766 7.58637C30.2158 7.58637 30.41 7.78066 30.41 8.01985C30.41 8.25905 30.2158 8.45333 29.9766 8.45333L28.1273 8.45333C27.9314 9.26033 27.2085 9.86217 26.3423 9.86217C25.3263 9.86217 24.5 9.03585 24.5 8.01985C24.5 7.00385 25.3263 6.17754 26.3423 6.17754C27.2085 6.17754 27.9315 6.78018 28.1273 7.58637ZM26.3423 7.34452C25.9704 7.34452 25.667 7.64794 25.667 8.01985C25.667 8.39238 25.9703 8.69519 26.3423 8.69519C26.7143 8.69519 27.0177 8.39176 27.0177 8.01985C27.0177 7.64794 26.7143 7.34452 26.3423 7.34452ZM26.3423 7.04452C25.8048 7.04452 25.367 7.48226 25.367 8.01985C25.367 8.55822 25.8048 8.99519 26.3423 8.99519C26.8799 8.99519 27.3177 8.55745 27.3177 8.01985C27.3177 7.48226 26.8799 7.04452 26.3423 7.04452Z" fill="#1C1F25"/>
<path d="M26.7828 32.7081L24.9335 32.7081C24.6943 32.7081 24.5001 32.5138 24.5001 32.2746C24.5001 32.0354 24.6943 31.8411 24.9335 31.8411L26.7828 31.8411C26.9786 31.035 27.7016 30.4323 28.5678 30.4323C29.5838 30.4323 30.4102 31.2586 30.4102 32.2746C30.4102 33.2906 29.5838 34.1169 28.5678 34.1169C27.7017 34.1169 26.9787 33.5151 26.7828 32.7081ZM29.5431 32.2746C29.5431 31.737 29.1054 31.2993 28.5678 31.2993C28.0302 31.2993 27.5924 31.737 27.5924 32.2746C27.5924 32.8122 28.0302 33.25 28.5678 33.25C29.1054 33.25 29.5431 32.813 29.5431 32.2746Z" fill="#1C1F25"/>
<path fill-rule="evenodd" clip-rule="evenodd" d="M26.5607 33.0081C26.86 33.8278 27.6427 34.4169 28.5679 34.4169C29.7496 34.4169 30.7102 33.4563 30.7102 32.2746C30.7102 31.0929 29.7496 30.1323 28.5679 30.1323C27.6426 30.1323 26.86 30.7221 26.5608 31.5411L24.9336 31.5411C24.5287 31.5411 24.2001 31.8697 24.2001 32.2746C24.2001 32.6795 24.5287 33.0081 24.9336 33.0081L26.5607 33.0081ZM26.7828 31.8411L24.9336 31.8411C24.6944 31.8411 24.5001 32.0354 24.5001 32.2746C24.5001 32.5138 24.6944 32.7081 24.9336 32.7081L26.7828 32.7081C26.9787 33.5151 27.7017 34.1169 28.5679 34.1169C29.5839 34.1169 30.4102 33.2906 30.4102 32.2746C30.4102 31.2586 29.5839 30.4323 28.5679 30.4323C27.7017 30.4323 26.9787 31.0349 26.7828 31.8411ZM28.5678 31.5993C28.9397 31.5993 29.2431 31.9027 29.2431 32.2746C29.2431 32.6471 28.9399 32.9499 28.5678 32.9499C28.1959 32.9499 27.8925 32.6465 27.8925 32.2746C27.8925 31.9027 28.1959 31.5993 28.5678 31.5993ZM28.5678 31.2993C29.1054 31.2993 29.5431 31.737 29.5431 32.2746C29.5431 32.813 29.1054 33.2499 28.5678 33.2499C28.0302 33.2499 27.5925 32.8122 27.5925 32.2746C27.5925 31.737 28.0302 31.2993 28.5678 31.2993Z" fill="#1C1F25"/>
<path d="M39.249 25.1027L32.4102 27.7605V36.7887L39.249 39.4466L46.0885 36.7899V27.761L39.249 25.1027ZM33.6565 29.5914L38.626 31.5231V37.8687L33.6565 35.937V29.5914ZM44.842 35.937L39.8723 37.8687V31.5231L44.842 29.5914V35.937ZM39.2689 30.4208H39.2289L34.1178 28.4346L39.2487 26.4401L44.3796 28.4346L39.2689 30.4208Z" fill="#1C1F25"/>
<path d="M14.5899 12.5349V3.50594L7.75076 0.847473L0.911865 3.50534V12.5343L7.75076 15.1922L14.5899 12.5349ZM13.3438 11.6821L8.37405 13.6135V7.26752L13.3438 5.33614V11.6821ZM7.75068 2.18427L12.8816 4.17886L7.77064 6.16477H7.73065L2.61951 4.17864L7.75068 2.18427ZM2.15816 5.33591L7.12761 7.2673V13.6129L2.15816 11.6819V5.33591Z" fill="#1C1F25"/>
<path d="M46.0882 12.5349V3.50594L39.249 0.847473L32.4102 3.50534V12.5343L39.249 15.1922L46.0882 12.5349ZM44.8421 11.6821L39.8723 13.6135V7.26752L44.8421 5.33614V11.6821ZM39.249 2.18427L44.3799 4.17886L39.2689 6.16477H39.2289L34.1178 4.17864L39.249 2.18427ZM33.6565 5.33591L38.6259 7.2673V13.6129L33.6565 11.6819V5.33591Z" fill="#1C1F25"/>
</svg>
