<svg width="33" height="50" viewBox="0 0 33 50" fill="none" xmlns="http://www.w3.org/2000/svg">
<path d="M29.8927 24.7743L32.4034 23.7019C32.5629 23.6334 32.667 23.4766 32.667 23.3032V15.4488C32.667 15.369 32.6403 15.2986 32.6027 15.2355C32.5942 15.2189 32.5846 15.2061 32.5733 15.1922C32.5284 15.1333 32.4746 15.0811 32.405 15.0517C32.4042 15.0517 32.4042 15.0509 32.4034 15.0509H32.4019L26.3506 12.4667C26.2422 12.4198 26.1184 12.4198 26.01 12.4667L22.9868 13.7586V10.5283C22.9868 10.4486 22.9601 10.3782 22.9226 10.3151C22.9141 10.2984 22.9044 10.2857 22.8932 10.2717C22.8483 10.2129 22.7945 10.1607 22.7248 10.1312C22.724 10.1312 22.724 10.1305 22.7233 10.1305H22.7225H22.7217L16.6704 7.54623C16.562 7.4994 16.4382 7.4994 16.3298 7.54623L10.2785 10.1305H10.277C10.2762 10.1305 10.2762 10.1312 10.2754 10.1312C10.2062 10.1607 10.1524 10.2129 10.1071 10.2717C10.0959 10.2864 10.087 10.2996 10.0777 10.3151C10.0405 10.3786 10.0134 10.4486 10.0134 10.5283V13.7586L6.99025 12.4667C6.88188 12.4198 6.75802 12.4198 6.64966 12.4667L0.598369 15.0509H0.597595H0.596821C0.596047 15.0509 0.596047 15.0517 0.595272 15.0517C0.525993 15.0811 0.472195 15.1333 0.426915 15.1922C0.415691 15.2069 0.406789 15.22 0.3975 15.2355C0.360344 15.299 0.333252 15.3691 0.333252 15.4488V23.3032C0.333252 23.4766 0.437367 23.6334 0.596828 23.7019L3.10755 24.7743L0.598413 25.846H0.597639H0.596864C0.59609 25.846 0.59609 25.8468 0.595316 25.8468C0.526037 25.8762 0.472237 25.9284 0.426957 25.9873C0.415733 26.002 0.406833 26.0152 0.397544 26.0306C0.360388 26.0941 0.333296 26.1642 0.333296 26.2439V34.0977C0.333296 34.2711 0.437409 34.4278 0.59687 34.4963L6.65014 37.0817C6.70201 37.1042 6.75929 37.1166 6.82005 37.1166C6.8808 37.1166 6.93809 37.1046 6.98995 37.0817L10.0131 35.791V38.8122C10.0131 38.9856 10.1172 39.1423 10.2767 39.2108L16.33 41.7963C16.3818 41.8187 16.4391 41.8311 16.4999 41.8311C16.5606 41.8311 16.6179 41.8191 16.6698 41.7963L22.723 39.2108C22.8825 39.1423 22.9866 38.9856 22.9866 38.8122V35.791L26.0098 37.0817C26.0617 37.1042 26.1189 37.1166 26.1797 37.1166C26.2404 37.1166 26.2977 37.1046 26.3496 37.0817L32.4029 34.4963C32.5623 34.4278 32.6664 34.2711 32.6664 34.0977V26.2439C32.6664 26.1642 32.6397 26.0937 32.6022 26.0306C32.5937 26.014 32.584 26.0012 32.5728 25.9873C32.5279 25.9285 32.4741 25.8762 32.4044 25.8468C32.4036 25.8468 32.4036 25.846 32.4029 25.846H32.4013L29.8927 24.7743ZM31.1289 26.2447L26.1795 28.3583L22.9857 26.9937V24.9946L26.0089 26.2865C26.0608 26.309 26.1181 26.3214 26.1788 26.3214C26.2396 26.3214 26.2969 26.3094 26.3487 26.2865L28.7882 25.2446L31.1289 26.2447ZM16.4986 33.0748L11.5492 30.9604L14.3955 29.7451L16.3288 30.5714C16.3806 30.5938 16.4379 30.6062 16.4987 30.6062C16.5594 30.6062 16.6167 30.5942 16.6686 30.5714L18.6026 29.7451L21.4482 30.9604L16.4986 33.0748ZM7.25154 18.3206L12.4378 16.1056V18.4101L10.2767 19.3335H10.2751C10.2744 19.3335 10.2744 19.3343 10.2736 19.3343C10.2043 19.3637 10.1505 19.416 10.1052 19.4748C10.094 19.4895 10.0851 19.5027 10.0758 19.5181C10.0387 19.5816 10.0116 19.6517 10.0116 19.7314V24.0515L7.25126 25.2304L7.25088 18.3207L7.25154 18.3206ZM16.4986 17.6185L21.448 19.7329L16.4986 21.8477L11.5492 19.7333L13.0397 19.097C13.0404 19.097 13.0412 19.0962 13.0424 19.0962L16.4986 17.6185ZM20.5593 16.1055L25.7457 18.3205V25.2318L22.9853 24.0529V19.7328C22.9853 19.6531 22.9586 19.5826 22.9211 19.5196C22.9126 19.5029 22.9029 19.4901 22.8917 19.4762C22.8468 19.4174 22.793 19.3651 22.7233 19.3357C22.7226 19.3357 22.7226 19.3349 22.7218 19.3349H22.721H22.7202L20.5591 18.4115L20.5587 16.1055L20.5593 16.1055ZM10.8788 27.2809V27.2794V24.3386V24.3371V20.3897L16.0651 22.6047V29.516L10.8788 27.3002V27.2809ZM18.4527 28.8658C18.4422 28.8693 18.4326 28.8743 18.4225 28.879L16.932 29.516V22.6047L22.1183 20.3898V24.3372V24.3379V27.2705V27.2887V27.3L18.4527 28.8658ZM26.6125 25.2323V18.321L31.7988 16.106V23.0173L26.6125 25.2323ZM26.179 13.3336L31.1284 15.448L26.179 17.5624L21.2296 15.448L22.7201 14.8117C22.7209 14.8117 22.7217 14.811 22.7228 14.811L26.179 13.3336ZM19.9566 15.0486L19.9551 15.0494C19.9543 15.0494 19.9543 15.0502 19.9535 15.0502C19.8843 15.0796 19.8305 15.1319 19.7852 15.1907C19.774 15.2054 19.7651 15.2186 19.7558 15.234C19.7186 15.2975 19.6915 15.3676 19.6915 15.4473V18.0385L16.9312 16.8596V13.396L22.1175 11.181V14.1252L19.9566 15.0486ZM16.4985 8.41099L21.4479 10.5254L16.4985 12.6402L11.5491 10.5258L16.4985 8.41099ZM10.8787 11.1818L16.065 13.3968V16.8603L13.3047 18.0392V15.448C13.3047 15.3683 13.278 15.2979 13.2405 15.2348C13.2319 15.2181 13.2223 15.2054 13.211 15.1914C13.1662 15.1326 13.1124 15.0804 13.0427 15.0509C13.0419 15.0509 13.0419 15.0502 13.0411 15.0502H13.0404H13.0396L10.8784 14.1267L10.878 11.1817L10.8787 11.1818ZM6.81796 13.3337L10.2746 14.8102C10.2754 14.8102 10.2762 14.811 10.2773 14.811L11.7678 15.4473L6.81839 17.5617L1.86898 15.4473L6.81796 13.3337ZM1.19817 16.1053L6.38448 18.3203V25.2316L4.37154 24.3716C4.37077 24.3708 4.36883 24.3708 4.36729 24.3701L1.19787 23.0158L1.19749 16.1053L1.19817 16.1053ZM4.20855 25.2448L6.64804 26.2867C6.6999 26.3092 6.75718 26.3216 6.81794 26.3216C6.8787 26.3216 6.93598 26.3096 6.98784 26.2867L10.011 24.9948V26.9939L6.81723 28.3578L1.86782 26.2442L4.20855 25.2448ZM1.19817 26.9017L6.38448 29.1167V36.028L1.19817 33.8123V26.9017ZM7.25144 36.028V29.1167L10.1488 27.8798C10.1871 27.9189 10.2223 27.963 10.2753 27.9854L13.2908 29.2727L10.2765 30.56H10.275C10.2742 30.56 10.2742 30.5607 10.2734 30.5607C10.2041 30.5901 10.1503 30.6424 10.1051 30.7012C10.0938 30.7159 10.0849 30.7291 10.0756 30.7446C10.0385 30.808 10.0114 30.8781 10.0114 30.9578V34.8472L7.25144 36.028ZM10.8787 35.1343V35.1328V31.6166L16.065 33.8316V40.7429L10.8787 38.5271V35.1343ZM16.932 40.7428V33.8315L22.1183 31.6166V38.5271L16.932 40.7428ZM22.9852 30.9598C22.9852 30.88 22.9585 30.8096 22.921 30.7465C22.9125 30.7299 22.9028 30.7171 22.8916 30.7032C22.8467 30.6443 22.7929 30.5921 22.7232 30.5627C22.7225 30.5627 22.7225 30.5619 22.7217 30.5619H22.7209H22.7201L19.7067 29.2746L22.7221 27.9874C22.7751 27.9649 22.8096 27.9216 22.8487 27.8817L25.7452 29.1186V36.0299L22.9849 34.8511L22.9841 30.9599L22.9852 30.9598ZM26.6125 36.028V29.1166L31.7988 26.9017V33.8122L26.6125 36.028Z" fill="#1C1F25"/>
<path fill-rule="evenodd" clip-rule="evenodd" d="M22.7248 10.1313C22.7944 10.1607 22.8482 10.2129 22.8931 10.2718C22.9043 10.2857 22.914 10.2985 22.9225 10.3151C22.9601 10.3782 22.9868 10.4486 22.9868 10.5284V13.7586L26.0099 12.4667C26.1183 12.4199 26.2422 12.4199 26.3505 12.4667L32.4018 15.0509H32.4034C32.4038 15.0509 32.4032 15.0507 32.4034 15.0509C32.4036 15.0511 32.4045 15.0517 32.4049 15.0517C32.4746 15.0811 32.5284 15.1334 32.5733 15.1922C32.5845 15.2061 32.5942 15.2189 32.6027 15.2356C32.6402 15.2986 32.6669 15.3691 32.6669 15.4488V23.3033C32.6669 23.4767 32.5628 23.6334 32.4034 23.7019L29.8926 24.7744L32.4013 25.846H32.4028C32.4032 25.846 32.4026 25.8458 32.4028 25.846C32.403 25.8462 32.404 25.8468 32.4044 25.8468C32.474 25.8762 32.5278 25.9285 32.5727 25.9873C32.584 26.0012 32.5936 26.014 32.6021 26.0307C32.6397 26.0937 32.6664 26.1642 32.6664 26.2439V34.0977C32.6664 34.2711 32.5623 34.4278 32.4028 34.4963L26.3496 37.0818C26.2977 37.1046 26.2404 37.1166 26.1796 37.1166C26.1189 37.1166 26.0616 37.1042 26.0097 37.0818L22.9866 35.791V38.8122C22.9866 38.9856 22.8825 39.1424 22.723 39.2109L16.6697 41.7963C16.6179 41.8191 16.5606 41.8311 16.4998 41.8311C16.4391 41.8311 16.3818 41.8187 16.3299 41.7963L10.2766 39.2109C10.1172 39.1424 10.0131 38.9856 10.0131 38.8122V35.791L6.9899 37.0818C6.93804 37.1046 6.88075 37.1166 6.82 37.1166C6.75924 37.1166 6.70196 37.1042 6.65009 37.0818L0.596822 34.4963C0.43736 34.4278 0.333247 34.2711 0.333247 34.0977V26.2439C0.333247 26.1642 0.36034 26.0941 0.397495 26.0307C0.406784 26.0152 0.415684 26.002 0.426908 25.9873C0.472188 25.9285 0.525988 25.8762 0.595267 25.8468C0.595655 25.8468 0.595074 25.847 0.595267 25.8468C0.595461 25.8466 0.596429 25.846 0.596816 25.846H0.598364L3.1075 24.7744L0.596779 23.7019C0.437318 23.6334 0.333203 23.4767 0.333203 23.3033V15.4488C0.333203 15.3691 0.360296 15.299 0.397451 15.2356C0.40674 15.2201 0.415642 15.2069 0.426866 15.1922C0.472146 15.1334 0.525944 15.0811 0.595224 15.0517C0.595611 15.0517 0.59503 15.0519 0.595224 15.0517C0.595417 15.0515 0.596385 15.0509 0.596772 15.0509H0.59832L6.64961 12.4667C6.75798 12.4199 6.88183 12.4199 6.9902 12.4667L10.0134 13.7586V10.5284C10.0134 10.4487 10.0405 10.3786 10.0776 10.3151C10.0869 10.2996 10.0958 10.2865 10.107 10.2718C10.1523 10.2129 10.2061 10.1607 10.2754 10.1313C10.2762 10.1313 10.2762 10.1305 10.2769 10.1305H10.2785L16.3298 7.54626C16.4381 7.49943 16.562 7.49943 16.6704 7.54626L22.7217 10.1305H22.7232C22.724 10.1305 22.724 10.1313 22.7248 10.1313ZM22.8527 9.85977C22.9814 9.91714 23.0696 10.0091 23.1291 10.0865C23.1427 10.1035 23.1642 10.1312 23.1845 10.1687C23.2384 10.2613 23.2868 10.3823 23.2868 10.5284V13.3042L25.8909 12.1913C25.8911 12.1912 25.8907 12.1914 25.8909 12.1913C26.0749 12.112 26.285 12.1117 26.469 12.1911C26.4691 12.1911 26.4688 12.191 26.469 12.1911L32.465 14.7517L32.5106 14.7707C32.5183 14.7736 32.5257 14.7768 32.5328 14.7802C32.6616 14.8376 32.7498 14.9296 32.8093 15.007C32.823 15.024 32.8444 15.0517 32.8647 15.0892C32.9186 15.1818 32.9669 15.3028 32.9669 15.4488V23.3033C32.9669 23.5977 32.7904 23.8622 32.5218 23.9776L30.6563 24.7744L32.4645 25.5468L32.51 25.5658C32.5178 25.5687 32.5252 25.5719 32.5323 25.5753C32.661 25.6327 32.7492 25.7247 32.8087 25.802C32.8224 25.8191 32.8438 25.8468 32.8641 25.8843C32.9181 25.9769 32.9664 26.0979 32.9664 26.2439V34.0977C32.9664 34.3921 32.7899 34.6566 32.5212 34.772L26.4704 37.3563C26.4698 37.3566 26.4692 37.3569 26.4685 37.3572C26.3776 37.3969 26.2796 37.4166 26.1796 37.4166C26.0778 37.4166 25.9802 37.3958 25.8911 37.3573C25.8909 37.3572 25.8913 37.3574 25.8911 37.3573L23.2866 36.2453V38.8122C23.2866 39.1066 23.11 39.3711 22.8414 39.4865L16.7906 42.0708C16.7901 42.0711 16.7895 42.0713 16.789 42.0716C16.698 42.1114 16.5999 42.1311 16.4998 42.1311C16.3981 42.1311 16.3006 42.1104 16.2116 42.072C16.2113 42.0719 16.2119 42.0721 16.2116 42.072L10.1588 39.4867C9.89018 39.3713 9.71307 39.1066 9.71307 38.8122V36.2453L7.1108 37.3563C7.11021 37.3566 7.10962 37.3568 7.10903 37.3571C7.01805 37.3969 6.92004 37.4166 6.82 37.4166C6.71831 37.4166 6.62081 37.3958 6.53182 37.3575C6.53152 37.3573 6.53212 37.3576 6.53182 37.3575L0.478986 34.7722C0.210351 34.6568 0.033247 34.3921 0.033247 34.0977V26.2439C0.033247 26.0931 0.0852354 25.9703 0.138591 25.8791L0.140232 25.8763C0.155192 25.8514 0.17036 25.829 0.18842 25.8053L0.189167 25.8043C0.248488 25.7273 0.337026 25.6337 0.466882 25.5755C0.473923 25.5722 0.481297 25.569 0.488999 25.566L0.534217 25.5468L2.34375 24.7744L0.478935 23.9778C0.210299 23.8624 0.0332031 23.5977 0.0332031 23.3033V15.4488C0.0332031 15.298 0.08519 15.1752 0.138547 15.084L0.140188 15.0812C0.155156 15.0563 0.170327 15.0339 0.188378 15.0102L0.189124 15.0092C0.248447 14.9322 0.336992 14.8386 0.466872 14.7804C0.473898 14.7771 0.481256 14.7739 0.488941 14.7709L0.534175 14.7517L6.5306 12.1913C6.53085 12.1912 6.53035 12.1914 6.5306 12.1913C6.71454 12.1121 6.9247 12.1118 7.10863 12.1911C7.10882 12.1911 7.10844 12.191 7.10863 12.1911L9.71337 13.3042V10.5284C9.71337 10.3776 9.76536 10.2547 9.81871 10.1636L9.82036 10.1608C9.83532 10.1358 9.85049 10.1134 9.86854 10.0898L9.86929 10.0888C9.92862 10.0117 10.0172 9.91816 10.147 9.85998C10.1541 9.85662 10.1614 9.85343 10.1691 9.85048L10.2143 9.83128L16.2108 7.27088C16.211 7.27077 16.2105 7.27099 16.2108 7.27088C16.3946 7.19167 16.6047 7.19134 16.7886 7.27053C16.7888 7.27064 16.7883 7.27041 16.7886 7.27053L22.7848 9.83128L22.8304 9.85024C22.8382 9.8532 22.8456 9.85639 22.8527 9.85977ZM10.0673 9.91554C10.0654 9.91742 10.0637 9.91906 10.064 9.91876L10.0649 9.91789M0.387178 25.6311C0.385239 25.633 0.38361 25.6346 0.38391 25.6343L0.384775 25.6334M7.55084 18.519L7.55119 24.7761L9.71152 23.8535V19.7314C9.71152 19.5806 9.76351 19.4578 9.81686 19.3666L9.81851 19.3638C9.83347 19.3389 9.84864 19.3165 9.8667 19.2928L9.86744 19.2919C9.92676 19.2148 10.0153 19.1212 10.1452 19.063C10.1522 19.0597 10.1596 19.0565 10.1673 19.0535L10.2125 19.0343L12.1378 18.212V16.56L7.55084 18.519ZM7.25149 18.3206L7.25122 25.2304L10.0115 24.0516V19.7314C10.0115 19.6517 10.0386 19.5817 10.0758 19.5182C10.0851 19.5027 10.094 19.4895 10.1052 19.4748C10.1505 19.416 10.2043 19.3637 10.2735 19.3343C10.2743 19.3343 10.2743 19.3336 10.2751 19.3336H10.2766L12.4378 18.4101V16.1057L7.25149 18.3206ZM10.0655 19.1186C10.0635 19.1205 10.0619 19.1221 10.0622 19.1218L10.0631 19.1209M13.0423 19.0963C13.0417 19.0963 13.0412 19.0965 13.0407 19.0967C13.0403 19.0969 13.04 19.097 13.0396 19.097L11.5491 19.7333L16.4985 21.8477L21.448 19.7329L16.4985 17.6185L13.0423 19.0963ZM16.4986 17.9448L20.6844 19.733L16.4985 21.5215L12.313 19.7334L13.1028 19.3963L16.4986 17.9448ZM13.1603 19.3721C13.1601 19.3722 13.1605 19.372 13.1603 19.3721L13.1627 19.3708ZM22.7233 19.3357C22.7929 19.3652 22.8467 19.4174 22.8916 19.4762C22.9029 19.4902 22.9125 19.5029 22.921 19.5196C22.9586 19.5827 22.9853 19.6531 22.9853 19.7328V24.053L25.7456 25.2318V18.3205L20.5593 16.1056L20.559 18.4115L22.7202 19.335H22.7217C22.7221 19.335 22.7215 19.3348 22.7217 19.335C22.7219 19.3352 22.7229 19.3357 22.7233 19.3357ZM22.8512 19.0642C22.9799 19.1216 23.0681 19.2136 23.1276 19.291C23.1413 19.308 23.1627 19.3357 23.183 19.3732C23.237 19.4658 23.2853 19.5868 23.2853 19.7328V23.8549L25.4456 24.7775V18.5186L20.8587 16.5597L20.859 18.2134L22.7834 19.0357L22.8289 19.0547C22.8367 19.0577 22.8441 19.0609 22.8512 19.0642ZM22.7228 14.811C22.7216 14.811 22.7208 14.8118 22.7201 14.8118L21.2296 15.4481L26.179 17.5625L31.1284 15.4481L26.179 13.3337L22.7228 14.811ZM26.179 13.6599L30.3648 15.4481L26.179 17.2362L21.9934 15.4482L22.7832 15.111L26.179 13.6599ZM19.8304 14.7763L21.8175 13.9272V11.6354L17.2312 13.5941V16.6615L19.3915 17.5842V15.4473C19.3915 15.2965 19.4435 15.1737 19.4968 15.0825L19.4985 15.0797C19.5134 15.0548 19.5286 15.0324 19.5466 15.0087L19.5474 15.0077C19.6067 14.9307 19.6953 14.8371 19.8251 14.7789C19.8259 14.7786 19.8267 14.7782 19.8274 14.7778L19.8304 14.7763ZM19.7454 14.8345C19.7435 14.8364 19.7418 14.838 19.7421 14.8377L19.743 14.8368M19.6915 18.0385L16.9312 16.8596V13.396L22.1175 11.1811V14.1253L19.9566 15.0487L19.955 15.0494C19.9543 15.0494 19.9543 15.0502 19.9535 15.0502C19.8842 15.0796 19.8304 15.1319 19.7851 15.1907C19.7739 15.2054 19.765 15.2186 19.7557 15.2341C19.7186 15.2975 19.6915 15.3676 19.6915 15.4473V18.0385ZM13.0426 15.051C13.1123 15.0804 13.1661 15.1326 13.211 15.1915C13.2222 15.2054 13.2319 15.2182 13.2404 15.2348C13.278 15.2979 13.3047 15.3683 13.3047 15.4481V18.0392L16.065 16.8604V13.3968L10.8787 11.1818L10.8784 14.1267L13.0395 15.0502H13.0411C13.0415 15.0502 13.0409 15.05 13.0411 15.0502C13.0413 15.0504 13.0423 15.051 13.0426 15.051ZM13.1483 14.7699C13.156 14.7729 13.1635 14.7761 13.1706 14.7795C13.2993 14.8369 13.3875 14.9289 13.447 15.0062C13.4606 15.0232 13.4821 15.0509 13.5024 15.0884C13.5563 15.181 13.6047 15.302 13.6047 15.4481V17.5849L15.765 16.6623V13.5949L11.1781 11.6359L11.1784 13.9287L13.1028 14.751L13.1483 14.7699ZM10.2746 14.8103L6.81791 13.3338L1.86893 15.4473L6.81834 17.5617L11.7677 15.4473L10.2773 14.8111C10.2766 14.8111 10.2761 14.8108 10.2756 14.8106C10.2753 14.8104 10.2749 14.8103 10.2746 14.8103ZM10.1568 15.086C10.1555 15.0855 10.1545 15.0851 10.1539 15.0848L10.1551 15.0853M10.2132 15.1103L6.8179 13.66L2.63267 15.4474L6.81834 17.2355L11.0039 15.4474L10.2132 15.1103ZM4.36724 24.3701C4.36793 24.3704 4.36869 24.3706 4.36939 24.3708C4.37028 24.371 4.37107 24.3712 4.3715 24.3717L6.38443 25.2316V18.3203L1.19812 16.1054L1.19783 23.0159L4.36724 24.3701ZM1.49781 22.8178L4.47482 24.0898C4.47601 24.0903 4.47721 24.0907 4.47842 24.0912C4.48308 24.093 4.48943 24.0955 4.497 24.099L6.08443 24.7772V18.5184L1.49746 16.5594L1.49781 22.8178ZM4.48511 24.0942C4.48647 24.0948 4.48784 24.0954 4.48925 24.096ZM10.2734 30.5608C10.2741 30.5608 10.2741 30.56 10.2749 30.56H10.2765L13.2907 29.2727L10.2753 27.9855C10.2313 27.9668 10.1995 27.9333 10.1681 27.9001C10.1617 27.8932 10.1552 27.8864 10.1487 27.8798L7.25139 29.1167V36.028L10.0114 34.8472V30.9579C10.0114 30.8781 10.0384 30.8081 10.0756 30.7446C10.0849 30.7291 10.0938 30.716 10.105 30.7013C10.1503 30.6424 10.2041 30.5902 10.2734 30.5608ZM9.71135 34.6492V30.9579C9.71135 30.807 9.76334 30.6842 9.8167 30.593L9.81834 30.5902C9.8333 30.5653 9.84847 30.5429 9.86653 30.5193L9.86727 30.5183C9.9266 30.4412 10.0152 30.3476 10.1451 30.2894C10.1521 30.2861 10.1594 30.2829 10.1671 30.28L10.2123 30.2608L12.5267 29.2728L10.1583 28.2617M10.0653 30.345C10.0633 30.3469 10.0617 30.3485 10.062 30.3482L10.0629 30.3474M9.71135 34.6492L7.55139 35.5734V29.3148L10.0952 28.2289C10.1147 28.2409 10.1364 28.2524 10.1583 28.2617M22.9841 30.9599L22.9849 34.8511L25.7452 36.03V29.1187L22.8486 27.8817C22.8419 27.8886 22.8354 27.8955 22.8288 27.9024C22.7972 27.9358 22.766 27.9688 22.7221 27.9874L19.7066 29.2746L22.7201 30.5619H22.7216C22.7222 30.5619 22.7223 30.5623 22.7227 30.5625C22.7228 30.5626 22.7225 30.5625 22.7227 30.5625C22.7786 30.5861 22.8247 30.6246 22.8638 30.6692C22.8734 30.6802 22.8827 30.6916 22.8915 30.7032C22.9028 30.7171 22.9124 30.7299 22.9209 30.7465C22.9467 30.7898 22.9674 30.8366 22.9778 30.8874C22.9785 30.891 22.9792 30.8947 22.9799 30.8983C22.9833 30.9182 22.9852 30.9387 22.9852 30.9598L22.9841 30.9599ZM23.1829 30.6001C23.2369 30.6927 23.2852 30.8137 23.2852 30.9598V31.2349L23.2841 31.235L23.2848 34.653L25.4452 35.5756V29.3168L22.9022 28.2308C22.8824 28.243 22.8613 28.2542 22.8392 28.2636M22.8392 28.2636L20.4705 29.2747L22.7833 30.2627L22.8288 30.2817C22.8366 30.2846 22.844 30.2878 22.8511 30.2912C22.9798 30.3486 23.068 30.4406 23.1276 30.518C23.1412 30.535 23.1626 30.5626 23.1829 30.6001M31.1289 26.2447L28.7882 25.2446L26.3487 26.2866C26.2968 26.3094 26.2395 26.3214 26.1788 26.3214C26.118 26.3214 26.0607 26.309 26.0089 26.2866L22.9857 24.9946V26.9937L26.1795 28.3583L31.1289 26.2447ZM30.3652 26.2447L26.1795 28.0321L23.2857 26.7956V25.4491L25.8897 26.5619C25.8894 26.5618 25.89 26.562 25.8897 26.5619C25.9787 26.6003 26.0771 26.6214 26.1788 26.6214C26.2788 26.6214 26.3769 26.6016 26.4678 26.5619C26.4684 26.5616 26.469 26.5614 26.4696 26.5611L28.7881 25.5708L30.3652 26.2447ZM16.4985 32.7486L12.3129 30.9605L14.3954 30.0713L16.2096 30.8467C16.2093 30.8466 16.2098 30.8468 16.2096 30.8467C16.2985 30.8851 16.3969 30.9062 16.4986 30.9062C16.5987 30.9062 16.6968 30.8865 16.7878 30.8467C16.7884 30.8464 16.7889 30.8462 16.7894 30.846L18.6026 30.0713L20.6844 30.9604L16.4985 32.7486ZM21.4481 30.9604L16.4985 33.0748L11.5491 30.9604L14.3954 29.7451L16.3287 30.5714C16.3806 30.5939 16.4379 30.6062 16.4986 30.6062C16.5594 30.6062 16.6167 30.5942 16.6685 30.5714L18.6026 29.7451L21.4481 30.9604ZM10.8788 27.3002L16.0651 29.516V22.6047L10.8788 20.3897V27.3002ZM11.1788 20.8441V27.1022L15.7651 29.0616V22.8028L11.1788 20.8441ZM18.3425 28.5867L21.8183 27.1019V20.8441L17.232 22.8028V29.0616L18.2997 28.6052L18.3013 28.6044L18.3128 28.5991C18.3197 28.5959 18.33 28.5914 18.3425 28.5867ZM18.4224 28.879C18.4247 28.8779 18.427 28.8769 18.4293 28.8758C18.437 28.8721 18.4446 28.8685 18.4526 28.8659L22.1183 27.3V20.3898L16.932 22.6048V29.5161L18.4224 28.879ZM26.6125 18.321L31.7988 16.1061V23.0174L26.6125 25.2323V18.321ZM26.9125 24.778V18.5191L31.4988 16.5604V22.8193L26.9125 24.778ZM16.4985 8.73725L20.6843 10.5254L16.4984 12.314L12.3126 10.5258L16.4985 8.73725ZM16.4984 12.6402L21.4479 10.5254L16.4984 8.41102L11.549 10.5258L16.4984 12.6402ZM4.20851 25.2448L1.86777 26.2443L6.81718 28.3579L10.011 26.9939V24.9948L6.98779 26.2868C6.93594 26.3096 6.87865 26.3216 6.81789 26.3216C6.75713 26.3216 6.69985 26.3092 6.64799 26.2868L4.20851 25.2448ZM7.10869 26.5613L9.71096 25.4493V26.7958L6.81717 28.0317L2.6317 26.2443L4.20849 25.571L6.52882 26.5621C6.52866 26.562 6.52898 26.5621 6.52882 26.5621C6.61792 26.6006 6.71604 26.6216 6.81789 26.6216C6.91791 26.6216 7.01591 26.6019 7.10688 26.5621C7.10748 26.5619 7.10809 26.5616 7.10869 26.5613ZM32.6147 14.8376C32.6158 14.8387 32.6165 14.8394 32.6163 14.8392L32.6147 14.8376ZM1.19812 26.9018V33.8123L6.38443 36.028V29.1167L1.19812 26.9018ZM6.08443 29.3148V35.5736L1.49812 33.6142V27.3561L6.08443 29.3148ZM11.1787 38.3291L15.765 40.2885V34.0297L11.1787 32.071V38.3291ZM10.8787 38.5272L16.065 40.7429V33.8316L10.8787 31.6166V38.5272ZM16.9319 33.8316L22.1182 31.6166V38.5271L16.9319 40.7429V33.8316ZM17.2319 40.2885V34.0296L21.8182 32.0709V38.3291L17.2319 40.2885ZM26.6125 29.1167L31.7988 26.9017V33.8122L26.6125 36.028V29.1167ZM26.9125 35.5736V29.3148L31.4988 27.3561V33.6142L26.9125 35.5736ZM22.9361 9.91876C22.9364 9.91905 22.9349 9.91752 22.933 9.91571L22.9353 9.9179L22.9361 9.91876Z" fill="#1C1F25"/>
<path d="M5.51057 8.37845C6.52654 8.37845 7.35288 7.55213 7.35288 6.53613C7.35288 6.36428 7.32153 6.2025 7.27818 6.0446L9.29042 5.06655V7.51574C9.29042 7.75494 9.48471 7.94923 9.72391 7.94923C9.9631 7.94923 10.1574 7.75494 10.1574 7.51574L10.1578 4.37299C10.1578 4.22398 10.0808 4.08425 9.95419 4.00531C9.82841 3.92558 9.66895 3.91783 9.53464 3.98286L6.85677 5.28488C6.52044 4.9234 6.04361 4.69272 5.51224 4.69272C4.49626 4.69272 3.66992 5.51903 3.66992 6.53503C3.66915 7.55141 4.49461 8.37845 5.51057 8.37845ZM5.51057 5.56077C6.04816 5.56077 6.4859 5.99851 6.4859 6.53611C6.4859 7.0737 6.04816 7.51144 5.51057 7.51144C4.97297 7.51144 4.53523 7.0737 4.53523 6.53611C4.53523 5.99851 4.97297 5.56077 5.51057 5.56077Z" fill="#1C1F25"/>
<path fill-rule="evenodd" clip-rule="evenodd" d="M10.1577 4.37299L10.1573 7.51574C10.1573 7.75494 9.96305 7.94923 9.72386 7.94923C9.48466 7.94923 9.29038 7.75494 9.29038 7.51574V5.06655L7.27813 6.0446C7.32148 6.2025 7.35283 6.36428 7.35283 6.53613C7.35283 7.55213 6.5265 8.37845 5.51052 8.37845C4.49456 8.37845 3.6691 7.55141 3.66987 6.53503C3.66987 5.51903 4.49621 4.69272 5.51219 4.69272C6.04356 4.69272 6.52039 4.9234 6.85672 5.28488L9.53459 3.98286C9.6689 3.91783 9.82836 3.92558 9.95414 4.00531C10.0807 4.08425 10.1577 4.22398 10.1577 4.37299ZM10.4573 7.51578C10.4573 7.51579 10.4573 7.51577 10.4573 7.51578C10.4573 7.92064 10.1287 8.24923 9.72386 8.24923C9.31898 8.24923 8.99038 7.92062 8.99038 7.51574V5.54593L7.62336 6.21036C7.64143 6.31352 7.65283 6.4221 7.65283 6.53613C7.65283 7.71781 6.69218 8.67845 5.51052 8.67845C4.32858 8.67845 3.36904 7.71677 3.36987 6.53492C3.36993 5.35329 4.33056 4.39272 5.51219 4.39272C6.05099 4.39272 6.54012 4.59608 6.91426 4.92333M6.18585 6.53611C6.18585 6.1642 5.88243 5.86077 5.51052 5.86077C5.13861 5.86077 4.83518 6.1642 4.83518 6.53611C4.83518 6.90802 5.13861 7.21144 5.51052 7.21144C5.88243 7.21144 6.18585 6.90802 6.18585 6.53611ZM6.48585 6.53611C6.48585 5.99851 6.04811 5.56077 5.51052 5.56077C4.97292 5.56077 4.53518 5.99851 4.53518 6.53611C4.53518 7.0737 4.97292 7.51144 5.51052 7.51144C6.04811 7.51144 6.48585 7.0737 6.48585 6.53611Z" fill="#1C1F25"/>
<path d="M23.274 7.94832C23.5132 7.94832 23.7075 7.75404 23.7075 7.51484V5.06565L25.7197 6.04369C25.6756 6.20161 25.645 6.36455 25.645 6.53523C25.645 7.55121 26.4713 8.37754 27.4873 8.37754C28.5033 8.37754 29.3297 7.55123 29.3297 6.53523C29.3297 5.51925 28.5033 4.69291 27.4873 4.69291C26.9552 4.69291 26.4791 4.92281 26.1428 5.28508L23.4649 3.98305C23.3299 3.91726 23.172 3.92577 23.0454 4.0055C22.9188 4.08446 22.8418 4.22301 22.8418 4.37318V7.51515C22.8406 7.75395 23.0345 7.94824 23.2741 7.94824L23.274 7.94832ZM27.4865 5.56066C28.0241 5.56066 28.4619 5.99841 28.4619 6.536C28.4619 7.0736 28.0241 7.51134 27.4865 7.51134C26.9489 7.51134 26.5112 7.0736 26.5112 6.536C26.5112 5.99841 26.9489 5.56066 27.4865 5.56066Z" fill="#1C1F25"/>
<path fill-rule="evenodd" clip-rule="evenodd" d="M23.2739 7.94825C23.1447 7.9482 23.0288 7.89165 22.9496 7.8021C22.882 7.72564 22.8412 7.62512 22.8417 7.51516V4.37319C22.8417 4.22302 22.9187 4.08447 23.0453 4.00551C23.1719 3.92578 23.3298 3.91727 23.4648 3.98306L26.1427 5.28509C26.479 4.92282 26.9551 4.69292 27.4872 4.69292C28.5032 4.69292 29.3296 5.51926 29.3296 6.53524C29.3296 7.55124 28.5032 8.37756 27.4872 8.37756C26.4712 8.37756 25.6449 7.55122 25.6449 6.53524C25.6449 6.36456 25.6755 6.20162 25.7196 6.04371L23.7074 5.06567V7.51485C23.7074 7.56139 23.7 7.60622 23.6864 7.64825C23.6301 7.82223 23.4664 7.94817 23.2739 7.94825ZM22.5417 7.51452C22.5411 7.68552 22.5992 7.84277 22.697 7.96746ZM22.8859 3.75133C23.1005 3.61644 23.3682 3.60239 23.596 3.71326L26.085 4.92343C26.4591 4.59559 26.9479 4.39292 27.4872 4.39292C28.6689 4.39292 29.6296 5.35358 29.6296 6.53524C29.6296 7.71692 28.6689 8.67756 27.4872 8.67756C26.3056 8.67756 25.3449 7.7169 25.3449 6.53524C25.3449 6.42193 25.3561 6.31322 25.3742 6.20936L24.0074 5.54504V7.51485C24.0074 7.56041 24.0032 7.60499 23.9953 7.64825H24.2799L23.9 7.89698C23.7711 8.10766 23.5388 8.24834 23.2739 8.24834H22.2681L22.697 7.96746M22.8859 3.75133C22.6718 3.88523 22.5417 4.11988 22.5417 4.37319V7.51452M28.1618 6.53601C28.1618 6.1641 27.8584 5.86067 27.4864 5.86067C27.1145 5.86067 26.8111 6.1641 26.8111 6.53601C26.8111 6.90792 27.1145 7.21135 27.4864 7.21135C27.8584 7.21135 28.1618 6.90792 28.1618 6.53601ZM28.4618 6.53601C28.4618 5.99842 28.024 5.56067 27.4864 5.56067C26.9489 5.56067 26.5111 5.99842 26.5111 6.53601C26.5111 7.07361 26.9489 7.51135 27.4864 7.51135C28.024 7.51135 28.4618 7.07361 28.4618 6.53601Z" fill="#1C1F25"/>
<path d="M16.0648 4.09447V5.94372C16.0648 6.18291 16.2591 6.3772 16.4983 6.3772C16.7375 6.3772 16.9318 6.18291 16.9318 5.94372V4.09447C17.738 3.89862 18.3406 3.17565 18.3406 2.30942C18.3406 1.29344 17.5143 0.467102 16.4983 0.467102C15.4823 0.467102 14.656 1.29342 14.656 2.30942C14.656 3.17561 15.2578 3.89858 16.0648 4.09447ZM16.4983 1.33416C17.0359 1.33416 17.4737 1.7719 17.4737 2.3095C17.4737 2.84709 17.0359 3.28483 16.4983 3.28483C15.9607 3.28483 15.523 2.84709 15.523 2.3095C15.523 1.7719 15.96 1.33416 16.4983 1.33416Z" fill="#1C1F25"/>
<path fill-rule="evenodd" clip-rule="evenodd" d="M15.7648 4.31659C14.9451 4.01734 14.356 3.23463 14.356 2.30943C14.356 1.12775 15.3166 0.167114 16.4983 0.167114C17.68 0.167114 18.6406 1.12777 18.6406 2.30943C18.6406 3.23472 18.0507 4.01731 17.2318 4.31653V5.94373C17.2318 6.34861 16.9032 6.67721 16.4983 6.67721C16.0934 6.67721 15.7648 6.34861 15.7648 5.94373V4.31659ZM16.9318 4.09448V5.94373C16.9318 6.18292 16.7375 6.37721 16.4983 6.37721C16.2591 6.37721 16.0648 6.18292 16.0648 5.94373V4.09448C15.2578 3.8986 14.656 3.17562 14.656 2.30943C14.656 1.29343 15.4823 0.467114 16.4983 0.467114C17.5143 0.467114 18.3406 1.29345 18.3406 2.30943C18.3406 3.17566 17.7379 3.89864 16.9318 4.09448ZM17.1736 2.30951C17.1736 1.9376 16.8702 1.63417 16.4983 1.63417C16.1257 1.63417 15.8229 1.93745 15.8229 2.30951C15.8229 2.68142 16.1264 2.98485 16.4983 2.98485C16.8702 2.98485 17.1736 2.68142 17.1736 2.30951ZM17.4736 2.30951C17.4736 1.77192 17.0359 1.33417 16.4983 1.33417C15.9599 1.33417 15.5229 1.77192 15.5229 2.30951C15.5229 2.84711 15.9607 3.28485 16.4983 3.28485C17.0359 3.28485 17.4736 2.84711 17.4736 2.30951Z" fill="#1C1F25"/>
<path d="M27.4869 40.9602C26.4709 40.9602 25.6445 41.7865 25.6445 42.8026C25.6445 42.9744 25.6759 43.1373 25.72 43.2949L23.7078 44.2729V41.8245C23.7078 41.5853 23.5135 41.391 23.2743 41.391C23.0351 41.391 22.8408 41.5853 22.8408 41.8245V44.9657C22.8408 45.1147 22.9178 45.2545 23.0444 45.3334C23.1145 45.3775 23.1946 45.3992 23.2743 45.3992C23.3393 45.3992 23.4036 45.3845 23.4643 45.3559L26.1434 44.0538C26.4797 44.4153 26.9566 44.6452 27.4879 44.6452C28.5039 44.6452 29.3302 43.8189 29.3302 42.8029C29.3299 41.7865 28.5028 40.9602 27.4869 40.9602ZM27.4869 43.7779C26.9493 43.7779 26.5115 43.3402 26.5115 42.8026C26.5115 42.265 26.9493 41.8272 27.4869 41.8272C28.0245 41.8272 28.4622 42.265 28.4622 42.8026C28.4622 43.3402 28.0245 43.7779 27.4869 43.7779Z" fill="#1C1F25"/>
<path fill-rule="evenodd" clip-rule="evenodd" d="M23.4645 45.3559C23.4038 45.3845 23.3395 45.3992 23.2745 45.3992C23.1948 45.3992 23.1147 45.3775 23.0446 45.3334C22.918 45.2545 22.841 45.1147 22.841 44.9657V41.8246C22.841 41.5854 23.0353 41.3911 23.2745 41.3911C23.5137 41.3911 23.708 41.5854 23.708 41.8246V44.273L25.7202 43.2949C25.6761 43.1374 25.6447 42.9744 25.6447 42.8026C25.6447 41.7866 26.4711 40.9603 27.4871 40.9603C28.503 40.9603 29.3301 41.7865 29.3304 42.8029C29.3304 43.8189 28.5041 44.6452 27.4881 44.6452C26.9568 44.6452 26.4799 44.4153 26.1436 44.0538L23.4645 45.3559ZM26.0861 44.4153C26.4604 44.7426 26.9495 44.9452 27.4881 44.9452C28.6698 44.9452 29.6304 43.9846 29.6304 42.8029C29.63 41.6208 28.6686 40.6603 27.4871 40.6603C26.3054 40.6603 25.3447 41.6209 25.3447 42.8026C25.3447 42.9167 25.3561 43.0257 25.3744 43.1294L24.008 43.7936V41.8246C24.008 41.4197 23.6794 41.0911 23.2745 41.0911C22.8696 41.0911 22.541 41.4197 22.541 41.8246V44.9657C22.541 45.2174 22.6706 45.4534 22.8852 45.5876C23.0051 45.663 23.1409 45.6992 23.2745 45.6992C23.3855 45.6992 23.4933 45.674 23.5924 45.6272L26.0861 44.4153ZM26.8117 42.8026C26.8117 43.1745 27.1152 43.478 27.4871 43.478C27.859 43.478 28.1624 43.1745 28.1624 42.8026C28.1624 42.4307 27.859 42.1273 27.4871 42.1273C27.1152 42.1273 26.8117 42.4307 26.8117 42.8026ZM26.5117 42.8026C26.5117 43.3402 26.9495 43.778 27.4871 43.778C28.0247 43.778 28.4624 43.3402 28.4624 42.8026C28.4624 42.265 28.0247 41.8273 27.4871 41.8273C26.9495 41.8273 26.5117 42.265 26.5117 42.8026Z" fill="#1C1F25"/>
<path d="M9.72358 41.3912C9.48439 41.3912 9.2901 41.5855 9.2901 41.8247V44.2731L7.27786 43.2951C7.32199 43.1372 7.35334 42.9742 7.35334 42.8028C7.35334 41.7868 6.52702 40.9604 5.51102 40.9604C4.49504 40.9604 3.6687 41.7868 3.6687 42.8028C3.6687 43.8188 4.49502 44.6451 5.51102 44.6451C6.04242 44.6451 6.51927 44.4152 6.85555 44.0537L9.53461 45.3557C9.5946 45.3851 9.65962 45.3991 9.72465 45.3991C9.80438 45.3991 9.88488 45.3774 9.95455 45.3333C10.0811 45.2543 10.1581 45.1158 10.1581 44.9656V41.8244C10.157 41.5856 9.96306 41.3913 9.72349 41.3913L9.72358 41.3912ZM5.51105 43.7781C4.97345 43.7781 4.53571 43.3404 4.53571 42.8028C4.53571 42.2652 4.97345 41.8274 5.51105 41.8274C6.04864 41.8274 6.48638 42.2652 6.48638 42.8028C6.48638 43.3404 6.04864 43.7781 5.51105 43.7781Z" fill="#1C1F25"/>
<path fill-rule="evenodd" clip-rule="evenodd" d="M9.7236 41.3913C9.84733 41.3914 9.95888 41.4432 10.038 41.5263C10.1119 41.604 10.1575 41.709 10.1581 41.8244V44.9656C10.1581 45.1158 10.0811 45.2543 9.9545 45.3333C9.88483 45.3774 9.80433 45.3991 9.7246 45.3991C9.65957 45.3991 9.59455 45.3851 9.53456 45.3557L6.8555 44.0537C6.51922 44.4152 6.04237 44.6451 5.51097 44.6451C4.49497 44.6451 3.66865 43.8188 3.66865 42.8028C3.66865 41.7868 4.49499 40.9605 5.51097 40.9605C6.52697 40.9605 7.35329 41.7868 7.35329 42.8028C7.35329 42.9742 7.32194 43.1372 7.27781 43.2951L9.29006 44.2731V41.8247C9.29006 41.7782 9.29741 41.7334 9.31102 41.6913C9.36734 41.5173 9.531 41.3914 9.7236 41.3913ZM10.275 41.3411L10.5948 41.0913H9.72354C9.42033 41.0913 9.1599 41.2755 9.04823 41.5381L8.85214 41.6913H9.00217C8.99421 41.7346 8.99006 41.7792 8.99006 41.8247V43.7938L7.62356 43.1296C7.64186 43.0258 7.65329 42.9167 7.65329 42.8028C7.65329 41.6211 6.69266 40.6605 5.51097 40.6605C4.32931 40.6605 3.36865 41.6211 3.36865 42.8028C3.36865 43.9845 4.32928 44.9451 5.51097 44.9451C6.04956 44.9451 6.53877 44.7425 6.91305 44.4152L9.40248 45.6251C9.40229 45.625 9.40268 45.6252 9.40248 45.6251C9.50596 45.6757 9.61692 45.6991 9.7246 45.6991C9.85763 45.6991 9.99404 45.6631 10.1142 45.5873C10.3282 45.4533 10.4581 45.2188 10.4581 44.9656L10.4581 41.8244L10.4581 41.823C10.4572 41.6387 10.3883 41.47 10.275 41.3411ZM4.83566 42.8028C4.83566 43.1747 5.13909 43.4781 5.511 43.4781C5.88291 43.4781 6.18633 43.1747 6.18633 42.8028C6.18633 42.4309 5.88291 42.1275 5.511 42.1275C5.13909 42.1275 4.83566 42.4309 4.83566 42.8028ZM4.53566 42.8028C4.53566 43.3404 4.9734 43.7781 5.511 43.7781C6.04859 43.7781 6.48633 43.3404 6.48633 42.8028C6.48633 42.2652 6.04859 41.8275 5.511 41.8275C4.9734 41.8275 4.53566 42.2652 4.53566 42.8028Z" fill="#1C1F25"/>
<path d="M16.9328 45.2426V43.3952C16.9328 43.156 16.7385 42.9617 16.4993 42.9617C16.2601 42.9617 16.0658 43.156 16.0658 43.3952V45.2437C15.2596 45.4403 14.657 46.1637 14.657 47.0294C14.657 48.0454 15.4833 48.8717 16.4993 48.8717C17.5153 48.8717 18.3416 48.0454 18.3416 47.0294C18.3416 46.1625 17.7398 45.4395 16.9328 45.2425V45.2426ZM16.4993 48.0041C15.9617 48.0041 15.524 47.5663 15.524 47.0287C15.524 46.4911 15.9617 46.0534 16.4993 46.0534C17.0369 46.0534 17.4746 46.4911 17.4746 47.0287C17.4746 47.5663 17.0377 48.0041 16.4993 48.0041Z" fill="#1C1F25"/>
<path fill-rule="evenodd" clip-rule="evenodd" d="M16.9331 45.2425C17.7399 45.4397 18.3416 46.1626 18.3416 47.0294C18.3416 48.0454 17.5152 48.8717 16.4992 48.8717C15.4833 48.8717 14.6569 48.0453 14.6569 47.0294C14.6569 46.1636 15.2596 45.4402 16.0658 45.2436V43.3952C16.0658 43.156 16.2601 42.9617 16.4992 42.9617C16.7384 42.9617 16.9327 43.156 16.9327 43.3952L16.9331 45.2425C16.9333 45.2426 16.933 45.2425 16.9331 45.2425ZM17.2327 45.0206V43.3952C17.2327 42.9903 16.9041 42.6617 16.4992 42.6617C16.0944 42.6617 15.7658 42.9903 15.7658 43.3952V45.0218C14.9469 45.3216 14.3569 46.1044 14.3569 47.0294C14.3569 48.211 15.3176 49.1717 16.4992 49.1717C17.6809 49.1717 18.6416 48.2111 18.6416 47.0294C18.6416 46.1034 18.0523 45.3206 17.2327 45.0206ZM15.8239 47.0287C15.8239 47.4006 16.1273 47.704 16.4992 47.704C16.8718 47.704 17.1746 47.4008 17.1746 47.0287C17.1746 46.6568 16.8712 46.3534 16.4992 46.3534C16.1273 46.3534 15.8239 46.6568 15.8239 47.0287ZM15.5239 47.0287C15.5239 47.5663 15.9617 48.004 16.4992 48.004C17.0376 48.004 17.4746 47.5663 17.4746 47.0287C17.4746 46.4911 17.0368 46.0534 16.4992 46.0534C15.9617 46.0534 15.5239 46.4911 15.5239 47.0287Z" fill="#1C1F25"/>
</svg>
