<svg width="45" height="50" viewBox="0 0 45 50" fill="none" xmlns="http://www.w3.org/2000/svg">
<path d="M22.5007 0.341622C10.5861 0.341622 0.892578 5.72418 0.892578 12.3411V37.1519C0.892578 43.7678 10.5863 49.1504 22.5007 49.1504C34.4137 49.1504 44.1075 43.7688 44.1075 37.1519V12.3398C44.1075 5.72392 34.4143 0.34137 22.5007 0.34137V0.341622ZM22.5007 1.44756C33.8045 1.44756 43.0015 6.33491 43.0015 12.3411C43.0015 13.6218 42.5572 14.899 41.6788 16.1398V16.1408C38.6587 20.3843 30.9523 23.2341 22.5013 23.2341C14.0463 23.2341 6.33947 20.3828 3.32374 16.1383C3.32374 16.1373 3.32275 16.1373 3.32275 16.1373C2.4459 14.8975 2.00005 13.6213 2.00005 12.3406C1.99808 6.33491 11.1961 1.44756 22.5009 1.44756H22.5007ZM43.0015 37.1509C43.0015 43.1571 33.8055 48.0434 22.5007 48.0434C11.196 48.0434 1.99851 43.1576 1.99851 37.1509V33.0466C4.85069 37.8218 12.9561 41.2804 22.5007 41.2804C32.0448 41.2804 40.1489 37.8225 43.0015 33.0466V37.1509ZM43.0015 29.281C43.0015 35.2885 33.8055 40.1754 22.5007 40.1754C11.196 40.1754 1.99851 35.288 1.99851 29.281V24.3408C4.85069 29.115 12.9561 32.5721 22.5007 32.5721C32.0448 32.5721 40.1489 29.115 43.0015 24.3408V29.281ZM43.0015 20.5752C43.0015 26.5803 33.8055 31.4667 22.5007 31.4667C11.196 31.4667 1.99851 26.5808 1.99851 20.5752V16.0898C2.1333 16.3188 2.25969 16.5489 2.41867 16.7731C2.41867 16.775 2.41867 16.7765 2.41966 16.7775C5.68412 21.3691 13.5663 24.3378 22.5009 24.3378C31.4303 24.3378 39.3124 21.3696 42.5796 16.7775C42.5796 16.7775 42.5796 16.7765 42.5806 16.7765C42.7411 16.5509 42.866 16.3208 43.0008 16.0917L43.0013 20.5752L43.0015 20.5752Z" fill="#1C1F25"/>
<path d="M36.6731 9.28245C36.7827 9.39848 36.9284 9.45723 37.077 9.45723C37.2133 9.45723 37.349 9.40736 37.4552 9.30664C37.6774 9.09879 37.6887 8.74824 37.4794 8.52607C37.0548 8.07382 36.5314 7.627 35.9232 7.20236C35.6734 7.02561 35.3283 7.08732 35.1535 7.33715C34.9778 7.58796 35.0385 7.93207 35.2883 8.10685C35.8349 8.48948 36.3004 8.88551 36.6731 9.28245Z" fill="#1C1F25"/>
<path d="M27.2848 20.5832C27.3124 20.5832 27.341 20.5812 27.3697 20.5768C28.1838 20.4519 28.999 20.287 29.7874 20.0915C30.3172 19.9631 30.8302 19.8169 31.3259 19.658C36.2365 18.0918 39.1682 15.3557 39.1682 12.3401C39.1682 12.035 38.9203 11.7871 38.6152 11.7871C38.3101 11.7871 38.0622 12.035 38.0622 12.3401C38.0622 14.8117 35.3517 17.2126 30.9887 18.6054C30.5167 18.7569 30.0299 18.8942 29.5233 19.0166C28.7625 19.2067 27.9814 19.3637 27.2008 19.4847C26.8987 19.5311 26.6923 19.8145 26.7387 20.1152C26.7816 20.3887 27.0162 20.5832 27.2848 20.5832Z" fill="#1C1F25"/>
<path d="M7.84423 16.4818C7.95137 16.5835 8.08862 16.6343 8.22489 16.6343C8.37102 16.6343 8.51667 16.577 8.62628 16.463C8.83661 16.2418 8.82773 15.8903 8.60505 15.6809C8.07628 15.1788 7.66501 14.6481 7.38407 14.1039C7.08537 13.5278 6.93528 12.9338 6.93528 12.3399C6.93528 10.2011 8.89184 8.14617 12.3036 6.70302C12.5845 6.58354 12.7163 6.25966 12.5978 5.97774C12.4793 5.69681 12.152 5.56844 11.8735 5.68348C8.03383 7.30927 5.83081 9.73449 5.83081 12.3403C5.83081 13.1125 6.02336 13.8778 6.40352 14.612C6.74024 15.2652 7.22466 15.8943 7.84423 16.4818Z" fill="#1C1F25"/>
<path d="M16.0586 5.50961C16.0971 5.50961 16.1371 5.50516 16.1771 5.49628C16.9601 5.32594 17.7984 5.18325 18.6655 5.07167C19.9161 4.91813 21.2071 4.84062 22.5007 4.84062C22.8059 4.84062 23.0537 4.59277 23.0537 4.28765C23.0537 3.98252 22.8059 3.73468 22.5007 3.73468C21.1612 3.73468 19.8253 3.81565 18.5272 3.97462C17.6257 4.08966 16.7557 4.23777 15.9416 4.41601C15.6429 4.48118 15.4538 4.77545 15.519 5.07414C15.5752 5.33384 15.8043 5.50961 16.0586 5.50961Z" fill="#1C1F25"/>
<path d="M20.8501 27.5348H19.1269C18.8218 27.5348 18.574 27.7826 18.574 28.0878C18.574 28.3929 18.8218 28.6407 19.1269 28.6407H20.8501C21.1552 28.6407 21.403 28.3929 21.403 28.0878C21.403 27.7826 21.1552 27.5348 20.8501 27.5348Z" fill="#1C1F25"/>
<path d="M25.8715 27.5348H24.1484C23.8433 27.5348 23.5955 27.7826 23.5955 28.0878C23.5955 28.3929 23.8433 28.6407 24.1484 28.6407H25.8715C26.1767 28.6407 26.4245 28.3929 26.4245 28.0878C26.4245 27.7826 26.1776 27.5348 25.8715 27.5348Z" fill="#1C1F25"/>
<path d="M20.8501 35.6833H19.1269C18.8218 35.6833 18.574 35.9311 18.574 36.2363C18.574 36.5414 18.8218 36.7892 19.1269 36.7892H20.8501C21.1552 36.7892 21.403 36.5414 21.403 36.2363C21.403 35.9306 21.1552 35.6833 20.8501 35.6833Z" fill="#1C1F25"/>
<path d="M25.8715 35.6833H24.1484C23.8433 35.6833 23.5955 35.9311 23.5955 36.2363C23.5955 36.5414 23.8433 36.7892 24.1484 36.7892H25.8715C26.1767 36.7892 26.4245 36.5414 26.4245 36.2363C26.4245 35.9306 26.1776 35.6833 25.8715 35.6833Z" fill="#1C1F25"/>
<path d="M20.8501 43.8292H19.1269C18.8218 43.8292 18.574 44.0771 18.574 44.3822C18.574 44.6873 18.8218 44.9352 19.1269 44.9352H20.8501C21.1552 44.9352 21.403 44.6873 21.403 44.3822C21.403 44.0771 21.1552 43.8292 20.8501 43.8292Z" fill="#1C1F25"/>
<path d="M25.8715 43.8292H24.1484C23.8433 43.8292 23.5955 44.0771 23.5955 44.3822C23.5955 44.6873 23.8433 44.9352 24.1484 44.9352H25.8715C26.1767 44.9352 26.4245 44.6873 26.4245 44.3822C26.4245 44.0771 26.1776 43.8292 25.8715 43.8292Z" fill="#1C1F25"/>
</svg>
