<svg width="33" height="32" viewBox="0 0 33 32" fill="none" xmlns="http://www.w3.org/2000/svg">
<path fill-rule="evenodd" clip-rule="evenodd" d="M16.3176 32C25.1542 32 32.3176 24.8366 32.3176 16C32.3176 7.16344 25.1542 0 16.3176 0C7.48107 0 0.317627 7.16344 0.317627 16C0.317627 24.8366 7.48107 32 16.3176 32ZM24.5567 10.0151C25.4339 9.90905 26.2911 9.67657 27.1017 9.32491C26.521 10.2064 25.7911 10.9801 24.9449 11.6111V12.1827C24.9579 13.8432 24.6399 15.4896 24.0094 17.0258C23.379 18.562 22.4488 19.9571 21.2731 21.1298C20.0975 22.3024 18.6999 23.2291 17.1621 23.8556C15.6243 24.482 13.9771 24.7958 12.3167 24.7786C9.91053 24.7815 7.55486 24.0887 5.53345 22.7835C5.8912 22.8278 6.25139 22.8494 6.61186 22.8482C8.59171 22.8427 10.5127 22.1745 12.0686 20.9502C11.1472 20.9325 10.2542 20.628 9.51396 20.079C8.77368 19.5301 8.22292 18.7641 7.93831 17.8875C8.21268 17.9345 8.49034 17.9598 8.76869 17.963C9.1708 17.9585 9.57023 17.8968 9.95495 17.7797C8.95553 17.5809 8.05547 17.0429 7.40699 16.2569C6.75852 15.4709 6.40145 14.485 6.39618 13.466V13.4121C7.01075 13.7543 7.69888 13.943 8.40203 13.9621C7.79706 13.5585 7.30128 13.0115 6.95885 12.3699C6.61641 11.7283 6.43794 11.012 6.43932 10.2847C6.4388 9.50158 6.64328 8.73196 7.03244 8.05238C8.14197 9.41948 9.52667 10.5379 11.0966 11.3349C12.6666 12.132 14.3866 12.5898 16.145 12.6788C15.9157 11.727 16.0087 10.7259 16.4095 9.83267C16.8104 8.93941 17.4963 8.20446 18.3599 7.74308C19.2234 7.2817 20.2157 7.11999 21.181 7.28331C22.1464 7.44663 23.0302 7.92574 23.6939 8.64551C24.6869 8.44956 25.6389 8.0848 26.5086 7.56709C26.1757 8.59243 25.4821 9.46221 24.5567 10.0151Z" fill="white"/>
</svg>
