<svg width="33" height="32" viewBox="0 0 33 32" fill="none" xmlns="http://www.w3.org/2000/svg">
<path fill-rule="evenodd" clip-rule="evenodd" d="M16.3176 32C25.1542 32 32.3176 24.8366 32.3176 16C32.3176 7.16344 25.1542 0 16.3176 0C7.48107 0 0.317627 7.16344 0.317627 16C0.317627 24.8366 7.48107 32 16.3176 32ZM19.7174 16.0003L14.1864 19.1975V12.8032L19.7174 16.0003ZM26.8044 12.8778C26.7404 12.0252 26.6445 11.3538 26.506 10.853C26.2396 9.89381 25.6215 9.2757 24.6623 9.00928C23.5646 8.71088 20.7831 8.54036 16.3178 8.54036L14.6233 8.60431C13.4511 8.60431 12.1829 8.63628 10.7974 8.71088C9.39071 8.77482 8.4742 8.87073 7.97331 9.00928C7.01418 9.2757 6.39607 9.89381 6.12964 10.853C5.83124 11.9506 5.66073 13.6664 5.66073 16.0003L5.72467 16.8955C5.72467 17.5349 5.75664 18.2703 5.83124 19.1229C5.89518 19.9754 5.9911 20.6468 6.12964 21.1477C6.39607 22.1068 7.01418 22.7249 7.97331 22.9914C9.07099 23.2898 11.8525 23.4603 16.3178 23.4603L18.0123 23.3963C19.1846 23.3963 20.4528 23.3644 21.8382 23.2898C23.2449 23.2258 24.1614 23.1299 24.6623 22.9914C25.6215 22.7249 26.2396 22.1068 26.506 21.1477C26.8044 20.05 26.9749 18.3342 26.9749 16.0003L26.911 15.1051C26.911 14.4657 26.879 13.7304 26.8044 12.8778Z" fill="white"/>
</svg>
