<?xml version="1.0" standalone="no"?>
<!DOCTYPE svg PUBLIC "-//W3C//DTD SVG 1.1//EN" "http://www.w3.org/Graphics/SVG/1.1/DTD/svg11.dtd" >
<svg xmlns="http://www.w3.org/2000/svg" xmlns:xlink="http://www.w3.org/1999/xlink" version="1.1">
<metadata>
Created by FontForge 20170731 at Mon Aug 10 01:26:58 2020
 By Aleksey,,,
This font is lisenced to afahmy.com for commercial license please contact the author.
</metadata>
<defs>
<font id="AbroSans-Thin" horiz-adv-x="635" >
  <font-face 
    font-family="Abro Sans Thin"
    font-weight="100"
    font-stretch="normal"
    units-per-em="1000"
    panose-1="0 0 0 0 0 0 0 0 0 0"
    ascent="750"
    descent="-250"
    x-height="501"
    cap-height="700"
    bbox="-183 -225 1039 950"
    underline-thickness="50"
    underline-position="-175"
    unicode-range="U+000D-FB05"
  />
<missing-glyph horiz-adv-x="250" 
 />
    <glyph glyph-name=".notdef" horiz-adv-x="250" 
 />
    <glyph glyph-name=".null" horiz-adv-x="0" 
 />
    <glyph glyph-name=".null" horiz-adv-x="0" 
 />
    <glyph glyph-name="uni000D" unicode="&#xd;" horiz-adv-x="250" 
 />
    <glyph glyph-name="space" unicode=" " horiz-adv-x="300" 
 />
    <glyph glyph-name="exclam" unicode="!" horiz-adv-x="164" 
d="M105 700v-573h-43v573h43zM105 42v-42h-43v42h43z" />
    <glyph glyph-name="quotedbl" unicode="&#x22;" horiz-adv-x="187" 
d="M31 700h42v-63h-42v63zM115 700h42v-63h-42v63z" />
    <glyph glyph-name="numbersign" unicode="#" horiz-adv-x="671" 
d="M176 201l-72 -201h-46l73 201h-100l15 40h99l80 220h-100l15 40l99 -1l73 200h44l-72 -200h216l72 200h45l-72 -200h96l-15 -40h-96l-79 -220l96 -1l-15 -39h-95l-73 -200h-45l72 200zM191 241l214 -1l80 220l-215 1z" />
    <glyph glyph-name="dollar" unicode="$" horiz-adv-x="580" 
d="M267 325q-39 6 -79 16t-73 30t-53.5 51t-20.5 79q0 55 16.5 92.5t46.5 61t71.5 34.5t91.5 12v49h42v-50q105 -4 158 -57.5t66 -156.5h-47q-9 43 -20 73t-30.5 49.5t-49.5 30.5t-77 15v-291q32 -4 72 -14t75.5 -28t59.5 -46t24 -70q0 -52 -18.5 -89.5t-50 -62t-73.5 -37
t-89 -14.5v-52h-42v51q-105 5 -157.5 59.5t-69.5 156.5h42q14 -82 57 -125.5t128 -47.5v281zM83 501q0 -37 17.5 -61t44.5 -38.5t59.5 -22t62.5 -11.5v287q-37 -1 -70.5 -9.5t-58.5 -27t-40 -47t-15 -70.5zM498 203q0 31 -21 52t-50.5 34.5t-62 20.5t-55.5 10v-276
q38 2 72 11t60 27.5t41.5 48t15.5 72.5z" />
    <glyph glyph-name="percent" unicode="%" horiz-adv-x="628" 
d="M409 700h45l-253 -700h-46zM40 504q0 31 5 57t17.5 45.5t35 30.5t57.5 11t57.5 -11t35 -30.5t17.5 -45.5t5 -57q0 -30 -5 -56.5t-17.5 -46t-35 -30.5t-57.5 -11t-57.5 11t-35 30.5t-17.5 46t-5 56.5zM155 402q26 0 40.5 8t21.5 22t9 32.5t2 39.5t-2 39.5t-9 32.5
t-21.5 22t-40.5 8q-25 0 -39.5 -8t-22 -22t-9.5 -32.5t-2 -39.5t1.5 -40t8.5 -32.5t22 -21.5t41 -8zM357 197q0 30 5 56.5t17.5 46t35 30.5t57.5 11t57.5 -11t35 -30.5t17.5 -46t5 -56.5t-5 -56.5t-17.5 -45.5t-35 -30t-57.5 -11t-57.5 11t-35 30t-17.5 45.5t-5 56.5z
M399 197q0 -21 1.5 -39.5t8.5 -32.5t22 -22t41 -8t40.5 8t21.5 22t9 32.5t2 39.5t-1.5 40t-8.5 32.5t-22 21.5t-41 8q-25 0 -40 -8t-22 -22t-9 -32.5t-2 -39.5z" />
    <glyph glyph-name="ampersand" unicode="&#x26;" horiz-adv-x="630" 
d="M308 700q84 0 128 -49t44 -131q0 -38 -17.5 -69.5t-45 -55.5t-62 -39.5t-67.5 -23.5l210 -210q9 23 10.5 50t-2.5 51h43q1 -11 1.5 -22.5t0.5 -22.5q-1 -23 -5.5 -45.5t-15.5 -41.5l60 -60l-27 -31l-58 57q-21 -19 -46 -30.5t-52.5 -17.5t-56 -7.5t-55.5 -1.5
q-49 0 -95 7t-81.5 27t-57 56.5t-21.5 95.5q0 34 14 62t37 50t52.5 36t60.5 20q-35 32 -57 79.5t-22 95.5q0 88 49 129.5t134 41.5zM310 657q-30 0 -55 -6.5t-43.5 -20.5t-29 -37t-10.5 -55q0 -48 20 -94.5t58 -77.5q31 5 65 17t62 31.5t46 47t18 64.5q0 28 -10 52t-28 41.5
t-42 27.5t-51 10zM234 321q-26 0 -53 -11t-49 -29.5t-36 -43t-14 -51.5q0 -46 19.5 -74t50.5 -43.5t68.5 -20.5t74.5 -5q23 0 47 1t47 5t45 13t40 25z" />
    <glyph glyph-name="quotesingle" unicode="'" horiz-adv-x="102" 
d="M31 700h42v-63h-42v63z" />
    <glyph glyph-name="parenleft" unicode="(" horiz-adv-x="220" 
d="M180 800q-24 -44 -42 -93t-30 -100t-18.5 -102.5t-6.5 -101.5q0 -62 5.5 -112.5t17 -97t30 -93t44.5 -100.5h-36q-27 55 -46.5 101t-32 92t-19 96t-6.5 114q0 104 27 203.5t73 193.5h40z" />
    <glyph glyph-name="parenright" unicode=")" horiz-adv-x="220" 
d="M40 0q26 54 44.5 100.5t30 93t17 97t5.5 112.5q0 50 -6 101.5t-18.5 102.5t-30.5 100t-42 93h40q46 -94 73 -193.5t27 -203.5q0 -64 -6.5 -114t-19 -96t-32 -92t-46.5 -101h-36z" />
    <glyph glyph-name="asterisk" unicode="*" horiz-adv-x="344" 
d="M192 500v-98l115 21l7 -42l-98 -17l65 -112l-37 -21l-72 125l-72 -125l-36 21l64 112l-97 17l7 42l112 -20v97h42z" />
    <glyph glyph-name="plus" unicode="+" horiz-adv-x="572" 
d="M306 611v-241h237v-36h-237v-233h-42v233h-234v36h234v241h42z" />
    <glyph glyph-name="comma" unicode="," horiz-adv-x="102" 
d="M31 0v63h42v-63q0 -4 -2.5 -13t-5.5 -19t-6.5 -18.5t-6.5 -9.5h-21q3 3 7 12t7 19t5 18.5t2 10.5h-21z" />
    <glyph glyph-name="hyphen" unicode="-" horiz-adv-x="569" 
d="M30 368h510v-36h-510v36z" />
    <glyph glyph-name="period" unicode="." horiz-adv-x="102" 
d="M31 63h42v-63h-42v63z" />
    <glyph glyph-name="slash" unicode="/" horiz-adv-x="420" 
d="M360 700l-252 -700h-46l254 700h44z" />
    <glyph glyph-name="zero" unicode="0" horiz-adv-x="590" 
d="M295 700q65 0 112.5 -34.5t79.5 -86.5t47.5 -113.5t15.5 -115.5t-15.5 -115.5t-47.5 -113.5t-79.5 -86.5t-112.5 -34.5q-64 0 -112 34.5t-80 86.5t-47.5 113.5t-15.5 115.5t15.5 115.5t47.5 113.5t80 86.5t112 34.5zM295 658q-55 0 -95 -31t-66 -77.5t-39 -100.5t-13 -99
t13 -99t39 -100.5t66 -77.5t95 -31t95 31t66.5 77.5t39 100.5t12.5 99t-12.5 99t-39 100.5t-66.5 77.5t-95 31z" />
    <glyph glyph-name="one" unicode="1" horiz-adv-x="366" 
d="M205 700v-664h102v-36h-246v36h102v586h-72v18q29 0 50.5 14t21.5 46h42z" />
    <glyph glyph-name="two" unicode="2" horiz-adv-x="632" 
d="M83 42h509v-42h-551v42q1 15 2.5 28.5t4.5 25.5q15 63 54.5 105.5t90.5 73t106.5 54t102 49t76.5 57.5t30 80q0 49 -18.5 77.5t-49 42.5t-68.5 18t-77 4q-33 0 -68.5 -3t-66 -14.5t-51.5 -34.5t-26 -64h-42q6 52 29 83.5t58 48t78.5 22t88.5 5.5q49 0 95 -6.5t81.5 -26.5
t57 -56.5t21.5 -95.5q0 -62 -34 -102t-85.5 -69t-111.5 -53.5t-112 -56.5t-87 -77t-37 -115z" />
    <glyph glyph-name="three" unicode="3" horiz-adv-x="588" 
d="M211 329v42h106q30 2 55.5 7t45.5 17.5t33.5 33t17.5 51.5q2 8 2 16v18q0 45 -13 73t-36.5 43.5t-56 21t-72.5 5.5q-32 0 -62.5 -4t-54.5 -16t-40 -35t-19 -62h-43q4 48 22.5 79t47.5 49t67.5 25t81.5 7q49 0 89.5 -8.5t69.5 -30t45 -57.5t16 -90q0 -49 -17.5 -93
t-64.5 -67q61 -20 89 -63t28 -106q0 -59 -21.5 -95t-57 -56t-81.5 -27t-95 -7q-43 0 -86 5.5t-79 23t-60 48.5t-28 82h42q5 -40 26.5 -63.5t51.5 -35t65.5 -14.5t67.5 -3q39 0 77 4t68.5 18.5t49 42.5t18.5 77q0 44 -16 72t-42 43.5t-59.5 22t-68.5 7.5q-29 1 -56.5 0
t-52.5 -1z" />
    <glyph glyph-name="four" unicode="4" horiz-adv-x="597" 
d="M470 700v-376h68v-36h-68v-288h-42v288h-367v36l140 376h39l-140 -376h328v376h42z" />
    <glyph glyph-name="five" unicode="5" horiz-adv-x="588" 
d="M40 329l63 371h401v-36h-365l-49 -293h204q49 0 95 -7t81 -27t56.5 -56.5t21.5 -95.5t-21.5 -95.5t-57 -56.5t-81.5 -26.5t-95 -6.5q-45 0 -88 5.5t-78 22.5t-58 48.5t-29 82.5h42q5 -40 26.5 -63.5t51.5 -35t65.5 -14.5t67.5 -3q39 0 77 4t68.5 18t49 42.5t18.5 77.5
q0 48 -18 76.5t-48 43.5t-67.5 19.5t-76.5 4.5h-256z" />
    <glyph glyph-name="six" unicode="6" horiz-adv-x="593" 
d="M481 593q-32 40 -77 52.5t-93 12.5q-60 0 -100.5 -16t-66.5 -46.5t-39 -74t-18 -98.5q35 61 89.5 83.5t121.5 22.5q60 0 107 -19.5t80 -54.5t50.5 -83.5t17.5 -107.5q0 -58 -17.5 -106.5t-50.5 -83.5t-80 -54.5t-107 -19.5q-70 0 -119 24t-80 65t-44.5 97t-13.5 119
q0 74 7.5 145t35 126.5t81.5 89.5t146 34q57 0 109 -16t90 -62zM298 487q-100 0 -155.5 -45.5t-55.5 -149.5q0 -54 11 -100t36 -79t65.5 -52t98.5 -19q51 0 91 16t67 45t41 70t14 91t-14 91t-41.5 70.5t-67 45.5t-90.5 16z" />
    <glyph glyph-name="seven" unicode="7" horiz-adv-x="537" 
d="M477 700v-36q-9 -27 -26.5 -79t-39 -117t-45.5 -136t-45.5 -136t-39 -117t-26.5 -79h-44q9 27 26.5 79t39 117t45 136t45 136t39 117t26.5 79h-371v36h416z" />
    <glyph glyph-name="eight" unicode="8" horiz-adv-x="590" 
d="M550 185q0 -59 -21.5 -95t-57 -56t-81.5 -27t-95 -7t-95 7t-81.5 27t-57 56t-21.5 95q0 63 27.5 106t89.5 63q-46 23 -64 67t-18 93q0 54 16 90t45 57.5t69.5 30t89.5 8.5t89.5 -8.5t69.5 -30t45 -57.5t16 -90q0 -24 -4 -48t-13.5 -45t-25.5 -38t-39 -29q62 -20 89.5 -63
t27.5 -106zM295 372q39 0 72 5t56.5 20.5t36.5 43.5t13 73t-13 73t-36.5 43.5t-56.5 21t-72 5.5t-72 -5.5t-56.5 -21t-36.5 -43.5t-13 -73t13 -73t36.5 -43.5t56.5 -20.5t72 -5zM295 328q-39 0 -77 -4t-68.5 -18.5t-49 -43t-18.5 -77.5t19 -77t49 -42.5t68 -18.5t77 -4t77 4
t68 18.5t49 42.5t19 77t-18.5 77.5t-49 43t-68.5 18.5t-77 4z" />
    <glyph glyph-name="nine" unicode="9" horiz-adv-x="593" 
d="M112 107q32 -40 77 -52.5t93 -12.5q60 0 101 16t66.5 46.5t38.5 74t18 98.5q-35 -61 -89.5 -83t-121.5 -22q-60 0 -107 19.5t-80 54t-50.5 83.5t-17.5 107t17.5 106.5t50.5 83.5t80 54.5t107 19.5q69 0 118 -18.5t80 -54t45 -87t14 -117.5q0 -48 -2.5 -98.5t-12 -97.5
t-27 -88.5t-47.5 -72t-74.5 -48.5t-106.5 -18q-57 0 -109 16t-90 62zM295 214q111 0 161 57.5t50 164.5q0 110 -48.5 166t-162.5 56q-51 0 -91 -16t-67 -45t-41 -70t-14 -91q0 -49 14.5 -90t41.5 -70.5t66.5 -45.5t90.5 -16z" />
    <glyph glyph-name="colon" unicode=":" horiz-adv-x="102" 
d="M72 414v-63h-42v63h42zM72 199v-63h-42v63h42z" />
    <glyph glyph-name="semicolon" unicode=";" horiz-adv-x="102" 
d="M72 414v-63h-42v63h42zM30 200h42v-63q0 -4 -2 -13t-5.5 -19t-7 -18t-6.5 -10h-21q4 3 8 12t7 19t5 18.5t1 10.5h-21v63z" />
    <glyph glyph-name="less" unicode="&#x3c;" horiz-adv-x="410" 
d="M30 233v49l351 233l-1 -49l-313 -209l313 -208l1 -49z" />
    <glyph glyph-name="equal" unicode="=" horiz-adv-x="569" 
d="M30 450h510v-36h-510v36zM30 286h510v-36h-510v36z" />
    <glyph glyph-name="greater" unicode="&#x3e;" horiz-adv-x="411" 
d="M382 282v-49l-351 -233v49l314 208l-314 209v49z" />
    <glyph glyph-name="question" unicode="?" horiz-adv-x="441" 
d="M420 501q0 -38 -12.5 -63t-31.5 -43t-43 -33t-46.5 -34.5t-42 -46.5t-29.5 -69q-5 -18 -7.5 -39t-1.5 -46h-42q0 28 3 50q6 58 23.5 95t41 61.5t49.5 40.5t47.5 32.5t35.5 38t14 56.5q0 43 -8 73t-26 48.5t-47.5 27t-72.5 8.5q-19 0 -40.5 -3.5t-41.5 -11t-37 -19.5
t-28 -29q-16 -23 -15 -53h-42q0 41 18 70.5t47.5 49t65.5 28.5t72 9q105 0 151 -47t46 -151zM207 42v-42h-43v42h43z" />
    <glyph glyph-name="at" unicode="@" horiz-adv-x="641" 
d="M495 -52q-38 -28 -83.5 -37.5t-90.5 -9.5q-84 0 -138 26t-85.5 72.5t-44 111t-12.5 140.5t12.5 140.5t44 111t85.5 72.5t138 26t138 -26t85.5 -72.5t44 -111t12.5 -140.5q0 -27 -1 -65t-10.5 -72.5t-30 -59t-59.5 -24.5q-23 0 -37 5q-21 6 -32 18.5t-16.5 29t-6.5 35
t-1 36.5q-19 -14 -41.5 -18t-44.5 -4q-68 0 -98 32t-30 100t30 100t98 32q67 0 97 -32t30 -100v-136q0 -28 11.5 -43t41.5 -15q23 0 35 22.5t17 52.5t5.5 60t0.5 46q0 65 -9 121.5t-34.5 98t-72.5 65t-122 23.5q-76 0 -122.5 -23.5t-72 -65t-34.5 -98t-9 -121.5t9 -121.5
t34.5 -98t72 -65t122.5 -23.5q40 0 80 8.5t72 33.5zM234 264q0 -45 20 -67.5t67 -22.5t66.5 22t19.5 68q0 45 -20 67.5t-66 22.5q-27 0 -43.5 -4.5t-26.5 -15t-13.5 -27.5t-3.5 -43z" />
    <glyph glyph-name="A" unicode="A" horiz-adv-x="582" 
d="M316 700l261 -700h-45l-107 288h-267l-107 -288h-45l261 700h49zM172 324h239l-119 322z" />
    <glyph glyph-name="B" unicode="B" horiz-adv-x="613" 
d="M61 0v699q75 0 149.5 0.5t149.5 0.5q101 1 156.5 -46.5t55.5 -157.5q0 -27 -6 -57t-18 -56.5t-30.5 -46.5t-42.5 -27q48 -14 71.5 -52t23.5 -92q0 -45 -15.5 -76.5t-42.5 -51t-64.5 -28t-81.5 -8.5q-77 1 -152.5 0t-152.5 -1zM103 326h272q81 3 118 48t37 122
q0 47 -11 78t-32.5 50t-53 26.5t-73.5 7.5h-257v-332zM103 36h269q30 0 58.5 7.5t50 23t34.5 40t13 58.5q0 39 -12 63t-32.5 37.5t-48.5 18.5t-60 6l-272 -1v-253z" />
    <glyph glyph-name="C" unicode="C" horiz-adv-x="598" 
d="M557 171q-15 -48 -39 -80.5t-56.5 -53t-73 -29t-88.5 -8.5q-85 0 -139 26.5t-85.5 73.5t-43.5 111t-12 139t12 139t43.5 111t85.5 73.5t139 26.5q48 0 88.5 -9t73.5 -29t57 -53.5t39 -81.5h-44q-12 35 -34 59.5t-50.5 40.5t-61.5 23.5t-68 7.5q-75 0 -122 -23.5
t-72.5 -65t-34.5 -98t-9 -121.5t9 -121.5t34.5 -98t72.5 -65t122 -23.5q38 0 71 6t60 20.5t47.5 39.5t34.5 63h44z" />
    <glyph glyph-name="D" unicode="D" horiz-adv-x="661" 
d="M369 700q78 -3 127 -32.5t76.5 -77t37.5 -109.5t10 -131q0 -66 -11 -129t-39.5 -112t-78 -78.5t-126.5 -29.5q-76 -1 -152 -1h-152v700h308zM103 42h241q74 0 120 24t71.5 66t34 98t8.5 120t-8.5 120t-34 97.5t-71.5 65.5t-120 24h-241v-615z" />
    <glyph glyph-name="E" unicode="E" horiz-adv-x="600" 
d="M541 700v-36h-438v-340h398v-36h-398v-252h438v-36h-480v700h480z" />
    <glyph glyph-name="F" unicode="F" horiz-adv-x="541" 
d="M541 700v-36h-438v-340h398v-36h-398v-288h-42v700h480z" />
    <glyph glyph-name="G" unicode="G" horiz-adv-x="618" 
d="M301 324h274v-155q0 -9 -4.5 -20.5t-11 -23.5t-13.5 -23t-13 -19q-18 -24 -43 -40t-53 -25.5t-58 -13.5t-59 -4q-84 0 -138 26t-85.5 72.5t-44 111t-12.5 140.5t12.5 140.5t44 111t85.5 72.5t138 26q86 0 147.5 -29.5t95.5 -103.5q4 -9 7.5 -19t7.5 -21h-44
q-14 38 -34.5 63.5t-47.5 40.5t-60 21t-72 6q-75 0 -122 -23.5t-72.5 -65t-34.5 -98t-9 -121.5t9 -121.5t34.5 -98t72.5 -65t122 -23.5q76 0 130.5 26.5t82.5 101.5v118h-232v36z" />
    <glyph glyph-name="H" unicode="H" horiz-adv-x="681" 
d="M621 700v-700h-42v288h-476v-288h-42v700h42v-376h476v376h42z" />
    <glyph glyph-name="I" unicode="I" horiz-adv-x="162" 
d="M103 0h-42v700h42v-700z" />
    <glyph glyph-name="J" unicode="J" horiz-adv-x="309" 
d="M269 700v-467q0 -71 -20.5 -116t-54.5 -71t-79 -36t-95 -10v42q95 1 151 47t56 144v467h42z" />
    <glyph glyph-name="K" unicode="K" horiz-adv-x="578" 
d="M61 700h42v-518l374 517h53l-271 -373l313 -326h-59l-279 291q-2 -2 -11.5 -15.5t-23 -32t-29 -40t-29.5 -41t-24.5 -34t-13.5 -18.5v-110h-42v700z" />
    <glyph glyph-name="L" unicode="L" horiz-adv-x="552" 
d="M541 0h-480v700h42v-664h438v-36z" />
    <glyph glyph-name="M" unicode="M" horiz-adv-x="774" 
d="M673 700h42v-700h-42v640l-263 -352h-45l-262 352v-640h-42v700h42l285 -382z" />
    <glyph glyph-name="N" unicode="N" horiz-adv-x="681" 
d="M622 700v-700h-42l-477 640v-640h-42v700h42l477 -639v639h42z" />
    <glyph glyph-name="O" unicode="O" horiz-adv-x="640" 
d="M320 700q86 0 140.5 -27.5t85.5 -75t42.5 -111.5t11.5 -136q0 -78 -12.5 -142t-44.5 -110.5t-86 -72t-137 -25.5q-86 0 -140.5 27.5t-85.5 75.5t-42.5 111.5t-11.5 135.5q0 73 11.5 136.5t42.5 111t85.5 75t140.5 27.5zM320 658q-76 0 -123 -24.5t-72.5 -66.5t-34 -98
t-8.5 -119q0 -67 9 -123.5t35 -97.5t72.5 -64t121.5 -23q77 0 123.5 24.5t72 66.5t34 98t8.5 119q0 67 -9 123.5t-35 97.5t-72.5 64t-121.5 23z" />
    <glyph glyph-name="P" unicode="P" horiz-adv-x="612" 
d="M103 279v-279h-42v699q79 0 157.5 0.5t156.5 0.5q99 0 148 -55.5t49 -151.5q0 -70 -21 -112.5t-58 -65t-88 -29.5t-110 -7h-192zM103 657v-336h203q49 0 90 5t71 23t46.5 52t16.5 92q0 81 -37.5 123t-120.5 42z" />
    <glyph glyph-name="Q" unicode="Q" horiz-adv-x="640" 
d="M600 350q0 -37 -3.5 -78t-13.5 -80.5t-28.5 -74.5t-48.5 -61l54 -56h-57l-32 32q-35 -19 -73.5 -25.5t-77.5 -6.5q-84 0 -138.5 26.5t-86 73t-43.5 111t-12 139.5t12 139t43.5 111t85.5 73.5t139 26.5t139 -26.5t85.5 -73.5t43.5 -111t12 -139zM558 350q0 65 -9 121.5
t-35 98t-72.5 65t-121.5 23.5t-121.5 -23.5t-72.5 -65t-35 -98t-9 -121.5q0 -63 9.5 -119t36 -98t73 -66.5t119.5 -24.5q31 0 61.5 4t58.5 17l-51 51h59l28 -28q27 22 43 54t25 68t11.5 73t2.5 69z" />
    <glyph glyph-name="R" unicode="R" horiz-adv-x="612" 
d="M572 0h-42l-107 288q-29 -6 -59.5 -7.5t-60.5 -1.5h-200v-279h-42v699h234q60 0 111 -5t87.5 -25.5t57.5 -62t21 -113.5q0 -30 -6 -60t-19 -56t-34.5 -47t-51.5 -32zM103 321h234q35 0 64 2.5t59 20.5q41 25 55.5 64.5t14.5 84.5q0 57 -15 90t-43 49.5t-67.5 21
t-88.5 4.5l-213 -1v-336z" />
    <glyph glyph-name="S" unicode="S" horiz-adv-x="735" 
d="M695 176q0 -35 -15.5 -62.5t-41 -48t-58 -34.5t-67 -22.5t-68.5 -12t-61 -3.5q-42 0 -96.5 6.5t-104 24.5t-86.5 50.5t-44 84.5h45q6 -42 39 -66.5t77 -37.5t90.5 -16.5t79.5 -3.5q32 0 78 6t88.5 21.5t72.5 43.5t30 72q0 45 -26.5 71.5t-69.5 42t-98 22.5t-112.5 13.5
t-112.5 15.5t-98 27t-69.5 49t-26.5 81q0 56 32 94t79 61.5t100.5 34t97.5 10.5q48 0 101.5 -6.5t100 -26t80.5 -55t42 -93.5h-45q-6 47 -35.5 74.5t-70 42t-85 18.5t-82.5 4q-33 0 -80 -8t-90 -26t-73 -48.5t-30 -75.5q0 -43 26.5 -67.5t69.5 -38t98 -20t112.5 -12.5
t112.5 -15.5t98 -29t69.5 -53t26.5 -88.5z" />
    <glyph glyph-name="T" unicode="T" horiz-adv-x="583" 
d="M572 700v-36h-259v-664h-42v664h-259v36h560z" />
    <glyph glyph-name="U" unicode="U" horiz-adv-x="641" 
d="M559 700h42v-353q0 -75 -12 -138.5t-43.5 -110t-86 -72.5t-138.5 -26t-138.5 26.5t-86 73t-43.5 110t-12 138.5v352h42v-353q0 -65 9.5 -121t35.5 -97t72.5 -64t120.5 -23t120.5 23.5t72.5 64.5t35.5 97t9.5 121v352z" />
    <glyph glyph-name="V" unicode="V" horiz-adv-x="571" 
d="M566 700l-253 -700h-53l-254 700h45l236 -651l234 651h45z" />
    <glyph glyph-name="W" unicode="W" horiz-adv-x="891" 
d="M886 700l-233 -700h-42l-165 491l-163 -491h-42l-235 700h45l211 -630l152 457h65l153 -457l210 630h44z" />
    <glyph glyph-name="X" unicode="X" horiz-adv-x="572" 
d="M55 700l247 -339l222 338h42l-241 -369l241 -330h-52l-223 307l-240 -307h-45l263 337l-263 363h49z" />
    <glyph glyph-name="Y" unicode="Y" horiz-adv-x="571" 
d="M517 700h49l-251 -412v-288h-42v288l-267 412h51l237 -366z" />
    <glyph glyph-name="Z" unicode="Z" horiz-adv-x="584" 
d="M507 658h-473v42h518v-42l-493 -616h514v-42h-560v42z" />
    <glyph glyph-name="bracketleft" unicode="[" horiz-adv-x="270" 
d="M98 657v-613q0 -7 7 -7h106v-37h-106q-44 0 -44 43v615q0 42 44 42h106v-36h-106q-7 0 -7 -7z" />
    <glyph glyph-name="backslash" unicode="\" horiz-adv-x="420" 
d="M107 700l253 -700h-45l-253 700h45z" />
    <glyph glyph-name="bracketright" unicode="]" horiz-adv-x="270" 
d="M167 36q7 0 7 7v613q0 7 -7 7h-106v36h106q44 0 44 -42v-615q0 -43 -44 -43h-106v37h106z" />
    <glyph glyph-name="asciicircum" unicode="^" horiz-adv-x="464" 
d="M435 350h-47l-155 304l-155 -304h-47l178 350h47z" />
    <glyph glyph-name="underscore" unicode="_" horiz-adv-x="570" 
d="M31 -63h510v-36h-510v36z" />
    <glyph glyph-name="grave" unicode="`" horiz-adv-x="138" 
d="M30 700h49l29 -88h-36z" />
    <glyph glyph-name="a" unicode="a" horiz-adv-x="611" 
d="M551 0h-42v87q-35 -51 -90.5 -69t-122.5 -18q-53 0 -99.5 10.5t-81.5 40t-55 81t-20 132.5t20 132.5t55 81t81.5 40t99.5 10.5t99.5 -10.5t81 -40t54.5 -81t20 -132.5v-264zM296 488q-59 0 -100.5 -13t-67 -40t-37 -69.5t-11.5 -101.5t11.5 -101.5t37 -69.5t67 -40
t100.5 -13t100 13t66.5 40t37 69.5t11.5 101.5t-11.5 101.5t-37 69.5t-66.5 40t-100 13z" />
    <glyph glyph-name="b" unicode="b" horiz-adv-x="610" 
d="M102 119v-117h-42v698h42v-292q13 36 34 59t48 36.5t60 18.5t71 5q53 0 99.5 -10.5t81 -40t54.5 -81t20 -132.5t-19.5 -132.5t-54 -80.5t-81 -39.5t-100.5 -10.5q-38 0 -71 5t-60 18.5t-48 36.5t-34 59zM315 485q-58 0 -99 -12.5t-66 -39.5t-36.5 -69t-11.5 -101
q0 -113 49.5 -168t162.5 -55q63 0 104.5 14t65.5 41.5t34 69.5t10 98q0 59 -11.5 101t-36.5 69t-65.5 39.5t-99.5 12.5z" />
    <glyph glyph-name="c" unicode="c" horiz-adv-x="582" 
d="M540 159q-12 -47 -35 -77.5t-54.5 -48.5t-70.5 -25.5t-84 -7.5q-53 0 -99.5 10.5t-81 40t-54.5 81t-20 132.5t20 132.5t54.5 81t81 40t99.5 10.5q46 0 86 -7.5t71.5 -26.5t54 -51t33.5 -80h-41q-10 39 -29.5 63t-46 38t-59 19t-69.5 5q-59 0 -100 -13t-66.5 -40
t-37 -69.5t-11.5 -101.5t11.5 -101.5t37 -69.5t66.5 -40t100 -13q36 0 68 5t58 18t45.5 36t30.5 60h42z" />
    <glyph glyph-name="d" unicode="d" horiz-adv-x="611" 
d="M508 700h42v-698h-42v117q-13 -36 -33.5 -59t-47.5 -36.5t-60 -18.5t-71 -5q-53 0 -99.5 10.5t-81 40t-54.5 80.5t-20 132t20 132.5t54.5 81t81 40t99.5 10.5q38 0 71 -5t60 -18.5t47.5 -36.5t33.5 -59v292zM296 485q-58 0 -99 -12.5t-66 -39.5t-36.5 -69t-11.5 -101
q0 -56 10 -98t34 -69.5t65 -41.5t104 -14q114 0 163 55t49 168q0 59 -11.5 101t-36.5 69t-65.5 39.5t-98.5 12.5z" />
    <glyph glyph-name="e" unicode="e" horiz-adv-x="590" 
d="M295 528q73 0 123 -19t80 -55t42 -89.5t8 -122.5h-467q4 -111 58.5 -156.5t155.5 -45.5q36 0 68 4.5t58 17.5t45 36t30 60h41q-12 -46 -34.5 -76.5t-53.5 -48.5t-70 -25.5t-84 -7.5q-53 0 -99.5 10.5t-81 40t-54.5 80.5t-20 132t20 132.5t55 81t81.5 40.5t98.5 11z
M297 486q-55 0 -95.5 -11.5t-67.5 -36.5t-40.5 -64.5t-13.5 -95.5h429q0 112 -51 160t-161 48z" />
    <glyph glyph-name="f" unicode="f" horiz-adv-x="396" 
d="M366 700v-42q-78 -1 -129.5 -30t-68.5 -101h198v-32h-204q-1 -7 -1.5 -13.5t-0.5 -14.5v-467h-42q0 117 0.5 232.5t-0.5 232.5q0 6 0.5 14.5t2.5 15.5h-60v32h64q11 52 33.5 85t54 52.5t71 27.5t82.5 8z" />
    <glyph glyph-name="g" unicode="g" horiz-adv-x="606" 
d="M504 521h41v-513q0 -71 -20.5 -116t-55.5 -71t-80 -36t-95 -10q-63 0 -105 12t-68 31.5t-40.5 45.5t-23.5 53h42q11 -30 30 -49.5t44.5 -31t56 -16t64.5 -4.5q63 0 105.5 13t67 46.5t33 91.5t3.5 148q-11 -32 -31 -54t-47.5 -36t-61 -20t-70.5 -6q-62 0 -109.5 18.5
t-79 53t-47.5 83t-16 107.5q0 80 21 131t56 79.5t80.5 39t94.5 10.5q29 0 61 -7t61.5 -22t53 -39.5t35.5 -59.5v128zM507 261q0 101 -53 160.5t-156 59.5q-109 0 -161 -55t-52 -166q0 -46 10.5 -86t35 -69.5t64.5 -46.5t98 -17q115 0 164.5 54t49.5 166z" />
    <glyph glyph-name="h" unicode="h" horiz-adv-x="630" 
d="M527 0v292q-3 54 -16 91.5t-38.5 60.5t-64.5 33.5t-94 10.5q-45 0 -83.5 -8t-67 -27t-45 -50.5t-16.5 -77.5v-324h-42v699h42v-289q14 37 36 60t50 35.5t60 17t66 4.5q60 0 102 -11.5t70.5 -30.5t45 -43.5t25 -50.5t10.5 -52t2 -48v-292h-42z" />
    <glyph glyph-name="i" unicode="i" horiz-adv-x="163" 
d="M60 569v42h42v-42h-42zM60 0v528h42v-528h-42z" />
    <glyph glyph-name="j" unicode="j" horiz-adv-x="166" 
d="M63 610h42v-42h-42v42zM63 526h42q0 -69 0.5 -129.5t0.5 -119.5v-119.5v-129.5q0 -20 -2 -39t-5 -36q-16 -79 -82 -116t-161 -38v42q78 0 129 27q25 13 40.5 31t23.5 39t11 45t3 49v494z" />
    <glyph glyph-name="k" unicode="k" horiz-adv-x="601" 
d="M102 700v-464l295 291h60l-203 -200l317 -327h-59l-288 297l-122 -120v-177h-42v700h42z" />
    <glyph glyph-name="l" unicode="l" horiz-adv-x="163" 
d="M103 0h-42v700h42v-700z" />
    <glyph glyph-name="m" unicode="m" horiz-adv-x="1090" 
d="M556 383q11 43 32 71t49.5 44.5t63.5 23t75 6.5q56 0 103 -13t80.5 -40.5t52 -70.5t18.5 -103v-301h-42v208q0 62 -3.5 113t-23 88.5t-62.5 58t-123 20.5q-42 0 -83.5 -9t-72.5 -38q-22 -22 -37.5 -59t-15.5 -68v-314h-42v208v25q0 63 -6.5 110.5t-28 79.5t-63.5 48.5
t-114 16.5q-49 0 -88 -12t-66.5 -36t-42 -61.5t-14.5 -88.5v-290h-42v528h42v-116q14 35 35.5 57.5t49 35.5t60 18t66.5 5q40 0 78 -7t70.5 -24t57.5 -44.5t37 -69.5z" />
    <glyph glyph-name="n" unicode="n" horiz-adv-x="628" 
d="M525 0v163q0 71 -1 130.5t-19 102.5t-62 67.5t-130 24.5q-84 0 -127.5 -26t-62 -70.5t-20 -104t-1.5 -126.5v-161h-42v528h42v-116q14 36 35.5 58.5t49 35t59.5 17.5t67 5q59 0 106 -13.5t80 -41t50.5 -71t17.5 -103.5v-299h-42z" />
    <glyph glyph-name="o" unicode="o" horiz-adv-x="591" 
d="M551 264q0 -136 -60.5 -200t-195.5 -64q-134 0 -194.5 64t-60.5 200t60.5 200t194.5 64q135 0 195.5 -64t60.5 -200zM511 264q0 59 -11.5 101.5t-37 69.5t-66.5 40t-101 13t-101 -13t-66.5 -40t-36.5 -69.5t-11 -101.5t11 -101.5t36.5 -69.5t66.5 -40t101 -13t101 13
t66.5 40t37 69.5t11.5 101.5z" />
    <glyph glyph-name="p" unicode="p" horiz-adv-x="610" 
d="M570 261q0 -133 -59.5 -198.5t-195.5 -65.5q-35 0 -68 5t-60.5 18t-49.5 36.5t-35 59.5v-291h-42v699h42v-118q13 36 35 59.5t49.5 36.5t60.5 18t68 5q136 0 195.5 -65t59.5 -199zM315 485q-115 0 -164 -56t-49 -168q0 -58 11 -99.5t36 -68.5t66 -40t100 -13t100 13
t66 40t36 68.5t11 99.5q0 59 -10.5 101.5t-35.5 69.5t-66 40t-101 13z" />
    <glyph glyph-name="q" unicode="q" horiz-adv-x="611" 
d="M509 527h42v-699h-42v291q-13 -36 -35 -59.5t-49.5 -36.5t-60.5 -18t-68 -5q-135 0 -195 64.5t-60 199.5t60 199.5t195 64.5q35 0 68 -5t60.5 -18t49.5 -36t35 -60v118zM296 488q-61 0 -101.5 -13t-65.5 -40t-35.5 -69.5t-10.5 -101.5q0 -58 11 -100t36 -69t66 -40
t100 -13t99.5 13t66 40t36.5 69t11 100q0 113 -49 168.5t-164 55.5z" />
    <glyph glyph-name="r" unicode="r" horiz-adv-x="323" 
d="M310 487q-100 0 -154 -49t-54 -148v-290h-42v525h42v-114q14 36 35 58.5t48 35.5t59 17.5t66 4.5v-40z" />
    <glyph glyph-name="s" unicode="s" horiz-adv-x="586" 
d="M301 0q-46 0 -88 7.5t-76.5 26t-59 50t-34.5 79.5h43q11 -39 32 -63t50 -36.5t63.5 -17t71.5 -4.5q26 0 60.5 3t65.5 14t52.5 31.5t21.5 55.5q0 31 -20 49t-52.5 28t-74 14.5t-85 8.5t-85 10t-74 19t-52.5 35t-20 59q0 42 23.5 72t59 49.5t78 28.5t81.5 9q55 0 97.5 -6
t73.5 -24t51 -50t31 -82h-42q-8 44 -26 69t-45 37.5t-61.5 15t-75.5 2.5q-37 0 -72.5 -8t-64 -23t-46 -37t-17.5 -49q0 -29 20 -45t52 -25t73.5 -13t84.5 -8.5t84.5 -11t73.5 -21t52 -39t20 -63.5q0 -47 -24 -76t-60.5 -44.5t-79.5 -21t-80 -5.5z" />
    <glyph glyph-name="t" unicode="t" horiz-adv-x="412" 
d="M369 0q-118 1 -180 55t-69 178v262h-92v32h92v173h42v-173h209v-32h-209v-262q0 -51 14.5 -87t41 -59t65 -34t86.5 -11v-42z" />
    <glyph glyph-name="u" unicode="u" 
d="M533 528h42v-266q0 -133 -61.5 -197.5t-196.5 -64.5q-78 0 -128 19.5t-78.5 57t-39.5 92.5t-11 126v233h42v-265q0 -58 11 -100t36.5 -69.5t66.5 -40.5t101 -13q59 0 100 13t67 40t37.5 69t11.5 100v266z" />
    <glyph glyph-name="v" unicode="v" horiz-adv-x="567" 
d="M542 528l-234 -528h-49l-235 528h46l214 -481l213 481h45z" />
    <glyph glyph-name="w" unicode="w" horiz-adv-x="1026" 
d="M747 47l212 481h42l-233 -528h-42l-213 481l-212 -481h-42l-235 528h42l214 -481l212 481h42l107 -240z" />
    <glyph glyph-name="x" unicode="x" horiz-adv-x="547" 
d="M526 528l-222 -266l222 -262h-51l-204 237l-191 -237h-60l223 269l-223 259h60l197 -233l198 233h51z" />
    <glyph glyph-name="y" unicode="y" horiz-adv-x="545" 
d="M520 528q-8 -19 -22 -52.5t-32 -76.5t-39.5 -93t-44.5 -102t-47 -103.5t-47 -97.5q-9 -18 -23.5 -45.5t-31 -54.5t-34 -49t-32.5 -31q-19 -11 -36 -15.5t-33.5 -6t-32.5 -1.5h-33v43q17 0 32 -0.5t29 0.5t27.5 5t28.5 15q9 6 23.5 25.5t28.5 43t26 45.5t18 34l-221 517
h46l199 -470l206 470h45z" />
    <glyph glyph-name="z" unicode="z" horiz-adv-x="570" 
d="M516 501v-42l-424 -417h448v-42h-510v42l429 417h-429v42h486z" />
    <glyph glyph-name="braceleft" unicode="{" horiz-adv-x="415" 
d="M208 750v-333q0 -26 -11.5 -44t-37.5 -23q26 -5 37.5 -22.5t11.5 -43.5v-334q0 -6 2 -7q1 -2 7 -2h138v-48h-138q-57 0 -57 56v335q0 15 -11 23t-27 12.5t-32.5 6t-28.5 3.5v43q11 2 28 3.5t33 6t27 12.5t11 23v334q0 56 57 56h138v-48h-138q-9 0 -9 -9z" />
    <glyph glyph-name="bar" unicode="|" horiz-adv-x="163" 
d="M62 750h42v-800h-42v800z" />
    <glyph glyph-name="braceright" unicode="}" horiz-adv-x="415" 
d="M208 750q0 9 -8 9h-139v48h139q56 0 56 -56v-334q0 -15 11.5 -23t27 -12.5t32.5 -6t28 -3.5v-43q-11 -2 -28 -3.5t-32.5 -6t-27 -12.5t-11.5 -23v-335q0 -56 -56 -56h-139v48h139q8 0 8 9v334q0 26 11.5 43.5t37.5 22.5q-26 5 -37.5 23t-11.5 44v333z" />
    <glyph glyph-name="asciitilde" unicode="~" horiz-adv-x="492" 
d="M31 368q27 10 50.5 22t54.5 12q30 0 56.5 -10.5t53 -23.5t53 -23.5t56.5 -10.5q16 0 29.5 3.5t26 9t25.5 11.5t27 10v-44q-14 -4 -27 -10t-25.5 -11.5t-26 -9t-29.5 -3.5q-29 0 -55.5 10.5t-53 23.5t-53 23.5t-56.5 10.5q-31 0 -54.5 -12t-51.5 -22v44z" />
    <glyph glyph-name="exclamdown" unicode="&#xa1;" horiz-adv-x="102" 
d="M30 658v42h43v-42h-43zM30 0v573h43v-573h-43z" />
    <glyph glyph-name="cent" unicode="&#xa2;" horiz-adv-x="542" 
d="M520 159q-11 -44 -32.5 -74t-50.5 -48.5t-65 -26.5t-77 -10v-83h-42v84q-123 5 -177.5 69t-54.5 194t55 194t177 70v81h42v-81q42 -1 78.5 -10t66 -28t50.5 -50t31 -77h-41q-10 39 -29.5 63.5t-46 38t-59.5 18.5t-69 5q-60 0 -101 -13t-66.5 -40.5t-36.5 -69.5t-11 -101
q0 -58 11 -100.5t36.5 -70t66.5 -40.5t101 -13q35 0 67 4.5t58 17.5t46 36.5t31 60.5h42z" />
    <glyph glyph-name="sterling" unicode="&#xa3;" horiz-adv-x="766" 
d="M198 312q0 71 9.5 140.5t38.5 124.5t81.5 89t137.5 34q89 0 150.5 -35.5t90.5 -123.5h-42q-13 34 -33 56.5t-45.5 36t-56 19t-64.5 5.5q-78 0 -123 -31t-67.5 -80.5t-28.5 -111t-6 -123.5h315v-36h-315v-76h315v-36h-315v-123h383v-41h-559v41h134v123h-137v36h137v76
h-137v36h137z" />
    <glyph glyph-name="currency" unicode="&#xa4;" horiz-adv-x="515" 
d="M68 245l-34 -34l-13 13l34 34q-17 20 -25.5 44t-8.5 50q0 27 10 53t28 46l-38 39l13 13l39 -39q20 16 44 25t50 9q25 0 49 -9t44 -25l39 39l13 -13l-38 -39q18 -20 28 -46t10 -53q0 -26 -8.5 -50t-25.5 -44l34 -34l-13 -13l-34 34q-20 -19 -45.5 -29t-52.5 -10
q-58 0 -99 39zM281 354q2 26 -6 48t-23.5 37.5t-37 23.5t-47.5 6q-26 2 -48 -6t-37.5 -23.5t-23.5 -37.5t-6 -48q-2 -26 6 -47.5t23.5 -37t37.5 -23.5t48 -6q26 -2 47.5 6t37 23.5t23.5 37t6 47.5z" />
    <glyph glyph-name="yen" unicode="&#xa5;" horiz-adv-x="680" 
d="M621 700l-201 -330h176v-36h-198l-28 -46v-88h226v-36h-226v-164h-42v164h-242v36h242v88l-29 46h-213v36h189q-9 14 -26 40t-37.5 58t-43.5 67t-43.5 67t-37.5 58t-26 40h51l214 -330h45l201 330h49z" />
    <glyph glyph-name="brokenbar" unicode="&#xa6;" horiz-adv-x="102" 
d="M31 700h42v-288h-42v288zM31 288h42v-288h-42v288z" />
    <glyph glyph-name="section" unicode="&#xa7;" horiz-adv-x="422" 
d="M277 238q18 -6 37 -13.5t34 -19t24.5 -27.5t9.5 -39q0 -33 -15.5 -58.5t-40.5 -43.5t-55 -27.5t-60 -9.5q-25 0 -54.5 6.5t-55 20.5t-42.5 36t-17 52h39q0 -21 14.5 -35t35 -23t42.5 -13t38 -4q21 0 44 6.5t42.5 19t32 31t12.5 42.5q0 25 -22.5 40t-56 26t-72.5 21
t-72.5 25.5t-56 39.5t-22.5 63q0 21 8.5 38.5t22 31.5t31 24t35.5 16q-40 15 -68.5 42t-28.5 74q0 33 17 56t42.5 37t56 20.5t57.5 6.5q26 0 53 -6.5t50 -20t40 -34t23 -49.5l-39 -8q-4 21 -17.5 36t-31.5 24t-38.5 13.5t-39.5 4.5q-18 0 -41 -4t-43.5 -13t-34.5 -24.5
t-14 -38.5q0 -32 22.5 -51.5t56 -33t73 -24t73 -25t55.5 -35t22 -54.5q0 -24 -8 -43t-22.5 -33.5t-33.5 -24.5t-41 -18zM213 434q-18 0 -41 -4t-43.5 -13t-34.5 -24.5t-14 -38.5t13.5 -40t33.5 -27.5t42.5 -15.5t41.5 -5q21 0 44 5t42.5 16t32 28.5t12.5 41.5q0 18 -15 32.5
t-35.5 24t-42.5 15t-36 5.5z" />
    <glyph glyph-name="dieresis" unicode="&#xa8;" horiz-adv-x="204" 
d="M133 679q0 8 6 14.5t15 6.5q8 0 14.5 -6.5t6.5 -14.5q0 -9 -6.5 -15t-14.5 -6q-9 0 -15 6t-6 15zM31 679q0 8 6 14.5t15 6.5q8 0 14.5 -6.5t6.5 -14.5q0 -9 -6.5 -15t-14.5 -6q-9 0 -15 6t-6 15z" />
    <glyph glyph-name="copyright" unicode="&#xa9;" horiz-adv-x="578" 
d="M557 345q0 -131 -68.5 -201.5t-199.5 -70.5q-132 0 -200.5 70.5t-68.5 201.5t68 201.5t201 70.5q132 0 200 -70.5t68 -201.5zM45 345q0 -57 16.5 -102.5t48 -77.5t77 -49.5t102.5 -17.5t102 17.5t76.5 49.5t48 77.5t16.5 102.5t-16.5 102.5t-47.5 78t-76.5 49.5
t-102.5 17q-58 0 -103 -17t-76.5 -49.5t-48 -78t-16.5 -102.5zM425 288q-13 -51 -49 -69t-84 -18q-75 0 -107.5 35.5t-32.5 108.5t32.5 108.5t107.5 35.5q25 0 46.5 -4t39 -14.5t29.5 -28t18 -43.5h-22q-11 42 -41.5 55t-69.5 13q-66 0 -92 -29.5t-26 -92.5q0 -64 26 -93
t92 -29q38 0 68 12.5t42 52.5h23z" />
    <glyph glyph-name="ordfeminine" unicode="&#xaa;" horiz-adv-x="291" 
d="M220 386q1 22 -4 36.5t-15 23.5t-23 13t-29 4q-21 0 -45.5 -6t-47.5 -14l-12 36q48 14 82 18.5t58 -0.5q36 -7 51.5 -32t21 -62.5t4.5 -85t1 -100.5h-31l-8 39q-17 -19 -43 -30t-53 -12q-32 -2 -59 13t-35 51q-8 39 11 61t49.5 32t66 12.5t60.5 2.5zM221 348q-19 2 -46 0
t-51 -9t-39.5 -20t-11.5 -33q4 -18 18 -25.5t34 -7.5q26 1 54 15t42 35v45z" />
    <glyph glyph-name="guillemotleft" unicode="&#xab;" horiz-adv-x="353" 
d="M82 246q10 -12 29 -35t40 -48.5t40 -49t29 -35.5q-1 -1 -7 -5t-12 -8.5t-11 -8.5l-5 -4q0 1 -10.5 13.5t-25.5 31.5t-33.5 41.5t-35.5 43t-29.5 36t-16.5 20.5q-7 9 0 18q1 1 12 14.5t28 33.5t36 43.5t35.5 43.5t28 34t11.5 15l35 -24zM185 246q10 -12 29 -35t40 -48.5
t40 -49t29 -35.5q-1 -1 -6.5 -5t-11.5 -8.5t-11 -8.5l-5 -4q0 1 -10.5 13.5t-26 31.5t-34 41.5t-35 43t-29.5 36t-17 20.5q-7 9 0 18q1 1 12 14.5t28 33.5t36 43.5t36 43.5t28 34t12 15l34 -24z" />
    <glyph glyph-name="logicalnot" unicode="&#xac;" horiz-adv-x="460" 
d="M30 368h400v-144h-36v108h-364v36z" />
    <glyph glyph-name="registered" unicode="&#xae;" horiz-adv-x="578" 
d="M289 608q131 0 200 -69.5t69 -202.5q0 -132 -69 -202t-200 -70t-200 70t-69 202q0 133 69 202.5t200 69.5zM289 89q119 3 179.5 66t64.5 181q-4 118 -63.5 180.5t-180.5 66.5q-120 -4 -180 -66t-63 -181q3 -118 63 -181t180 -66zM410 181h-19l-50 133q-37 -4 -74 -4h-74
v-129h-19v324h115q23 0 44.5 -2.5t38.5 -12t27.5 -28.5t10.5 -53q0 -27 -11.5 -53.5t-39.5 -36.5zM193 329h92q23 0 42.5 2t33.5 10.5t22 24.5t8 43t-7.5 42.5t-21 23t-32 9t-41.5 1.5h-24h-24h-18h-30v-156z" />
    <glyph glyph-name="macron" unicode="&#xaf;" horiz-adv-x="460" 
d="M30 700h400v-36h-400v36z" />
    <glyph glyph-name="degree" unicode="&#xb0;" horiz-adv-x="184" 
d="M92 698q30 0 51 -21t21 -51t-21 -51t-51 -21t-51 21t-21 51t21 51t51 21zM92 590q15 0 25.5 10.5t10.5 25.5t-10.5 25.5t-25.5 10.5t-25.5 -10.5t-10.5 -25.5t10.5 -25.5t25.5 -10.5z" />
    <glyph glyph-name="plusminus" unicode="&#xb1;" horiz-adv-x="572" 
d="M543 370v-36h-237v-233h-42v233h-234v36h234v241h42v-241h237zM540 37v-36h-510v36h510z" />
    <glyph glyph-name="twosuperior" unicode="&#xb2;" horiz-adv-x="286" 
d="M72 412h-41q0 23 9.5 39.5t25.5 27.5t36 16t40 5t37.5 -3.5t31 -12t21.5 -23t8 -37.5q0 -28 -12.5 -46.5t-31 -31t-40 -21.5t-40 -18.5t-31 -22t-12.5 -31.5h184v-41h-226l-1 26q0 35 12.5 56.5t31.5 35.5t40.5 22t40.5 17t31.5 21.5t12.5 33.5q0 11 -6 17t-14.5 10
t-18.5 5t-18 1q-24 0 -45.5 -8.5t-24.5 -36.5z" />
    <glyph glyph-name="threesuperior" unicode="&#xb3;" horiz-adv-x="273" 
d="M137 211q-20 0 -37.5 2t-31.5 9t-23.5 20.5t-14.5 35.5l36 7q3 -15 9.5 -22.5t16 -10.5t21 -3.5t24.5 -0.5q12 0 24.5 1t22.5 5t16.5 12.5t6.5 23.5q0 16 -6 25t-15.5 13.5t-22 5.5t-25.5 1v37q26 0 41.5 9t15.5 38q0 27 -17 35t-40 8q-9 0 -19 -1t-19 -5t-14.5 -10.5
t-5.5 -18.5h-37q0 20 8.5 34t22 22.5t30.5 12t34 3.5q38 0 66 -18.5t28 -61.5q0 -17 -5 -33t-18 -28q19 -11 27 -29.5t8 -38.5q0 -24 -9 -39.5t-24 -24.5t-34.5 -12t-39.5 -3z" />
    <glyph glyph-name="acute" unicode="&#xb4;" horiz-adv-x="138" 
d="M30 612l30 88h48l-42 -88h-36z" />
    <glyph glyph-name="paragraph" unicode="&#xb6;" horiz-adv-x="492" 
d="M432 698v-701h-44v656h-80v-656h-45v321q-16 -8 -32 -11.5t-32 -3.5q-31 0 -59.5 12t-50.5 33t-35.5 50t-13.5 62v81q0 33 12.5 61.5t33.5 49.5t49.5 33.5t61.5 12.5h235z" />
    <glyph glyph-name="periodcentered" unicode="&#xb7;" horiz-adv-x="102" 
d="M30 382h42v-63h-42v63z" />
    <glyph glyph-name="cedilla" unicode="&#xb8;" horiz-adv-x="180" 
d="M151 9l-31 -47q13 -9 20.5 -22t7.5 -29q0 -30 -20.5 -50t-50.5 -20q-16 0 -31 9.5t-15 27.5q0 8 5 13.5t13 5.5t13 -5t9 -10.5t8.5 -10.5t11.5 -5q11 0 17 10t6 20q0 17 -11 26t-25 14l51 73h22z" />
    <glyph glyph-name="onesuperior" unicode="&#xb9;" horiz-adv-x="238" 
d="M209 248v-36h-178v36h72v173h-72v18q29 1 50.5 15t21.5 46h42v-252h64z" />
    <glyph glyph-name="ordmasculine" unicode="&#xba;" horiz-adv-x="347" 
d="M174 213q-30 0 -56 11.5t-45.5 31t-31 45.5t-11.5 56t11.5 56t31 45.5t45.5 31t56 11.5t56 -11.5t45.5 -31t31 -45.5t11.5 -56t-11.5 -56t-31 -45.5t-45.5 -31t-56 -11.5zM174 466q-22 0 -42 -8.5t-35 -23.5t-23.5 -35t-8.5 -42t8.5 -42t23.5 -35t35 -23.5t42 -8.5
q23 0 42.5 8.5t34.5 23.5t23.5 35t8.5 42t-8.5 42t-23.5 35t-34.5 23.5t-42.5 8.5z" />
    <glyph glyph-name="guillemotright" unicode="&#xbb;" horiz-adv-x="354" 
d="M169 440q1 -1 12 -15t27.5 -34t36 -43.5t36 -43.5t27.5 -33.5t12 -14.5q8 -9 0 -18q-4 -5 -16.5 -20.5t-29 -36t-35 -43t-34 -41.5t-26 -31.5t-10.5 -13.5l-5 3.5t-11 8t-11.5 9t-7.5 5.5l138 168l-138 170zM65 440q1 -1 12 -15t28 -34t36 -43.5t36 -43.5t28 -33.5
t12 -14.5q8 -9 0 -18q-4 -5 -17 -20.5t-29.5 -36t-35 -43t-34 -41.5t-25.5 -31.5t-11 -13.5l-15 12q-6 5 -11.5 9t-7.5 5l138 168l-138 170z" />
    <glyph glyph-name="onequarter" unicode="&#xbc;" horiz-adv-x="516" 
d="M423 700l-252 -700h-46l254 700h44zM208 448v-36h-177v36h72v174h-72v18q28 0 50 14t22 46h42v-252h63zM393 340l-49 -140h103v139h40v-287h-40v108h-147l-1 34l51 146h43z" />
    <glyph glyph-name="onehalf" unicode="&#xbd;" horiz-adv-x="582" 
d="M160 0h-46l254 700h44zM209 448v-36h-178v36h72v174h-72v18q28 0 50 14t22 46h42v-252h64zM326 275q0 23 9.5 40t25.5 27.5t36 15.5t40 5t37.5 -3.5t31 -12t21.5 -23t8 -37.5q0 -28 -12.5 -46.5t-31 -31t-40 -21.5t-40 -18.5t-30.5 -22t-12 -31.5h183v-41h-226l-1 26
q0 35 12.5 56.5t31.5 35.5t40.5 22t40.5 17t31.5 21.5t12.5 33.5q0 11 -6 17t-14.5 10t-18.5 5t-18 1q-12 0 -23.5 -2t-21.5 -7t-16.5 -13.5t-7.5 -22.5h-42z" />
    <glyph glyph-name="threequarters" unicode="&#xbe;" horiz-adv-x="570" 
d="M451 700l-252 -700h-46l254 700h44zM137 411q-20 0 -37.5 2t-31.5 9t-23.5 20.5t-14.5 35.5l36 7q3 -15 9.5 -22.5t16 -10.5t21 -3.5t24.5 -0.5q12 0 24.5 1t22.5 5t16.5 12.5t6.5 24.5t-6 25t-15.5 13.5t-22 5.5t-25.5 1v36q26 0 41.5 9.5t15.5 38.5q0 26 -17 34.5
t-40 8.5q-9 0 -19 -1.5t-19 -5t-14.5 -10.5t-5.5 -19h-37q0 21 8.5 34.5t22 22t30.5 12t34 3.5q39 0 66.5 -18t27.5 -61q0 -17 -5 -33.5t-18 -28.5q19 -10 27 -28.5t8 -38.5q0 -24 -9 -39.5t-24 -24.5t-34 -12.5t-40 -3.5zM446 342l-48 -140h102v139h40v-287h-40v108h-146
l-1 35l51 145h42z" />
    <glyph glyph-name="questiondown" unicode="&#xbf;" horiz-adv-x="442" 
d="M277 700v-43h-43v43h43zM275 574q0 -72 -16 -118t-39.5 -75t-51.5 -47.5t-51.5 -36t-39.5 -39.5t-16 -58q-3 -84 33 -120.5t123 -37.5q26 0 55 6t53.5 20t40 36t14.5 54h41q0 -41 -19 -71t-48.5 -49.5t-66 -28.5t-71.5 -9q-103 0 -149.5 47.5t-46.5 152.5q1 47 17 74.5
t40 47t51.5 36.5t51.5 43t39.5 66.5t15.5 106.5h40z" />
    <glyph glyph-name="Agrave" unicode="&#xc0;" horiz-adv-x="576" 
d="M280 809l23 -81h-36l-29 81h42zM155 288l-107 -288h-42l261 700h43l261 -700h-42l-107 288h-267zM169 323h240l-120 323z" />
    <glyph glyph-name="Aacute" unicode="&#xc1;" horiz-adv-x="576" 
d="M338 811l-26 -80h-36l20 80h42zM155 288l-107 -288h-42l261 700h43l261 -700h-42l-107 288h-267zM169 323h240l-120 323z" />
    <glyph glyph-name="Acircumflex" unicode="&#xc2;" horiz-adv-x="583" 
d="M316 700l261 -700h-45l-107 288h-267l-107 -288h-45l261 700h49zM172 324h239l-119 322zM298 938q42 -54 70.5 -88.5t45.5 -54.5q20 -24 32 -35h-35q-13 11 -32 31t-37 40q-21 24 -44 50q-24 -26 -47 -50q-20 -20 -41 -40t-37 -31h-35q15 11 38 35q20 20 50 54.5t72 88.5
z" />
    <glyph glyph-name="Atilde" unicode="&#xc3;" horiz-adv-x="583" 
d="M316 700l261 -700h-45l-107 288h-267l-107 -288h-45l261 700h49zM172 324h239l-119 322zM130 808q20 7 37.5 16t40.5 9t43 -8t40 -17.5t40 -17.5t42 -8q23 0 41 9.5t40 16.5v-33q-22 -7 -40 -16.5t-41 -9.5q-22 0 -42 8t-39.5 17.5t-39.5 17.5t-42 8q-23 0 -41 -9
t-39 -16v33z" />
    <glyph glyph-name="Adieresis" unicode="&#xc4;" horiz-adv-x="582" 
d="M322 781q0 8 6 14.5t15 6.5q8 0 14.5 -6.5t6.5 -14.5q0 -9 -6.5 -15t-14.5 -6q-9 0 -15 6t-6 15zM220 781q0 8 6 14.5t15 6.5q8 0 14.5 -6.5t6.5 -14.5q0 -9 -6.5 -15t-14.5 -6q-9 0 -15 6t-6 15zM317 700l260 -700h-45l-107 288h-267l-107 -288h-45l261 700h50zM172 324
h239l-119 322z" />
    <glyph glyph-name="Aring" unicode="&#xc5;" horiz-adv-x="582" 
d="M316 700l261 -700h-45l-107 288h-267l-107 -288h-45l261 700h49zM172 324h239l-119 322zM292 902q29 0 50 -20.5t21 -50.5q0 -29 -21 -50t-50 -21t-50 21t-21 50q0 30 21 50.5t50 20.5zM292 792q17 0 28 11.5t11 27.5q0 17 -11 28.5t-28 11.5t-28 -11.5t-11 -28.5
q0 -16 11 -27.5t28 -11.5z" />
    <glyph glyph-name="AE" unicode="&#xc6;" horiz-adv-x="1073" 
d="M317 700l261 -700h-45l-107 288h-267l-107 -288h-45l261 700h49zM173 324h239l-119 322zM1014 700v-36h-438v-340h398v-36h-398v-252h438v-36h-480v700h480z" />
    <glyph glyph-name="Ccedilla" unicode="&#xc7;" horiz-adv-x="598" 
d="M557 171q-15 -48 -39 -80.5t-56.5 -53t-73 -29t-88.5 -8.5q-85 0 -139 26.5t-85.5 73.5t-43.5 111t-12 139t12 139t43.5 111t85.5 73.5t139 26.5q48 0 88.5 -9t73.5 -29t57 -53.5t39 -81.5h-44q-12 35 -34 59.5t-50.5 40.5t-61.5 23.5t-68 7.5q-75 0 -122 -23.5
t-72.5 -65t-34.5 -98t-9 -121.5t9 -121.5t34.5 -98t72.5 -65t122 -23.5q38 0 71 6t60 20.5t47.5 39.5t34.5 63h44zM369 9l-31 -47q13 -9 20.5 -22t7.5 -29q0 -30 -20.5 -50t-50.5 -20q-16 0 -31 9.5t-15 27.5q0 8 5 13.5t13 5.5t13 -5t9 -10.5t8.5 -10.5t11.5 -5q11 0 17 10
t6 20q0 17 -11 26t-25 14l51 73h22z" />
    <glyph glyph-name="Egrave" unicode="&#xc8;" horiz-adv-x="600" 
d="M261 848h49l29 -88h-36zM541 700v-36h-438v-340h398v-36h-398v-252h438v-36h-480v700h480z" />
    <glyph glyph-name="Eacute" unicode="&#xc9;" horiz-adv-x="600" 
d="M541 700v-36h-438v-340h398v-36h-398v-252h438v-36h-480v700h480zM261 760l30 88h48l-42 -88h-36z" />
    <glyph glyph-name="Ecircumflex" unicode="&#xca;" horiz-adv-x="600" 
d="M541 700v-36h-438v-340h398v-36h-398v-252h438v-36h-480v700h480zM306 938q42 -54 70.5 -88.5t45.5 -54.5q20 -24 32 -35h-35q-13 11 -32 31t-37 40q-21 24 -44 50q-24 -26 -47 -50q-20 -20 -41 -40t-37 -31h-35q15 11 38 35q20 20 50 54.5t72 88.5z" />
    <glyph glyph-name="Edieresis" unicode="&#xcb;" horiz-adv-x="600" 
d="M541 700v-36h-438v-340h398v-36h-398v-252h438v-36h-480v700h480zM346 782q0 8 6 14.5t15 6.5q8 0 14.5 -6.5t6.5 -14.5q0 -9 -6.5 -15t-14.5 -6q-9 0 -15 6t-6 15zM244 782q0 8 6 14.5t15 6.5q8 0 14.5 -6.5t6.5 -14.5q0 -9 -6.5 -15t-14.5 -6q-9 0 -15 6t-6 15z" />
    <glyph glyph-name="Igrave" unicode="&#xcc;" horiz-adv-x="162" 
d="M102 0h-42v700h42v-700zM22 900h49l29 -88h-36z" />
    <glyph glyph-name="Iacute" unicode="&#xcd;" horiz-adv-x="162" 
d="M102 0h-42v700h42v-700zM60 812l30 88h48l-42 -88h-36z" />
    <glyph glyph-name="Icircumflex" unicode="&#xce;" horiz-adv-x="162" 
d="M102 0h-42v700h42v-700zM86 940q42 -54 70.5 -88.5t45.5 -54.5q20 -24 32 -35h-35q-13 11 -32 31t-37 40q-21 24 -44 50q-24 -26 -47 -50q-20 -20 -41 -40t-37 -31h-35q15 11 38 35q20 20 50 54.5t72 88.5z" />
    <glyph glyph-name="Idieresis" unicode="&#xcf;" horiz-adv-x="162" 
d="M102 0h-42v700h42v-700zM113 822q0 8 6 14.5t15 6.5q8 0 14.5 -6.5t6.5 -14.5q0 -9 -6.5 -15t-14.5 -6q-9 0 -15 6t-6 15zM11 822q0 8 6 14.5t15 6.5q8 0 14.5 -6.5t6.5 -14.5q0 -9 -6.5 -15t-14.5 -6q-9 0 -15 6t-6 15z" />
    <glyph glyph-name="Eth" unicode="&#xd0;" horiz-adv-x="722" 
d="M430 700q78 -3 127 -32.5t76.5 -77t37.5 -109.5t10 -131q0 -66 -11 -129t-39.5 -112t-78 -78.5t-126.5 -29.5q-76 -1 -152 -1h-152v700h308zM164 42h241q74 0 120 24t71.5 66t34 98t8.5 120t-8.5 120t-34 97.5t-71.5 65.5t-120 24h-241v-615zM61 418h510v-36h-510v36z
" />
    <glyph glyph-name="Ntilde" unicode="&#xd1;" horiz-adv-x="681" 
d="M622 700v-700h-42l-477 640v-640h-42v700h42l477 -639v639h42zM179 811q20 7 37.5 16t40.5 9t43 -8t40 -17.5t40 -17.5t42 -8q23 0 41 9.5t40 16.5v-33q-22 -7 -40 -16.5t-41 -9.5q-22 0 -42 8t-39.5 17.5t-39.5 17.5t-42 8q-23 0 -41 -9t-39 -16v33z" />
    <glyph glyph-name="Ograve" unicode="&#xd2;" horiz-adv-x="640" 
d="M320 700q86 0 140.5 -27.5t85.5 -75t42.5 -111.5t11.5 -136q0 -78 -12.5 -142t-44.5 -110.5t-86 -72t-137 -25.5q-86 0 -140.5 27.5t-85.5 75.5t-42.5 111.5t-11.5 135.5q0 73 11.5 136.5t42.5 111t85.5 75t140.5 27.5zM320 658q-76 0 -123 -24.5t-72.5 -66.5t-34 -98
t-8.5 -119q0 -67 9 -123.5t35 -97.5t72.5 -64t121.5 -23q77 0 123.5 24.5t72 66.5t34 98t8.5 119q0 67 -9 123.5t-35 97.5t-72.5 64t-121.5 23zM281 839h49l29 -88h-36z" />
    <glyph glyph-name="Oacute" unicode="&#xd3;" horiz-adv-x="640" 
d="M320 700q86 0 140.5 -27.5t85.5 -75t42.5 -111.5t11.5 -136q0 -78 -12.5 -142t-44.5 -110.5t-86 -72t-137 -25.5q-86 0 -140.5 27.5t-85.5 75.5t-42.5 111.5t-11.5 135.5q0 73 11.5 136.5t42.5 111t85.5 75t140.5 27.5zM320 658q-76 0 -123 -24.5t-72.5 -66.5t-34 -98
t-8.5 -119q0 -67 9 -123.5t35 -97.5t72.5 -64t121.5 -23q77 0 123.5 24.5t72 66.5t34 98t8.5 119q0 67 -9 123.5t-35 97.5t-72.5 64t-121.5 23zM281 764l30 88h48l-42 -88h-36z" />
    <glyph glyph-name="Ocircumflex" unicode="&#xd4;" horiz-adv-x="640" 
d="M320 700q86 0 140.5 -27.5t85.5 -75t42.5 -111.5t11.5 -136q0 -78 -12.5 -142t-44.5 -110.5t-86 -72t-137 -25.5q-86 0 -140.5 27.5t-85.5 75.5t-42.5 111.5t-11.5 135.5q0 73 11.5 136.5t42.5 111t85.5 75t140.5 27.5zM320 658q-76 0 -123 -24.5t-72.5 -66.5t-34 -98
t-8.5 -119q0 -67 9 -123.5t35 -97.5t72.5 -64t121.5 -23q77 0 123.5 24.5t72 66.5t34 98t8.5 119q0 67 -9 123.5t-35 97.5t-72.5 64t-121.5 23zM326 949q42 -54 70.5 -88.5t45.5 -54.5q20 -24 32 -35h-35q-13 11 -32 31t-37 40q-21 24 -44 50q-24 -26 -47 -50
q-20 -20 -41 -40t-37 -31h-35q15 11 38 35q20 20 50 54.5t72 88.5z" />
    <glyph glyph-name="Otilde" unicode="&#xd5;" horiz-adv-x="640" 
d="M320 700q86 0 140.5 -27.5t85.5 -75t42.5 -111.5t11.5 -136q0 -78 -12.5 -142t-44.5 -110.5t-86 -72t-137 -25.5q-86 0 -140.5 27.5t-85.5 75.5t-42.5 111.5t-11.5 135.5q0 73 11.5 136.5t42.5 111t85.5 75t140.5 27.5zM320 658q-76 0 -123 -24.5t-72.5 -66.5t-34 -98
t-8.5 -119q0 -67 9 -123.5t35 -97.5t72.5 -64t121.5 -23q77 0 123.5 24.5t72 66.5t34 98t8.5 119q0 67 -9 123.5t-35 97.5t-72.5 64t-121.5 23zM159 824q20 7 37.5 16t40.5 9t43 -8t40 -17.5t40 -17.5t42 -8q23 0 41 9.5t40 16.5v-33q-22 -7 -40 -16.5t-41 -9.5q-22 0 -42 8
t-39.5 17.5t-39.5 17.5t-42 8q-23 0 -41 -9t-39 -16v33z" />
    <glyph glyph-name="Odieresis" unicode="&#xd6;" horiz-adv-x="640" 
d="M320 700q86 0 140.5 -27.5t85.5 -75t42.5 -111.5t11.5 -136q0 -78 -12.5 -142t-44.5 -110.5t-86 -72t-137 -25.5q-86 0 -140.5 27.5t-85.5 75.5t-42.5 111.5t-11.5 135.5q0 73 11.5 136.5t42.5 111t85.5 75t140.5 27.5zM320 658q-76 0 -123 -24.5t-72.5 -66.5t-34 -98
t-8.5 -119q0 -67 9 -123.5t35 -97.5t72.5 -64t121.5 -23q77 0 123.5 24.5t72 66.5t34 98t8.5 119q0 67 -9 123.5t-35 97.5t-72.5 64t-121.5 23zM366 771q0 8 6 14.5t15 6.5q8 0 14.5 -6.5t6.5 -14.5q0 -9 -6.5 -15t-14.5 -6q-9 0 -15 6t-6 15zM264 771q0 8 6 14.5t15 6.5
q8 0 14.5 -6.5t6.5 -14.5q0 -9 -6.5 -15t-14.5 -6q-9 0 -15 6t-6 15z" />
    <glyph glyph-name="multiply" unicode="&#xd7;" horiz-adv-x="463" 
d="M434 522l-172 -172l172 -172l-30 -29l-172 171l-172 -171l-29 29l171 172l-171 172l29 30l172 -172l172 172z" />
    <glyph glyph-name="Oslash" unicode="&#xd8;" horiz-adv-x="640" 
d="M320 700q86 0 140.5 -27.5t85.5 -75t42.5 -111.5t11.5 -136q0 -78 -12.5 -142t-44.5 -110.5t-86 -72t-137 -25.5q-86 0 -140.5 27.5t-85.5 75.5t-42.5 111.5t-11.5 135.5q0 73 11.5 136.5t42.5 111t85.5 75t140.5 27.5zM320 658q-76 0 -123 -24.5t-72.5 -66.5t-34 -98
t-8.5 -119q0 -67 9 -123.5t35 -97.5t72.5 -64t121.5 -23q77 0 123.5 24.5t72 66.5t34 98t8.5 119q0 67 -9 123.5t-35 97.5t-72.5 64t-121.5 23zM471 700l-252 -700h-46l254 700h44z" />
    <glyph glyph-name="Ugrave" unicode="&#xd9;" horiz-adv-x="641" 
d="M559 700h42v-353q0 -75 -12 -138.5t-43.5 -110t-86 -72.5t-138.5 -26t-138.5 26.5t-86 73t-43.5 110t-12 138.5v352h42v-353q0 -65 9.5 -121t35.5 -97t72.5 -64t120.5 -23t120.5 23.5t72.5 64.5t35.5 97t9.5 121v352zM282 861h49l29 -88h-36z" />
    <glyph glyph-name="Uacute" unicode="&#xda;" horiz-adv-x="641" 
d="M559 700h42v-353q0 -75 -12 -138.5t-43.5 -110t-86 -72.5t-138.5 -26t-138.5 26.5t-86 73t-43.5 110t-12 138.5v352h42v-353q0 -65 9.5 -121t35.5 -97t72.5 -64t120.5 -23t120.5 23.5t72.5 64.5t35.5 97t9.5 121v352zM281 771l30 88h48l-42 -88h-36z" />
    <glyph glyph-name="Ucircumflex" unicode="&#xdb;" horiz-adv-x="641" 
d="M559 700h42v-353q0 -75 -12 -138.5t-43.5 -110t-86 -72.5t-138.5 -26t-138.5 26.5t-86 73t-43.5 110t-12 138.5v352h42v-353q0 -65 9.5 -121t35.5 -97t72.5 -64t120.5 -23t120.5 23.5t72.5 64.5t35.5 97t9.5 121v352zM327 949q42 -54 70.5 -88.5t45.5 -54.5
q20 -24 32 -35h-35q-13 11 -32 31t-37 40q-21 24 -44 50q-24 -26 -47 -50q-20 -20 -41 -40t-37 -31h-35q15 11 38 35q20 20 50 54.5t72 88.5z" />
    <glyph glyph-name="Udieresis" unicode="&#xdc;" horiz-adv-x="641" 
d="M559 700h42v-353q0 -75 -12 -138.5t-43.5 -110t-86 -72.5t-138.5 -26t-138.5 26.5t-86 73t-43.5 110t-12 138.5v352h42v-353q0 -65 9.5 -121t35.5 -97t72.5 -64t120.5 -23t120.5 23.5t72.5 64.5t35.5 97t9.5 121v352zM351 824q0 8 6 14.5t15 6.5q8 0 14.5 -6.5t6.5 -14.5
q0 -9 -6.5 -15t-14.5 -6q-9 0 -15 6t-6 15zM249 824q0 8 6 14.5t15 6.5q8 0 14.5 -6.5t6.5 -14.5q0 -9 -6.5 -15t-14.5 -6q-9 0 -15 6t-6 15z" />
    <glyph glyph-name="Yacute" unicode="&#xdd;" horiz-adv-x="571" 
d="M517 700h49l-251 -412v-288h-42v288l-267 412h51l237 -366zM275 774l30 88h48l-42 -88h-36z" />
    <glyph glyph-name="Thorn" unicode="&#xde;" horiz-adv-x="611" 
d="M571 350q0 -136 -60.5 -200t-194.5 -64q-36 0 -68.5 5t-60.5 18t-49.5 36t-35.5 60v-205h-42v700h42v-205q14 37 35.5 60t49.5 36t60.5 18t68.5 5q134 0 194.5 -64t60.5 -200zM315 574q-115 0 -164 -55.5t-49 -168.5q0 -58 11 -100t36.5 -69t66.5 -40t100 -13t99.5 13
t66 40t36.5 69t11 100q0 59 -10.5 101.5t-35.5 69.5t-66 40t-102 13z" />
    <glyph glyph-name="germandbls" unicode="&#xdf;" 
d="M404 417q35 -7 59.5 -27t39.5 -48t22 -60.5t7 -64.5q0 -110 -49.5 -164t-161.5 -54q-45 0 -88 15t-72 50l31 29q24 -29 58.5 -40.5t70.5 -11.5q92 0 130 42.5t38 133.5q0 77 -36 122t-117 45q-8 0 -16 -0.5t-16 -1.5q58 55 116 108.5t115 109.5q-33 30 -79 43.5t-90 13.5
q-70 0 -120 -24.5t-82 -67t-46.5 -99t-14.5 -120.5v-345h-43v345q0 74 18 138t55.5 112t95.5 75.5t137 27.5q64 0 125.5 -24t103.5 -73z" />
    <glyph glyph-name="agrave" unicode="&#xe0;" horiz-adv-x="612" 
d="M551 0h-42v87q-35 -51 -90.5 -69t-122.5 -18q-53 0 -99.5 10.5t-81.5 40t-55 81t-20 132.5t20 132.5t55 81t81.5 40t99.5 10.5t99.5 -10.5t81 -40t54.5 -81t20 -132.5v-264zM296 488q-59 0 -100.5 -13t-67 -40t-37 -69.5t-11.5 -101.5t11.5 -101.5t37 -69.5t67 -40
t100.5 -13t100 13t66.5 40t37 69.5t11.5 101.5t-11.5 101.5t-37 69.5t-66.5 40t-100 13zM267 700h49l29 -88h-36z" />
    <glyph glyph-name="aacute" unicode="&#xe1;" horiz-adv-x="612" 
d="M551 0h-42v87q-35 -51 -90.5 -69t-122.5 -18q-53 0 -99.5 10.5t-81.5 40t-55 81t-20 132.5t20 132.5t55 81t81.5 40t99.5 10.5t99.5 -10.5t81 -40t54.5 -81t20 -132.5v-264zM296 488q-59 0 -100.5 -13t-67 -40t-37 -69.5t-11.5 -101.5t11.5 -101.5t37 -69.5t67 -40
t100.5 -13t100 13t66.5 40t37 69.5t11.5 101.5t-11.5 101.5t-37 69.5t-66.5 40t-100 13zM274 600l30 88h48l-42 -88h-36z" />
    <glyph glyph-name="acircumflex" unicode="&#xe2;" horiz-adv-x="612" 
d="M551 0h-42v87q-35 -51 -90.5 -69t-122.5 -18q-53 0 -99.5 10.5t-81.5 40t-55 81t-20 132.5t20 132.5t55 81t81.5 40t99.5 10.5t99.5 -10.5t81 -40t54.5 -81t20 -132.5v-264zM296 488q-59 0 -100.5 -13t-67 -40t-37 -69.5t-11.5 -101.5t11.5 -101.5t37 -69.5t67 -40
t100.5 -13t100 13t66.5 40t37 69.5t11.5 101.5t-11.5 101.5t-37 69.5t-66.5 40t-100 13zM312 756q42 -54 70.5 -88.5t45.5 -54.5q20 -24 32 -35h-35q-13 11 -32 31t-37 40q-21 24 -44 50q-24 -26 -47 -50q-20 -20 -41 -40t-37 -31h-35q15 11 38 35q20 20 50 54.5t72 88.5z
" />
    <glyph glyph-name="atilde" unicode="&#xe3;" horiz-adv-x="612" 
d="M551 0h-42v87q-35 -51 -90.5 -69t-122.5 -18q-53 0 -99.5 10.5t-81.5 40t-55 81t-20 132.5t20 132.5t55 81t81.5 40t99.5 10.5t99.5 -10.5t81 -40t54.5 -81t20 -132.5v-264zM296 488q-59 0 -100.5 -13t-67 -40t-37 -69.5t-11.5 -101.5t11.5 -101.5t37 -69.5t67 -40
t100.5 -13t100 13t66.5 40t37 69.5t11.5 101.5t-11.5 101.5t-37 69.5t-66.5 40t-100 13zM145 640q20 7 37.5 16t40.5 9t43 -8t40 -17.5t40 -17.5t42 -8q23 0 41 9.5t40 16.5v-33q-22 -7 -40 -16.5t-41 -9.5q-22 0 -42 8t-39.5 17.5t-39.5 17.5t-42 8q-23 0 -41 -9t-39 -16
v33z" />
    <glyph glyph-name="adieresis" unicode="&#xe4;" horiz-adv-x="612" 
d="M551 0h-42v87q-35 -51 -90.5 -69t-122.5 -18q-53 0 -99.5 10.5t-81.5 40t-55 81t-20 132.5t20 132.5t55 81t81.5 40t99.5 10.5t99.5 -10.5t81 -40t54.5 -81t20 -132.5v-264zM296 488q-59 0 -100.5 -13t-67 -40t-37 -69.5t-11.5 -101.5t11.5 -101.5t37 -69.5t67 -40
t100.5 -13t100 13t66.5 40t37 69.5t11.5 101.5t-11.5 101.5t-37 69.5t-66.5 40t-100 13zM337 605q0 8 6 14.5t15 6.5q8 0 14.5 -6.5t6.5 -14.5q0 -9 -6.5 -15t-14.5 -6q-9 0 -15 6t-6 15zM235 605q0 8 6 14.5t15 6.5q8 0 14.5 -6.5t6.5 -14.5q0 -9 -6.5 -15t-14.5 -6
q-9 0 -15 6t-6 15z" />
    <glyph glyph-name="aring" unicode="&#xe5;" horiz-adv-x="612" 
d="M551 0h-42v87q-35 -51 -90.5 -69t-122.5 -18q-53 0 -99.5 10.5t-81.5 40t-55 81t-20 132.5t20 132.5t55 81t81.5 40t99.5 10.5t99.5 -10.5t81 -40t54.5 -81t20 -132.5v-264zM296 488q-59 0 -100.5 -13t-67 -40t-37 -69.5t-11.5 -101.5t11.5 -101.5t37 -69.5t67 -40
t100.5 -13t100 13t66.5 40t37 69.5t11.5 101.5t-11.5 101.5t-37 69.5t-66.5 40t-100 13zM306 715q29 0 50 -20.5t21 -50.5q0 -29 -21 -50t-50 -21t-50 21t-21 50q0 30 21 50.5t50 20.5zM306 605q17 0 28 11.5t11 27.5q0 17 -11 28.5t-28 11.5t-28 -11.5t-11 -28.5
q0 -16 11 -27.5t28 -11.5z" />
    <glyph glyph-name="ae" unicode="&#xe6;" horiz-adv-x="1069" 
d="M551 -1h-42v87q-35 -51 -90.5 -69t-122.5 -18q-53 0 -99.5 10.5t-81.5 40t-55 81t-20 132.5t20 132.5t55 81t81.5 40t99.5 10.5t99.5 -10.5t81 -40t54.5 -81t20 -132.5v-264zM296 487q-59 0 -100.5 -13t-67 -40t-37 -69.5t-11.5 -101.5t11.5 -101.5t37 -69.5t67 -40
t100.5 -13t100 13t66.5 40t37 69.5t11.5 101.5t-11.5 101.5t-37 69.5t-66.5 40t-100 13zM774 528q73 0 123 -19t80 -55t42 -89.5t8 -122.5h-467q4 -111 58.5 -156.5t155.5 -45.5q36 0 68 4.5t58 17.5t45 36t30 60h41q-12 -46 -34.5 -76.5t-53.5 -48.5t-70 -25.5t-84 -7.5
q-53 0 -99.5 10.5t-81 40t-54.5 80.5t-20 132t20 132.5t55 81t81.5 40.5t98.5 11zM776 486q-55 0 -95.5 -11.5t-67.5 -36.5t-40.5 -64.5t-13.5 -95.5h429q0 112 -51 160t-161 48z" />
    <glyph glyph-name="ccedilla" unicode="&#xe7;" horiz-adv-x="581" 
d="M540 159q-12 -47 -35 -77.5t-54.5 -48.5t-70.5 -25.5t-84 -7.5q-53 0 -99.5 10.5t-81 40t-54.5 81t-20 132.5t20 132.5t54.5 81t81 40t99.5 10.5q46 0 86 -7.5t71.5 -26.5t54 -51t33.5 -80h-41q-10 39 -29.5 63t-46 38t-59 19t-69.5 5q-59 0 -100 -13t-66.5 -40
t-37 -69.5t-11.5 -101.5t11.5 -101.5t37 -69.5t66.5 -40t100 -13q36 0 68 5t58 18t45.5 36t30.5 60h42zM351 9l-31 -47q13 -9 20.5 -22t7.5 -29q0 -30 -20.5 -50t-50.5 -20q-16 0 -31 9.5t-15 27.5q0 8 5 13.5t13 5.5t13 -5t9 -10.5t8.5 -10.5t11.5 -5q11 0 17 10t6 20
q0 17 -11 26t-25 14l51 73h22z" />
    <glyph glyph-name="egrave" unicode="&#xe8;" horiz-adv-x="590" 
d="M295 528q73 0 123 -19t80 -55t42 -89.5t8 -122.5h-467q4 -111 58.5 -156.5t155.5 -45.5q36 0 68 4.5t58 17.5t45 36t30 60h41q-12 -46 -34.5 -76.5t-53.5 -48.5t-70 -25.5t-84 -7.5q-53 0 -99.5 10.5t-81 40t-54.5 80.5t-20 132t20 132.5t55 81t81.5 40.5t98.5 11z
M297 486q-55 0 -95.5 -11.5t-67.5 -36.5t-40.5 -64.5t-13.5 -95.5h429q0 112 -51 160t-161 48zM259 701h49l29 -88h-36z" />
    <glyph glyph-name="eacute" unicode="&#xe9;" horiz-adv-x="590" 
d="M295 528q73 0 123 -19t80 -55t42 -89.5t8 -122.5h-467q4 -111 58.5 -156.5t155.5 -45.5q36 0 68 4.5t58 17.5t45 36t30 60h41q-12 -46 -34.5 -76.5t-53.5 -48.5t-70 -25.5t-84 -7.5q-53 0 -99.5 10.5t-81 40t-54.5 80.5t-20 132t20 132.5t55 81t81.5 40.5t98.5 11z
M297 486q-55 0 -95.5 -11.5t-67.5 -36.5t-40.5 -64.5t-13.5 -95.5h429q0 112 -51 160t-161 48zM257 612l30 88h48l-42 -88h-36z" />
    <glyph glyph-name="ecircumflex" unicode="&#xea;" horiz-adv-x="590" 
d="M295 528q73 0 123 -19t80 -55t42 -89.5t8 -122.5h-467q4 -111 58.5 -156.5t155.5 -45.5q36 0 68 4.5t58 17.5t45 36t30 60h41q-12 -46 -34.5 -76.5t-53.5 -48.5t-70 -25.5t-84 -7.5q-53 0 -99.5 10.5t-81 40t-54.5 80.5t-20 132t20 132.5t55 81t81.5 40.5t98.5 11z
M297 486q-55 0 -95.5 -11.5t-67.5 -36.5t-40.5 -64.5t-13.5 -95.5h429q0 112 -51 160t-161 48zM304 749q42 -54 70.5 -88.5t45.5 -54.5q20 -24 32 -35h-35q-13 11 -32 31t-37 40q-21 24 -44 50q-24 -26 -47 -50q-20 -20 -41 -40t-37 -31h-35q15 11 38 35q20 20 50 54.5
t72 88.5z" />
    <glyph glyph-name="edieresis" unicode="&#xeb;" horiz-adv-x="590" 
d="M295 528q73 0 123 -19t80 -55t42 -89.5t8 -122.5h-467q4 -111 58.5 -156.5t155.5 -45.5q36 0 68 4.5t58 17.5t45 36t30 60h41q-12 -46 -34.5 -76.5t-53.5 -48.5t-70 -25.5t-84 -7.5q-53 0 -99.5 10.5t-81 40t-54.5 80.5t-20 132t20 132.5t55 81t81.5 40.5t98.5 11z
M297 486q-55 0 -95.5 -11.5t-67.5 -36.5t-40.5 -64.5t-13.5 -95.5h429q0 112 -51 160t-161 48zM326 620q0 8 6 14.5t15 6.5q8 0 14.5 -6.5t6.5 -14.5q0 -9 -6.5 -15t-14.5 -6q-9 0 -15 6t-6 15zM224 620q0 8 6 14.5t15 6.5q8 0 14.5 -6.5t6.5 -14.5q0 -9 -6.5 -15t-14.5 -6
q-9 0 -15 6t-6 15z" />
    <glyph glyph-name="igrave" unicode="&#xec;" horiz-adv-x="163" 
d="M60 0v528h42v-528h-42zM42 700h49l29 -88h-36z" />
    <glyph glyph-name="iacute" unicode="&#xed;" horiz-adv-x="163" 
d="M60 0v528h42v-528h-42zM60 612l30 88h48l-42 -88h-36z" />
    <glyph glyph-name="icircumflex" unicode="&#xee;" horiz-adv-x="103" 
d="M0 0v528h42v-528h-42zM28 749q42 -54 70.5 -88.5t45.5 -54.5q20 -24 32 -35h-35q-13 11 -32 31t-37 40q-21 24 -44 50q-24 -26 -47 -50q-20 -20 -41 -40t-37 -31h-35q15 11 38 35q20 20 50 54.5t72 88.5z" />
    <glyph glyph-name="idieresis" unicode="&#xef;" horiz-adv-x="264" 
d="M204 627q0 -9 -6 -15t-15 -6t-15 6t-6 15q0 8 6 14.5t15 6.5t15 -6.5t6 -14.5zM102 627q0 -9 -6 -15t-15 -6t-15 6t-6 15q0 8 6 14.5t15 6.5t15 -6.5t6 -14.5zM112 0v528h42v-528h-42z" />
    <glyph glyph-name="eth" unicode="&#xf0;" horiz-adv-x="593" 
d="M84 622q38 46 90 62t109 16q15 0 29 -1t27 -3l83 84l30 -30l-65 -65q56 -19 89 -57.5t50 -89.5t22 -111t5 -122q0 -63 -13.5 -119t-44.5 -97t-79.5 -65t-119.5 -24q-60 0 -107 19.5t-80 54.5t-50.5 83.5t-17.5 106.5q0 59 17.5 107.5t50.5 83.5t80 54.5t107 19.5
q67 0 121.5 -22.5t89.5 -83.5q-4 46 -13.5 84t-27.5 67t-45.5 48.5t-67.5 28.5l-94 -95l-30 30l72 72q-27 0 -53 -1.5t-50 -8.5t-45.5 -19.5t-39.5 -35.5zM296 487q-51 0 -90.5 -16t-67 -45.5t-41.5 -70.5t-14 -91t14 -91t41 -70t67 -45t91 -16q59 0 99 19t65 52t36 79
t11 100q0 104 -55.5 149.5t-155.5 45.5z" />
    <glyph glyph-name="ntilde" unicode="&#xf1;" horiz-adv-x="628" 
d="M525 0v163q0 71 -1 130.5t-19 102.5t-62 67.5t-130 24.5q-84 0 -127.5 -26t-62 -70.5t-20 -104t-1.5 -126.5v-161h-42v528h42v-116q14 36 35.5 58.5t49 35t59.5 17.5t67 5q59 0 106 -13.5t80 -41t50.5 -71t17.5 -103.5v-299h-42zM153 647q20 7 37.5 16t40.5 9t43 -8
t40 -17.5t40 -17.5t42 -8q23 0 41 9.5t40 16.5v-33q-22 -7 -40 -16.5t-41 -9.5q-22 0 -42 8t-39.5 17.5t-39.5 17.5t-42 8q-23 0 -41 -9t-39 -16v33z" />
    <glyph glyph-name="ograve" unicode="&#xf2;" horiz-adv-x="591" 
d="M551 264q0 -136 -60.5 -200t-195.5 -64q-134 0 -194.5 64t-60.5 200t60.5 200t194.5 64q135 0 195.5 -64t60.5 -200zM511 264q0 59 -11.5 101.5t-37 69.5t-66.5 40t-101 13t-101 -13t-66.5 -40t-36.5 -69.5t-11 -101.5t11 -101.5t36.5 -69.5t66.5 -40t101 -13t101 13
t66.5 40t37 69.5t11.5 101.5zM256 700h49l29 -88h-36z" />
    <glyph glyph-name="oacute" unicode="&#xf3;" horiz-adv-x="591" 
d="M551 264q0 -136 -60.5 -200t-195.5 -64q-134 0 -194.5 64t-60.5 200t60.5 200t194.5 64q135 0 195.5 -64t60.5 -200zM511 264q0 59 -11.5 101.5t-37 69.5t-66.5 40t-101 13t-101 -13t-66.5 -40t-36.5 -69.5t-11 -101.5t11 -101.5t36.5 -69.5t66.5 -40t101 -13t101 13
t66.5 40t37 69.5t11.5 101.5zM258 596l30 88h48l-42 -88h-36z" />
    <glyph glyph-name="ocircumflex" unicode="&#xf4;" horiz-adv-x="591" 
d="M551 264q0 -136 -60.5 -200t-195.5 -64q-134 0 -194.5 64t-60.5 200t60.5 200t194.5 64q135 0 195.5 -64t60.5 -200zM511 264q0 59 -11.5 101.5t-37 69.5t-66.5 40t-101 13t-101 -13t-66.5 -40t-36.5 -69.5t-11 -101.5t11 -101.5t36.5 -69.5t66.5 -40t101 -13t101 13
t66.5 40t37 69.5t11.5 101.5zM302 757q42 -54 70.5 -88.5t45.5 -54.5q20 -24 32 -35h-35q-13 11 -32 31t-37 40q-21 24 -44 50q-24 -26 -47 -50q-20 -20 -41 -40t-37 -31h-35q15 11 38 35q20 20 50 54.5t72 88.5z" />
    <glyph glyph-name="otilde" unicode="&#xf5;" horiz-adv-x="591" 
d="M551 264q0 -136 -60.5 -200t-195.5 -64q-134 0 -194.5 64t-60.5 200t60.5 200t194.5 64q135 0 195.5 -64t60.5 -200zM511 264q0 59 -11.5 101.5t-37 69.5t-66.5 40t-101 13t-101 -13t-66.5 -40t-36.5 -69.5t-11 -101.5t11 -101.5t36.5 -69.5t66.5 -40t101 -13t101 13
t66.5 40t37 69.5t11.5 101.5zM134 640q20 7 37.5 16t40.5 9t43 -8t40 -17.5t40 -17.5t42 -8q23 0 41 9.5t40 16.5v-33q-22 -7 -40 -16.5t-41 -9.5q-22 0 -42 8t-39.5 17.5t-39.5 17.5t-42 8q-23 0 -41 -9t-39 -16v33z" />
    <glyph glyph-name="odieresis" unicode="&#xf6;" horiz-adv-x="591" 
d="M551 264q0 -136 -60.5 -200t-195.5 -64q-134 0 -194.5 64t-60.5 200t60.5 200t194.5 64q135 0 195.5 -64t60.5 -200zM511 264q0 59 -11.5 101.5t-37 69.5t-66.5 40t-101 13t-101 -13t-66.5 -40t-36.5 -69.5t-11 -101.5t11 -101.5t36.5 -69.5t66.5 -40t101 -13t101 13
t66.5 40t37 69.5t11.5 101.5zM330 623q0 8 6 14.5t15 6.5q8 0 14.5 -6.5t6.5 -14.5q0 -9 -6.5 -15t-14.5 -6q-9 0 -15 6t-6 15zM228 623q0 8 6 14.5t15 6.5q8 0 14.5 -6.5t6.5 -14.5q0 -9 -6.5 -15t-14.5 -6q-9 0 -15 6t-6 15z" />
    <glyph glyph-name="divide" unicode="&#xf7;" horiz-adv-x="570" 
d="M306 490v-64h-42v64h42zM541 369v-36h-510v36h510zM306 275v-63h-42v63h42z" />
    <glyph glyph-name="oslash" unicode="&#xf8;" horiz-adv-x="591" 
d="M551 264q0 -136 -60.5 -200t-195.5 -64q-134 0 -194.5 64t-60.5 200t60.5 200t194.5 64q135 0 195.5 -64t60.5 -200zM511 264q0 59 -11.5 101.5t-37 69.5t-66.5 40t-101 13t-101 -13t-66.5 -40t-36.5 -69.5t-11 -101.5t11 -101.5t36.5 -69.5t66.5 -40t101 -13t101 13
t66.5 40t37 69.5t11.5 101.5zM446 600l-252 -700h-46l254 700h44z" />
    <glyph glyph-name="ugrave" unicode="&#xf9;" 
d="M533 528h42v-266q0 -133 -61.5 -197.5t-196.5 -64.5q-78 0 -128 19.5t-78.5 57t-39.5 92.5t-11 126v233h42v-265q0 -58 11 -100t36.5 -69.5t66.5 -40.5t101 -13q59 0 100 13t67 40t37.5 69t11.5 100v266zM275 690h49l29 -88h-36z" />
    <glyph glyph-name="uacute" unicode="&#xfa;" 
d="M533 528h42v-266q0 -133 -61.5 -197.5t-196.5 -64.5q-78 0 -128 19.5t-78.5 57t-39.5 92.5t-11 126v233h42v-265q0 -58 11 -100t36.5 -69.5t66.5 -40.5t101 -13q59 0 100 13t67 40t37.5 69t11.5 100v266zM281 600l30 88h48l-42 -88h-36z" />
    <glyph glyph-name="ucircumflex" unicode="&#xfb;" 
d="M533 528h42v-266q0 -133 -61.5 -197.5t-196.5 -64.5q-78 0 -128 19.5t-78.5 57t-39.5 92.5t-11 126v233h42v-265q0 -58 11 -100t36.5 -69.5t66.5 -40.5t101 -13q59 0 100 13t67 40t37.5 69t11.5 100v266zM324 749q42 -54 70.5 -88.5t45.5 -54.5q20 -24 32 -35h-35
q-13 11 -32 31t-37 40q-21 24 -44 50q-24 -26 -47 -50q-20 -20 -41 -40t-37 -31h-35q15 11 38 35q20 20 50 54.5t72 88.5z" />
    <glyph glyph-name="udieresis" unicode="&#xfc;" 
d="M533 528h42v-266q0 -133 -61.5 -197.5t-196.5 -64.5q-78 0 -128 19.5t-78.5 57t-39.5 92.5t-11 126v233h42v-265q0 -58 11 -100t36.5 -69.5t66.5 -40.5t101 -13q59 0 100 13t67 40t37.5 69t11.5 100v266zM364 679q0 8 6 14.5t15 6.5q8 0 14.5 -6.5t6.5 -14.5
q0 -9 -6.5 -15t-14.5 -6q-9 0 -15 6t-6 15zM262 679q0 8 6 14.5t15 6.5q8 0 14.5 -6.5t6.5 -14.5q0 -9 -6.5 -15t-14.5 -6q-9 0 -15 6t-6 15z" />
    <glyph glyph-name="yacute" unicode="&#xfd;" horiz-adv-x="545" 
d="M520 528q-8 -19 -22 -52.5t-32 -76.5t-39.5 -93t-44.5 -102t-47 -103.5t-47 -97.5q-9 -18 -23.5 -45.5t-31 -54.5t-34 -49t-32.5 -31q-19 -11 -36 -15.5t-33.5 -6t-32.5 -1.5h-33v43q17 0 32 -0.5t29 0.5t27.5 5t28.5 15q9 6 23.5 25.5t28.5 43t26 45.5t18 34l-221 517
h46l199 -470l206 470h45zM249 600l30 88h48l-42 -88h-36z" />
    <glyph glyph-name="thorn" unicode="&#xfe;" horiz-adv-x="611" 
d="M103 408q13 36 33.5 59t47.5 36.5t60.5 18.5t71.5 5q53 0 99 -10.5t80.5 -40t54.5 -81t20 -132.5t-19.5 -132.5t-54 -80.5t-80.5 -39.5t-100 -10.5q-38 0 -71.5 5t-60.5 18.5t-47.5 36.5t-33.5 59v-252h-42v782h42v-241zM316 485q-58 0 -99 -12.5t-66 -39.5t-36.5 -69
t-11.5 -101q0 -113 49 -168t163 -55q63 0 104 14t65 41.5t34 69.5t10 98q0 59 -11.5 101t-36.5 69t-65.5 39.5t-98.5 12.5z" />
    <glyph glyph-name="ydieresis" unicode="&#xff;" horiz-adv-x="545" 
d="M520 528q-8 -19 -22 -52.5t-32 -76.5t-39.5 -93t-44.5 -102t-47 -103.5t-47 -97.5q-9 -18 -23.5 -45.5t-31 -54.5t-34 -49t-32.5 -31q-19 -11 -36 -15.5t-33.5 -6t-32.5 -1.5h-33v43q17 0 32 -0.5t29 0.5t27.5 5t28.5 15q9 6 23.5 25.5t28.5 43t26 45.5t18 34l-221 517
h46l199 -470l206 470h45zM319 623q0 8 6 14.5t15 6.5q8 0 14.5 -6.5t6.5 -14.5q0 -9 -6.5 -15t-14.5 -6q-9 0 -15 6t-6 15zM217 623q0 8 6 14.5t15 6.5q8 0 14.5 -6.5t6.5 -14.5q0 -9 -6.5 -15t-14.5 -6q-9 0 -15 6t-6 15z" />
    <glyph glyph-name="Amacron" unicode="&#x100;" horiz-adv-x="583" 
d="M316 700l261 -700h-45l-107 288h-267l-107 -288h-45l261 700h49zM172 324h239l-119 322zM92 900h400v-36h-400v36z" />
    <glyph glyph-name="amacron" unicode="&#x101;" horiz-adv-x="612" 
d="M551 0h-42v87q-35 -51 -90.5 -69t-122.5 -18q-53 0 -99.5 10.5t-81.5 40t-55 81t-20 132.5t20 132.5t55 81t81.5 40t99.5 10.5t99.5 -10.5t81 -40t54.5 -81t20 -132.5v-264zM296 488q-59 0 -100.5 -13t-67 -40t-37 -69.5t-11.5 -101.5t11.5 -101.5t37 -69.5t67 -40
t100.5 -13t100 13t66.5 40t37 69.5t11.5 101.5t-11.5 101.5t-37 69.5t-66.5 40t-100 13zM106 654h400v-36h-400v36z" />
    <glyph glyph-name="Abreve" unicode="&#x102;" horiz-adv-x="583" 
d="M316 700l261 -700h-45l-107 288h-267l-107 -288h-45l261 700h49zM172 324h239l-119 322zM383 861q0 -45 -23.5 -68.5t-68.5 -23.5q-44 0 -67.5 23.5t-23.5 68.5h30q0 -32 14.5 -46.5t46.5 -14.5q62 0 62 61h30z" />
    <glyph glyph-name="abreve" unicode="&#x103;" horiz-adv-x="592" 
d="M551 0h-42v87q-35 -51 -90.5 -69t-122.5 -18q-53 0 -99.5 10.5t-81.5 40t-55 81t-20 132.5t20 132.5t55 81t81.5 40t99.5 10.5t99.5 -10.5t81 -40t54.5 -81t20 -132.5v-264zM296 488q-59 0 -100.5 -13t-67 -40t-37 -69.5t-11.5 -101.5t11.5 -101.5t37 -69.5t67 -40
t100.5 -13t100 13t66.5 40t37 69.5t11.5 101.5t-11.5 101.5t-37 69.5t-66.5 40t-100 13zM397 700q0 -45 -23.5 -68.5t-68.5 -23.5q-44 0 -67.5 23.5t-23.5 68.5h30q0 -32 14.5 -46.5t46.5 -14.5q62 0 62 61h30z" />
    <glyph glyph-name="Aogonek" unicode="&#x104;" horiz-adv-x="583" 
d="M316 700l261 -700h-45l-107 288h-267l-107 -288h-45l261 700h49zM172 324h239l-119 322zM563 1q-20 -7 -34 -15q-13 -7 -22.5 -16t-6.5 -19q3 -8 17 -8q11 0 25 4t22 7v-35q-7 -2 -18.5 -4.5t-25.5 -2.5q-16 0 -29.5 5.5t-17.5 22.5q-5 23 8 38t30 25q20 11 48 17z" />
    <glyph glyph-name="aogonek" unicode="&#x105;" horiz-adv-x="612" 
d="M551 0h-42v87q-35 -51 -90.5 -69t-122.5 -18q-53 0 -99.5 10.5t-81.5 40t-55 81t-20 132.5t20 132.5t55 81t81.5 40t99.5 10.5t99.5 -10.5t81 -40t54.5 -81t20 -132.5v-264zM296 488q-59 0 -100.5 -13t-67 -40t-37 -69.5t-11.5 -101.5t11.5 -101.5t37 -69.5t67 -40
t100.5 -13t100 13t66.5 40t37 69.5t11.5 101.5t-11.5 101.5t-37 69.5t-66.5 40t-100 13zM543 1q-20 -7 -34 -15q-13 -7 -22.5 -16t-6.5 -19q3 -8 17 -8q11 0 25 4t22 7v-35q-7 -2 -18.5 -4.5t-25.5 -2.5q-16 0 -29.5 5.5t-17.5 22.5q-5 23 8 38t30 25q20 11 48 17z" />
    <glyph glyph-name="Cacute" unicode="&#x106;" horiz-adv-x="598" 
d="M557 171q-15 -48 -39 -80.5t-56.5 -53t-73 -29t-88.5 -8.5q-85 0 -139 26.5t-85.5 73.5t-43.5 111t-12 139t12 139t43.5 111t85.5 73.5t139 26.5q48 0 88.5 -9t73.5 -29t57 -53.5t39 -81.5h-44q-12 35 -34 59.5t-50.5 40.5t-61.5 23.5t-68 7.5q-75 0 -122 -23.5
t-72.5 -65t-34.5 -98t-9 -121.5t9 -121.5t34.5 -98t72.5 -65t122 -23.5q38 0 71 6t60 20.5t47.5 39.5t34.5 63h44zM276 774l30 88h48l-42 -88h-36z" />
    <glyph glyph-name="cacute" unicode="&#x107;" horiz-adv-x="581" 
d="M540 159q-12 -47 -35 -77.5t-54.5 -48.5t-70.5 -25.5t-84 -7.5q-53 0 -99.5 10.5t-81 40t-54.5 81t-20 132.5t20 132.5t54.5 81t81 40t99.5 10.5q46 0 86 -7.5t71.5 -26.5t54 -51t33.5 -80h-41q-10 39 -29.5 63t-46 38t-59 19t-69.5 5q-59 0 -100 -13t-66.5 -40
t-37 -69.5t-11.5 -101.5t11.5 -101.5t37 -69.5t66.5 -40t100 -13q36 0 68 5t58 18t45.5 36t30.5 60h42zM277 580l30 88h48l-42 -88h-36z" />
    <glyph glyph-name="Ccircumflex" unicode="&#x108;" horiz-adv-x="598" 
d="M557 171q-15 -48 -39 -80.5t-56.5 -53t-73 -29t-88.5 -8.5q-85 0 -139 26.5t-85.5 73.5t-43.5 111t-12 139t12 139t43.5 111t85.5 73.5t139 26.5q48 0 88.5 -9t73.5 -29t57 -53.5t39 -81.5h-44q-12 35 -34 59.5t-50.5 40.5t-61.5 23.5t-68 7.5q-75 0 -122 -23.5
t-72.5 -65t-34.5 -98t-9 -121.5t9 -121.5t34.5 -98t72.5 -65t122 -23.5q38 0 71 6t60 20.5t47.5 39.5t34.5 63h44zM309 940q42 -54 70.5 -88.5t45.5 -54.5q20 -24 32 -35h-35q-13 11 -32 31t-37 40q-21 24 -44 50q-24 -26 -47 -50q-20 -20 -41 -40t-37 -31h-35q15 11 38 35
q20 20 50 54.5t72 88.5z" />
    <glyph glyph-name="ccircumflex" unicode="&#x109;" horiz-adv-x="581" 
d="M540 159q-12 -47 -35 -77.5t-54.5 -48.5t-70.5 -25.5t-84 -7.5q-53 0 -99.5 10.5t-81 40t-54.5 81t-20 132.5t20 132.5t54.5 81t81 40t99.5 10.5q46 0 86 -7.5t71.5 -26.5t54 -51t33.5 -80h-41q-10 39 -29.5 63t-46 38t-59 19t-69.5 5q-59 0 -100 -13t-66.5 -40
t-37 -69.5t-11.5 -101.5t11.5 -101.5t37 -69.5t66.5 -40t100 -13q36 0 68 5t58 18t45.5 36t30.5 60h42zM300 730q42 -54 70.5 -88.5t45.5 -54.5q20 -24 32 -35h-35q-13 11 -32 31t-37 40q-21 24 -44 50q-24 -26 -47 -50q-20 -20 -41 -40t-37 -31h-35q15 11 38 35
q20 20 50 54.5t72 88.5z" />
    <glyph glyph-name="Cdotaccent" unicode="&#x10a;" horiz-adv-x="598" 
d="M557 171q-15 -48 -39 -80.5t-56.5 -53t-73 -29t-88.5 -8.5q-85 0 -139 26.5t-85.5 73.5t-43.5 111t-12 139t12 139t43.5 111t85.5 73.5t139 26.5q48 0 88.5 -9t73.5 -29t57 -53.5t39 -81.5h-44q-12 35 -34 59.5t-50.5 40.5t-61.5 23.5t-68 7.5q-75 0 -122 -23.5
t-72.5 -65t-34.5 -98t-9 -121.5t9 -121.5t34.5 -98t72.5 -65t122 -23.5q38 0 71 6t60 20.5t47.5 39.5t34.5 63h44zM322 790q0 -9 -6.5 -15t-14.5 -6q-9 0 -15 6t-6 15q0 8 6 14.5t15 6.5q8 0 14.5 -6.5t6.5 -14.5z" />
    <glyph glyph-name="cdotaccent" unicode="&#x10b;" horiz-adv-x="581" 
d="M540 159q-12 -47 -35 -77.5t-54.5 -48.5t-70.5 -25.5t-84 -7.5q-53 0 -99.5 10.5t-81 40t-54.5 81t-20 132.5t20 132.5t54.5 81t81 40t99.5 10.5q46 0 86 -7.5t71.5 -26.5t54 -51t33.5 -80h-41q-10 39 -29.5 63t-46 38t-59 19t-69.5 5q-59 0 -100 -13t-66.5 -40
t-37 -69.5t-11.5 -101.5t11.5 -101.5t37 -69.5t66.5 -40t100 -13q36 0 68 5t58 18t45.5 36t30.5 60h42zM318 599q0 -9 -6.5 -15t-14.5 -6q-9 0 -15 6t-6 15q0 8 6 14.5t15 6.5q8 0 14.5 -6.5t6.5 -14.5z" />
    <glyph glyph-name="Ccaron" unicode="&#x10c;" horiz-adv-x="598" 
d="M557 171q-15 -48 -39 -80.5t-56.5 -53t-73 -29t-88.5 -8.5q-85 0 -139 26.5t-85.5 73.5t-43.5 111t-12 139t12 139t43.5 111t85.5 73.5t139 26.5q48 0 88.5 -9t73.5 -29t57 -53.5t39 -81.5h-44q-12 35 -34 59.5t-50.5 40.5t-61.5 23.5t-68 7.5q-75 0 -122 -23.5
t-72.5 -65t-34.5 -98t-9 -121.5t9 -121.5t34.5 -98t72.5 -65t122 -23.5q38 0 71 6t60 20.5t47.5 39.5t34.5 63h44zM427 926q-10 -10 -26 -29q-14 -17 -38 -46t-59 -75q-35 46 -60.5 75t-42.5 46q-19 19 -32 29h29q14 -9 32 -26t35 -34q19 -20 39 -42q19 22 37 42
q15 17 30.5 34t26.5 26h29z" />
    <glyph glyph-name="ccaron" unicode="&#x10d;" horiz-adv-x="581" 
d="M540 159q-12 -47 -35 -77.5t-54.5 -48.5t-70.5 -25.5t-84 -7.5q-53 0 -99.5 10.5t-81 40t-54.5 81t-20 132.5t20 132.5t54.5 81t81 40t99.5 10.5q46 0 86 -7.5t71.5 -26.5t54 -51t33.5 -80h-41q-10 39 -29.5 63t-46 38t-59 19t-69.5 5q-59 0 -100 -13t-66.5 -40
t-37 -69.5t-11.5 -101.5t11.5 -101.5t37 -69.5t66.5 -40t100 -13q36 0 68 5t58 18t45.5 36t30.5 60h42zM419 770q-10 -10 -26 -29q-14 -17 -38 -46t-59 -75q-35 46 -60.5 75t-42.5 46q-19 19 -32 29h29q14 -9 32 -26t35 -34q19 -20 39 -42q19 22 37 42q15 17 30.5 34
t26.5 26h29z" />
    <glyph glyph-name="Dcaron" unicode="&#x10e;" horiz-adv-x="661" 
d="M369 700q78 -3 127 -32.5t76.5 -77t37.5 -109.5t10 -131q0 -66 -11 -129t-39.5 -112t-78 -78.5t-126.5 -29.5q-76 -1 -152 -1h-152v700h308zM103 42h241q74 0 120 24t71.5 66t34 98t8.5 120t-8.5 120t-34 97.5t-71.5 65.5t-120 24h-241v-615zM398 914q-10 -10 -26 -29
q-14 -17 -38 -46t-59 -75q-35 46 -60.5 75t-42.5 46q-19 19 -32 29h29q14 -9 32 -26t35 -34q19 -20 39 -42q19 22 37 42q15 17 30.5 34t26.5 26h29z" />
    <glyph glyph-name="dcaron" unicode="&#x10f;" horiz-adv-x="737" 
d="M508 700h42v-698h-42v117q-13 -36 -33.5 -59t-47.5 -36.5t-60 -18.5t-71 -5q-53 0 -99.5 10.5t-81 40t-54.5 80.5t-20 132t20 132.5t54.5 81t81 40t99.5 10.5q38 0 71 -5t60 -18.5t47.5 -36.5t33.5 -59v292zM296 485q-58 0 -99 -12.5t-66 -39.5t-36.5 -69t-11.5 -101
q0 -56 10 -98t34 -69.5t65 -41.5t104 -14q114 0 163 55t49 168q0 59 -11.5 101t-36.5 69t-65.5 39.5t-98.5 12.5zM635 699h42l-20 -63h-36z" />
    <glyph glyph-name="Dcroat" unicode="&#x110;" horiz-adv-x="722" 
d="M430 700q78 -3 127 -32.5t76.5 -77t37.5 -109.5t10 -131q0 -66 -11 -129t-39.5 -112t-78 -78.5t-126.5 -29.5q-76 -1 -152 -1h-152v700h308zM164 42h241q74 0 120 24t71.5 66t34 98t8.5 120t-8.5 120t-34 97.5t-71.5 65.5t-120 24h-241v-615zM61 418h510v-36h-510v36z
" />
    <glyph glyph-name="dcroat" unicode="&#x111;" horiz-adv-x="610" 
d="M508 700h42v-698h-42v117q-13 -36 -33.5 -59t-47.5 -36.5t-60 -18.5t-71 -5q-53 0 -99.5 10.5t-81 40t-54.5 80.5t-20 132t20 132.5t54.5 81t81 40t99.5 10.5q38 0 71 -5t60 -18.5t47.5 -36.5t33.5 -59v292zM296 485q-58 0 -99 -12.5t-66 -39.5t-36.5 -69t-11.5 -101
q0 -56 10 -98t34 -69.5t65 -41.5t104 -14q114 0 163 55t49 168q0 59 -11.5 101t-36.5 69t-65.5 39.5t-98.5 12.5zM210 619h400v-36h-400v36z" />
    <glyph glyph-name="Emacron" unicode="&#x112;" horiz-adv-x="600" 
d="M541 700v-36h-438v-340h398v-36h-398v-252h438v-36h-480v700h480zM101 827h400v-36h-400v36z" />
    <glyph glyph-name="emacron" unicode="&#x113;" horiz-adv-x="590" 
d="M295 528q73 0 123 -19t80 -55t42 -89.5t8 -122.5h-467q4 -111 58.5 -156.5t155.5 -45.5q36 0 68 4.5t58 17.5t45 36t30 60h41q-12 -46 -34.5 -76.5t-53.5 -48.5t-70 -25.5t-84 -7.5q-53 0 -99.5 10.5t-81 40t-54.5 80.5t-20 132t20 132.5t55 81t81.5 40.5t98.5 11z
M297 486q-55 0 -95.5 -11.5t-67.5 -36.5t-40.5 -64.5t-13.5 -95.5h429q0 112 -51 160t-161 48zM96 622h400v-36h-400v36z" />
    <glyph glyph-name="Ebreve" unicode="&#x114;" horiz-adv-x="600" 
d="M541 700v-36h-438v-340h398v-36h-398v-252h438v-36h-480v700h480zM390 877q0 -45 -23.5 -68.5t-68.5 -23.5q-44 0 -67.5 23.5t-23.5 68.5h30q0 -32 14.5 -46.5t46.5 -14.5q62 0 62 61h30z" />
    <glyph glyph-name="ebreve" unicode="&#x115;" horiz-adv-x="590" 
d="M295 528q73 0 123 -19t80 -55t42 -89.5t8 -122.5h-467q4 -111 58.5 -156.5t155.5 -45.5q36 0 68 4.5t58 17.5t45 36t30 60h41q-12 -46 -34.5 -76.5t-53.5 -48.5t-70 -25.5t-84 -7.5q-53 0 -99.5 10.5t-81 40t-54.5 80.5t-20 132t20 132.5t55 81t81.5 40.5t98.5 11z
M297 486q-55 0 -95.5 -11.5t-67.5 -36.5t-40.5 -64.5t-13.5 -95.5h429q0 112 -51 160t-161 48zM387 681q0 -45 -23.5 -68.5t-68.5 -23.5q-44 0 -67.5 23.5t-23.5 68.5h30q0 -32 14.5 -46.5t46.5 -14.5q62 0 62 61h30z" />
    <glyph glyph-name="Edotaccent" unicode="&#x116;" horiz-adv-x="600" 
d="M541 700v-36h-438v-340h398v-36h-398v-252h438v-36h-480v700h480zM322 793q0 -9 -6.5 -15t-14.5 -6q-9 0 -15 6t-6 15q0 8 6 14.5t15 6.5q8 0 14.5 -6.5t6.5 -14.5z" />
    <glyph glyph-name="edotaccent" unicode="&#x117;" horiz-adv-x="590" 
d="M295 528q73 0 123 -19t80 -55t42 -89.5t8 -122.5h-467q4 -111 58.5 -156.5t155.5 -45.5q36 0 68 4.5t58 17.5t45 36t30 60h41q-12 -46 -34.5 -76.5t-53.5 -48.5t-70 -25.5t-84 -7.5q-53 0 -99.5 10.5t-81 40t-54.5 80.5t-20 132t20 132.5t55 81t81.5 40.5t98.5 11z
M297 486q-55 0 -95.5 -11.5t-67.5 -36.5t-40.5 -64.5t-13.5 -95.5h429q0 112 -51 160t-161 48zM318 619q0 -9 -6.5 -15t-14.5 -6q-9 0 -15 6t-6 15q0 8 6 14.5t15 6.5q8 0 14.5 -6.5t6.5 -14.5z" />
    <glyph glyph-name="Eogonek" unicode="&#x118;" horiz-adv-x="600" 
d="M541 700v-36h-438v-340h398v-36h-398v-252h438v-36h-480v700h480zM540 9l-31 -47q13 -9 20.5 -22t7.5 -29q0 -30 -20.5 -50t-50.5 -20q-16 0 -31 9.5t-15 27.5q0 8 5 13.5t13 5.5t13 -5t9 -10.5t8.5 -10.5t11.5 -5q11 0 17 10t6 20q0 17 -11 26t-25 14l51 73h22z" />
    <glyph glyph-name="eogonek" unicode="&#x119;" horiz-adv-x="590" 
d="M295 528q73 0 123 -19t80 -55t42 -89.5t8 -122.5h-467q4 -111 58.5 -156.5t155.5 -45.5q36 0 68 4.5t58 17.5t45 36t30 60h41q-12 -46 -34.5 -76.5t-53.5 -48.5t-70 -25.5t-84 -7.5q-53 0 -99.5 10.5t-81 40t-54.5 80.5t-20 132t20 132.5t55 81t81.5 40.5t98.5 11z
M297 486q-55 0 -95.5 -11.5t-67.5 -36.5t-40.5 -64.5t-13.5 -95.5h429q0 112 -51 160t-161 48zM347 5q-20 -7 -34 -15q-13 -7 -22.5 -16t-6.5 -19q3 -8 17 -8q11 0 25 4t22 7v-35q-7 -2 -18.5 -4.5t-25.5 -2.5q-16 0 -29.5 5.5t-17.5 22.5q-5 23 8 38t30 25q20 11 48 17z
" />
    <glyph glyph-name="Ecaron" unicode="&#x11a;" horiz-adv-x="600" 
d="M541 700v-36h-438v-340h398v-36h-398v-252h438v-36h-480v700h480zM429 914q-10 -10 -26 -29q-14 -17 -38 -46t-59 -75q-35 46 -60.5 75t-42.5 46q-19 19 -32 29h29q14 -9 32 -26t35 -34q19 -20 39 -42q19 22 37 42q15 17 30.5 34t26.5 26h29z" />
    <glyph glyph-name="ecaron" unicode="&#x11b;" horiz-adv-x="590" 
d="M295 528q73 0 123 -19t80 -55t42 -89.5t8 -122.5h-467q4 -111 58.5 -156.5t155.5 -45.5q36 0 68 4.5t58 17.5t45 36t30 60h41q-12 -46 -34.5 -76.5t-53.5 -48.5t-70 -25.5t-84 -7.5q-53 0 -99.5 10.5t-81 40t-54.5 80.5t-20 132t20 132.5t55 81t81.5 40.5t98.5 11z
M297 486q-55 0 -95.5 -11.5t-67.5 -36.5t-40.5 -64.5t-13.5 -95.5h429q0 112 -51 160t-161 48zM425 766q-10 -10 -26 -29q-14 -17 -38 -46t-59 -75q-35 46 -60.5 75t-42.5 46q-19 19 -32 29h29q14 -9 32 -26t35 -34q19 -20 39 -42q19 22 37 42q15 17 30.5 34t26.5 26h29z
" />
    <glyph glyph-name="Gcircumflex" unicode="&#x11c;" horiz-adv-x="618" 
d="M301 324h274v-155q0 -9 -4.5 -20.5t-11 -23.5t-13.5 -23t-13 -19q-18 -24 -43 -40t-53 -25.5t-58 -13.5t-59 -4q-84 0 -138 26t-85.5 72.5t-44 111t-12.5 140.5t12.5 140.5t44 111t85.5 72.5t138 26q86 0 147.5 -29.5t95.5 -103.5q4 -9 7.5 -19t7.5 -21h-44
q-14 38 -34.5 63.5t-47.5 40.5t-60 21t-72 6q-75 0 -122 -23.5t-72.5 -65t-34.5 -98t-9 -121.5t9 -121.5t34.5 -98t72.5 -65t122 -23.5q76 0 130.5 26.5t82.5 101.5v118h-232v36zM326 930q42 -54 70.5 -88.5t45.5 -54.5q20 -24 32 -35h-35q-13 11 -32 31t-37 40
q-21 24 -44 50q-24 -26 -47 -50q-20 -20 -41 -40t-37 -31h-35q15 11 38 35q20 20 50 54.5t72 88.5z" />
    <glyph glyph-name="gcircumflex" unicode="&#x11d;" horiz-adv-x="605" 
d="M504 521h41v-513q0 -71 -20.5 -116t-55.5 -71t-80 -36t-95 -10q-63 0 -105 12t-68 31.5t-40.5 45.5t-23.5 53h42q11 -30 30 -49.5t44.5 -31t56 -16t64.5 -4.5q63 0 105.5 13t67 46.5t33 91.5t3.5 148q-11 -32 -31 -54t-47.5 -36t-61 -20t-70.5 -6q-62 0 -109.5 18.5
t-79 53t-47.5 83t-16 107.5q0 80 21 131t56 79.5t80.5 39t94.5 10.5q29 0 61 -7t61.5 -22t53 -39.5t35.5 -59.5v128zM507 261q0 101 -53 160.5t-156 59.5q-109 0 -161 -55t-52 -166q0 -46 10.5 -86t35 -69.5t64.5 -46.5t98 -17q115 0 164.5 54t49.5 166zM315 749
q42 -54 70.5 -88.5t45.5 -54.5q20 -24 32 -35h-35q-13 11 -32 31t-37 40q-21 24 -44 50q-24 -26 -47 -50q-20 -20 -41 -40t-37 -31h-35q15 11 38 35q20 20 50 54.5t72 88.5z" />
    <glyph glyph-name="Gbreve" unicode="&#x11e;" horiz-adv-x="618" 
d="M301 324h274v-155q0 -9 -4.5 -20.5t-11 -23.5t-13.5 -23t-13 -19q-18 -24 -43 -40t-53 -25.5t-58 -13.5t-59 -4q-84 0 -138 26t-85.5 72.5t-44 111t-12.5 140.5t12.5 140.5t44 111t85.5 72.5t138 26q86 0 147.5 -29.5t95.5 -103.5q4 -9 7.5 -19t7.5 -21h-44
q-14 38 -34.5 63.5t-47.5 40.5t-60 21t-72 6q-75 0 -122 -23.5t-72.5 -65t-34.5 -98t-9 -121.5t9 -121.5t34.5 -98t72.5 -65t122 -23.5q76 0 130.5 26.5t82.5 101.5v118h-232v36zM413 856q0 -45 -23.5 -68.5t-68.5 -23.5q-44 0 -67.5 23.5t-23.5 68.5h30q0 -32 14.5 -46.5
t46.5 -14.5q62 0 62 61h30z" />
    <glyph glyph-name="gbreve" unicode="&#x11f;" horiz-adv-x="605" 
d="M504 521h41v-513q0 -71 -20.5 -116t-55.5 -71t-80 -36t-95 -10q-63 0 -105 12t-68 31.5t-40.5 45.5t-23.5 53h42q11 -30 30 -49.5t44.5 -31t56 -16t64.5 -4.5q63 0 105.5 13t67 46.5t33 91.5t3.5 148q-11 -32 -31 -54t-47.5 -36t-61 -20t-70.5 -6q-62 0 -109.5 18.5
t-79 53t-47.5 83t-16 107.5q0 80 21 131t56 79.5t80.5 39t94.5 10.5q29 0 61 -7t61.5 -22t53 -39.5t35.5 -59.5v128zM507 261q0 101 -53 160.5t-156 59.5q-109 0 -161 -55t-52 -166q0 -46 10.5 -86t35 -69.5t64.5 -46.5t98 -17q115 0 164.5 54t49.5 166zM397 700
q0 -45 -23.5 -68.5t-68.5 -23.5q-44 0 -67.5 23.5t-23.5 68.5h30q0 -32 14.5 -46.5t46.5 -14.5q62 0 62 61h30z" />
    <glyph glyph-name="Gdotaccent" unicode="&#x120;" horiz-adv-x="618" 
d="M301 324h274v-155q0 -9 -4.5 -20.5t-11 -23.5t-13.5 -23t-13 -19q-18 -24 -43 -40t-53 -25.5t-58 -13.5t-59 -4q-84 0 -138 26t-85.5 72.5t-44 111t-12.5 140.5t12.5 140.5t44 111t85.5 72.5t138 26q86 0 147.5 -29.5t95.5 -103.5q4 -9 7.5 -19t7.5 -21h-44
q-14 38 -34.5 63.5t-47.5 40.5t-60 21t-72 6q-75 0 -122 -23.5t-72.5 -65t-34.5 -98t-9 -121.5t9 -121.5t34.5 -98t72.5 -65t122 -23.5q76 0 130.5 26.5t82.5 101.5v118h-232v36zM342 798q0 -9 -6.5 -15t-14.5 -6q-9 0 -15 6t-6 15q0 8 6 14.5t15 6.5q8 0 14.5 -6.5
t6.5 -14.5z" />
    <glyph glyph-name="gdotaccent" unicode="&#x121;" horiz-adv-x="605" 
d="M504 521h41v-513q0 -71 -20.5 -116t-55.5 -71t-80 -36t-95 -10q-63 0 -105 12t-68 31.5t-40.5 45.5t-23.5 53h42q11 -30 30 -49.5t44.5 -31t56 -16t64.5 -4.5q63 0 105.5 13t67 46.5t33 91.5t3.5 148q-11 -32 -31 -54t-47.5 -36t-61 -20t-70.5 -6q-62 0 -109.5 18.5
t-79 53t-47.5 83t-16 107.5q0 80 21 131t56 79.5t80.5 39t94.5 10.5q29 0 61 -7t61.5 -22t53 -39.5t35.5 -59.5v128zM507 261q0 101 -53 160.5t-156 59.5q-109 0 -161 -55t-52 -166q0 -46 10.5 -86t35 -69.5t64.5 -46.5t98 -17q115 0 164.5 54t49.5 166zM321 639
q0 -9 -6.5 -15t-14.5 -6q-9 0 -15 6t-6 15q0 8 6 14.5t15 6.5q8 0 14.5 -6.5t6.5 -14.5z" />
    <glyph glyph-name="uni0122" unicode="&#x122;" horiz-adv-x="618" 
d="M575 324v-155q0 -9 -4.5 -20.5t-11 -23.5t-13.5 -23t-13 -19q-30 -39 -75.5 -57.5t-93.5 -23.5l-25 -40q13 -9 20.5 -21.5t7.5 -29.5q0 -30 -20.5 -50t-50.5 -20q-17 0 -32 9.5t-15 27.5t19 18q8 0 12.5 -4.5t9 -10.5t9 -10.5t11.5 -4.5q11 0 16.5 10t5.5 20q0 17 -11 26
t-25 14l45 65q-5 -1 -10.5 -1h-10.5q-84 0 -138 26t-85.5 72.5t-44 111t-12.5 140.5t12.5 140.5t44 111t85.5 72.5t138 26q48 0 89.5 -9.5t74 -30t56.5 -53.5t38 -80h-44q-14 38 -34.5 63.5t-47.5 40.5t-60 21t-72 6q-75 0 -122 -23.5t-72.5 -65t-34.5 -98t-9 -121.5
t9 -121.5t34.5 -98t72.5 -65t122 -23.5q76 0 130.5 26.5t82.5 101.5v118h-232v36h274z" />
    <glyph glyph-name="uni0123" unicode="&#x123;" horiz-adv-x="605" 
d="M504 521h41v-513q0 -71 -20.5 -116t-55.5 -71t-80 -36t-95 -10q-63 0 -105 12t-68 31.5t-40.5 45.5t-23.5 53h42q11 -30 30 -49.5t44.5 -31t56 -16t64.5 -4.5q63 0 105.5 13t67 46.5t33 91.5t3.5 148q-11 -32 -31 -54t-47.5 -36t-61 -20t-70.5 -6q-62 0 -109.5 18.5
t-79 53t-47.5 83t-16 107.5q0 80 21 131t56 79.5t80.5 39t94.5 10.5q29 0 61 -7t61.5 -22t53 -39.5t35.5 -59.5v128zM507 261q0 101 -53 160.5t-156 59.5q-109 0 -161 -55t-52 -166q0 -46 10.5 -86t35 -69.5t64.5 -46.5t98 -17q115 0 164.5 54t49.5 166zM325 597h-36l-20 63
h42z" />
    <glyph glyph-name="Hcircumflex" unicode="&#x124;" horiz-adv-x="681" 
d="M621 700v-700h-42v288h-476v-288h-42v700h42v-376h476v376h42zM347 927q42 -54 70.5 -88.5t45.5 -54.5q20 -24 32 -35h-35q-13 11 -32 31t-37 40q-21 24 -44 50q-24 -26 -47 -50q-20 -20 -41 -40t-37 -31h-35q15 11 38 35q20 20 50 54.5t72 88.5z" />
    <glyph glyph-name="hcircumflex" unicode="&#x125;" horiz-adv-x="630" 
d="M527 0v292q-3 54 -16 91.5t-38.5 60.5t-64.5 33.5t-94 10.5q-45 0 -83.5 -8t-67 -27t-45 -50.5t-16.5 -77.5v-324h-42v699h42v-289q14 37 36 60t50 35.5t60 17t66 4.5q60 0 102 -11.5t70.5 -30.5t45 -43.5t25 -50.5t10.5 -52t2 -48v-292h-42zM89 937q42 -54 70.5 -88.5
t45.5 -54.5q20 -24 32 -35h-35q-13 11 -32 31t-37 40q-21 24 -44 50q-24 -26 -47 -50q-20 -20 -41 -40t-37 -31h-35q15 11 38 35q20 20 50 54.5t72 88.5z" />
    <glyph glyph-name="Hbar" unicode="&#x126;" horiz-adv-x="721" 
d="M641 700v-200h21v-36h-21v-464h-42v288h-476v-288h-42v464h-19v36h19v200h42v-200h476v200h42zM599 324v140h-476v-140h476z" />
    <glyph glyph-name="hbar" unicode="&#x127;" horiz-adv-x="630" 
d="M527 0v292q-3 54 -16 91.5t-38.5 60.5t-64.5 33.5t-94 10.5q-45 0 -83.5 -8t-67 -27t-45 -50.5t-16.5 -77.5v-324h-42v699h42v-289q14 37 36 60t50 35.5t60 17t66 4.5q60 0 102 -11.5t70.5 -30.5t45 -43.5t25 -50.5t10.5 -52t2 -48v-292h-42zM-119 620h400v-36h-400v36z
" />
    <glyph glyph-name="Itilde" unicode="&#x128;" horiz-adv-x="101" 
d="M72 0h-42v700h42v-700zM-111 810q20 7 37.5 16t40.5 9t43 -8t40 -17.5t40 -17.5t42 -8q23 0 41 9.5t40 16.5v-33q-22 -7 -40 -16.5t-41 -9.5q-22 0 -42 8t-39.5 17.5t-39.5 17.5t-42 8q-23 0 -41 -9t-39 -16v33z" />
    <glyph glyph-name="itilde" unicode="&#x129;" horiz-adv-x="102" 
d="M30 0v528h42v-528h-42zM-110 642q20 7 37.5 16t40.5 9t43 -8t40 -17.5t40 -17.5t42 -8q23 0 41 9.5t40 16.5v-33q-22 -7 -40 -16.5t-41 -9.5q-22 0 -42 8t-39.5 17.5t-39.5 17.5t-42 8q-23 0 -41 -9t-39 -16v33z" />
    <glyph glyph-name="Imacron" unicode="&#x12a;" horiz-adv-x="101" 
d="M72 0h-42v700h42v-700zM-150 797h400v-36h-400v36z" />
    <glyph glyph-name="imacron" unicode="&#x12b;" horiz-adv-x="102" 
d="M30 0v528h42v-528h-42zM-148 613h400v-36h-400v36z" />
    <glyph glyph-name="Iogonek" unicode="&#x12e;" horiz-adv-x="162" 
d="M102 0h-42v700h42v-700zM100 0q-20 -7 -34 -15q-13 -7 -22.5 -16t-6.5 -19q3 -8 17 -8q11 0 25 4t22 7v-35q-7 -2 -18.5 -4.5t-25.5 -2.5q-16 0 -29.5 5.5t-17.5 22.5q-5 23 8 38t30 25q20 11 48 17z" />
    <glyph glyph-name="iogonek" unicode="&#x12f;" horiz-adv-x="163" 
d="M60 569v42h42v-42h-42zM60 0v528h42v-528h-42zM99 0q-20 -7 -34 -15q-13 -7 -22.5 -16t-6.5 -19q3 -8 17 -8q11 0 25 4t22 7v-35q-7 -2 -18.5 -4.5t-25.5 -2.5q-16 0 -29.5 5.5t-17.5 22.5q-5 23 8 38t30 25q20 11 48 17z" />
    <glyph glyph-name="Idotaccent" unicode="&#x130;" horiz-adv-x="162" 
d="M102 0h-42v700h42v-700zM102 771q0 -9 -6.5 -15t-14.5 -6q-9 0 -15 6t-6 15q0 8 6 14.5t15 6.5q8 0 14.5 -6.5t6.5 -14.5z" />
    <glyph glyph-name="dotlessi" unicode="&#x131;" horiz-adv-x="163" 
d="M60 0v528h42v-528h-42z" />
    <glyph glyph-name="IJ" unicode="&#x132;" horiz-adv-x="450" 
d="M102 0h-42v700h42v-700zM410 700v-467q0 -71 -20.5 -116t-54.5 -71t-79 -36t-95 -10v42q95 1 151 47t56 144v467h42z" />
    <glyph glyph-name="ij" unicode="&#x133;" horiz-adv-x="371" 
d="M110 569v42h42v-42h-42zM110 0v528h42v-528h-42zM267 610h42v-42h-42v42zM267 526h42q0 -69 0.5 -129.5t0.5 -119.5v-119.5v-129.5q0 -20 -2 -39t-5 -36q-16 -79 -82 -116t-161 -38v42q78 0 129 27q25 13 40.5 31t23.5 39t11 45t3 49v494z" />
    <glyph glyph-name="Jcircumflex" unicode="&#x134;" horiz-adv-x="309" 
d="M269 700v-467q0 -71 -20.5 -116t-54.5 -71t-79 -36t-95 -10v42q95 1 151 47t56 144v467h42zM255 928q42 -54 70.5 -88.5t45.5 -54.5q20 -24 32 -35h-35q-13 11 -32 31t-37 40q-21 24 -44 50q-24 -26 -47 -50q-20 -20 -41 -40t-37 -31h-35q15 11 38 35q20 20 50 54.5
t72 88.5z" />
    <glyph glyph-name="jcircumflex" unicode="&#x135;" horiz-adv-x="167" 
d="M63 610h42v-42h-42v42zM63 526h42q0 -69 0.5 -129.5t0.5 -119.5v-119.5v-129.5q0 -20 -2 -39t-5 -36q-16 -79 -82 -116t-161 -38v42q78 0 129 27q25 13 40.5 31t23.5 39t11 45t3 49v494zM91 838q42 -54 70.5 -88.5t45.5 -54.5q20 -24 32 -35h-35q-13 11 -32 31t-37 40
q-21 24 -44 50q-24 -26 -47 -50q-20 -20 -41 -40t-37 -31h-35q15 11 38 35q20 20 50 54.5t72 88.5z" />
    <glyph glyph-name="uni0136" unicode="&#x136;" horiz-adv-x="578" 
d="M61 700h42v-518l374 517h53l-271 -373l313 -326h-59l-279 291q-2 -2 -11.5 -15.5t-23 -32t-29 -40t-29.5 -41t-24.5 -34t-13.5 -18.5v-110h-42v700zM205 -137l30 88h48l-42 -88h-36z" />
    <glyph glyph-name="uni0137" unicode="&#x137;" horiz-adv-x="601" 
d="M102 700v-464l295 291h60l-203 -200l317 -327h-59l-288 297l-122 -120v-177h-42v700h42zM180 -137l30 88h48l-42 -88h-36z" />
    <glyph glyph-name="kgreenlandic" unicode="&#x138;" horiz-adv-x="601" 
d="M102 700v-464l295 291h60l-203 -200l317 -327h-59l-288 297l-122 -120v-177h-42v700h42z" />
    <glyph glyph-name="Lacute" unicode="&#x139;" horiz-adv-x="552" 
d="M176 750h-36l30 88h48zM541 0h-480v700h42v-664h438v-36z" />
    <glyph glyph-name="lacute" unicode="&#x13a;" horiz-adv-x="163" 
d="M103 0h-42v700h42v-700zM65 750l30 88h48l-42 -88h-36z" />
    <glyph glyph-name="uni013B" unicode="&#x13b;" horiz-adv-x="552" 
d="M541 0h-480v700h42v-664h438v-36zM225 -137l30 88h48l-42 -88h-36z" />
    <glyph glyph-name="uni013C" unicode="&#x13c;" horiz-adv-x="163" 
d="M103 0h-42v700h42v-700zM31 -138l30 88h48l-42 -88h-36z" />
    <glyph glyph-name="Lcaron" unicode="&#x13d;" horiz-adv-x="552" 
d="M541 0h-480v700h42v-664h438v-36zM165 700h42l-20 -63h-36z" />
    <glyph glyph-name="lcaron" unicode="&#x13e;" horiz-adv-x="306" 
d="M103 0h-42v700h42v-700zM203 699h42l-20 -63h-36z" />
    <glyph glyph-name="Ldot" unicode="&#x13f;" horiz-adv-x="552" 
d="M541 0h-480v700h42v-664h438v-36zM272 577q0 -9 -6.5 -15t-14.5 -6q-9 0 -15 6t-6 15q0 8 6 14.5t15 6.5q8 0 14.5 -6.5t6.5 -14.5z" />
    <glyph glyph-name="ldot" unicode="&#x140;" horiz-adv-x="163" 
d="M103 0h-42v700h42v-700zM245 578q0 -9 -6.5 -15t-14.5 -6q-9 0 -15 6t-6 15q0 8 6 14.5t15 6.5q8 0 14.5 -6.5t6.5 -14.5z" />
    <glyph glyph-name="Lslash" unicode="&#x141;" horiz-adv-x="684" 
d="M673 0h-480v700h42v-664h438v-36zM30.0029 285.698l346.411 200l17.998 -31.1768l-346.411 -200z" />
    <glyph glyph-name="lslash" unicode="&#x142;" horiz-adv-x="485" 
d="M60 284l162 94v322h42v-298l143 82l18 -31l-161 -93v-360h-42v336l-144 -83z" />
    <glyph glyph-name="Nacute" unicode="&#x143;" horiz-adv-x="681" 
d="M622 700v-700h-42l-477 640v-640h-42v700h42l477 -639v639h42zM326 750l30 88h48l-42 -88h-36z" />
    <glyph glyph-name="nacute" unicode="&#x144;" horiz-adv-x="628" 
d="M525 0v163q0 71 -1 130.5t-19 102.5t-62 67.5t-130 24.5q-84 0 -127.5 -26t-62 -70.5t-20 -104t-1.5 -126.5v-161h-42v528h42v-116q14 36 35.5 58.5t49 35t59.5 17.5t67 5q59 0 106 -13.5t80 -41t50.5 -71t17.5 -103.5v-299h-42zM298 612l30 88h48l-42 -88h-36z" />
    <glyph glyph-name="uni0145" unicode="&#x145;" horiz-adv-x="681" 
d="M622 700v-700h-42l-477 640v-640h-42v700h42l477 -639v639h42zM295 -137l30 88h48l-42 -88h-36z" />
    <glyph glyph-name="uni0146" unicode="&#x146;" horiz-adv-x="628" 
d="M525 0v163q0 71 -1 130.5t-19 102.5t-62 67.5t-130 24.5q-84 0 -127.5 -26t-62 -70.5t-20 -104t-1.5 -126.5v-161h-42v528h42v-116q14 36 35.5 58.5t49 35t59.5 17.5t67 5q59 0 106 -13.5t80 -41t50.5 -71t17.5 -103.5v-299h-42zM249 -138l30 88h48l-42 -88h-36z" />
    <glyph glyph-name="Ncaron" unicode="&#x147;" horiz-adv-x="681" 
d="M622 700v-700h-42l-477 640v-640h-42v700h42l477 -639v639h42zM476 901q-10 -10 -26 -29q-14 -17 -38 -46t-59 -75q-35 46 -60.5 75t-42.5 46q-19 19 -32 29h29q14 -9 32 -26t35 -34q19 -20 39 -42q19 22 37 42q15 17 30.5 34t26.5 26h29z" />
    <glyph glyph-name="ncaron" unicode="&#x148;" horiz-adv-x="628" 
d="M525 0v163q0 71 -1 130.5t-19 102.5t-62 67.5t-130 24.5q-84 0 -127.5 -26t-62 -70.5t-20 -104t-1.5 -126.5v-161h-42v528h42v-116q14 36 35.5 58.5t49 35t59.5 17.5t67 5q59 0 106 -13.5t80 -41t50.5 -71t17.5 -103.5v-299h-42zM443 750q-10 -10 -26 -29
q-14 -17 -38 -46t-59 -75q-35 46 -60.5 75t-42.5 46q-19 19 -32 29h29q14 -9 32 -26t35 -34q19 -20 39 -42q19 22 37 42q15 17 30.5 34t26.5 26h29z" />
    <glyph glyph-name="napostrophe" unicode="&#x149;" horiz-adv-x="628" 
d="M525 0v163q0 71 -1 130.5t-19 102.5t-62 67.5t-130 24.5q-84 0 -127.5 -26t-62 -70.5t-20 -104t-1.5 -126.5v-161h-42v528h42v-116q14 36 35.5 58.5t49 35t59.5 17.5t67 5q59 0 106 -13.5t80 -41t50.5 -71t17.5 -103.5v-299h-42zM80 639h42l-20 -63h-36z" />
    <glyph glyph-name="Omacron" unicode="&#x14c;" horiz-adv-x="640" 
d="M320 700q86 0 140.5 -27.5t85.5 -75t42.5 -111.5t11.5 -136q0 -78 -12.5 -142t-44.5 -110.5t-86 -72t-137 -25.5q-86 0 -140.5 27.5t-85.5 75.5t-42.5 111.5t-11.5 135.5q0 73 11.5 136.5t42.5 111t85.5 75t140.5 27.5zM320 658q-76 0 -123 -24.5t-72.5 -66.5t-34 -98
t-8.5 -119q0 -67 9 -123.5t35 -97.5t72.5 -64t121.5 -23q77 0 123.5 24.5t72 66.5t34 98t8.5 119q0 67 -9 123.5t-35 97.5t-72.5 64t-121.5 23zM121 830h400v-36h-400v36z" />
    <glyph glyph-name="omacron" unicode="&#x14d;" horiz-adv-x="591" 
d="M551 264q0 -136 -60.5 -200t-195.5 -64q-134 0 -194.5 64t-60.5 200t60.5 200t194.5 64q135 0 195.5 -64t60.5 -200zM511 264q0 59 -11.5 101.5t-37 69.5t-66.5 40t-101 13t-101 -13t-66.5 -40t-36.5 -69.5t-11 -101.5t11 -101.5t36.5 -69.5t66.5 -40t101 -13t101 13
t66.5 40t37 69.5t11.5 101.5zM96 636h400v-36h-400v36z" />
    <glyph glyph-name="Obreve" unicode="&#x14e;" horiz-adv-x="640" 
d="M320 700q86 0 140.5 -27.5t85.5 -75t42.5 -111.5t11.5 -136q0 -78 -12.5 -142t-44.5 -110.5t-86 -72t-137 -25.5q-86 0 -140.5 27.5t-85.5 75.5t-42.5 111.5t-11.5 135.5q0 73 11.5 136.5t42.5 111t85.5 75t140.5 27.5zM320 658q-76 0 -123 -24.5t-72.5 -66.5t-34 -98
t-8.5 -119q0 -67 9 -123.5t35 -97.5t72.5 -64t121.5 -23q77 0 123.5 24.5t72 66.5t34 98t8.5 119q0 67 -9 123.5t-35 97.5t-72.5 64t-121.5 23zM412 842q0 -45 -23.5 -68.5t-68.5 -23.5q-44 0 -67.5 23.5t-23.5 68.5h30q0 -32 14.5 -46.5t46.5 -14.5q62 0 62 61h30z" />
    <glyph glyph-name="obreve" unicode="&#x14f;" horiz-adv-x="591" 
d="M551 264q0 -136 -60.5 -200t-195.5 -64q-134 0 -194.5 64t-60.5 200t60.5 200t194.5 64q135 0 195.5 -64t60.5 -200zM511 264q0 59 -11.5 101.5t-37 69.5t-66.5 40t-101 13t-101 -13t-66.5 -40t-36.5 -69.5t-11 -101.5t11 -101.5t36.5 -69.5t66.5 -40t101 -13t101 13
t66.5 40t37 69.5t11.5 101.5zM387 666q0 -45 -23.5 -68.5t-68.5 -23.5q-44 0 -67.5 23.5t-23.5 68.5h30q0 -32 14.5 -46.5t46.5 -14.5q62 0 62 61h30z" />
    <glyph glyph-name="Ohungarumlaut" unicode="&#x150;" horiz-adv-x="640" 
d="M320 700q86 0 140.5 -27.5t85.5 -75t42.5 -111.5t11.5 -136q0 -78 -12.5 -142t-44.5 -110.5t-86 -72t-137 -25.5q-86 0 -140.5 27.5t-85.5 75.5t-42.5 111.5t-11.5 135.5q0 73 11.5 136.5t42.5 111t85.5 75t140.5 27.5zM320 658q-76 0 -123 -24.5t-72.5 -66.5t-34 -98
t-8.5 -119q0 -67 9 -123.5t35 -97.5t72.5 -64t121.5 -23q77 0 123.5 24.5t72 66.5t34 98t8.5 119q0 67 -9 123.5t-35 97.5t-72.5 64t-121.5 23zM324 771l29 88h49l-42 -88h-36zM238 771l30 88h48l-42 -88h-36z" />
    <glyph glyph-name="ohungarumlaut" unicode="&#x151;" horiz-adv-x="591" 
d="M551 264q0 -136 -60.5 -200t-195.5 -64q-134 0 -194.5 64t-60.5 200t60.5 200t194.5 64q135 0 195.5 -64t60.5 -200zM511 264q0 59 -11.5 101.5t-37 69.5t-66.5 40t-101 13t-101 -13t-66.5 -40t-36.5 -69.5t-11 -101.5t11 -101.5t36.5 -69.5t66.5 -40t101 -13t101 13
t66.5 40t37 69.5t11.5 101.5zM321 612l29 88h49l-42 -88h-36zM235 612l30 88h48l-42 -88h-36z" />
    <glyph glyph-name="OE" unicode="&#x152;" horiz-adv-x="1098" 
d="M320 700q86 0 140.5 -27.5t85.5 -75t42.5 -111.5t11.5 -136q0 -78 -12.5 -142t-44.5 -110.5t-86 -72t-137 -25.5q-86 0 -140.5 27.5t-85.5 75.5t-42.5 111.5t-11.5 135.5q0 73 11.5 136.5t42.5 111t85.5 75t140.5 27.5zM320 658q-76 0 -123 -24.5t-72.5 -66.5t-34 -98
t-8.5 -119q0 -67 9 -123.5t35 -97.5t72.5 -64t121.5 -23q77 0 123.5 24.5t72 66.5t34 98t8.5 119q0 67 -9 123.5t-35 97.5t-72.5 64t-121.5 23zM1039 700v-36h-438v-340h398v-36h-398v-252h438v-36h-480v700h480z" />
    <glyph glyph-name="oe" unicode="&#x153;" horiz-adv-x="1060" 
d="M552 263q0 -136 -60.5 -200t-195.5 -64q-134 0 -194.5 64t-60.5 200t60.5 200t194.5 64q135 0 195.5 -64t60.5 -200zM512 263q0 59 -11.5 101.5t-37 69.5t-66.5 40t-101 13t-101 -13t-66.5 -40t-36.5 -69.5t-11 -101.5t11 -101.5t36.5 -69.5t66.5 -40t101 -13t101 13
t66.5 40t37 69.5t11.5 101.5zM765 528q73 0 123 -19t80 -55t42 -89.5t8 -122.5h-467q4 -111 58.5 -156.5t155.5 -45.5q36 0 68 4.5t58 17.5t45 36t30 60h41q-12 -46 -34.5 -76.5t-53.5 -48.5t-70 -25.5t-84 -7.5q-53 0 -99.5 10.5t-81 40t-54.5 80.5t-20 132t20 132.5t55 81
t81.5 40.5t98.5 11zM767 486q-55 0 -95.5 -11.5t-67.5 -36.5t-40.5 -64.5t-13.5 -95.5h429q0 112 -51 160t-161 48z" />
    <glyph glyph-name="Racute" unicode="&#x154;" horiz-adv-x="613" 
d="M572 0h-42l-107 288q-29 -6 -59.5 -7.5t-60.5 -1.5h-200v-279h-42v699h234q60 0 111 -5t87.5 -25.5t57.5 -62t21 -113.5q0 -30 -6 -60t-19 -56t-34.5 -47t-51.5 -32zM103 321h234q35 0 64 2.5t59 20.5q41 25 55.5 64.5t14.5 84.5q0 57 -15 90t-43 49.5t-67.5 21
t-88.5 4.5l-213 -1v-336zM256 765l30 88h48l-42 -88h-36z" />
    <glyph glyph-name="racute" unicode="&#x155;" horiz-adv-x="323" 
d="M310 487q-100 0 -154 -49t-54 -148v-290h-42v525h42v-114q14 36 35 58.5t48 35.5t59 17.5t66 4.5v-40zM66 586l30 88h48l-42 -88h-36z" />
    <glyph glyph-name="uni0156" unicode="&#x156;" horiz-adv-x="613" 
d="M572 0h-42l-107 288q-29 -6 -59.5 -7.5t-60.5 -1.5h-200v-279h-42v699h234q60 0 111 -5t87.5 -25.5t57.5 -62t21 -113.5q0 -30 -6 -60t-19 -56t-34.5 -47t-51.5 -32zM103 321h234q35 0 64 2.5t59 20.5q41 25 55.5 64.5t14.5 84.5q0 57 -15 90t-43 49.5t-67.5 21
t-88.5 4.5l-213 -1v-336zM222 -137l30 88h48l-42 -88h-36z" />
    <glyph glyph-name="uni0157" unicode="&#x157;" horiz-adv-x="323" 
d="M310 487q-100 0 -154 -49t-54 -148v-290h-42v525h42v-114q14 36 35 58.5t48 35.5t59 17.5t66 4.5v-40zM24 -137l30 88h48l-42 -88h-36z" />
    <glyph glyph-name="Rcaron" unicode="&#x158;" horiz-adv-x="613" 
d="M572 0h-42l-107 288q-29 -6 -59.5 -7.5t-60.5 -1.5h-200v-279h-42v699h234q60 0 111 -5t87.5 -25.5t57.5 -62t21 -113.5q0 -30 -6 -60t-19 -56t-34.5 -47t-51.5 -32zM103 321h234q35 0 64 2.5t59 20.5q41 25 55.5 64.5t14.5 84.5q0 57 -15 90t-43 49.5t-67.5 21
t-88.5 4.5l-213 -1v-336zM419 906q-10 -10 -26 -29q-14 -17 -38 -46t-59 -75q-35 46 -60.5 75t-42.5 46q-19 19 -32 29h29q14 -9 32 -26t35 -34q19 -20 39 -42q19 22 37 42q15 17 30.5 34t26.5 26h29z" />
    <glyph glyph-name="rcaron" unicode="&#x159;" horiz-adv-x="323" 
d="M310 487q-100 0 -154 -49t-54 -148v-290h-42v525h42v-114q14 36 35 58.5t48 35.5t59 17.5t66 4.5v-40zM203 750q-10 -10 -26 -29q-14 -17 -38 -46t-59 -75q-35 46 -60.5 75t-42.5 46q-19 19 -32 29h29q14 -9 32 -26t35 -34q19 -20 39 -42q19 22 37 42q15 17 30.5 34
t26.5 26h29z" />
    <glyph glyph-name="Sacute" unicode="&#x15a;" horiz-adv-x="735" 
d="M695 176q0 -35 -15.5 -62.5t-41 -48t-58 -34.5t-67 -22.5t-68.5 -12t-61 -3.5q-42 0 -96.5 6.5t-104 24.5t-86.5 50.5t-44 84.5h45q6 -42 39 -66.5t77 -37.5t90.5 -16.5t79.5 -3.5q32 0 78 6t88.5 21.5t72.5 43.5t30 72q0 45 -26.5 71.5t-69.5 42t-98 22.5t-112.5 13.5
t-112.5 15.5t-98 27t-69.5 49t-26.5 81q0 56 32 94t79 61.5t100.5 34t97.5 10.5q48 0 101.5 -6.5t100 -26t80.5 -55t42 -93.5h-45q-6 47 -35.5 74.5t-70 42t-85 18.5t-82.5 4q-33 0 -80 -8t-90 -26t-73 -48.5t-30 -75.5q0 -43 26.5 -67.5t69.5 -38t98 -20t112.5 -12.5
t112.5 -15.5t98 -29t69.5 -53t26.5 -88.5zM328 762l30 88h48l-42 -88h-36z" />
    <glyph glyph-name="sacute" unicode="&#x15b;" horiz-adv-x="586" 
d="M301 0q-46 0 -88 7.5t-76.5 26t-59 50t-34.5 79.5h43q11 -39 32 -63t50 -36.5t63.5 -17t71.5 -4.5q26 0 60.5 3t65.5 14t52.5 31.5t21.5 55.5q0 31 -20 49t-52.5 28t-74 14.5t-85 8.5t-85 10t-74 19t-52.5 35t-20 59q0 42 23.5 72t59 49.5t78 28.5t81.5 9q55 0 97.5 -6
t73.5 -24t51 -50t31 -82h-42q-8 44 -26 69t-45 37.5t-61.5 15t-75.5 2.5q-37 0 -72.5 -8t-64 -23t-46 -37t-17.5 -49q0 -29 20 -45t52 -25t73.5 -13t84.5 -8.5t84.5 -11t73.5 -21t52 -39t20 -63.5q0 -47 -24 -76t-60.5 -44.5t-79.5 -21t-80 -5.5zM280 612l30 88h48l-42 -88
h-36z" />
    <glyph glyph-name="Scircumflex" unicode="&#x15c;" horiz-adv-x="735" 
d="M695 176q0 -35 -15.5 -62.5t-41 -48t-58 -34.5t-67 -22.5t-68.5 -12t-61 -3.5q-42 0 -96.5 6.5t-104 24.5t-86.5 50.5t-44 84.5h45q6 -42 39 -66.5t77 -37.5t90.5 -16.5t79.5 -3.5q32 0 78 6t88.5 21.5t72.5 43.5t30 72q0 45 -26.5 71.5t-69.5 42t-98 22.5t-112.5 13.5
t-112.5 15.5t-98 27t-69.5 49t-26.5 81q0 56 32 94t79 61.5t100.5 34t97.5 10.5q48 0 101.5 -6.5t100 -26t80.5 -55t42 -93.5h-45q-6 47 -35.5 74.5t-70 42t-85 18.5t-82.5 4q-33 0 -80 -8t-90 -26t-73 -48.5t-30 -75.5q0 -43 26.5 -67.5t69.5 -38t98 -20t112.5 -12.5
t112.5 -15.5t98 -29t69.5 -53t26.5 -88.5zM364 928q42 -54 70.5 -88.5t45.5 -54.5q20 -24 32 -35h-35q-13 11 -32 31t-37 40q-21 24 -44 50q-24 -26 -47 -50q-20 -20 -41 -40t-37 -31h-35q15 11 38 35q20 20 50 54.5t72 88.5z" />
    <glyph glyph-name="scircumflex" unicode="&#x15d;" horiz-adv-x="586" 
d="M301 0q-46 0 -88 7.5t-76.5 26t-59 50t-34.5 79.5h43q11 -39 32 -63t50 -36.5t63.5 -17t71.5 -4.5q26 0 60.5 3t65.5 14t52.5 31.5t21.5 55.5q0 31 -20 49t-52.5 28t-74 14.5t-85 8.5t-85 10t-74 19t-52.5 35t-20 59q0 42 23.5 72t59 49.5t78 28.5t81.5 9q55 0 97.5 -6
t73.5 -24t51 -50t31 -82h-42q-8 44 -26 69t-45 37.5t-61.5 15t-75.5 2.5q-37 0 -72.5 -8t-64 -23t-46 -37t-17.5 -49q0 -29 20 -45t52 -25t73.5 -13t84.5 -8.5t84.5 -11t73.5 -21t52 -39t20 -63.5q0 -47 -24 -76t-60.5 -44.5t-79.5 -21t-80 -5.5zM303 738q42 -54 70.5 -88.5
t45.5 -54.5q20 -24 32 -35h-35q-13 11 -32 31t-37 40q-21 24 -44 50q-24 -26 -47 -50q-20 -20 -41 -40t-37 -31h-35q15 11 38 35q20 20 50 54.5t72 88.5z" />
    <glyph glyph-name="Scedilla" unicode="&#x15e;" horiz-adv-x="735" 
d="M695 176q0 -35 -15.5 -62.5t-41 -48t-58 -34.5t-67 -22.5t-68.5 -12t-61 -3.5q-42 0 -96.5 6.5t-104 24.5t-86.5 50.5t-44 84.5h45q6 -42 39 -66.5t77 -37.5t90.5 -16.5t79.5 -3.5q32 0 78 6t88.5 21.5t72.5 43.5t30 72q0 45 -26.5 71.5t-69.5 42t-98 22.5t-112.5 13.5
t-112.5 15.5t-98 27t-69.5 49t-26.5 81q0 56 32 94t79 61.5t100.5 34t97.5 10.5q48 0 101.5 -6.5t100 -26t80.5 -55t42 -93.5h-45q-6 47 -35.5 74.5t-70 42t-85 18.5t-82.5 4q-33 0 -80 -8t-90 -26t-73 -48.5t-30 -75.5q0 -43 26.5 -67.5t69.5 -38t98 -20t112.5 -12.5
t112.5 -15.5t98 -29t69.5 -53t26.5 -88.5zM428 9l-31 -47q13 -9 20.5 -22t7.5 -29q0 -30 -20.5 -50t-50.5 -20q-16 0 -31 9.5t-15 27.5q0 8 5 13.5t13 5.5t13 -5t9 -10.5t8.5 -10.5t11.5 -5q11 0 17 10t6 20q0 17 -11 26t-25 14l51 73h22z" />
    <glyph glyph-name="scedilla" unicode="&#x15f;" horiz-adv-x="586" 
d="M301 0q-46 0 -88 7.5t-76.5 26t-59 50t-34.5 79.5h43q11 -39 32 -63t50 -36.5t63.5 -17t71.5 -4.5q26 0 60.5 3t65.5 14t52.5 31.5t21.5 55.5q0 31 -20 49t-52.5 28t-74 14.5t-85 8.5t-85 10t-74 19t-52.5 35t-20 59q0 42 23.5 72t59 49.5t78 28.5t81.5 9q55 0 97.5 -6
t73.5 -24t51 -50t31 -82h-42q-8 44 -26 69t-45 37.5t-61.5 15t-75.5 2.5q-37 0 -72.5 -8t-64 -23t-46 -37t-17.5 -49q0 -29 20 -45t52 -25t73.5 -13t84.5 -8.5t84.5 -11t73.5 -21t52 -39t20 -63.5q0 -47 -24 -76t-60.5 -44.5t-79.5 -21t-80 -5.5zM353 9l-31 -47
q13 -9 20.5 -22t7.5 -29q0 -30 -20.5 -50t-50.5 -20q-16 0 -31 9.5t-15 27.5q0 8 5 13.5t13 5.5t13 -5t9 -10.5t8.5 -10.5t11.5 -5q11 0 17 10t6 20q0 17 -11 26t-25 14l51 73h22z" />
    <glyph glyph-name="Scaron" unicode="&#x160;" horiz-adv-x="735" 
d="M695 176q0 -35 -15.5 -62.5t-41 -48t-58 -34.5t-67 -22.5t-68.5 -12t-61 -3.5q-42 0 -96.5 6.5t-104 24.5t-86.5 50.5t-44 84.5h45q6 -42 39 -66.5t77 -37.5t90.5 -16.5t79.5 -3.5q32 0 78 6t88.5 21.5t72.5 43.5t30 72q0 45 -26.5 71.5t-69.5 42t-98 22.5t-112.5 13.5
t-112.5 15.5t-98 27t-69.5 49t-26.5 81q0 56 32 94t79 61.5t100.5 34t97.5 10.5q48 0 101.5 -6.5t100 -26t80.5 -55t42 -93.5h-45q-6 47 -35.5 74.5t-70 42t-85 18.5t-82.5 4q-33 0 -80 -8t-90 -26t-73 -48.5t-30 -75.5q0 -43 26.5 -67.5t69.5 -38t98 -20t112.5 -12.5
t112.5 -15.5t98 -29t69.5 -53t26.5 -88.5zM466 938q-10 -10 -26 -29q-14 -17 -38 -46t-59 -75q-35 46 -60.5 75t-42.5 46q-19 19 -32 29h29q14 -9 32 -26t35 -34q19 -20 39 -42q19 22 37 42q15 17 30.5 34t26.5 26h29z" />
    <glyph glyph-name="scaron" unicode="&#x161;" horiz-adv-x="586" 
d="M301 0q-46 0 -88 7.5t-76.5 26t-59 50t-34.5 79.5h43q11 -39 32 -63t50 -36.5t63.5 -17t71.5 -4.5q26 0 60.5 3t65.5 14t52.5 31.5t21.5 55.5q0 31 -20 49t-52.5 28t-74 14.5t-85 8.5t-85 10t-74 19t-52.5 35t-20 59q0 42 23.5 72t59 49.5t78 28.5t81.5 9q55 0 97.5 -6
t73.5 -24t51 -50t31 -82h-42q-8 44 -26 69t-45 37.5t-61.5 15t-75.5 2.5q-37 0 -72.5 -8t-64 -23t-46 -37t-17.5 -49q0 -29 20 -45t52 -25t73.5 -13t84.5 -8.5t84.5 -11t73.5 -21t52 -39t20 -63.5q0 -47 -24 -76t-60.5 -44.5t-79.5 -21t-80 -5.5zM414 735q-10 -10 -26 -29
q-14 -17 -38 -46t-59 -75q-35 46 -60.5 75t-42.5 46q-19 19 -32 29h29q14 -9 32 -26t35 -34q19 -20 39 -42q19 22 37 42q15 17 30.5 34t26.5 26h29z" />
    <glyph glyph-name="uni0162" unicode="&#x162;" horiz-adv-x="583" 
d="M311 9l-31 -47q13 -9 20.5 -22t7.5 -29q0 -30 -20.5 -50t-50.5 -20q-16 0 -31 9.5t-15 27.5q0 8 5 13.5t13 5.5t13 -5t9 -10.5t8.5 -10.5t11.5 -5q11 0 17 10t6 20q0 17 -11 26t-25 14l51 73h22zM572 700v-36h-259v-664h-42v664h-259v36h560z" />
    <glyph glyph-name="uni0163" unicode="&#x163;" horiz-adv-x="412" 
d="M369 0q-118 1 -180 55t-69 178v262h-92v32h92v173h42v-173h209v-32h-209v-262q0 -51 14.5 -87t41 -59t65 -34t86.5 -11v-42zM361 9l-31 -47q13 -9 20.5 -22t7.5 -29q0 -30 -20.5 -50t-50.5 -20q-16 0 -31 9.5t-15 27.5q0 8 5 13.5t13 5.5t13 -5t9 -10.5t8.5 -10.5
t11.5 -5q11 0 17 10t6 20q0 17 -11 26t-25 14l51 73h22z" />
    <glyph glyph-name="Tcaron" unicode="&#x164;" horiz-adv-x="583" 
d="M572 700v-36h-259v-664h-42v664h-259v36h560zM421 950q-10 -10 -26 -29q-14 -17 -38 -46t-59 -75q-35 46 -60.5 75t-42.5 46q-19 19 -32 29h29q14 -9 32 -26t35 -34q19 -20 39 -42q19 22 37 42q15 17 30.5 34t26.5 26h29z" />
    <glyph glyph-name="tcaron" unicode="&#x165;" horiz-adv-x="507" 
d="M369 0q-118 1 -180 55t-69 178v262h-92v32h92v173h42v-173h209v-32h-209v-262q0 -51 14.5 -87t41 -59t65 -34t86.5 -11v-42zM425 700h42l-20 -63h-36z" />
    <glyph glyph-name="Tbar" unicode="&#x166;" horiz-adv-x="583" 
d="M572 700v-36h-259v-664h-42v664h-259v36h560zM92 370h400v-36h-400v36z" />
    <glyph glyph-name="tbar" unicode="&#x167;" horiz-adv-x="427" 
d="M384 0q-118 1 -180 55t-69 178v100h-107v36h107v126h-92v32h92v173h42v-173h209v-32h-209v-126h206v-36h-206v-100q0 -51 14.5 -87t41 -59t65 -34t86.5 -11v-42z" />
    <glyph glyph-name="Utilde" unicode="&#x168;" horiz-adv-x="641" 
d="M559 700h42v-353q0 -75 -12 -138.5t-43.5 -110t-86 -72.5t-138.5 -26t-138.5 26.5t-86 73t-43.5 110t-12 138.5v352h42v-353q0 -65 9.5 -121t35.5 -97t72.5 -64t120.5 -23t120.5 23.5t72.5 64.5t35.5 97t9.5 121v352zM159 820q20 7 37.5 16t40.5 9t43 -8t40 -17.5
t40 -17.5t42 -8q23 0 41 9.5t40 16.5v-33q-22 -7 -40 -16.5t-41 -9.5q-22 0 -42 8t-39.5 17.5t-39.5 17.5t-42 8q-23 0 -41 -9t-39 -16v33z" />
    <glyph glyph-name="utilde" unicode="&#x169;" 
d="M533 528h42v-266q0 -133 -61.5 -197.5t-196.5 -64.5q-78 0 -128 19.5t-78.5 57t-39.5 92.5t-11 126v233h42v-265q0 -58 11 -100t36.5 -69.5t66.5 -40.5t101 -13q59 0 100 13t67 40t37.5 69t11.5 100v266zM156 673q20 7 37.5 16t40.5 9t43 -8t40 -17.5t40 -17.5t42 -8
q23 0 41 9.5t40 16.5v-33q-22 -7 -40 -16.5t-41 -9.5q-22 0 -42 8t-39.5 17.5t-39.5 17.5t-42 8q-23 0 -41 -9t-39 -16v33z" />
    <glyph glyph-name="Umacron" unicode="&#x16a;" horiz-adv-x="641" 
d="M559 700h42v-353q0 -75 -12 -138.5t-43.5 -110t-86 -72.5t-138.5 -26t-138.5 26.5t-86 73t-43.5 110t-12 138.5v352h42v-353q0 -65 9.5 -121t35.5 -97t72.5 -64t120.5 -23t120.5 23.5t72.5 64.5t35.5 97t9.5 121v352zM121 830h400v-36h-400v36z" />
    <glyph glyph-name="umacron" unicode="&#x16b;" 
d="M533 528h42v-266q0 -133 -61.5 -197.5t-196.5 -64.5q-78 0 -128 19.5t-78.5 57t-39.5 92.5t-11 126v233h42v-265q0 -58 11 -100t36.5 -69.5t66.5 -40.5t101 -13q59 0 100 13t67 40t37.5 69t11.5 100v266zM117 631h400v-36h-400v36z" />
    <glyph glyph-name="Ubreve" unicode="&#x16c;" horiz-adv-x="641" 
d="M559 700h42v-353q0 -75 -12 -138.5t-43.5 -110t-86 -72.5t-138.5 -26t-138.5 26.5t-86 73t-43.5 110t-12 138.5v352h42v-353q0 -65 9.5 -121t35.5 -97t72.5 -64t120.5 -23t120.5 23.5t72.5 64.5t35.5 97t9.5 121v352zM413 852q0 -45 -23.5 -68.5t-68.5 -23.5
q-44 0 -67.5 23.5t-23.5 68.5h30q0 -32 14.5 -46.5t46.5 -14.5q62 0 62 61h30z" />
    <glyph glyph-name="ubreve" unicode="&#x16d;" 
d="M533 528h42v-266q0 -133 -61.5 -197.5t-196.5 -64.5q-78 0 -128 19.5t-78.5 57t-39.5 92.5t-11 126v233h42v-265q0 -58 11 -100t36.5 -69.5t66.5 -40.5t101 -13q59 0 100 13t67 40t37.5 69t11.5 100v266zM409 700q0 -45 -23.5 -68.5t-68.5 -23.5q-44 0 -67.5 23.5
t-23.5 68.5h30q0 -32 14.5 -46.5t46.5 -14.5q62 0 62 61h30z" />
    <glyph glyph-name="Uring" unicode="&#x16e;" horiz-adv-x="641" 
d="M559 700h42v-353q0 -75 -12 -138.5t-43.5 -110t-86 -72.5t-138.5 -26t-138.5 26.5t-86 73t-43.5 110t-12 138.5v352h42v-353q0 -65 9.5 -121t35.5 -97t72.5 -64t120.5 -23t120.5 23.5t72.5 64.5t35.5 97t9.5 121v352zM321 899q29 0 50 -20.5t21 -50.5q0 -29 -21 -50
t-50 -21t-50 21t-21 50q0 30 21 50.5t50 20.5zM321 789q17 0 28 11.5t11 27.5q0 17 -11 28.5t-28 11.5t-28 -11.5t-11 -28.5q0 -16 11 -27.5t28 -11.5z" />
    <glyph glyph-name="uring" unicode="&#x16f;" 
d="M533 528h42v-266q0 -133 -61.5 -197.5t-196.5 -64.5q-78 0 -128 19.5t-78.5 57t-39.5 92.5t-11 126v233h42v-265q0 -58 11 -100t36.5 -69.5t66.5 -40.5t101 -13q59 0 100 13t67 40t37.5 69t11.5 100v266zM334 721q29 0 50 -20.5t21 -50.5q0 -29 -21 -50t-50 -21t-50 21
t-21 50q0 30 21 50.5t50 20.5zM334 611q17 0 28 11.5t11 27.5q0 17 -11 28.5t-28 11.5t-28 -11.5t-11 -28.5q0 -16 11 -27.5t28 -11.5z" />
    <glyph glyph-name="Uhungarumlaut" unicode="&#x170;" horiz-adv-x="641" 
d="M559 700h42v-353q0 -75 -12 -138.5t-43.5 -110t-86 -72.5t-138.5 -26t-138.5 26.5t-86 73t-43.5 110t-12 138.5v352h42v-353q0 -65 9.5 -121t35.5 -97t72.5 -64t120.5 -23t120.5 23.5t72.5 64.5t35.5 97t9.5 121v352zM325 812l29 88h49l-42 -88h-36zM239 812l30 88h48
l-42 -88h-36z" />
    <glyph glyph-name="uhungarumlaut" unicode="&#x171;" 
d="M533 528h42v-266q0 -133 -61.5 -197.5t-196.5 -64.5q-78 0 -128 19.5t-78.5 57t-39.5 92.5t-11 126v233h42v-265q0 -58 11 -100t36.5 -69.5t66.5 -40.5t101 -13q59 0 100 13t67 40t37.5 69t11.5 100v266zM322 612l29 88h49l-42 -88h-36zM236 612l30 88h48l-42 -88h-36z
" />
    <glyph glyph-name="Uogonek" unicode="&#x172;" horiz-adv-x="641" 
d="M559 700h42v-353q0 -75 -12 -138.5t-43.5 -110t-86 -72.5t-138.5 -26t-138.5 26.5t-86 73t-43.5 110t-12 138.5v352h42v-353q0 -65 9.5 -121t35.5 -97t72.5 -64t120.5 -23t120.5 23.5t72.5 64.5t35.5 97t9.5 121v352zM372 5q-20 -7 -34 -15q-13 -7 -22.5 -16t-6.5 -19
q3 -8 17 -8q11 0 25 4t22 7v-35q-7 -2 -18.5 -4.5t-25.5 -2.5q-16 0 -29.5 5.5t-17.5 22.5q-5 23 8 38t30 25q20 11 48 17z" />
    <glyph glyph-name="uogonek" unicode="&#x173;" 
d="M533 528h42v-266q0 -133 -61.5 -197.5t-196.5 -64.5q-78 0 -128 19.5t-78.5 57t-39.5 92.5t-11 126v233h42v-265q0 -58 11 -100t36.5 -69.5t66.5 -40.5t101 -13q59 0 100 13t67 40t37.5 69t11.5 100v266zM574 1q-20 -7 -34 -15q-13 -7 -22.5 -16t-6.5 -19q3 -8 17 -8
q11 0 25 4t22 7v-35q-7 -2 -18.5 -4.5t-25.5 -2.5q-16 0 -29.5 5.5t-17.5 22.5q-5 23 8 38t30 25q20 11 48 17z" />
    <glyph glyph-name="Wcircumflex" unicode="&#x174;" horiz-adv-x="891" 
d="M886 700l-233 -700h-42l-165 491l-163 -491h-42l-235 700h45l211 -630l152 457h65l153 -457l210 630h44zM452 949q42 -54 70.5 -88.5t45.5 -54.5q20 -24 32 -35h-35q-13 11 -32 31t-37 40q-21 24 -44 50q-24 -26 -47 -50q-20 -20 -41 -40t-37 -31h-35q15 11 38 35
q20 20 50 54.5t72 88.5z" />
    <glyph glyph-name="wcircumflex" unicode="&#x175;" horiz-adv-x="1026" 
d="M747 47l212 481h42l-233 -528h-42l-213 481l-212 -481h-42l-235 528h42l214 -481l212 481h42l107 -240zM519 778q42 -54 70.5 -88.5t45.5 -54.5q20 -24 32 -35h-35q-13 11 -32 31t-37 40q-21 24 -44 50q-24 -26 -47 -50q-20 -20 -41 -40t-37 -31h-35q15 11 38 35
q20 20 50 54.5t72 88.5z" />
    <glyph glyph-name="Ycircumflex" unicode="&#x176;" horiz-adv-x="571" 
d="M517 700h49l-251 -412v-288h-42v288l-267 412h51l237 -366zM292 940q42 -54 70.5 -88.5t45.5 -54.5q20 -24 32 -35h-35q-13 11 -32 31t-37 40q-21 24 -44 50q-24 -26 -47 -50q-20 -20 -41 -40t-37 -31h-35q15 11 38 35q20 20 50 54.5t72 88.5z" />
    <glyph glyph-name="ycircumflex" unicode="&#x177;" horiz-adv-x="545" 
d="M520 528q-8 -19 -22 -52.5t-32 -76.5t-39.5 -93t-44.5 -102t-47 -103.5t-47 -97.5q-9 -18 -23.5 -45.5t-31 -54.5t-34 -49t-32.5 -31q-19 -11 -36 -15.5t-33.5 -6t-32.5 -1.5h-33v43q17 0 32 -0.5t29 0.5t27.5 5t28.5 15q9 6 23.5 25.5t28.5 43t26 45.5t18 34l-221 517
h46l199 -470l206 470h45zM279 799q42 -54 70.5 -88.5t45.5 -54.5q20 -24 32 -35h-35q-13 11 -32 31t-37 40q-21 24 -44 50q-24 -26 -47 -50q-20 -20 -41 -40t-37 -31h-35q15 11 38 35q20 20 50 54.5t72 88.5z" />
    <glyph glyph-name="Ydieresis" unicode="&#x178;" horiz-adv-x="572" 
d="M518 700h49l-251 -412v-288h-42v288l-267 412h51l237 -366zM317 780q0 8 6 14.5t15 6.5q8 0 14.5 -6.5t6.5 -14.5q0 -9 -6.5 -15t-14.5 -6q-9 0 -15 6t-6 15zM215 780q0 8 6 14.5t15 6.5q8 0 14.5 -6.5t6.5 -14.5q0 -9 -6.5 -15t-14.5 -6q-9 0 -15 6t-6 15z" />
    <glyph glyph-name="Zacute" unicode="&#x179;" horiz-adv-x="584" 
d="M507 658h-473v42h518v-42l-493 -616h514v-42h-560v42zM253 758l30 88h48l-42 -88h-36z" />
    <glyph glyph-name="zacute" unicode="&#x17a;" horiz-adv-x="570" 
d="M516 501v-42l-424 -417h448v-42h-510v42l429 417h-429v42h486zM246 565l30 88h48l-42 -88h-36z" />
    <glyph glyph-name="Zdotaccent" unicode="&#x17b;" horiz-adv-x="584" 
d="M507 658h-473v42h518v-42l-493 -616h514v-42h-560v42zM314 785q0 -9 -6.5 -15t-14.5 -6q-9 0 -15 6t-6 15q0 8 6 14.5t15 6.5q8 0 14.5 -6.5t6.5 -14.5z" />
    <glyph glyph-name="zdotaccent" unicode="&#x17c;" horiz-adv-x="570" 
d="M516 501v-42l-424 -417h448v-42h-510v42l429 417h-429v42h486zM307 589q0 -9 -6.5 -15t-14.5 -6q-9 0 -15 6t-6 15q0 8 6 14.5t15 6.5q8 0 14.5 -6.5t6.5 -14.5z" />
    <glyph glyph-name="Zcaron" unicode="&#x17d;" horiz-adv-x="584" 
d="M507 658h-473v42h518v-42l-493 -616h514v-42h-560v42zM421 928q-10 -10 -26 -29q-14 -17 -38 -46t-59 -75q-35 46 -60.5 75t-42.5 46q-19 19 -32 29h29q14 -9 32 -26t35 -34q19 -20 39 -42q19 22 37 42q15 17 30.5 34t26.5 26h29z" />
    <glyph glyph-name="zcaron" unicode="&#x17e;" horiz-adv-x="570" 
d="M516 501v-42l-424 -417h448v-42h-510v42l429 417h-429v42h486zM414 750q-10 -10 -26 -29q-14 -17 -38 -46t-59 -75q-35 46 -60.5 75t-42.5 46q-19 19 -32 29h29q14 -9 32 -26t35 -34q19 -20 39 -42q19 22 37 42q15 17 30.5 34t26.5 26h29z" />
    <glyph glyph-name="longs" unicode="&#x17f;" horiz-adv-x="319" 
d="M31 347q0 68 14.5 128t47 107t83 78t122.5 40v-42q-62 -7 -105 -35.5t-70 -71t-39 -95.5t-12 -109v-347h-41v347z" />
    <glyph glyph-name="florin" unicode="&#x192;" horiz-adv-x="407" 
d="M366 700v-42q-35 0 -67 -7t-58.5 -22.5t-45.5 -40.5t-28 -61h199v-32h-204q-1 -7 -1.5 -13.5t-0.5 -14.5v-467h-42v37v428q0 6 0.5 14.5t1.5 15.5h-59v32h64q11 52 33.5 85t54 52.5t71 27.5t82.5 8z" />
    <glyph glyph-name="uni0218" unicode="&#x218;" horiz-adv-x="735" 
d="M695 176q0 -35 -15.5 -62.5t-41 -48t-58 -34.5t-67 -22.5t-68.5 -12t-61 -3.5q-42 0 -96.5 6.5t-104 24.5t-86.5 50.5t-44 84.5h45q6 -42 39 -66.5t77 -37.5t90.5 -16.5t79.5 -3.5q32 0 78 6t88.5 21.5t72.5 43.5t30 72q0 45 -26.5 71.5t-69.5 42t-98 22.5t-112.5 13.5
t-112.5 15.5t-98 27t-69.5 49t-26.5 81q0 56 32 94t79 61.5t100.5 34t97.5 10.5q48 0 101.5 -6.5t100 -26t80.5 -55t42 -93.5h-45q-6 47 -35.5 74.5t-70 42t-85 18.5t-82.5 4q-33 0 -80 -8t-90 -26t-73 -48.5t-30 -75.5q0 -43 26.5 -67.5t69.5 -38t98 -20t112.5 -12.5
t112.5 -15.5t98 -29t69.5 -53t26.5 -88.5zM328 -137l30 88h48l-42 -88h-36z" />
    <glyph glyph-name="uni0219" unicode="&#x219;" horiz-adv-x="586" 
d="M301 0q-46 0 -88 7.5t-76.5 26t-59 50t-34.5 79.5h43q11 -39 32 -63t50 -36.5t63.5 -17t71.5 -4.5q26 0 60.5 3t65.5 14t52.5 31.5t21.5 55.5q0 31 -20 49t-52.5 28t-74 14.5t-85 8.5t-85 10t-74 19t-52.5 35t-20 59q0 42 23.5 72t59 49.5t78 28.5t81.5 9q55 0 97.5 -6
t73.5 -24t51 -50t31 -82h-42q-8 44 -26 69t-45 37.5t-61.5 15t-75.5 2.5q-37 0 -72.5 -8t-64 -23t-46 -37t-17.5 -49q0 -29 20 -45t52 -25t73.5 -13t84.5 -8.5t84.5 -11t73.5 -21t52 -39t20 -63.5q0 -47 -24 -76t-60.5 -44.5t-79.5 -21t-80 -5.5zM249 -137l30 88h48l-42 -88
h-36z" />
    <glyph glyph-name="uni021A" unicode="&#x21a;" horiz-adv-x="583" 
d="M572 700v-36h-259v-664h-42v664h-259v36h560zM243 -137l30 88h48l-42 -88h-36z" />
    <glyph glyph-name="uni021B" unicode="&#x21b;" horiz-adv-x="412" 
d="M369 0q-118 1 -180 55t-69 178v262h-92v32h92v173h42v-173h209v-32h-209v-262q0 -51 14.5 -87t41 -59t65 -34t86.5 -11v-42zM263 -137l30 88h48l-42 -88h-36z" />
    <glyph glyph-name="uni0237" unicode="&#x237;" horiz-adv-x="167" 
d="M63 610h42v-42h-42v42zM63 526h42q0 -69 0.5 -129.5t0.5 -119.5v-119.5v-129.5q0 -20 -2 -39t-5 -36q-16 -79 -82 -116t-161 -38v42q78 0 129 27q25 13 40.5 31t23.5 39t11 45t3 49v494z" />
    <glyph glyph-name="circumflex" unicode="&#x2c6;" horiz-adv-x="368" 
d="M191 749q42 -54 70.5 -88.5t45.5 -54.5q20 -24 32 -35h-35q-13 11 -32 31t-37 40q-21 24 -44 50q-24 -26 -47 -50q-20 -20 -41 -40t-37 -31h-35q15 11 38 35q20 20 50 54.5t72 88.5z" />
    <glyph glyph-name="caron" unicode="&#x2c7;" horiz-adv-x="390" 
d="M288 750q-10 -10 -26 -29q-14 -17 -38 -46t-59 -75q-35 46 -60.5 75t-42.5 46q-19 19 -32 29h29q14 -9 32 -26t35 -34q19 -20 39 -42q19 22 37 42q15 17 30.5 34t26.5 26h29z" />
    <glyph glyph-name="uni02C9" unicode="&#x2c9;" horiz-adv-x="261" 
d="M31 371h200v-42h-200v42z" />
    <glyph glyph-name="breve" unicode="&#x2d8;" horiz-adv-x="243" 
d="M214 700q0 -45 -23.5 -68.5t-68.5 -23.5q-44 0 -67.5 23.5t-23.5 68.5h30q0 -32 14.5 -46.5t46.5 -14.5q62 0 62 61h30z" />
    <glyph glyph-name="dotaccent" unicode="&#x2d9;" horiz-adv-x="102" 
d="M73 679q0 -9 -6.5 -15t-14.5 -6q-9 0 -15 6t-6 15q0 8 6 14.5t15 6.5q8 0 14.5 -6.5t6.5 -14.5z" />
    <glyph glyph-name="ring" unicode="&#x2da;" horiz-adv-x="201" 
d="M101 699q29 0 50 -20.5t21 -50.5q0 -29 -21 -50t-50 -21t-50 21t-21 50q0 30 21 50.5t50 20.5zM101 589q17 0 28 11.5t11 27.5q0 17 -11 28.5t-28 11.5t-28 -11.5t-11 -28.5q0 -16 11 -27.5t28 -11.5z" />
    <glyph glyph-name="ogonek" unicode="&#x2db;" horiz-adv-x="151" 
d="M121 1q-20 -7 -34 -15q-13 -7 -22.5 -16t-6.5 -19q3 -8 17 -8q11 0 25 4t22 7v-35q-7 -2 -18.5 -4.5t-25.5 -2.5q-16 0 -29.5 5.5t-17.5 22.5q-5 23 8 38t30 25q20 11 48 17z" />
    <glyph glyph-name="tilde" unicode="&#x2dc;" horiz-adv-x="384" 
d="M31 363q20 7 37.5 16t40.5 9t43 -8t40 -17.5t40 -17.5t42 -8q23 0 41 9.5t40 16.5v-33q-22 -7 -40 -16.5t-41 -9.5q-22 0 -42 8t-39.5 17.5t-39.5 17.5t-42 8q-23 0 -41 -9t-39 -16v33z" />
    <glyph glyph-name="hungarumlaut" unicode="&#x2dd;" horiz-adv-x="223" 
d="M116 612l29 88h49l-42 -88h-36zM30 612l30 88h48l-42 -88h-36z" />
    <glyph glyph-name="uni0326" unicode="&#x326;" horiz-adv-x="163" 
d="M60 -113v63h42v-63q0 -4 -2 -13t-5.5 -19t-7 -18.5t-6.5 -9.5h-21q4 3 8 12t7 19t5 18.5t1 10.5h-21z" />
    <glyph glyph-name="uni0394" unicode="&#x394;" horiz-adv-x="442" 
d="M436 25v-25h-429v25l192 503h34zM50 36h343l-176 436z" />
    <glyph glyph-name="uni03A9" unicode="&#x3a9;" horiz-adv-x="741" 
d="M700 0h-276l17 78q41 15 75 44t58 66.5t37.5 80.5t13.5 86q0 61 -14.5 115.5t-46 96t-79.5 65.5t-116 24q-66 0 -114 -24.5t-79 -66t-46 -96t-15 -114.5q0 -43 13.5 -86t37.5 -80.5t58 -66.5t75 -44l17 -78h-276v44h222q-42 19 -77.5 53t-60.5 76.5t-39 89.5t-14 92
q0 70 18 132.5t55 110t93 75t132 27.5q77 0 133 -27.5t93.5 -74.5t55.5 -109.5t18 -133.5q0 -45 -14 -92t-39 -89.5t-60 -76.5t-77 -53h221v-44z" />
    <glyph glyph-name="uni03BC" unicode="&#x3bc;" 
d="M574 528v-577h-42v137q-60 -88 -215 -88q-85 0 -136 22.5t-79 65.5v-284h-42v724h42v-265q0 -58 11 -100t36.5 -69.5t66.5 -40.5t101 -13q59 0 100.5 13t67 40t37 69t11.5 100v266h41z" />
    <glyph glyph-name="pi" unicode="&#x3c0;" horiz-adv-x="163" 
d="M-41 528v-47h387v-42h-83v-439h-42v439h-262v-439h-42v439h-100v42h100v47h42z" />
    <glyph glyph-name="Wgrave" unicode="&#x1e80;" horiz-adv-x="891" 
d="M886 700l-233 -700h-42l-165 491l-163 -491h-42l-235 700h45l211 -630l152 457h65l153 -457l210 630h44zM392 838h49l29 -88h-36z" />
    <glyph glyph-name="wgrave" unicode="&#x1e81;" horiz-adv-x="1026" 
d="M747 47l212 481h42l-233 -528h-42l-213 481l-212 -481h-42l-235 528h42l214 -481l212 481h42l107 -240zM453 676h49l29 -88h-36z" />
    <glyph glyph-name="Wacute" unicode="&#x1e82;" horiz-adv-x="891" 
d="M886 700l-233 -700h-42l-165 491l-163 -491h-42l-235 700h45l211 -630l152 457h65l153 -457l210 630h44zM431 747l30 88h48l-42 -88h-36z" />
    <glyph glyph-name="wacute" unicode="&#x1e83;" horiz-adv-x="1026" 
d="M747 47l212 481h42l-233 -528h-42l-213 481l-212 -481h-42l-235 528h42l214 -481l212 481h42l107 -240zM497 606l30 88h48l-42 -88h-36z" />
    <glyph glyph-name="Wdieresis" unicode="&#x1e84;" horiz-adv-x="891" 
d="M886 700l-233 -700h-42l-165 491l-163 -491h-42l-235 700h45l211 -630l152 457h65l153 -457l210 630h44zM477 773q0 8 6 14.5t15 6.5q8 0 14.5 -6.5t6.5 -14.5q0 -9 -6.5 -15t-14.5 -6q-9 0 -15 6t-6 15zM375 773q0 8 6 14.5t15 6.5q8 0 14.5 -6.5t6.5 -14.5
q0 -9 -6.5 -15t-14.5 -6q-9 0 -15 6t-6 15z" />
    <glyph glyph-name="wdieresis" unicode="&#x1e85;" horiz-adv-x="1026" 
d="M747 47l212 481h42l-233 -528h-42l-213 481l-212 -481h-42l-235 528h42l214 -481l212 481h42l107 -240zM544 629q0 8 6 14.5t15 6.5q8 0 14.5 -6.5t6.5 -14.5q0 -9 -6.5 -15t-14.5 -6q-9 0 -15 6t-6 15zM442 629q0 8 6 14.5t15 6.5q8 0 14.5 -6.5t6.5 -14.5
q0 -9 -6.5 -15t-14.5 -6q-9 0 -15 6t-6 15z" />
    <glyph glyph-name="endash" unicode="&#x2013;" horiz-adv-x="460" 
d="M30 368h400v-36h-400v36z" />
    <glyph glyph-name="emdash" unicode="&#x2014;" horiz-adv-x="620" 
d="M30 301h560v-36h-560v36z" />
    <glyph glyph-name="quoteleft" unicode="&#x2018;" horiz-adv-x="115" 
d="M86 637h-36l-20 63h42z" />
    <glyph glyph-name="quoteright" unicode="&#x2019;" horiz-adv-x="115" 
d="M44 700h42l-20 -63h-36z" />
    <glyph glyph-name="quotesinglbase" unicode="&#x201a;" horiz-adv-x="115" 
d="M44 63h42l-20 -63h-36z" />
    <glyph glyph-name="quotedblleft" unicode="&#x201c;" horiz-adv-x="201" 
d="M86 700l-14 -63h-42l20 63h36zM172 700l-15 -63h-41l20 63h36z" />
    <glyph glyph-name="quotedblright" unicode="&#x201d;" horiz-adv-x="202" 
d="M117 637l14 63h42l-20 -63h-36zM31 637l14 63h42l-20 -63h-36z" />
    <glyph glyph-name="quotedblbase" unicode="&#x201e;" horiz-adv-x="201" 
d="M172 63l-20 -63h-36l14 63h42zM86 63l-20 -63h-36l15 63h41z" />
    <glyph glyph-name="dagger" unicode="&#x2020;" horiz-adv-x="630" 
d="M296 484h-236v36h236v230h42v-230h232v-36h-232v-534h-42v534z" />
    <glyph glyph-name="daggerdbl" unicode="&#x2021;" horiz-adv-x="466" 
d="M297 250h-236v36h236v128h-236v36h236v300h42v-300h232v-36h-232v-128h232v-36h-232v-300h-42v300z" />
    <glyph glyph-name="bullet" unicode="&#x2022;" horiz-adv-x="184" 
d="M20 350q0 32 20 52t52 20t52 -20t20 -52t-20 -52t-52 -20t-52 20t-20 52z" />
    <glyph glyph-name="ellipsis" unicode="&#x2026;" horiz-adv-x="288" 
d="M73 63v-63h-42v63h42zM166 63v-63h-42v63h42zM259 63v-63h-42v63h42z" />
    <glyph glyph-name="perthousand" unicode="&#x2030;" horiz-adv-x="957" 
d="M483 700l-252 -700h-46l254 700h44zM165 309q-30 0 -56 11.5t-45.5 31t-31 45.5t-11.5 56t11.5 56t31 45.5t45.5 31t56 11.5t56 -11.5t45.5 -31t31 -45.5t11.5 -56t-11.5 -56t-31 -45.5t-45.5 -31t-56 -11.5zM165 562q-22 0 -42 -8.5t-35 -23.5t-23.5 -34.5t-8.5 -42.5
q0 -22 8.5 -42t23.5 -35t35 -23.5t42 -8.5t42 8.5t35 23.5t23.5 35t8.5 42q0 23 -8.5 42.5t-23.5 34.5t-35 23.5t-42 8.5zM485 44q-30 0 -56 11.5t-45.5 31t-31 45.5t-11.5 56t11.5 56t31 45.5t45.5 31t56 11.5t56 -11.5t45.5 -31t31 -45.5t11.5 -56t-11.5 -56t-31 -45.5
t-45.5 -31t-56 -11.5zM792 44q-30 0 -56 11.5t-45.5 31t-31 45.5t-11.5 56t11.5 56t31 45.5t45.5 31t56 11.5t56 -11.5t45.5 -31t31 -45.5t11.5 -56t-11.5 -56t-31 -45.5t-45.5 -31t-56 -11.5zM485 297q-22 0 -41.5 -8.5t-34.5 -23.5t-23.5 -34.5t-8.5 -42.5q0 -22 8.5 -42
t23.5 -35t34.5 -23.5t41.5 -8.5q23 0 42.5 8.5t34.5 23.5t23.5 35t8.5 42q0 23 -8.5 42.5t-23.5 34.5t-34.5 23.5t-42.5 8.5zM792 297q-22 0 -42 -8.5t-35 -23.5t-23.5 -34.5t-8.5 -42.5q0 -22 8.5 -42t23.5 -35t35 -23.5t42 -8.5q23 0 42.5 8.5t34.5 23.5t23.5 35t8.5 42
q0 23 -8.5 42.5t-23.5 34.5t-34.5 23.5t-42.5 8.5z" />
    <glyph glyph-name="guilsinglleft" unicode="&#x2039;" horiz-adv-x="249" 
d="M186 440l34 -24l-138 -170q10 -12 29 -35t40 -48.5t40 -49t29 -35.5q-1 -1 -6.5 -5t-11.5 -8.5t-11 -8.5l-5 -4l-152 186q-7 9 0 18q1 1 12 14.5t28 33.5t36 43.5t36 43.5t28 34t12 15z" />
    <glyph glyph-name="guilsinglright" unicode="&#x203a;" horiz-adv-x="250" 
d="M65 440l152 -186q8 -9 0 -18q-1 -1 -12 -14.5t-28 -33.5t-36 -43.5t-36 -43.5t-28 -34t-12 -15l-34 24l138 170l-138 168z" />
    <glyph glyph-name="fraction" unicode="&#x2044;" horiz-adv-x="419" 
d="M360 700l-252 -700h-46l254 700h44z" />
    <glyph glyph-name="franc" unicode="&#x20a3;" horiz-adv-x="706" 
d="M647 700v-36h-438v-340h398v-36h-398v-117h108v-36h-108v-135h-42v135h-105v36h105v529h480z" />
    <glyph glyph-name="lira" unicode="&#x20a4;" horiz-adv-x="766" 
d="M198 312q0 71 9.5 140.5t38.5 124.5t81.5 89t137.5 34q89 0 150.5 -35.5t90.5 -123.5h-42q-13 34 -33 56.5t-45.5 36t-56 19t-64.5 5.5q-78 0 -123 -31t-67.5 -80.5t-28.5 -111t-6 -123.5h315v-36h-315v-76h315v-36h-315v-123h383v-41h-559v41h134v123h-137v36h137v76
h-137v36h137z" />
    <glyph glyph-name="peseta" unicode="&#x20a7;" horiz-adv-x="772" 
d="M93 210v-211h-31v528q60 0 118.5 0.5t118.5 0.5q75 0 111.5 -42t36.5 -114q0 -53 -16 -85t-43.5 -49t-66 -22.5t-83.5 -5.5h-145zM730 -1q-87 1 -136.5 43t-50.5 133v198h-70v24h70v131h31v-131h158v-24h-158v-198q0 -76 42 -109.5t114 -34.5v-32zM93 495v-253h153
q37 0 68 4t53.5 17.5t35 39t12.5 69.5q0 60 -28 92t-91 32z" />
    <glyph glyph-name="Euro" unicode="&#x20ac;" horiz-adv-x="667" 
d="M328 288h-124q6 -40 21.5 -83.5t42 -79.5t63 -59.5t82.5 -23.5q28 0 52.5 9.5t45.5 26t38 37.5t30 44h47q-15 -31 -36 -60t-48 -51t-59.5 -35t-69.5 -13q-56 0 -100 26.5t-75.5 68.5t-50.5 93t-25 100h-122v36h118v17v35h-118v36h122q6 49 25.5 100t51 93t75 68.5
t99.5 26.5q37 0 69.5 -13t59.5 -35t48 -50.5t36 -60.5h-47q-13 23 -30 44t-38 37.5t-45.5 26t-52.5 9.5q-46 0 -82.5 -23.5t-63 -59.5t-42 -79.5t-21.5 -83.5h124v-36h-128v-26v-26h128v-36z" />
    <glyph glyph-name="uni2113" unicode="&#x2113;" horiz-adv-x="434" 
d="M259 -1q-31 0 -62 10.5t-48 38.5q-14 21 -20.5 48.5t-8 57.5t-0.5 61t1 60q-23 -8 -46.5 -13t-46.5 -10l-8 40q26 5 51 11.5t50 15.5v238q0 65 28 103.5t97 38.5q29 0 50.5 -11.5t35.5 -31t20.5 -44.5t6.5 -51q0 -49 -14.5 -90.5t-40.5 -75.5t-62 -60.5t-80 -44.5v-134
q0 -49 22.5 -82.5t74.5 -33.5q23 0 40.5 10.5t29.5 27t18 37t6 41.5h41q0 -30 -9 -58.5t-26 -50t-42.5 -35t-57.5 -13.5zM246 658q-27 0 -43.5 -7.5t-25.5 -21t-12 -32t-3 -40.5v-221q71 33 113.5 88.5t42.5 136.5q0 17 -3.5 34.5t-12 31.5t-22.5 22.5t-34 8.5z" />
    <glyph glyph-name="trademark" unicode="&#x2122;" horiz-adv-x="586" 
d="M557 750v-288h-22v252l-108 -145h-18l-108 145v-252h-21v288h21l117 -157l117 157h22zM261 750v-22h-105v-266h-21v266h-105v22h231z" />
    <glyph glyph-name="estimated" unicode="&#x212e;" horiz-adv-x="530" 
d="M490 239h-410v-90q0 -27 20.5 -48t49.5 -35t60 -21.5t53 -7.5q56 0 106.5 20t88.5 62l29 -28q-44 -48 -102 -71t-123 -23q-31 0 -69.5 10t-72.5 29t-57 47.5t-23 65.5v231q0 41 22.5 68.5t56 44.5t72 24.5t71.5 7.5q35 0 74.5 -6.5t74 -23t57 -44.5t22.5 -71v-141z
M80 280h370v100q0 33 -20 53.5t-49 32t-61 15.5t-57 4q-24 0 -55.5 -5t-60 -17t-48 -32.5t-19.5 -50.5v-100z" />
    <glyph glyph-name="partialdiff" unicode="&#x2202;" horiz-adv-x="582" 
d="M299 600q89 0 134.5 -40t45.5 -131q0 -33 -5 -65.5t-13 -64.5q-7 -30 -12.5 -54.5t-13 -47t-19 -45.5t-30.5 -49q-41 -55 -92.5 -79t-119.5 -24q-88 0 -131.5 42t-43.5 131q0 57 22 108.5t59.5 90.5t88.5 61.5t108 22.5q23 0 45.5 -3t43 -11.5t37.5 -22.5t28 -36
q1 9 1.5 18.5t0.5 19.5q0 74 -35 103.5t-107 29.5q-63 0 -108.5 -22.5t-78.5 -76.5h-49q42 75 99.5 110t144.5 35zM269 409q-24 0 -47.5 -3.5t-45.5 -12.5q-27 -12 -50.5 -35.5t-41.5 -53t-28 -62t-10 -61.5q0 -72 33 -103.5t103 -31.5q47 0 87.5 18t70.5 49t47.5 72.5
t17.5 89.5q0 72 -33 103t-103 31z" />
    <glyph glyph-name="product" unicode="&#x220f;" horiz-adv-x="467" 
d="M407 700v-850h-41v807l-262 1v-808h-42v850h345z" />
    <glyph glyph-name="summation" unicode="&#x2211;" horiz-adv-x="711" 
d="M559 562v98h-440q6 -8 21.5 -30t37 -51t45.5 -62.5t46 -64.5t39.5 -56t25.5 -38q2 -4 3.5 -6.5t2.5 -3.5q-1 -1 -6 -9q-8 -12 -25.5 -37t-39 -55.5t-45.5 -64t-45 -62.5t-37 -50.5t-21 -29.5h490v148h40v-168q0 -8 -6 -14t-14 -6h-551q-8 0 -14 6t-6 14q0 4 16 28
q11 17 27.5 41t36 51.5t40.5 56.5t40 55q26 35 45 61.5t25 34.5q-5 8 -24.5 34.5t-45.5 62.5q-19 27 -40 56t-40.5 57t-36 52.5t-27.5 41.5q-16 24 -16 28q0 8 6 14t14 6h499q8 0 14 -6t6 -14v-118h-40z" />
    <glyph glyph-name="minus" unicode="&#x2212;" horiz-adv-x="569" 
d="M540 368v-36h-510v36h510z" />
    <glyph glyph-name="uni2215" unicode="&#x2215;" horiz-adv-x="420" 
d="M360 700l-252 -700h-46l254 700h44z" />
    <glyph glyph-name="uni2219" unicode="&#x2219;" horiz-adv-x="270" 
d="M186 350q0 -26 -18.5 -44.5t-44.5 -18.5t-44.5 18.5t-18.5 44.5t18.5 44.5t44.5 18.5t44.5 -18.5t18.5 -44.5z" />
    <glyph glyph-name="radical" unicode="&#x221a;" horiz-adv-x="512" 
d="M631 638h-175l-242 -646q-5 -13 -19 -13q-13 0 -18 12l-70 143h-76v41h89q13 0 18 -12q3 -7 11 -23l16.5 -33t16 -33t11.5 -23l230 615q5 13 19 13h189v-41z" />
    <glyph glyph-name="infinity" unicode="&#x221e;" horiz-adv-x="641" 
d="M460 491q29 0 54.5 -11t45 -30t30.5 -45t11 -55t-11 -54.5t-30.5 -45t-45 -30.5t-54.5 -11q-36 0 -62 19t-47 47t-39 61t-37 61t-41 47t-52 19q-23 0 -43.5 -9t-36 -24.5t-24.5 -36t-9 -43.5t9 -43.5t24.5 -35.5t36 -24t43.5 -9q35 0 64 20.5t41 53.5l27 -10
q-15 -42 -51 -67.5t-81 -25.5q-29 0 -55 11t-45 30.5t-30 45t-11 54.5t11 55t30 45t45 30t55 11q35 0 61 -18.5t47 -47t38.5 -61t37 -61t42 -47t52.5 -18.5q23 0 43.5 9t35.5 24t24 35.5t9 43.5t-9 43.5t-24 36t-35.5 24.5t-43.5 9q-38 0 -68 -23t-41 -59l-27 8
q13 45 50.5 73.5t85.5 28.5z" />
    <glyph glyph-name="integral" unicode="&#x222b;" horiz-adv-x="383" 
d="M259 698q17 0 32.5 -4t30.5 -9l-15 -39q-25 10 -47 10q-14 0 -22.5 -6t-13 -15t-5.5 -20.5t-1 -23.5v-647q0 -41 -27 -65t-66 -24q-17 0 -32.5 3.5t-31.5 8.5l11 40q13 -4 26 -6.5t27 -2.5q23 0 37 12.5t14 35.5v646q0 20 4.5 39t14 34t25.5 24t39 9z" />
    <glyph glyph-name="approxequal" unicode="&#x2248;" horiz-adv-x="553" 
d="M62 263q27 10 50.5 22t54.5 12q30 0 56.5 -10.5t53 -23.5t53 -23.5t56.5 -10.5q16 0 29.5 3.5t26 9t25.5 11.5t27 10v-44q-14 -4 -27 -10t-25.5 -11.5t-26 -9t-29.5 -3.5q-29 0 -55.5 10.5t-53 23.5t-53 23.5t-56.5 10.5q-31 0 -54.5 -12t-51.5 -22v44zM62 368
q27 10 50.5 22t54.5 12q30 0 56.5 -10.5t53 -23.5t53 -23.5t56.5 -10.5q16 0 29.5 3.5t26 9t25.5 11.5t27 10v-44q-14 -4 -27 -10t-25.5 -11.5t-26 -9t-29.5 -3.5q-29 0 -55.5 10.5t-53 23.5t-53 23.5t-56.5 10.5q-31 0 -54.5 -12t-51.5 -22v44z" />
    <glyph glyph-name="notequal" unicode="&#x2260;" horiz-adv-x="630" 
d="M61 450h510v-36h-510v36zM61 286h510v-36h-510v36zM467 700l-252 -700h-46l254 700h44z" />
    <glyph glyph-name="lessequal" unicode="&#x2264;" horiz-adv-x="630" 
d="M141 433v49l350 233v-49l-313 -209l313 -208v-49zM571 106v-36h-510v36h510z" />
    <glyph glyph-name="greaterequal" unicode="&#x2265;" horiz-adv-x="630" 
d="M492 482v-49l-350 -233v49l313 208l-313 209v49zM571 144v-36h-510v36h510z" />
    <glyph glyph-name="lozenge" unicode="&#x25ca;" horiz-adv-x="720" 
d="M393 348l-162 -398l-150 398l150 402zM233 66l113 282l-114 286l-105 -286z" />
    <glyph glyph-name="uniF8FF" unicode="&#xf8ff;" horiz-adv-x="333" 
 />
    <glyph glyph-name="f_f" unicode="&#xfb00;" horiz-adv-x="739" 
d="M366 700v-42q-78 -1 -129.5 -30t-68.5 -101h198v-32h-204q-1 -7 -1.5 -13.5t-0.5 -14.5v-467h-42q0 117 0.5 232.5t-0.5 232.5q0 6 0.5 14.5t2.5 15.5h-60v32h64q11 52 33.5 85t54 52.5t71 27.5t82.5 8zM709 700v-42q-78 -1 -129.5 -30t-68.5 -101h198v-32h-204
q-1 -7 -1.5 -13.5t-0.5 -14.5v-467h-42q0 117 0.5 232.5t-0.5 232.5q0 6 0.5 14.5t2.5 15.5h-60v32h64q11 52 33.5 85t54 52.5t71 27.5t82.5 8z" />
    <glyph glyph-name="fi" unicode="&#xfb01;" horiz-adv-x="519" 
d="M366 700v-42q-79 0 -132 -36t-67 -95h199v-32h-204q-2 -14 -2 -29.5v-29.5v-436h-42v436v30t2 29h-60v32h65q16 78 79 125.5t162 47.5zM458 611v-42h-42v42h42zM458 528v-528h-42v528h42z" />
    <glyph glyph-name="fl" unicode="&#xfb02;" horiz-adv-x="519" 
d="M366 495h-204q-1 -7 -1.5 -13.5t-0.5 -13.5v-468h-42v232.5t-1 232.5q0 6 1 14.5t2 15.5h-60v32h65q11 52 33.5 85t54 52.5t71 27.5t82.5 8v-42q-78 -1 -130 -30t-69 -101h199v-32zM417 700h42v-700h-42v700z" />
    <glyph glyph-name="f_f_i" unicode="&#xfb03;" horiz-adv-x="857" 
d="M366 700v-42q-78 -1 -129.5 -30t-68.5 -101h198v-32h-204q-1 -7 -1.5 -13.5t-0.5 -14.5v-467h-42q0 117 0.5 232.5t-0.5 232.5q0 6 0.5 14.5t2.5 15.5h-60v32h64q11 52 33.5 85t54 52.5t71 27.5t82.5 8zM709 700v-42q-78 -1 -129.5 -30t-68.5 -101h198v-32h-204
q-1 -7 -1.5 -13.5t-0.5 -14.5v-467h-42q0 117 0.5 232.5t-0.5 232.5q0 6 0.5 14.5t2.5 15.5h-60v32h64q11 52 33.5 85t54 52.5t71 27.5t82.5 8zM754 569v42h42v-42h-42zM754 0v528h42v-528h-42z" />
    <glyph glyph-name="f_f_l" unicode="&#xfb04;" horiz-adv-x="868" 
d="M366 700v-42q-78 -1 -129.5 -30t-68.5 -101h198v-32h-204q-1 -7 -1.5 -13.5t-0.5 -14.5v-467h-42q0 117 0.5 232.5t-0.5 232.5q0 6 0.5 14.5t2.5 15.5h-60v32h64q11 52 33.5 85t54 52.5t71 27.5t82.5 8zM709 700v-42q-78 -1 -129.5 -30t-68.5 -101h198v-32h-204
q-1 -7 -1.5 -13.5t-0.5 -14.5v-467h-42q0 117 0.5 232.5t-0.5 232.5q0 6 0.5 14.5t2.5 15.5h-60v32h64q11 52 33.5 85t54 52.5t71 27.5t82.5 8zM808 0h-42v700h42v-700z" />
    <glyph glyph-name="longs_t" unicode="&#xfb05;" horiz-adv-x="623" 
d="M416 490q2 -32 1.5 -64.5t-1.5 -64.5t-1.5 -63.5t1.5 -60.5q6 -104 56 -149.5t151 -45.5v-42q-116 0 -178.5 54.5t-68.5 177.5v97q1 41 0.5 81t-2.5 80h-90v32h86q-4 26 -14.5 50.5t-27.5 43.5t-40 30.5t-52 11.5q-39 0 -65 -20t-41.5 -51t-21.5 -67t-6 -68v-451h-42v451
q0 52 12 104t49 90q22 23 51.5 38.5t62.5 15.5q38 0 69 -14.5t53.5 -39.5t36.5 -57t19 -67h99v-32h-96z" />
    <glyph glyph-name="grave.case" horiz-adv-x="300" 
d="M111 900h49l29 -88h-36z" />
    <glyph glyph-name="dieresis.case" horiz-adv-x="300" 
d="M180 879q0 8 6 14.5t15 6.5t15 -6.5t6 -14.5q0 -9 -6 -15t-15 -6t-15 6t-6 15zM78 879q0 8 6 14.5t15 6.5t15 -6.5t6 -14.5q0 -9 -6 -15t-15 -6t-15 6t-6 15z" />
    <glyph glyph-name="macron.case" horiz-adv-x="300" 
d="M-50 900h400v-36h-400v36z" />
    <glyph glyph-name="acute.case" horiz-adv-x="300" 
d="M111 812l29 88h49l-42 -88h-36z" />
    <glyph glyph-name="circumflex.case" horiz-adv-x="300" 
d="M156 949q43 -54 71 -88.5t45 -54.5q21 -24 32 -35h-35q-13 11 -32 31t-37 40q-21 24 -44 50q-24 -26 -47 -50q-20 -20 -41 -40t-37 -31h-35q15 11 38 35q20 20 50 54.5t72 88.5z" />
    <glyph glyph-name="caron.case" horiz-adv-x="300" 
d="M279 950q-10 -10 -26 -29q-14 -17 -38 -46t-60 -75q-35 46 -60 75t-42 46q-19 19 -32 29h29q14 -9 31.5 -26t34.5 -34q19 -20 39 -42q19 22 37 42q15 17 31 34t27 26h29z" />
    <glyph glyph-name="breve.case" horiz-adv-x="300" 
d="M242 900q-1 -45 -24.5 -68.5t-67.5 -23.5t-67.5 23.5t-24.5 68.5h31q0 -32 14.5 -46.5t46.5 -14.5q62 0 62 61h30z" />
    <glyph glyph-name="dotaccent.case" horiz-adv-x="300" 
d="M171 879q0 -9 -6 -15t-15 -6t-15 6t-6 15q0 8 6 14.5t15 6.5t15 -6.5t6 -14.5z" />
    <glyph glyph-name="ring.case" horiz-adv-x="300" 
d="M150 899q29 0 50 -20.5t21 -50.5q0 -29 -21 -50t-50 -21t-50 21t-21 50q0 30 21 50.5t50 20.5zM150 789q17 0 28 11.5t11 27.5q0 17 -11 28.5t-28 11.5t-28 -11.5t-11 -28.5q0 -16 11 -27.5t28 -11.5z" />
    <glyph glyph-name="tilde.case" horiz-adv-x="300" 
d="M-12 563q21 7 38.5 16t40.5 9t43 -8t39.5 -17.5t40 -17.5t42.5 -8q23 0 41 9.5t39 16.5v-33q-21 -7 -39 -16.5t-41 -9.5q-22 0 -42 8t-40 17.5t-40 17.5t-42 8q-23 0 -41 -9t-39 -16v33z" />
    <glyph glyph-name="hungarumlaut.case" horiz-adv-x="300" 
d="M154 812l29 88h49l-42 -88h-36zM68 812l30 88h48l-42 -88h-36z" />
    <glyph glyph-name="caron.salt" horiz-adv-x="428" 
d="M220 261q-42 55 -72 89t-50 54q-23 24 -38 35h35q16 -11 37 -31t41 -40q23 -24 47 -50q23 26 44 50q18 20 37 40t32 31h35q-11 -11 -32 -35q-17 -20 -45 -54t-71 -89z" />
    <glyph glyph-name="uni0326.salt" horiz-adv-x="163" 
d="M60 -51v63h42v-63q0 -4 -2 -13t-5.5 -19t-7 -18.5t-6.5 -9.5h-21q4 3 8 12t7 19t5 18.5t1 10.5h-21z" />
    </font>
</defs>
</svg>
