<?xml version="1.0" standalone="no"?>
<!DOCTYPE svg PUBLIC "-//W3C//DTD SVG 1.1//EN" "http://www.w3.org/Graphics/SVG/1.1/DTD/svg11.dtd" >
<svg xmlns="http://www.w3.org/2000/svg" xmlns:xlink="http://www.w3.org/1999/xlink" version="1.1">
<metadata>
Created by FontForge 20170731 at Mon Aug 10 01:27:05 2020
 By Aleksey,,,
This font is lisenced to afahmy.com for commercial license please contact the author.
</metadata>
<defs>
<font id="AbroSans-Bold" horiz-adv-x="697" >
  <font-face 
    font-family="Abro Sans"
    font-weight="700"
    font-stretch="normal"
    units-per-em="1000"
    panose-1="0 0 0 0 0 0 0 0 0 0"
    ascent="750"
    descent="-250"
    x-height="538"
    cap-height="704"
    bbox="-455 -265 1079 962"
    underline-thickness="50"
    underline-position="-175"
    unicode-range="U+000D-FB05"
  />
<missing-glyph horiz-adv-x="250" 
 />
    <glyph glyph-name=".notdef" horiz-adv-x="250" 
 />
    <glyph glyph-name=".null" horiz-adv-x="0" 
 />
    <glyph glyph-name=".null" horiz-adv-x="0" 
 />
    <glyph glyph-name="uni000D" unicode="&#xd;" horiz-adv-x="250" 
 />
    <glyph glyph-name="space" unicode=" " horiz-adv-x="345" 
 />
    <glyph glyph-name="exclam" unicode="!" horiz-adv-x="239" 
d="M180 539v-507h-119v507h119z" />
    <glyph glyph-name="quotedbl" unicode="&#x22;" horiz-adv-x="336" 
d="M30 688h118v-83h-118v83zM190 688h117v-83h-117v83z" />
    <glyph glyph-name="numbersign" unicode="#" horiz-adv-x="749" 
d="M250 186l-70 -186h-123l70 186h-97l36 93h96l55 148h-96l36 92h96l69 185h123l-69 -185h127l70 185h123l-70 -186h93l-35 -93h-93l-55 -147l92 -1l-35 -92h-92l-70 -185h-124l70 186h-127zM285 279l127 -1l56 148h-127z" />
    <glyph glyph-name="dollar" unicode="$" horiz-adv-x="613" 
d="M355 15q-11 -2 -19 -4.5t-13 -2.5q-11 0 -14 13h-117v-3q22 -8 56 -13q-11 -2 -19 -3.5t-14 -1.5q-17 0 -23 18q-27 11 -46 27t-31.5 38t-20 49t-12.5 58h117q3 -15 6.5 -29.5t9.5 -27.5t16.5 -23t27.5 -16q12 9 22.5 30t18.5 47.5t12.5 54t4.5 50.5q-29 16 -64 33
t-66.5 38t-56 47.5t-32.5 62.5q0 44 11.5 82t33 68.5t51 52t65.5 30.5q12 2 20 4.5t13 2.5q8 0 11 -13h119q-1 1 -1 4q-22 8 -55 13q10 2 18 3t15 1q18 0 22 -17q56 -20 78 -63.5t30 -108.5h-119q-3 15 -5.5 29t-7.5 26.5t-14.5 22t-27.5 14.5q-12 -10 -22.5 -31.5t-18 -48
t-11.5 -55t-4 -53.5q25 -16 59 -33t67 -37t59 -44.5t36 -57.5q0 -42 -13 -80t-35.5 -68.5t-52.5 -52.5t-64 -32zM203 438q0 20 3.5 44.5t10 48t14.5 42.5t17 28q-13 -9 -23.5 -25t-17 -36t-10 -41t-3.5 -41q-18 -29 -11 -29q5 0 20 9zM413 258q0 -19 -4 -43t-10.5 -46
t-15 -40t-17.5 -26q14 9 25 24.5t18 35t10.5 41t3.5 41.5q15 22 6 22q-4 0 -16 -9z" />
    <glyph glyph-name="percent" unicode="%" horiz-adv-x="764" 
d="M448 704h123l-264 -704h-124zM26 507q0 76 34.5 118.5t114.5 42.5t114.5 -42.5t34.5 -118.5t-34.5 -118.5t-114.5 -42.5t-114.5 42.5t-34.5 118.5zM175 440q12 0 18.5 6.5t9.5 16t3.5 21.5t0.5 23t-0.5 22.5t-3.5 21.5t-9.5 16t-18.5 6t-18.5 -6t-9.5 -16t-3.5 -21.5
t-0.5 -22.5t0.5 -23t3.5 -21.5t9.5 -16t18.5 -6.5zM441 195q0 76 34.5 118.5t114.5 42.5q79 0 114 -42.5t35 -118.5t-35 -118.5t-114 -42.5q-80 0 -114.5 42.5t-34.5 118.5zM572 154q6 -6 10 -6q5 0 8.5 6.5t12.5 14.5q6 6 10 15.5t4.5 19t-1.5 18.5t-8 14q-6 6 -10 6
q-5 0 -8.5 -7t-12.5 -15q-6 -6 -10 -15t-4.5 -18.5t1.5 -18.5t8 -14z" />
    <glyph glyph-name="ampersand" unicode="&#x26;" horiz-adv-x="665" 
d="M322 704q45 0 82.5 -13t64.5 -37.5t42 -61t15 -83.5q0 -35 -14.5 -64t-37.5 -52.5t-52 -40.5t-59 -28l107 -104q2 10 2 21t-2 22l121 -1q3 -19 3.5 -42t-2.5 -45q-3 -34 -13 -58l62 -59l-71 -77l-63 59q-45 -26 -95.5 -33t-101.5 -7q-55 0 -106.5 8t-91 31t-63 63.5
t-23.5 104.5q2 30 13 55.5t30 45.5t43 35t51 25q-26 31 -41 70t-15 80q0 49 16.5 84.5t45.5 58t68.5 33t84.5 10.5zM324 608q-43 0 -68.5 -17.5t-25.5 -64.5q0 -35 12.5 -69t38.5 -58q21 5 44.5 14t42.5 23t31.5 34t12.5 45q0 19 -6.5 36t-18.5 29.5t-28 20t-35 7.5z
M235 294q-16 -3 -32 -11.5t-29.5 -21t-22 -28.5t-8.5 -33q0 -38 17 -59t42.5 -31t56.5 -12t59 -2t56 3t53 15z" />
    <glyph glyph-name="quotesingle" unicode="'" horiz-adv-x="177" 
d="M30 688h118v-83h-118v83z" />
    <glyph glyph-name="parenleft" unicode="(" horiz-adv-x="281" 
d="M256 796q-54 -95 -83 -190t-29 -205q0 -65 6.5 -115t20 -94.5t34.5 -90t49 -101.5h-117q-28 56 -48.5 101.5t-34.5 90.5t-21 95t-7 114q0 107 29.5 204t77.5 191h123z" />
    <glyph glyph-name="parenright" unicode=")" horiz-adv-x="281" 
d="M37 0q28 57 49 102t34.5 89.5t20.5 94t7 115.5q0 110 -30 205t-83 190h103q49 -93 78 -191t29 -204q0 -64 -7 -113.5t-20.5 -95t-34 -91t-48.5 -101.5h-98z" />
    <glyph glyph-name="asterisk" unicode="*" horiz-adv-x="419" 
d="M268 519v-83l104 17l17 -94l-83 -14l56 -93l-98 -54l-54 90l-54 -90l-98 54l55 93l-82 14l17 94l102 -17v83h118z" />
    <glyph glyph-name="plus" unicode="+" horiz-adv-x="630" 
d="M372 622v-224h228v-89h-228v-215h-117v215h-225v89h225v224h117z" />
    <glyph glyph-name="comma" unicode="," horiz-adv-x="177" 
d="M30 0v96h118v-96q0 -37 -11 -65.5t-28 -29.5h-64q4 3 9.5 14t10 25.5t6.5 29.5t0 26h-41z" />
    <glyph glyph-name="hyphen" unicode="-" horiz-adv-x="628" 
d="M31 387h567v-71h-567v71z" />
    <glyph glyph-name="period" unicode="." horiz-adv-x="177" 
d="M30 107h118v-91h-118v91z" />
    <glyph glyph-name="slash" unicode="/" horiz-adv-x="491" 
d="M443 738l-292 -775h-101l292 775h101z" />
    <glyph glyph-name="zero" unicode="0" horiz-adv-x="649" 
d="M325 704q69 0 122 -32t89 -83t54.5 -113.5t18.5 -123.5t-18.5 -123.5t-54.5 -113.5t-89 -83t-122 -32t-122 32t-89 83t-54.5 113.5t-18.5 123.5t18.5 123.5t54.5 113.5t89 83t122 32zM325 609q-42 0 -73.5 -24t-52 -61.5t-30.5 -83t-10 -88.5t10 -88.5t30.5 -83t52 -61.5
t73.5 -24q43 0 74.5 24t52 61.5t30.5 83t10 88.5t-10 88.5t-30.5 83t-52 61.5t-74.5 24z" />
    <glyph glyph-name="one" unicode="1" horiz-adv-x="435" 
d="M277 704v-615h98v-89h-313v89h98v486h-70v72q27 0 48.5 12t21.5 45h117z" />
    <glyph glyph-name="two" unicode="2" horiz-adv-x="691" 
d="M166 95h485v-95h-606q0 10 -0.5 19.5t0.5 19.5v21t1 21q6 72 41.5 120.5t85 82t106 57.5t104.5 47t79.5 49.5t31.5 66.5q0 39 -14.5 60t-38.5 30.5t-54 11.5t-60 2q-34 0 -63 -2t-51.5 -12.5t-36.5 -32t-17 -60.5h-117q1 11 2 21t3 20q8 52 36 84t67 49t85.5 23t91.5 6
q52 0 103 -7.5t91 -29.5t65 -61t25 -102q0 -60 -30.5 -99t-76.5 -67.5t-101 -50.5t-104.5 -47.5t-86.5 -59.5t-46 -85z" />
    <glyph glyph-name="three" unicode="3" horiz-adv-x="650" 
d="M209 305v95q24 0 48.5 -0.5t48.5 -0.5h13.5t13.5 1q22 0 44.5 7.5t41 21t30 32.5t11.5 43q0 36 -9 56.5t-26.5 31t-42 13.5t-55.5 3q-34 0 -58.5 -3t-40 -14.5t-24.5 -33t-12 -57.5h-117q1 10 1.5 19t2.5 19q6 50 28.5 82t56.5 51t76 26t87 7q49 0 92 -8t76.5 -28.5
t55 -54.5t25.5 -85q0 -6 0.5 -12t0.5 -12q0 -41 -12 -79t-44 -64q47 -26 68 -67.5t21 -94.5q0 -63 -25 -101.5t-65 -60.5t-91 -29.5t-102 -7.5q-45 0 -92 6t-86.5 23.5t-67 50t-35.5 85.5q-2 9 -2.5 18.5t-2.5 19.5h118q3 -37 15.5 -58.5t33 -32t47.5 -13.5t60 -3q30 0 62 1
t57.5 10.5t42 30.5t16.5 61q0 37 -14 58t-36.5 31.5t-50.5 13.5t-57 3h-126z" />
    <glyph glyph-name="four" unicode="4" horiz-adv-x="671" 
d="M546 704v-348h66v-90h-66v-266h-117v266h-368v71l144 367h98l-134 -348h260v348h117z" />
    <glyph glyph-name="five" unicode="5" horiz-adv-x="652" 
d="M41 305l71 399h458v-90h-356l-37 -214q38 0 75.5 0.5t75.5 0.5q54 0 105.5 -6.5t91 -28t64 -61.5t24.5 -106q0 -63 -25 -101.5t-65.5 -60.5t-91.5 -29.5t-102 -7.5q-45 0 -91.5 6t-85.5 23t-67 48.5t-36 83.5q-2 11 -3 21t-2 21h117q4 -42 19 -64t38.5 -31.5t54 -10.5
t64.5 -1q29 0 57.5 2t51 12t36 31t13.5 58q0 38 -14.5 59.5t-37.5 32t-52.5 12.5t-58.5 2h-291z" />
    <glyph glyph-name="six" unicode="6" horiz-adv-x="649" 
d="M506 528q-39 41 -79 58t-97 17t-92 -22.5t-52 -76.5q29 23 65 31t75 8q62 0 114 -19t90 -54t59 -86t21 -114q0 -67 -20 -118t-56.5 -85t-89 -51.5t-118.5 -17.5q-137 0 -210.5 72.5t-73.5 209.5q0 54 2.5 106t12 99t28 86.5t50.5 68.5t79.5 45.5t114.5 16.5
q76 0 136.5 -21.5t111.5 -80.5zM326 448q-81 0 -123.5 -45t-42.5 -126q0 -42 9 -76t28.5 -58t51.5 -37t77 -13q87 0 127 47t40 130q0 79 -42.5 128.5t-124.5 49.5z" />
    <glyph glyph-name="seven" unicode="7" horiz-adv-x="599" 
d="M539 704v-62q-24 -68 -52.5 -151t-58.5 -169.5t-58.5 -170t-52.5 -151.5h-123q3 8 13 37t25 71.5t32.5 94t36.5 104.5t36.5 104.5t32.5 94t25 71.5t13 37h-346v90h477z" />
    <glyph glyph-name="eight" unicode="8" horiz-adv-x="649" 
d="M609 199q0 -63 -25 -101.5t-65.5 -60.5t-91.5 -29.5t-102 -7.5t-102 7.5t-91.5 29.5t-65.5 60.5t-25 101.5q0 53 21.5 95t68.5 67q-31 26 -43.5 64t-12.5 79q0 59 20 97.5t54 61t79.5 32t96.5 9.5t96.5 -9.5t79.5 -32t54 -61t20 -97.5q0 -41 -12 -79t-43 -64
q47 -25 68 -67t21 -95zM325 400q31 0 55.5 3t42 13.5t26.5 31t9 56.5t-9 56.5t-26.5 31t-42 13.5t-55.5 3q-30 0 -55 -3t-42 -13.5t-26.5 -31t-9.5 -56.5t9.5 -56.5t26.5 -31t42 -13.5t55 -3zM328 304q-30 0 -60 -1.5t-54.5 -11.5t-39.5 -31.5t-15 -60.5t15 -59.5t39 -30.5
t53.5 -11.5t58.5 -1.5q30 0 59.5 1.5t53.5 11.5t39 30.5t15 59.5q0 38 -15 59t-38.5 31t-52.5 12.5t-58 2.5z" />
    <glyph glyph-name="nine" unicode="9" horiz-adv-x="649" 
d="M146 162q37 -40 79.5 -57.5t96.5 -17.5q56 0 91.5 24t52.5 75q-30 -22 -66 -30.5t-75 -8.5q-62 0 -114 19t-90 54t-59 86t-21 114q0 67 20 118t57 85.5t89.5 52t117.5 17.5q137 0 211 -69t74 -207q0 -55 -3 -108.5t-13 -101t-29.5 -87.5t-52.5 -69t-82 -45.5t-117 -16.5
q-38 0 -70.5 4.5t-61.5 16.5t-55 31.5t-51 49.5zM325 242q87 0 126.5 47.5t39.5 130.5q0 86 -38 132t-128 46q-87 0 -126.5 -47t-39.5 -131q0 -79 42.5 -128.5t123.5 -49.5z" />
    <glyph glyph-name="colon" unicode=":" horiz-adv-x="178" 
d="M148 439v-115h-117v115h117zM41 241l107 -16l-10 -99l-107 16z" />
    <glyph glyph-name="semicolon" unicode=";" horiz-adv-x="178" 
d="M148 439v-115h-117v115h117zM31 241h117v-96q0 -37 -11 -65.5t-27 -29.5h-65q4 3 9.5 14t10 25.5t7 29.5t0.5 26h-41v96z" />
    <glyph glyph-name="less" unicode="&#x3c;" horiz-adv-x="475" 
d="M31 230v120l415 265l-1 -121l-320 -204l320 -204l1 -120z" />
    <glyph glyph-name="equal" unicode="=" horiz-adv-x="628" 
d="M31 481h567v-89h-567v89zM31 307h567v-90h-567v90z" />
    <glyph glyph-name="greater" unicode="&#x3e;" horiz-adv-x="476" 
d="M446 351v-121l-415 -264v120l320 204l-321 205l1 120z" />
    <glyph glyph-name="question" unicode="?" horiz-adv-x="518" 
d="M490 491q0 -43 -14.5 -69.5t-36 -45t-47.5 -34.5t-48.5 -38t-38.5 -54t-19 -83q-2 -11 -2 -23.5v-25.5h-117v20t1 20q1 64 17 106t38.5 70t49 46t48.5 33.5t37 33t15 45.5q0 32 -5 54.5t-17.5 36t-34 19.5t-54.5 6q-16 0 -34.5 -3t-35 -10.5t-28.5 -20t-15 -31.5
q-2 -10 -3 -20t-1 -21h-117q0 9 0.5 18t0.5 17q2 44 24 75.5t56 51.5t74.5 29.5t78.5 9.5q112 0 170 -49.5t58 -162.5zM284 49v-95h-118v95h118z" />
    <glyph glyph-name="at" unicode="@" horiz-adv-x="675" 
d="M548 -25q-20 -14 -47 -26t-56 -20.5t-58.5 -13.5t-53.5 -5q-88 0 -147 24t-95 69.5t-51 111t-15 147.5q0 81 15.5 146t51.5 110.5t95 70.5t146 25q85 0 144 -24t96 -69t53.5 -109t16.5 -144q0 -33 -3.5 -66.5t-15 -62t-32.5 -49t-56 -25.5q-9 -2 -18.5 -2t-18.5 1
q-26 2 -46.5 12.5t-34.5 30.5q-9 8 -17 20q-17 -3 -34 -4t-35 -1q-33 0 -61 10t-48 29t-31.5 46t-11.5 61q0 35 12 61.5t33 44.5t49.5 27t61.5 9q69 0 111 -36.5t42 -107.5v-16v-5v-15q0 -7 1 -19t3.5 -22.5t7 -18.5t12.5 -8q9 0 14.5 13t7.5 30.5t2.5 34t0.5 23.5
q0 56 -7.5 104.5t-29.5 84.5t-62 56.5t-105 20.5q-64 0 -104.5 -20.5t-62.5 -55.5t-30 -83t-8 -103q0 -56 7.5 -105t29 -86t62 -58t106.5 -21q38 0 76 12.5t70 32.5zM294 272q0 -25 8 -40t37 -15q28 0 36.5 13.5t8.5 38.5q0 24 -8 41t-37 17t-37 -14.5t-8 -40.5z" />
    <glyph glyph-name="A" unicode="A" horiz-adv-x="659" 
d="M381 704l272 -704h-121l-103 266h-199l-103 -266h-121l273 704h102zM265 356h129l-64 168z" />
    <glyph glyph-name="B" unicode="B" horiz-adv-x="670" 
d="M62 0v703h165t165 1q50 0 93.5 -12.5t75.5 -39t50.5 -66.5t18.5 -95q0 -61 -15.5 -103.5t-56.5 -71.5q35 -23 53 -57.5t18 -77.5q0 -50 -19.5 -84.5t-51 -56t-72.5 -30.5t-85 -9q-85 0 -169.5 -0.5t-169.5 -0.5zM179 358l226 1q61 5 84.5 40.5t23.5 91.5q0 67 -27 92
t-78 26h-35h-194v-251zM179 90h201h12.5t14.5 1q17 0 35.5 5t33.5 15.5t25 28t10 41.5q0 29 -9 46t-24.5 26t-36 12t-44.5 3h-218v-178z" />
    <glyph glyph-name="C" unicode="C" horiz-adv-x="681" 
d="M641 214q-19 -59 -44.5 -100t-60.5 -66.5t-82.5 -36.5t-109.5 -11q-87 0 -146 25t-95 71t-51.5 111t-15.5 145t15.5 145t51.5 111t95 71t146 25q63 0 110 -11.5t82.5 -37.5t60.5 -67t44 -100h-121q-6 32 -22.5 55t-40.5 37.5t-53.5 21.5t-59.5 7q-58 0 -95 -21.5t-58 -57
t-29 -82t-8 -96.5t8 -96.5t29 -82t58 -57t95 -21.5q38 0 65.5 5.5t47.5 19t35 36.5t28 58h121z" />
    <glyph glyph-name="D" unicode="D" horiz-adv-x="717" 
d="M399 703q82 -1 135.5 -31t85 -79t44.5 -112t13 -129q0 -61 -9.5 -116t-32 -99.5t-59.5 -76.5t-92 -47q-19 -6 -40.5 -9t-41.5 -3h-37q-76 -1 -151.5 -1h-151.5v704zM179 95h193q62 0 99 20.5t56.5 56t26 82t6.5 98.5t-6.5 98.5t-26 81.5t-56.5 55.5t-99 20.5h-193v-513z
" />
    <glyph glyph-name="E" unicode="E" horiz-adv-x="660" 
d="M601 704v-90h-422v-258h383v-90h-383v-177h422v-89h-539v704h539z" />
    <glyph glyph-name="F" unicode="F" horiz-adv-x="645" 
d="M601 704v-90h-422v-258h383v-90h-383v-266h-117v704h539z" />
    <glyph glyph-name="G" unicode="G" horiz-adv-x="686" 
d="M292 356h341v-171q0 -21 -14 -45.5t-27 -41.5q-43 -56 -107 -77t-136 -21q-87 0 -146 25t-95 70.5t-51.5 110.5t-15.5 146t15.5 146t51.5 110.5t95 70.5t146 25q46 0 87 -7.5t75.5 -24.5t61.5 -44t46 -67q9 -17 15 -35.5t12 -37.5h-121q-13 35 -27.5 58.5t-35 37.5
t-48 19.5t-65.5 5.5q-63 0 -100.5 -20t-57.5 -55t-26 -81.5t-6 -100.5t6 -100.5t26 -81.5t57.5 -55t100.5 -20q29 0 53.5 3.5t45.5 13.5t37.5 28t28.5 46l1 81h-223v89z" />
    <glyph glyph-name="H" unicode="H" horiz-adv-x="737" 
d="M678 704v-704h-118v266h-381v-266h-117v704h117v-348h381v348h118z" />
    <glyph glyph-name="I" unicode="I" horiz-adv-x="239" 
d="M179 0h-117v704h117v-704z" />
    <glyph glyph-name="J" unicode="J" horiz-adv-x="409" 
d="M353 700l1 -428q0 -68 -13 -119t-48 -85t-97 -51t-160 -17v116q36 0 72 5.5t64 19t45.5 38.5t17.5 64v457h118z" />
    <glyph glyph-name="K" unicode="K" horiz-adv-x="714" 
d="M62 704h117v-400l298 398h140l-281 -371l332 -331h-152l-245 246q-3 -4 -16 -21t-28.5 -37t-29.5 -38t-18 -26v-124h-117v704z" />
    <glyph glyph-name="L" unicode="L" horiz-adv-x="648" 
d="M601 0h-539v704h117v-615h422v-89z" />
    <glyph glyph-name="M" unicode="M" horiz-adv-x="827" 
d="M667 704h101v-704h-118v515l-191 -249h-88l-192 249v-515h-117v704h101l252 -325z" />
    <glyph glyph-name="N" unicode="N" horiz-adv-x="738" 
d="M678 704v-704h-101l-398 515v-515h-117v704h101l398 -515v515h117z" />
    <glyph glyph-name="O" unicode="O" 
d="M349 704q89 0 148 -24.5t94.5 -70t50.5 -110.5t15 -147q0 -83 -15 -148.5t-51 -110.5t-95 -69t-147 -24q-89 0 -148 24t-94.5 69.5t-50.5 111t-15 147.5t15 147.5t50.5 111t95 69.5t147.5 24zM349 609q-63 0 -101 -20.5t-57.5 -56t-25.5 -82t-6 -98.5q0 -55 6 -102.5
t26 -81.5t57.5 -53.5t100.5 -19.5t101 20.5t58 56t26 82t6 98.5q0 53 -6 99.5t-26.5 81.5t-58 55.5t-100.5 20.5z" />
    <glyph glyph-name="P" unicode="P" horiz-adv-x="657" 
d="M178 258v-258h-117v703h42h59.5t69 0.5t69 0.5h59.5h42q106 0 166.5 -56t60.5 -164q0 -78 -27.5 -123.5t-73 -68.5t-104 -29t-119.5 -6h-30t-34.5 0.5t-34 0.5h-28.5zM178 608v-255h164q39 0 70 3.5t53.5 16.5t34.5 39.5t12 71.5q0 56 -23.5 90.5t-82.5 34.5z" />
    <glyph glyph-name="Q" unicode="Q" horiz-adv-x="708" 
d="M657 352q0 -35 -3 -72t-12 -73t-24.5 -68.5t-41.5 -58.5l82 -80h-152l-22 21q-32 -12 -66 -16.5t-69 -4.5q-85 0 -143.5 25.5t-95 71.5t-53 111t-16.5 144q0 81 15.5 146.5t51.5 111t95 70t146 24.5t146 -25t95 -71t51.5 -111t15.5 -145zM540 352q0 55 -5.5 102
t-25.5 81.5t-57.5 54t-102.5 19.5q-63 0 -100.5 -20t-57.5 -55t-26 -82t-6 -100t6.5 -100t27 -82t58 -55t100.5 -20q13 0 25.5 1t24.5 5l-81 78h152l23 -24q14 18 22.5 42.5t13.5 51.5t7 54t2 49z" />
    <glyph glyph-name="R" unicode="R" horiz-adv-x="682" 
d="M642 0h-120l-102 262q-17 -2 -35 -3t-35 -1q-43 -1 -86 -0.5t-86 0.5v-258h-117v703h273q60 0 114 -6.5t94 -29.5t63.5 -66t23.5 -117q0 -28 -5.5 -56.5t-17.5 -54t-31 -47t-46 -35.5zM178 353h187q36 0 63.5 5.5t46 20.5t28 40.5t9.5 64.5q0 47 -12 72.5t-33.5 37
t-52.5 13t-70 1.5h-166v-255z" />
    <glyph glyph-name="S" unicode="S" horiz-adv-x="699" 
d="M659 206q0 -54 -27.5 -93t-69.5 -64.5t-92 -38t-96 -12.5q-55 0 -107 10.5t-95.5 34.5t-75.5 63.5t-47 97.5h121q12 -35 32.5 -56.5t47.5 -33.5t59 -16.5t65 -4.5q26 0 55 6.5t54.5 20t42 35t16.5 52.5q0 32 -21.5 51t-57 31t-80.5 19.5t-91.5 16t-91.5 20t-80.5 32.5
t-57 52.5t-21.5 80.5q0 53 28 89.5t70 60t91.5 34t92.5 10.5q60 0 112 -10t94 -34.5t73 -65t50 -100.5h-122q-12 36 -32.5 58.5t-47.5 35t-58.5 17t-66.5 4.5q-22 0 -51 -5t-54.5 -16t-43 -30t-17.5 -48q0 -33 21.5 -52t56.5 -30.5t80 -18t92 -13.5t92 -18.5t80 -32
t56.5 -54t21.5 -85.5z" />
    <glyph glyph-name="T" unicode="T" horiz-adv-x="677" 
d="M647 704v-90h-249v-614h-117v614h-250v90h616z" />
    <glyph glyph-name="U" unicode="U" 
d="M540 704h118v-354q0 -80 -16 -145t-52 -110.5t-95 -70t-145 -24.5q-87 0 -146 24.5t-95 70t-51.5 110.5t-15.5 145v354h117v-354q0 -52 7 -98.5t27 -81.5t58 -55t99 -20t98.5 20.5t57.5 55t27 81t7 98.5v354z" />
    <glyph glyph-name="V" unicode="V" horiz-adv-x="688" 
d="M665 704l-265 -704h-110l-266 704h123l198 -526l197 526h123z" />
    <glyph glyph-name="W" unicode="W" horiz-adv-x="995" 
d="M971 704l-244 -704h-100l-129 370l-127 -370h-101l-245 704h122l173 -499l117 339h122l118 -339l172 499h122z" />
    <glyph glyph-name="X" unicode="X" horiz-adv-x="685" 
d="M144 704l214 -282l191 281h127l-251 -369l254 -334h-138l-193 256l-208 -256h-134l277 340l-274 364h135z" />
    <glyph glyph-name="Y" unicode="Y" horiz-adv-x="673" 
d="M536 704h132l-263 -416v-288h-117v288l-282 416h136l203 -303z" />
    <glyph glyph-name="Z" unicode="Z" horiz-adv-x="667" 
d="M471 609h-424v95h575v-75l-444 -534h464v-95h-616v95z" />
    <glyph glyph-name="bracketleft" unicode="[" horiz-adv-x="311" 
d="M154 641v-580q8 0 20.5 -0.5t26 -1t26 -0.5h21.5l26 -84l-125 -9q-28 0 -56.5 9t-39.5 29q-15 9 -15 33v628q0 25 10 39.5t26 21.5t36 9t39 2l125 -9l-26 -85h-32.5h-12.5t-2.5 0t-2 -0.5t-12 -0.5t-32.5 -1z" />
    <glyph glyph-name="backslash" unicode="\" horiz-adv-x="464" 
d="M363 175l-49 -175l-213 529l49 175z" />
    <glyph glyph-name="bracketright" unicode="]" horiz-adv-x="311" 
d="M147 59q8 0 9.5 3t1.5 9q-2 144 -1 280t1 279q0 13 -11 13h-109v94h151q37 0 61 -17t24 -55v-628q0 -38 -24.5 -55t-60.5 -17h-151v94h109z" />
    <glyph glyph-name="asciicircum" unicode="^" horiz-adv-x="592" 
d="M562 324h-128l-138 260l-138 -260h-127l201 380h128z" />
    <glyph glyph-name="underscore" unicode="_" horiz-adv-x="628" 
d="M30 -11h568v-71h-568v71z" />
    <glyph glyph-name="grave" unicode="`" horiz-adv-x="186" 
d="M31 699h78l47 -140h-58z" />
    <glyph glyph-name="a" unicode="a" horiz-adv-x="654" 
d="M609 0h-117v67q-29 -40 -72 -57.5t-94 -17.5q-82 0 -137 21.5t-88 59t-46.5 89t-13.5 110.5q0 57 13 108t45.5 89t87 60.5t138.5 22.5t139 -22.5t87 -60.5t45 -89t13 -108v-272zM325 455q-48 0 -80.5 -10.5t-52 -32.5t-28 -56.5t-8.5 -83.5t8.5 -83.5t28 -56.5
t52.5 -32.5t81 -10.5t80.5 10.5t52 32.5t27.5 56.5t8 83.5t-8.5 83.5t-28 56.5t-52 32.5t-80.5 10.5z" />
    <glyph glyph-name="b" unicode="b" horiz-adv-x="669" 
d="M179 75v-74h-118v702h118v-227q31 42 72 58.5t94 16.5q83 0 137.5 -22.5t87 -61t46 -89t13.5 -107.5t-12.5 -108t-44.5 -89t-87 -60.5t-139 -22.5q-54 0 -97 19.5t-70 64.5zM345 448q-48 0 -79.5 -9.5t-51 -30.5t-27.5 -55t-8 -82q0 -92 37 -137.5t129 -45.5
q51 0 83.5 11.5t51 34t25 57t6.5 80.5q0 48 -8 82t-27.5 55t-51 30.5t-79.5 9.5z" />
    <glyph glyph-name="c" unicode="c" horiz-adv-x="647" 
d="M607 203q-15 -58 -38.5 -98.5t-57 -65.5t-79.5 -36t-106 -11q-84 0 -139 22.5t-87.5 61t-45.5 89t-13 107.5t13 107.5t45.5 89t87.5 60.5t139 22q62 0 108 -11.5t80 -37t56.5 -66.5t36.5 -100h-116q-10 36 -23 59.5t-31.5 37.5t-45.5 19.5t-65 5.5q-48 0 -80.5 -11
t-52 -33.5t-28 -57.5t-8.5 -84t8.5 -84t28 -57.5t52 -33.5t80.5 -11q36 0 62 5t45 18.5t32.5 36t24.5 57.5h117z" />
    <glyph glyph-name="d" unicode="d" horiz-adv-x="668" 
d="M491 703h117v-702h-117v74q-28 -45 -71 -62.5t-95 -17.5q-66 0 -119 15t-89.5 48t-56 85.5t-19.5 127.5t19 126.5t55.5 84t89.5 47t120 14.5q51 0 94.5 -14t71.5 -58v232zM325 448q-49 0 -81 -10t-51 -31.5t-27 -55t-8 -80.5t7 -81t26 -55.5t51 -32t83 -10.5
q47 0 78.5 11t51 33t28 56t8.5 79q0 47 -8 80.5t-27 55t-51 31.5t-80 10z" />
    <glyph glyph-name="e" unicode="e" horiz-adv-x="646" 
d="M325 552q84 0 139.5 -21.5t88.5 -63.5t45 -103t7 -140h-446q7 -70 45.5 -104t122.5 -34q61 0 99.5 18t45.5 60q5 6 8 17h117q-13 -53 -36.5 -89.5t-57 -58.5t-78 -31.5t-101.5 -9.5q-84 0 -138.5 22.5t-86.5 61t-45 89t-13 106.5q0 57 13 108t45.5 89.5t87 61t138.5 22.5
zM326 457q-87 0 -125 -36t-43 -108h332q-4 71 -41 107.5t-123 36.5z" />
    <glyph glyph-name="f" unicode="f" horiz-adv-x="425" 
d="M402 704v-95q-24 0 -52 -1t-54 -7t-45.5 -19.5t-27.5 -38.5h178v-85h-197q-1 -11 -1 -22v-22v-414h-117v413v45h-56v85h70q11 39 28 69t49.5 50.5t86 31t138.5 10.5z" />
    <glyph glyph-name="g" unicode="g" horiz-adv-x="653" 
d="M491 542h117v-526q0 -48 -15.5 -89t-49 -71.5t-87 -47.5t-129.5 -17q-78 0 -128.5 22t-82 52t-47 62t-22.5 52h120q7 -27 23.5 -45t38 -28.5t47 -15t51.5 -4.5q38 0 70 10.5t54 33t32.5 58.5t5.5 86q-26 -42 -71 -62t-92 -20q-139 0 -211.5 68.5t-72.5 211.5
q0 74 19.5 126t56 85t89.5 48.5t119 15.5q21 0 45.5 -4.5t47.5 -14.5t42 -25.5t30 -36.5v76zM492 272q0 29 -7.5 61t-26 59t-50.5 44.5t-80 17.5q-88 0 -127 -46t-39 -137q0 -36 9 -69.5t28.5 -59t50.5 -41t76 -15.5q90 0 128 47.5t38 138.5z" />
    <glyph glyph-name="h" unicode="h" horiz-adv-x="674" 
d="M511 0v298q-1 44 -11.5 73.5t-31 47t-51.5 25t-73 7.5q-76 0 -120.5 -32.5t-44.5 -113.5v-305h-118v704h118v-234q28 45 71 59.5t94 14.5q84 0 139 -21t87.5 -55t45.5 -77t13 -87v-304h-118z" />
    <glyph glyph-name="i" unicode="i" horiz-adv-x="239" 
d="M62 576v101h117v-101h-117zM62 0v545h117v-545h-117z" />
    <glyph glyph-name="j" unicode="j" horiz-adv-x="279" 
d="M100 678h118v-101h-118v101zM100 544h118v-142v-135.5t0.5 -136t0.5 -142.5q0 -58 -19.5 -104.5t-54 -79.5t-83 -51t-107.5 -18v120q67 2 105.5 32.5t38.5 102.5z" />
    <glyph glyph-name="k" unicode="k" horiz-adv-x="702" 
d="M179 704v-376l227 216h155l-226 -214l333 -330h-153l-258 257l-78 -75v-182h-118v704h118z" />
    <glyph glyph-name="l" unicode="l" horiz-adv-x="232" 
d="M172 0h-110v700h111z" />
    <glyph glyph-name="m" unicode="m" horiz-adv-x="1131" 
d="M574 454q18 26 41 43t49.5 27t55.5 14.5t59 5.5q59 0 112 -11.5t93.5 -39t64 -73.5t23.5 -114v-306h-117v191v74q0 48 -6 83.5t-24 58t-50.5 33.5t-85.5 11q-27 0 -52 -4t-45 -16q-30 -15 -48 -45.5t-18 -75.5v-310h-117v191q0 13 0.5 30.5t0.5 41.5q0 49 -6 84.5
t-24 58.5t-51 34t-86 11q-79 0 -121.5 -36t-42.5 -118v-297h-118v545h118v-75q28 44 73 59t91 15q32 0 64.5 -4t63 -14.5t57 -28t46.5 -43.5z" />
    <glyph glyph-name="n" unicode="n" horiz-adv-x="687" 
d="M509 0v57t0.5 61t0.5 60.5v56.5q0 49 -4.5 89t-22 68t-50.5 43.5t-90 15.5q-48 0 -79.5 -12.5t-50.5 -36t-26.5 -58.5t-7.5 -80v-264h-118v545h118v-75q33 46 75.5 60t88.5 14q59 0 110.5 -13t90 -41.5t60.5 -73.5t22 -110v-306h-117z" />
    <glyph glyph-name="o" unicode="o" horiz-adv-x="650" 
d="M610 272q0 -143 -71 -211.5t-213 -68.5q-143 0 -214 68.5t-71 211.5t71 211.5t214 68.5q142 0 213 -68.5t71 -211.5zM494 272q0 48 -8 83t-27.5 58.5t-51.5 34.5t-81 11t-81.5 -11t-52 -34.5t-27.5 -58.5t-8 -83t8 -83t27.5 -58t52 -34t81.5 -11t81 11t51.5 34t27.5 58
t8 83z" />
    <glyph glyph-name="p" unicode="p" horiz-adv-x="669" 
d="M629 271q0 -143 -67 -211t-209 -68q-52 0 -99.5 19t-74.5 63v-235h-118v703h118v-74q29 47 75 65t98 18q143 0 210 -68.5t67 -211.5zM352 453q-48 0 -81.5 -11.5t-53.5 -34t-29 -56.5t-9 -80q0 -47 9 -82t29.5 -57.5t53.5 -33.5t82 -11q46 0 76.5 11t49 33.5t26 57.5
t7.5 82q0 49 -7.5 83.5t-26 56.5t-49 32t-77.5 10z" />
    <glyph glyph-name="q" unicode="q" horiz-adv-x="669" 
d="M492 544h117v-703h-117v234q-27 -44 -72 -63.5t-95 -19.5q-143 0 -213.5 68t-70.5 212t70.5 210t213.5 66q50 0 95 -17.5t72 -61.5v75zM326 451q-50 0 -82.5 -10t-51 -31.5t-26 -55.5t-7.5 -82t7.5 -82.5t26 -57.5t51 -34t81.5 -11t81 11.5t51 34.5t27 57.5t8 81.5
q0 45 -8 79t-27 56t-51 33t-80 11z" />
    <glyph glyph-name="r" unicode="r" horiz-adv-x="418" 
d="M379 451q-43 0 -80 -5t-64 -21.5t-42 -47t-15 -81.5v-296h-117v542h117v-73q19 28 41.5 44t48 24t53.5 10t58 2v-98z" />
    <glyph glyph-name="s" unicode="s" horiz-adv-x="633" 
d="M340 -10q-53 0 -100.5 9.5t-86.5 32t-67.5 59.5t-43.5 91h120q11 -30 29.5 -49t42 -29.5t51 -14t57.5 -3.5q18 0 40.5 2.5t42.5 10.5t33.5 22.5t13.5 37.5q0 22 -18 35t-48 21t-67.5 12.5t-77.5 10.5t-77.5 14.5t-67.5 24t-48 40t-18 62.5q0 47 23 80.5t59 54.5t79.5 31
t83.5 10q54 0 102 -8.5t86.5 -30t66.5 -58t41 -92.5h-119q-10 32 -27 51.5t-39.5 30.5t-50 14.5t-58.5 3.5q-21 0 -44.5 -5.5t-42.5 -16t-31.5 -26.5t-12.5 -38q0 -27 31.5 -39.5t78.5 -20t101.5 -14.5t101.5 -22.5t78.5 -44t31.5 -78.5q0 -52 -23 -85.5t-59 -52.5
t-80.5 -26t-86.5 -7z" />
    <glyph glyph-name="t" unicode="t" horiz-adv-x="444" 
d="M422 0q-64 0 -121 9t-99.5 34t-68 71.5t-27.5 121.5q-2 106 0 222h-89v86h89v156h118v-156h201v-86h-201v-215q0 -51 15.5 -80.5t42 -44.5t62.5 -19t78 -4v-95z" />
    <glyph glyph-name="u" unicode="u" horiz-adv-x="660" 
d="M497 545h118v-303q0 -65 -22 -111.5t-60.5 -76.5t-90.5 -44t-112 -14q-63 0 -115 15t-89 46.5t-58 79.5t-22 114l1 294h117v-302q0 -80 45 -115t121 -35q35 0 65 9.5t52.5 28t35 46t12.5 64.5z" />
    <glyph glyph-name="v" unicode="v" horiz-adv-x="664" 
d="M635 545l-251 -545h-103l-252 545h126l177 -386l178 386h125z" />
    <glyph glyph-name="w" unicode="w" horiz-adv-x="1096" 
d="M773 159l178 386h121l-250 -545h-102l-171 386l-177 -386h-96l-252 545h122l177 -385l177 385h86q22 -47 38 -80.5t29.5 -61t26 -51.5t26 -51.5t29.5 -61t38 -80.5z" />
    <glyph glyph-name="x" unicode="x" horiz-adv-x="685" 
d="M657 545l-238 -274l239 -271h-141l-175 195l-163 -195h-150l240 277l-241 268h150l169 -193l170 193h140z" />
    <glyph glyph-name="y" unicode="y" horiz-adv-x="611" 
d="M598 545q-27 -57 -56.5 -121t-60.5 -132t-63.5 -137.5t-64.5 -135.5q-13 -30 -28.5 -61t-35.5 -57t-46 -46t-61 -28q-34 -10 -70 -11t-76 -3v94q48 1 76 1t49 12q18 11 37.5 42t42.5 73l-226 510h123l166 -376l171 376h123z" />
    <glyph glyph-name="z" unicode="z" horiz-adv-x="674" 
d="M598 538v-76l-370 -367h394v-95h-568v76l375 367h-375v95h544z" />
    <glyph glyph-name="braceleft" unicode="{" horiz-adv-x="408" 
d="M243 665v-257q0 -17 -5.5 -31.5t-18.5 -24.5q13 -10 18.5 -24t5.5 -31v-239v-11.5t1 -10.5h20h108v-97h-160q-42 0 -65 20.5t-23 62.5v268q-15 11 -40 14.5t-46 7.5v80q21 4 46 8t41 14l-1 268q0 27 11 48t40 28q17 6 37 6h160v-96h-108q-12 0 -21 -3z" />
    <glyph glyph-name="bar" unicode="|" horiz-adv-x="192" 
d="M38 550h117v-396h-117v396z" />
    <glyph glyph-name="braceright" unicode="}" horiz-adv-x="408" 
d="M167 665q-10 3 -21 3h-108v96h159q38 0 63 -17.5t25 -57.5v-275q16 -10 41 -14t46 -8v-80q-22 -4 -47 -7.5t-41 -14.5l1 -268q0 -18 -6 -30.5t-16 -20.5t-23.5 -12.5t-27.5 -5.5q-10 -3 -28 -6t-38 -4.5t-39.5 -2.5t-33.5 -1l-35 85l73 12h53q3 9 3 22v239q0 17 5.5 31
t18.5 24q-13 10 -18.5 24.5t-5.5 31.5v257z" />
    <glyph glyph-name="asciitilde" unicode="~" horiz-adv-x="491" 
d="M28 378q13 4 29 9.5t32 10.5t32 8.5t29 3.5q26 0 51 -8t48.5 -17t46 -17t43.5 -8q35 0 63.5 13t60.5 22v-76q-32 -8 -61 -20t-63 -12q-27 0 -51.5 8t-47.5 17t-45 17t-44 8q-13 0 -29 -4t-32.5 -9.5t-32 -11.5t-29.5 -10v76z" />
    <glyph glyph-name="exclamdown" unicode="&#xa1;" horiz-adv-x="224" 
d="M54 164v551h118v-551h-118z" />
    <glyph glyph-name="cent" unicode="&#xa2;" horiz-adv-x="607" 
d="M586 203q-13 -48 -30.5 -83t-44 -59t-63 -38t-87.5 -20v-129h-117v130q-112 12 -167.5 76.5t-55.5 191.5t55.5 191.5t167.5 77.5v130h117v-130q51 -5 88.5 -19t64 -39t44 -61t29.5 -86h-117q-10 36 -23 58.5t-32 35t-46 17t-64 4.5q-49 0 -81.5 -10t-52 -31.5
t-27.5 -55.5t-8 -82t8 -82t27.5 -55.5t52 -31.5t81.5 -10q36 0 62 4t45.5 16t33 33.5t23.5 56.5h117z" />
    <glyph glyph-name="sterling" unicode="&#xa3;" horiz-adv-x="770" 
d="M163 399q0 59 14.5 113.5t49 97.5t91 68.5t140.5 25.5q59 0 103 -11t78 -35.5t58.5 -63t42.5 -93.5h-119q-12 32 -26.5 52.5t-34 33t-44.5 17.5t-58 5q-56 0 -91 -18.5t-54 -48.5t-25.5 -67.5t-6.5 -75.5h303v-89l-304 -1v-41l304 -1v-89h-304v-84h369v-95h-80.5h-107.5
t-120.5 0.5t-120.5 0.5h-107.5h-81.5v94h132v84h-132v89h132v42h-132v90h132z" />
    <glyph glyph-name="currency" unicode="&#xa4;" horiz-adv-x="473" 
d="M127 213l-38 -36l-61 58l35 34q-25 38 -25 82q0 23 7.5 45.5t21.5 41.5l-39 37l61 58l44 -42q38 20 81 20t81 -20l44 42l61 -58l-39 -37q29 -38 29 -87q0 -44 -25 -82l35 -34l-61 -58l-38 36q-38 -22 -87 -22q-23 0 -45 5.5t-42 16.5zM292 353q0 17 -5.5 32t-16 27
t-25 18.5t-31.5 6.5t-31.5 -6.5t-25 -18.5t-16 -27t-5.5 -32q0 -16 5.5 -31.5t16 -27.5t25 -18.5t31.5 -6.5t31.5 6.5t25 18.5t16 27.5t5.5 31.5z" />
    <glyph glyph-name="yen" unicode="&#xa5;" horiz-adv-x="737" 
d="M700 704l-194 -306h148v-89h-205l-12 -21v-43h217v-89h-217v-156h-118v156h-233v89h233v42l-14 22h-219v89l159 -1q-22 33 -48.5 73t-54.5 81t-54.5 80.5t-49.5 72.5l136 -1l194 -293h18l182 294h132z" />
    <glyph glyph-name="brokenbar" unicode="&#xa6;" horiz-adv-x="177" 
d="M30 529h118v-169h-118v169zM30 340h118v-165h-118v165z" />
    <glyph glyph-name="section" unicode="&#xa7;" horiz-adv-x="454" 
d="M333 244q39 -9 60 -32t21 -64q0 -35 -17 -62.5t-44 -46.5t-60 -29t-65 -10q-30 0 -63 8.5t-60.5 26t-45 44t-17.5 61.5h85q0 -18 10 -31.5t25 -22.5t33 -13.5t33 -4.5q17 0 35 5.5t33 15.5t24.5 25t9.5 34q0 20 -21.5 32t-53.5 22t-69.5 20t-69.5 26t-53.5 41t-21.5 64
q0 37 23 64t54 42q-34 17 -55.5 44t-21.5 67q0 36 18.5 61t46.5 40t61 22t62 7q31 0 61.5 -8.5t55.5 -25t43 -41t25 -56.5l-82 -18q-9 42 -34.5 61.5t-68.5 19.5q-14 0 -32 -3t-34 -10t-27 -19t-11 -30q0 -27 21.5 -44t53.5 -28.5t69.5 -22t70 -25t53.5 -37t21 -59.5
q1 -41 -22.5 -67t-58.5 -43zM229 416q-14 0 -32 -3t-34 -10t-27 -19.5t-11 -30.5t10.5 -31t26 -21t33.5 -12t33 -4q16 0 34 4t33 12.5t25 22t10 32.5q0 14 -11.5 25t-27.5 19t-33.5 12t-28.5 4z" />
    <glyph glyph-name="dieresis" unicode="&#xa8;" horiz-adv-x="314" 
d="M179 648q0 22 15.5 37t37.5 15t37 -15t15 -37t-15 -37.5t-37 -15.5t-37.5 15.5t-15.5 37.5zM31 648q0 22 15 37t37 15t37.5 -15t15.5 -37t-15.5 -37.5t-37.5 -15.5t-37 15.5t-15 37.5z" />
    <glyph glyph-name="copyright" unicode="&#xa9;" horiz-adv-x="546" 
d="M519 349q0 -119 -62.5 -183t-183.5 -64t-183 63.5t-62 183.5t62 185.5t183 65.5t183.5 -65.5t62.5 -185.5zM92 349q0 -90 45 -136t136 -46t136 46t45 136q0 91 -44.5 138t-136.5 47q-91 0 -136 -47t-45 -138zM393 320q-8 -47 -39.5 -66t-80.5 -19q-58 0 -89 27t-31 87
t31 86t89 26q49 0 81 -18t39 -71h-63q-5 26 -18 33t-37 7q-37 0 -48 -13t-11 -50q0 -32 12 -48.5t47 -16.5q23 0 36 7.5t19 28.5h63z" />
    <glyph glyph-name="ordfeminine" unicode="&#xaa;" horiz-adv-x="336" 
d="M200 390q-2 16 -14 22t-30 6q-26 0 -55 -8.5t-45 -14.5l-28 72q21 7 46.5 14t51 12t49.5 6.5t43 -2.5q26 -5 43 -23.5t27 -45.5t15 -59t7 -65t2.5 -65t1.5 -57l-84 -1l-4 33q-16 -17 -37.5 -26t-44.5 -11q-22 -2 -43 3t-37 15.5t-26.5 26t-13.5 34.5q-8 48 39.5 81.5
t136.5 52.5zM214 319q-4 4 -15 4t-25.5 -3.5t-28 -9.5t-23 -13.5t-10.5 -16.5q-2 -14 11 -18.5t24 -4.5q17 0 35 10t27 25q5 15 5 27z" />
    <glyph glyph-name="guillemotleft" unicode="&#xab;" horiz-adv-x="443" 
d="M123 246q6 -7 25 -31t41 -51t41.5 -50.5t25.5 -31.5q-2 -1 -12 -7.5t-21 -14.5q-14 -9 -31 -20q-1 1 -11 13.5t-25 31t-33 41t-35 43.5t-31.5 39t-21.5 27q-9 12 0 22q0 1 11.5 15t29 35.5t37.5 46.5t37.5 46.5t29 36t12.5 15.5l64 -41zM281 246q6 -7 25 -31t41 -51
t41.5 -50.5t25.5 -31.5q-1 -1 -11.5 -7.5t-22 -14t-21 -14l-9.5 -6.5q-1 1 -10.5 13.5t-24.5 31t-33 41t-35.5 43.5t-32 39t-21.5 27q-9 12 0 22q1 1 12.5 15t28.5 35.5t37.5 46.5t37.5 46.5t29 36t12 15.5l64 -41z" />
    <glyph glyph-name="logicalnot" unicode="&#xac;" horiz-adv-x="522" 
d="M31 387h453v-180h-94v109h-359v71z" />
    <glyph glyph-name="registered" unicode="&#xae;" horiz-adv-x="547" 
d="M452 287q22 -67 9.5 -100t-56.5 -33q-26 0 -52 7.5t-49 17.5q13 22 17 62l-30 77q-14 -1 -28.5 -1h-28.5v-76h-8q0 -8 2 -18q18 -13 37 -24t39 -20q-11 -20 -31 -20q-33 0 -45 64q-5 5 -11 9t-11 9h-23v21q-60 61 -88 148q-23 67 -10.5 100.5t57.5 33.5q28 0 70 -15
q14 -4 30 -11q-10 -19 -16 -56q12 0 24 0.5t24 -0.5q26 0 47 -6q-1 5 -1.5 9.5t-1.5 8.5q-17 14 -36 24.5t-40 19.5q12 20 31 20q33 0 45 -64q46 -34 80 -80.5t54 -106.5zM234 357h38q18 1 31 7t13 26t-12.5 25.5t-31.5 5.5q-10 1 -19.5 0.5t-18.5 -0.5v-64z" />
    <glyph glyph-name="macron" unicode="&#xaf;" horiz-adv-x="522" 
d="M392 700l100 -80l-362 -9l-100 80z" />
    <glyph glyph-name="degree" unicode="&#xb0;" horiz-adv-x="217" 
d="M109 750q26 0 49.5 -10t40.5 -27t27 -40.5t10 -49.5t-10 -49t-27 -40t-40.5 -27t-49.5 -10t-49 10t-40.5 27t-27.5 40t-10 49t10 49.5t27.5 40.5t40.5 27t49 10zM109 578q19 0 32 13t13 32t-13 32.5t-32 13.5t-32 -13.5t-13 -32.5t13 -32t32 -13z" />
    <glyph glyph-name="plusminus" unicode="&#xb1;" horiz-adv-x="630" 
d="M600 442v-89h-228v-216h-117v216h-225v89h225v223h117v-223h228zM599 90v-89h-569v89h569z" />
    <glyph glyph-name="twosuperior" unicode="&#xb2;" horiz-adv-x="356" 
d="M110 397h-79q0 70 39 104t107 34q24 0 48 -5t42.5 -16t30.5 -30t12 -48q0 -30 -18 -53t-43 -41t-51 -33t-41 -30h169v-67h-295v53q0 27 14 44.5t34.5 30t44.5 21t44.5 18.5t34.5 23t14 33q0 17 -16.5 22.5t-29.5 5.5q-39 0 -50 -15t-11 -51z" />
    <glyph glyph-name="threesuperior" unicode="&#xb3;" horiz-adv-x="315" 
d="M158 231q-24 0 -45 3t-37.5 11.5t-28.5 25t-17 43.5l81 16q4 -24 13.5 -32.5t35.5 -8.5q17 0 30 5t13 25q0 14 -6.5 20.5t-16.5 9.5t-22 2.5t-22 -0.5v59q12 0 22 0.5t17.5 3.5t11.5 10t4 20q0 30 -31 30q-20 0 -26.5 -8t-6.5 -26h-82q0 25 9.5 42.5t25.5 28.5t37 16
t43 5q21 0 41.5 -4.5t36.5 -15t26 -27t10 -41.5q0 -34 -21 -58q16 -12 24.5 -29.5t8.5 -37.5q0 -28 -11.5 -45t-29.5 -26.5t-41 -13t-46 -3.5z" />
    <glyph glyph-name="acute" unicode="&#xb4;" horiz-adv-x="186" 
d="M31 559l47 140h78l-67 -140h-58z" />
    <glyph glyph-name="paragraph" unicode="&#xb6;" horiz-adv-x="507" 
d="M448 699v-700h-76v625h-43v-625h-76v298q-22 -6 -45 -6q-33 0 -63 12.5t-53.5 34.5t-37 52.5t-13.5 66.5v77q0 34 13 64t35.5 52.5t53 35.5t64.5 13h241z" />
    <glyph glyph-name="periodcentered" unicode="&#xb7;" horiz-adv-x="178" 
d="M31 393h117v-83h-117v83z" />
    <glyph glyph-name="cedilla" unicode="&#xb8;" horiz-adv-x="208" 
d="M228 83l-48 -75q17 -14 26.5 -32t9.5 -40q0 -47 -31.5 -77.5t-78.5 -30.5q-13 0 -26.5 4t-24 12t-17.5 19.5t-7 26.5t10.5 25.5t26.5 10.5q11 0 18 -5.5t13 -12.5l12 -14t15 -10q11 2 16 11.5t5 19.5t-5.5 18.5t-14 14.5t-18.5 10.5t-18 7.5l82 117h55z" />
    <glyph glyph-name="onesuperior" unicode="&#xb9;" horiz-adv-x="309" 
d="M279 278v-82h-248v82h77v112h-77v73q40 0 58.5 11t17.5 45h103v-241h69z" />
    <glyph glyph-name="ordmasculine" unicode="&#xba;" horiz-adv-x="414" 
d="M67 385q-10 49 16 75t67 26q31 0 63.5 -13t60.5 -34.5t48.5 -49.5t26.5 -58q10 -49 -16 -75t-68 -26q-31 0 -63.5 13t-60.5 34.5t-48 49.5t-26 58zM169 322q-19 -21 -14 -21q4 0 17 12q9 7 19 17.5t20 22t19.5 22.5t16.5 19q19 21 14 21q-3 0 -17 -11q-9 -7 -19 -18
t-20 -22.5t-19.5 -22.5t-16.5 -19z" />
    <glyph glyph-name="guillemotright" unicode="&#xbb;" horiz-adv-x="444" 
d="M252 452q1 -1 12.5 -15.5t29 -36t37.5 -46.5t37.5 -46.5t29.5 -36l12 -14.5q9 -10 0 -22q-7 -9 -21.5 -27t-32 -39t-35.5 -43.5t-33 -41t-25 -31t-11 -13.5q-17 11 -30 20q-11 8 -21 14.5t-12 7.5l133 164l-133 165zM94 452q1 -1 12.5 -15.5t29 -36t37.5 -46.5
t37.5 -46.5t29.5 -36l12 -14.5q9 -10 0 -22q-7 -9 -21.5 -27t-32 -39t-35.5 -43.5t-33 -41t-25 -31t-11 -13.5q-17 11 -30 20q-11 8 -21 14.5t-12 7.5l133 164l-133 165z" />
    <glyph glyph-name="onequarter" unicode="&#xbc;" horiz-adv-x="785" 
d="M378 174l-175 -176l190 529l176 175zM279 457v-82h-248v82h76v112h-76v73q20 0 34.5 0.5t24 5.5t13.5 16.5t4 33.5h103v-241h69zM621 373l-57 -156h90v156h102v-322h-102v82h-185v80l58 160h94z" />
    <glyph glyph-name="onehalf" unicode="&#xbd;" horiz-adv-x="768" 
d="M298 0h-124l266 704h123zM279 457v-82h-248v82h77v112h-77v73q20 0 34.5 0.5t24 5.5t14 16.5t4.5 33.5h102v-241h69zM443 242q0 70 39 104t107 34q24 0 48 -5t42.5 -16t30.5 -30t12 -48q0 -30 -18 -53t-43 -41t-51 -33t-42 -30h170v-67h-295v54q0 27 14 44t34.5 29.5
t44.5 21.5t44.5 18.5t34.5 22.5t14 33q0 17 -16.5 22.5t-30.5 5.5q-39 0 -49.5 -15t-11.5 -51h-78z" />
    <glyph glyph-name="threequarters" unicode="&#xbe;" horiz-adv-x="775" 
d="M384 176l-176 -175l191 529l175 175zM168 376q-26 0 -49 3t-41 12.5t-30 27t-18 46.5l87 18q5 -26 15 -35t37 -9q18 0 32 5t14 27q0 14 -7.5 21t-18.5 10t-23.5 3h-22.5v63h22.5t18.5 3t13 10.5t5 22.5q0 32 -33 32q-20 0 -27 -9t-7 -27h-90q0 27 10.5 45.5t28 30.5
t39.5 17.5t46 5.5q23 0 45 -5t39.5 -16t28 -29t10.5 -45q0 -17 -6 -33t-17 -29q17 -13 26 -32t9 -39q0 -30 -12 -48.5t-31.5 -29t-44 -14t-48.5 -3.5zM610 374l-57 -156h90v156h102v-322h-102v90h-174l-1 72l59 160h83z" />
    <glyph glyph-name="questiondown" unicode="&#xbf;" horiz-adv-x="484" 
d="M330 700v-91h-113v91h113zM329 562q0 -65 -15 -109t-38 -74t-49.5 -50.5t-49.5 -38.5t-38.5 -38t-15.5 -50q0 -53 32 -82t84 -30q54 0 84 24.5t28 79.5h113q0 -49 -18 -85.5t-48.5 -60.5t-71.5 -36t-87 -12q-44 0 -84 13.5t-70 38t-47.5 61t-17.5 83.5q0 44 15 73t37 52
t48 43t48 46.5t36.5 62t14.5 89.5h110z" />
    <glyph glyph-name="Agrave" unicode="&#xc0;" horiz-adv-x="657" 
d="M337 875l30 -119h-111l-40 119h121zM230 266l-103 -266h-121l273 704h100l273 -704h-121l-103 266h-198zM265 355h128l-64 169z" />
    <glyph glyph-name="Aacute" unicode="&#xc1;" horiz-adv-x="657" 
d="M437 876l-39 -119h-111l29 119h121zM230 266l-103 -266h-121l273 704h100l273 -704h-121l-103 266h-198zM265 355h128l-64 169z" />
    <glyph glyph-name="Acircumflex" unicode="&#xc2;" horiz-adv-x="659" 
d="M381 704l272 -704h-121l-103 266h-199l-103 -266h-121l273 704h102zM265 356h129l-64 168zM337 832q-8 5 -15 12l-12 12q14 17 31 50q20 -46 32 -67q7 -13 12 -22l-18 6q-8 2 -16 4.5t-14 4.5zM303 809v16q-2 3 -8 5q-2 1 -5 2q2 1 4 4l4.5 4.5t6.5 7.5q1 4 1 10q1 1 1 3
l1 -1l2 -4q-4 -6 -5 -8q-1 -5 -1.5 -10.5t-0.5 -12.5q5 -7 0 -16z" />
    <glyph glyph-name="Atilde" unicode="&#xc3;" horiz-adv-x="659" 
d="M381 704l272 -704h-121l-103 266h-199l-103 -266h-121l273 704h102zM265 356h129l-64 168zM126 849q12 4 27 9.5t30.5 11t31 9.5t27.5 4q24 0 47 -8t45 -18t42.5 -18t39.5 -8q32 0 60 14t58 24v-85q-29 -9 -57.5 -21.5t-60.5 -12.5q-25 0 -48 8t-44.5 18t-41.5 18t-39 8
q-13 0 -28 -4.5t-31 -10.5t-31 -12.5t-27 -10.5v85z" />
    <glyph glyph-name="Adieresis" unicode="&#xc4;" horiz-adv-x="659" 
d="M356 813q0 22 15.5 37.5t37.5 15.5t37 -15.5t15 -37.5t-15 -37t-37 -15t-37.5 15t-15.5 37zM207 813q0 22 15.5 37.5t37.5 15.5t37 -15.5t15 -37.5t-15 -37t-37 -15t-37.5 15t-15.5 37zM381 704l272 -704h-121l-103 266h-198l-103 -266h-122l273 704h102zM266 356h128
l-64 168z" />
    <glyph glyph-name="Aring" unicode="&#xc5;" horiz-adv-x="659" 
d="M381 704l272 -704h-121l-103 266h-199l-103 -266h-121l273 704h102zM265 356h129l-64 168zM330 906q29 0 50 -20.5t21 -50.5q0 -29 -21 -50t-50 -21t-50 21t-21 50q0 30 21 50.5t50 20.5zM330 807q13 0 21 7.5t8 20.5q0 14 -8 21.5t-21 7.5t-21 -8t-8 -21t8 -20.5
t21 -7.5z" />
    <glyph glyph-name="AE" unicode="&#xc6;" horiz-adv-x="1105" 
d="M381 704l272 -704h-121l-103 266h-199l-103 -266h-121l273 704h102zM265 356h129l-64 168zM1045 704v-90h-422v-258h383v-90h-383v-177h422v-89h-539v704h539z" />
    <glyph glyph-name="Ccedilla" unicode="&#xc7;" horiz-adv-x="681" 
d="M641 214q-19 -59 -44.5 -100t-60.5 -66.5t-82.5 -36.5t-109.5 -11q-87 0 -146 25t-95 71t-51.5 111t-15.5 145t15.5 145t51.5 111t95 71t146 25q63 0 110 -11.5t82.5 -37.5t60.5 -67t44 -100h-121q-6 32 -22.5 55t-40.5 37.5t-53.5 21.5t-59.5 7q-58 0 -95 -21.5t-58 -57
t-29 -82t-8 -96.5t8 -96.5t29 -82t58 -57t95 -21.5q38 0 65.5 5.5t47.5 19t35 36.5t28 58h121zM466 83l-48 -75q17 -14 26.5 -32t9.5 -40q0 -47 -31.5 -77.5t-78.5 -30.5q-13 0 -26.5 4t-24 12t-17.5 19.5t-7 26.5t10.5 25.5t26.5 10.5q11 0 18 -5.5t13 -12.5l12 -14t15 -10
q11 2 16 11.5t5 19.5t-5.5 18.5t-14 14.5t-18.5 10.5t-18 7.5l82 117h55z" />
    <glyph glyph-name="Egrave" unicode="&#xc8;" horiz-adv-x="660" 
d="M268 906h77l47 -141h-57zM600 704v-90h-421v-258h383v-90h-383v-177h421v-89h-539v704h539z" />
    <glyph glyph-name="Eacute" unicode="&#xc9;" horiz-adv-x="660" 
d="M601 704v-90h-422v-258h383v-90h-383v-177h422v-89h-539v704h539zM256 765l47 140h78l-67 -140h-58z" />
    <glyph glyph-name="Ecircumflex" unicode="&#xca;" horiz-adv-x="660" 
d="M601 704v-90h-422v-258h383v-90h-383v-177h422v-89h-539v704h539zM339 832q-8 5 -15 12l-12 12q14 17 31 50q20 -46 32 -67q7 -13 12 -22l-18 6q-8 2 -16 4.5t-14 4.5zM305 809v16q-2 3 -8 5q-2 1 -5 2q2 1 4 4l4.5 4.5t6.5 7.5q1 4 1 10q1 1 1 3l1 -1l2 -4q-4 -6 -5 -8
q-1 -5 -1.5 -10.5t-0.5 -12.5q5 -7 0 -16z" />
    <glyph glyph-name="Edieresis" unicode="&#xcb;" horiz-adv-x="660" 
d="M601 704v-90h-422v-258h383v-90h-383v-177h422v-89h-539v704h539zM356 824q0 22 15.5 37t37.5 15t37 -15t15 -37t-15 -37.5t-37 -15.5t-37.5 15.5t-15.5 37.5zM208 824q0 22 15 37t37 15t37.5 -15t15.5 -37t-15.5 -37.5t-37.5 -15.5t-37 15.5t-15 37.5z" />
    <glyph glyph-name="Igrave" unicode="&#xcc;" horiz-adv-x="238" 
d="M179 0h-117v704h117v-704zM28 911h78l47 -140h-58z" />
    <glyph glyph-name="Iacute" unicode="&#xcd;" horiz-adv-x="238" 
d="M179 0h-117v704h117v-704zM91 773l47 140h78l-67 -140h-58z" />
    <glyph glyph-name="Icircumflex" unicode="&#xce;" horiz-adv-x="238" 
d="M179 0h-117v704h117v-704zM128 827q-8 5 -15 12l-12 12q14 17 31 50q20 -46 32 -67q7 -13 12 -22l-18 6q-8 2 -16 4.5t-14 4.5zM94 804v16q-2 3 -8 5q-2 1 -5 2q2 1 4 4l4.5 4.5t6.5 7.5q1 4 1 10q1 1 1 3l1 -1l2 -4q-4 -6 -5 -8q-1 -5 -1.5 -10.5t-0.5 -12.5q5 -7 0 -16
z" />
    <glyph glyph-name="Idieresis" unicode="&#xcf;" horiz-adv-x="238" 
d="M179 0h-117v704h117v-704zM141 834q0 22 15.5 37t37.5 15t37 -15t15 -37t-15 -37.5t-37 -15.5t-37.5 15.5t-15.5 37.5zM-7 834q0 22 15 37t37 15t37.5 -15t15.5 -37t-15.5 -37.5t-37.5 -15.5t-37 15.5t-15 37.5z" />
    <glyph glyph-name="Eth" unicode="&#xd0;" horiz-adv-x="908" 
d="M590 703q82 -1 135.5 -31t85 -79t44.5 -112t13 -129q0 -61 -9.5 -116t-32 -99.5t-59.5 -76.5t-92 -47q-19 -6 -40.5 -9t-41.5 -3h-37q-76 -1 -151.5 -1h-151.5v704zM370 95h193q62 0 99 20.5t56.5 56t26 82t6.5 98.5t-6.5 98.5t-26 81.5t-56.5 55.5t-99 20.5h-193v-513z
M62 397h567v-71h-567v71z" />
    <glyph glyph-name="Ntilde" unicode="&#xd1;" horiz-adv-x="737" 
d="M678 704v-704h-101l-398 515v-515h-117v704h101l398 -515v515h117zM165 850q12 4 27 9.5t30.5 11t31 9.5t27.5 4q24 0 47 -8t45 -18t42.5 -18t39.5 -8q32 0 60 14t58 24v-85q-29 -9 -57.5 -21.5t-60.5 -12.5q-25 0 -48 8t-44.5 18t-41.5 18t-39 8q-13 0 -28 -4.5
t-31 -10.5t-31 -12.5t-27 -10.5v85z" />
    <glyph glyph-name="Ograve" unicode="&#xd2;" 
d="M349 704q89 0 148 -24.5t94.5 -70t50.5 -110.5t15 -147q0 -83 -15 -148.5t-51 -110.5t-95 -69t-147 -24q-89 0 -148 24t-94.5 69.5t-50.5 111t-15 147.5t15 147.5t50.5 111t95 69.5t147.5 24zM349 609q-63 0 -101 -20.5t-57.5 -56t-25.5 -82t-6 -98.5q0 -55 6 -102.5
t26 -81.5t57.5 -53.5t100.5 -19.5t101 20.5t58 56t26 82t6 98.5q0 53 -6 99.5t-26.5 81.5t-58 55.5t-100.5 20.5zM259 896h78l47 -140h-58z" />
    <glyph glyph-name="Oacute" unicode="&#xd3;" 
d="M349 704q89 0 148 -24.5t94.5 -70t50.5 -110.5t15 -147q0 -83 -15 -148.5t-51 -110.5t-95 -69t-147 -24q-89 0 -148 24t-94.5 69.5t-50.5 111t-15 147.5t15 147.5t50.5 111t95 69.5t147.5 24zM349 609q-63 0 -101 -20.5t-57.5 -56t-25.5 -82t-6 -98.5q0 -55 6 -102.5
t26 -81.5t57.5 -53.5t100.5 -19.5t101 20.5t58 56t26 82t6 98.5q0 53 -6 99.5t-26.5 81.5t-58 55.5t-100.5 20.5zM288 762l47 140h78l-67 -140h-58z" />
    <glyph glyph-name="Ocircumflex" unicode="&#xd4;" 
d="M349 704q89 0 148 -24.5t94.5 -70t50.5 -110.5t15 -147q0 -83 -15 -148.5t-51 -110.5t-95 -69t-147 -24q-89 0 -148 24t-94.5 69.5t-50.5 111t-15 147.5t15 147.5t50.5 111t95 69.5t147.5 24zM349 609q-63 0 -101 -20.5t-57.5 -56t-25.5 -82t-6 -98.5q0 -55 6 -102.5
t26 -81.5t57.5 -53.5t100.5 -19.5t101 20.5t58 56t26 82t6 98.5q0 53 -6 99.5t-26.5 81.5t-58 55.5t-100.5 20.5zM360 823q-8 5 -15 12l-12 12q14 17 31 50q20 -46 32 -67q7 -13 12 -22l-18 6q-8 2 -16 4.5t-14 4.5zM326 800v16q-2 3 -8 5q-2 1 -5 2q2 1 4 4l4.5 4.5
t6.5 7.5q1 4 1 10q1 1 1 3l1 -1l2 -4q-4 -6 -5 -8q-1 -5 -1.5 -10.5t-0.5 -12.5q5 -7 0 -16z" />
    <glyph glyph-name="Otilde" unicode="&#xd5;" 
d="M349 704q89 0 148 -24.5t94.5 -70t50.5 -110.5t15 -147q0 -83 -15 -148.5t-51 -110.5t-95 -69t-147 -24q-89 0 -148 24t-94.5 69.5t-50.5 111t-15 147.5t15 147.5t50.5 111t95 69.5t147.5 24zM349 609q-63 0 -101 -20.5t-57.5 -56t-25.5 -82t-6 -98.5q0 -55 6 -102.5
t26 -81.5t57.5 -53.5t100.5 -19.5t101 20.5t58 56t26 82t6 98.5q0 53 -6 99.5t-26.5 81.5t-58 55.5t-100.5 20.5zM145 858q12 4 27 9.5t30.5 11t31 9.5t27.5 4q24 0 47 -8t45 -18t42.5 -18t39.5 -8q32 0 60 14t58 24v-85q-29 -9 -57.5 -21.5t-60.5 -12.5q-25 0 -48 8
t-44.5 18t-41.5 18t-39 8q-13 0 -28 -4.5t-31 -10.5t-31 -12.5t-27 -10.5v85z" />
    <glyph glyph-name="Odieresis" unicode="&#xd6;" 
d="M349 704q89 0 148 -24.5t94.5 -70t50.5 -110.5t15 -147q0 -83 -15 -148.5t-51 -110.5t-95 -69t-147 -24q-89 0 -148 24t-94.5 69.5t-50.5 111t-15 147.5t15 147.5t50.5 111t95 69.5t147.5 24zM349 609q-63 0 -101 -20.5t-57.5 -56t-25.5 -82t-6 -98.5q0 -55 6 -102.5
t26 -81.5t57.5 -53.5t100.5 -19.5t101 20.5t58 56t26 82t6 98.5q0 53 -6 99.5t-26.5 81.5t-58 55.5t-100.5 20.5zM374 821q0 22 15.5 37t37.5 15t37 -15t15 -37t-15 -37.5t-37 -15.5t-37.5 15.5t-15.5 37.5zM226 821q0 22 15 37t37 15t37.5 -15t15.5 -37t-15.5 -37.5
t-37.5 -15.5t-37 15.5t-15 37.5z" />
    <glyph glyph-name="multiply" unicode="&#xd7;" horiz-adv-x="546" 
d="M508 518l-165 -159l79 -73l-77 -73l-79 73l-166 -159l-62 59l166 158l-80 74l77 73l80 -73l165 159z" />
    <glyph glyph-name="Oslash" unicode="&#xd8;" 
d="M349 704q89 0 148 -24.5t94.5 -70t50.5 -110.5t15 -147q0 -83 -15 -148.5t-51 -110.5t-95 -69t-147 -24q-89 0 -148 24t-94.5 69.5t-50.5 111t-15 147.5t15 147.5t50.5 111t95 69.5t147.5 24zM349 609q-63 0 -101 -20.5t-57.5 -56t-25.5 -82t-6 -98.5q0 -55 6 -102.5
t26 -81.5t57.5 -53.5t100.5 -19.5t101 20.5t58 56t26 82t6 98.5q0 53 -6 99.5t-26.5 81.5t-58 55.5t-100.5 20.5zM560 738l-292 -775h-101l292 775h101z" />
    <glyph glyph-name="Ugrave" unicode="&#xd9;" 
d="M540 704h118v-354q0 -80 -16 -145t-52 -110.5t-95 -70t-145 -24.5q-87 0 -146 24.5t-95 70t-51.5 110.5t-15.5 145v354h117v-354q0 -52 7 -98.5t27 -81.5t58 -55t99 -20t98.5 20.5t57.5 55t27 81t7 98.5v354zM278 903h78l47 -140h-58z" />
    <glyph glyph-name="Uacute" unicode="&#xda;" 
d="M540 704h118v-354q0 -80 -16 -145t-52 -110.5t-95 -70t-145 -24.5q-87 0 -146 24.5t-95 70t-51.5 110.5t-15.5 145v354h117v-354q0 -52 7 -98.5t27 -81.5t58 -55t99 -20t98.5 20.5t57.5 55t27 81t7 98.5v354zM286 768l47 140h78l-67 -140h-58z" />
    <glyph glyph-name="Ucircumflex" unicode="&#xdb;" 
d="M540 704h118v-354q0 -80 -16 -145t-52 -110.5t-95 -70t-145 -24.5q-87 0 -146 24.5t-95 70t-51.5 110.5t-15.5 145v354h117v-354q0 -52 7 -98.5t27 -81.5t58 -55t99 -20t98.5 20.5t57.5 55t27 81t7 98.5v354zM358 832q-8 5 -15 12l-12 12q14 17 31 50q20 -46 32 -67
q7 -13 12 -22l-18 6q-8 2 -16 4.5t-14 4.5zM324 809v16q-2 3 -8 5q-2 1 -5 2q2 1 4 4l4.5 4.5t6.5 7.5q1 4 1 10q1 1 1 3l1 -1l2 -4q-4 -6 -5 -8q-1 -5 -1.5 -10.5t-0.5 -12.5q5 -7 0 -16z" />
    <glyph glyph-name="Udieresis" unicode="&#xdc;" 
d="M540 704h118v-354q0 -80 -16 -145t-52 -110.5t-95 -70t-145 -24.5q-87 0 -146 24.5t-95 70t-51.5 110.5t-15.5 145v354h117v-354q0 -52 7 -98.5t27 -81.5t58 -55t99 -20t98.5 20.5t57.5 55t27 81t7 98.5v354zM370 834q0 22 15.5 37t37.5 15t37 -15t15 -37t-15 -37.5
t-37 -15.5t-37.5 15.5t-15.5 37.5zM222 834q0 22 15 37t37 15t37.5 -15t15.5 -37t-15.5 -37.5t-37.5 -15.5t-37 15.5t-15 37.5z" />
    <glyph glyph-name="Yacute" unicode="&#xdd;" horiz-adv-x="673" 
d="M536 704h132l-263 -416v-288h-117v288l-282 416h136l203 -303zM293 773l47 140h78l-67 -140h-58z" />
    <glyph glyph-name="Thorn" unicode="&#xde;" horiz-adv-x="670" 
d="M630 352q0 -144 -72 -208t-212 -64q-48 0 -91 9.5t-76 40.5v-130h-117v704h117v-130q33 31 76 40.5t91 9.5q140 0 212 -64t72 -208zM345 531q-47 0 -79 -11t-51.5 -33.5t-27.5 -56t-8 -78.5q0 -47 8 -80.5t27 -55t51 -31.5t81 -10t81 10t51 31.5t27 55t8 80.5
q0 48 -7.5 82t-26.5 55.5t-51.5 31.5t-82.5 10z" />
    <glyph glyph-name="germandbls" unicode="&#xdf;" horiz-adv-x="658" 
d="M463 422q26 -15 43 -36.5t27 -47t14.5 -53.5t4.5 -57q0 -112 -54 -170t-169 -58q-35 0 -69.5 9t-64.5 26l54 89q17 -12 37.5 -17t42.5 -5q36 0 59 7t36.5 22t18.5 39t5 58q0 33 -5.5 56.5t-18.5 38.5t-35 22t-56 7q-23 0 -47 -1.5t-47 -2.5q59 57 117 112.5t115 112.5
q-23 13 -48.5 18.5t-51.5 5.5q-60 0 -99 -19.5t-62.5 -53t-33 -79t-9.5 -98.5v-346h-106v346q0 74 19 138t57 112t96.5 75.5t137.5 27.5q78 0 137 -29.5t110 -88.5z" />
    <glyph glyph-name="agrave" unicode="&#xe0;" horiz-adv-x="654" 
d="M609 0h-117v67q-29 -40 -72 -57.5t-94 -17.5q-82 0 -137 21.5t-88 59t-46.5 89t-13.5 110.5q0 57 13 108t45.5 89t87 60.5t138.5 22.5t139 -22.5t87 -60.5t45 -89t13 -108v-272zM325 455q-48 0 -80.5 -10.5t-52 -32.5t-28 -56.5t-8.5 -83.5t8.5 -83.5t28 -56.5
t52.5 -32.5t81 -10.5t80.5 10.5t52 32.5t27.5 56.5t8 83.5t-8.5 83.5t-28 56.5t-52 32.5t-80.5 10.5zM264 753h78l47 -140h-58z" />
    <glyph glyph-name="aacute" unicode="&#xe1;" horiz-adv-x="654" 
d="M609 0h-117v67q-29 -40 -72 -57.5t-94 -17.5q-82 0 -137 21.5t-88 59t-46.5 89t-13.5 110.5q0 57 13 108t45.5 89t87 60.5t138.5 22.5t139 -22.5t87 -60.5t45 -89t13 -108v-272zM325 455q-48 0 -80.5 -10.5t-52 -32.5t-28 -56.5t-8.5 -83.5t8.5 -83.5t28 -56.5
t52.5 -32.5t81 -10.5t80.5 10.5t52 32.5t27.5 56.5t8 83.5t-8.5 83.5t-28 56.5t-52 32.5t-80.5 10.5zM272 615l47 140h78l-67 -140h-58z" />
    <glyph glyph-name="acircumflex" unicode="&#xe2;" horiz-adv-x="654" 
d="M609 0h-117v67q-29 -40 -72 -57.5t-94 -17.5q-82 0 -137 21.5t-88 59t-46.5 89t-13.5 110.5q0 57 13 108t45.5 89t87 60.5t138.5 22.5t139 -22.5t87 -60.5t45 -89t13 -108v-272zM325 455q-48 0 -80.5 -10.5t-52 -32.5t-28 -56.5t-8.5 -83.5t8.5 -83.5t28 -56.5
t52.5 -32.5t81 -10.5t80.5 10.5t52 32.5t27.5 56.5t8 83.5t-8.5 83.5t-28 56.5t-52 32.5t-80.5 10.5zM336 672q-8 5 -15 12l-12 12q14 17 31 50q20 -46 32 -67q7 -13 12 -22l-18 6q-8 2 -16 4.5t-14 4.5zM302 649v16q-2 3 -8 5q-2 1 -5 2q2 1 4 4l4.5 4.5t6.5 7.5q1 4 1 10
q1 1 1 3l1 -1l2 -4q-4 -6 -5 -8q-1 -5 -1.5 -10.5t-0.5 -12.5q5 -7 0 -16z" />
    <glyph glyph-name="atilde" unicode="&#xe3;" horiz-adv-x="654" 
d="M609 0h-117v67q-29 -40 -72 -57.5t-94 -17.5q-82 0 -137 21.5t-88 59t-46.5 89t-13.5 110.5q0 57 13 108t45.5 89t87 60.5t138.5 22.5t139 -22.5t87 -60.5t45 -89t13 -108v-272zM325 455q-48 0 -80.5 -10.5t-52 -32.5t-28 -56.5t-8.5 -83.5t8.5 -83.5t28 -56.5
t52.5 -32.5t81 -10.5t80.5 10.5t52 32.5t27.5 56.5t8 83.5t-8.5 83.5t-28 56.5t-52 32.5t-80.5 10.5zM123 705q12 4 27 9.5t30.5 11t31 9.5t27.5 4q24 0 47 -8t45 -18t42.5 -18t39.5 -8q32 0 60 14t58 24v-85q-29 -9 -57.5 -21.5t-60.5 -12.5q-25 0 -48 8t-44.5 18t-41.5 18
t-39 8q-13 0 -28 -4.5t-31 -10.5t-31 -12.5t-27 -10.5v85z" />
    <glyph glyph-name="adieresis" unicode="&#xe4;" horiz-adv-x="654" 
d="M609 0h-117v67q-29 -40 -72 -57.5t-94 -17.5q-82 0 -137 21.5t-88 59t-46.5 89t-13.5 110.5q0 57 13 108t45.5 89t87 60.5t138.5 22.5t139 -22.5t87 -60.5t45 -89t13 -108v-272zM325 455q-48 0 -80.5 -10.5t-52 -32.5t-28 -56.5t-8.5 -83.5t8.5 -83.5t28 -56.5
t52.5 -32.5t81 -10.5t80.5 10.5t52 32.5t27.5 56.5t8 83.5t-8.5 83.5t-28 56.5t-52 32.5t-80.5 10.5zM349 659q0 22 15.5 37t37.5 15t37 -15t15 -37t-15 -37.5t-37 -15.5t-37.5 15.5t-15.5 37.5zM201 659q0 22 15 37t37 15t37.5 -15t15.5 -37t-15.5 -37.5t-37.5 -15.5
t-37 15.5t-15 37.5z" />
    <glyph glyph-name="aring" unicode="&#xe5;" horiz-adv-x="654" 
d="M609 0h-117v67q-29 -40 -72 -57.5t-94 -17.5q-82 0 -137 21.5t-88 59t-46.5 89t-13.5 110.5q0 57 13 108t45.5 89t87 60.5t138.5 22.5t139 -22.5t87 -60.5t45 -89t13 -108v-272zM325 455q-48 0 -80.5 -10.5t-52 -32.5t-28 -56.5t-8.5 -83.5t8.5 -83.5t28 -56.5
t52.5 -32.5t81 -10.5t80.5 10.5t52 32.5t27.5 56.5t8 83.5t-8.5 83.5t-28 56.5t-52 32.5t-80.5 10.5zM327 746q29 0 50 -20.5t21 -50.5q0 -29 -21 -50t-50 -21t-50 21t-21 50q0 30 21 50.5t50 20.5zM327 647q13 0 21 7.5t8 20.5q0 14 -8 21.5t-21 7.5t-21 -8t-8 -21t8 -20.5
t21 -7.5z" />
    <glyph glyph-name="ae" unicode="&#xe6;" horiz-adv-x="1100" 
d="M609 0h-117v67q-29 -40 -72 -57.5t-94 -17.5q-82 0 -137 21.5t-88 59t-46.5 89t-13.5 110.5q0 57 13 108t45.5 89t87 60.5t138.5 22.5t139 -22.5t87 -60.5t45 -89t13 -108v-272zM325 455q-48 0 -80.5 -10.5t-52 -32.5t-28 -56.5t-8.5 -83.5t8.5 -83.5t28 -56.5
t52.5 -32.5t81 -10.5t80.5 10.5t52 32.5t27.5 56.5t8 83.5t-8.5 83.5t-28 56.5t-52 32.5t-80.5 10.5zM779 552q84 0 139.5 -21.5t88.5 -63.5t45 -103t7 -140h-446q7 -70 45.5 -104t122.5 -34q61 0 99.5 18t45.5 60q5 6 8 17h117q-13 -53 -36.5 -89.5t-57 -58.5t-78 -31.5
t-101.5 -9.5q-84 0 -138.5 22.5t-86.5 61t-45 89t-13 106.5q0 57 13 108t45.5 89.5t87 61t138.5 22.5zM780 457q-87 0 -125 -36t-43 -108h332q-4 71 -41 107.5t-123 36.5z" />
    <glyph glyph-name="ccedilla" unicode="&#xe7;" horiz-adv-x="647" 
d="M607 203q-15 -58 -38.5 -98.5t-57 -65.5t-79.5 -36t-106 -11q-84 0 -139 22.5t-87.5 61t-45.5 89t-13 107.5t13 107.5t45.5 89t87.5 60.5t139 22q62 0 108 -11.5t80 -37t56.5 -66.5t36.5 -100h-116q-10 36 -23 59.5t-31.5 37.5t-45.5 19.5t-65 5.5q-48 0 -80.5 -11
t-52 -33.5t-28 -57.5t-8.5 -84t8.5 -84t28 -57.5t52 -33.5t80.5 -11q36 0 62 5t45 18.5t32.5 36t24.5 57.5h117zM447 83l-48 -75q17 -14 26.5 -32t9.5 -40q0 -47 -31.5 -77.5t-78.5 -30.5q-13 0 -26.5 4t-24 12t-17.5 19.5t-7 26.5t10.5 25.5t26.5 10.5q11 0 18 -5.5
t13 -12.5l12 -14t15 -10q11 2 16 11.5t5 19.5t-5.5 18.5t-14 14.5t-18.5 10.5t-18 7.5l82 117h55z" />
    <glyph glyph-name="egrave" unicode="&#xe8;" horiz-adv-x="646" 
d="M325 552q84 0 139.5 -21.5t88.5 -63.5t45 -103t7 -140h-446q7 -70 45.5 -104t122.5 -34q61 0 99.5 18t45.5 60q5 6 8 17h117q-13 -53 -36.5 -89.5t-57 -58.5t-78 -31.5t-101.5 -9.5q-84 0 -138.5 22.5t-86.5 61t-45 89t-13 106.5q0 57 13 108t45.5 89.5t87 61t138.5 22.5
zM326 457q-87 0 -125 -36t-43 -108h332q-4 71 -41 107.5t-123 36.5zM261 758h78l47 -140h-58z" />
    <glyph glyph-name="eacute" unicode="&#xe9;" horiz-adv-x="646" 
d="M325 552q84 0 139.5 -21.5t88.5 -63.5t45 -103t7 -140h-446q7 -70 45.5 -104t122.5 -34q61 0 99.5 18t45.5 60q5 6 8 17h117q-13 -53 -36.5 -89.5t-57 -58.5t-78 -31.5t-101.5 -9.5q-84 0 -138.5 22.5t-86.5 61t-45 89t-13 106.5q0 57 13 108t45.5 89.5t87 61t138.5 22.5
zM326 457q-87 0 -125 -36t-43 -108h332q-4 71 -41 107.5t-123 36.5zM268 613l47 140h78l-67 -140h-58z" />
    <glyph glyph-name="ecircumflex" unicode="&#xea;" horiz-adv-x="646" 
d="M325 552q84 0 139.5 -21.5t88.5 -63.5t45 -103t7 -140h-446q7 -70 45.5 -104t122.5 -34q61 0 99.5 18t45.5 60q5 6 8 17h117q-13 -53 -36.5 -89.5t-57 -58.5t-78 -31.5t-101.5 -9.5q-84 0 -138.5 22.5t-86.5 61t-45 89t-13 106.5q0 57 13 108t45.5 89.5t87 61t138.5 22.5
zM326 457q-87 0 -125 -36t-43 -108h332q-4 71 -41 107.5t-123 36.5zM334 659q-8 5 -15 12l-12 12q14 17 31 50q20 -46 32 -67q7 -13 12 -22l-18 6q-8 2 -16 4.5t-14 4.5zM300 636v16q-2 3 -8 5q-2 1 -5 2q2 1 4 4l4.5 4.5t6.5 7.5q1 4 1 10q1 1 1 3l1 -1l2 -4q-4 -6 -5 -8
q-1 -5 -1.5 -10.5t-0.5 -12.5q5 -7 0 -16z" />
    <glyph glyph-name="edieresis" unicode="&#xeb;" horiz-adv-x="646" 
d="M325 552q84 0 139.5 -21.5t88.5 -63.5t45 -103t7 -140h-446q7 -70 45.5 -104t122.5 -34q61 0 99.5 18t45.5 60q5 6 8 17h117q-13 -53 -36.5 -89.5t-57 -58.5t-78 -31.5t-101.5 -9.5q-84 0 -138.5 22.5t-86.5 61t-45 89t-13 106.5q0 57 13 108t45.5 89.5t87 61t138.5 22.5
zM326 457q-87 0 -125 -36t-43 -108h332q-4 71 -41 107.5t-123 36.5zM345 652q0 22 15.5 37t37.5 15t37 -15t15 -37t-15 -37.5t-37 -15.5t-37.5 15.5t-15.5 37.5zM197 652q0 22 15 37t37 15t37.5 -15t15.5 -37t-15.5 -37.5t-37.5 -15.5t-37 15.5t-15 37.5z" />
    <glyph glyph-name="igrave" unicode="&#xec;" horiz-adv-x="232" 
d="M162 414v-282h-91v282h91zM31 753h78l47 -140h-58z" />
    <glyph glyph-name="iacute" unicode="&#xed;" horiz-adv-x="233" 
d="M163 414v-282h-91v282h91zM94 612l47 140h78l-67 -140h-58z" />
    <glyph glyph-name="icircumflex" unicode="&#xee;" horiz-adv-x="217" 
d="M147 414v-282h-91v282h91zM114 668q-8 5 -15 12l-12 12q14 17 31 50q20 -46 32 -67q7 -13 12 -22l-18 6q-8 2 -16 4.5t-14 4.5zM80 645v16q-2 3 -8 5q-2 1 -5 2q2 1 4 4l4.5 4.5t6.5 7.5q1 4 1 10q1 1 1 3l1 -1l2 -4q-4 -6 -5 -8q-1 -5 -1.5 -10.5t-0.5 -12.5q5 -7 0 -16
z" />
    <glyph glyph-name="idieresis" unicode="&#xef;" horiz-adv-x="375" 
d="M315 668q0 -22 -15 -37.5t-37 -15.5t-37.5 15.5t-15.5 37.5t15.5 37t37.5 15t37 -15t15 -37zM166 668q0 -22 -15 -37.5t-37 -15.5t-37.5 15.5t-15.5 37.5t15.5 37t37.5 15t37 -15t15 -37zM237 415v-282h-97v282h97z" />
    <glyph glyph-name="eth" unicode="&#xf0;" horiz-adv-x="649" 
d="M75 600q50 59 110.5 80.5t136.5 21.5q25 0 46 -2.5t41 -6.5l39 45l65 -52l-23 -26q41 -27 65 -67.5t36 -90.5t15.5 -106.5t3.5 -115.5q0 -137 -74 -209.5t-211 -72.5q-66 0 -118 17.5t-89 51.5t-56.5 85t-19.5 118q0 57 17 103.5t48 81t74 56.5t95 29l55 63
q-30 0 -55 -3.5t-46.5 -11.5t-42 -22.5t-41.5 -37.5zM385 538q22 -5 42.5 -12.5t38.5 -21.5q-17 50 -48 73zM325 448h-9.5t-9.5 -1l-48 -55l-34 27q-32 -23 -48.5 -61.5t-16.5 -87.5q0 -83 39.5 -130t126.5 -47q46 0 77.5 13t51.5 37t29 58t9 76q0 81 -42.5 126t-124.5 45z
" />
    <glyph glyph-name="ntilde" unicode="&#xf1;" horiz-adv-x="686" 
d="M509 0v57t0.5 61t0.5 60.5v56.5q0 49 -4.5 89t-22 68t-50.5 43.5t-90 15.5q-48 0 -79.5 -12.5t-50.5 -36t-26.5 -58.5t-7.5 -80v-264h-118v545h118v-75q33 46 75.5 60t88.5 14q59 0 110.5 -13t90 -41.5t60.5 -73.5t22 -110v-306h-117zM139 704q12 4 27 9.5t30.5 11
t31 9.5t27.5 4q24 0 47 -8t45 -18t42.5 -18t39.5 -8q32 0 60 14t58 24v-85q-29 -9 -57.5 -21.5t-60.5 -12.5q-25 0 -48 8t-44.5 18t-41.5 18t-39 8q-13 0 -28 -4.5t-31 -10.5t-31 -12.5t-27 -10.5v85z" />
    <glyph glyph-name="ograve" unicode="&#xf2;" horiz-adv-x="650" 
d="M610 272q0 -143 -71 -211.5t-213 -68.5q-143 0 -214 68.5t-71 211.5t71 211.5t214 68.5q142 0 213 -68.5t71 -211.5zM494 272q0 48 -8 83t-27.5 58.5t-51.5 34.5t-81 11t-81.5 -11t-52 -34.5t-27.5 -58.5t-8 -83t8 -83t27.5 -58t52 -34t81.5 -11t81 11t51.5 34t27.5 58
t8 83zM258 753h78l47 -140h-58z" />
    <glyph glyph-name="oacute" unicode="&#xf3;" horiz-adv-x="650" 
d="M610 272q0 -143 -71 -211.5t-213 -68.5q-143 0 -214 68.5t-71 211.5t71 211.5t214 68.5q142 0 213 -68.5t71 -211.5zM494 272q0 48 -8 83t-27.5 58.5t-51.5 34.5t-81 11t-81.5 -11t-52 -34.5t-27.5 -58.5t-8 -83t8 -83t27.5 -58t52 -34t81.5 -11t81 11t51.5 34t27.5 58
t8 83zM265 609l47 140h78l-67 -140h-58z" />
    <glyph glyph-name="ocircumflex" unicode="&#xf4;" horiz-adv-x="650" 
d="M610 272q0 -143 -71 -211.5t-213 -68.5q-143 0 -214 68.5t-71 211.5t71 211.5t214 68.5q142 0 213 -68.5t71 -211.5zM494 272q0 48 -8 83t-27.5 58.5t-51.5 34.5t-81 11t-81.5 -11t-52 -34.5t-27.5 -58.5t-8 -83t8 -83t27.5 -58t52 -34t81.5 -11t81 11t51.5 34t27.5 58
t8 83zM334 672q-8 5 -15 12l-12 12q14 17 31 50q20 -46 32 -67q7 -13 12 -22l-18 6q-8 2 -16 4.5t-14 4.5zM300 649v16q-2 3 -8 5q-2 1 -5 2q2 1 4 4l4.5 4.5t6.5 7.5q1 4 1 10q1 1 1 3l1 -1l2 -4q-4 -6 -5 -8q-1 -5 -1.5 -10.5t-0.5 -12.5q5 -7 0 -16z" />
    <glyph glyph-name="otilde" unicode="&#xf5;" horiz-adv-x="650" 
d="M610 272q0 -143 -71 -211.5t-213 -68.5q-143 0 -214 68.5t-71 211.5t71 211.5t214 68.5q142 0 213 -68.5t71 -211.5zM494 272q0 48 -8 83t-27.5 58.5t-51.5 34.5t-81 11t-81.5 -11t-52 -34.5t-27.5 -58.5t-8 -83t8 -83t27.5 -58t52 -34t81.5 -11t81 11t51.5 34t27.5 58
t8 83zM121 710q12 4 27 9.5t30.5 11t31 9.5t27.5 4q24 0 47 -8t45 -18t42.5 -18t39.5 -8q32 0 60 14t58 24v-85q-29 -9 -57.5 -21.5t-60.5 -12.5q-25 0 -48 8t-44.5 18t-41.5 18t-39 8q-13 0 -28 -4.5t-31 -10.5t-31 -12.5t-27 -10.5v85z" />
    <glyph glyph-name="odieresis" unicode="&#xf6;" horiz-adv-x="650" 
d="M610 272q0 -143 -71 -211.5t-213 -68.5q-143 0 -214 68.5t-71 211.5t71 211.5t214 68.5q142 0 213 -68.5t71 -211.5zM494 272q0 48 -8 83t-27.5 58.5t-51.5 34.5t-81 11t-81.5 -11t-52 -34.5t-27.5 -58.5t-8 -83t8 -83t27.5 -58t52 -34t81.5 -11t81 11t51.5 34t27.5 58
t8 83zM347 653q0 22 15.5 37t37.5 15t37 -15t15 -37t-15 -37.5t-37 -15.5t-37.5 15.5t-15.5 37.5zM199 653q0 22 15 37t37 15t37.5 -15t15.5 -37t-15.5 -37.5t-37.5 -15.5t-37 15.5t-15 37.5z" />
    <glyph glyph-name="divide" unicode="&#xf7;" horiz-adv-x="628" 
d="M371 559v-115h-117v115h117zM598 397v-89h-568v89h568zM371 256v-114h-117v114h117z" />
    <glyph glyph-name="oslash" unicode="&#xf8;" horiz-adv-x="650" 
d="M610 272q0 -143 -71 -211.5t-213 -68.5q-143 0 -214 68.5t-71 211.5t71 211.5t214 68.5q142 0 213 -68.5t71 -211.5zM494 272q0 48 -8 83t-27.5 58.5t-51.5 34.5t-81 11t-81.5 -11t-52 -34.5t-27.5 -58.5t-8 -83t8 -83t27.5 -58t52 -34t81.5 -11t81 11t51.5 34t27.5 58
t8 83zM536 656l-292 -775h-101l292 775h101z" />
    <glyph glyph-name="ugrave" unicode="&#xf9;" horiz-adv-x="660" 
d="M497 545h118v-303q0 -65 -22 -111.5t-60.5 -76.5t-90.5 -44t-112 -14q-63 0 -115 15t-89 46.5t-58 79.5t-22 114l1 294h117v-302q0 -80 45 -115t121 -35q35 0 65 9.5t52.5 28t35 46t12.5 64.5zM249 742h78l47 -140h-58z" />
    <glyph glyph-name="uacute" unicode="&#xfa;" horiz-adv-x="660" 
d="M497 545h118v-303q0 -65 -22 -111.5t-60.5 -76.5t-90.5 -44t-112 -14q-63 0 -115 15t-89 46.5t-58 79.5t-22 114l1 294h117v-302q0 -80 45 -115t121 -35q35 0 65 9.5t52.5 28t35 46t12.5 64.5zM287 601l47 140h78l-67 -140h-58z" />
    <glyph glyph-name="ucircumflex" unicode="&#xfb;" horiz-adv-x="660" 
d="M497 545h118v-303q0 -65 -22 -111.5t-60.5 -76.5t-90.5 -44t-112 -14q-63 0 -115 15t-89 46.5t-58 79.5t-22 114l1 294h117v-302q0 -80 45 -115t121 -35q35 0 65 9.5t52.5 28t35 46t12.5 64.5zM339 659q-8 5 -15 12l-12 12q14 17 31 50q20 -46 32 -67q7 -13 12 -22l-18 6
q-8 2 -16 4.5t-14 4.5zM305 636v16q-2 3 -8 5q-2 1 -5 2q2 1 4 4l4.5 4.5t6.5 7.5q1 4 1 10q1 1 1 3l1 -1l2 -4q-4 -6 -5 -8q-1 -5 -1.5 -10.5t-0.5 -12.5q5 -7 0 -16z" />
    <glyph glyph-name="udieresis" unicode="&#xfc;" horiz-adv-x="660" 
d="M497 545h118v-303q0 -65 -22 -111.5t-60.5 -76.5t-90.5 -44t-112 -14q-63 0 -115 15t-89 46.5t-58 79.5t-22 114l1 294h117v-302q0 -80 45 -115t121 -35q35 0 65 9.5t52.5 28t35 46t12.5 64.5zM356 668q0 22 15.5 37t37.5 15t37 -15t15 -37t-15 -37.5t-37 -15.5
t-37.5 15.5t-15.5 37.5zM208 668q0 22 15 37t37 15t37.5 -15t15.5 -37t-15.5 -37.5t-37.5 -15.5t-37 15.5t-15 37.5z" />
    <glyph glyph-name="yacute" unicode="&#xfd;" horiz-adv-x="611" 
d="M598 545q-27 -57 -56.5 -121t-60.5 -132t-63.5 -137.5t-64.5 -135.5q-13 -30 -28.5 -61t-35.5 -57t-46 -46t-61 -28q-34 -10 -70 -11t-76 -3v94q48 1 76 1t49 12q18 11 37.5 42t42.5 73l-226 510h123l166 -376l171 376h123zM238 601l47 140h78l-67 -140h-58z" />
    <glyph glyph-name="thorn" unicode="&#xfe;" horiz-adv-x="668" 
d="M178 476q32 42 73 58.5t94 16.5q83 0 137.5 -22.5t87 -61t45.5 -89t13 -107.5t-12.5 -108t-44.5 -89t-86.5 -60.5t-138.5 -22.5q-54 0 -97 19.5t-71 64.5v-205h-117v809h117v-203zM345 448q-48 0 -80 -9.5t-51.5 -30.5t-27.5 -55t-8 -82q0 -92 37.5 -137.5t129.5 -45.5
q51 0 83.5 11.5t51 34t25 57t6.5 80.5q0 48 -8 82t-27.5 55t-51 30.5t-79.5 9.5z" />
    <glyph glyph-name="ydieresis" unicode="&#xff;" horiz-adv-x="611" 
d="M598 545q-27 -57 -56.5 -121t-60.5 -132t-63.5 -137.5t-64.5 -135.5q-13 -30 -28.5 -61t-35.5 -57t-46 -46t-61 -28q-34 -10 -70 -11t-76 -3v94q48 1 76 1t49 12q18 11 37.5 42t42.5 73l-226 510h123l166 -376l171 376h123zM331 654q0 22 15.5 37t37.5 15t37 -15t15 -37
t-15 -37.5t-37 -15.5t-37.5 15.5t-15.5 37.5zM183 654q0 22 15 37t37 15t37.5 -15t15.5 -37t-15.5 -37.5t-37.5 -15.5t-37 15.5t-15 37.5z" />
    <glyph glyph-name="Amacron" unicode="&#x100;" horiz-adv-x="659" 
d="M381 704l272 -704h-121l-103 266h-199l-103 -266h-121l273 704h102zM265 356h129l-64 168zM461 900l100 -80l-362 -9l-100 80z" />
    <glyph glyph-name="amacron" unicode="&#x101;" horiz-adv-x="654" 
d="M609 0h-117v67q-29 -40 -72 -57.5t-94 -17.5q-82 0 -137 21.5t-88 59t-46.5 89t-13.5 110.5q0 57 13 108t45.5 89t87 60.5t138.5 22.5t139 -22.5t87 -60.5t45 -89t13 -108v-272zM325 455q-48 0 -80.5 -10.5t-52 -32.5t-28 -56.5t-8.5 -83.5t8.5 -83.5t28 -56.5
t52.5 -32.5t81 -10.5t80.5 10.5t52 32.5t27.5 56.5t8 83.5t-8.5 83.5t-28 56.5t-52 32.5t-80.5 10.5zM458 708l100 -80l-362 -9l-100 80z" />
    <glyph glyph-name="Abreve" unicode="&#x102;" horiz-adv-x="659" 
d="M381 704l272 -704h-121l-103 266h-199l-103 -266h-121l273 704h102zM265 356h129l-64 168zM426 867q-1 -45 -25.5 -68.5t-70.5 -23.5t-70.5 23.5t-24.5 68.5h43q0 -17 4.5 -27t11.5 -15t16.5 -6t19.5 -1t19.5 1.5t17 6.5t12 14.5t4.5 26.5h43z" />
    <glyph glyph-name="abreve" unicode="&#x103;" horiz-adv-x="649" 
d="M609 0h-117v67q-29 -40 -72 -57.5t-94 -17.5q-82 0 -137 21.5t-88 59t-46.5 89t-13.5 110.5q0 57 13 108t45.5 89t87 60.5t138.5 22.5t139 -22.5t87 -60.5t45 -89t13 -108v-272zM325 455q-48 0 -80.5 -10.5t-52 -32.5t-28 -56.5t-8.5 -83.5t8.5 -83.5t28 -56.5
t52.5 -32.5t81 -10.5t80.5 10.5t52 32.5t27.5 56.5t8 83.5t-8.5 83.5t-28 56.5t-52 32.5t-80.5 10.5zM423 700q-1 -45 -25.5 -68.5t-70.5 -23.5t-70.5 23.5t-24.5 68.5h43q0 -17 4.5 -27t11.5 -15t16.5 -6t19.5 -1t19.5 1.5t17 6.5t12 14.5t4.5 26.5h43z" />
    <glyph glyph-name="Aogonek" unicode="&#x104;" horiz-adv-x="659" 
d="M381 704l272 -704h-121l-103 266h-199l-103 -266h-121l273 704h102zM265 356h129l-64 168zM636 1q-3 -2 -21 -10.5t-35.5 -18.5t-27.5 -19t2 -12q7 -2 17.5 -0.5t22 4t22.5 5.5t18 6v-90q-8 -3 -20 -4.5t-26 -1.5q-20 0 -42 3.5t-40.5 10.5t-31 18t-12.5 27
q-1 24 12.5 44t36.5 36.5t52.5 28.5t60.5 20z" />
    <glyph glyph-name="aogonek" unicode="&#x105;" horiz-adv-x="654" 
d="M609 0h-117v67q-29 -40 -72 -57.5t-94 -17.5q-82 0 -137 21.5t-88 59t-46.5 89t-13.5 110.5q0 57 13 108t45.5 89t87 60.5t138.5 22.5t139 -22.5t87 -60.5t45 -89t13 -108v-272zM325 455q-48 0 -80.5 -10.5t-52 -32.5t-28 -56.5t-8.5 -83.5t8.5 -83.5t28 -56.5
t52.5 -32.5t81 -10.5t80.5 10.5t52 32.5t27.5 56.5t8 83.5t-8.5 83.5t-28 56.5t-52 32.5t-80.5 10.5zM599 1q-3 -2 -21 -10.5t-35.5 -18.5t-27.5 -19t2 -12q7 -2 17.5 -0.5t22 4t22.5 5.5t18 6v-90q-8 -3 -20 -4.5t-26 -1.5q-20 0 -42 3.5t-40.5 10.5t-31 18t-12.5 27
q-1 24 12.5 44t36.5 36.5t52.5 28.5t60.5 20z" />
    <glyph glyph-name="Cacute" unicode="&#x106;" horiz-adv-x="681" 
d="M641 214q-19 -59 -44.5 -100t-60.5 -66.5t-82.5 -36.5t-109.5 -11q-87 0 -146 25t-95 71t-51.5 111t-15.5 145t15.5 145t51.5 111t95 71t146 25q63 0 110 -11.5t82.5 -37.5t60.5 -67t44 -100h-121q-6 32 -22.5 55t-40.5 37.5t-53.5 21.5t-59.5 7q-58 0 -95 -21.5t-58 -57
t-29 -82t-8 -96.5t8 -96.5t29 -82t58 -57t95 -21.5q38 0 65.5 5.5t47.5 19t35 36.5t28 58h121zM315 774l47 140h78l-67 -140h-58z" />
    <glyph glyph-name="cacute" unicode="&#x107;" horiz-adv-x="647" 
d="M607 203q-15 -58 -38.5 -98.5t-57 -65.5t-79.5 -36t-106 -11q-84 0 -139 22.5t-87.5 61t-45.5 89t-13 107.5t13 107.5t45.5 89t87.5 60.5t139 22q62 0 108 -11.5t80 -37t56.5 -66.5t36.5 -100h-116q-10 36 -23 59.5t-31.5 37.5t-45.5 19.5t-65 5.5q-48 0 -80.5 -11
t-52 -33.5t-28 -57.5t-8.5 -84t8.5 -84t28 -57.5t52 -33.5t80.5 -11q36 0 62 5t45 18.5t32.5 36t24.5 57.5h117zM296 605l47 140h78l-67 -140h-58z" />
    <glyph glyph-name="Ccircumflex" unicode="&#x108;" horiz-adv-x="681" 
d="M641 214q-19 -59 -44.5 -100t-60.5 -66.5t-82.5 -36.5t-109.5 -11q-87 0 -146 25t-95 71t-51.5 111t-15.5 145t15.5 145t51.5 111t95 71t146 25q63 0 110 -11.5t82.5 -37.5t60.5 -67t44 -100h-121q-6 32 -22.5 55t-40.5 37.5t-53.5 21.5t-59.5 7q-58 0 -95 -21.5t-58 -57
t-29 -82t-8 -96.5t8 -96.5t29 -82t58 -57t95 -21.5q38 0 65.5 5.5t47.5 19t35 36.5t28 58h121zM349 829q-8 5 -15 12l-12 12q14 17 31 50q20 -46 32 -67q7 -13 12 -22l-18 6q-8 2 -16 4.5t-14 4.5zM315 806v16q-2 3 -8 5q-2 1 -5 2q2 1 4 4l4.5 4.5t6.5 7.5q1 4 1 10
q1 1 1 3l1 -1l2 -4q-4 -6 -5 -8q-1 -5 -1.5 -10.5t-0.5 -12.5q5 -7 0 -16z" />
    <glyph glyph-name="ccircumflex" unicode="&#x109;" horiz-adv-x="647" 
d="M607 203q-15 -58 -38.5 -98.5t-57 -65.5t-79.5 -36t-106 -11q-84 0 -139 22.5t-87.5 61t-45.5 89t-13 107.5t13 107.5t45.5 89t87.5 60.5t139 22q62 0 108 -11.5t80 -37t56.5 -66.5t36.5 -100h-116q-10 36 -23 59.5t-31.5 37.5t-45.5 19.5t-65 5.5q-48 0 -80.5 -11
t-52 -33.5t-28 -57.5t-8.5 -84t8.5 -84t28 -57.5t52 -33.5t80.5 -11q36 0 62 5t45 18.5t32.5 36t24.5 57.5h117zM333 660q-8 5 -15 12l-12 12q14 17 31 50q20 -46 32 -67q7 -13 12 -22l-18 6q-8 2 -16 4.5t-14 4.5zM299 637v16q-2 3 -8 5q-2 1 -5 2q2 1 4 4l4.5 4.5t6.5 7.5
q1 4 1 10q1 1 1 3l1 -1l2 -4q-4 -6 -5 -8q-1 -5 -1.5 -10.5t-0.5 -12.5q5 -7 0 -16z" />
    <glyph glyph-name="Cdotaccent" unicode="&#x10a;" horiz-adv-x="681" 
d="M641 214q-19 -59 -44.5 -100t-60.5 -66.5t-82.5 -36.5t-109.5 -11q-87 0 -146 25t-95 71t-51.5 111t-15.5 145t15.5 145t51.5 111t95 71t146 25q63 0 110 -11.5t82.5 -37.5t60.5 -67t44 -100h-121q-6 32 -22.5 55t-40.5 37.5t-53.5 21.5t-59.5 7q-58 0 -95 -21.5t-58 -57
t-29 -82t-8 -96.5t8 -96.5t29 -82t58 -57t95 -21.5q38 0 65.5 5.5t47.5 19t35 36.5t28 58h121zM397 826q0 -22 -15 -37.5t-37 -15.5t-37.5 15.5t-15.5 37.5t15.5 37t37.5 15t37 -15t15 -37z" />
    <glyph glyph-name="cdotaccent" unicode="&#x10b;" horiz-adv-x="647" 
d="M607 203q-15 -58 -38.5 -98.5t-57 -65.5t-79.5 -36t-106 -11q-84 0 -139 22.5t-87.5 61t-45.5 89t-13 107.5t13 107.5t45.5 89t87.5 60.5t139 22q62 0 108 -11.5t80 -37t56.5 -66.5t36.5 -100h-116q-10 36 -23 59.5t-31.5 37.5t-45.5 19.5t-65 5.5q-48 0 -80.5 -11
t-52 -33.5t-28 -57.5t-8.5 -84t8.5 -84t28 -57.5t52 -33.5t80.5 -11q36 0 62 5t45 18.5t32.5 36t24.5 57.5h117zM377 661q0 -22 -15 -37.5t-37 -15.5t-37.5 15.5t-15.5 37.5t15.5 37t37.5 15t37 -15t15 -37z" />
    <glyph glyph-name="Ccaron" unicode="&#x10c;" horiz-adv-x="681" 
d="M641 214q-19 -59 -44.5 -100t-60.5 -66.5t-82.5 -36.5t-109.5 -11q-87 0 -146 25t-95 71t-51.5 111t-15.5 145t15.5 145t51.5 111t95 71t146 25q63 0 110 -11.5t82.5 -37.5t60.5 -67t44 -100h-121q-6 32 -22.5 55t-40.5 37.5t-53.5 21.5t-59.5 7q-58 0 -95 -21.5t-58 -57
t-29 -82t-8 -96.5t8 -96.5t29 -82t58 -57t95 -21.5q38 0 65.5 5.5t47.5 19t35 36.5t28 58h121zM487 962q-17 -14 -38 -38q-19 -22 -45 -57.5t-59 -89.5q-32 54 -60.5 89.5t-49.5 57.5q-24 24 -44 38h74q15 -11 29.5 -26.5t25.5 -29.5q13 -18 25 -36l26 36q11 14 24 29.5
t25 26.5h67z" />
    <glyph glyph-name="ccaron" unicode="&#x10d;" horiz-adv-x="647" 
d="M607 203q-15 -58 -38.5 -98.5t-57 -65.5t-79.5 -36t-106 -11q-84 0 -139 22.5t-87.5 61t-45.5 89t-13 107.5t13 107.5t45.5 89t87.5 60.5t139 22q62 0 108 -11.5t80 -37t56.5 -66.5t36.5 -100h-116q-10 36 -23 59.5t-31.5 37.5t-45.5 19.5t-65 5.5q-48 0 -80.5 -11
t-52 -33.5t-28 -57.5t-8.5 -84t8.5 -84t28 -57.5t52 -33.5t80.5 -11q36 0 62 5t45 18.5t32.5 36t24.5 57.5h117zM468 805q-17 -14 -38 -38q-19 -22 -45 -57.5t-59 -89.5q-32 54 -60.5 89.5t-49.5 57.5q-24 24 -44 38h74q15 -11 29.5 -26.5t25.5 -29.5q13 -18 25 -36l26 36
q11 14 24 29.5t25 26.5h67z" />
    <glyph glyph-name="Dcaron" unicode="&#x10e;" horiz-adv-x="717" 
d="M399 703q82 -1 135.5 -31t85 -79t44.5 -112t13 -129q0 -61 -9.5 -116t-32 -99.5t-59.5 -76.5t-92 -47q-19 -6 -40.5 -9t-41.5 -3h-37q-76 -1 -151.5 -1h-151.5v704zM179 95h193q62 0 99 20.5t56.5 56t26 82t6.5 98.5t-6.5 98.5t-26 81.5t-56.5 55.5t-99 20.5h-193v-513z
M444 947q-17 -14 -38 -38q-19 -22 -45 -57.5t-59 -89.5q-32 54 -60.5 89.5t-49.5 57.5q-24 24 -44 38h74q15 -11 29.5 -26.5t25.5 -29.5q13 -18 25 -36l26 36q11 14 24 29.5t25 26.5h67z" />
    <glyph glyph-name="dcaron" unicode="&#x10f;" horiz-adv-x="878" 
d="M491 703h117v-702h-117v74q-28 -45 -71 -62.5t-95 -17.5q-66 0 -119 15t-89.5 48t-56 85.5t-19.5 127.5t19 126.5t55.5 84t89.5 47t120 14.5q51 0 94.5 -14t71.5 -58v232zM325 448q-49 0 -81 -10t-51 -31.5t-27 -55t-8 -80.5t7 -81t26 -55.5t51 -32t83 -10.5
q47 0 78.5 11t51 33t28 56t8.5 79q0 47 -8 80.5t-27 55t-51 31.5t-80 10zM784 605h-100l28 83h92z" />
    <glyph glyph-name="Dcroat" unicode="&#x110;" horiz-adv-x="908" 
d="M590 703q82 -1 135.5 -31t85 -79t44.5 -112t13 -129q0 -61 -9.5 -116t-32 -99.5t-59.5 -76.5t-92 -47q-19 -6 -40.5 -9t-41.5 -3h-37q-76 -1 -151.5 -1h-151.5v704zM370 95h193q62 0 99 20.5t56.5 56t26 82t6.5 98.5t-6.5 98.5t-26 81.5t-56.5 55.5t-99 20.5h-193v-513z
M62 397h567v-71h-567v71z" />
    <glyph glyph-name="dcroat" unicode="&#x111;" horiz-adv-x="668" 
d="M491 703h117v-702h-117v74q-28 -45 -71 -62.5t-95 -17.5q-66 0 -119 15t-89.5 48t-56 85.5t-19.5 127.5t19 126.5t55.5 84t89.5 47t120 14.5q51 0 94.5 -14t71.5 -58v232zM325 448q-49 0 -81 -10t-51 -31.5t-27 -55t-8 -80.5t7 -81t26 -55.5t51 -32t83 -10.5
q47 0 78.5 11t51 33t28 56t8.5 79q0 47 -8 80.5t-27 55t-51 31.5t-80 10zM568 663l100 -80l-362 -9l-100 80z" />
    <glyph glyph-name="Emacron" unicode="&#x112;" horiz-adv-x="660" 
d="M601 704v-90h-422v-258h383v-90h-383v-177h422v-89h-539v704h539zM461 882l100 -80l-362 -9l-100 80z" />
    <glyph glyph-name="emacron" unicode="&#x113;" horiz-adv-x="646" 
d="M325 552q84 0 139.5 -21.5t88.5 -63.5t45 -103t7 -140h-446q7 -70 45.5 -104t122.5 -34q61 0 99.5 18t45.5 60q5 6 8 17h117q-13 -53 -36.5 -89.5t-57 -58.5t-78 -31.5t-101.5 -9.5q-84 0 -138.5 22.5t-86.5 61t-45 89t-13 106.5q0 57 13 108t45.5 89.5t87 61t138.5 22.5
zM326 457q-87 0 -125 -36t-43 -108h332q-4 71 -41 107.5t-123 36.5zM454 692l100 -80l-362 -9l-100 80z" />
    <glyph glyph-name="Ebreve" unicode="&#x114;" horiz-adv-x="660" 
d="M601 704v-90h-422v-258h383v-90h-383v-177h422v-89h-539v704h539zM427 876q-1 -45 -25.5 -68.5t-70.5 -23.5t-70.5 23.5t-24.5 68.5h43q0 -17 4.5 -27t11.5 -15t16.5 -6t19.5 -1t19.5 1.5t17 6.5t12 14.5t4.5 26.5h43z" />
    <glyph glyph-name="ebreve" unicode="&#x115;" horiz-adv-x="646" 
d="M325 552q84 0 139.5 -21.5t88.5 -63.5t45 -103t7 -140h-446q7 -70 45.5 -104t122.5 -34q61 0 99.5 18t45.5 60q5 6 8 17h117q-13 -53 -36.5 -89.5t-57 -58.5t-78 -31.5t-101.5 -9.5q-84 0 -138.5 22.5t-86.5 61t-45 89t-13 106.5q0 57 13 108t45.5 89.5t87 61t138.5 22.5
zM326 457q-87 0 -125 -36t-43 -108h332q-4 71 -41 107.5t-123 36.5zM419 695q-1 -45 -25.5 -68.5t-70.5 -23.5t-70.5 23.5t-24.5 68.5h43q0 -17 4.5 -27t11.5 -15t16.5 -6t19.5 -1t19.5 1.5t17 6.5t12 14.5t4.5 26.5h43z" />
    <glyph glyph-name="Edotaccent" unicode="&#x116;" horiz-adv-x="660" 
d="M601 704v-90h-422v-258h383v-90h-383v-177h422v-89h-539v704h539zM382 827q0 -22 -15 -37.5t-37 -15.5t-37.5 15.5t-15.5 37.5t15.5 37t37.5 15t37 -15t15 -37z" />
    <glyph glyph-name="edotaccent" unicode="&#x117;" horiz-adv-x="646" 
d="M325 552q84 0 139.5 -21.5t88.5 -63.5t45 -103t7 -140h-446q7 -70 45.5 -104t122.5 -34q61 0 99.5 18t45.5 60q5 6 8 17h117q-13 -53 -36.5 -89.5t-57 -58.5t-78 -31.5t-101.5 -9.5q-84 0 -138.5 22.5t-86.5 61t-45 89t-13 106.5q0 57 13 108t45.5 89.5t87 61t138.5 22.5
zM326 457q-87 0 -125 -36t-43 -108h332q-4 71 -41 107.5t-123 36.5zM376 663q0 -22 -15 -37.5t-37 -15.5t-37.5 15.5t-15.5 37.5t15.5 37t37.5 15t37 -15t15 -37z" />
    <glyph glyph-name="Eogonek" unicode="&#x118;" horiz-adv-x="660" 
d="M601 704v-90h-422v-258h383v-90h-383v-177h422v-89h-539v704h539zM648 83l-48 -75q17 -14 26.5 -32t9.5 -40q0 -47 -31.5 -77.5t-78.5 -30.5q-13 0 -26.5 4t-24 12t-17.5 19.5t-7 26.5t10.5 25.5t26.5 10.5q11 0 18 -5.5t13 -12.5l12 -14t15 -10q11 2 16 11.5t5 19.5
t-5.5 18.5t-14 14.5t-18.5 10.5t-18 7.5l82 117h55z" />
    <glyph glyph-name="eogonek" unicode="&#x119;" horiz-adv-x="646" 
d="M325 552q84 0 139.5 -21.5t88.5 -63.5t45 -103t7 -140h-446q7 -70 45.5 -104t122.5 -34q61 0 99.5 18t45.5 60q5 6 8 17h117q-13 -53 -36.5 -89.5t-57 -58.5t-78 -31.5t-101.5 -9.5q-84 0 -138.5 22.5t-86.5 61t-45 89t-13 106.5q0 57 13 108t45.5 89.5t87 61t138.5 22.5
zM326 457q-87 0 -125 -36t-43 -108h332q-4 71 -41 107.5t-123 36.5zM415 2q-3 -2 -21 -10.5t-35.5 -18.5t-27.5 -19t2 -12q7 -2 17.5 -0.5t22 4t22.5 5.5t18 6v-90q-8 -3 -20 -4.5t-26 -1.5q-20 0 -42 3.5t-40.5 10.5t-31 18t-12.5 27q-1 24 12.5 44t36.5 36.5t52.5 28.5
t60.5 20z" />
    <glyph glyph-name="Ecaron" unicode="&#x11a;" horiz-adv-x="660" 
d="M601 704v-90h-422v-258h383v-90h-383v-177h422v-89h-539v704h539zM478 949q-17 -14 -38 -38q-19 -22 -45 -57.5t-59 -89.5q-32 54 -60.5 89.5t-49.5 57.5q-24 24 -44 38h74q15 -11 29.5 -26.5t25.5 -29.5q13 -18 25 -36l26 36q11 14 24 29.5t25 26.5h67z" />
    <glyph glyph-name="ecaron" unicode="&#x11b;" horiz-adv-x="646" 
d="M325 552q84 0 139.5 -21.5t88.5 -63.5t45 -103t7 -140h-446q7 -70 45.5 -104t122.5 -34q61 0 99.5 18t45.5 60q5 6 8 17h117q-13 -53 -36.5 -89.5t-57 -58.5t-78 -31.5t-101.5 -9.5q-84 0 -138.5 22.5t-86.5 61t-45 89t-13 106.5q0 57 13 108t45.5 89.5t87 61t138.5 22.5
zM326 457q-87 0 -125 -36t-43 -108h332q-4 71 -41 107.5t-123 36.5zM471 802q-17 -14 -38 -38q-19 -22 -45 -57.5t-59 -89.5q-32 54 -60.5 89.5t-49.5 57.5q-24 24 -44 38h74q15 -11 29.5 -26.5t25.5 -29.5q13 -18 25 -36l26 36q11 14 24 29.5t25 26.5h67z" />
    <glyph glyph-name="Gcircumflex" unicode="&#x11c;" horiz-adv-x="686" 
d="M292 356h341v-171q0 -21 -14 -45.5t-27 -41.5q-43 -56 -107 -77t-136 -21q-87 0 -146 25t-95 70.5t-51.5 110.5t-15.5 146t15.5 146t51.5 110.5t95 70.5t146 25q46 0 87 -7.5t75.5 -24.5t61.5 -44t46 -67q9 -17 15 -35.5t12 -37.5h-121q-13 35 -27.5 58.5t-35 37.5
t-48 19.5t-65.5 5.5q-63 0 -100.5 -20t-57.5 -55t-26 -81.5t-6 -100.5t6 -100.5t26 -81.5t57.5 -55t100.5 -20q29 0 53.5 3.5t45.5 13.5t37.5 28t28.5 46l1 81h-223v89zM357 818q-8 5 -15 12l-12 12q14 17 31 50q20 -46 32 -67q7 -13 12 -22l-18 6q-8 2 -16 4.5t-14 4.5z
M323 795v16q-2 3 -8 5q-2 1 -5 2q2 1 4 4l4.5 4.5t6.5 7.5q1 4 1 10q1 1 1 3l1 -1l2 -4q-4 -6 -5 -8q-1 -5 -1.5 -10.5t-0.5 -12.5q5 -7 0 -16z" />
    <glyph glyph-name="gcircumflex" unicode="&#x11d;" horiz-adv-x="652" 
d="M491 542h117v-526q0 -48 -15.5 -89t-49 -71.5t-87 -47.5t-129.5 -17q-78 0 -128.5 22t-82 52t-47 62t-22.5 52h120q7 -27 23.5 -45t38 -28.5t47 -15t51.5 -4.5q38 0 70 10.5t54 33t32.5 58.5t5.5 86q-26 -42 -71 -62t-92 -20q-139 0 -211.5 68.5t-72.5 211.5
q0 74 19.5 126t56 85t89.5 48.5t119 15.5q21 0 45.5 -4.5t47.5 -14.5t42 -25.5t30 -36.5v76zM492 272q0 29 -7.5 61t-26 59t-50.5 44.5t-80 17.5q-88 0 -127 -46t-39 -137q0 -36 9 -69.5t28.5 -59t50.5 -41t76 -15.5q90 0 128 47.5t38 138.5zM344 665q-8 5 -15 12l-12 12
q14 17 31 50q20 -46 32 -67q7 -13 12 -22l-18 6q-8 2 -16 4.5t-14 4.5zM310 642v16q-2 3 -8 5q-2 1 -5 2q2 1 4 4l4.5 4.5t6.5 7.5q1 4 1 10q1 1 1 3l1 -1l2 -4q-4 -6 -5 -8q-1 -5 -1.5 -10.5t-0.5 -12.5q5 -7 0 -16z" />
    <glyph glyph-name="Gbreve" unicode="&#x11e;" horiz-adv-x="686" 
d="M292 356h341v-171q0 -21 -14 -45.5t-27 -41.5q-43 -56 -107 -77t-136 -21q-87 0 -146 25t-95 70.5t-51.5 110.5t-15.5 146t15.5 146t51.5 110.5t95 70.5t146 25q46 0 87 -7.5t75.5 -24.5t61.5 -44t46 -67q9 -17 15 -35.5t12 -37.5h-121q-13 35 -27.5 58.5t-35 37.5
t-48 19.5t-65.5 5.5q-63 0 -100.5 -20t-57.5 -55t-26 -81.5t-6 -100.5t6 -100.5t26 -81.5t57.5 -55t100.5 -20q29 0 53.5 3.5t45.5 13.5t37.5 28t28.5 46l1 81h-223v89zM445 859q-1 -45 -25.5 -68.5t-70.5 -23.5t-70.5 23.5t-24.5 68.5h43q0 -17 4.5 -27t11.5 -15t16.5 -6
t19.5 -1t19.5 1.5t17 6.5t12 14.5t4.5 26.5h43z" />
    <glyph glyph-name="gbreve" unicode="&#x11f;" horiz-adv-x="652" 
d="M491 542h117v-526q0 -48 -15.5 -89t-49 -71.5t-87 -47.5t-129.5 -17q-78 0 -128.5 22t-82 52t-47 62t-22.5 52h120q7 -27 23.5 -45t38 -28.5t47 -15t51.5 -4.5q38 0 70 10.5t54 33t32.5 58.5t5.5 86q-26 -42 -71 -62t-92 -20q-139 0 -211.5 68.5t-72.5 211.5
q0 74 19.5 126t56 85t89.5 48.5t119 15.5q21 0 45.5 -4.5t47.5 -14.5t42 -25.5t30 -36.5v76zM492 272q0 29 -7.5 61t-26 59t-50.5 44.5t-80 17.5q-88 0 -127 -46t-39 -137q0 -36 9 -69.5t28.5 -59t50.5 -41t76 -15.5q90 0 128 47.5t38 138.5zM424 700q-1 -45 -25.5 -68.5
t-70.5 -23.5t-70.5 23.5t-24.5 68.5h43q0 -17 4.5 -27t11.5 -15t16.5 -6t19.5 -1t19.5 1.5t17 6.5t12 14.5t4.5 26.5h43z" />
    <glyph glyph-name="Gdotaccent" unicode="&#x120;" horiz-adv-x="686" 
d="M292 356h341v-171q0 -21 -14 -45.5t-27 -41.5q-43 -56 -107 -77t-136 -21q-87 0 -146 25t-95 70.5t-51.5 110.5t-15.5 146t15.5 146t51.5 110.5t95 70.5t146 25q46 0 87 -7.5t75.5 -24.5t61.5 -44t46 -67q9 -17 15 -35.5t12 -37.5h-121q-13 35 -27.5 58.5t-35 37.5
t-48 19.5t-65.5 5.5q-63 0 -100.5 -20t-57.5 -55t-26 -81.5t-6 -100.5t6 -100.5t26 -81.5t57.5 -55t100.5 -20q29 0 53.5 3.5t45.5 13.5t37.5 28t28.5 46l1 81h-223v89zM397 829q0 -22 -15 -37.5t-37 -15.5t-37.5 15.5t-15.5 37.5t15.5 37t37.5 15t37 -15t15 -37z" />
    <glyph glyph-name="gdotaccent" unicode="&#x121;" horiz-adv-x="652" 
d="M491 542h117v-526q0 -48 -15.5 -89t-49 -71.5t-87 -47.5t-129.5 -17q-78 0 -128.5 22t-82 52t-47 62t-22.5 52h120q7 -27 23.5 -45t38 -28.5t47 -15t51.5 -4.5q38 0 70 10.5t54 33t32.5 58.5t5.5 86q-26 -42 -71 -62t-92 -20q-139 0 -211.5 68.5t-72.5 211.5
q0 74 19.5 126t56 85t89.5 48.5t119 15.5q21 0 45.5 -4.5t47.5 -14.5t42 -25.5t30 -36.5v76zM492 272q0 29 -7.5 61t-26 59t-50.5 44.5t-80 17.5q-88 0 -127 -46t-39 -137q0 -36 9 -69.5t28.5 -59t50.5 -41t76 -15.5q90 0 128 47.5t38 138.5zM379 668q0 -22 -15 -37.5
t-37 -15.5t-37.5 15.5t-15.5 37.5t15.5 37t37.5 15t37 -15t15 -37z" />
    <glyph glyph-name="uni0122" unicode="&#x122;" horiz-adv-x="686" 
d="M633 356v-171q0 -21 -14 -45.5t-27 -41.5q-33 -43 -79 -65t-99 -29l-31 -49q10 -10 16 -22.5t6 -26.5q0 -33 -23 -55.5t-56 -22.5q-20 0 -38 12t-18 35q0 12 9 21t21 9q15 0 21.5 -10t17.5 -18q4 2 5.5 6.5t1.5 8.5q0 13 -15 20t-24 11l53 77q-90 0 -151 23.5t-98.5 68.5
t-53.5 110.5t-16 149.5q0 81 15.5 146t51.5 110.5t95 70.5t146 25q92 0 162 -31.5t108 -109.5q8 -18 14.5 -37t12.5 -38h-121q-13 35 -27.5 58.5t-35 37.5t-48 19.5t-65.5 5.5q-63 0 -100.5 -20t-57.5 -55t-26 -81.5t-6 -100.5t6 -100.5t26 -81.5t57.5 -55t100.5 -20
q29 0 53.5 3.5t45.5 13.5t37.5 28t28.5 46l1 81h-223v89h341z" />
    <glyph glyph-name="uni0123" unicode="&#x123;" horiz-adv-x="652" 
d="M491 542h117v-526q0 -48 -15.5 -89t-49 -71.5t-87 -47.5t-129.5 -17q-78 0 -128.5 22t-82 52t-47 62t-22.5 52h120q7 -27 23.5 -45t38 -28.5t47 -15t51.5 -4.5q38 0 70 10.5t54 33t32.5 58.5t5.5 86q-26 -42 -71 -62t-92 -20q-139 0 -211.5 68.5t-72.5 211.5
q0 74 19.5 126t56 85t89.5 48.5t119 15.5q21 0 45.5 -4.5t47.5 -14.5t42 -25.5t30 -36.5v76zM492 272q0 29 -7.5 61t-26 59t-50.5 44.5t-80 17.5q-88 0 -127 -46t-39 -137q0 -36 9 -69.5t28.5 -59t50.5 -41t76 -15.5q90 0 128 47.5t38 138.5zM321.01 624h22.9971
l6.99902 115h-24.9971z" />
    <glyph glyph-name="Hcircumflex" unicode="&#x124;" horiz-adv-x="737" 
d="M678 704v-704h-118v266h-381v-266h-117v704h117v-348h381v348h118zM376 817q-8 5 -15 12l-12 12q14 17 31 50q20 -46 32 -67q7 -13 12 -22l-18 6q-8 2 -16 4.5t-14 4.5zM342 794v16q-2 3 -8 5q-2 1 -5 2q2 1 4 4l4.5 4.5t6.5 7.5q1 4 1 10q1 1 1 3l1 -1l2 -4q-4 -6 -5 -8
q-1 -5 -1.5 -10.5t-0.5 -12.5q5 -7 0 -16z" />
    <glyph glyph-name="hcircumflex" unicode="&#x125;" horiz-adv-x="674" 
d="M511 0v298q-1 44 -11.5 73.5t-31 47t-51.5 25t-73 7.5q-76 0 -120.5 -32.5t-44.5 -113.5v-305h-118v704h118v-234q28 45 71 59.5t94 14.5q84 0 139 -21t87.5 -55t45.5 -77t13 -87v-304h-118zM129 824q-8 5 -15 12l-12 12q14 17 31 50q20 -46 32 -67q7 -13 12 -22l-18 6
q-8 2 -16 4.5t-14 4.5zM95 801v16q-2 3 -8 5q-2 1 -5 2q2 1 4 4l4.5 4.5t6.5 7.5q1 4 1 10q1 1 1 3l1 -1l2 -4q-4 -6 -5 -8q-1 -5 -1.5 -10.5t-0.5 -12.5q5 -7 0 -16z" />
    <glyph glyph-name="Hbar" unicode="&#x126;" horiz-adv-x="796" 
d="M708 704v-226l30 -16l-30 -1v-461h-118v266h-381v-266h-117v516l-30 17h30v171h117v-169l381 7v162h118zM590 356v103l-381 -6v-97h381z" />
    <glyph glyph-name="hbar" unicode="&#x127;" horiz-adv-x="674" 
d="M511 0v298q-1 44 -11.5 73.5t-31 47t-51.5 25t-73 7.5q-76 0 -120.5 -32.5t-44.5 -113.5v-305h-118v704h118v-234q28 45 71 59.5t94 14.5q84 0 139 -21t87.5 -55t45.5 -77t13 -87v-304h-118zM246 665l100 -80l-362 -9l-100 80z" />
    <glyph glyph-name="Itilde" unicode="&#x128;" horiz-adv-x="177" 
d="M148 0h-117v704h117v-704zM-114 861q12 4 27 9.5t30.5 11t31 9.5t27.5 4q24 0 47 -8t45 -18t42.5 -18t39.5 -8q32 0 60 14t58 24v-85q-29 -9 -57.5 -21.5t-60.5 -12.5q-25 0 -48 8t-44.5 18t-41.5 18t-39 8q-13 0 -28 -4.5t-31 -10.5t-31 -12.5t-27 -10.5v85z" />
    <glyph glyph-name="itilde" unicode="&#x129;" horiz-adv-x="171" 
d="M131 414v-282h-91v282h91zM-115 697q12 4 27 9.5t30.5 11t31 9.5t27.5 4q24 0 47 -8t45 -18t42.5 -18t39.5 -8q32 0 60 14t58 24v-85q-29 -9 -57.5 -21.5t-60.5 -12.5q-25 0 -48 8t-44.5 18t-41.5 18t-39 8q-13 0 -28 -4.5t-31 -10.5t-31 -12.5t-27 -10.5v85z" />
    <glyph glyph-name="Imacron" unicode="&#x12a;" horiz-adv-x="177" 
d="M148 0h-117v704h117v-704zM219 863l100 -80l-362 -9l-100 80z" />
    <glyph glyph-name="imacron" unicode="&#x12b;" horiz-adv-x="171" 
d="M131 414v-282h-91v282h91zM220 721l100 -80l-362 -9l-100 80z" />
    <glyph glyph-name="Iogonek" unicode="&#x12e;" horiz-adv-x="238" 
d="M179 0h-117v704h117v-704zM175 1q-3 -2 -21 -10.5t-35.5 -18.5t-27.5 -19t2 -12q7 -2 17.5 -0.5t22 4t22.5 5.5t18 6v-90q-8 -3 -20 -4.5t-26 -1.5q-20 0 -42 3.5t-40.5 10.5t-31 18t-12.5 27q-1 24 12.5 44t36.5 36.5t52.5 28.5t60.5 20z" />
    <glyph glyph-name="iogonek" unicode="&#x12f;" horiz-adv-x="239" 
d="M62 576v101h117v-101h-117zM62 0v545h117v-545h-117zM172 1q-3 -2 -21 -10.5t-35.5 -18.5t-27.5 -19t2 -12q7 -2 17.5 -0.5t22 4t22.5 5.5t18 6v-90q-8 -3 -20 -4.5t-26 -1.5q-20 0 -42 3.5t-40.5 10.5t-31 18t-12.5 27q-1 24 12.5 44t36.5 36.5t52.5 28.5t60.5 20z" />
    <glyph glyph-name="Idotaccent" unicode="&#x130;" horiz-adv-x="238" 
d="M179 0h-117v704h117v-704zM171 821q0 -22 -15 -37.5t-37 -15.5t-37.5 15.5t-15.5 37.5t15.5 37t37.5 15t37 -15t15 -37z" />
    <glyph glyph-name="dotlessi" unicode="&#x131;" horiz-adv-x="232" 
d="M162 414v-282h-91v282h91z" />
    <glyph glyph-name="IJ" unicode="&#x132;" horiz-adv-x="634" 
d="M179 0h-117v704h117v-704zM579 700l1 -428q0 -68 -13 -119t-48 -85t-97 -51t-160 -17v116q36 0 72 5.5t64 19t45.5 38.5t17.5 64v457h118z" />
    <glyph glyph-name="ij" unicode="&#x133;" horiz-adv-x="480" 
d="M75 576v101h117v-101h-117zM75 0v545h117v-545h-117zM301 678h118v-101h-118v101zM301 544h118v-142v-135.5t0.5 -136t0.5 -142.5q0 -58 -19.5 -104.5t-54 -79.5t-83 -51t-107.5 -18v120q67 2 105.5 32.5t38.5 102.5z" />
    <glyph glyph-name="Jcircumflex" unicode="&#x134;" horiz-adv-x="408" 
d="M353 700l1 -428q0 -68 -13 -119t-48 -85t-97 -51t-160 -17v116q36 0 72 5.5t64 19t45.5 38.5t17.5 64v457h118zM312 818q-8 5 -15 12l-12 12q14 17 31 50q20 -46 32 -67q7 -13 12 -22l-18 6q-8 2 -16 4.5t-14 4.5zM278 795v16q-2 3 -8 5q-2 1 -5 2q2 1 4 4l4.5 4.5
t6.5 7.5q1 4 1 10q1 1 1 3l1 -1l2 -4q-4 -6 -5 -8q-1 -5 -1.5 -10.5t-0.5 -12.5q5 -7 0 -16z" />
    <glyph glyph-name="jcircumflex" unicode="&#x135;" horiz-adv-x="279" 
d="M100 678h118v-101h-118v101zM100 544h118v-142v-135.5t0.5 -136t0.5 -142.5q0 -58 -19.5 -104.5t-54 -79.5t-83 -51t-107.5 -18v120q67 2 105.5 32.5t38.5 102.5zM173 802q-8 5 -15 12l-12 12q14 17 31 50q20 -46 32 -67q7 -13 12 -22l-18 6q-8 2 -16 4.5t-14 4.5z
M139 779v16q-2 3 -8 5q-2 1 -5 2q2 1 4 4l4.5 4.5t6.5 7.5q1 4 1 10q1 1 1 3l1 -1l2 -4q-4 -6 -5 -8q-1 -5 -1.5 -10.5t-0.5 -12.5q5 -7 0 -16z" />
    <glyph glyph-name="uni0136" unicode="&#x136;" horiz-adv-x="714" 
d="M62 704h117v-400l298 398h140l-281 -371l332 -331h-152l-245 246q-3 -4 -16 -21t-28.5 -37t-29.5 -38t-18 -26v-124h-117v704zM232 -191l47 140h78l-67 -140h-58z" />
    <glyph glyph-name="uni0137" unicode="&#x137;" horiz-adv-x="702" 
d="M179 704v-376l227 216h155l-226 -214l333 -330h-153l-258 257l-78 -75v-182h-118v704h118zM208 -188l47 140h78l-67 -140h-58z" />
    <glyph glyph-name="kgreenlandic" unicode="&#x138;" horiz-adv-x="720" 
d="M179 704v-376l227 216h155l-226 -214l333 -330h-153l-258 257l-78 -75v-182h-118v704h118z" />
    <glyph glyph-name="Lacute" unicode="&#x139;" horiz-adv-x="648" 
d="M295 751h-58l47 142h79zM600 0h-539v704h118v-615h421v-89z" />
    <glyph glyph-name="lacute" unicode="&#x13a;" horiz-adv-x="232" 
d="M172 0h-110v700h111zM91 751l47 140h78l-67 -140h-58z" />
    <glyph glyph-name="uni013B" unicode="&#x13b;" horiz-adv-x="648" 
d="M601 0h-539v704h117v-615h422v-89zM242 -191l47 140h78l-67 -140h-58z" />
    <glyph glyph-name="uni013C" unicode="&#x13c;" horiz-adv-x="232" 
d="M172 0h-110v700h111zM31 -191l47 140h78l-67 -140h-58z" />
    <glyph glyph-name="Lcaron" unicode="&#x13d;" horiz-adv-x="648" 
d="M601 0h-539v704h117v-615h422v-89zM349 605h-100l28 83h92z" />
    <glyph glyph-name="lcaron" unicode="&#x13e;" horiz-adv-x="461" 
d="M172 0h-110v700h111zM367 600h-100l28 83h92z" />
    <glyph glyph-name="Ldot" unicode="&#x13f;" horiz-adv-x="648" 
d="M601 0h-539v704h117v-615h422v-89zM386 546q0 -22 -15 -37.5t-37 -15.5t-37.5 15.5t-15.5 37.5t15.5 37t37.5 15t37 -15t15 -37z" />
    <glyph glyph-name="ldot" unicode="&#x140;" horiz-adv-x="232" 
d="M172 0h-110v700h111zM383 574q0 -22 -15 -37.5t-37 -15.5t-37.5 15.5t-15.5 37.5t15.5 37t37.5 15t37 -15t15 -37z" />
    <glyph glyph-name="Lslash" unicode="&#x141;" horiz-adv-x="792" 
d="M745 0h-539v704h117v-615h422v-89zM35.3701 284.652l400.105 231l35.4951 -61.4873l-400.104 -231z" />
    <glyph glyph-name="lslash" unicode="&#x142;" horiz-adv-x="566" 
d="M185 588l187 50l-1 -140l55 62l29 -70l-85 -97l-2 -272l-187 -50l1 108l-40 -45l-30 70l71 80z" />
    <glyph glyph-name="Nacute" unicode="&#x143;" horiz-adv-x="737" 
d="M678 704v-704h-101l-398 515v-515h-117v704h101l398 -515v515h117zM336 743l47 140h78l-67 -140h-58z" />
    <glyph glyph-name="nacute" unicode="&#x144;" horiz-adv-x="686" 
d="M509 0v57t0.5 61t0.5 60.5v56.5q0 49 -4.5 89t-22 68t-50.5 43.5t-90 15.5q-48 0 -79.5 -12.5t-50.5 -36t-26.5 -58.5t-7.5 -80v-264h-118v545h118v-75q33 46 75.5 60t88.5 14q59 0 110.5 -13t90 -41.5t60.5 -73.5t22 -110v-306h-117zM312 604l47 140h78l-67 -140h-58z
" />
    <glyph glyph-name="uni0145" unicode="&#x145;" horiz-adv-x="737" 
d="M678 704v-704h-101l-398 515v-515h-117v704h101l398 -515v515h117zM280 -191l47 140h78l-67 -140h-58z" />
    <glyph glyph-name="uni0146" unicode="&#x146;" horiz-adv-x="686" 
d="M509 0v57t0.5 61t0.5 60.5v56.5q0 49 -4.5 89t-22 68t-50.5 43.5t-90 15.5q-48 0 -79.5 -12.5t-50.5 -36t-26.5 -58.5t-7.5 -80v-264h-118v545h118v-75q33 46 75.5 60t88.5 14q59 0 110.5 -13t90 -41.5t60.5 -73.5t22 -110v-306h-117zM259 -191l47 140h78l-67 -140h-58z
" />
    <glyph glyph-name="Ncaron" unicode="&#x147;" horiz-adv-x="737" 
d="M678 704v-704h-101l-398 515v-515h-117v704h101l398 -515v515h117zM519 938q-17 -14 -38 -38q-19 -22 -45 -57.5t-59 -89.5q-32 54 -60.5 89.5t-49.5 57.5q-24 24 -44 38h74q15 -11 29.5 -26.5t25.5 -29.5q13 -18 25 -36l26 36q11 14 24 29.5t25 26.5h67z" />
    <glyph glyph-name="ncaron" unicode="&#x148;" horiz-adv-x="686" 
d="M509 0v57t0.5 61t0.5 60.5v56.5q0 49 -4.5 89t-22 68t-50.5 43.5t-90 15.5q-48 0 -79.5 -12.5t-50.5 -36t-26.5 -58.5t-7.5 -80v-264h-118v545h118v-75q33 46 75.5 60t88.5 14q59 0 110.5 -13t90 -41.5t60.5 -73.5t22 -110v-306h-117zM491 785q-17 -14 -38 -38
q-19 -22 -45 -57.5t-59 -89.5q-32 54 -60.5 89.5t-49.5 57.5q-24 24 -44 38h74q15 -11 29.5 -26.5t25.5 -29.5q13 -18 25 -36l26 36q11 14 24 29.5t25 26.5h67z" />
    <glyph glyph-name="napostrophe" unicode="&#x149;" horiz-adv-x="689" 
d="M512 0v57t0.5 61t0.5 60.5v56.5q0 49 -4.5 89t-22 68t-50.5 43.5t-90 15.5q-48 0 -79.5 -12.5t-50.5 -36t-26.5 -58.5t-7.5 -80v-264h-118v545h118v-75q33 46 75.5 60t88.5 14q59 0 110.5 -13t90 -41.5t60.5 -73.5t22 -110v-306h-117zM177 609h-100l28 83h92z" />
    <glyph glyph-name="Omacron" unicode="&#x14c;" 
d="M349 704q89 0 148 -24.5t94.5 -70t50.5 -110.5t15 -147q0 -83 -15 -148.5t-51 -110.5t-95 -69t-147 -24q-89 0 -148 24t-94.5 69.5t-50.5 111t-15 147.5t15 147.5t50.5 111t95 69.5t147.5 24zM349 609q-63 0 -101 -20.5t-57.5 -56t-25.5 -82t-6 -98.5q0 -55 6 -102.5
t26 -81.5t57.5 -53.5t100.5 -19.5t101 20.5t58 56t26 82t6 98.5q0 53 -6 99.5t-26.5 81.5t-58 55.5t-100.5 20.5zM480 882l100 -80l-362 -9l-100 80z" />
    <glyph glyph-name="omacron" unicode="&#x14d;" horiz-adv-x="650" 
d="M610 272q0 -143 -71 -211.5t-213 -68.5q-143 0 -214 68.5t-71 211.5t71 211.5t214 68.5q142 0 213 -68.5t71 -211.5zM494 272q0 48 -8 83t-27.5 58.5t-51.5 34.5t-81 11t-81.5 -11t-52 -34.5t-27.5 -58.5t-8 -83t8 -83t27.5 -58t52 -34t81.5 -11t81 11t51.5 34t27.5 58
t8 83zM456 692l100 -80l-362 -9l-100 80z" />
    <glyph glyph-name="Obreve" unicode="&#x14e;" 
d="M349 704q89 0 148 -24.5t94.5 -70t50.5 -110.5t15 -147q0 -83 -15 -148.5t-51 -110.5t-95 -69t-147 -24q-89 0 -148 24t-94.5 69.5t-50.5 111t-15 147.5t15 147.5t50.5 111t95 69.5t147.5 24zM349 609q-63 0 -101 -20.5t-57.5 -56t-25.5 -82t-6 -98.5q0 -55 6 -102.5
t26 -81.5t57.5 -53.5t100.5 -19.5t101 20.5t58 56t26 82t6 98.5q0 53 -6 99.5t-26.5 81.5t-58 55.5t-100.5 20.5zM444 850q-1 -45 -25.5 -68.5t-70.5 -23.5t-70.5 23.5t-24.5 68.5h43q0 -17 4.5 -27t11.5 -15t16.5 -6t19.5 -1t19.5 1.5t17 6.5t12 14.5t4.5 26.5h43z" />
    <glyph glyph-name="obreve" unicode="&#x14f;" horiz-adv-x="650" 
d="M610 272q0 -143 -71 -211.5t-213 -68.5q-143 0 -214 68.5t-71 211.5t71 211.5t214 68.5q142 0 213 -68.5t71 -211.5zM494 272q0 48 -8 83t-27.5 58.5t-51.5 34.5t-81 11t-81.5 -11t-52 -34.5t-27.5 -58.5t-8 -83t8 -83t27.5 -58t52 -34t81.5 -11t81 11t51.5 34t27.5 58
t8 83zM421 691q-1 -45 -25.5 -68.5t-70.5 -23.5t-70.5 23.5t-24.5 68.5h43q0 -17 4.5 -27t11.5 -15t16.5 -6t19.5 -1t19.5 1.5t17 6.5t12 14.5t4.5 26.5h43z" />
    <glyph glyph-name="Ohungarumlaut" unicode="&#x150;" 
d="M349 704q89 0 148 -24.5t94.5 -70t50.5 -110.5t15 -147q0 -83 -15 -148.5t-51 -110.5t-95 -69t-147 -24q-89 0 -148 24t-94.5 69.5t-50.5 111t-15 147.5t15 147.5t50.5 111t95 69.5t147.5 24zM349 609q-63 0 -101 -20.5t-57.5 -56t-25.5 -82t-6 -98.5q0 -55 6 -102.5
t26 -81.5t57.5 -53.5t100.5 -19.5t101 20.5t58 56t26 82t6 98.5q0 53 -6 99.5t-26.5 81.5t-58 55.5t-100.5 20.5zM365 771l29 88h49l-42 -88h-36zM279 771l30 88h48l-42 -88h-36z" />
    <glyph glyph-name="ohungarumlaut" unicode="&#x151;" horiz-adv-x="650" 
d="M610 272q0 -143 -71 -211.5t-213 -68.5q-143 0 -214 68.5t-71 211.5t71 211.5t214 68.5q142 0 213 -68.5t71 -211.5zM494 272q0 48 -8 83t-27.5 58.5t-51.5 34.5t-81 11t-81.5 -11t-52 -34.5t-27.5 -58.5t-8 -83t8 -83t27.5 -58t52 -34t81.5 -11t81 11t51.5 34t27.5 58
t8 83zM350 612l29 88h49l-42 -88h-36zM264 612l30 88h48l-42 -88h-36z" />
    <glyph glyph-name="OE" unicode="&#x152;" horiz-adv-x="1139" 
d="M349 704q89 0 148 -24.5t94.5 -70t50.5 -110.5t15 -147q0 -83 -15 -148.5t-51 -110.5t-95 -69t-147 -24q-89 0 -148 24t-94.5 69.5t-50.5 111t-15 147.5t15 147.5t50.5 111t95 69.5t147.5 24zM349 609q-63 0 -101 -20.5t-57.5 -56t-25.5 -82t-6 -98.5q0 -55 6 -102.5
t26 -81.5t57.5 -53.5t100.5 -19.5t101 20.5t58 56t26 82t6 98.5q0 53 -6 99.5t-26.5 81.5t-58 55.5t-100.5 20.5zM1079 704v-90h-422v-258h383v-90h-383v-177h422v-89h-539v704h539z" />
    <glyph glyph-name="oe" unicode="&#x153;" horiz-adv-x="1098" 
d="M610 271q0 -143 -71 -211.5t-213 -68.5q-143 0 -214 68.5t-71 211.5t71 211.5t214 68.5q142 0 213 -68.5t71 -211.5zM494 271q0 48 -8 83t-27.5 58.5t-51.5 34.5t-81 11t-81.5 -11t-52 -34.5t-27.5 -58.5t-8 -83t8 -83t27.5 -58t52 -34t81.5 -11t81 11t51.5 34t27.5 58
t8 83zM777 552q84 0 139.5 -21.5t88.5 -63.5t45 -103t7 -140h-446q7 -70 45.5 -104t122.5 -34q61 0 99.5 18t45.5 60q5 6 8 17h117q-13 -53 -36.5 -89.5t-57 -58.5t-78 -31.5t-101.5 -9.5q-84 0 -138.5 22.5t-86.5 61t-45 89t-13 106.5q0 57 13 108t45.5 89.5t87 61
t138.5 22.5zM778 457q-87 0 -125 -36t-43 -108h332q-4 71 -41 107.5t-123 36.5z" />
    <glyph glyph-name="Racute" unicode="&#x154;" horiz-adv-x="682" 
d="M642 0h-120l-102 262q-17 -2 -35 -3t-35 -1q-43 -1 -86 -0.5t-86 0.5v-258h-117v703h273q60 0 114 -6.5t94 -29.5t63.5 -66t23.5 -117q0 -28 -5.5 -56.5t-17.5 -54t-31 -47t-46 -35.5zM178 353h187q36 0 63.5 5.5t46 20.5t28 40.5t9.5 64.5q0 47 -12 72.5t-33.5 37
t-52.5 13t-70 1.5h-166v-255zM257 766l47 140h78l-67 -140h-58z" />
    <glyph glyph-name="racute" unicode="&#x155;" horiz-adv-x="418" 
d="M379 451q-43 0 -80 -5t-64 -21.5t-42 -47t-15 -81.5v-296h-117v542h117v-73q19 28 41.5 44t48 24t53.5 10t58 2v-98zM95 599l47 140h78l-67 -140h-58z" />
    <glyph glyph-name="uni0156" unicode="&#x156;" horiz-adv-x="682" 
d="M642 0h-120l-102 262q-17 -2 -35 -3t-35 -1q-43 -1 -86 -0.5t-86 0.5v-258h-117v703h273q60 0 114 -6.5t94 -29.5t63.5 -66t23.5 -117q0 -28 -5.5 -56.5t-17.5 -54t-31 -47t-46 -35.5zM178 353h187q36 0 63.5 5.5t46 20.5t28 40.5t9.5 64.5q0 47 -12 72.5t-33.5 37
t-52.5 13t-70 1.5h-166v-255zM250 -191l47 140h78l-67 -140h-58z" />
    <glyph glyph-name="uni0157" unicode="&#x157;" horiz-adv-x="418" 
d="M379 451q-43 0 -80 -5t-64 -21.5t-42 -47t-15 -81.5v-296h-117v542h117v-73q19 28 41.5 44t48 24t53.5 10t58 2v-98zM37 -191l47 140h78l-67 -140h-58z" />
    <glyph glyph-name="Rcaron" unicode="&#x158;" horiz-adv-x="682" 
d="M642 0h-120l-102 262q-17 -2 -35 -3t-35 -1q-43 -1 -86 -0.5t-86 0.5v-258h-117v703h273q60 0 114 -6.5t94 -29.5t63.5 -66t23.5 -117q0 -28 -5.5 -56.5t-17.5 -54t-31 -47t-46 -35.5zM178 353h187q36 0 63.5 5.5t46 20.5t28 40.5t9.5 64.5q0 47 -12 72.5t-33.5 37
t-52.5 13t-70 1.5h-166v-255zM478 941q-17 -14 -38 -38q-19 -22 -45 -57.5t-59 -89.5q-32 54 -60.5 89.5t-49.5 57.5q-24 24 -44 38h74q15 -11 29.5 -26.5t25.5 -29.5q13 -18 25 -36l26 36q11 14 24 29.5t25 26.5h67z" />
    <glyph glyph-name="rcaron" unicode="&#x159;" horiz-adv-x="418" 
d="M379 451q-43 0 -80 -5t-64 -21.5t-42 -47t-15 -81.5v-296h-117v542h117v-73q19 28 41.5 44t48 24t53.5 10t58 2v-98zM265 785q-17 -14 -38 -38q-19 -22 -45 -57.5t-59 -89.5q-32 54 -60.5 89.5t-49.5 57.5q-24 24 -44 38h74q15 -11 29.5 -26.5t25.5 -29.5q13 -18 25 -36
l26 36q11 14 24 29.5t25 26.5h67z" />
    <glyph glyph-name="Sacute" unicode="&#x15a;" horiz-adv-x="699" 
d="M659 206q0 -54 -27.5 -93t-69.5 -64.5t-92 -38t-96 -12.5q-55 0 -107 10.5t-95.5 34.5t-75.5 63.5t-47 97.5h121q12 -35 32.5 -56.5t47.5 -33.5t59 -16.5t65 -4.5q26 0 55 6.5t54.5 20t42 35t16.5 52.5q0 32 -21.5 51t-57 31t-80.5 19.5t-91.5 16t-91.5 20t-80.5 32.5
t-57 52.5t-21.5 80.5q0 53 28 89.5t70 60t91.5 34t92.5 10.5q60 0 112 -10t94 -34.5t73 -65t50 -100.5h-122q-12 36 -32.5 58.5t-47.5 35t-58.5 17t-66.5 4.5q-22 0 -51 -5t-54.5 -16t-43 -30t-17.5 -48q0 -33 21.5 -52t56.5 -30.5t80 -18t92 -13.5t92 -18.5t80 -32
t56.5 -54t21.5 -85.5zM311 763l47 140h78l-67 -140h-58z" />
    <glyph glyph-name="sacute" unicode="&#x15b;" horiz-adv-x="633" 
d="M340 -10q-53 0 -100.5 9.5t-86.5 32t-67.5 59.5t-43.5 91h120q11 -30 29.5 -49t42 -29.5t51 -14t57.5 -3.5q18 0 40.5 2.5t42.5 10.5t33.5 22.5t13.5 37.5q0 22 -18 35t-48 21t-67.5 12.5t-77.5 10.5t-77.5 14.5t-67.5 24t-48 40t-18 62.5q0 47 23 80.5t59 54.5t79.5 31
t83.5 10q54 0 102 -8.5t86.5 -30t66.5 -58t41 -92.5h-119q-10 32 -27 51.5t-39.5 30.5t-50 14.5t-58.5 3.5q-21 0 -44.5 -5.5t-42.5 -16t-31.5 -26.5t-12.5 -38q0 -27 31.5 -39.5t78.5 -20t101.5 -14.5t101.5 -22.5t78.5 -44t31.5 -78.5q0 -52 -23 -85.5t-59 -52.5
t-80.5 -26t-86.5 -7zM286 605l47 140h78l-67 -140h-58z" />
    <glyph glyph-name="Scircumflex" unicode="&#x15c;" horiz-adv-x="699" 
d="M659 206q0 -54 -27.5 -93t-69.5 -64.5t-92 -38t-96 -12.5q-55 0 -107 10.5t-95.5 34.5t-75.5 63.5t-47 97.5h121q12 -35 32.5 -56.5t47.5 -33.5t59 -16.5t65 -4.5q26 0 55 6.5t54.5 20t42 35t16.5 52.5q0 32 -21.5 51t-57 31t-80.5 19.5t-91.5 16t-91.5 20t-80.5 32.5
t-57 52.5t-21.5 80.5q0 53 28 89.5t70 60t91.5 34t92.5 10.5q60 0 112 -10t94 -34.5t73 -65t50 -100.5h-122q-12 36 -32.5 58.5t-47.5 35t-58.5 17t-66.5 4.5q-22 0 -51 -5t-54.5 -16t-43 -30t-17.5 -48q0 -33 21.5 -52t56.5 -30.5t80 -18t92 -13.5t92 -18.5t80 -32
t56.5 -54t21.5 -85.5zM339 818q-8 5 -15 12l-12 12q14 17 31 50q20 -46 32 -67q7 -13 12 -22l-18 6q-8 2 -16 4.5t-14 4.5zM305 795v16q-2 3 -8 5q-2 1 -5 2q2 1 4 4l4.5 4.5t6.5 7.5q1 4 1 10q1 1 1 3l1 -1l2 -4q-4 -6 -5 -8q-1 -5 -1.5 -10.5t-0.5 -12.5q5 -7 0 -16z" />
    <glyph glyph-name="scircumflex" unicode="&#x15d;" horiz-adv-x="633" 
d="M340 -10q-53 0 -100.5 9.5t-86.5 32t-67.5 59.5t-43.5 91h120q11 -30 29.5 -49t42 -29.5t51 -14t57.5 -3.5q18 0 40.5 2.5t42.5 10.5t33.5 22.5t13.5 37.5q0 22 -18 35t-48 21t-67.5 12.5t-77.5 10.5t-77.5 14.5t-67.5 24t-48 40t-18 62.5q0 47 23 80.5t59 54.5t79.5 31
t83.5 10q54 0 102 -8.5t86.5 -30t66.5 -58t41 -92.5h-119q-10 32 -27 51.5t-39.5 30.5t-50 14.5t-58.5 3.5q-21 0 -44.5 -5.5t-42.5 -16t-31.5 -26.5t-12.5 -38q0 -27 31.5 -39.5t78.5 -20t101.5 -14.5t101.5 -22.5t78.5 -44t31.5 -78.5q0 -52 -23 -85.5t-59 -52.5
t-80.5 -26t-86.5 -7zM326 657q-8 5 -15 12l-12 12q14 17 31 50q20 -46 32 -67q7 -13 12 -22l-18 6q-8 2 -16 4.5t-14 4.5zM292 634v16q-2 3 -8 5q-2 1 -5 2q2 1 4 4l4.5 4.5t6.5 7.5q1 4 1 10q1 1 1 3l1 -1l2 -4q-4 -6 -5 -8q-1 -5 -1.5 -10.5t-0.5 -12.5q5 -7 0 -16z" />
    <glyph glyph-name="Scedilla" unicode="&#x15e;" horiz-adv-x="699" 
d="M659 206q0 -54 -27.5 -93t-69.5 -64.5t-92 -38t-96 -12.5q-55 0 -107 10.5t-95.5 34.5t-75.5 63.5t-47 97.5h121q12 -35 32.5 -56.5t47.5 -33.5t59 -16.5t65 -4.5q26 0 55 6.5t54.5 20t42 35t16.5 52.5q0 32 -21.5 51t-57 31t-80.5 19.5t-91.5 16t-91.5 20t-80.5 32.5
t-57 52.5t-21.5 80.5q0 53 28 89.5t70 60t91.5 34t92.5 10.5q60 0 112 -10t94 -34.5t73 -65t50 -100.5h-122q-12 36 -32.5 58.5t-47.5 35t-58.5 17t-66.5 4.5q-22 0 -51 -5t-54.5 -16t-43 -30t-17.5 -48q0 -33 21.5 -52t56.5 -30.5t80 -18t92 -13.5t92 -18.5t80 -32
t56.5 -54t21.5 -85.5zM473 83l-48 -75q17 -14 26.5 -32t9.5 -40q0 -47 -31.5 -77.5t-78.5 -30.5q-13 0 -26.5 4t-24 12t-17.5 19.5t-7 26.5t10.5 25.5t26.5 10.5q11 0 18 -5.5t13 -12.5l12 -14t15 -10q11 2 16 11.5t5 19.5t-5.5 18.5t-14 14.5t-18.5 10.5t-18 7.5l82 117h55
z" />
    <glyph glyph-name="scedilla" unicode="&#x15f;" horiz-adv-x="633" 
d="M340 -10q-53 0 -100.5 9.5t-86.5 32t-67.5 59.5t-43.5 91h120q11 -30 29.5 -49t42 -29.5t51 -14t57.5 -3.5q18 0 40.5 2.5t42.5 10.5t33.5 22.5t13.5 37.5q0 22 -18 35t-48 21t-67.5 12.5t-77.5 10.5t-77.5 14.5t-67.5 24t-48 40t-18 62.5q0 47 23 80.5t59 54.5t79.5 31
t83.5 10q54 0 102 -8.5t86.5 -30t66.5 -58t41 -92.5h-119q-10 32 -27 51.5t-39.5 30.5t-50 14.5t-58.5 3.5q-21 0 -44.5 -5.5t-42.5 -16t-31.5 -26.5t-12.5 -38q0 -27 31.5 -39.5t78.5 -20t101.5 -14.5t101.5 -22.5t78.5 -44t31.5 -78.5q0 -52 -23 -85.5t-59 -52.5
t-80.5 -26t-86.5 -7zM440 83l-48 -75q17 -14 26.5 -32t9.5 -40q0 -47 -31.5 -77.5t-78.5 -30.5q-13 0 -26.5 4t-24 12t-17.5 19.5t-7 26.5t10.5 25.5t26.5 10.5q11 0 18 -5.5t13 -12.5l12 -14t15 -10q11 2 16 11.5t5 19.5t-5.5 18.5t-14 14.5t-18.5 10.5t-18 7.5l82 117h55z
" />
    <glyph glyph-name="Scaron" unicode="&#x160;" horiz-adv-x="699" 
d="M659 206q0 -54 -27.5 -93t-69.5 -64.5t-92 -38t-96 -12.5q-55 0 -107 10.5t-95.5 34.5t-75.5 63.5t-47 97.5h121q12 -35 32.5 -56.5t47.5 -33.5t59 -16.5t65 -4.5q26 0 55 6.5t54.5 20t42 35t16.5 52.5q0 32 -21.5 51t-57 31t-80.5 19.5t-91.5 16t-91.5 20t-80.5 32.5
t-57 52.5t-21.5 80.5q0 53 28 89.5t70 60t91.5 34t92.5 10.5q60 0 112 -10t94 -34.5t73 -65t50 -100.5h-122q-12 36 -32.5 58.5t-47.5 35t-58.5 17t-66.5 4.5q-22 0 -51 -5t-54.5 -16t-43 -30t-17.5 -48q0 -33 21.5 -52t56.5 -30.5t80 -18t92 -13.5t92 -18.5t80 -32
t56.5 -54t21.5 -85.5zM482 947q-17 -14 -38 -38q-19 -22 -45 -57.5t-59 -89.5q-32 54 -60.5 89.5t-49.5 57.5q-24 24 -44 38h74q15 -11 29.5 -26.5t25.5 -29.5q13 -18 25 -36l26 36q11 14 24 29.5t25 26.5h67z" />
    <glyph glyph-name="scaron" unicode="&#x161;" horiz-adv-x="633" 
d="M340 -10q-53 0 -100.5 9.5t-86.5 32t-67.5 59.5t-43.5 91h120q11 -30 29.5 -49t42 -29.5t51 -14t57.5 -3.5q18 0 40.5 2.5t42.5 10.5t33.5 22.5t13.5 37.5q0 22 -18 35t-48 21t-67.5 12.5t-77.5 10.5t-77.5 14.5t-67.5 24t-48 40t-18 62.5q0 47 23 80.5t59 54.5t79.5 31
t83.5 10q54 0 102 -8.5t86.5 -30t66.5 -58t41 -92.5h-119q-10 32 -27 51.5t-39.5 30.5t-50 14.5t-58.5 3.5q-21 0 -44.5 -5.5t-42.5 -16t-31.5 -26.5t-12.5 -38q0 -27 31.5 -39.5t78.5 -20t101.5 -14.5t101.5 -22.5t78.5 -44t31.5 -78.5q0 -52 -23 -85.5t-59 -52.5
t-80.5 -26t-86.5 -7zM460 796q-17 -14 -38 -38q-19 -22 -45 -57.5t-59 -89.5q-32 54 -60.5 89.5t-49.5 57.5q-24 24 -44 38h74q15 -11 29.5 -26.5t25.5 -29.5q13 -18 25 -36l26 36q11 14 24 29.5t25 26.5h67z" />
    <glyph glyph-name="uni0162" unicode="&#x162;" horiz-adv-x="677" 
d="M447 83l-48 -75q17 -14 26.5 -32t9.5 -40q0 -47 -31.5 -77.5t-78.5 -30.5q-13 0 -26.5 4t-24 12t-17.5 19.5t-7 26.5t10.5 25.5t26.5 10.5q11 0 18 -5.5t13 -12.5l12 -14t15 -10q11 2 16 11.5t5 19.5t-5.5 18.5t-14 14.5t-18.5 10.5t-18 7.5l82 117h55zM647 704v-90h-249
v-614h-117v614h-250v90h616z" />
    <glyph glyph-name="uni0163" unicode="&#x163;" horiz-adv-x="444" 
d="M422 0q-64 0 -121 9t-99.5 34t-68 71.5t-27.5 121.5q-2 106 0 222h-89v86h89v156h118v-156h201v-86h-201v-215q0 -51 15.5 -80.5t42 -44.5t62.5 -19t78 -4v-95zM465 83l-48 -75q17 -14 26.5 -32t9.5 -40q0 -47 -31.5 -77.5t-78.5 -30.5q-13 0 -26.5 4t-24 12t-17.5 19.5
t-7 26.5t10.5 25.5t26.5 10.5q11 0 18 -5.5t13 -12.5l12 -14t15 -10q11 2 16 11.5t5 19.5t-5.5 18.5t-14 14.5t-18.5 10.5t-18 7.5l82 117h55z" />
    <glyph glyph-name="Tcaron" unicode="&#x164;" horiz-adv-x="677" 
d="M647 704v-90h-249v-614h-117v614h-250v90h616zM487 950q-17 -14 -38 -38q-19 -22 -45 -57.5t-59 -89.5q-32 54 -60.5 89.5t-49.5 57.5q-24 24 -44 38h74q15 -11 29.5 -26.5t25.5 -29.5q13 -18 25 -36l26 36q11 14 24 29.5t25 26.5h67z" />
    <glyph glyph-name="tcaron" unicode="&#x165;" horiz-adv-x="643" 
d="M422 0q-64 0 -121 9t-99.5 34t-68 71.5t-27.5 121.5q-2 106 0 222h-89v86h89v156h118v-156h201v-86h-201v-215q0 -51 15.5 -80.5t42 -44.5t62.5 -19t78 -4v-95zM590 605h-100l28 83h92z" />
    <glyph glyph-name="Tbar" unicode="&#x166;" horiz-adv-x="677" 
d="M647 704v-90h-249v-614h-117v614h-250v90h616zM470 394l100 -80l-362 -9l-100 80z" />
    <glyph glyph-name="tbar" unicode="&#x167;" horiz-adv-x="448" 
d="M426 0q-64 0 -121 9t-99.5 34t-68 71.5t-27.5 121.5v58h-93v89h93v75h-89v86h90v156h117v-156h201v-86h-201v-75h144v-89h-144v-51q0 -51 15.5 -80.5t42.5 -44.5t63 -19t77 -4v-95z" />
    <glyph glyph-name="Utilde" unicode="&#x168;" 
d="M540 704h118v-354q0 -80 -16 -145t-52 -110.5t-95 -70t-145 -24.5q-87 0 -146 24.5t-95 70t-51.5 110.5t-15.5 145v354h117v-354q0 -52 7 -98.5t27 -81.5t58 -55t99 -20t98.5 20.5t57.5 55t27 81t7 98.5v354zM145 865q12 4 27 9.5t30.5 11t31 9.5t27.5 4q24 0 47 -8
t45 -18t42.5 -18t39.5 -8q32 0 60 14t58 24v-85q-29 -9 -57.5 -21.5t-60.5 -12.5q-25 0 -48 8t-44.5 18t-41.5 18t-39 8q-13 0 -28 -4.5t-31 -10.5t-31 -12.5t-27 -10.5v85z" />
    <glyph glyph-name="utilde" unicode="&#x169;" horiz-adv-x="660" 
d="M497 545h118v-303q0 -65 -22 -111.5t-60.5 -76.5t-90.5 -44t-112 -14q-63 0 -115 15t-89 46.5t-58 79.5t-22 114l1 294h117v-302q0 -80 45 -115t121 -35q35 0 65 9.5t52.5 28t35 46t12.5 64.5zM126 714q12 4 27 9.5t30.5 11t31 9.5t27.5 4q24 0 47 -8t45 -18t42.5 -18
t39.5 -8q32 0 60 14t58 24v-85q-29 -9 -57.5 -21.5t-60.5 -12.5q-25 0 -48 8t-44.5 18t-41.5 18t-39 8q-13 0 -28 -4.5t-31 -10.5t-31 -12.5t-27 -10.5v85z" />
    <glyph glyph-name="Umacron" unicode="&#x16a;" 
d="M540 704h118v-354q0 -80 -16 -145t-52 -110.5t-95 -70t-145 -24.5q-87 0 -146 24.5t-95 70t-51.5 110.5t-15.5 145v354h117v-354q0 -52 7 -98.5t27 -81.5t58 -55t99 -20t98.5 20.5t57.5 55t27 81t7 98.5v354zM480 882l100 -80l-362 -9l-100 80z" />
    <glyph glyph-name="umacron" unicode="&#x16b;" horiz-adv-x="660" 
d="M497 545h118v-303q0 -65 -22 -111.5t-60.5 -76.5t-90.5 -44t-112 -14q-63 0 -115 15t-89 46.5t-58 79.5t-22 114l1 294h117v-302q0 -80 45 -115t121 -35q35 0 65 9.5t52.5 28t35 46t12.5 64.5zM461 692l100 -80l-362 -9l-100 80z" />
    <glyph glyph-name="Ubreve" unicode="&#x16c;" 
d="M540 704h118v-354q0 -80 -16 -145t-52 -110.5t-95 -70t-145 -24.5q-87 0 -146 24.5t-95 70t-51.5 110.5t-15.5 145v354h117v-354q0 -52 7 -98.5t27 -81.5t58 -55t99 -20t98.5 20.5t57.5 55t27 81t7 98.5v354zM445 852q-1 -45 -25.5 -68.5t-70.5 -23.5t-70.5 23.5
t-24.5 68.5h43q0 -17 4.5 -27t11.5 -15t16.5 -6t19.5 -1t19.5 1.5t17 6.5t12 14.5t4.5 26.5h43z" />
    <glyph glyph-name="ubreve" unicode="&#x16d;" horiz-adv-x="660" 
d="M497 545h118v-303q0 -65 -22 -111.5t-60.5 -76.5t-90.5 -44t-112 -14q-63 0 -115 15t-89 46.5t-58 79.5t-22 114l1 294h117v-302q0 -80 45 -115t121 -35q35 0 65 9.5t52.5 28t35 46t12.5 64.5zM426 700q-1 -45 -25.5 -68.5t-70.5 -23.5t-70.5 23.5t-24.5 68.5h43
q0 -17 4.5 -27t11.5 -15t16.5 -6t19.5 -1t19.5 1.5t17 6.5t12 14.5t4.5 26.5h43z" />
    <glyph glyph-name="Uring" unicode="&#x16e;" 
d="M540 704h118v-354q0 -80 -16 -145t-52 -110.5t-95 -70t-145 -24.5q-87 0 -146 24.5t-95 70t-51.5 110.5t-15.5 145v354h117v-354q0 -52 7 -98.5t27 -81.5t58 -55t99 -20t98.5 20.5t57.5 55t27 81t7 98.5v354zM349 899q29 0 50 -20.5t21 -50.5q0 -29 -21 -50t-50 -21
t-50 21t-21 50q0 30 21 50.5t50 20.5zM349 800q13 0 21 7.5t8 20.5q0 14 -8 21.5t-21 7.5t-21 -8t-8 -21t8 -20.5t21 -7.5z" />
    <glyph glyph-name="uring" unicode="&#x16f;" horiz-adv-x="660" 
d="M497 545h118v-303q0 -65 -22 -111.5t-60.5 -76.5t-90.5 -44t-112 -14q-63 0 -115 15t-89 46.5t-58 79.5t-22 114l1 294h117v-302q0 -80 45 -115t121 -35q35 0 65 9.5t52.5 28t35 46t12.5 64.5zM335 736q29 0 50 -20.5t21 -50.5q0 -29 -21 -50t-50 -21t-50 21t-21 50
q0 30 21 50.5t50 20.5zM335 637q13 0 21 7.5t8 20.5q0 14 -8 21.5t-21 7.5t-21 -8t-8 -21t8 -20.5t21 -7.5z" />
    <glyph glyph-name="Uhungarumlaut" unicode="&#x170;" 
d="M540 704h118v-354q0 -80 -16 -145t-52 -110.5t-95 -70t-145 -24.5q-87 0 -146 24.5t-95 70t-51.5 110.5t-15.5 145v354h117v-354q0 -52 7 -98.5t27 -81.5t58 -55t99 -20t98.5 20.5t57.5 55t27 81t7 98.5v354zM353 812l29 88h49l-42 -88h-36zM267 812l30 88h48l-42 -88
h-36z" />
    <glyph glyph-name="uhungarumlaut" unicode="&#x171;" horiz-adv-x="660" 
d="M497 545h118v-303q0 -65 -22 -111.5t-60.5 -76.5t-90.5 -44t-112 -14q-63 0 -115 15t-89 46.5t-58 79.5t-22 114l1 294h117v-302q0 -80 45 -115t121 -35q35 0 65 9.5t52.5 28t35 46t12.5 64.5zM334 612l29 88h49l-42 -88h-36zM248 612l30 88h48l-42 -88h-36z" />
    <glyph glyph-name="Uogonek" unicode="&#x172;" 
d="M540 704h118v-354q0 -80 -16 -145t-52 -110.5t-95 -70t-145 -24.5q-87 0 -146 24.5t-95 70t-51.5 110.5t-15.5 145v354h117v-354q0 -52 7 -98.5t27 -81.5t58 -55t99 -20t98.5 20.5t57.5 55t27 81t7 98.5v354zM383 7q-3 -2 -21 -10.5t-35.5 -18.5t-27.5 -19t2 -12
q7 -2 17.5 -0.5t22 4t22.5 5.5t18 6v-90q-8 -3 -20 -4.5t-26 -1.5q-20 0 -42 3.5t-40.5 10.5t-31 18t-12.5 27q-1 24 12.5 44t36.5 36.5t52.5 28.5t60.5 20z" />
    <glyph glyph-name="uogonek" unicode="&#x173;" horiz-adv-x="660" 
d="M497 545h118v-303q0 -65 -22 -111.5t-60.5 -76.5t-90.5 -44t-112 -14q-63 0 -115 15t-89 46.5t-58 79.5t-22 114l1 294h117v-302q0 -80 45 -115t121 -35q35 0 65 9.5t52.5 28t35 46t12.5 64.5zM617 -4q-3 -2 -21 -10.5t-35.5 -18.5t-27.5 -19t2 -12q7 -2 17.5 -0.5t22 4
t22.5 5.5t18 6v-90q-8 -3 -20 -4.5t-26 -1.5q-20 0 -42 3.5t-40.5 10.5t-31 18t-12.5 27q-1 24 12.5 44t36.5 36.5t52.5 28.5t60.5 20z" />
    <glyph glyph-name="Wcircumflex" unicode="&#x174;" horiz-adv-x="994" 
d="M971 704l-244 -704h-100l-129 370l-127 -370h-101l-245 704h122l173 -499l117 339h122l118 -339l172 499h122zM507 823q-8 5 -15 12l-12 12q14 17 31 50q20 -46 32 -67q7 -13 12 -22l-18 6q-8 2 -16 4.5t-14 4.5zM473 800v16q-2 3 -8 5q-2 1 -5 2q2 1 4 4l4.5 4.5
t6.5 7.5q1 4 1 10q1 1 1 3l1 -1l2 -4q-4 -6 -5 -8q-1 -5 -1.5 -10.5t-0.5 -12.5q5 -7 0 -16z" />
    <glyph glyph-name="wcircumflex" unicode="&#x175;" horiz-adv-x="1097" 
d="M773 159l178 386h121l-250 -545h-102l-171 386l-177 -386h-96l-252 545h122l177 -385l177 385h86q22 -47 38 -80.5t29.5 -61t26 -51.5t26 -51.5t29.5 -61t38 -80.5zM557 681q-8 5 -15 12l-12 12q14 17 31 50q20 -46 32 -67q7 -13 12 -22l-18 6q-8 2 -16 4.5t-14 4.5z
M523 658v16q-2 3 -8 5q-2 1 -5 2q2 1 4 4l4.5 4.5t6.5 7.5q1 4 1 10q1 1 1 3l1 -1l2 -4q-4 -6 -5 -8q-1 -5 -1.5 -10.5t-0.5 -12.5q5 -7 0 -16z" />
    <glyph glyph-name="Ycircumflex" unicode="&#x176;" horiz-adv-x="674" 
d="M536 704h132l-263 -416v-288h-117v288l-282 416h136l203 -303zM346 838q-8 5 -15 12l-12 12q14 17 31 50q20 -46 32 -67q7 -13 12 -22l-18 6q-8 2 -16 4.5t-14 4.5zM312 815v16q-2 3 -8 5q-2 1 -5 2q2 1 4 4l4.5 4.5t6.5 7.5q1 4 1 10q1 1 1 3l1 -1l2 -4q-4 -6 -5 -8
q-1 -5 -1.5 -10.5t-0.5 -12.5q5 -7 0 -16z" />
    <glyph glyph-name="ycircumflex" unicode="&#x177;" horiz-adv-x="611" 
d="M598 545q-27 -57 -56.5 -121t-60.5 -132t-63.5 -137.5t-64.5 -135.5q-13 -30 -28.5 -61t-35.5 -57t-46 -46t-61 -28q-34 -10 -70 -11t-76 -3v94q48 1 76 1t49 12q18 11 37.5 42t42.5 73l-226 510h123l166 -376l171 376h123zM324 688q-8 5 -15 12l-12 12q14 17 31 50
q20 -46 32 -67q7 -13 12 -22l-18 6q-8 2 -16 4.5t-14 4.5zM290 665v16q-2 3 -8 5q-2 1 -5 2q2 1 4 4l4.5 4.5t6.5 7.5q1 4 1 10q1 1 1 3l1 -1l2 -4q-4 -6 -5 -8q-1 -5 -1.5 -10.5t-0.5 -12.5q5 -7 0 -16z" />
    <glyph glyph-name="Ydieresis" unicode="&#x178;" horiz-adv-x="673" 
d="M536 704h132l-263 -416v-288h-117v288l-282 416h136l203 -303zM358 812q0 22 15.5 37t37.5 15t37 -15t15 -37t-15 -37.5t-37 -15.5t-37.5 15.5t-15.5 37.5zM210 812q0 22 15 37t37 15t37.5 -15t15.5 -37t-15.5 -37.5t-37.5 -15.5t-37 15.5t-15 37.5z" />
    <glyph glyph-name="Zacute" unicode="&#x179;" horiz-adv-x="667" 
d="M471 609h-424v95h575v-75l-444 -534h464v-95h-616v95zM278 759l47 140h78l-67 -140h-58z" />
    <glyph glyph-name="zacute" unicode="&#x17a;" horiz-adv-x="674" 
d="M598 538v-76l-370 -367h394v-95h-568v76l375 367h-375v95h544zM274 599l47 140h78l-67 -140h-58z" />
    <glyph glyph-name="Zdotaccent" unicode="&#x17b;" horiz-adv-x="667" 
d="M471 609h-424v95h575v-75l-444 -534h464v-95h-616v95zM386 816q0 -22 -15 -37.5t-37 -15.5t-37.5 15.5t-15.5 37.5t15.5 37t37.5 15t37 -15t15 -37z" />
    <glyph glyph-name="zdotaccent" unicode="&#x17c;" horiz-adv-x="674" 
d="M598 538v-76l-370 -367h394v-95h-568v76l375 367h-375v95h544zM389 650q0 -22 -15 -37.5t-37 -15.5t-37.5 15.5t-15.5 37.5t15.5 37t37.5 15t37 -15t15 -37z" />
    <glyph glyph-name="Zcaron" unicode="&#x17d;" horiz-adv-x="667" 
d="M471 609h-424v95h575v-75l-444 -534h464v-95h-616v95zM482 955q-17 -14 -38 -38q-19 -22 -45 -57.5t-59 -89.5q-32 54 -60.5 89.5t-49.5 57.5q-24 24 -44 38h74q15 -11 29.5 -26.5t25.5 -29.5q13 -18 25 -36l26 36q11 14 24 29.5t25 26.5h67z" />
    <glyph glyph-name="zcaron" unicode="&#x17e;" horiz-adv-x="674" 
d="M598 538v-76l-370 -367h394v-95h-568v76l375 367h-375v95h544zM485 787q-17 -14 -38 -38q-19 -22 -45 -57.5t-59 -89.5q-32 54 -60.5 89.5t-49.5 57.5q-24 24 -44 38h74q15 -11 29.5 -26.5t25.5 -29.5q13 -18 25 -36l26 36q11 14 24 29.5t25 26.5h67z" />
    <glyph glyph-name="longs" unicode="&#x17f;" horiz-adv-x="375" 
d="M31 0v345q0 66 14.5 124.5t46 104t80.5 76t117 42.5q14 2 29 4t29 4v-127q-55 -6 -91.5 -22t-58 -43.5t-30 -68t-8.5 -94.5v-345h-128z" />
    <glyph glyph-name="florin" unicode="&#x192;" horiz-adv-x="427" 
d="M402 704v-95q-11 0 -24.5 -2t-26 -5.5t-22.5 -10t-15 -15.5q-13 0 -20 -2t-10.5 -5.5t-5.5 -10t-5 -15.5l128 -8l-51 -77q-9 -1 -29.5 -1.5t-43.5 -1.5t-44 -2t-30 -2v-451h-117v37v414q-5 1 -20.5 3t-20.5 4l-15 77l53 8q20 54 74 85t146 32q6 13 17 21.5t24.5 13.5
t29 7t28.5 2z" />
    <glyph glyph-name="uni0218" unicode="&#x218;" horiz-adv-x="699" 
d="M659 206q0 -54 -27.5 -93t-69.5 -64.5t-92 -38t-96 -12.5q-55 0 -107 10.5t-95.5 34.5t-75.5 63.5t-47 97.5h121q12 -35 32.5 -56.5t47.5 -33.5t59 -16.5t65 -4.5q26 0 55 6.5t54.5 20t42 35t16.5 52.5q0 32 -21.5 51t-57 31t-80.5 19.5t-91.5 16t-91.5 20t-80.5 32.5
t-57 52.5t-21.5 80.5q0 53 28 89.5t70 60t91.5 34t92.5 10.5q60 0 112 -10t94 -34.5t73 -65t50 -100.5h-122q-12 36 -32.5 58.5t-47.5 35t-58.5 17t-66.5 4.5q-22 0 -51 -5t-54.5 -16t-43 -30t-17.5 -48q0 -33 21.5 -52t56.5 -30.5t80 -18t92 -13.5t92 -18.5t80 -32
t56.5 -54t21.5 -85.5zM303 -191l47 140h78l-67 -140h-58z" />
    <glyph glyph-name="uni0219" unicode="&#x219;" horiz-adv-x="633" 
d="M340 -10q-53 0 -100.5 9.5t-86.5 32t-67.5 59.5t-43.5 91h120q11 -30 29.5 -49t42 -29.5t51 -14t57.5 -3.5q18 0 40.5 2.5t42.5 10.5t33.5 22.5t13.5 37.5q0 22 -18 35t-48 21t-67.5 12.5t-77.5 10.5t-77.5 14.5t-67.5 24t-48 40t-18 62.5q0 47 23 80.5t59 54.5t79.5 31
t83.5 10q54 0 102 -8.5t86.5 -30t66.5 -58t41 -92.5h-119q-10 32 -27 51.5t-39.5 30.5t-50 14.5t-58.5 3.5q-21 0 -44.5 -5.5t-42.5 -16t-31.5 -26.5t-12.5 -38q0 -27 31.5 -39.5t78.5 -20t101.5 -14.5t101.5 -22.5t78.5 -44t31.5 -78.5q0 -52 -23 -85.5t-59 -52.5
t-80.5 -26t-86.5 -7zM256 -191l47 140h78l-67 -140h-58z" />
    <glyph glyph-name="uni021A" unicode="&#x21a;" horiz-adv-x="677" 
d="M647 704v-90h-249v-614h-117v614h-250v90h616zM254 -191l47 140h78l-67 -140h-58z" />
    <glyph glyph-name="uni021B" unicode="&#x21b;" horiz-adv-x="444" 
d="M422 0q-64 0 -121 9t-99.5 34t-68 71.5t-27.5 121.5q-2 106 0 222h-89v86h89v156h118v-156h201v-86h-201v-215q0 -51 15.5 -80.5t42 -44.5t62.5 -19t78 -4v-95zM216 -191l47 140h78l-67 -140h-58z" />
    <glyph glyph-name="uni0237" unicode="&#x237;" horiz-adv-x="279" 
d="M100 678h118v-101h-118v101zM100 544h118v-142v-135.5t0.5 -136t0.5 -142.5q0 -58 -19.5 -104.5t-54 -79.5t-83 -51t-107.5 -18v120q67 2 105.5 32.5t38.5 102.5z" />
    <glyph glyph-name="circumflex" unicode="&#x2c6;" horiz-adv-x="367" 
d="M193 623q-8 5 -15 12l-12 12q14 17 31 50q20 -46 32 -67q7 -13 12 -22l-18 6q-8 2 -16 4.5t-14 4.5zM159 600v16q-2 3 -8 5q-2 1 -5 2q2 1 4 4l4.5 4.5t6.5 7.5q1 4 1 10q1 1 1 3l1 -1l2 -4q-4 -6 -5 -8q-1 -5 -1.5 -10.5t-0.5 -12.5q5 -7 0 -16z" />
    <glyph glyph-name="caron" unicode="&#x2c7;" horiz-adv-x="373" 
d="M326 750q-17 -14 -38 -38q-19 -22 -45 -57.5t-59 -89.5q-32 54 -60.5 89.5t-49.5 57.5q-24 24 -44 38h74q15 -11 29.5 -26.5t25.5 -29.5q13 -18 25 -36l26 36q11 14 24 29.5t25 26.5h67z" />
    <glyph glyph-name="uni02C9" unicode="&#x2c9;" horiz-adv-x="335" 
d="M30 385h280v-68h-280v68z" />
    <glyph glyph-name="breve" unicode="&#x2d8;" horiz-adv-x="251" 
d="M222 700q-1 -45 -25.5 -68.5t-70.5 -23.5t-70.5 23.5t-24.5 68.5h43q0 -17 4.5 -27t11.5 -15t16.5 -6t19.5 -1t19.5 1.5t17 6.5t12 14.5t4.5 26.5h43z" />
    <glyph glyph-name="dotaccent" unicode="&#x2d9;" horiz-adv-x="165" 
d="M135 648q0 -22 -15 -37.5t-37 -15.5t-37.5 15.5t-15.5 37.5t15.5 37t37.5 15t37 -15t15 -37z" />
    <glyph glyph-name="ring" unicode="&#x2da;" horiz-adv-x="201" 
d="M101 699q29 0 50 -20.5t21 -50.5q0 -29 -21 -50t-50 -21t-50 21t-21 50q0 30 21 50.5t50 20.5zM101 600q13 0 21 7.5t8 20.5q0 14 -8 21.5t-21 7.5t-21 -8t-8 -21t8 -20.5t21 -7.5z" />
    <glyph glyph-name="ogonek" unicode="&#x2db;" horiz-adv-x="234" 
d="M205 1q-3 -2 -21 -10.5t-35.5 -18.5t-27.5 -19t2 -12q7 -2 17.5 -0.5t22 4t22.5 5.5t18 6v-90q-8 -3 -20 -4.5t-26 -1.5q-20 0 -42 3.5t-40.5 10.5t-31 18t-12.5 27q-1 24 12.5 44t36.5 36.5t52.5 28.5t60.5 20z" />
    <glyph glyph-name="tilde" unicode="&#x2dc;" horiz-adv-x="0" 
d="M-455 387q12 4 27 9.5t30.5 11t31 9.5t27.5 4q24 0 47 -8t45 -18t42.5 -18t39.5 -8q32 0 60 14t58 24v-85q-29 -9 -57.5 -21.5t-60.5 -12.5q-25 0 -48 8t-44.5 18t-41.5 18t-39 8q-13 0 -28 -4.5t-31 -10.5t-31 -12.5t-27 -10.5v85z" />
    <glyph glyph-name="hungarumlaut" unicode="&#x2dd;" horiz-adv-x="223" 
d="M116 612l29 88h49l-42 -88h-36zM30 612l30 88h48l-42 -88h-36z" />
    <glyph glyph-name="uni0326" unicode="&#x326;" horiz-adv-x="238" 
d="M61 -114v96h118v-96q0 -18 -3 -35t-8 -30t-12.5 -21t-15.5 -8h-64q3 3 8.5 14t10 25.5t7 29t0.5 25.5h-7h-13h-13h-8z" />
    <glyph glyph-name="uni0394" unicode="&#x394;" horiz-adv-x="566" 
d="M561 70v-70h-555v69l225 587l92 1zM130 103h306l-157 389z" />
    <glyph glyph-name="uni03A9" unicode="&#x3a9;" horiz-adv-x="736" 
d="M457 11l-31 101q38 13 70.5 37.5t56.5 56.5t37.5 70t13.5 79q0 56 -14.5 104t-44 82.5t-73.5 54t-104 19.5q-59 0 -103 -20t-73.5 -55t-44 -82.5t-14.5 -102.5q0 -41 14 -79t38 -70t56.5 -56.5t69.5 -37.5l-31 -101l-236 -11l69 85l71 19q-28 21 -50.5 49.5t-39 61.5
t-25.5 68.5t-9 71.5q0 71 20.5 132t59.5 106t96.5 70.5t131.5 25.5q75 0 132.5 -25.5t97 -70t59.5 -105.5t20 -133q0 -36 -9 -71.5t-25.5 -68.5t-39.5 -61.5t-51 -49.5l72 -19l69 -85z" />
    <glyph glyph-name="uni03BC" unicode="&#x3bc;" horiz-adv-x="615" 
d="M570 506v-553h-106l-1 87q-61 -40 -155 -40q-97 0 -155 40v-239h-107v705h107v-278q0 -75 41.5 -107.5t113.5 -32.5q33 0 61 9t48.5 26t32.5 43t12 60l2 280h106z" />
    <glyph glyph-name="pi" unicode="&#x3c0;" horiz-adv-x="239" 
d="M19 578v-48h392v-85h-83v-445h-85v445h-224v-445h-85v445h-101v85h101v48h85z" />
    <glyph glyph-name="Wgrave" unicode="&#x1e80;" horiz-adv-x="994" 
d="M971 704l-244 -704h-100l-129 370l-127 -370h-101l-245 704h122l173 -499l117 339h122l118 -339l172 499h122zM393 909h78l47 -140h-58z" />
    <glyph glyph-name="wgrave" unicode="&#x1e81;" horiz-adv-x="1097" 
d="M773 159l178 386h121l-250 -545h-102l-171 386l-177 -386h-96l-252 545h122l177 -385l177 385h86q22 -47 38 -80.5t29.5 -61t26 -51.5t26 -51.5t29.5 -61t38 -80.5zM447 746h78l47 -140h-58z" />
    <glyph glyph-name="Wacute" unicode="&#x1e82;" horiz-adv-x="994" 
d="M971 704l-244 -704h-100l-129 370l-127 -370h-101l-245 704h122l173 -499l117 339h122l118 -339l172 499h122zM473 758l47 140h78l-67 -140h-58z" />
    <glyph glyph-name="wacute" unicode="&#x1e83;" horiz-adv-x="1097" 
d="M773 159l178 386h121l-250 -545h-102l-171 386l-177 -386h-96l-252 545h122l177 -385l177 385h86q22 -47 38 -80.5t29.5 -61t26 -51.5t26 -51.5t29.5 -61t38 -80.5zM523 611l47 140h78l-67 -140h-58z" />
    <glyph glyph-name="Wdieresis" unicode="&#x1e84;" horiz-adv-x="994" 
d="M971 704l-244 -704h-100l-129 370l-127 -370h-101l-245 704h122l173 -499l117 339h122l118 -339l172 499h122zM519 808q0 22 15.5 37t37.5 15t37 -15t15 -37t-15 -37.5t-37 -15.5t-37.5 15.5t-15.5 37.5zM371 808q0 22 15 37t37 15t37.5 -15t15.5 -37t-15.5 -37.5
t-37.5 -15.5t-37 15.5t-15 37.5z" />
    <glyph glyph-name="wdieresis" unicode="&#x1e85;" horiz-adv-x="1097" 
d="M773 159l178 386h121l-250 -545h-102l-171 386l-177 -386h-96l-252 545h122l177 -385l177 385h86q22 -47 38 -80.5t29.5 -61t26 -51.5t26 -51.5t29.5 -61t38 -80.5zM570 655q0 22 15.5 37t37.5 15t37 -15t15 -37t-15 -37.5t-37 -15.5t-37.5 15.5t-15.5 37.5zM422 655
q0 22 15 37t37 15t37.5 -15t15.5 -37t-15.5 -37.5t-37.5 -15.5t-37 15.5t-15 37.5z" />
    <glyph glyph-name="endash" unicode="&#x2013;" horiz-adv-x="522" 
d="M31 387h462v-71h-462v71z" />
    <glyph glyph-name="emdash" unicode="&#x2014;" horiz-adv-x="676" 
d="M31 326h616v-72h-616v72z" />
    <glyph glyph-name="quoteleft" unicode="&#x2018;" horiz-adv-x="208" 
d="M158 585h-46l-14 115h50z" />
    <glyph glyph-name="quoteright" unicode="&#x2019;" horiz-adv-x="209" 
d="M145 605h-100l28 83h92z" />
    <glyph glyph-name="quotesinglbase" unicode="&#x201a;" horiz-adv-x="209" 
d="M54 99h120l-28 -83h-112z" />
    <glyph glyph-name="quotedblleft" unicode="&#x201c;" horiz-adv-x="366" 
d="M179 704l-27 -115h-122l38 115h111zM337 704l-28 -115h-121l38 115h111z" />
    <glyph glyph-name="quotedblright" unicode="&#x201d;" horiz-adv-x="365" 
d="M322 684l-30 -83h-91l19 83h102zM166 684l-30 -83h-91l19 83h102z" />
    <glyph glyph-name="quotedblbase" unicode="&#x201e;" horiz-adv-x="366" 
d="M336 114l-38 -114h-110l27 114h121zM179 114l-38 -114h-111l28 114h121z" />
    <glyph glyph-name="dagger" unicode="&#x2020;" horiz-adv-x="689" 
d="M286 550h118v-17h225v-72h-225v-307h-118v307h-225v72h225v17z" />
    <glyph glyph-name="daggerdbl" unicode="&#x2021;" horiz-adv-x="648" 
d="M286 550h118v-78h225v-71h-225v-103h225v-72h-225v-72h-118v72h-225v72h225v103h-225v71h225v78z" />
    <glyph glyph-name="bullet" unicode="&#x2022;" horiz-adv-x="271" 
d="M118 429q27 -4 45.5 -16t31 -26t20 -28.5t11.5 -24.5t3 -22t-8.5 -21.5t-23.5 -14.5t-43 -1t-45.5 15.5t-31 26t-20 29t-11.5 24.5t-3.5 21.5t8.5 21.5t24 15t43 1z" />
    <glyph glyph-name="ellipsis" unicode="&#x2026;" horiz-adv-x="534" 
d="M148 115v-115h-117v115h117zM327 115v-115h-118v115h118zM505 115v-115h-117v115h117z" />
    <glyph glyph-name="perthousand" unicode="&#x2030;" horiz-adv-x="1051" 
d="M362 176l-175 -175l191 529l175 175zM172 349q-30 0 -56 11.5t-45.5 31t-31 45.5t-11.5 56t11.5 56t31 45.5t45.5 31t56 11.5t56 -11.5t45.5 -31t31 -45.5t11.5 -56t-11.5 -56t-31 -45.5t-45.5 -31t-56 -11.5zM172 556q-31 0 -47 -20.5t-16 -43.5t16 -43.5t47 -20.5
q32 0 48 20.5t16 43.5t-16 43.5t-48 20.5zM568 50q-30 0 -56 11.5t-45.5 31t-31 45.5t-11.5 56t11.5 56t31 45.5t45.5 31t56 11.5t56 -11.5t45.5 -31t31 -45.5t11.5 -56t-11.5 -56t-31 -45.5t-45.5 -31t-56 -11.5zM880 50q-30 0 -56 11.5t-45.5 31t-31 45.5t-11.5 56
t11.5 56t31 45.5t45.5 31t56 11.5t56 -11.5t45.5 -31t31 -45.5t11.5 -56t-11.5 -56t-31 -45.5t-45.5 -31t-56 -11.5zM568 257q-16 0 -28 -5.5t-20 -14.5t-12 -20.5t-4 -22.5q0 -23 16 -43.5t48 -20.5t48 20.5t16 43.5q0 11 -4 22.5t-12 20.5t-20 14.5t-28 5.5zM880 257
q-16 0 -28 -5.5t-20 -14.5t-12 -20.5t-4 -22.5q0 -23 16 -43.5t48 -20.5t47.5 20.5t15.5 43.5q0 11 -4 22.5t-12 20.5t-19.5 14.5t-27.5 5.5z" />
    <glyph glyph-name="guilsinglleft" unicode="&#x2039;" horiz-adv-x="285" 
d="M247 417q0 -1 -10.5 -13.5t-25.5 -31t-32.5 -40t-32.5 -40t-25 -31t-10 -13.5q7 -9 20 -26.5t28 -36t28.5 -36t21.5 -27.5l-17 -82q-1 2 -15 21.5t-32 45t-36.5 51t-27.5 37.5q-4 5 -9.5 13t-11 17t-9 17t-4.5 13l154 191z" />
    <glyph glyph-name="guilsinglright" unicode="&#x203a;" horiz-adv-x="285" 
d="M94 452l158 -195q9 -12 0 -22q-7 -8 -21 -25.5t-31 -39t-35.5 -44t-34 -41.5t-25.5 -31.5t-11 -13.5l-63 42l133 164l-133 164z" />
    <glyph glyph-name="fraction" unicode="&#x2044;" horiz-adv-x="537" 
d="M466 738l-292 -775h-101l292 775h101z" />
    <glyph glyph-name="franc" unicode="&#x20a3;" horiz-adv-x="768" 
d="M709 704v-90h-422v-258h383v-90h-383v-82h101v-89h-101v-95h-117v95h-109v89h109v520h539z" />
    <glyph glyph-name="lira" unicode="&#x20a4;" horiz-adv-x="831" 
d="M194 399q0 59 14.5 113.5t49 97.5t91 68.5t140.5 25.5q59 0 103 -11t78 -35.5t58.5 -63t42.5 -93.5h-119q-12 32 -26.5 52.5t-34 33t-44.5 17.5t-58 5q-56 0 -91 -18.5t-54 -48.5t-25.5 -67.5t-6.5 -75.5h303v-89l-304 -1v-41l304 -1v-89h-304v-84h369v-95h-80.5h-107.5
t-120.5 0.5t-120.5 0.5h-107.5h-81.5v94h132v84h-132v89h132v42h-132v90h132z" />
    <glyph glyph-name="peseta" unicode="&#x20a7;" horiz-adv-x="855" 
d="M148 193v-191h-86v520q63 0 126 0.5t126 0.5q78 0 123 -41.5t45 -120.5q0 -52 -17.5 -85t-46.5 -51t-66.5 -25t-76.5 -7h-127zM814 3q-66 0 -111 11.5t-72 34.5t-38.5 57.5t-11.5 80.5l-1 155h-66v63h66v116h87v-116h149v-63h-149v-159q0 -37 11.5 -59t31.5 -33.5
t46.5 -14.5t57.5 -3v-70zM148 452v-189h122q29 0 52 2.5t39.5 12.5t25.5 29.5t9 53.5q0 41 -17 66.5t-62 25.5z" />
    <glyph glyph-name="Euro" unicode="&#x20ac;" horiz-adv-x="708" 
d="M380 267h-113q6 -27 19.5 -57t33 -55.5t46 -42.5t57.5 -17q24 0 44 10t36.5 25.5t30.5 35t24 37.5h126q-21 -42 -45.5 -78.5t-55.5 -64.5t-70.5 -44t-89.5 -16q-56 0 -102.5 22.5t-81.5 60t-58.5 85.5t-33.5 99h-121v55h118q-1 5 -1.5 11t-0.5 16q1 11 1 19t1 14h-118v55
h121q10 51 33.5 99t58.5 85.5t81.5 60t102.5 22.5q50 0 89.5 -16t70.5 -44t55.5 -65t45.5 -79h-126q-10 19 -24 38.5t-30.5 35t-36.5 25.5t-44 10q-31 0 -57.5 -17t-46 -42.5t-33 -55.5t-19.5 -57h113v-55h-120q-1 -8 -1.5 -13.5t-0.5 -16.5t0.5 -18t1.5 -12h120v-55z" />
    <glyph glyph-name="uni2113" unicode="&#x2113;" horiz-adv-x="499" 
d="M279 0q-37 0 -64.5 10t-53.5 36q-17 20 -25.5 43t-12 47.5t-3.5 50v52.5q-23 -6 -44.5 -11.5t-44.5 -11.5l-26 102q29 8 57.5 14.5t57.5 14.5v185v12t1 12q4 65 39 104.5t107 39.5q35 0 61 -14t42.5 -37t24.5 -52.5t8 -60.5q-2 -91 -50 -157t-128 -104v-102
q0 -23 9.5 -41.5t30.5 -23.5q9 -3 19 -3q12 1 21 8t14.5 17t8 22t2.5 23h105q0 -34 -11 -65.5t-31 -56t-49 -39t-65 -14.5zM267 595q-25 0 -32.5 -10t-9.5 -31v-15v-139q35 26 54 61.5t19 79.5q0 8 -1 17t-4.5 17.5t-9.5 14t-16 5.5z" />
    <glyph glyph-name="trademark" unicode="&#x2122;" horiz-adv-x="725" 
d="M695 713v-323h-95v164l-43 -57h-62l-43 57v-164h-95v323h79l90 -117l91 117h78zM329 713v-72h-102v-251h-94v251h-102v72h298z" />
    <glyph glyph-name="estimated" unicode="&#x212e;" horiz-adv-x="538" 
d="M499 220h-374v-58q0 -18 17 -32.5t40 -24.5t47 -15.5t39 -5.5q98 0 165 71l61 -57q-90 -99 -227 -99q-33 0 -72.5 10.5t-73.5 31.5t-57 51.5t-23 69.5v210q0 43 22.5 73t56 48.5t73.5 27t75 8.5q37 0 77.5 -7.5t74.5 -25.5t56.5 -48.5t22.5 -75.5v-152zM125 305h289v67
q0 23 -16.5 37t-39.5 22t-48 10.5t-42 2.5q-15 0 -39.5 -3.5t-47.5 -11.5t-39.5 -22t-16.5 -35v-67z" />
    <glyph glyph-name="partialdiff" unicode="&#x2202;" horiz-adv-x="582" 
d="M299 600q92 0 140.5 -43.5t48.5 -137.5q0 -32 -5 -63t-12 -62q-7 -30 -12 -54t-12.5 -45.5t-19 -42.5t-30.5 -47q-40 -56 -92.5 -80.5t-120.5 -24.5q-91 0 -138 45.5t-47 137.5q0 52 20.5 101.5t55.5 88t82 62t100 23.5q34 0 60 -10q20 2 41 1.5t39 -8.5
q-7 45 -35.5 59.5t-70.5 14.5q-43 0 -74 -13t-60 -45h-107q27 36 51.5 63t53 44.5t63 26.5t81.5 9zM213 179q24 0 43 10.5t32.5 28.5t21 41t7.5 47q-8 32 -39 32q-14 0 -29.5 -4.5t-33.5 -11.5q-14 -18 -19 -28t0 -15q-4 -7 -7.5 -16.5t-6 -19t-4 -17.5t-1.5 -13
q0 -21 8 -27.5t28 -6.5z" />
    <glyph glyph-name="product" unicode="&#x220f;" horiz-adv-x="497" 
d="M438 701v-851h-94v757h-188v-757h-94v851h376z" />
    <glyph glyph-name="summation" unicode="&#x2211;" horiz-adv-x="687" 
d="M499 529v92h-320q18 -25 42 -57t49 -66t49.5 -67t43.5 -60q8 -11 8 -23t-7.5 -21.5t-15.5 -20.5q-17 -24 -39.5 -54t-45.5 -61t-45 -60.5t-39 -51.5h369v139h79v-178q0 -25 -22 -35q-13 -5 -26 -5h-470q-13 0 -26 5q-22 10 -22 35q0 13 11 27q31 42 67 90.5t71 95.5
q20 26 38 50.5t33 44.5q-16 21 -34.5 46.5t-38.5 53.5q-35 47 -70 95t-66 90q-10 14 -10 27q0 25 22 35q13 5 26 5h419q13 0 26 -5q10 -5 16.5 -14t6.5 -20v-132h-79z" />
    <glyph glyph-name="minus" unicode="&#x2212;" horiz-adv-x="628" 
d="M598 396v-89h-568v89h568z" />
    <glyph glyph-name="uni2215" unicode="&#x2215;" horiz-adv-x="491" 
d="M443 738l-292 -775h-101l292 775h101z" />
    <glyph glyph-name="uni2219" unicode="&#x2219;" horiz-adv-x="269" 
d="M218 350q0 -18 -25 -30.5t-61 -12.5t-61 12.5t-25 30.5t25 30.5t61 12.5t61 -12.5t25 -30.5z" />
    <glyph glyph-name="radical" unicode="&#x221a;" horiz-adv-x="550" 
d="M640 695l-47 -94h-27.5t-38.5 -0.5t-38 -1t-26 -1.5l-208 -555q-5 -8 -21 -8q-8 0 -17.5 2t-18.5 4q-31 3 -47 29l-58 75l-63 -10l19 93l109 -35q16 -2 28.5 -10.5t20.5 -22.5q4 9 12.5 29.5t17.5 43.5t17 44t12 31l129 346q5 7 15.5 12.5t23.5 9.5t26 6.5t23 2.5z" />
    <glyph glyph-name="infinity" unicode="&#x221e;" horiz-adv-x="746" 
d="M528 467q-36 0 -64.5 -20t-43.5 -52l-29 48q22 35 58.5 54.5t78.5 19.5q35 0 65.5 -13t53.5 -36t36 -53t13 -65t-13 -65.5t-36 -53.5t-53.5 -36t-65.5 -13q-41 0 -71.5 21t-55 53t-45 68.5t-41.5 68.5t-44.5 53t-54.5 21q-24 0 -45.5 -9.5t-37.5 -25t-25 -37t-9 -45.5
t9 -45.5t25 -37.5t37.5 -25.5t45.5 -9.5q35 0 63 18.5t44 50.5l27 -49q-26 -33 -58 -51.5t-76 -18.5q-35 0 -65.5 13t-53.5 36t-36 53.5t-13 65.5t13 65t36 53t53.5 36t65.5 13q41 0 71 -21t54 -53t44.5 -68.5t41.5 -68.5t45.5 -53t55.5 -21q24 0 45.5 9.5t37.5 25.5
t25 37.5t9 45.5t-9 45.5t-25 37t-37.5 25t-45.5 9.5z" />
    <glyph glyph-name="integral" unicode="&#x222b;" horiz-adv-x="386" 
d="M228 700q25 0 47.5 -8.5t45.5 -16.5l-34 -91q-11 4 -20.5 8t-20.5 6q-5 2 -10 2h-10q-4 -5 -5 -11.5t-1 -13.5v-656q0 -11 -3 -20q-7 -37 -35 -60t-66 -25q-7 -1 -13 -0.5t-13 1.5q-20 2 -38 7.5t-37 10.5l28 93q11 -4 23.5 -7.5t25.5 -5.5q21 -3 31 9v41v73v95v106.5
v108v99.5v80.5v50.5q0 24 6.5 46.5t19 39.5t32.5 27.5t47 10.5z" />
    <glyph glyph-name="approxequal" unicode="&#x2248;" horiz-adv-x="507" 
d="M36 222q13 4 29 9.5t32 10.5t32 8.5t29 3.5q26 0 51 -8t48.5 -17t46 -17t43.5 -8q35 0 63.5 13t60.5 22v-76q-32 -8 -61 -20t-63 -12q-27 0 -51.5 8t-47.5 17t-45 17t-44 8q-13 0 -29 -4t-32.5 -9.5t-32 -11.5t-29.5 -10v76zM36 378q13 4 29 9.5t32 10.5t32 8.5t29 3.5
q26 0 51 -8t48.5 -17t46 -17t43.5 -8q35 0 63.5 13t60.5 22v-76q-32 -8 -61 -20t-63 -12q-27 0 -51.5 8t-47.5 17t-45 17t-44 8q-13 0 -29 -4t-32.5 -9.5t-32 -11.5t-29.5 -10v76z" />
    <glyph glyph-name="notequal" unicode="&#x2260;" horiz-adv-x="689" 
d="M62 481h567v-89h-567v89zM62 307h567v-90h-567v90zM556 738l-292 -775h-101l292 775h101z" />
    <glyph glyph-name="lessequal" unicode="&#x2264;" horiz-adv-x="689" 
d="M139 430v120l414 265v-121l-320 -204l320 -204v-120zM629 107v-89h-568v89h568z" />
    <glyph glyph-name="greaterequal" unicode="&#x2265;" horiz-adv-x="689" 
d="M553 551v-121l-415 -264v120l320 204l-320 205v120zM629 117v-90h-568v90h568z" />
    <glyph glyph-name="lozenge" unicode="&#x25ca;" horiz-adv-x="720" 
d="M394 349l-161 -399l-157 399l156 401zM233 164l74 185l-74 185l-70 -185z" />
    <glyph glyph-name="uniF8FF" unicode="&#xf8ff;" horiz-adv-x="83" 
 />
    <glyph glyph-name="f_f" unicode="&#xfb00;" horiz-adv-x="832" 
d="M402 704v-95q-24 0 -52 -1t-54 -7t-45.5 -19.5t-27.5 -38.5h178v-85h-197q-1 -11 -1 -22v-22v-414h-117v413v45h-56v85h70q11 39 28 69t49.5 50.5t86 31t138.5 10.5zM810 704v-95q-24 0 -52 -1t-54 -7t-45.5 -19.5t-27.5 -38.5h178v-85h-197q-1 -11 -1 -22v-22v-414h-117
v413v45h-56v85h70q11 39 28 69t49.5 50.5t86 31t138.5 10.5z" />
    <glyph glyph-name="fi" unicode="&#xfb01;" horiz-adv-x="631" 
d="M402 707v-95q-77 0 -118.5 -14.5t-59.5 -51.5h178v-85h-198q-1 -6 -1 -18v-18v-422h-117v423v17t1 18h-56v85h69q11 36 33 66.5t58 52.5t88.5 33.5t122.5 8.5zM571 567v-89h-117v89h117zM571 430v-428h-117v428h117z" />
    <glyph glyph-name="fl" unicode="&#xfb02;" horiz-adv-x="638" 
d="M401 458h-198v-41v-417h-117v144v314h-56v85h69q23 78 98.5 119t204.5 42v-95q-36 0 -65 -2.5t-51 -10t-37.5 -20.5t-25.5 -33h178v-85zM461 704h117v-704h-117v704z" />
    <glyph glyph-name="f_f_i" unicode="&#xfb03;" horiz-adv-x="1057" 
d="M402 704v-95q-24 0 -52 -1t-54 -7t-45.5 -19.5t-27.5 -38.5h178v-85h-197q-1 -11 -1 -22v-22v-414h-117v413v45h-56v85h70q11 39 28 69t49.5 50.5t86 31t138.5 10.5zM810 704v-95q-24 0 -52 -1t-54 -7t-45.5 -19.5t-27.5 -38.5h178v-85h-197q-1 -11 -1 -22v-22v-414h-117
v413v45h-56v85h70q11 39 28 69t49.5 50.5t86 31t138.5 10.5zM880 576v101h117v-101h-117zM880 0v545h117v-545h-117z" />
    <glyph glyph-name="f_f_l" unicode="&#xfb04;" horiz-adv-x="1046" 
d="M402 704v-95q-24 0 -52 -1t-54 -7t-45.5 -19.5t-27.5 -38.5h178v-85h-197q-1 -11 -1 -22v-22v-414h-117v413v45h-56v85h70q11 39 28 69t49.5 50.5t86 31t138.5 10.5zM810 704v-95q-24 0 -52 -1t-54 -7t-45.5 -19.5t-27.5 -38.5h178v-85h-197q-1 -11 -1 -22v-22v-414h-117
v413v45h-56v85h70q11 39 28 69t49.5 50.5t86 31t138.5 10.5zM986 0h-110v700h111z" />
    <glyph glyph-name="longs_t" unicode="&#xfb05;" horiz-adv-x="592" 
d="M449 445q2 -51 0.5 -101t0.5 -99q0 -40 10.5 -66.5t31 -42.5t49.5 -23t67 -9q7 -1 13.5 -1h14.5v-103q-87 0 -143 17t-88.5 55t-45.5 99t-13 149q0 31 0.5 62t-0.5 63h-83v93h66q-9 23 -29 41t-46 18q-31 0 -49 -19.5t-27 -47t-11.5 -58t-2.5 -53.5v-418h-103v442
q0 44 10.5 89.5t33.5 82.5t59 61t87 24q36 0 67 -12.5t55.5 -34.5t41.5 -51.5t25 -63.5h96v-93h-87z" />
    <glyph glyph-name="grave.case" horiz-adv-x="345" 
d="M110 899h78l47 -140h-58z" />
    <glyph glyph-name="dieresis.case" horiz-adv-x="345" 
d="M194 848q0 22 15.5 37t37.5 15t37 -15t15 -37t-15 -37.5t-37 -15.5t-37.5 15.5t-15.5 37.5zM46 848q0 22 15 37t37 15t37.5 -15t15.5 -37t-15.5 -37.5t-37.5 -15.5t-37 15.5t-15 37.5z" />
    <glyph glyph-name="macron.case" horiz-adv-x="345" 
d="M304 900l100 -80l-362 -9l-101 80z" />
    <glyph glyph-name="acute.case" horiz-adv-x="345" 
d="M110 759l47 140h78l-67 -140h-58z" />
    <glyph glyph-name="circumflex.case" horiz-adv-x="345" 
d="M182 823q-9 5 -16 12t-11 12q6 8 13.5 20.5t16.5 29.5q20 -46 32 -67q7 -13 12 -22l-18 6q-8 2 -15.5 4.5zM148 800q-1 5 -1 8.5v7.5q-2 3 -8 5q-2 1 -5 2q2 1 4 4q5 4 11 12q1 4 1 10q1 1 1 3l1 -1q2 -2 3 -4q-4 -6 -6 -8q-1 -5 -1 -10.5t-1 -12.5q6 -8 1 -16z" />
    <glyph glyph-name="caron.case" horiz-adv-x="345" 
d="M320 950q-17 -14 -38 -38q-19 -22 -45 -57.5t-58 -89.5q-32 54 -60.5 89.5t-49.5 57.5q-24 24 -44 38h74q15 -11 29.5 -26.5t25.5 -29.5q13 -18 25 -36q12 18 25 36q11 14 24.5 29.5t25.5 26.5h66z" />
    <glyph glyph-name="breve.case" horiz-adv-x="345" 
d="M268 900q0 -45 -25 -68.5t-70 -23.5q-46 0 -71 23.5t-25 68.5h43q0 -17 4.5 -27t11.5 -15t17 -6t20 -1t19.5 1.5t16.5 6.5t11.5 14.5t4.5 26.5h43z" />
    <glyph glyph-name="dotaccent.case" horiz-adv-x="345" 
d="M225 848q0 -22 -15 -37.5t-37 -15.5t-37.5 15.5t-15.5 37.5t15.5 37t37.5 15t37 -15t15 -37z" />
    <glyph glyph-name="ring.case" horiz-adv-x="345" 
d="M173 899q29 0 50 -20.5t21 -50.5q0 -29 -21 -50t-50 -21q-30 0 -50.5 21t-20.5 50q0 30 20.5 50.5t50.5 20.5zM173 800q28 0 28 28q0 29 -28 29q-14 0 -21.5 -8t-7.5 -21q0 -28 29 -28z" />
    <glyph glyph-name="tilde.case" horiz-adv-x="345" 
d="M-32 587q12 4 27.5 9.5l31 11t31 9.5t27.5 4q24 0 47.5 -8t45 -18t42 -18t39.5 -8q32 0 60 14t58 24v-85q-30 -9 -58 -21.5t-60 -12.5q-25 0 -48 8t-44.5 18t-41.5 18t-39 8q-13 0 -28 -4.5t-31 -10.5t-31 -12.5t-28 -10.5v85z" />
    <glyph glyph-name="hungarumlaut.case" horiz-adv-x="345" 
d="M176 812l30 88h48l-42 -88h-36zM91 812l29 88h49l-42 -88h-36z" />
    <glyph glyph-name="caron.salt" horiz-adv-x="428" 
d="M190 402q5 -10 0 -16q0 -7 0.5 -12.5t0.5 -10.5q2 -2 3 -4t3 -4q-1 -1 -1.5 -2t-1.5 -2l-1 -1l-1 4q0 5 -1 9q-3 5 -6 8l-5 5t-4 3q3 1 5 2q6 2 9 5v16zM227 305q-8 17 -16 29.5t-14 20.5q4 5 11 12t16 12q6 2 14 4.5t16 4.5l18 6q-6 -9 -13 -22q-6 -11 -14 -27.5
t-18 -39.5z" />
    <glyph glyph-name="uni0326.salt" horiz-adv-x="239" 
d="M62 -50v96h117v-96q0 -37 -11 -65.5t-27 -29.5h-65q4 4 9.5 15t10 25t6.5 29t0 26h-40z" />
    </font>
</defs>
</svg>
