<?xml version="1.0" standalone="no"?>
<!DOCTYPE svg PUBLIC "-//W3C//DTD SVG 1.1//EN" "http://www.w3.org/Graphics/SVG/1.1/DTD/svg11.dtd" >
<svg xmlns="http://www.w3.org/2000/svg" xmlns:xlink="http://www.w3.org/1999/xlink" version="1.1">
<metadata>
Created by FontForge 20170731 at Tue May 25 23:17:19 2021
 By Aleksey,,,
(c) 2020 Microsoft Corporation. All Rights Reserved.
</metadata>
<defs>
<font id="CascadiaCodePL-Bold" horiz-adv-x="1200" >
  <font-face 
    font-family="Cascadia Code PL"
    font-weight="700"
    font-stretch="normal"
    units-per-em="2048"
    panose-1="0 0 0 0 0 0 0 0 0 0"
    ascent="1638"
    descent="-410"
    x-height="1060"
    cap-height="1420"
    bbox="-121 -891 4520 2315"
    underline-thickness="100"
    underline-position="-200"
    unicode-range="U+000D-FB02"
  />
<missing-glyph 
d="M111 0v1420h978v-1420h-978zM823 243v934h-446v-934h446z" />
    <glyph glyph-name=".notdef" 
d="M111 0v1420h978v-1420h-978zM823 243v934h-446v-934h446z" />
    <glyph glyph-name=".null" horiz-adv-x="0" 
 />
    <glyph glyph-name="nonmarkingreturn" horiz-adv-x="682" 
 />
    <glyph glyph-name="CR" unicode="&#xd;" 
 />
    <glyph glyph-name="space" unicode=" " 
 />
    <glyph glyph-name="exclam" unicode="!" 
d="M469 556l-23 874h308l-27 -874h-258zM600 -20q-76 0 -129 53.5t-53 128.5q0 76 53 129t129 53t129 -53t53 -129q0 -75 -53 -128.5t-129 -53.5z" />
    <glyph glyph-name="quotedbl" unicode="&#x22;" 
d="M246 780l-37 640h316l-37 -640h-242zM716 780l-37 640h316l-37 -640h-242z" />
    <glyph glyph-name="numbersign" unicode="#" 
d="M628 0l26 310h-176l-26 -310h-243l26 310h-152v248h173l26 304h-199v248h220l26 310h243l-26 -310h176l26 310h243l-26 -310h152v-248h-173l-26 -304h199v-248h-220l-26 -310h-243zM499 558h176l26 304h-176z" />
    <glyph glyph-name="dollar" unicode="$" 
d="M487 -320v301q-215 11 -375 77l36 270q226 -96 419 -96q107 0 164 38t57 109q0 44 -30.5 83t-86.5 65l-204 99q-152 74 -234.5 183.5t-82.5 240.5q0 156 87.5 253.5t249.5 125.5v311h253v-310q195 -33 338 -169l-182 -209q-143 137 -274 137q-89 0 -137.5 -38t-48.5 -108
q0 -95 133 -165l192 -99q151 -79 232 -183t81 -222q0 -149 -85.5 -245t-248.5 -131v-318h-253z" />
    <glyph glyph-name="percent" unicode="%" 
d="M354 794q-146 0 -234 88t-88 234q0 147 88 235.5t234 88.5q145 0 232.5 -88.5t87.5 -235.5q0 -146 -87.5 -234t-232.5 -88zM860 -20q-146 0 -234 88t-88 234q0 147 88 235.5t234 88.5q145 0 232.5 -88.5t87.5 -235.5q0 -146 -87.5 -234t-232.5 -88zM180 306l-117 161
l955 639l117 -155zM860 193q44 0 71 30t27 79q0 50 -27 80.5t-71 30.5q-46 0 -73 -30.5t-27 -80.5q0 -49 27 -79t73 -30zM354 1007q44 0 71 30t27 79q0 50 -27 80.5t-71 30.5q-46 0 -73 -30.5t-27 -80.5q0 -49 27 -79t73 -30z" />
    <glyph glyph-name="ampersand" unicode="&#x26;" 
d="M912 0l-75 89q-154 -109 -375 -109q-191 0 -307 99.5t-116 264.5q0 141 69 242t198 151q-104 157 -104 305q0 206 102.5 302t322.5 96q181 0 280.5 -96.5t99.5 -271.5h-289q0 56 -27 86.5t-77 30.5q-69 0 -101.5 -36t-32.5 -113q0 -126 103 -248l225 -270q27 105 27 244
h274q0 -291 -104 -482l236 -284h-329zM670 290l-212 254q-69 -25 -105.5 -65.5t-36.5 -91.5q0 -71 46.5 -113.5t123.5 -42.5q107 0 184 59z" />
    <glyph glyph-name="quotesingle" unicode="'" 
d="M479 780l-37 640h316l-37 -640h-242z" />
    <glyph glyph-name="parenleft" unicode="(" 
d="M970 -200q-344 0 -532.5 239.5t-188.5 676.5q0 431 188.5 667.5t532.5 236.5h44v-251h-44q-213 0 -328.5 -171t-115.5 -482q0 -317 115.5 -491t328.5 -174h44v-251h-44z" />
    <glyph glyph-name="parenright" unicode=")" 
d="M186 -200v251h43q213 0 328.5 174t115.5 491q0 311 -115.5 482t-328.5 171h-43v251h43q344 0 532.5 -236.5t188.5 -667.5q0 -437 -188.5 -676.5t-532.5 -239.5h-43z" />
    <glyph glyph-name="asterisk" unicode="*" 
d="M773 227l-176 265l-170 -265l-227 169l200 241l-300 76l89 268l292 -114l-22 309h282l-16 -313l287 118l88 -268l-302 -83l202 -234z" />
    <glyph glyph-name="plus" unicode="+" 
d="M466 190v398h-366v243h366v397h268v-397h366v-243h-366v-398h-268z" />
    <glyph glyph-name="comma" unicode="," 
d="M379 -436l80 690h298l-120 -690h-258z" />
    <glyph glyph-name="hyphen" unicode="-" 
d="M83 588v242h1034v-242h-1034z" />
    <glyph glyph-name="period" unicode="." 
d="M600 -20q-76 0 -129 53.5t-53 128.5q0 76 53 129t129 53t129 -53t53 -129q0 -75 -53 -128.5t-129 -53.5z" />
    <glyph glyph-name="slash" unicode="/" 
d="M80 -190l775 1800h275l-775 -1800h-275z" />
    <glyph glyph-name="zero" unicode="0" 
d="M600 -20q-501 0 -501 720q0 740 501 740t501 -740q0 -720 -501 -720zM600 219q228 0 228 481q0 501 -228 501q-232 0 -232 -501q0 -481 232 -481zM598 517q-60 0 -96.5 50t-36.5 133t36.5 133t96.5 50t97 -50t37 -133t-37 -133t-97 -50z" />
    <glyph glyph-name="one" unicode="1" 
d="M153 0v234h342v930l-322 -116v252l322 120h270v-1186h304v-234h-916z" />
    <glyph glyph-name="two" unicode="2" 
d="M135 0v281q621 328 621 714q0 194 -192 194q-86 0 -178 -47t-159 -125l-154 179q73 110 209.5 177t285.5 67q465 0 465 -428q0 -398 -477 -731v-38h537v-243h-958z" />
    <glyph glyph-name="three" unicode="3" 
d="M514 -20q-217 0 -381 48l25 259q3 -1 36.5 -10t43 -11t41 -9.5t50.5 -10t50 -7t62 -6t65 -1.5q132 0 204.5 46t72.5 130q0 92 -97 142t-274 50h-32l-24 230q397 50 397 242q0 56 -38 86.5t-111 30.5q-83 0 -178.5 -33t-179.5 -94l-138 204q183 174 500 174
q203 0 313 -82.5t110 -235.5q0 -133 -90.5 -232t-239.5 -137v-33q164 -15 262 -105t98 -235q0 -191 -143 -295.5t-404 -104.5z" />
    <glyph glyph-name="four" unicode="4" 
d="M57 286l175 1054h269l-137 -813h373v893h263v-893h137v-241h-137v-286h-263v286h-680z" />
    <glyph glyph-name="five" unicode="5" 
d="M597 -20q-230 0 -356 118t-126 333h278q0 -95 56 -147t159 -52t164 63.5t61 170.5q0 96 -60.5 152.5t-163.5 56.5q-123 0 -229 -57h-179l20 802h800v-243h-548l-17 -298q110 47 239 47q190 0 303 -125t113 -335q0 -221 -140 -353.5t-374 -132.5z" />
    <glyph glyph-name="six" unicode="6" 
d="M610 -20q-235 0 -367 133.5t-132 372.5v95q0 404 215.5 614t654.5 231l20 -252q-307 -13 -457.5 -138.5t-151.5 -367.5h26q27 111 107.5 171.5t197.5 60.5q186 0 287 -118t101 -334q0 -223 -131 -345.5t-370 -122.5zM612 232q105 0 162.5 56.5t57.5 159.5q0 97 -56 149
t-160 52q-108 0 -167 -56t-59 -158q0 -96 58.5 -149.5t163.5 -53.5z" />
    <glyph glyph-name="seven" unicode="7" 
d="M447 0l363 1177h-450v-305h-265v548h1076l-455 -1420h-269z" />
    <glyph glyph-name="eight" unicode="8" 
d="M600 -20q-239 0 -370 107.5t-131 302.5q0 144 86.5 236.5t248.5 123.5v12q-143 29 -219 110.5t-76 207.5q0 171 120.5 265.5t340.5 94.5t340.5 -94.5t120.5 -265.5q0 -125 -76 -207t-217 -111v-13q161 -31 247 -123t86 -236q0 -195 -131 -302.5t-370 -107.5zM600 232
q107 0 165 51.5t58 145.5q0 93 -58.5 144.5t-164.5 51.5t-164.5 -51.5t-58.5 -144.5q0 -94 58 -145.5t165 -51.5zM600 875q87 0 135 40t48 113q0 77 -48 119t-135 42t-135 -42t-48 -119q0 -73 48 -113t135 -40z" />
    <glyph glyph-name="nine" unicode="9" 
d="M487 506q-186 0 -287 118t-101 334q0 223 131 345.5t370 122.5q235 0 367 -133.5t132 -372.5v-95q0 -404 -215.5 -614t-654.5 -231l-20 252q307 13 457.5 138.5t151.5 367.5h-26q-27 -111 -107.5 -171.5t-197.5 -60.5zM594 757q108 0 167 56t59 158q0 96 -58.5 149.5
t-163.5 53.5t-162.5 -56.5t-57.5 -159.5q0 -97 56 -149t160 -52z" />
    <glyph glyph-name="colon" unicode=":" 
d="M600 -20q-82 0 -140 58t-58 140t58 140t140 58t140 -58t58 -140t-58 -140t-140 -58zM600 684q-82 0 -140 58t-58 140t58 140t140 58t140 -58t58 -140t-58 -140t-140 -58z" />
    <glyph glyph-name="semicolon" unicode=";" 
d="M379 -436l80 690h298l-120 -690h-258zM600 684q-82 0 -140 58t-58 140t58 140t140 58t140 -58t58 -140t-58 -140t-140 -58z" />
    <glyph glyph-name="less" unicode="&#x3c;" 
d="M1087 197l-1024 378v268l1024 378v-270l-756 -233v-18l756 -233v-270z" />
    <glyph glyph-name="equal" unicode="=" 
d="M84 843l-1 242h1034v-242h-1033zM84 333v242h1033v-242h-1033z" />
    <glyph glyph-name="greater" unicode="&#x3e;" 
d="M113 197v270l750 233v18l-750 233v270l1024 -378v-268z" />
    <glyph glyph-name="question" unicode="?" 
d="M427 489v84q0 100 47 173t150 141q112 73 112 180q0 58 -41.5 89.5t-117.5 31.5q-93 0 -184.5 -46.5t-155.5 -125.5l-146 188q74 107 210.5 171.5t294.5 64.5q203 0 315 -88.5t112 -249.5q0 -245 -239 -397q-95 -62 -95 -179v-37h-262zM562 -20q-76 0 -129 53.5
t-53 128.5q0 76 53 129t129 53t129 -53t53 -129q0 -75 -53 -128.5t-129 -53.5z" />
    <glyph glyph-name="at" unicode="@" 
d="M727 -285q-334 0 -485 209.5t-151 673.5q0 841 529 841q469 0 469 -571v-725h-239v212h-20q-16 -111 -65.5 -171.5t-121.5 -60.5q-93 0 -144 123.5t-51 347.5q0 234 50.5 352t146.5 118q67 0 116 -61t69 -171h20v30q0 340 -230 340q-292 0 -292 -604q0 -339 94.5 -491.5
t304.5 -152.5q125 0 197 25v-239q-79 -25 -197 -25zM726 346q59 0 91.5 62.5t32.5 177.5q0 255 -110 255q-97 0 -97 -247q0 -119 21.5 -183.5t61.5 -64.5z" />
    <glyph glyph-name="A" unicode="A" 
d="M28 0l410 1420h324l410 -1420h-285l-70 269h-434l-70 -269h-285zM446 513h308l-145 560h-18z" />
    <glyph glyph-name="B" unicode="B" 
d="M143 0v1420h439q224 0 346.5 -91.5t122.5 -260.5q0 -138 -86.5 -216t-245.5 -85v-33h46q184 0 285 -90t101 -254q0 -186 -116.5 -288t-330.5 -102h-561zM407 243h239q108 0 168 51t60 143q0 91 -63.5 141t-178.5 50h-225v-385zM407 872h179q188 0 188 160q0 145 -202 145
h-165v-305z" />
    <glyph glyph-name="C" unicode="C" 
d="M748 -20q-679 0 -679 732q0 347 171 537.5t484 190.5q141 0 250 -45.5t165 -129.5l-148 -193q-45 56 -114.5 86.5t-150.5 30.5q-175 0 -277 -123t-102 -344q0 -490 435 -490q145 0 286 60l46 -244q-174 -68 -366 -68z" />
    <glyph glyph-name="D" unicode="D" 
d="M123 0v1420h361q667 0 667 -730q0 -690 -667 -690h-361zM387 253h97q194 0 292 110.5t98 326.5q0 236 -98 357t-292 121h-97v-915z" />
    <glyph glyph-name="E" unicode="E" 
d="M143 0v1420h974v-243h-710v-344h530v-244h-530v-346h710v-243h-974z" />
    <glyph glyph-name="F" unicode="F" 
d="M163 0v1420h974v-243h-710v-403h513v-245h-513v-529h-264z" />
    <glyph glyph-name="G" unicode="G" 
d="M702 -20q-653 0 -653 732q0 346 169 537t476 191q153 0 266 -48t177 -138l-166 -191q-47 60 -116.5 93t-148.5 33q-180 0 -279.5 -122t-99.5 -345q0 -490 399 -490q54 0 119 9v251h-235v243h497v-695q-197 -60 -405 -60z" />
    <glyph glyph-name="H" unicode="H" 
d="M813 0v585h-426v-585h-264v1420h264v-591h426v591h264v-1420h-264z" />
    <glyph glyph-name="I" unicode="I" 
d="M151 0v238h316v945h-316v237h898v-237h-318v-945h318v-238h-898z" />
    <glyph glyph-name="J" unicode="J" 
d="M574 -20q-242 0 -373.5 132t-131.5 372h275q0 -120 61.5 -186.5t173.5 -66.5q113 0 174.5 66t61.5 187v693h-325v243h589v-936q0 -239 -133.5 -371.5t-371.5 -132.5z" />
    <glyph glyph-name="K" unicode="K" 
d="M133 0v1420h264v-694q111 21 198.5 86.5t140.5 161t80 209t27 237.5h268q0 -215 -71 -407.5t-203 -327.5l342 -685h-326l-238 525q-103 -47 -218 -65v-460h-264z" />
    <glyph glyph-name="L" unicode="L" 
d="M143 0v1420h264v-1177h710v-243h-974z" />
    <glyph glyph-name="M" unicode="M" 
d="M111 0v1420h377l104 -635h16l104 635h377v-1420h-246v1168h-31l-120 -671h-184l-120 671h-31v-1168h-246z" />
    <glyph glyph-name="N" unicode="N" 
d="M672 0l-250 1110h-37v-1110h-254v1420h397l250 -1110h37v1110h254v-1420h-397z" />
    <glyph glyph-name="O" unicode="O" 
d="M600 -20q-541 0 -541 720q0 740 541 740t541 -740q0 -720 -541 -720zM600 232q264 0 264 468q0 489 -264 489t-264 -489q0 -468 264 -468z" />
    <glyph glyph-name="P" unicode="P" 
d="M143 0v1420h435q267 0 413 -125.5t146 -354.5q0 -254 -146 -393.5t-413 -139.5h-171v-407h-264zM407 650h171q130 0 202 72t72 201q0 121 -71.5 187.5t-202.5 66.5h-171v-527z" />
    <glyph glyph-name="Q" unicode="Q" 
d="M947 -460q-485 0 -485 440v14q-403 84 -403 706q0 740 541 740t541 -740q0 -629 -413 -709v-13q0 -187 219 -187h102l-20 -251h-82zM600 232q264 0 264 468q0 489 -264 489t-264 -489q0 -468 264 -468z" />
    <glyph glyph-name="R" unicode="R" 
d="M123 0v1420h505q229 0 354 -112.5t125 -317.5q0 -146 -54.5 -250.5t-157.5 -160.5l264 -579h-315l-209 520h-7h-241v-520h-264zM387 763h241q92 0 143 54.5t51 152.5q0 99 -51 153t-143 54h-241v-414z" />
    <glyph glyph-name="S" unicode="S" 
d="M551 -20q-252 0 -439 78l36 270q226 -96 419 -96q107 0 164 38t57 109q0 44 -30.5 83t-86.5 65l-204 99q-152 74 -234.5 183.5t-82.5 240.5q0 186 123 288t348 102q131 0 248.5 -46t208.5 -133l-182 -209q-143 137 -274 137q-89 0 -137.5 -38t-48.5 -108q0 -95 133 -165
l192 -99q151 -79 232 -183t81 -222q0 -189 -136 -291.5t-387 -102.5z" />
    <glyph glyph-name="T" unicode="T" 
d="M468 0v1177h-405v243h1074v-243h-405v-1177h-264z" />
    <glyph glyph-name="U" unicode="U" 
d="M596 -20q-473 0 -473 476v964h264v-964q0 -112 52 -167.5t161 -55.5q213 0 213 223v964h264v-964q0 -237 -122 -356.5t-359 -119.5z" />
    <glyph glyph-name="V" unicode="V" 
d="M395 0l-367 1420h273l290 -1183h18l290 1183h273l-367 -1420h-410z" />
    <glyph glyph-name="W" unicode="W" 
d="M155 0l-152 1420h260l87 -1185h28l106 825h234l104 -825h28l87 1185h260l-152 -1420h-359l-80 787h-12l-80 -787h-359z" />
    <glyph glyph-name="X" unicode="X" 
d="M839 0l-239 469l-238 -469h-330l440 703l-440 717h330l238 -477l239 477h330l-441 -717l441 -703h-330z" />
    <glyph glyph-name="Y" unicode="Y" 
d="M468 0v455l-460 965h295l288 -660h18l288 660h295l-460 -965v-455h-264z" />
    <glyph glyph-name="Z" unicode="Z" 
d="M128 0v243l632 934h-632v243h934v-243l-638 -934h658v-243h-954z" />
    <glyph glyph-name="bracketleft" unicode="[" 
d="M355 -214v1848h660v-252h-396v-1344h396v-252h-660z" />
    <glyph glyph-name="backslash" unicode="\" 
d="M845 -190l-775 1800h275l775 -1800h-275z" />
    <glyph glyph-name="bracketright" unicode="]" 
d="M185 -214v252h394v1344h-394v252h660v-1848h-660z" />
    <glyph glyph-name="asciicircum" unicode="^" 
d="M180 820l268 600h304l268 -600h-262l-149 390h-18l-149 -390h-262z" />
    <glyph glyph-name="underscore" unicode="_" 
d="M100 -241v241h1000v-241h-1000z" />
    <glyph glyph-name="grave" unicode="`" 
d="M532 1248l-207 380h287l187 -380h-267z" />
    <glyph glyph-name="a" unicode="a" 
d="M795 -10l-17 234h-24q-14 -121 -96 -182.5t-222 -61.5q-170 0 -263.5 83t-93.5 236q0 177 123 272.5t349 95.5q121 0 217 -21v3q0 84 -71 124t-217 44l-271 7l20 246l231 -3q568 -7 568 -433v-392l147 -22v-220zM768 423q-77 16 -204 16q-210 0 -210 -120q0 -54 38 -82.5
t111 -28.5q121 0 191.5 64t73.5 151z" />
    <glyph glyph-name="b" unicode="b" 
d="M447 -20q-131 0 -301 20v1500h271v-632h28q27 212 252 212q200 0 309.5 -125.5t109.5 -354.5q0 -296 -175 -458t-494 -162zM417 596v-360q24 -1 72 -1q163 0 252.5 95.5t89.5 269.5q0 108 -48.5 166.5t-137.5 58.5q-228 0 -228 -229z" />
    <glyph glyph-name="c" unicode="c" 
d="M724 -20q-290 0 -447.5 143t-157.5 409q0 261 144.5 404.5t410.5 143.5q164 0 281.5 -64t166.5 -181l-196 -156q-44 69 -111.5 106.5t-148.5 37.5q-123 0 -191.5 -73.5t-68.5 -207.5q0 -149 88.5 -227t253.5 -78q135 0 283 26l28 -253q-135 -30 -335 -30z" />
    <glyph glyph-name="d" unicode="d" 
d="M495 -20q-198 0 -307 142.5t-109 406.5q0 262 109.5 406.5t308.5 144.5q115 0 176 -52t79 -160h26v632h271v-1500l-232 -10l-38 202h-23q-16 -105 -82.5 -158.5t-178.5 -53.5zM778 529q0 152 -51 224t-156 72q-99 0 -153 -77.5t-54 -218.5q0 -294 207 -294
q114 0 160.5 68.5t46.5 225.5z" />
    <glyph glyph-name="e" unicode="e" 
d="M694 -20q-276 0 -425.5 143t-149.5 409q0 260 128 404t359 144q228 0 351.5 -134t123.5 -386q0 -72 -6 -137h-673q62 -187 316 -187q134 0 285 28l26 -256q-159 -28 -335 -28zM389 611h426q0 106 -54.5 163.5t-152.5 57.5q-91 0 -148 -57t-71 -164z" />
    <glyph glyph-name="f" unicode="f" 
d="M373 0v617h-322v232h322v121q0 550 531 550q123 0 237 -20l-26 -251q-125 14 -217 14q-255 0 -255 -283v-131h422v-232h-422v-617h-270z" />
    <glyph glyph-name="g" unicode="g" 
d="M182 -478l-10 236l340 10q138 4 202 76.5t64 217.5v130h-22q-16 -105 -82.5 -158.5t-178.5 -53.5q-198 0 -307 142.5t-109 406.5q0 262 109.5 406.5t308.5 144.5q119 0 182.5 -52t82.5 -160h19l17 192h251v-966q0 -284 -133 -418t-424 -144zM778 529q0 152 -51 224
t-156 72q-99 0 -153 -77.5t-54 -218.5q0 -294 207 -294q114 0 160.5 68.5t46.5 225.5z" />
    <glyph glyph-name="h" unicode="h" 
d="M778 0v640q0 89 -39.5 137t-112.5 48q-204 0 -204 -279v-546h-271v1500h271v-632h26q15 109 74 160.5t175 51.5q168 0 260 -102t92 -288v-690h-271z" />
    <glyph glyph-name="i" unicode="i" 
d="M143 0v250h392v560h-332v250h602v-810h314v-250h-976zM658 1203q-77 0 -125 48t-48 125t48 125t125 48t125 -48t48 -125t-48 -125t-125 -48z" />
    <glyph glyph-name="j" unicode="j" 
d="M180 -480l-10 260l200 13q138 9 201 73t63 196v748h-370v250h641v-966q0 -281 -130.5 -411.5t-424.5 -150.5zM752 1203q-77 0 -125 48t-48 125t48 125t125 48t125 -48t48 -125t-48 -125t-125 -48z" />
    <glyph glyph-name="k" unicode="k" 
d="M143 0v1500h271v-866h16q178 0 263.5 96t116.5 330h279q-48 -376 -224 -545l292 -515h-321l-199 394q-74 -17 -157 -17h-66v-377h-271z" />
    <glyph glyph-name="l" unicode="l" 
d="M758 -20q-200 0 -288.5 109.5t-88.5 352.5v809h-300v249h570v-1048q0 -106 37 -148t150 -42q88 0 222 38l31 -278q-160 -42 -333 -42z" />
    <glyph glyph-name="m" unicode="m" 
d="M839 0v718q0 110 -64 110q-72 0 -72 -119v-709h-201v738q0 90 -64 90q-76 0 -76 -119v-709h-267v1060h243l14 -132h24q11 74 52.5 113t108.5 39q132 0 160 -152h24q9 72 55.5 112t122.5 40q108 0 157 -59t49 -191v-830h-266z" />
    <glyph glyph-name="n" unicode="n" 
d="M778 0v623q0 96 -39.5 148t-112.5 52q-204 0 -204 -294v-529h-271v1060h242l25 -192h30q15 109 74 160.5t175 51.5q168 0 260 -102t92 -288v-690h-271z" />
    <glyph glyph-name="o" unicode="o" 
d="M600 -20q-229 0 -355 144t-126 406t126 406t355 144t355 -144t126 -406t-126 -406t-355 -144zM600 237q93 0 143.5 76.5t50.5 216.5q0 141 -50.5 217t-143.5 76t-143.5 -76t-50.5 -217q0 -140 51 -216.5t143 -76.5z" />
    <glyph glyph-name="p" unicode="p" 
d="M151 -460v1520h251l17 -192h19q19 108 82.5 160t182.5 52q199 0 308.5 -144.5t109.5 -406.5q0 -264 -109 -406.5t-307 -142.5q-112 0 -178.5 53.5t-82.5 158.5h-22v-652h-271zM422 529q0 -157 46.5 -225.5t160.5 -68.5q207 0 207 294q0 141 -54 218.5t-153 77.5
q-105 0 -156 -72t-51 -224z" />
    <glyph glyph-name="q" unicode="q" 
d="M485 -20q-194 0 -300 140t-106 400q0 267 107 413.5t301 146.5q119 0 182.5 -52t82.5 -160h29l17 192h251v-1520h-271v624h-26q-35 -184 -267 -184zM778 544q0 281 -213 281q-96 0 -148.5 -79.5t-52.5 -225.5q0 -285 201 -285q213 0 213 247v62z" />
    <glyph glyph-name="r" unicode="r" 
d="M557 456v-224h248v-232h-742v232h224v596h-184v232h414l31 -239h38q16 259 271 259q151 0 231.5 -111.5t80.5 -319.5h-269q0 93 -34.5 134.5t-111.5 41.5q-98 0 -147.5 -95t-49.5 -274z" />
    <glyph glyph-name="s" unicode="s" 
d="M518 -20q-238 0 -379 30l32 259q256 -32 347 -32q131 0 189.5 18.5t58.5 59.5q0 24 -15 38t-48 24l-335 100q-108 32 -160.5 95.5t-52.5 169.5q0 171 144 254.5t437 83.5q129 0 297 -20l-29 -251q-171 14 -274 14q-152 0 -220 -17.5t-68 -57.5q0 -25 14 -38.5t46 -22.5
l287 -82q138 -40 205 -110t67 -181q0 -169 -134.5 -251.5t-408.5 -82.5z" />
    <glyph glyph-name="t" unicode="t" 
d="M825 -20q-274 0 -396 109.5t-122 352.5v369h-254v249h254v320h270v-320h470v-249h-470v-343q0 -122 62.5 -176.5t205.5 -54.5q68 0 218 20l24 -253q-132 -24 -262 -24z" />
    <glyph glyph-name="u" unicode="u" 
d="M446 -20q-151 0 -234 99t-83 281v700h271v-633q0 -91 41 -140.5t115 -49.5q98 0 145 75t47 245v503h271v-818l146 -22v-220l-399 -10l-15 214h-31q-25 -107 -96.5 -165.5t-177.5 -58.5z" />
    <glyph glyph-name="v" unicode="v" 
d="M426 0l-363 1060h276l252 -822h18l252 822h276l-363 -1060h-348z" />
    <glyph glyph-name="w" unicode="w" 
d="M703 0l-107 799h-12l-107 -799h-354l-70 1060h263l38 -808h18l121 808h194l121 -808h18l65 808h256l-100 -1060h-344z" />
    <glyph glyph-name="x" unicode="x" 
d="M81 0l389 524l-389 536h323l196 -332l196 332h323l-394 -528l394 -532h-323l-200 332l-192 -332h-323z" />
    <glyph glyph-name="y" unicode="y" 
d="M58 -480l-10 235l183 20q111 12 183.5 64.5t122.5 160.5h-143l-356 1060h287l263 -830h25l232 830h287l-298 -966q-90 -283 -221.5 -407t-357.5 -147z" />
    <glyph glyph-name="z" unicode="z" 
d="M160 0v233l551 594h-551v233h856v-233l-537 -594h557v-233h-876z" />
    <glyph glyph-name="braceleft" unicode="{" 
d="M816 -214q-163 0 -252.5 97t-89.5 273q0 47 21 142.5t21 146.5q0 72 -75 108t-212 36v252q135 0 211 36.5t76 107.5q0 54 -21 148t-21 141q0 168 89.5 260t252.5 92q107 0 187 -20l-24 -241q-63 10 -103 10q-66 0 -100.5 -45t-34.5 -127q0 -45 23 -130t23 -131
q0 -96 -69 -150t-193 -56v-42q123 -2 192.5 -57t69.5 -149q0 -48 -23 -133t-23 -128q0 -91 34.5 -140.5t100.5 -49.5q40 0 103 10l24 -241q-80 -20 -187 -20z" />
    <glyph glyph-name="bar" unicode="|" 
d="M468 -310v2040h264v-2040h-264z" />
    <glyph glyph-name="braceright" unicode="}" 
d="M386 -214q-105 0 -187 20l24 241q63 -10 103 -10q66 0 100.5 49.5t34.5 140.5q0 43 -23 128t-23 133q0 94 69.5 149t192.5 57v42q-124 2 -193 56t-69 150q0 46 23 131t23 130q0 82 -34.5 127t-100.5 45q-40 0 -103 -10l-24 241q82 20 187 20q163 0 252.5 -92t89.5 -260
q0 -47 -21 -141t-21 -148q0 -71 76 -107.5t211 -36.5v-252q-137 0 -212 -36t-75 -108q0 -51 21 -146.5t21 -142.5q0 -176 -89.5 -273t-252.5 -97z" />
    <glyph glyph-name="asciitilde" unicode="~" 
d="M83 453v146q0 173 70 251.5t225 78.5q120 0 252 -89q7 -5 29.5 -19.5t31.5 -20t26 -14.5t31 -12t28 -3q41 0 59 20.5t18 65.5v106h264v-146q0 -173 -63 -251.5t-202 -78.5q-114 0 -248 89q-104 69 -167 69q-46 0 -67 -20.5t-21 -65.5v-106h-266z" />
    <glyph glyph-name="uni00A0" unicode="&#xa0;" 
 />
    <glyph glyph-name="exclamdown" unicode="&#xa1;" 
d="M446 -370l23 874h258l27 -874h-308zM600 1080q76 0 129 -53.5t53 -128.5q0 -76 -53 -129t-129 -53t-129 53t-53 129q0 75 53 128.5t129 53.5z" />
    <glyph glyph-name="cent" unicode="&#xa2;" 
d="M534 -334v332q-201 43 -308 179t-107 355q0 224 107 362.5t308 173.5v326h258v-323q119 -20 204.5 -81t125.5 -155l-196 -156q-51 81 -134 118v-559q117 3 239 25l28 -253q-116 -26 -267 -29v-315h-258zM534 286v509q-128 -66 -128 -253q0 -179 128 -256z" />
    <glyph glyph-name="sterling" unicode="&#xa3;" 
d="M115 0v243q124 154 151 290h-157v234h166v269q0 193 123.5 298.5t344.5 105.5q138 0 239.5 -59.5t149.5 -167.5l-202 -156q-31 62 -77 96t-101 34q-89 0 -142.5 -56.5t-53.5 -157.5v-206h341v-234h-350q-29 -139 -153 -290h719v-243h-998z" />
    <glyph glyph-name="currency" unicode="&#xa4;" 
d="M603 283q-112 0 -202 38l-195 -205l-150 165l179 172q-73 104 -73 247t72 246l-178 171l161 157l184 -195q88 38 202 38q107 0 198 -36l184 195l161 -158l-176 -169q74 -103 74 -249t-74 -249l175 -172l-150 -165l-193 206q-89 -37 -199 -37zM603 520q79 0 127 49t48 131
t-48 131t-127 49t-127 -49t-48 -131t48 -131t127 -49z" />
    <glyph glyph-name="yen" unicode="&#xa5;" 
d="M145 459v222h215l-352 739h295l288 -660h18l288 660h295l-352 -739h217v-222h-323l-2 -4v-101h325v-221h-325v-133h-264v133h-323v221h323v101l-2 4h-321z" />
    <glyph glyph-name="brokenbar" unicode="&#xa6;" 
d="M468 -310v860h264v-860h-264zM468 870v860h264v-860h-264z" />
    <glyph glyph-name="section" unicode="&#xa7;" 
d="M1148 682q0 -144 -77.5 -211t-248.5 -68v-36q120 -44 173 -102.5t53 -158.5q0 -171 -124.5 -248.5t-398.5 -77.5q-244 0 -379 30l24 255q214 -32 355 -32q128 0 186 22.5t58 71.5q0 36 -18.5 54t-65.5 29l-312 77q-163 39 -242 123t-79 223q0 149 99 222t313 72v31
q-185 57 -248.5 113t-63.5 167q0 174 128 252t413 78q154 0 297 -20l-22 -246q-161 14 -281 14q-135 0 -195.5 -22t-60.5 -71q0 -33 19 -47.5t75 -31.5l284 -87q173 -52 256 -142t83 -233zM331 668q0 -57 40 -90.5t101.5 -45.5t152.5 -12q128 0 186 35.5t58 114.5
q0 88 -65.5 122t-196.5 34q-146 0 -211 -37t-65 -121z" />
    <glyph glyph-name="dieresis" unicode="&#xa8;" 
d="M824 1231q-65 0 -111 46.5t-46 111.5q0 66 46 111.5t111 45.5q66 0 112 -45.5t46 -111.5q0 -65 -46.5 -111.5t-111.5 -46.5zM376 1231q-65 0 -111 46.5t-46 111.5q0 66 46 111.5t111 45.5t111 -45.5t46 -111.5q0 -65 -46 -111.5t-111 -46.5z" />
    <glyph glyph-name="copyright" unicode="&#xa9;" 
d="M600 15q-282 0 -436.5 178t-154.5 502q0 338 154.5 524t436.5 186t436.5 -186t154.5 -524q0 -324 -154.5 -502t-436.5 -178zM600 227q172 0 267 122.5t95 345.5q0 237 -95 367.5t-267 130.5t-267 -130.5t-95 -367.5q0 -223 95 -345.5t267 -122.5zM656 380q-165 0 -255 86
t-90 246q0 156 88 242t249 86q81 0 139.5 -25t82.5 -70l-123 -155q-28 48 -90 48q-55 0 -84.5 -32.5t-29.5 -91.5q0 -64 35 -98t102 -34q68 0 143 26l24 -198q-76 -30 -191 -30z" />
    <glyph glyph-name="ordfeminine" unicode="&#xaa;" 
d="M635 779l-6 135h-33q-45 -143 -188 -143q-96 0 -148.5 51t-52.5 144q0 104 66 160.5t186 56.5q94 0 160 -14v9q0 83 -133 83h-202l11 179l179 -1q370 -1 370 -280v-191l107 -13v-170zM619 1033q-35 9 -106 9q-88 0 -88 -55q0 -53 68 -53q57 0 90 29.5t36 69.5z" />
    <glyph glyph-name="guillemotleft" unicode="&#xab;" 
d="M456 25l-426 443v122l426 439l180 -155l-322 -336v-18l322 -340zM951 25l-426 443v122l426 439l180 -155l-322 -336v-18l322 -340z" />
    <glyph glyph-name="logicalnot" unicode="&#xac;" 
d="M83 689v242h1034v-581h-262v339h-772z" />
    <glyph glyph-name="uni00AD" unicode="&#xad;" 
d="M83 588v242h1034v-242h-1034z" />
    <glyph glyph-name="registered" unicode="&#xae;" 
d="M600 15q-282 0 -436.5 178t-154.5 502q0 338 154.5 524t436.5 186t436.5 -186t154.5 -524q0 -324 -154.5 -502t-436.5 -178zM365 396v634h266q115 0 178.5 -58.5t63.5 -163.5q0 -124 -83 -182l109 -228q63 117 63 297q0 237 -95 367.5t-267 130.5t-267 -130.5t-95 -367.5
q0 -223 95 -345.5t267 -122.5q204 0 298 169h-210l-73 187h-49v-187h-201zM566 867v-120h49q32 0 49.5 16t17.5 44t-17.5 44t-49.5 16h-49z" />
    <glyph glyph-name="macron" unicode="&#xaf;" 
d="M170 1248v251h860v-251h-860z" />
    <glyph glyph-name="degree" unicode="&#xb0;" 
d="M600 690q-177 0 -285.5 103t-108.5 272t108.5 272t285.5 103t285.5 -103t108.5 -272t-108.5 -272t-285.5 -103zM600 892q72 0 116 47.5t44 125.5t-44 125.5t-116 47.5t-116 -47.5t-44 -125.5t44 -125.5t116 -47.5z" />
    <glyph glyph-name="plusminus" unicode="&#xb1;" 
d="M100 651v250h369v323h262v-323h369v-250h-369v-251h386v-242h-1034v242h386v251h-369z" />
    <glyph glyph-name="uni00B2" unicode="&#xb2;" 
d="M337 802v224q264 73 264 161q0 43 -69 43q-75 0 -154 -38l-66 188q103 60 291 60q117 0 187.5 -49.5t70.5 -131.5q0 -60 -44.5 -111t-141.5 -101v-38h212v-207h-550z" />
    <glyph glyph-name="uni00B3" unicode="&#xb3;" 
d="M562 793q-135 -1 -235 26l41 171q121 -21 180 -21q84 0 84 46q0 27 -77 27h-97l-10 150q166 7 166 41q0 32 -62 32q-107 0 -192 -29l-21 174q101 30 243 30q131 0 202 -35.5t71 -102.5q0 -54 -45.5 -94.5t-120.5 -54.5v-34q183 -35 183 -148q0 -84 -81 -130t-229 -48z
" />
    <glyph glyph-name="acute" unicode="&#xb4;" 
d="M401 1248l186 380h287l-206 -380h-267z" />
    <glyph glyph-name="uni00B5" unicode="&#xb5;" 
d="M561 -20q-148 0 -155 224h-27l36 -664h-281v1520h271v-580q0 -115 41 -177.5t115 -62.5q97 0 144.5 70.5t47.5 229.5v520h271v-818l146 -22v-220l-399 -10l-15 214h-27q-7 -224 -168 -224z" />
    <glyph glyph-name="paragraph" unicode="&#xb6;" 
d="M422 0v545q-194 20 -298.5 130t-104.5 297q0 209 127 326.5t361 121.5h670v-243h-102v-1177h-263v1177h-127v-1177h-263z" />
    <glyph glyph-name="periodcentered" unicode="&#xb7;" 
d="M600 529q-76 0 -129 53.5t-53 128.5q0 76 53 129t129 53t129 -53t53 -129q0 -75 -53 -128.5t-129 -53.5z" />
    <glyph glyph-name="cedilla" unicode="&#xb8;" 
d="M381 -480v158q171 0 171 64q0 60 -145 60l69 204l202 -11l-25 -103q156 -36 156 -159q0 -213 -428 -213z" />
    <glyph glyph-name="uni00B9" unicode="&#xb9;" 
d="M324 802v207h191v199l-182 -51v212l182 53h206v-413h155v-207h-552z" />
    <glyph glyph-name="ordmasculine" unicode="&#xba;" 
d="M600 770q-162 0 -260.5 92t-98.5 243t98.5 243t260.5 92t260.5 -92t98.5 -243t-98.5 -243t-260.5 -92zM600 970q49 0 78 37t29 98t-29 98t-78 37t-78 -37t-29 -98t29 -98t78 -37z" />
    <glyph glyph-name="guillemotright" unicode="&#xbb;" 
d="M249 25l-180 155l322 340v18l-322 336l180 155l426 -439v-122zM744 25l-180 155l322 340v18l-322 336l180 155l426 -439v-122z" />
    <glyph glyph-name="onequarter" unicode="&#xbc;" 
d="M203 278l-126 152l508 372h-521v207h191v199l-182 -51v212l182 53h206v-413h155v-184l391 286l126 -147l-514 -379h191l-36 -306h89v339h198v-339h69v-181h-69v-98h-198v98h-313l1 3l61 479z" />
    <glyph glyph-name="onehalf" unicode="&#xbd;" 
d="M203 279l-126 153l505 370h-518v207h191v199l-182 -51v212l182 53h206v-413h155v-182l391 286l126 -147l-490 -362q95 33 230 33q117 0 187.5 -49.5t70.5 -131.5q0 -60 -44.5 -111t-141.5 -101v-38h212v-207h-550v224q264 73 264 161q0 43 -69 43q-75 0 -154 -38l-61 174
z" />
    <glyph glyph-name="threequarters" unicode="&#xbe;" 
d="M203 281l-126 153l930 680l126 -146l-518 -383h195l-36 -306h89v339h198v-339h69v-181h-69v-98h-198v98h-313l1 3l62 483zM322 793q-135 -1 -235 26l41 171q121 -21 180 -21q84 0 84 46q0 27 -77 27h-97l-10 150q166 7 166 41q0 32 -62 32q-107 0 -192 -29l-21 174
q101 30 243 30q131 0 202 -35.5t71 -102.5q0 -54 -45.5 -94.5t-120.5 -54.5v-34q183 -35 183 -148q0 -84 -81 -130t-229 -48z" />
    <glyph glyph-name="questiondown" unicode="&#xbf;" 
d="M604 -380q-203 0 -315 88.5t-112 249.5q0 245 239 397q50 32 72.5 75t22.5 105v36h262v-84q0 -100 -47 -173t-150 -141q-112 -73 -112 -180q0 -58 41.5 -89.5t117.5 -31.5q93 0 184.5 47t155.5 126l146 -189q-74 -107 -210.5 -171.5t-294.5 -64.5zM638 1080
q76 0 129 -53.5t53 -128.5q0 -76 -53 -129t-129 -53t-129 53t-53 129q0 75 53 128.5t129 53.5z" />
    <glyph glyph-name="Agrave" unicode="&#xc0;" 
d="M28 0l410 1420h324l410 -1420h-285l-70 269h-434l-70 -269h-285zM446 513h308l-145 560h-18zM464 1580l-303 275h363l222 -275h-282z" />
    <glyph glyph-name="Aacute" unicode="&#xc1;" 
d="M28 0l410 1420h324l410 -1420h-285l-70 269h-434l-70 -269h-285zM446 513h308l-145 560h-18zM452 1580l222 275h364l-304 -275h-282z" />
    <glyph glyph-name="Acircumflex" unicode="&#xc2;" 
d="M28 0l410 1420h324l410 -1420h-285l-70 269h-434l-70 -269h-285zM222 1580l243 260h272l243 -260h-297l-82 115l-82 -115h-297zM446 513h308l-145 560h-18z" />
    <glyph glyph-name="Atilde" unicode="&#xc3;" 
d="M28 0l410 1420h324l410 -1420h-285l-70 269h-434l-70 -269h-285zM208 1566v50q0 143 54.5 209t172.5 66q75 0 155 -32q103 -43 132 -43q33 0 33 47v52h257v-50q0 -138 -49 -201.5t-156 -63.5q-76 0 -176 47q-78 36 -108 36t-43.5 -13.5t-13.5 -43.5v-60h-258zM446 513
h308l-145 560h-18z" />
    <glyph glyph-name="Adieresis" unicode="&#xc4;" 
d="M28 0l410 1420h324l410 -1420h-285l-70 269h-434l-70 -269h-285zM359 1586q-71 0 -121 50t-50 121t50 120.5t121 49.5t120.5 -49.5t49.5 -120.5t-49.5 -121t-120.5 -50zM841 1586q-71 0 -120.5 50t-49.5 121t49.5 120.5t120.5 49.5t121 -49.5t50 -120.5t-50 -121
t-121 -50zM446 513h308l-145 560h-18z" />
    <glyph glyph-name="Aring" unicode="&#xc5;" 
d="M28 0l410 1420h324l410 -1420h-285l-70 269h-434l-70 -269h-285zM600 1480q-137 0 -212.5 56t-75.5 158t75.5 158t212.5 56t212.5 -56t75.5 -158t-75.5 -158t-212.5 -56zM446 513h308l-145 560h-18zM600 1629q79 0 79 65q0 66 -79 66t-79 -66q0 -65 79 -65z" />
    <glyph glyph-name="AE" unicode="&#xc6;" 
d="M28 0l331 1420h758v-242h-304v-346h244v-242h-244v-348h304v-242h-542v164h-249l-33 -164h-265zM375 403h200v783h-42z" />
    <glyph glyph-name="Ccedilla" unicode="&#xc7;" 
d="M471 -480v158q171 0 171 64q0 60 -145 60l66 194q-494 92 -494 716q0 347 171 537.5t484 190.5q141 0 250 -45.5t165 -129.5l-148 -193q-45 56 -114.5 86.5t-150.5 30.5q-175 0 -277 -123t-102 -344q0 -490 435 -490q145 0 286 60l46 -244q-167 -65 -350 -68l-21 -88
q156 -36 156 -159q0 -213 -428 -213z" />
    <glyph glyph-name="Egrave" unicode="&#xc8;" 
d="M143 0v1420h974v-243h-710v-344h530v-244h-530v-346h710v-243h-974zM494 1580l-303 275h363l222 -275h-282z" />
    <glyph glyph-name="Eacute" unicode="&#xc9;" 
d="M143 0v1420h974v-243h-710v-344h530v-244h-530v-346h710v-243h-974zM482 1580l222 275h364l-304 -275h-282z" />
    <glyph glyph-name="Ecircumflex" unicode="&#xca;" 
d="M143 0v1420h974v-243h-710v-344h530v-244h-530v-346h710v-243h-974zM252 1580l243 260h272l243 -260h-297l-82 115l-82 -115h-297z" />
    <glyph glyph-name="Edieresis" unicode="&#xcb;" 
d="M143 0v1420h974v-243h-710v-344h530v-244h-530v-346h710v-243h-974zM389 1586q-71 0 -121 50t-50 121t50 120.5t121 49.5t120.5 -49.5t49.5 -120.5t-49.5 -121t-120.5 -50zM871 1586q-71 0 -120.5 50t-49.5 121t49.5 120.5t120.5 49.5t121 -49.5t50 -120.5t-50 -121
t-121 -50z" />
    <glyph glyph-name="Igrave" unicode="&#xcc;" 
d="M151 0v238h316v945h-316v237h898v-237h-318v-945h318v-238h-898zM464 1580l-303 275h363l222 -275h-282z" />
    <glyph glyph-name="Iacute" unicode="&#xcd;" 
d="M151 0v238h316v945h-316v237h898v-237h-318v-945h318v-238h-898zM452 1580l222 275h364l-304 -275h-282z" />
    <glyph glyph-name="Icircumflex" unicode="&#xce;" 
d="M151 0v238h316v945h-316v237h898v-237h-318v-945h318v-238h-898zM222 1580l243 260h272l243 -260h-297l-82 115l-82 -115h-297z" />
    <glyph glyph-name="Idieresis" unicode="&#xcf;" 
d="M151 0v238h316v945h-316v237h898v-237h-318v-945h318v-238h-898zM359 1586q-71 0 -121 50t-50 121t50 120.5t121 49.5t120.5 -49.5t49.5 -120.5t-49.5 -121t-120.5 -50zM841 1586q-71 0 -120.5 50t-49.5 121t49.5 120.5t120.5 49.5t121 -49.5t50 -120.5t-50 -121
t-121 -50z" />
    <glyph glyph-name="Eth" unicode="&#xd0;" 
d="M12 585v244h111v591h361q667 0 667 -730q0 -690 -667 -690h-361v585h-111zM387 253h97q194 0 292 110.5t98 326.5q0 236 -98 357t-292 121h-97v-339h264v-244h-264v-332z" />
    <glyph glyph-name="Ntilde" unicode="&#xd1;" 
d="M672 0l-250 1110h-37v-1110h-254v1420h397l250 -1110h37v1110h254v-1420h-397zM208 1566v50q0 143 54.5 209t172.5 66q75 0 155 -32q103 -43 132 -43q33 0 33 47v52h257v-50q0 -138 -49 -201.5t-156 -63.5q-76 0 -176 47q-78 36 -108 36t-43.5 -13.5t-13.5 -43.5v-60
h-258z" />
    <glyph glyph-name="Ograve" unicode="&#xd2;" 
d="M600 -20q-541 0 -541 720q0 740 541 740t541 -740q0 -720 -541 -720zM600 232q264 0 264 468q0 489 -264 489t-264 -489q0 -468 264 -468zM464 1580l-303 275h363l222 -275h-282z" />
    <glyph glyph-name="Oacute" unicode="&#xd3;" 
d="M600 -20q-541 0 -541 720q0 740 541 740t541 -740q0 -720 -541 -720zM600 232q264 0 264 468q0 489 -264 489t-264 -489q0 -468 264 -468zM452 1580l222 275h364l-304 -275h-282z" />
    <glyph glyph-name="Ocircumflex" unicode="&#xd4;" 
d="M600 -20q-541 0 -541 720q0 740 541 740t541 -740q0 -720 -541 -720zM600 232q264 0 264 468q0 489 -264 489t-264 -489q0 -468 264 -468zM222 1580l243 260h272l243 -260h-297l-82 115l-82 -115h-297z" />
    <glyph glyph-name="Otilde" unicode="&#xd5;" 
d="M600 -20q-541 0 -541 720q0 740 541 740t541 -740q0 -720 -541 -720zM600 232q264 0 264 468q0 489 -264 489t-264 -489q0 -468 264 -468zM208 1566v50q0 143 54.5 209t172.5 66q75 0 155 -32q103 -43 132 -43q33 0 33 47v52h257v-50q0 -138 -49 -201.5t-156 -63.5
q-76 0 -176 47q-78 36 -108 36t-43.5 -13.5t-13.5 -43.5v-60h-258z" />
    <glyph glyph-name="Odieresis" unicode="&#xd6;" 
d="M600 -20q-541 0 -541 720q0 740 541 740t541 -740q0 -720 -541 -720zM600 232q264 0 264 468q0 489 -264 489t-264 -489q0 -468 264 -468zM359 1586q-71 0 -121 50t-50 121t50 120.5t121 49.5t120.5 -49.5t49.5 -120.5t-49.5 -121t-120.5 -50zM841 1586q-71 0 -120.5 50
t-49.5 121t49.5 120.5t120.5 49.5t121 -49.5t50 -120.5t-50 -121t-121 -50z" />
    <glyph glyph-name="multiply" unicode="&#xd7;" 
d="M299 188l-178 171l309 328l-309 328l178 173l301 -320l301 320l178 -173l-309 -328l309 -328l-178 -171l-301 319z" />
    <glyph glyph-name="Oslash" unicode="&#xd8;" 
d="M251 -134l-185 75l123 226q-130 179 -130 533q0 740 541 740q144 0 250 -53l79 145l185 -75l-109 -201q136 -187 136 -556q0 -720 -541 -720q-150 0 -257 55zM600 232q264 0 264 468q0 148 -24 252l-370 -682q55 -38 130 -38zM356 476l368 677q-53 36 -124 36
q-264 0 -264 -489q0 -127 20 -224z" />
    <glyph glyph-name="Ugrave" unicode="&#xd9;" 
d="M596 -20q-473 0 -473 476v964h264v-964q0 -112 52 -167.5t161 -55.5q213 0 213 223v964h264v-964q0 -237 -122 -356.5t-359 -119.5zM464 1580l-303 275h363l222 -275h-282z" />
    <glyph glyph-name="Uacute" unicode="&#xda;" 
d="M596 -20q-473 0 -473 476v964h264v-964q0 -112 52 -167.5t161 -55.5q213 0 213 223v964h264v-964q0 -237 -122 -356.5t-359 -119.5zM452 1580l222 275h364l-304 -275h-282z" />
    <glyph glyph-name="Ucircumflex" unicode="&#xdb;" 
d="M596 -20q-473 0 -473 476v964h264v-964q0 -112 52 -167.5t161 -55.5q213 0 213 223v964h264v-964q0 -237 -122 -356.5t-359 -119.5zM222 1580l243 260h272l243 -260h-297l-82 115l-82 -115h-297z" />
    <glyph glyph-name="Udieresis" unicode="&#xdc;" 
d="M596 -20q-473 0 -473 476v964h264v-964q0 -112 52 -167.5t161 -55.5q213 0 213 223v964h264v-964q0 -237 -122 -356.5t-359 -119.5zM359 1586q-71 0 -121 50t-50 121t50 120.5t121 49.5t120.5 -49.5t49.5 -120.5t-49.5 -121t-120.5 -50zM841 1586q-71 0 -120.5 50
t-49.5 121t49.5 120.5t120.5 49.5t121 -49.5t50 -120.5t-50 -121t-121 -50z" />
    <glyph glyph-name="Yacute" unicode="&#xdd;" 
d="M468 0v455l-460 965h295l288 -660h18l288 660h295l-460 -965v-455h-264zM452 1580l222 275h364l-304 -275h-282z" />
    <glyph glyph-name="Thorn" unicode="&#xde;" 
d="M143 0v1420h264v-199h171q267 0 413 -128.5t146 -361.5q0 -250 -146 -386.5t-413 -136.5h-171v-208h-264zM407 451h171q130 0 202 69t72 194q0 126 -71.5 195t-202.5 69h-171v-527z" />
    <glyph glyph-name="germandbls" unicode="&#xdf;" 
d="M818 -20q-150 0 -252 30l24 259q157 -32 228 -32q76 0 76 87q0 33 -28.5 68.5t-94.5 96.5q-152 146 -152 281q0 107 64 213q3 5 12.5 19.5t12.5 19.5l10.5 17.5t10 18t8.5 16.5t8 17.5t5.5 16.5t5 17.5t2.5 16.5t1 18q0 48 -32.5 74.5t-91.5 28.5q-82 0 -127 -58.5
t-45 -166.5v-1038h-270v607h-142v250h142v230q0 206 117 319.5t331 113.5q193 0 299 -85.5t106 -241.5q0 -56 -25 -112t-76 -135q-19 -30 -28.5 -48t-18.5 -50t-9 -68q0 -30 18 -64.5t34 -53t56 -63.5q184 -170 184 -313q0 -306 -363 -306z" />
    <glyph glyph-name="agrave" unicode="&#xe0;" 
d="M795 -10l-17 234h-24q-14 -121 -96 -182.5t-222 -61.5q-170 0 -263.5 83t-93.5 236q0 177 123 272.5t349 95.5q121 0 217 -21v3q0 84 -71 124t-217 44l-271 7l20 246l231 -3q568 -7 568 -433v-392l147 -22v-220zM467 1248l-207 380h287l187 -380h-267zM768 423
q-77 16 -204 16q-210 0 -210 -120q0 -54 38 -82.5t111 -28.5q121 0 191.5 64t73.5 151z" />
    <glyph glyph-name="aacute" unicode="&#xe1;" 
d="M795 -10l-17 234h-24q-14 -121 -96 -182.5t-222 -61.5q-170 0 -263.5 83t-93.5 236q0 177 123 272.5t349 95.5q121 0 217 -21v3q0 84 -71 124t-217 44l-271 7l20 246l231 -3q568 -7 568 -433v-392l147 -22v-220zM442 1248l186 380h287l-206 -380h-267zM768 423
q-77 16 -204 16q-210 0 -210 -120q0 -54 38 -82.5t111 -28.5q121 0 191.5 64t73.5 151z" />
    <glyph glyph-name="acircumflex" unicode="&#xe2;" 
d="M795 -10l-17 234h-24q-14 -121 -96 -182.5t-222 -61.5q-170 0 -263.5 83t-93.5 236q0 177 123 272.5t349 95.5q121 0 217 -21v3q0 84 -71 124t-217 44l-271 7l20 246l231 -3q568 -7 568 -433v-392l147 -22v-220zM196 1248l240 380h288l240 -380h-295l-89 221l-89 -221
h-295zM768 423q-77 16 -204 16q-210 0 -210 -120q0 -54 38 -82.5t111 -28.5q121 0 191.5 64t73.5 151z" />
    <glyph glyph-name="atilde" unicode="&#xe3;" 
d="M795 -10l-17 234h-24q-14 -121 -96 -182.5t-222 -61.5q-170 0 -263.5 83t-93.5 236q0 177 123 272.5t349 95.5q121 0 217 -21v3q0 84 -71 124t-217 44l-271 7l20 246l231 -3q568 -7 568 -433v-392l147 -22v-220zM188 1256v40q0 292 235 292q43 0 75.5 -12t81.5 -41
q7 -4 18 -10.5t16.5 -10t14.5 -7.5t15 -6t14.5 -3.5t17.5 -1.5q54 0 54 60v61h247v-97q0 -121 -43.5 -180.5t-136.5 -59.5q-77 0 -171 50q-5 3 -20 11.5t-19 10.5t-15.5 7.5t-17.5 7t-15.5 3.5t-18.5 2q-38 0 -56 -16.5t-18 -57.5v-42h-258zM768 423q-77 16 -204 16
q-210 0 -210 -120q0 -54 38 -82.5t111 -28.5q121 0 191.5 64t73.5 151z" />
    <glyph glyph-name="adieresis" unicode="&#xe4;" 
d="M795 -10l-17 234h-24q-14 -121 -96 -182.5t-222 -61.5q-170 0 -263.5 83t-93.5 236q0 177 123 272.5t349 95.5q121 0 217 -21v3q0 84 -71 124t-217 44l-271 7l20 246l231 -3q568 -7 568 -433v-392l147 -22v-220zM806 1231q-65 0 -111 46.5t-46 111.5q0 66 46 111.5
t111 45.5q66 0 112 -45.5t46 -111.5q0 -65 -46.5 -111.5t-111.5 -46.5zM358 1231q-65 0 -111 46.5t-46 111.5q0 66 46 111.5t111 45.5t111 -45.5t46 -111.5q0 -65 -46 -111.5t-111 -46.5zM768 423q-77 16 -204 16q-210 0 -210 -120q0 -54 38 -82.5t111 -28.5q121 0 191.5 64
t73.5 151z" />
    <glyph glyph-name="aring" unicode="&#xe5;" 
d="M795 -10l-17 234h-24q-14 -121 -96 -182.5t-222 -61.5q-170 0 -263.5 83t-93.5 236q0 177 123 272.5t349 95.5q121 0 217 -21v3q0 84 -71 124t-217 44l-271 7l20 246l231 -3q568 -7 568 -433v-392l147 -22v-220zM580 1190q-133 0 -206.5 58.5t-73.5 165.5t73.5 165.5
t206.5 58.5t206.5 -58.5t73.5 -165.5t-73.5 -165.5t-206.5 -58.5zM768 423q-77 16 -204 16q-210 0 -210 -120q0 -54 38 -82.5t111 -28.5q121 0 191.5 64t73.5 151zM580 1339q71 0 71 75q0 36 -18.5 55.5t-52.5 19.5t-52.5 -19.5t-18.5 -55.5q0 -75 71 -75z" />
    <glyph glyph-name="ae" unicode="&#xe6;" 
d="M299 -20q-141 0 -218 80t-77 226q0 166 101.5 257t285.5 91q41 0 88 -5v4q0 81 -67 128t-187 51l-111 3l20 255l111 -3q137 -3 230 -65.5t135 -176.5q36 124 107 189.5t170 65.5q145 0 225 -133t80 -375q0 -83 -6 -149h-444q24 -91 87 -140t158 -49q65 0 137 13l26 -249
q-95 -18 -187 -18q-133 0 -223.5 72.5t-131.5 213.5h-18q-19 -141 -89.5 -213.5t-201.5 -72.5zM479 380v60q-18 1 -59 1q-75 0 -117 -34t-42 -94q0 -50 23.5 -77.5t66.5 -27.5q61 0 94.5 45t33.5 127zM730 610h215q0 113 -25 163.5t-81 50.5q-51 0 -77.5 -51.5t-31.5 -162.5
z" />
    <glyph glyph-name="ccedilla" unicode="&#xe7;" 
d="M456 -480v158q171 0 171 64q0 60 -145 60l66 194q-208 40 -318.5 177t-110.5 359q0 261 144.5 404.5t410.5 143.5q164 0 281.5 -64t166.5 -181l-196 -156q-44 69 -111.5 106.5t-148.5 37.5q-123 0 -191.5 -73.5t-68.5 -207.5q0 -149 88.5 -227t253.5 -78q135 0 283 26
l28 -253q-128 -28 -310 -30l-21 -88q156 -36 156 -159q0 -213 -428 -213z" />
    <glyph glyph-name="egrave" unicode="&#xe8;" 
d="M694 -20q-276 0 -425.5 143t-149.5 409q0 260 128 404t359 144q228 0 351.5 -134t123.5 -386q0 -72 -6 -137h-673q62 -187 316 -187q134 0 285 28l26 -256q-159 -28 -335 -28zM497 1248l-207 380h287l187 -380h-267zM389 611h426q0 106 -54.5 163.5t-152.5 57.5
q-91 0 -148 -57t-71 -164z" />
    <glyph glyph-name="eacute" unicode="&#xe9;" 
d="M694 -20q-276 0 -425.5 143t-149.5 409q0 260 128 404t359 144q228 0 351.5 -134t123.5 -386q0 -72 -6 -137h-673q62 -187 316 -187q134 0 285 28l26 -256q-159 -28 -335 -28zM472 1248l186 380h287l-206 -380h-267zM389 611h426q0 106 -54.5 163.5t-152.5 57.5
q-91 0 -148 -57t-71 -164z" />
    <glyph glyph-name="ecircumflex" unicode="&#xea;" 
d="M694 -20q-276 0 -425.5 143t-149.5 409q0 260 128 404t359 144q228 0 351.5 -134t123.5 -386q0 -72 -6 -137h-673q62 -187 316 -187q134 0 285 28l26 -256q-159 -28 -335 -28zM226 1248l240 380h288l240 -380h-295l-89 221l-89 -221h-295zM389 611h426q0 106 -54.5 163.5
t-152.5 57.5q-91 0 -148 -57t-71 -164z" />
    <glyph glyph-name="edieresis" unicode="&#xeb;" 
d="M694 -20q-276 0 -425.5 143t-149.5 409q0 260 128 404t359 144q228 0 351.5 -134t123.5 -386q0 -72 -6 -137h-673q62 -187 316 -187q134 0 285 28l26 -256q-159 -28 -335 -28zM836 1231q-65 0 -111 46.5t-46 111.5q0 66 46 111.5t111 45.5q66 0 112 -45.5t46 -111.5
q0 -65 -46.5 -111.5t-111.5 -46.5zM388 1231q-65 0 -111 46.5t-46 111.5q0 66 46 111.5t111 45.5t111 -45.5t46 -111.5q0 -65 -46 -111.5t-111 -46.5zM389 611h426q0 106 -54.5 163.5t-152.5 57.5q-91 0 -148 -57t-71 -164z" />
    <glyph glyph-name="igrave" unicode="&#xec;" 
d="M143 0v250h392v560h-332v250h602v-810h314v-250h-976zM537 1248l-207 380h287l187 -380h-267z" />
    <glyph glyph-name="iacute" unicode="&#xed;" 
d="M143 0v250h392v560h-332v250h602v-810h314v-250h-976zM512 1248l186 380h287l-206 -380h-267z" />
    <glyph glyph-name="icircumflex" unicode="&#xee;" 
d="M143 0v250h392v560h-332v250h602v-810h314v-250h-976zM266 1248l240 380h288l240 -380h-295l-89 221l-89 -221h-295z" />
    <glyph glyph-name="idieresis" unicode="&#xef;" 
d="M143 0v250h392v560h-332v250h602v-810h314v-250h-976zM876 1231q-65 0 -111 46.5t-46 111.5q0 66 46 111.5t111 45.5q66 0 112 -45.5t46 -111.5q0 -65 -46.5 -111.5t-111.5 -46.5zM428 1231q-65 0 -111 46.5t-46 111.5q0 66 46 111.5t111 45.5t111 -45.5t46 -111.5
q0 -65 -46 -111.5t-111 -46.5z" />
    <glyph glyph-name="eth" unicode="&#xf0;" 
d="M587 -20q-234 0 -362.5 120.5t-128.5 339.5q0 230 105.5 355t299.5 125q105 0 177 -55.5t96 -156.5h34q-6 231 -106 382l-421 -118l-52 225l275 77q-75 45 -179 84l58 158q232 -67 379 -169l293 82l52 -225l-156 -44q145 -208 145 -553v-48q0 -276 -133 -427.5
t-376 -151.5zM599 236q91 0 146 47t63 132v55q-7 92 -62 143t-147 51q-102 0 -159.5 -59t-57.5 -165q0 -96 57.5 -150t159.5 -54z" />
    <glyph glyph-name="ntilde" unicode="&#xf1;" 
d="M778 0v623q0 96 -39.5 148t-112.5 52q-204 0 -204 -294v-529h-271v1060h242l25 -192h30q15 109 74 160.5t175 51.5q168 0 260 -102t92 -288v-690h-271zM198 1256v40q0 292 235 292q43 0 75.5 -12t81.5 -41q7 -4 18 -10.5t16.5 -10t14.5 -7.5t15 -6t14.5 -3.5t17.5 -1.5
q54 0 54 60v61h247v-97q0 -121 -43.5 -180.5t-136.5 -59.5q-77 0 -171 50q-5 3 -20 11.5t-19 10.5t-15.5 7.5t-17.5 7t-15.5 3.5t-18.5 2q-38 0 -56 -16.5t-18 -57.5v-42h-258z" />
    <glyph glyph-name="ograve" unicode="&#xf2;" 
d="M600 -20q-229 0 -355 144t-126 406t126 406t355 144t355 -144t126 -406t-126 -406t-355 -144zM600 237q93 0 143.5 76.5t50.5 216.5q0 141 -50.5 217t-143.5 76t-143.5 -76t-50.5 -217q0 -140 51 -216.5t143 -76.5zM487 1248l-207 380h287l187 -380h-267z" />
    <glyph glyph-name="oacute" unicode="&#xf3;" 
d="M600 -20q-229 0 -355 144t-126 406t126 406t355 144t355 -144t126 -406t-126 -406t-355 -144zM600 237q93 0 143.5 76.5t50.5 216.5q0 141 -50.5 217t-143.5 76t-143.5 -76t-50.5 -217q0 -140 51 -216.5t143 -76.5zM462 1248l186 380h287l-206 -380h-267z" />
    <glyph glyph-name="ocircumflex" unicode="&#xf4;" 
d="M600 -20q-229 0 -355 144t-126 406t126 406t355 144t355 -144t126 -406t-126 -406t-355 -144zM600 237q93 0 143.5 76.5t50.5 216.5q0 141 -50.5 217t-143.5 76t-143.5 -76t-50.5 -217q0 -140 51 -216.5t143 -76.5zM216 1248l240 380h288l240 -380h-295l-89 221l-89 -221
h-295z" />
    <glyph glyph-name="otilde" unicode="&#xf5;" 
d="M600 -20q-229 0 -355 144t-126 406t126 406t355 144t355 -144t126 -406t-126 -406t-355 -144zM208 1256v40q0 292 235 292q43 0 75.5 -12t81.5 -41q7 -4 18 -10.5t16.5 -10t14.5 -7.5t15 -6t14.5 -3.5t17.5 -1.5q54 0 54 60v61h247v-97q0 -121 -43.5 -180.5t-136.5 -59.5
q-77 0 -171 50q-5 3 -20 11.5t-19 10.5t-15.5 7.5t-17.5 7t-15.5 3.5t-18.5 2q-38 0 -56 -16.5t-18 -57.5v-42h-258zM600 237q93 0 143.5 76.5t50.5 216.5q0 141 -50.5 217t-143.5 76t-143.5 -76t-50.5 -217q0 -140 51 -216.5t143 -76.5z" />
    <glyph glyph-name="odieresis" unicode="&#xf6;" 
d="M600 -20q-229 0 -355 144t-126 406t126 406t355 144t355 -144t126 -406t-126 -406t-355 -144zM600 237q93 0 143.5 76.5t50.5 216.5q0 141 -50.5 217t-143.5 76t-143.5 -76t-50.5 -217q0 -140 51 -216.5t143 -76.5zM826 1231q-65 0 -111 46.5t-46 111.5q0 66 46 111.5
t111 45.5q66 0 112 -45.5t46 -111.5q0 -65 -46.5 -111.5t-111.5 -46.5zM378 1231q-65 0 -111 46.5t-46 111.5q0 66 46 111.5t111 45.5t111 -45.5t46 -111.5q0 -65 -46 -111.5t-111 -46.5z" />
    <glyph glyph-name="divide" unicode="&#xf7;" 
d="M100 576v266h1000v-266h-1000zM600 100q-74 0 -127 52.5t-53 126.5t53 127t127 53t127 -53t53 -127t-53 -126.5t-127 -52.5zM600 959q-74 0 -127 53t-53 127t53 126.5t127 52.5t127 -52.5t53 -126.5t-53 -127t-127 -53z" />
    <glyph glyph-name="oslash" unicode="&#xf8;" 
d="M301 -134l-130 92l88 151q-140 143 -140 421q0 262 126 406t355 144q112 0 205 -37l91 155l140 -82l-96 -164q141 -143 141 -422q0 -262 -126 -406t-355 -144q-118 0 -209 39zM600 237q93 0 143.5 76.5t50.5 216.5q0 84 -18 144l-248 -422q32 -15 72 -15zM423 389
l246 421q-30 13 -69 13q-93 0 -143.5 -76t-50.5 -217q0 -79 17 -141z" />
    <glyph glyph-name="ugrave" unicode="&#xf9;" 
d="M446 -20q-151 0 -234 99t-83 281v700h271v-633q0 -91 41 -140.5t115 -49.5q98 0 145 75t47 245v503h271v-818l146 -22v-220l-399 -10l-15 214h-31q-25 -107 -96.5 -165.5t-177.5 -58.5zM467 1248l-207 380h287l187 -380h-267z" />
    <glyph glyph-name="uacute" unicode="&#xfa;" 
d="M446 -20q-151 0 -234 99t-83 281v700h271v-633q0 -91 41 -140.5t115 -49.5q98 0 145 75t47 245v503h271v-818l146 -22v-220l-399 -10l-15 214h-31q-25 -107 -96.5 -165.5t-177.5 -58.5zM442 1248l186 380h287l-206 -380h-267z" />
    <glyph glyph-name="ucircumflex" unicode="&#xfb;" 
d="M446 -20q-151 0 -234 99t-83 281v700h271v-633q0 -91 41 -140.5t115 -49.5q98 0 145 75t47 245v503h271v-818l146 -22v-220l-399 -10l-15 214h-31q-25 -107 -96.5 -165.5t-177.5 -58.5zM196 1248l240 380h288l240 -380h-295l-89 221l-89 -221h-295z" />
    <glyph glyph-name="udieresis" unicode="&#xfc;" 
d="M446 -20q-151 0 -234 99t-83 281v700h271v-633q0 -91 41 -140.5t115 -49.5q98 0 145 75t47 245v503h271v-818l146 -22v-220l-399 -10l-15 214h-31q-25 -107 -96.5 -165.5t-177.5 -58.5zM806 1231q-65 0 -111 46.5t-46 111.5q0 66 46 111.5t111 45.5q66 0 112 -45.5
t46 -111.5q0 -65 -46.5 -111.5t-111.5 -46.5zM358 1231q-65 0 -111 46.5t-46 111.5q0 66 46 111.5t111 45.5t111 -45.5t46 -111.5q0 -65 -46 -111.5t-111 -46.5z" />
    <glyph glyph-name="yacute" unicode="&#xfd;" 
d="M58 -480l-10 235l183 20q111 12 183.5 64.5t122.5 160.5h-143l-356 1060h287l263 -830h25l232 830h287l-298 -966q-90 -283 -221.5 -407t-357.5 -147zM477 1248l186 380h287l-206 -380h-267z" />
    <glyph glyph-name="thorn" unicode="&#xfe;" 
d="M151 -460v1960h271v-632h22q18 108 80.5 160t178.5 52q199 0 308.5 -144.5t109.5 -406.5q0 -264 -109 -406.5t-307 -142.5q-112 0 -178.5 53.5t-82.5 158.5h-22v-652h-271zM422 529q0 -157 46.5 -225.5t160.5 -68.5q207 0 207 294q0 141 -54 218.5t-153 77.5
q-105 0 -156 -72t-51 -224z" />
    <glyph glyph-name="ydieresis" unicode="&#xff;" 
d="M58 -480l-10 235l183 20q111 12 183.5 64.5t122.5 160.5h-143l-356 1060h287l263 -830h25l232 830h287l-298 -966q-90 -283 -221.5 -407t-357.5 -147zM841 1231q-65 0 -111 46.5t-46 111.5q0 66 46 111.5t111 45.5q66 0 112 -45.5t46 -111.5q0 -65 -46.5 -111.5
t-111.5 -46.5zM393 1231q-65 0 -111 46.5t-46 111.5q0 66 46 111.5t111 45.5t111 -45.5t46 -111.5q0 -65 -46 -111.5t-111 -46.5z" />
    <glyph glyph-name="Amacron" unicode="&#x100;" 
d="M28 0l410 1420h324l410 -1420h-285l-70 269h-434l-70 -269h-285zM213 1563v238h774v-238h-774zM446 513h308l-145 560h-18z" />
    <glyph glyph-name="amacron" unicode="&#x101;" 
d="M795 -10l-17 234h-24q-14 -121 -96 -182.5t-222 -61.5q-170 0 -263.5 83t-93.5 236q0 177 123 272.5t349 95.5q121 0 217 -21v3q0 84 -71 124t-217 44l-271 7l20 246l231 -3q568 -7 568 -433v-392l147 -22v-220zM150 1248v251h860v-251h-860zM768 423q-77 16 -204 16
q-210 0 -210 -120q0 -54 38 -82.5t111 -28.5q121 0 191.5 64t73.5 151z" />
    <glyph glyph-name="Abreve" unicode="&#x102;" 
d="M28 0l410 1420h324l410 -1420h-285l-70 269h-434l-70 -269h-285zM600 1553q-186 0 -288.5 80.5t-102.5 226.5h267q0 -69 31.5 -99t92.5 -30q62 0 93 30t31 99h267q0 -146 -102.5 -226.5t-288.5 -80.5zM446 513h308l-145 560h-18z" />
    <glyph glyph-name="abreve" unicode="&#x103;" 
d="M795 -10l-17 234h-24q-14 -121 -96 -182.5t-222 -61.5q-170 0 -263.5 83t-93.5 236q0 177 123 272.5t349 95.5q121 0 217 -21v3q0 84 -71 124t-217 44l-271 7l20 246l231 -3q568 -7 568 -433v-392l147 -22v-220zM580 1238q-186 0 -288.5 84t-102.5 238v43h259v-43
q0 -62 34 -95t98 -33t98 33t34 95v43h259v-43q0 -154 -102.5 -238t-288.5 -84zM768 423q-77 16 -204 16q-210 0 -210 -120q0 -54 38 -82.5t111 -28.5q121 0 191.5 64t73.5 151z" />
    <glyph glyph-name="Aogonek" unicode="&#x104;" 
d="M1018 -424q-115 0 -177.5 57.5t-62.5 162.5q0 72 30.5 125t86.5 79h-8l-70 269h-434l-70 -269h-285l410 1420h324l410 -1420h-20q-83 0 -128.5 -32.5t-45.5 -92.5q0 -38 24 -59.5t67 -21.5q32 0 82 5l-18 -217q-59 -6 -115 -6zM446 513h308l-145 560h-18z" />
    <glyph glyph-name="aogonek" unicode="&#x105;" 
d="M1020 -424q-115 0 -177.5 51t-62.5 144q0 71 30 120t84 66v36l-99 -3l-17 234h-24q-14 -121 -96 -182.5t-222 -61.5q-170 0 -263.5 83t-93.5 236q0 177 123 272.5t349 95.5q121 0 217 -21v3q0 84 -71 124t-217 44l-271 7l20 246l231 -3q568 -7 568 -433v-392l147 -22
v-220l-53 -1q-68 -7 -105 -39t-37 -86q0 -63 83 -63q38 0 90 11l-26 -237q-55 -9 -107 -9zM768 423q-77 16 -204 16q-210 0 -210 -120q0 -54 38 -82.5t111 -28.5q121 0 191.5 64t73.5 151z" />
    <glyph glyph-name="Cacute" unicode="&#x106;" 
d="M748 -20q-679 0 -679 732q0 347 171 537.5t484 190.5q141 0 250 -45.5t165 -129.5l-148 -193q-45 56 -114.5 86.5t-150.5 30.5q-175 0 -277 -123t-102 -344q0 -490 435 -490q145 0 286 60l46 -244q-174 -68 -366 -68zM547 1580l222 275h364l-304 -275h-282z" />
    <glyph glyph-name="cacute" unicode="&#x107;" 
d="M724 -20q-290 0 -447.5 143t-157.5 409q0 261 144.5 404.5t410.5 143.5q164 0 281.5 -64t166.5 -181l-196 -156q-44 69 -111.5 106.5t-148.5 37.5q-123 0 -191.5 -73.5t-68.5 -207.5q0 -149 88.5 -227t253.5 -78q135 0 283 26l28 -253q-135 -30 -335 -30zM512 1248
l186 380h287l-206 -380h-267z" />
    <glyph glyph-name="Ccircumflex" unicode="&#x108;" 
d="M748 -20q-679 0 -679 732q0 347 171 537.5t484 190.5q141 0 250 -45.5t165 -129.5l-148 -193q-45 56 -114.5 86.5t-150.5 30.5q-175 0 -277 -123t-102 -344q0 -490 435 -490q145 0 286 60l46 -244q-174 -68 -366 -68zM317 1580l243 260h272l243 -260h-297l-82 115
l-82 -115h-297z" />
    <glyph glyph-name="ccircumflex" unicode="&#x109;" 
d="M724 -20q-290 0 -447.5 143t-157.5 409q0 261 144.5 404.5t410.5 143.5q164 0 281.5 -64t166.5 -181l-196 -156q-44 69 -111.5 106.5t-148.5 37.5q-123 0 -191.5 -73.5t-68.5 -207.5q0 -149 88.5 -227t253.5 -78q135 0 283 26l28 -253q-135 -30 -335 -30zM266 1248
l240 380h288l240 -380h-295l-89 221l-89 -221h-295z" />
    <glyph glyph-name="Cdotaccent" unicode="&#x10a;" 
d="M748 -20q-679 0 -679 732q0 347 171 537.5t484 190.5q141 0 250 -45.5t165 -129.5l-148 -193q-45 56 -114.5 86.5t-150.5 30.5q-175 0 -277 -123t-102 -344q0 -490 435 -490q145 0 286 60l46 -244q-174 -68 -366 -68zM695 1572q-71 0 -121 50t-50 120q0 72 50 121.5
t121 49.5t121 -49.5t50 -121.5q0 -70 -50 -120t-121 -50z" />
    <glyph glyph-name="cdotaccent" unicode="&#x10b;" 
d="M724 -20q-290 0 -447.5 143t-157.5 409q0 261 144.5 404.5t410.5 143.5q164 0 281.5 -64t166.5 -181l-196 -156q-44 69 -111.5 106.5t-148.5 37.5q-123 0 -191.5 -73.5t-68.5 -207.5q0 -149 88.5 -227t253.5 -78q135 0 283 26l28 -253q-135 -30 -335 -30zM648 1198
q-70 0 -120.5 50t-50.5 121q0 72 50 121t121 49t121 -49t50 -121q0 -71 -50.5 -121t-120.5 -50z" />
    <glyph glyph-name="Ccaron" unicode="&#x10c;" 
d="M748 -20q-679 0 -679 732q0 347 171 537.5t484 190.5q141 0 250 -45.5t165 -129.5l-148 -193q-45 56 -114.5 86.5t-150.5 30.5q-175 0 -277 -123t-102 -344q0 -490 435 -490q145 0 286 60l46 -244q-174 -68 -366 -68zM559 1580l-243 260h297l82 -117l82 117h297
l-243 -260h-272z" />
    <glyph glyph-name="ccaron" unicode="&#x10d;" 
d="M724 -20q-290 0 -447.5 143t-157.5 409q0 261 144.5 404.5t410.5 143.5q164 0 281.5 -64t166.5 -181l-196 -156q-44 69 -111.5 106.5t-148.5 37.5q-123 0 -191.5 -73.5t-68.5 -207.5q0 -149 88.5 -227t253.5 -78q135 0 283 26l28 -253q-135 -30 -335 -30zM506 1210
l-240 380h295l89 -221l89 221h295l-240 -380h-288z" />
    <glyph glyph-name="Dcaron" unicode="&#x10e;" 
d="M123 0v1420h361q667 0 667 -730q0 -690 -667 -690h-361zM387 253h97q194 0 292 110.5t98 326.5q0 236 -98 357t-292 121h-97v-915zM394 1580l-243 260h297l82 -117l82 117h297l-243 -260h-272z" />
    <glyph glyph-name="dcaron" unicode="&#x10f;" 
d="M495 -20q-198 0 -307 142.5t-109 406.5q0 262 109.5 406.5t308.5 144.5q115 0 176 -52t79 -160h26v632h271v-1500l-232 -10l-38 202h-23q-16 -105 -82.5 -158.5t-178.5 -53.5zM778 529q0 152 -51 224t-156 72q-99 0 -153 -77.5t-54 -218.5q0 -294 207 -294
q114 0 160.5 68.5t46.5 225.5zM1105 1188l50 380h246l-90 -380h-206z" />
    <glyph glyph-name="Dcroat" unicode="&#x110;" 
d="M123 0v585h-111v244h111v591h361q667 0 667 -730q0 -690 -667 -690h-361zM387 253h97q194 0 292 110.5t98 326.5q0 236 -98 357t-292 121h-97v-339h264v-244h-264v-332z" />
    <glyph glyph-name="dcroat" unicode="&#x111;" 
d="M462 1168v224h316v108h271v-108h106v-224h-106v-1168l-232 -10l-38 202h-23q-16 -105 -82.5 -158.5t-178.5 -53.5q-198 0 -307 142.5t-109 406.5q0 262 109.5 406.5t308.5 144.5q115 0 176 -52t79 -160h26v300h-316zM778 529q0 152 -51 224t-156 72q-99 0 -153 -77.5
t-54 -218.5q0 -294 207 -294q114 0 160.5 68.5t46.5 225.5z" />
    <glyph glyph-name="Emacron" unicode="&#x112;" 
d="M143 0v1420h974v-243h-710v-344h530v-244h-530v-346h710v-243h-974zM243 1563v238h774v-238h-774z" />
    <glyph glyph-name="emacron" unicode="&#x113;" 
d="M694 -20q-276 0 -425.5 143t-149.5 409q0 260 128 404t359 144q228 0 351.5 -134t123.5 -386q0 -72 -6 -137h-673q62 -187 316 -187q134 0 285 28l26 -256q-159 -28 -335 -28zM180 1248v251h860v-251h-860zM389 611h426q0 106 -54.5 163.5t-152.5 57.5q-91 0 -148 -57
t-71 -164z" />
    <glyph glyph-name="Ebreve" unicode="&#x114;" 
d="M143 0v1420h974v-243h-710v-344h530v-244h-530v-346h710v-243h-974zM630 1553q-186 0 -288.5 80.5t-102.5 226.5h267q0 -69 31.5 -99t92.5 -30q62 0 93 30t31 99h267q0 -146 -102.5 -226.5t-288.5 -80.5z" />
    <glyph glyph-name="ebreve" unicode="&#x115;" 
d="M694 -20q-276 0 -425.5 143t-149.5 409q0 260 128 404t359 144q228 0 351.5 -134t123.5 -386q0 -72 -6 -137h-673q62 -187 316 -187q134 0 285 28l26 -256q-159 -28 -335 -28zM610 1238q-186 0 -288.5 84t-102.5 238v43h259v-43q0 -62 34 -95t98 -33t98 33t34 95v43h259
v-43q0 -154 -102.5 -238t-288.5 -84zM389 611h426q0 106 -54.5 163.5t-152.5 57.5q-91 0 -148 -57t-71 -164z" />
    <glyph glyph-name="Edotaccent" unicode="&#x116;" 
d="M143 0v1420h974v-243h-710v-344h530v-244h-530v-346h710v-243h-974zM630 1572q-71 0 -121 50t-50 120q0 72 50 121.5t121 49.5t121 -49.5t50 -121.5q0 -70 -50 -120t-121 -50z" />
    <glyph glyph-name="edotaccent" unicode="&#x117;" 
d="M694 -20q-276 0 -425.5 143t-149.5 409q0 260 128 404t359 144q228 0 351.5 -134t123.5 -386q0 -72 -6 -137h-673q62 -187 316 -187q134 0 285 28l26 -256q-159 -28 -335 -28zM608 1198q-70 0 -120.5 50t-50.5 121q0 72 50 121t121 49t121 -49t50 -121q0 -71 -50.5 -121
t-120.5 -50zM389 611h426q0 106 -54.5 163.5t-152.5 57.5q-91 0 -148 -57t-71 -164z" />
    <glyph glyph-name="Eogonek" unicode="&#x118;" 
d="M966 -424q-118 0 -183 55.5t-65 156.5q0 70 31.5 118t90.5 66v28h-697v1420h974v-243h-710v-344h530v-244h-530v-346h710v-243h-17q-86 0 -134 -33t-48 -93q0 -38 23.5 -59t67.5 -21q35 0 82 11l-18 -220q-55 -9 -107 -9z" />
    <glyph glyph-name="eogonek" unicode="&#x119;" 
d="M878 -424q-115 0 -177.5 50t-62.5 142q0 72 30 121.5t84 66.5v25q-21 -1 -58 -1q-276 0 -425.5 143t-149.5 409q0 260 128 404t359 144q228 0 351.5 -134t123.5 -386q0 -72 -6 -137h-673q62 -187 316 -187q134 0 285 28l26 -256q-12 -2 -44 -7q-147 -33 -147 -127
q0 -29 21 -46t62 -17q43 0 90 11l-26 -237q-57 -9 -107 -9zM389 611h426q0 106 -54.5 163.5t-152.5 57.5q-91 0 -148 -57t-71 -164z" />
    <glyph glyph-name="Ecaron" unicode="&#x11a;" 
d="M143 0v1420h974v-243h-710v-344h530v-244h-530v-346h710v-243h-974zM494 1580l-243 260h297l82 -117l82 117h297l-243 -260h-272z" />
    <glyph glyph-name="ecaron" unicode="&#x11b;" 
d="M694 -20q-276 0 -425.5 143t-149.5 409q0 260 128 404t359 144q228 0 351.5 -134t123.5 -386q0 -72 -6 -137h-673q62 -187 316 -187q134 0 285 28l26 -256q-159 -28 -335 -28zM466 1210l-240 380h295l89 -221l89 221h295l-240 -380h-288zM389 611h426q0 106 -54.5 163.5
t-152.5 57.5q-91 0 -148 -57t-71 -164z" />
    <glyph glyph-name="Gcircumflex" unicode="&#x11c;" 
d="M702 -20q-653 0 -653 732q0 346 169 537t476 191q153 0 266 -48t177 -138l-166 -191q-47 60 -116.5 93t-148.5 33q-180 0 -279.5 -122t-99.5 -345q0 -490 399 -490q54 0 119 9v251h-235v243h497v-695q-197 -60 -405 -60zM297 1580l243 260h272l243 -260h-297l-82 115
l-82 -115h-297z" />
    <glyph glyph-name="gcircumflex" unicode="&#x11d;" 
d="M182 -478l-10 236l340 10q138 4 202 76.5t64 217.5v130h-22q-16 -105 -82.5 -158.5t-178.5 -53.5q-198 0 -307 142.5t-109 406.5q0 262 109.5 406.5t308.5 144.5q119 0 182.5 -52t82.5 -160h19l17 192h251v-966q0 -284 -133 -418t-424 -144zM778 529q0 152 -51 224
t-156 72q-99 0 -153 -77.5t-54 -218.5q0 -294 207 -294q114 0 160.5 68.5t46.5 225.5zM196 1248l240 380h288l240 -380h-295l-89 221l-89 -221h-295z" />
    <glyph glyph-name="Gbreve" unicode="&#x11e;" 
d="M702 -20q-653 0 -653 732q0 346 169 537t476 191q153 0 266 -48t177 -138l-166 -191q-47 60 -116.5 93t-148.5 33q-180 0 -279.5 -122t-99.5 -345q0 -490 399 -490q54 0 119 9v251h-235v243h497v-695q-197 -60 -405 -60zM675 1553q-186 0 -288.5 80.5t-102.5 226.5h267
q0 -69 31.5 -99t92.5 -30q62 0 93 30t31 99h267q0 -146 -102.5 -226.5t-288.5 -80.5z" />
    <glyph glyph-name="gbreve" unicode="&#x11f;" 
d="M182 -478l-10 236l340 10q138 4 202 76.5t64 217.5v130h-22q-16 -105 -82.5 -158.5t-178.5 -53.5q-198 0 -307 142.5t-109 406.5q0 262 109.5 406.5t308.5 144.5q119 0 182.5 -52t82.5 -160h19l17 192h251v-966q0 -284 -133 -418t-424 -144zM778 529q0 152 -51 224
t-156 72q-99 0 -153 -77.5t-54 -218.5q0 -294 207 -294q114 0 160.5 68.5t46.5 225.5zM580 1238q-186 0 -288.5 84t-102.5 238v43h259v-43q0 -62 34 -95t98 -33t98 33t34 95v43h259v-43q0 -154 -102.5 -238t-288.5 -84z" />
    <glyph glyph-name="Gdotaccent" unicode="&#x120;" 
d="M702 -20q-653 0 -653 732q0 346 169 537t476 191q153 0 266 -48t177 -138l-166 -191q-47 60 -116.5 93t-148.5 33q-180 0 -279.5 -122t-99.5 -345q0 -490 399 -490q54 0 119 9v251h-235v243h497v-695q-197 -60 -405 -60zM675 1572q-71 0 -121 50t-50 120q0 72 50 121.5
t121 49.5t121 -49.5t50 -121.5q0 -70 -50 -120t-121 -50z" />
    <glyph glyph-name="gdotaccent" unicode="&#x121;" 
d="M182 -478l-10 236l340 10q138 4 202 76.5t64 217.5v130h-22q-16 -105 -82.5 -158.5t-178.5 -53.5q-198 0 -307 142.5t-109 406.5q0 262 109.5 406.5t308.5 144.5q119 0 182.5 -52t82.5 -160h19l17 192h251v-966q0 -284 -133 -418t-424 -144zM778 529q0 152 -51 224
t-156 72q-99 0 -153 -77.5t-54 -218.5q0 -294 207 -294q114 0 160.5 68.5t46.5 225.5zM578 1198q-70 0 -120.5 50t-50.5 121q0 72 50 121t121 49t121 -49t50 -121q0 -71 -50.5 -121t-120.5 -50z" />
    <glyph glyph-name="uni0122" unicode="&#x122;" 
d="M702 -20q-653 0 -653 732q0 346 169 537t476 191q153 0 266 -48t177 -138l-166 -191q-47 60 -116.5 93t-148.5 33q-180 0 -279.5 -122t-99.5 -345q0 -490 399 -490q54 0 119 9v251h-235v243h497v-695q-197 -60 -405 -60zM477 -480l77 340h288l-117 -340h-248z" />
    <glyph glyph-name="uni0123" unicode="&#x123;" 
d="M182 -478l-10 236l340 10q138 4 202 76.5t64 217.5v130h-22q-16 -105 -82.5 -158.5t-178.5 -53.5q-198 0 -307 142.5t-109 406.5q0 262 109.5 406.5t308.5 144.5q119 0 182.5 -52t82.5 -160h19l17 192h251v-966q0 -284 -133 -418t-424 -144zM778 529q0 152 -51 224
t-156 72q-99 0 -153 -77.5t-54 -218.5q0 -294 207 -294q114 0 160.5 68.5t46.5 225.5zM449 1208l81 380h239l-42 -380h-278z" />
    <glyph glyph-name="Hcircumflex" unicode="&#x124;" 
d="M813 0v585h-426v-585h-264v1420h264v-591h426v591h264v-1420h-264zM222 1580l243 260h272l243 -260h-297l-82 115l-82 -115h-297z" />
    <glyph glyph-name="hcircumflex" unicode="&#x125;" 
d="M778 0v640q0 89 -39.5 137t-112.5 48q-204 0 -204 -279v-546h-271v1500h271v-632h26q15 109 74 160.5t175 51.5q168 0 260 -102t92 -288v-690h-271zM-90 1660l243 260h272l243 -260h-297l-82 115l-82 -115h-297z" />
    <glyph glyph-name="Hbar" unicode="&#x126;" 
d="M42 1002v190h81v228h264v-228h426v228h264v-228h81v-190h-81v-1002h-264v585h-426v-585h-264v1002h-81zM387 829h426v173h-426v-173z" />
    <glyph glyph-name="hbar" unicode="&#x127;" 
d="M5 1185v224h146v91h271v-91h316v-224h-316v-317h26q15 109 74 160.5t175 51.5q168 0 260 -102t92 -288v-690h-271v640q0 89 -39.5 137t-112.5 48q-204 0 -204 -279v-546h-271v1185h-146z" />
    <glyph glyph-name="Itilde" unicode="&#x128;" 
d="M151 0v238h316v945h-316v237h898v-237h-318v-945h318v-238h-898zM208 1566v50q0 143 54.5 209t172.5 66q75 0 155 -32q103 -43 132 -43q33 0 33 47v52h257v-50q0 -138 -49 -201.5t-156 -63.5q-76 0 -176 47q-78 36 -108 36t-43.5 -13.5t-13.5 -43.5v-60h-258z" />
    <glyph glyph-name="itilde" unicode="&#x129;" 
d="M143 0v250h392v560h-332v250h602v-810h314v-250h-976zM258 1256v40q0 292 235 292q43 0 75.5 -12t81.5 -41q7 -4 18 -10.5t16.5 -10t14.5 -7.5t15 -6t14.5 -3.5t17.5 -1.5q54 0 54 60v61h247v-97q0 -121 -43.5 -180.5t-136.5 -59.5q-77 0 -171 50q-5 3 -20 11.5t-19 10.5
t-15.5 7.5t-17.5 7t-15.5 3.5t-18.5 2q-38 0 -56 -16.5t-18 -57.5v-42h-258z" />
    <glyph glyph-name="Imacron" unicode="&#x12a;" 
d="M151 0v238h316v945h-316v237h898v-237h-318v-945h318v-238h-898zM213 1563v238h774v-238h-774z" />
    <glyph glyph-name="imacron" unicode="&#x12b;" 
d="M143 0v250h392v560h-332v250h602v-810h314v-250h-976zM220 1248v251h860v-251h-860z" />
    <glyph glyph-name="Ibreve" unicode="&#x12c;" 
d="M151 0v238h316v945h-316v237h898v-237h-318v-945h318v-238h-898zM600 1553q-186 0 -288.5 80.5t-102.5 226.5h267q0 -69 31.5 -99t92.5 -30q62 0 93 30t31 99h267q0 -146 -102.5 -226.5t-288.5 -80.5z" />
    <glyph glyph-name="ibreve" unicode="&#x12d;" 
d="M143 0v250h392v560h-332v250h602v-810h314v-250h-976zM650 1238q-186 0 -288.5 84t-102.5 238v43h259v-43q0 -62 34 -95t98 -33t98 33t34 95v43h259v-43q0 -154 -102.5 -238t-288.5 -84z" />
    <glyph glyph-name="Iogonek" unicode="&#x12e;" 
d="M653 -424q-119 0 -184 55.5t-65 156.5q0 70 32 118t91 66v28h-376v238h316v945h-316v237h898v-237h-318v-945h318v-238h-262q-87 0 -135 -33t-48 -93q0 -38 23.5 -59t67.5 -21q35 0 82 11l-18 -220q-54 -9 -106 -9z" />
    <glyph glyph-name="iogonek" unicode="&#x12f;" 
d="M678 -424q-115 0 -177.5 51t-62.5 144q0 72 29.5 121.5t84.5 66.5v41h-409v250h392v560h-332v250h602v-810h314v-250h-307q-83 0 -128.5 -33t-45.5 -93q0 -30 22 -46.5t61 -16.5q38 0 90 11l-26 -237q-56 -9 -107 -9zM658 1203q-77 0 -125 48t-48 125t48 125t125 48
t125 -48t48 -125t-48 -125t-125 -48z" />
    <glyph glyph-name="Idotaccent" unicode="&#x130;" 
d="M151 0v238h316v945h-316v237h898v-237h-318v-945h318v-238h-898zM600 1572q-71 0 -121 50t-50 120q0 72 50 121.5t121 49.5t121 -49.5t50 -121.5q0 -70 -50 -120t-121 -50z" />
    <glyph glyph-name="dotlessi" unicode="&#x131;" 
d="M143 0v250h392v560h-332v250h602v-810h314v-250h-976z" />
    <glyph glyph-name="IJ" unicode="&#x132;" 
d="M627 -20q-446 0 -446 447h272q0 -102 43 -149t136 -47q104 0 152 65.5t48 210.5v670h-147v243h409v-913q0 -527 -467 -527zM33 568v243h154v366h-154v243h566v-243h-150v-366h170v-243h-586z" />
    <glyph glyph-name="ij" unicode="&#x133;" 
d="M235 -480l-10 255l217 18q135 11 195.5 74.5t60.5 194.5v998h279v-966q0 -281 -130.5 -411t-424.5 -151zM227 0v1060h279v-1060h-279zM375 1203q-77 0 -125 48t-48 125t48 125t125 48t125 -48t48 -125t-48 -125t-125 -48zM837 1203q-77 0 -125 48t-48 125t48 125t125 48
t125 -48t48 -125t-48 -125t-125 -48z" />
    <glyph glyph-name="Jcircumflex" unicode="&#x134;" 
d="M574 -20q-242 0 -373.5 132t-131.5 372h275q0 -120 61.5 -186.5t173.5 -66.5q113 0 174.5 66t61.5 187v693h-325v243h589v-936q0 -239 -133.5 -371.5t-371.5 -132.5zM412 1580l243 260h272l243 -260h-297l-82 115l-82 -115h-297z" />
    <glyph glyph-name="jcircumflex" unicode="&#x135;" 
d="M180 -480l-10 260l200 13q138 9 201 73t63 196v749h-370v249h641v-966q0 -281 -130.5 -411.5t-424.5 -150.5zM383 1248l240 380h288l240 -380h-295l-89 221l-89 -221h-295z" />
    <glyph glyph-name="uni0136" unicode="&#x136;" 
d="M133 0v1420h264v-694q111 21 198.5 86.5t140.5 161t80 209t27 237.5h268q0 -215 -71 -407.5t-203 -327.5l342 -685h-326l-238 525q-103 -47 -218 -65v-460h-264zM402 -480l77 340h288l-117 -340h-248z" />
    <glyph glyph-name="uni0137" unicode="&#x137;" 
d="M143 0v1500h271v-866h16q178 0 263.5 96t116.5 330h279q-48 -376 -224 -545l292 -515h-321l-199 394q-74 -17 -157 -17h-66v-377h-271zM402 -480l77 340h288l-117 -340h-248z" />
    <glyph glyph-name="kgreenlandic" unicode="&#x138;" 
d="M143 0v1060h271v-426h16q178 0 263.5 96t116.5 330h279q-48 -376 -224 -545l292 -515h-321l-199 394q-74 -17 -157 -17h-66v-377h-271z" />
    <glyph glyph-name="Lacute" unicode="&#x139;" 
d="M143 0v1420h264v-1177h710v-243h-974zM127 1580l222 275h364l-304 -275h-282z" />
    <glyph glyph-name="lacute" unicode="&#x13a;" 
d="M758 -20q-200 0 -288.5 109.5t-88.5 352.5v809h-300v249h570v-1048q0 -106 37 -148t150 -42q88 0 222 38l31 -278q-160 -42 -333 -42zM368 1660l222 275h364l-304 -275h-282z" />
    <glyph glyph-name="uni013B" unicode="&#x13b;" 
d="M143 0v1420h264v-1177h710v-243h-974zM402 -480l77 340h288l-117 -340h-248z" />
    <glyph glyph-name="uni013C" unicode="&#x13c;" 
d="M758 -20q-200 0 -288.5 109.5t-88.5 352.5v809h-300v249h570v-1048q0 -106 37 -148t150 -42q88 0 222 38l31 -278q-160 -42 -333 -42zM462 -480l77 340h288l-117 -340h-248z" />
    <glyph glyph-name="Lcaron" unicode="&#x13d;" 
d="M143 0v1420h264v-1177h710v-243h-974zM704 1188l50 380h287l-90 -380h-247z" />
    <glyph glyph-name="lcaron" unicode="&#x13e;" 
d="M758 -20q-200 0 -288.5 109.5t-88.5 352.5v809h-300v249h570v-1048q0 -106 37 -148t150 -42q88 0 222 38l31 -278q-160 -42 -333 -42zM755 1188l50 380h287l-90 -380h-247z" />
    <glyph glyph-name="Ldot" unicode="&#x13f;" 
d="M143 0v1420h264v-1177h710v-243h-974zM833 749q-76 0 -129 53.5t-53 128.5q0 76 53 129t129 53t129 -53t53 -129q0 -75 -53 -128.5t-129 -53.5z" />
    <glyph glyph-name="ldot" unicode="&#x140;" 
d="M758 -20q-200 0 -288.5 109.5t-88.5 352.5v809h-300v249h570v-1048q0 -106 37 -148t150 -42q88 0 222 38l31 -278q-160 -42 -333 -42zM966 829q-76 0 -129 53.5t-53 128.5q0 76 53 129t129 53t129 -53t53 -129q0 -75 -53 -128.5t-129 -53.5z" />
    <glyph glyph-name="Lslash" unicode="&#x141;" 
d="M58 430v260l169 83v647h263v-518l374 183v-260l-374 -183v-398h610v-244h-873v513z" />
    <glyph glyph-name="lslash" unicode="&#x142;" 
d="M128 438v269l253 116v428h-300v249h570v-553l283 130v-269l-283 -130v-226q0 -106 37 -148t150 -42q88 0 222 38l31 -278q-160 -42 -333 -42q-200 0 -288.5 109.5t-88.5 352.5v112z" />
    <glyph glyph-name="Nacute" unicode="&#x143;" 
d="M672 0l-250 1110h-37v-1110h-254v1420h397l250 -1110h37v1110h254v-1420h-397zM452 1580l222 275h364l-304 -275h-282z" />
    <glyph glyph-name="nacute" unicode="&#x144;" 
d="M778 0v623q0 96 -39.5 148t-112.5 52q-204 0 -204 -294v-529h-271v1060h242l25 -192h30q15 109 74 160.5t175 51.5q168 0 260 -102t92 -288v-690h-271zM452 1248l186 380h287l-206 -380h-267z" />
    <glyph glyph-name="uni0145" unicode="&#x145;" 
d="M672 0l-250 1110h-37v-1110h-254v1420h397l250 -1110h37v1110h254v-1420h-397zM382 -480l77 340h288l-117 -340h-248z" />
    <glyph glyph-name="uni0146" unicode="&#x146;" 
d="M778 0v623q0 96 -39.5 148t-112.5 52q-204 0 -204 -294v-529h-271v1060h242l25 -192h30q15 109 74 160.5t175 51.5q168 0 260 -102t92 -288v-690h-271zM382 -480l77 340h288l-117 -340h-248z" />
    <glyph glyph-name="Ncaron" unicode="&#x147;" 
d="M672 0l-250 1110h-37v-1110h-254v1420h397l250 -1110h37v1110h254v-1420h-397zM464 1580l-243 260h297l82 -117l82 117h297l-243 -260h-272z" />
    <glyph glyph-name="ncaron" unicode="&#x148;" 
d="M778 0v623q0 96 -39.5 148t-112.5 52q-204 0 -204 -294v-529h-271v1060h242l25 -192h30q15 109 74 160.5t175 51.5q168 0 260 -102t92 -288v-690h-271zM446 1210l-240 380h295l89 -221l89 221h295l-240 -380h-288z" />
    <glyph glyph-name="napostrophe" unicode="&#x149;" 
d="M778 0v623q0 96 -39.5 148t-112.5 52q-204 0 -204 -294v-529h-271v1060h242l25 -192h30q15 109 74 160.5t175 51.5q168 0 260 -102t92 -288v-690h-271zM0 1248l70 380h232l-140 -380h-162z" />
    <glyph glyph-name="Eng" unicode="&#x14a;" 
d="M493 -480l-2 240l180 3q75 5 109.5 40t34.5 109v88h-143l-250 1110h-37v-1110h-254v1420h397l250 -1110h37v1110h254v-1516q0 -194 -89 -286t-281 -95z" />
    <glyph glyph-name="eng" unicode="&#x14b;" 
d="M464 -480l-18 246l138 18q103 14 148.5 78.5t45.5 199.5v561q0 97 -39.5 149.5t-112.5 52.5q-204 0 -204 -296v-529h-271v1060h242l25 -192h30q15 109 74 160.5t175 51.5q168 0 260 -102t92 -288v-596q0 -189 -52 -306t-156 -176.5t-277 -79.5z" />
    <glyph glyph-name="Omacron" unicode="&#x14c;" 
d="M600 -20q-541 0 -541 720q0 740 541 740t541 -740q0 -720 -541 -720zM600 232q264 0 264 468q0 489 -264 489t-264 -489q0 -468 264 -468zM213 1563v238h774v-238h-774z" />
    <glyph glyph-name="omacron" unicode="&#x14d;" 
d="M600 -20q-229 0 -355 144t-126 406t126 406t355 144t355 -144t126 -406t-126 -406t-355 -144zM170 1248v251h860v-251h-860zM600 237q93 0 143.5 76.5t50.5 216.5q0 141 -50.5 217t-143.5 76t-143.5 -76t-50.5 -217q0 -140 51 -216.5t143 -76.5z" />
    <glyph glyph-name="Obreve" unicode="&#x14e;" 
d="M600 -20q-541 0 -541 720q0 740 541 740t541 -740q0 -720 -541 -720zM600 232q264 0 264 468q0 489 -264 489t-264 -489q0 -468 264 -468zM600 1553q-186 0 -288.5 80.5t-102.5 226.5h267q0 -69 31.5 -99t92.5 -30q62 0 93 30t31 99h267q0 -146 -102.5 -226.5
t-288.5 -80.5z" />
    <glyph glyph-name="obreve" unicode="&#x14f;" 
d="M600 -20q-229 0 -355 144t-126 406t126 406t355 144t355 -144t126 -406t-126 -406t-355 -144zM600 1238q-186 0 -288.5 84t-102.5 238v43h259v-43q0 -62 34 -95t98 -33t98 33t34 95v43h259v-43q0 -154 -102.5 -238t-288.5 -84zM600 237q93 0 143.5 76.5t50.5 216.5
q0 141 -50.5 217t-143.5 76t-143.5 -76t-50.5 -217q0 -140 51 -216.5t143 -76.5z" />
    <glyph glyph-name="Ohungarumlaut" unicode="&#x150;" 
d="M600 -20q-541 0 -541 720q0 740 541 740t541 -740q0 -720 -541 -720zM600 232q264 0 264 468q0 489 -264 489t-264 -489q0 -468 264 -468zM651 1580l135 250h348l-200 -250h-283zM224 1580l135 250h340l-191 -250h-284z" />
    <glyph glyph-name="ohungarumlaut" unicode="&#x151;" 
d="M600 -20q-229 0 -355 144t-126 406t126 406t355 144t355 -144t126 -406t-126 -406t-355 -144zM600 237q93 0 143.5 76.5t50.5 216.5q0 141 -50.5 217t-143.5 76t-143.5 -76t-50.5 -217q0 -140 51 -216.5t143 -76.5zM247 1248l175 380h281l-195 -380h-261zM627 1248
l175 380h281l-195 -380h-261z" />
    <glyph glyph-name="OE" unicode="&#x152;" 
d="M503 -20q-212 0 -328 188.5t-116 531.5q0 352 116.5 546t327.5 194q56 0 141.5 -10t130.5 -10h342v-242h-297v-346h237v-242h-237v-348h297v-242h-342q-30 0 -120 -10t-152 -10zM513 226q27 0 47 6v949q-22 13 -57 13q-80 0 -123.5 -126.5t-43.5 -361.5
q0 -227 46.5 -353.5t130.5 -126.5z" />
    <glyph glyph-name="oe" unicode="&#x153;" 
d="M356 -20q-353 0 -353 550t353 550q195 0 268 -211q79 211 262 211q145 0 225 -133t80 -375q0 -83 -6 -149h-444q24 -91 87 -140t158 -49q64 0 137 13l26 -249q-95 -18 -187 -18q-236 0 -333 228q-71 -228 -273 -228zM377 228q106 0 106 302q0 151 -26 222t-80 71
q-60 0 -88.5 -71t-28.5 -222q0 -302 117 -302zM729 611h205q0 113 -22.5 163t-73.5 50t-77.5 -51t-31.5 -162z" />
    <glyph glyph-name="Racute" unicode="&#x154;" 
d="M123 0v1420h505q229 0 354 -112.5t125 -317.5q0 -146 -54.5 -250.5t-157.5 -160.5l264 -579h-315l-209 520h-7h-241v-520h-264zM387 763h241q92 0 143 54.5t51 152.5q0 99 -51 153t-143 54h-241v-414zM412 1580l222 275h364l-304 -275h-282z" />
    <glyph glyph-name="racute" unicode="&#x155;" 
d="M557 456v-224h248v-232h-742v232h224v596h-184v232h414l31 -239h38q16 259 271 259q151 0 231.5 -111.5t80.5 -319.5h-269q0 93 -34.5 134.5t-111.5 41.5q-98 0 -147.5 -95t-49.5 -274zM462 1248l186 380h287l-206 -380h-267z" />
    <glyph glyph-name="uni0156" unicode="&#x156;" 
d="M123 0v1420h505q229 0 354 -112.5t125 -317.5q0 -146 -54.5 -250.5t-157.5 -160.5l264 -579h-315l-209 520h-7h-241v-520h-264zM387 763h241q92 0 143 54.5t51 152.5q0 99 -51 153t-143 54h-241v-414zM392 -480l77 340h288l-117 -340h-248z" />
    <glyph glyph-name="uni0157" unicode="&#x157;" 
d="M557 456v-224h248v-232h-742v232h224v596h-184v232h414l31 -239h38q16 259 271 259q151 0 231.5 -111.5t80.5 -319.5h-269q0 93 -34.5 134.5t-111.5 41.5q-98 0 -147.5 -95t-49.5 -274zM212 -480l77 340h288l-117 -340h-248z" />
    <glyph glyph-name="Rcaron" unicode="&#x158;" 
d="M123 0v1420h505q229 0 354 -112.5t125 -317.5q0 -146 -54.5 -250.5t-157.5 -160.5l264 -579h-315l-209 520h-7h-241v-520h-264zM387 763h241q92 0 143 54.5t51 152.5q0 99 -51 153t-143 54h-241v-414zM424 1580l-243 260h297l82 -117l82 117h297l-243 -260h-272z" />
    <glyph glyph-name="rcaron" unicode="&#x159;" 
d="M557 456v-224h248v-232h-742v232h224v596h-184v232h414l31 -239h38q16 259 271 259q151 0 231.5 -111.5t80.5 -319.5h-269q0 93 -34.5 134.5t-111.5 41.5q-98 0 -147.5 -95t-49.5 -274zM456 1210l-240 380h295l89 -221l89 221h295l-240 -380h-288z" />
    <glyph glyph-name="Sacute" unicode="&#x15a;" 
d="M551 -20q-252 0 -439 78l36 270q226 -96 419 -96q107 0 164 38t57 109q0 44 -30.5 83t-86.5 65l-204 99q-152 74 -234.5 183.5t-82.5 240.5q0 186 123 288t348 102q131 0 248.5 -46t208.5 -133l-182 -209q-143 137 -274 137q-89 0 -137.5 -38t-48.5 -108q0 -95 133 -165
l192 -99q151 -79 232 -183t81 -222q0 -189 -136 -291.5t-387 -102.5zM472 1580l222 275h364l-304 -275h-282z" />
    <glyph glyph-name="sacute" unicode="&#x15b;" 
d="M518 -20q-238 0 -379 30l32 259q256 -32 347 -32q131 0 189.5 18.5t58.5 59.5q0 24 -15 38t-48 24l-335 100q-108 32 -160.5 95.5t-52.5 169.5q0 171 144 254.5t437 83.5q129 0 297 -20l-29 -251q-171 14 -274 14q-152 0 -220 -17.5t-68 -57.5q0 -25 14 -38.5t46 -22.5
l287 -82q138 -40 205 -110t67 -181q0 -169 -134.5 -251.5t-408.5 -82.5zM492 1248l186 380h287l-206 -380h-267z" />
    <glyph glyph-name="Scircumflex" unicode="&#x15c;" 
d="M551 -20q-252 0 -439 78l36 270q226 -96 419 -96q107 0 164 38t57 109q0 44 -30.5 83t-86.5 65l-204 99q-152 74 -234.5 183.5t-82.5 240.5q0 186 123 288t348 102q131 0 248.5 -46t208.5 -133l-182 -209q-143 137 -274 137q-89 0 -137.5 -38t-48.5 -108q0 -95 133 -165
l192 -99q151 -79 232 -183t81 -222q0 -189 -136 -291.5t-387 -102.5zM242 1580l243 260h272l243 -260h-297l-82 115l-82 -115h-297z" />
    <glyph glyph-name="scircumflex" unicode="&#x15d;" 
d="M518 -20q-238 0 -379 30l32 259q256 -32 347 -32q131 0 189.5 18.5t58.5 59.5q0 24 -15 38t-48 24l-335 100q-108 32 -160.5 95.5t-52.5 169.5q0 171 144 254.5t437 83.5q129 0 297 -20l-29 -251q-171 14 -274 14q-152 0 -220 -17.5t-68 -57.5q0 -25 14 -38.5t46 -22.5
l287 -82q138 -40 205 -110t67 -181q0 -169 -134.5 -251.5t-408.5 -82.5zM246 1248l240 380h288l240 -380h-295l-89 221l-89 -221h-295z" />
    <glyph glyph-name="Scedilla" unicode="&#x15e;" 
d="M416 -480v158q171 0 171 64q0 60 -145 60l60 179q-224 8 -390 77l36 270q226 -96 419 -96q107 0 164 38t57 109q0 44 -30.5 83t-86.5 65l-204 99q-152 74 -234.5 183.5t-82.5 240.5q0 186 123 288t348 102q131 0 248.5 -46t208.5 -133l-182 -209q-143 137 -274 137
q-89 0 -137.5 -38t-48.5 -108q0 -95 133 -165l192 -99q151 -79 232 -183t81 -222q0 -156 -93 -253.5t-269 -127.5l-24 -101q156 -36 156 -159q0 -213 -428 -213z" />
    <glyph glyph-name="scedilla" unicode="&#x15f;" 
d="M396 -480v158q171 0 171 64q0 60 -145 60l60 178q-220 3 -343 30l32 259q256 -32 347 -32q131 0 189.5 18.5t58.5 59.5q0 24 -15 38t-48 24l-335 100q-108 32 -160.5 95.5t-52.5 169.5q0 171 144 254.5t437 83.5q129 0 297 -20l-29 -251q-171 14 -274 14
q-152 0 -220 -17.5t-68 -57.5q0 -25 14 -38.5t46 -22.5l287 -82q138 -40 205 -110t67 -181q0 -278 -369 -324l-24 -98q156 -36 156 -159q0 -213 -428 -213z" />
    <glyph glyph-name="Scaron" unicode="&#x160;" 
d="M551 -20q-252 0 -439 78l36 270q226 -96 419 -96q107 0 164 38t57 109q0 44 -30.5 83t-86.5 65l-204 99q-152 74 -234.5 183.5t-82.5 240.5q0 186 123 288t348 102q131 0 248.5 -46t208.5 -133l-182 -209q-143 137 -274 137q-89 0 -137.5 -38t-48.5 -108q0 -95 133 -165
l192 -99q151 -79 232 -183t81 -222q0 -189 -136 -291.5t-387 -102.5zM484 1580l-243 260h297l82 -117l82 117h297l-243 -260h-272z" />
    <glyph glyph-name="scaron" unicode="&#x161;" 
d="M518 -20q-238 0 -379 30l32 259q256 -32 347 -32q131 0 189.5 18.5t58.5 59.5q0 24 -15 38t-48 24l-335 100q-108 32 -160.5 95.5t-52.5 169.5q0 171 144 254.5t437 83.5q129 0 297 -20l-29 -251q-171 14 -274 14q-152 0 -220 -17.5t-68 -57.5q0 -25 14 -38.5t46 -22.5
l287 -82q138 -40 205 -110t67 -181q0 -169 -134.5 -251.5t-408.5 -82.5zM486 1210l-240 380h295l89 -221l89 221h295l-240 -380h-288z" />
    <glyph glyph-name="uni0162" unicode="&#x162;" 
d="M468 0v1177h-405v243h1074v-243h-405v-1177h-126l92 -5l-25 -103q156 -36 156 -159q0 -213 -428 -213v158q171 0 171 64q0 60 -145 60l67 198h-26z" />
    <glyph glyph-name="uni0163" unicode="&#x163;" 
d="M825 -20q-41 0 -60 1l-22 -89q156 -36 156 -159q0 -213 -428 -213v158q171 0 171 64q0 60 -145 60l69 204l33 -2q-152 39 -222 145.5t-70 292.5v369h-254v249h254v320h270v-320h470v-249h-470v-343q0 -122 62.5 -176.5t205.5 -54.5q68 0 218 20l24 -253
q-132 -24 -262 -24z" />
    <glyph glyph-name="Tcaron" unicode="&#x164;" 
d="M468 0v1177h-405v243h1074v-243h-405v-1177h-264zM464 1580l-243 260h297l82 -117l82 117h297l-243 -260h-272z" />
    <glyph glyph-name="tcaron" unicode="&#x165;" 
d="M825 -20q-274 0 -396 109.5t-122 352.5v369h-254v249h254v320h270v-320h470v-249h-470v-343q0 -122 62.5 -176.5t205.5 -54.5q68 0 218 20l24 -253q-132 -24 -262 -24zM709 1228l42 380h278l-81 -380h-239z" />
    <glyph glyph-name="Tbar" unicode="&#x166;" 
d="M172 561v242h296v374h-405v243h1074v-243h-405v-374h296v-242h-296v-561h-264v561h-296z" />
    <glyph glyph-name="tbar" unicode="&#x167;" 
d="M70 421v249h237v141h-254v249h254v320h270v-320h470v-249h-470v-141h453v-249h-451q11 -96 74.5 -140t191.5 -44q68 0 218 20l24 -253q-132 -24 -262 -24q-268 0 -390.5 104.5t-127.5 336.5h-237z" />
    <glyph glyph-name="Utilde" unicode="&#x168;" 
d="M596 -20q-473 0 -473 476v964h264v-964q0 -112 52 -167.5t161 -55.5q213 0 213 223v964h264v-964q0 -237 -122 -356.5t-359 -119.5zM208 1566v50q0 143 54.5 209t172.5 66q75 0 155 -32q103 -43 132 -43q33 0 33 47v52h257v-50q0 -138 -49 -201.5t-156 -63.5
q-76 0 -176 47q-78 36 -108 36t-43.5 -13.5t-13.5 -43.5v-60h-258z" />
    <glyph glyph-name="utilde" unicode="&#x169;" 
d="M446 -20q-151 0 -234 99t-83 281v700h271v-633q0 -91 41 -140.5t115 -49.5q98 0 145 75t47 245v503h271v-818l146 -22v-220l-399 -10l-15 214h-31q-25 -107 -96.5 -165.5t-177.5 -58.5zM188 1256v40q0 292 235 292q43 0 75.5 -12t81.5 -41q7 -4 18 -10.5t16.5 -10
t14.5 -7.5t15 -6t14.5 -3.5t17.5 -1.5q54 0 54 60v61h247v-97q0 -121 -43.5 -180.5t-136.5 -59.5q-77 0 -171 50q-5 3 -20 11.5t-19 10.5t-15.5 7.5t-17.5 7t-15.5 3.5t-18.5 2q-38 0 -56 -16.5t-18 -57.5v-42h-258z" />
    <glyph glyph-name="Umacron" unicode="&#x16a;" 
d="M596 -20q-473 0 -473 476v964h264v-964q0 -112 52 -167.5t161 -55.5q213 0 213 223v964h264v-964q0 -237 -122 -356.5t-359 -119.5zM213 1563v238h774v-238h-774z" />
    <glyph glyph-name="umacron" unicode="&#x16b;" 
d="M446 -20q-151 0 -234 99t-83 281v700h271v-633q0 -91 41 -140.5t115 -49.5q98 0 145 75t47 245v503h271v-818l146 -22v-220l-399 -10l-15 214h-31q-25 -107 -96.5 -165.5t-177.5 -58.5zM150 1248v251h860v-251h-860z" />
    <glyph glyph-name="Ubreve" unicode="&#x16c;" 
d="M596 -20q-473 0 -473 476v964h264v-964q0 -112 52 -167.5t161 -55.5q213 0 213 223v964h264v-964q0 -237 -122 -356.5t-359 -119.5zM600 1553q-186 0 -288.5 80.5t-102.5 226.5h267q0 -69 31.5 -99t92.5 -30q62 0 93 30t31 99h267q0 -146 -102.5 -226.5t-288.5 -80.5z
" />
    <glyph glyph-name="ubreve" unicode="&#x16d;" 
d="M446 -20q-151 0 -234 99t-83 281v700h271v-633q0 -91 41 -140.5t115 -49.5q98 0 145 75t47 245v503h271v-818l146 -22v-220l-399 -10l-15 214h-31q-25 -107 -96.5 -165.5t-177.5 -58.5zM580 1238q-186 0 -288.5 84t-102.5 238v43h259v-43q0 -62 34 -95t98 -33t98 33
t34 95v43h259v-43q0 -154 -102.5 -238t-288.5 -84z" />
    <glyph glyph-name="Uring" unicode="&#x16e;" 
d="M596 -20q-473 0 -473 476v964h264v-964q0 -112 52 -167.5t161 -55.5q213 0 213 223v964h264v-964q0 -237 -122 -356.5t-359 -119.5zM600 1480q-137 0 -212.5 56t-75.5 158t75.5 158t212.5 56t212.5 -56t75.5 -158t-75.5 -158t-212.5 -56zM600 1629q79 0 79 65
q0 66 -79 66t-79 -66q0 -65 79 -65z" />
    <glyph glyph-name="uring" unicode="&#x16f;" 
d="M446 -20q-151 0 -234 99t-83 281v700h271v-633q0 -91 41 -140.5t115 -49.5q98 0 145 75t47 245v503h271v-818l146 -22v-220l-399 -10l-15 214h-31q-25 -107 -96.5 -165.5t-177.5 -58.5zM580 1190q-133 0 -206.5 58.5t-73.5 165.5t73.5 165.5t206.5 58.5t206.5 -58.5
t73.5 -165.5t-73.5 -165.5t-206.5 -58.5zM580 1339q71 0 71 75q0 36 -18.5 55.5t-52.5 19.5t-52.5 -19.5t-18.5 -55.5q0 -75 71 -75z" />
    <glyph glyph-name="Uhungarumlaut" unicode="&#x170;" 
d="M596 -20q-473 0 -473 476v964h264v-964q0 -112 52 -167.5t161 -55.5q213 0 213 223v964h264v-964q0 -237 -122 -356.5t-359 -119.5zM651 1580l135 250h348l-200 -250h-283zM224 1580l135 250h340l-191 -250h-284z" />
    <glyph glyph-name="uhungarumlaut" unicode="&#x171;" 
d="M446 -20q-151 0 -234 99t-83 281v700h271v-633q0 -91 41 -140.5t115 -49.5q98 0 145 75t47 245v503h271v-818l146 -22v-220l-399 -10l-15 214h-31q-25 -107 -96.5 -165.5t-177.5 -58.5zM227 1248l175 380h281l-195 -380h-261zM607 1248l175 380h281l-195 -380h-261z" />
    <glyph glyph-name="Uogonek" unicode="&#x172;" 
d="M660 -432q-123 0 -190 52.5t-67 147.5q0 70 34.5 118t96.5 66v30q-411 30 -411 474v964h264v-964q0 -112 52 -167.5t161 -55.5q213 0 213 223v964h264v-964q0 -371 -296 -453q-79 -34 -104 -53q-49 -39 -49 -101q0 -24 19 -43.5t64 -19.5q33 0 73 11l-18 -212
q-57 -17 -106 -17z" />
    <glyph glyph-name="uogonek" unicode="&#x173;" 
d="M1020 -424q-115 0 -177.5 51t-62.5 144q0 71 30 120t84 66v36l-128 -3l-15 214h-31q-25 -107 -96.5 -165.5t-177.5 -58.5q-151 0 -234 99t-83 281v700h271v-633q0 -91 41 -140.5t115 -49.5q98 0 145 75t47 245v503h271v-818l146 -22v-220l-37 -1q-71 -5 -109.5 -37.5
t-38.5 -87.5q0 -63 83 -63q38 0 90 11l-26 -237q-55 -9 -107 -9z" />
    <glyph glyph-name="Wcircumflex" unicode="&#x174;" 
d="M155 0l-152 1420h260l87 -1185h28l106 825h234l104 -825h28l87 1185h260l-152 -1420h-359l-80 787h-12l-80 -787h-359zM222 1580l243 260h272l243 -260h-297l-82 115l-82 -115h-297z" />
    <glyph glyph-name="wcircumflex" unicode="&#x175;" 
d="M703 0l-107 799h-12l-107 -799h-354l-70 1060h263l38 -808h18l121 808h194l121 -808h18l65 808h256l-100 -1060h-344zM206 1248l240 380h288l240 -380h-295l-89 221l-89 -221h-295z" />
    <glyph glyph-name="Ycircumflex" unicode="&#x176;" 
d="M468 0v455l-460 965h295l288 -660h18l288 660h295l-460 -965v-455h-264zM222 1580l243 260h272l243 -260h-297l-82 115l-82 -115h-297z" />
    <glyph glyph-name="ycircumflex" unicode="&#x177;" 
d="M58 -480l-10 235l183 20q111 12 183.5 64.5t122.5 160.5h-143l-356 1060h287l263 -830h25l232 830h287l-298 -966q-90 -283 -221.5 -407t-357.5 -147zM231 1248l240 380h288l240 -380h-295l-89 221l-89 -221h-295z" />
    <glyph glyph-name="Ydieresis" unicode="&#x178;" 
d="M468 0v455l-460 965h295l288 -660h18l288 660h295l-460 -965v-455h-264zM359 1586q-71 0 -121 50t-50 121t50 120.5t121 49.5t120.5 -49.5t49.5 -120.5t-49.5 -121t-120.5 -50zM841 1586q-71 0 -120.5 50t-49.5 121t49.5 120.5t120.5 49.5t121 -49.5t50 -120.5t-50 -121
t-121 -50z" />
    <glyph glyph-name="Zacute" unicode="&#x179;" 
d="M128 0v243l632 934h-632v243h934v-243l-638 -934h658v-243h-954zM452 1580l222 275h364l-304 -275h-282z" />
    <glyph glyph-name="zacute" unicode="&#x17a;" 
d="M160 0v233l551 594h-551v233h856v-233l-537 -594h557v-233h-876zM462 1248l186 380h287l-206 -380h-267z" />
    <glyph glyph-name="Zdotaccent" unicode="&#x17b;" 
d="M128 0v243l632 934h-632v243h934v-243l-638 -934h658v-243h-954zM600 1572q-71 0 -121 50t-50 120q0 72 50 121.5t121 49.5t121 -49.5t50 -121.5q0 -70 -50 -120t-121 -50z" />
    <glyph glyph-name="zdotaccent" unicode="&#x17c;" 
d="M160 0v233l551 594h-551v233h856v-233l-537 -594h557v-233h-876zM598 1198q-70 0 -120.5 50t-50.5 121q0 72 50 121t121 49t121 -49t50 -121q0 -71 -50.5 -121t-120.5 -50z" />
    <glyph glyph-name="Zcaron" unicode="&#x17d;" 
d="M128 0v243l632 934h-632v243h934v-243l-638 -934h658v-243h-954zM464 1580l-243 260h297l82 -117l82 117h297l-243 -260h-272z" />
    <glyph glyph-name="zcaron" unicode="&#x17e;" 
d="M160 0v233l551 594h-551v233h856v-233l-537 -594h557v-233h-876zM456 1210l-240 380h295l89 -221l89 221h295l-240 -380h-288z" />
    <glyph glyph-name="longs" unicode="&#x17f;" 
d="M433 0v607h-382v251h382v112q0 550 501 550q128 0 247 -20l-52 -251q-116 14 -201 14q-225 0 -225 -291v-972h-270z" />
    <glyph glyph-name="uni0186" unicode="&#x186;" 
d="M496 -20q-290 0 -476 171l153 209q91 -75 162.5 -101.5t188.5 -26.5q160 0 250.5 125.5t90.5 347.5q0 233 -108 358.5t-316 125.5q-148 0 -289 -60l-63 243q182 68 386 68q327 0 496.5 -186.5t169.5 -540.5q0 -348 -164 -540.5t-481 -192.5z" />
    <glyph glyph-name="uni018E" unicode="&#x18e;" 
d="M1057 0h-974v243h710v346h-530v244h530v344h-710v243h974v-1420z" />
    <glyph glyph-name="uni018F" unicode="&#x18f;" 
d="M600 -20q-541 0 -541 700q0 84 4 145h794q-42 364 -357 364q-173 0 -321 -39l-28 244q163 46 349 46q641 0 641 -740q0 -720 -541 -720zM859 581h-519q27 -349 260 -349q228 0 259 349z" />
    <glyph glyph-name="uni0190" unicode="&#x190;" 
d="M690 1440q301 0 452 -171l-165 -189q-91 109 -286 109q-128 0 -189.5 -36t-61.5 -95q0 -92 93 -136t305 -50l-22 -252h-150q-127 0 -202.5 -54t-75.5 -151q0 -85 75 -134t206 -49q127 0 207 11.5t195 46.5l46 -242q-100 -39 -194.5 -53.5t-248.5 -14.5q-259 0 -411 112.5
t-152 301.5q0 83 33 151t89 112t127.5 69t151.5 29v11q-345 55 -345 327q0 163 128 255t395 92z" />
    <glyph glyph-name="florin" unicode="&#x192;" 
d="M73 -477l-10 247l125 15q104 13 151.5 84.5t47.5 218.5v443h-299v240h299v119q0 550 529 550q123 0 236 -20l-22 -246q-126 14 -220 14q-258 0 -258 -317v-100h416v-240h-416v-437q0 -280 -113.5 -409t-370.5 -153z" />
    <glyph glyph-name="uni0194" unicode="&#x194;" 
d="M600 -462q-169 0 -262.5 69.5t-93.5 196.5q0 66 29 122.5t106 135.5l-351 1358h273l290 -1183h18l290 1183h273l-351 -1358q77 -79 106 -135.5t29 -122.5q0 -127 -93.5 -196.5t-262.5 -69.5zM504 -152q0 -43 25 -66.5t71 -23.5t71 23.5t25 66.5q0 33 -21 72t-75 104
q-54 -65 -75 -104t-21 -72z" />
    <glyph glyph-name="uni0196" unicode="&#x196;" 
d="M758 -20q-200 0 -288.5 109.5t-88.5 352.5v809h-300v249h570v-1048q0 -106 37 -148t150 -42q88 0 222 38l31 -278q-160 -42 -333 -42z" />
    <glyph glyph-name="uni019A" unicode="&#x19a;" 
d="M88 641v242h293v368h-300v249h570v-617h293v-242h-293v-189q0 -106 37 -148t150 -42q88 0 222 38l31 -278q-160 -42 -333 -42q-200 0 -288.5 109.5t-88.5 352.5v199h-293z" />
    <glyph glyph-name="uni019B" unicode="&#x19b;" 
d="M96 822l-52 225l393 120q-18 48 -50 66.5t-82 18.5q-31 0 -71 -8l-24 244q59 12 123 12q146 0 231 -56.5t127 -198.5l339 104l52 -225l-328 -100l194 -675q34 -121 148 -121q31 0 71 8l24 -244q-59 -12 -123 -12q-149 0 -236.5 60t-130.5 211l-137 476l-29 -9
q37 -162 -25 -320l-153 -398h-307l382 925z" />
    <glyph glyph-name="uni019D" unicode="&#x19d;" 
d="M-74 -480l-2 240l63 3q75 1 109.5 37.5t34.5 111.5v1508h397l250 -1110h37v1110h254v-1420h-397l-250 1110h-37v-1206q0 -194 -89 -286t-281 -95z" />
    <glyph glyph-name="Ohorn" unicode="&#x1a0;" 
d="M600 -20q-541 0 -541 720q0 740 541 740q126 0 222 -40l29 5q155 25 155 248h259q0 -323 -243 -422q119 -185 119 -531q0 -720 -541 -720zM600 232q264 0 264 468q0 489 -264 489t-264 -489q0 -468 264 -468z" />
    <glyph glyph-name="ohorn" unicode="&#x1a1;" 
d="M600 -20q-229 0 -355 144t-126 406t126 406t355 144q61 0 110 -10l58 10q197 33 197 263h270q0 -319 -268 -421q114 -145 114 -392q0 -262 -126 -406t-355 -144zM600 237q93 0 143.5 76.5t50.5 216.5q0 141 -50.5 217t-143.5 76t-143.5 -76t-50.5 -217q0 -140 51 -216.5
t143 -76.5z" />
    <glyph glyph-name="uni01A9" unicode="&#x1a9;" 
d="M133 0v241l400 472l-400 464v243h934v-243h-588l385 -464l-405 -472h628v-241h-954z" />
    <glyph glyph-name="Uhorn" unicode="&#x1af;" 
d="M596 -20q-473 0 -473 476v964h264v-964q0 -112 52 -167.5t161 -55.5q213 0 213 223v964h14l50 2q80 2 121 64t41 167h259q0 -315 -221 -408v-789q0 -237 -122 -356.5t-359 -119.5z" />
    <glyph glyph-name="uhorn" unicode="&#x1b0;" 
d="M446 -20q-151 0 -234 99t-83 281v700h271v-633q0 -91 41 -140.5t115 -49.5q98 0 145 75t47 245v503h18l40 2q78 4 115 79t37 202h270q0 -167 -50.5 -277t-158.5 -170v-654l146 -22v-220l-399 -10l-15 214h-31q-25 -107 -96.5 -165.5t-177.5 -58.5z" />
    <glyph glyph-name="uni01B1" unicode="&#x1b1;" 
d="M87 1420h476v-243q-102 -43 -164.5 -177t-62.5 -347q0 -201 69 -311.5t195 -110.5t195 110.5t69 311.5q0 216 -56.5 350.5t-146.5 173.5v243h452v-243h-206v-36q115 -74 174.5 -197.5t59.5 -340.5q0 -297 -141.5 -460t-399.5 -163t-399.5 163t-141.5 460q0 111 18 197.5
t53.5 150t80 109t106.5 84.5v33h-230v243z" />
    <glyph glyph-name="uni01B2" unicode="&#x1b2;" 
d="M573 1420h180q178 0 251 -72t73 -248v-644q0 -237 -122 -356.5t-359 -119.5q-473 0 -473 476v964h264v-964q0 -112 52 -167.5t161 -55.5q213 0 213 223v532q0 103 -36 145t-123 42h-81v245z" />
    <glyph glyph-name="uni01B7" unicode="&#x1b7;" 
d="M556 -20q-306 0 -499 171l186 208q85 -71 153.5 -99t164.5 -28q123 0 192 50.5t69 139.5q0 98 -91 151t-257 53h-135l-20 208l373 343h-546v243h887v-258l-338 -310q195 -33 299.5 -147.5t104.5 -295.5q0 -196 -146.5 -312.5t-396.5 -116.5z" />
    <glyph glyph-name="uni01CD" unicode="&#x1cd;" 
d="M28 0l410 1420h324l410 -1420h-285l-70 269h-434l-70 -269h-285zM464 1580l-243 260h297l82 -117l82 117h297l-243 -260h-272zM446 513h308l-145 560h-18z" />
    <glyph glyph-name="uni01CE" unicode="&#x1ce;" 
d="M795 -10l-17 234h-24q-14 -121 -96 -182.5t-222 -61.5q-170 0 -263.5 83t-93.5 236q0 177 123 272.5t349 95.5q121 0 217 -21v3q0 84 -71 124t-217 44l-271 7l20 246l231 -3q568 -7 568 -433v-392l147 -22v-220zM436 1210l-240 380h295l89 -221l89 221h295l-240 -380
h-288zM768 423q-77 16 -204 16q-210 0 -210 -120q0 -54 38 -82.5t111 -28.5q121 0 191.5 64t73.5 151z" />
    <glyph glyph-name="uni01DD" unicode="&#x1dd;" 
d="M594 -20q-227 0 -351 134t-124 387q0 73 6 136h673q-62 187 -316 187q-132 0 -285 -30l-26 255q156 31 335 31q276 0 425.5 -143t149.5 -409q0 -260 -128 -404t-359 -144zM811 449h-426q0 -106 54.5 -163.5t152.5 -57.5q91 0 148 57t71 164z" />
    <glyph glyph-name="uni01E4" unicode="&#x1e4;" 
d="M702 -20q-653 0 -653 732q0 346 169 537t476 191q155 0 271.5 -49t171.5 -137l-166 -191q-47 60 -116.5 93t-148.5 33q-180 0 -279.5 -122t-99.5 -345q0 -490 399 -490q51 0 99 8v147h-185v243h185v145h262v-145h133v-243h-133v-347q-187 -60 -385 -60z" />
    <glyph glyph-name="uni01E5" unicode="&#x1e5;" 
d="M44 -173v108h718q16 52 16 127v130h-22q-16 -105 -82.5 -158.5t-178.5 -53.5q-198 0 -307 142.5t-109 406.5q0 262 109.5 406.5t308.5 144.5q119 0 182.5 -52t82.5 -160h19l17 192h251v-966q0 -87 -12 -159h119v-108h-147q-52 -144 -179 -216t-338 -79l-310 -10l-10 236
l340 10q119 3 184 59h-652zM778 529q0 152 -51 224t-156 72q-99 0 -153 -77.5t-54 -218.5q0 -294 207 -294q114 0 160.5 68.5t46.5 225.5z" />
    <glyph glyph-name="Gcaron" unicode="&#x1e6;" 
d="M702 -20q-653 0 -653 732q0 346 169 537t476 191q153 0 266 -48t177 -138l-166 -191q-47 60 -116.5 93t-148.5 33q-180 0 -279.5 -122t-99.5 -345q0 -490 399 -490q54 0 119 9v251h-235v243h497v-695q-197 -60 -405 -60zM539 1580l-243 260h297l82 -117l82 117h297
l-243 -260h-272z" />
    <glyph glyph-name="gcaron" unicode="&#x1e7;" 
d="M182 -478l-10 236l340 10q138 4 202 76.5t64 217.5v130h-22q-16 -105 -82.5 -158.5t-178.5 -53.5q-198 0 -307 142.5t-109 406.5q0 262 109.5 406.5t308.5 144.5q119 0 182.5 -52t82.5 -160h19l17 192h251v-966q0 -284 -133 -418t-424 -144zM778 529q0 152 -51 224
t-156 72q-99 0 -153 -77.5t-54 -218.5q0 -294 207 -294q114 0 160.5 68.5t46.5 225.5zM436 1210l-240 380h295l89 -221l89 221h295l-240 -380h-288z" />
    <glyph glyph-name="uni01EA" unicode="&#x1ea;" 
d="M658 -432q-123 0 -190 52.5t-67 147.5q0 70 34.5 118t96.5 66v31q-473 44 -473 717q0 740 541 740t541 -740q0 -596 -369 -698q-77 -33 -102 -54q-44 -38 -44 -99q0 -24 19.5 -43.5t63.5 -19.5q33 0 74 11l-18 -212q-58 -17 -107 -17zM600 232q264 0 264 468
q0 489 -264 489t-264 -489q0 -468 264 -468z" />
    <glyph glyph-name="uni01EB" unicode="&#x1eb;" 
d="M665 -424q-115 0 -177.5 50t-62.5 142q0 72 30 121.5t84 66.5v27q-201 19 -310.5 161t-109.5 386q0 262 126 406t355 144t355 -144t126 -406q0 -206 -79 -340.5t-227 -183.5q-77 -27 -113.5 -56.5t-36.5 -75.5q0 -29 21 -46t62 -17q43 0 90 11l-26 -237q-57 -9 -107 -9z
M600 237q93 0 143.5 76.5t50.5 216.5q0 141 -50.5 217t-143.5 76t-143.5 -76t-50.5 -217q0 -140 51 -216.5t143 -76.5z" />
    <glyph glyph-name="uni01F0" unicode="&#x1f0;" 
d="M180 -480l-10 260l200 13q138 9 201 73t63 196v749h-370v249h641v-966q0 -281 -130.5 -411.5t-424.5 -150.5zM623 1210l-240 380h295l89 -221l89 221h295l-240 -380h-288z" />
    <glyph glyph-name="Aringacute" unicode="&#x1fa;" 
d="M28 0l410 1420h324l410 -1420h-285l-70 269h-434l-70 -269h-285zM600 1480q-137 0 -212.5 56t-75.5 158q0 117 99 173l184 228h364l-226 -204q155 -47 155 -197q0 -102 -75.5 -158t-212.5 -56zM446 513h308l-145 560h-18zM600 1629q79 0 79 65q0 66 -79 66t-79 -66
q0 -65 79 -65z" />
    <glyph glyph-name="aringacute" unicode="&#x1fb;" 
d="M795 -10l-17 234h-24q-14 -121 -96 -182.5t-222 -61.5q-170 0 -263.5 83t-93.5 236q0 177 123 272.5t349 95.5q121 0 217 -21v3q0 84 -71 124t-217 44l-271 7l20 246l231 -3q568 -7 568 -433v-392l147 -22v-220zM580 1190q-133 0 -206.5 58.5t-73.5 165.5
q0 78 40.5 131.5t116.5 76.5l140 286h287l-159 -294q135 -53 135 -200q0 -107 -73.5 -165.5t-206.5 -58.5zM768 423q-77 16 -204 16q-210 0 -210 -120q0 -54 38 -82.5t111 -28.5q121 0 191.5 64t73.5 151zM580 1339q71 0 71 75q0 36 -18.5 55.5t-52.5 19.5t-52.5 -19.5
t-18.5 -55.5q0 -75 71 -75z" />
    <glyph glyph-name="AEacute" unicode="&#x1fc;" 
d="M28 0l331 1420h758v-242h-304v-346h244v-242h-244v-348h304v-242h-542v164h-249l-33 -164h-265zM375 403h200v783h-42zM492 1580l222 275h364l-304 -275h-282z" />
    <glyph glyph-name="aeacute" unicode="&#x1fd;" 
d="M299 -20q-141 0 -218 80t-77 226q0 166 101.5 257t285.5 91q41 0 88 -5v4q0 81 -67 128t-187 51l-111 3l20 255l111 -3q137 -3 230 -65.5t135 -176.5q36 124 107 189.5t170 65.5q145 0 225 -133t80 -375q0 -83 -6 -149h-444q24 -91 87 -140t158 -49q65 0 137 13l26 -249
q-95 -18 -187 -18q-133 0 -223.5 72.5t-131.5 213.5h-18q-19 -141 -89.5 -213.5t-201.5 -72.5zM462 1248l186 380h287l-206 -380h-267zM479 380v60q-18 1 -59 1q-75 0 -117 -34t-42 -94q0 -50 23.5 -77.5t66.5 -27.5q61 0 94.5 45t33.5 127zM730 610h215q0 113 -25 163.5
t-81 50.5q-51 0 -77.5 -51.5t-31.5 -162.5z" />
    <glyph glyph-name="Oslashacute" unicode="&#x1fe;" 
d="M251 -134l-185 75l123 226q-130 179 -130 533q0 740 541 740q144 0 250 -53l79 145l185 -75l-109 -201q136 -187 136 -556q0 -720 -541 -720q-150 0 -257 55zM600 232q264 0 264 468q0 148 -24 252l-370 -682q55 -38 130 -38zM356 476l368 677q-53 36 -124 36
q-264 0 -264 -489q0 -127 20 -224zM452 1580l222 275h364l-304 -275h-282z" />
    <glyph glyph-name="oslashacute" unicode="&#x1ff;" 
d="M301 -134l-130 92l88 151q-140 143 -140 421q0 262 126 406t355 144q112 0 205 -37l91 155l140 -82l-96 -164q141 -143 141 -422q0 -262 -126 -406t-355 -144q-118 0 -209 39zM462 1248l186 380h287l-206 -380h-267zM600 237q93 0 143.5 76.5t50.5 216.5q0 84 -18 144
l-248 -422q32 -15 72 -15zM423 389l246 421q-30 13 -69 13q-93 0 -143.5 -76t-50.5 -217q0 -79 17 -141z" />
    <glyph glyph-name="uni0218" unicode="&#x218;" 
d="M551 -20q-252 0 -439 78l36 270q226 -96 419 -96q107 0 164 38t57 109q0 44 -30.5 83t-86.5 65l-204 99q-152 74 -234.5 183.5t-82.5 240.5q0 186 123 288t348 102q131 0 248.5 -46t208.5 -133l-182 -209q-143 137 -274 137q-89 0 -137.5 -38t-48.5 -108q0 -95 133 -165
l192 -99q151 -79 232 -183t81 -222q0 -189 -136 -291.5t-387 -102.5zM392 -480l77 340h288l-117 -340h-248z" />
    <glyph glyph-name="uni0219" unicode="&#x219;" 
d="M518 -20q-238 0 -379 30l32 259q256 -32 347 -32q131 0 189.5 18.5t58.5 59.5q0 24 -15 38t-48 24l-335 100q-108 32 -160.5 95.5t-52.5 169.5q0 171 144 254.5t437 83.5q129 0 297 -20l-29 -251q-171 14 -274 14q-152 0 -220 -17.5t-68 -57.5q0 -25 14 -38.5t46 -22.5
l287 -82q138 -40 205 -110t67 -181q0 -169 -134.5 -251.5t-408.5 -82.5zM372 -480l77 340h288l-117 -340h-248z" />
    <glyph glyph-name="uni021A" unicode="&#x21a;" 
d="M468 0v1177h-405v243h1074v-243h-405v-1177h-264zM377 -480l77 340h288l-117 -340h-248z" />
    <glyph glyph-name="uni021B" unicode="&#x21b;" 
d="M825 -20q-274 0 -396 109.5t-122 352.5v369h-254v249h254v320h270v-320h470v-249h-470v-343q0 -122 62.5 -176.5t205.5 -54.5q68 0 218 20l24 -253q-132 -24 -262 -24zM447 -480l77 340h288l-117 -340h-248z" />
    <glyph glyph-name="uni021E" unicode="&#x21e;" 
d="M813 0v585h-426v-585h-264v1420h264v-591h426v591h264v-1420h-264zM464 1580l-243 260h297l82 -117l82 117h297l-243 -260h-272z" />
    <glyph glyph-name="uni021F" unicode="&#x21f;" 
d="M778 0v640q0 89 -39.5 137t-112.5 48q-204 0 -204 -279v-546h-271v1500h271v-632h26q15 109 74 160.5t175 51.5q168 0 260 -102t92 -288v-690h-271zM152 1660l-243 260h297l82 -117l82 117h297l-243 -260h-272z" />
    <glyph glyph-name="uni0232" unicode="&#x232;" 
d="M468 0v455l-460 965h295l288 -660h18l288 660h295l-460 -965v-455h-264zM213 1563v238h774v-238h-774z" />
    <glyph glyph-name="uni0233" unicode="&#x233;" 
d="M58 -480l-10 235l183 20q111 12 183.5 64.5t122.5 160.5h-143l-356 1060h287l263 -830h25l232 830h287l-298 -966q-90 -283 -221.5 -407t-357.5 -147zM185 1248v251h860v-251h-860z" />
    <glyph glyph-name="uni0237" unicode="&#x237;" 
d="M180 -480l-10 260l200 13q138 9 201 73t63 196v749h-370v249h641v-966q0 -281 -130.5 -411.5t-424.5 -150.5z" />
    <glyph glyph-name="uni023A" unicode="&#x23a;" 
d="M548 -330l-203 24l101 575h-63l-70 -269h-285l410 1420h211l52 296l203 -24l-84 -474l352 -1218h-285l-70 269h-164zM529 513l91 516l-11 44h-18l-145 -560h83zM690 761l-44 -248h108z" />
    <glyph glyph-name="uni023B" unicode="&#x23b;" 
d="M595 -330l-203 24l58 332q-381 139 -381 686q0 340 164.5 530t465.5 198l49 276l203 -24l-48 -274q163 -42 236 -153l-148 -193q-51 63 -133 94l-163 -929q45 -5 87 -5q145 0 286 60l46 -244q-174 -68 -366 -68q-55 0 -98 4zM501 313l153 870q-144 -24 -225.5 -144
t-81.5 -317q0 -291 154 -409z" />
    <glyph glyph-name="uni023D" unicode="&#x23d;" 
d="M-20 641v242h163v537h264v-537h429v-242h-429v-398h710v-243h-974v641h-163z" />
    <glyph glyph-name="uni023E" unicode="&#x23e;" 
d="M405 -350l-173 64l236 699v764h-405v243h745l100 296l193 -44l-87 -252h123v-243h-206l-199 -577v-600h-207z" />
    <glyph glyph-name="uni0245" unicode="&#x245;" 
d="M28 0l410 1420h324l410 -1420h-287l-276 1073h-18l-276 -1073h-287z" />
    <glyph glyph-name="uni0251" unicode="&#x251;" 
d="M468 -20q-200 0 -309.5 140t-109.5 400q0 267 110.5 413.5t312.5 146.5q222 0 244 -212h32v192h271v-818l146 -22v-220l-399 -10l-11 202h-35q-10 -104 -76.5 -158t-175.5 -54zM748 497v66q0 262 -199 262q-103 0 -159 -79.5t-56 -225.5q0 -285 217 -285q107 0 152 63.5
t45 198.5z" />
    <glyph glyph-name="uni0254" unicode="&#x254;" 
d="M501 -20q-121 0 -222.5 34t-163.5 89l129 210q111 -76 265 -76q136 0 211.5 73.5t75.5 207.5q0 149 -83.5 227t-238.5 78q-127 0 -268 -35l-43 245q145 47 335 47q280 0 431.5 -143t151.5 -409q0 -261 -151 -404.5t-429 -143.5z" />
    <glyph glyph-name="uni0259" unicode="&#x259;" 
d="M594 -20q-227 0 -351 134t-124 387q0 73 6 136h673q-62 187 -316 187q-132 0 -285 -30l-26 255q156 31 335 31q276 0 425.5 -143t149.5 -409q0 -260 -128 -404t-359 -144zM811 449h-426q0 -106 54.5 -163.5t152.5 -57.5q91 0 148 57t71 164z" />
    <glyph glyph-name="uni025B" unicode="&#x25b;" 
d="M626 -20q-477 0 -477 283q0 214 356 256v35q-326 72 -326 276q0 250 463 250q296 0 425 -50l-65 -252q-145 46 -338 46q-198 0 -198 -77q0 -89 368 -99l-24 -242h-32q-342 0 -342 -91q0 -79 198 -79q32 0 63 1.5t54.5 3.5t52 6.5t44.5 7t44 9t38 9t38.5 10t33.5 8.5
l55 -263q-184 -48 -431 -48z" />
    <glyph glyph-name="uni0262" unicode="&#x262;" 
d="M682 -15q-307 0 -460 137.5t-153 418.5q0 263 169.5 408t475.5 145q274 0 413 -90l-116 -221q-106 54 -285 54q-176 0 -273 -75.5t-97 -212.5q0 -157 87 -232t263 -75q76 0 170 11v135h-216v221h467v-579q-225 -45 -445 -45z" />
    <glyph glyph-name="uni0263" unicode="&#x263;" 
d="M600 -462q-169 0 -262.5 69.5t-93.5 196.5q0 69 33 129.5t121 147.5l-335 979h276l252 -822h18l252 822h276l-335 -979q88 -87 121 -147.5t33 -129.5q0 -127 -93.5 -196.5t-262.5 -69.5zM504 -152q0 -43 25 -66.5t71 -23.5t71 23.5t25 66.5q0 33 -21 72t-75 104
q-54 -65 -75 -104t-21 -72z" />
    <glyph glyph-name="uni0269" unicode="&#x269;" 
d="M764 -20q-192 0 -277.5 99.5t-85.5 320.5v411h-288v249h558v-583q0 -133 34 -186.5t139 -53.5q84 0 213 38l24 -253q-153 -42 -317 -42z" />
    <glyph glyph-name="uni026A" unicode="&#x26a;" 
d="M168 0v249h297v562h-297v249h864v-249h-297v-562h297v-249h-864z" />
    <glyph glyph-name="uni026B" unicode="&#x26b;" 
d="M51 562v117q0 138 61 201t195 63q40 0 74 -7v315h-300v249h570v-679q16 -4 35 -4q33 0 47 16.5t14 52.5v84h232v-116q0 -139 -55 -201.5t-177 -62.5q-46 0 -96 13v-151q0 -106 37 -148t150 -42q88 0 222 38l31 -278q-160 -42 -333 -42q-200 0 -288.5 109.5t-88.5 352.5
v272q-16 2 -26 2q-37 0 -54 -16.5t-17 -52.5v-85h-233z" />
    <glyph glyph-name="uni026C" unicode="&#x26c;" 
d="M340 492q-165 0 -255 87t-90 249q0 146 61.5 226t173.5 80q115 0 133 -94h18v211h-300v249h570v-768h303v-240h-303v-40q0 -106 37 -148t150 -42q88 0 222 38l31 -278q-160 -42 -333 -42q-200 0 -288.5 109.5t-88.5 352.5v50h-41zM381 732v145q0 42 -51 42
q-40 0 -61.5 -26t-21.5 -75q0 -41 24.5 -63.5t68.5 -22.5h41z" />
    <glyph glyph-name="uni0272" unicode="&#x272;" 
d="M778 0v623q0 97 -39.5 149.5t-112.5 52.5q-204 0 -204 -296v-435q0 -142 -27.5 -240t-89 -163.5t-149.5 -102t-219 -56.5l-40 -6l-18 245l78 13q103 18 148.5 81t45.5 197v998h242l25 -192h30q15 109 74 160.5t175 51.5q168 0 260 -102t92 -288v-690h-271z" />
    <glyph glyph-name="uni0283" unicode="&#x283;" 
d="M111 -477l-10 247l125 15q105 13 152 84.5t47 218.5v882q0 550 529 550q123 0 237 -20l-22 -246q-127 14 -221 14q-257 0 -257 -317v-857q0 -280 -114 -409t-371 -153z" />
    <glyph glyph-name="uni028A" unicode="&#x28a;" 
d="M87 1059h476v-249q-217 -49 -217 -325q0 -115 67 -179t187 -64t187 64t67 179q0 280 -193 325v249h452v-249h-206v-36q234 -84 234 -361q0 -202 -143 -315t-398 -113t-398 113t-143 315q0 275 258 365v32h-230v249z" />
    <glyph glyph-name="uni028B" unicode="&#x28b;" 
d="M610 -20q-237 0 -359 119t-122 351v610h271v-602q0 -109 53.5 -165t156.5 -56q94 0 142 56t48 165v210q0 77 -25 108.5t-87 31.5h-101v252h200q157 0 220.5 -62.5t63.5 -217.5v-330q0 -232 -117 -351t-344 -119z" />
    <glyph glyph-name="uni028C" unicode="&#x28c;" 
d="M66 0l363 1060h350l355 -1060h-275l-246 823h-18l-254 -823h-275z" />
    <glyph glyph-name="uni0292" unicode="&#x292;" 
d="M541 -460q-298 0 -479 179l140 215q86 -74 164 -105.5t186 -31.5q113 0 176 59.5t63 162.5q0 102 -79.5 157t-225.5 55h-147l-20 192l381 379h-544v249h857v-276l-335 -324q193 -29 296.5 -146t103.5 -308q0 -205 -142.5 -331t-394.5 -126z" />
    <glyph glyph-name="uni0294" unicode="&#x294;" 
d="M429 0v373q0 165 51 275.5t164 218.5q102 96 102 230q0 166 -179 166q-88 0 -173.5 -45t-146.5 -122l-146 188q69 107 198 171.5t277 64.5q217 0 337 -104.5t120 -293.5q0 -130 -53 -232.5t-166 -224.5q-107 -116 -107 -324v-341h-278z" />
    <glyph glyph-name="uni0295" unicode="&#x295;" 
d="M493 0v341q0 208 -107 324q-113 122 -166 224.5t-53 232.5q0 189 120 293.5t337 104.5q148 0 277 -64.5t198 -171.5l-146 -188q-61 77 -146.5 122t-173.5 45q-179 0 -179 -166q0 -134 102 -230q113 -108 164 -218.5t51 -275.5v-373h-278z" />
    <glyph glyph-name="uni029F" unicode="&#x29f;" 
d="M142 0v1079h270v-829h707v-250h-977z" />
    <glyph glyph-name="uni02A7" unicode="&#x2a7;" 
d="M520 -20q-175 0 -253.5 71t-78.5 229v531h-178v249h178v320h270v-320h275q0 380 361 380q88 0 157 -15l-22 -251q-46 9 -101 9q-59 0 -92 -47.5t-33 -132.5v-989q0 -237 -125 -351.5t-402 -133.5l-88 -6l-10 271l118 12q125 13 181 60t56 141v804h-275v-479
q0 -37 19.5 -53.5t62.5 -16.5q30 0 93 10l24 -278q-72 -14 -137 -14z" />
    <glyph glyph-name="uni02B7" unicode="&#x2b7;" 
d="M659 790l-47 371h-38l-49 -371h-253l-113 631h225l64 -376h34l57 376h108l57 -376h34l64 376h215l-109 -631h-249z" />
    <glyph glyph-name="uni02B8" unicode="&#x2b8;" 
d="M249 504v212h172q112 0 156 74h-160l-181 631h260l100 -439h34l95 439h260l-152 -575q-22 -84 -51.5 -143t-76 -106t-115.5 -70t-163 -23h-178z" />
    <glyph glyph-name="uni02BB" unicode="&#x2bb;" 
d="M340 780l345 690h221l-200 -690h-366z" />
    <glyph glyph-name="uni02BC" unicode="&#x2bc;" 
d="M551 625l-182 172l120 125q65 68 65 136q0 52 -30 77t-93 25h-65v260h95q179 0 264 -83t85 -259q0 -99 -39 -183.5t-121 -168.5z" />
    <glyph glyph-name="uni02C0" unicode="&#x2c0;" 
d="M424 790v157q0 55 28 86.5t90 63.5q58 31 83 62t25 75q0 90 -110 90q-104 0 -210 -63l-142 196q121 111 374 111q181 0 281 -75t100 -209q0 -96 -46 -165t-158 -154q-28 -21 -36.5 -42.5t-8.5 -53.5v-79h-270z" />
    <glyph glyph-name="circumflex" unicode="&#x2c6;" 
d="M216 1248l240 380h288l240 -380h-295l-89 221l-89 -221h-295z" />
    <glyph glyph-name="caron" unicode="&#x2c7;" 
d="M456 1210l-240 380h295l89 -221l89 221h295l-240 -380h-288z" />
    <glyph glyph-name="uni02C9" unicode="&#x2c9;" 
d="M170 1248v251h860v-251h-860z" />
    <glyph glyph-name="uni02D0" unicode="&#x2d0;" 
d="M340 0l260 440l260 -440h-520zM600 620l-260 440h520z" />
    <glyph glyph-name="breve" unicode="&#x2d8;" 
d="M600 1238q-186 0 -288.5 84t-102.5 238v43h259v-43q0 -62 34 -95t98 -33t98 33t34 95v43h259v-43q0 -154 -102.5 -238t-288.5 -84z" />
    <glyph glyph-name="dotaccent" unicode="&#x2d9;" 
d="M600 1198q-70 0 -120.5 50t-50.5 121q0 72 50 121t121 49t121 -49t50 -121q0 -71 -50.5 -121t-120.5 -50z" />
    <glyph glyph-name="ring" unicode="&#x2da;" 
d="M600 1190q-133 0 -206.5 58.5t-73.5 165.5t73.5 165.5t206.5 58.5t206.5 -58.5t73.5 -165.5t-73.5 -165.5t-206.5 -58.5zM600 1339q71 0 71 75q0 36 -18.5 55.5t-52.5 19.5t-52.5 -19.5t-18.5 -55.5q0 -75 71 -75z" />
    <glyph glyph-name="ogonek" unicode="&#x2db;" 
d="M615 -424q-118 0 -183 54.5t-65 154.5q0 70 33 118t93 65v62l256 2v-32q-86 0 -134 -33t-48 -93q0 -38 23.5 -59t67.5 -21q35 0 82 11l-18 -220q-56 -9 -107 -9z" />
    <glyph glyph-name="tilde" unicode="&#x2dc;" 
d="M198 1256v40q0 292 235 292q43 0 75.5 -12t81.5 -41q7 -4 18 -10.5t16.5 -10t14.5 -7.5t15 -6t14.5 -3.5t17.5 -1.5q54 0 54 60v61h247v-97q0 -121 -43.5 -180.5t-136.5 -59.5q-77 0 -171 50q-5 3 -20 11.5t-19 10.5t-15.5 7.5t-17.5 7t-15.5 3.5t-18.5 2
q-38 0 -56 -16.5t-18 -57.5v-42h-258z" />
    <glyph glyph-name="hungarumlaut" unicode="&#x2dd;" 
d="M217 1248l175 380h281l-195 -380h-261zM597 1248l175 380h281l-195 -380h-261z" />
    <glyph glyph-name="gravecomb" unicode="&#x300;" horiz-adv-x="0" 
d="M532 1248l-207 380h287l187 -380h-267z" />
    <glyph glyph-name="acutecomb" unicode="&#x301;" horiz-adv-x="0" 
d="M401 1248l186 380h287l-206 -380h-267z" />
    <glyph glyph-name="uni0302" unicode="&#x302;" horiz-adv-x="0" 
d="M216 1248l240 380h288l240 -380h-295l-89 221l-89 -221h-295z" />
    <glyph glyph-name="tildecomb" unicode="&#x303;" horiz-adv-x="0" 
d="M198 1256v40q0 292 235 292q43 0 75.5 -12t81.5 -41q7 -4 18 -10.5t16.5 -10t14.5 -7.5t15 -6t14.5 -3.5t17.5 -1.5q54 0 54 60v61h247v-97q0 -121 -43.5 -180.5t-136.5 -59.5q-77 0 -171 50q-5 3 -20 11.5t-19 10.5t-15.5 7.5t-17.5 7t-15.5 3.5t-18.5 2
q-38 0 -56 -16.5t-18 -57.5v-42h-258z" />
    <glyph glyph-name="uni0304" unicode="&#x304;" horiz-adv-x="0" 
d="M170 1248v251h860v-251h-860z" />
    <glyph glyph-name="uni0306" unicode="&#x306;" horiz-adv-x="0" 
d="M600 1238q-186 0 -288.5 84t-102.5 238v43h259v-43q0 -62 34 -95t98 -33t98 33t34 95v43h259v-43q0 -154 -102.5 -238t-288.5 -84z" />
    <glyph glyph-name="uni0307" unicode="&#x307;" horiz-adv-x="0" 
d="M600 1198q-70 0 -120.5 50t-50.5 121q0 72 50 121t121 49t121 -49t50 -121q0 -71 -50.5 -121t-120.5 -50z" />
    <glyph glyph-name="uni0308" unicode="&#x308;" horiz-adv-x="0" 
d="M824 1231q-65 0 -111 46.5t-46 111.5q0 66 46 111.5t111 45.5q66 0 112 -45.5t46 -111.5q0 -65 -46.5 -111.5t-111.5 -46.5zM376 1231q-65 0 -111 46.5t-46 111.5q0 66 46 111.5t111 45.5t111 -45.5t46 -111.5q0 -65 -46 -111.5t-111 -46.5z" />
    <glyph glyph-name="hookabovecomb" unicode="&#x309;" horiz-adv-x="0" 
d="M477 1248v36q0 33 14 61t31 44.5t31 37.5t14 41q0 18 -14.5 29t-38.5 11q-57 0 -99 -35l-76 144q36 34 103.5 54.5t142.5 20.5q109 0 174.5 -48t65.5 -128q0 -46 -22.5 -82t-49 -56.5t-49 -52t-22.5 -68.5v-9h-205z" />
    <glyph glyph-name="uni030A" unicode="&#x30a;" horiz-adv-x="0" 
d="M600 1190q-133 0 -206.5 58.5t-73.5 165.5t73.5 165.5t206.5 58.5t206.5 -58.5t73.5 -165.5t-73.5 -165.5t-206.5 -58.5zM600 1339q71 0 71 75q0 36 -18.5 55.5t-52.5 19.5t-52.5 -19.5t-18.5 -55.5q0 -75 71 -75z" />
    <glyph glyph-name="uni030B" unicode="&#x30b;" horiz-adv-x="0" 
d="M217 1248l175 380h281l-195 -380h-261zM597 1248l175 380h281l-195 -380h-261z" />
    <glyph glyph-name="uni030C" unicode="&#x30c;" horiz-adv-x="0" 
d="M456 1210l-240 380h295l89 -221l89 221h295l-240 -380h-288z" />
    <glyph glyph-name="uni0312" unicode="&#x312;" horiz-adv-x="0" 
d="M459 1208l81 380h239l-42 -380h-278z" />
    <glyph glyph-name="uni0313" unicode="&#x313;" horiz-adv-x="0" 
d="M459 1208l42 380h278l-81 -380h-239z" />
    <glyph glyph-name="uni0315" unicode="&#x315;" horiz-adv-x="0" 
d="M459 1208l42 380h278l-81 -380h-239z" />
    <glyph glyph-name="uni031B" unicode="&#x31b;" horiz-adv-x="0" 
d="M381 875l-60 195l60 10q197 33 197 263h270q0 -198 -101.5 -311t-305.5 -147z" />
    <glyph glyph-name="dotbelowcomb" unicode="&#x323;" horiz-adv-x="0" 
d="M600 -448q-71 0 -121 50t-50 120q0 72 50 121.5t121 49.5t121 -49.5t50 -121.5q0 -70 -50 -120t-121 -50z" />
    <glyph glyph-name="uni0325" unicode="&#x325;" horiz-adv-x="0" 
d="M600 -500q-133 0 -206.5 58.5t-73.5 165.5t73.5 165.5t206.5 58.5t206.5 -58.5t73.5 -165.5t-73.5 -165.5t-206.5 -58.5zM600 -351q71 0 71 75q0 36 -18.5 55.5t-52.5 19.5t-52.5 -19.5t-18.5 -55.5q0 -75 71 -75z" />
    <glyph glyph-name="uni0326" unicode="&#x326;" horiz-adv-x="0" 
d="M382 -480l77 340h288l-117 -340h-248z" />
    <glyph glyph-name="uni0327" unicode="&#x327;" horiz-adv-x="0" 
d="M381 -480v158q171 0 171 64q0 60 -145 60l69 204l202 -11l-25 -103q156 -36 156 -159q0 -213 -428 -213z" />
    <glyph glyph-name="uni0328" unicode="&#x328;" horiz-adv-x="0" 
d="M615 -424q-118 0 -183 54.5t-65 154.5q0 70 33 118t93 65v62l256 2v-32q-86 0 -134 -33t-48 -93q0 -38 23.5 -59t67.5 -21q35 0 82 11l-18 -220q-56 -9 -107 -9z" />
    <glyph glyph-name="uni0331" unicode="&#x331;" horiz-adv-x="0" 
d="M170 -459v251h860v-251h-860z" />
    <glyph glyph-name="uni0332" unicode="&#x332;" horiz-adv-x="0" 
d="M-40 -459v251h1280v-251h-1280z" />
    <glyph glyph-name="uni0340" unicode="&#x340;" horiz-adv-x="0" 
d="M532 1248l-207 380h287l187 -380h-267z" />
    <glyph glyph-name="uni0341" unicode="&#x341;" horiz-adv-x="0" 
d="M401 1248l186 380h287l-206 -380h-267z" />
    <glyph glyph-name="uni0342" unicode="&#x342;" horiz-adv-x="0" 
d="M198 1256v40q0 292 235 292q43 0 75.5 -12t81.5 -41q7 -4 18 -10.5t16.5 -10t14.5 -7.5t15 -6t14.5 -3.5t17.5 -1.5q54 0 54 60v61h247v-97q0 -121 -43.5 -180.5t-136.5 -59.5q-77 0 -171 50q-5 3 -20 11.5t-19 10.5t-15.5 7.5t-17.5 7t-15.5 3.5t-18.5 2
q-38 0 -56 -16.5t-18 -57.5v-42h-258z" />
    <glyph glyph-name="uni0374" unicode="&#x374;" 
d="M551 625l-182 172l120 125q65 68 65 136q0 52 -30 77t-93 25h-65v260h95q179 0 264 -83t85 -259q0 -99 -39 -183.5t-121 -168.5z" />
    <glyph glyph-name="uni0375" unicode="&#x375;" 
d="M379 -436l80 690h298l-120 -690h-258z" />
    <glyph glyph-name="uni037E" unicode="&#x37e;" 
d="M379 -436l80 690h298l-120 -690h-258zM600 684q-82 0 -140 58t-58 140t58 140t140 58t140 -58t58 -140t-58 -140t-140 -58z" />
    <glyph glyph-name="tonos" unicode="&#x384;" 
d="M401 1248l186 380h287l-206 -380h-267z" />
    <glyph glyph-name="dieresistonos" unicode="&#x385;" 
d="M426 1248l114 380h287l-134 -380h-267zM970 1231q-65 0 -111 46.5t-46 111.5q0 66 46 111.5t111 45.5t111 -45.5t46 -111.5q0 -65 -46 -111.5t-111 -46.5zM250 1231q-65 0 -111 46.5t-46 111.5q0 66 46 111.5t111 45.5t111 -45.5t46 -111.5q0 -65 -46 -111.5t-111 -46.5z
" />
    <glyph glyph-name="Alphatonos" unicode="&#x386;" 
d="M228 0l310 1420h324l310 -1420h-285l-45 269h-284l-45 -269h-285zM-1 1040l48 380h271l-77 -380h-242zM598 513h204l-93 560h-18z" />
    <glyph glyph-name="anoteleia" unicode="&#x387;" 
d="M600 715q-76 0 -129 53.5t-53 128.5q0 76 53 129t129 53t129 -53t53 -129q0 -75 -53 -128.5t-129 -53.5z" />
    <glyph glyph-name="Epsilontonos" unicode="&#x388;" 
d="M343 0v1420h774v-243h-510v-344h330v-244h-330v-346h510v-243h-774zM-18 1040l49 380h270l-77 -380h-242z" />
    <glyph glyph-name="Etatonos" unicode="&#x389;" 
d="M813 0v585h-226v-585h-264v1420h264v-591h226v591h264v-1420h-264zM-18 1040l49 380h270l-77 -380h-242z" />
    <glyph glyph-name="Iotatonos" unicode="&#x38a;" 
d="M351 0v238h217v945h-217v237h698v-237h-217v-945h217v-238h-698zM-18 1040l49 380h270l-77 -380h-242z" />
    <glyph glyph-name="Omicrontonos" unicode="&#x38c;" 
d="M700 -20q-441 0 -441 720q0 740 441 740t441 -740q0 -720 -441 -720zM700 232q164 0 164 468q0 489 -164 489t-164 -489q0 -468 164 -468zM-18 1040l49 380h270l-77 -380h-242z" />
    <glyph glyph-name="Upsilontonos" unicode="&#x38e;" 
d="M621 0v470l-302 950h295l130 -577h18l135 577h295l-307 -951v-469h-264zM-18 1040l49 380h270l-77 -380h-242z" />
    <glyph glyph-name="Omegatonos" unicode="&#x38f;" 
d="M287 0v243h186v25q-214 56 -214 534q0 638 441 638t441 -638q0 -486 -190 -531v-28h162v-243h-359v243q110 71 110 517q0 429 -164 429t-164 -429q0 -438 134 -517v-243h-383zM-18 1040l49 380h270l-77 -380h-242z" />
    <glyph glyph-name="iotadieresistonos" unicode="&#x390;" 
d="M764 -20q-192 0 -277.5 99.5t-85.5 320.5v411h-288v249h558v-583q0 -133 34 -186.5t139 -53.5q84 0 213 38l24 -253q-153 -42 -317 -42zM384 1248l114 380h287l-134 -380h-267zM928 1231q-65 0 -111 46.5t-46 111.5q0 66 46 111.5t111 45.5t111 -45.5t46 -111.5
q0 -65 -46 -111.5t-111 -46.5zM208 1231q-65 0 -111 46.5t-46 111.5q0 66 46 111.5t111 45.5t111 -45.5t46 -111.5q0 -65 -46 -111.5t-111 -46.5z" />
    <glyph glyph-name="Alpha" unicode="&#x391;" 
d="M28 0l410 1420h324l410 -1420h-285l-70 269h-434l-70 -269h-285zM446 513h308l-145 560h-18z" />
    <glyph glyph-name="Beta" unicode="&#x392;" 
d="M143 0v1420h439q224 0 346.5 -91.5t122.5 -260.5q0 -138 -86.5 -216t-245.5 -85v-33h46q184 0 285 -90t101 -254q0 -186 -116.5 -288t-330.5 -102h-561zM407 243h239q108 0 168 51t60 143q0 91 -63.5 141t-178.5 50h-225v-385zM407 872h179q188 0 188 160q0 145 -202 145
h-165v-305z" />
    <glyph glyph-name="Gamma" unicode="&#x393;" 
d="M163 0v1420h927v-243h-663v-1177h-264z" />
    <glyph glyph-name="uni0394" unicode="&#x394;" 
d="M28 0l410 1420h324l410 -1420h-1144zM376 243h448l-215 830h-18z" />
    <glyph glyph-name="Epsilon" unicode="&#x395;" 
d="M143 0v1420h974v-243h-710v-344h530v-244h-530v-346h710v-243h-974z" />
    <glyph glyph-name="Zeta" unicode="&#x396;" 
d="M128 0v243l632 934h-632v243h934v-243l-638 -934h658v-243h-954z" />
    <glyph glyph-name="Eta" unicode="&#x397;" 
d="M813 0v585h-426v-585h-264v1420h264v-591h426v591h264v-1420h-264z" />
    <glyph glyph-name="Theta" unicode="&#x398;" 
d="M600 -20q-541 0 -541 720q0 740 541 740t541 -740q0 -720 -541 -720zM600 232q240 0 262 384h-524q22 -384 262 -384zM339 804h522q-27 385 -261 385t-261 -385z" />
    <glyph glyph-name="Iota" unicode="&#x399;" 
d="M151 0v238h316v945h-316v237h898v-237h-318v-945h318v-238h-898z" />
    <glyph glyph-name="Kappa" unicode="&#x39a;" 
d="M133 0v1420h264v-694q111 21 198.5 86.5t140.5 161t80 209t27 237.5h268q0 -215 -71 -407.5t-203 -327.5l342 -685h-326l-238 525q-103 -47 -218 -65v-460h-264z" />
    <glyph glyph-name="Lambda" unicode="&#x39b;" 
d="M28 0l410 1420h324l410 -1420h-287l-276 1073h-18l-276 -1073h-287z" />
    <glyph glyph-name="Mu" unicode="&#x39c;" 
d="M111 0v1420h377l104 -635h16l104 635h377v-1420h-246v1168h-31l-120 -671h-184l-120 671h-31v-1168h-246z" />
    <glyph glyph-name="Nu" unicode="&#x39d;" 
d="M672 0l-250 1110h-37v-1110h-254v1420h397l250 -1110h37v1110h254v-1420h-397z" />
    <glyph glyph-name="Xi" unicode="&#x39e;" 
d="M83 0v260h1034v-260h-1034zM83 1160v260h1034v-260h-1034zM173 581v260h854v-260h-854z" />
    <glyph glyph-name="Omicron" unicode="&#x39f;" 
d="M600 -20q-541 0 -541 720q0 740 541 740t541 -740q0 -720 -541 -720zM600 232q264 0 264 468q0 489 -264 489t-264 -489q0 -468 264 -468z" />
    <glyph glyph-name="Pi" unicode="&#x3a0;" 
d="M813 0v1177h-426v-1177h-264v1420h954v-1420h-264z" />
    <glyph glyph-name="Rho" unicode="&#x3a1;" 
d="M143 0v1420h435q267 0 413 -125.5t146 -354.5q0 -254 -146 -393.5t-413 -139.5h-171v-407h-264zM407 650h171q130 0 202 72t72 201q0 121 -71.5 187.5t-202.5 66.5h-171v-527z" />
    <glyph glyph-name="Sigma" unicode="&#x3a3;" 
d="M133 0v241l400 472l-400 464v243h934v-243h-588l385 -464l-405 -472h628v-241h-954z" />
    <glyph glyph-name="Tau" unicode="&#x3a4;" 
d="M468 0v1177h-405v243h1074v-243h-405v-1177h-264z" />
    <glyph glyph-name="Upsilon" unicode="&#x3a5;" 
d="M468 0v455l-460 965h295l288 -660h18l288 660h295l-460 -965v-455h-264z" />
    <glyph glyph-name="Phi" unicode="&#x3a6;" 
d="M474 -20v127q-416 66 -416 595q0 561 416 630v128h250v-128q418 -68 418 -630q0 -530 -418 -595v-127h-250zM691 1080v-721q176 54 176 343q0 318 -176 378zM507 360v719q-174 -60 -174 -377q0 -287 174 -342z" />
    <glyph glyph-name="Chi" unicode="&#x3a7;" 
d="M839 0l-239 469l-238 -469h-330l440 703l-440 717h330l238 -477l239 477h330l-441 -717l441 -703h-330z" />
    <glyph glyph-name="Psi" unicode="&#x3a8;" 
d="M484 544v876h230v-876q163 51 163 273v603h264v-603q0 -471 -410 -531v-286h-264v286q-408 62 -408 531v603h264v-603q0 -220 161 -273z" />
    <glyph glyph-name="uni03A9" unicode="&#x3a9;" 
d="M87 0v243h230v33q-83 38 -137.5 95t-87.5 159t-33 247q0 663 541 663t541 -663q0 -147 -30.5 -249.5t-80 -158t-123.5 -90.5v-36h206v-243h-452v243q90 36 146.5 160t56.5 324q0 462 -264 462t-264 -462q0 -196 62.5 -320t164.5 -164v-243h-476z" />
    <glyph glyph-name="Iotadieresis" unicode="&#x3aa;" 
d="M151 0v238h316v945h-316v237h898v-237h-318v-945h318v-238h-898zM359 1586q-71 0 -121 50t-50 121t50 120.5t121 49.5t120.5 -49.5t49.5 -120.5t-49.5 -121t-120.5 -50zM841 1586q-71 0 -120.5 50t-49.5 121t49.5 120.5t120.5 49.5t121 -49.5t50 -120.5t-50 -121
t-121 -50z" />
    <glyph glyph-name="Upsilondieresis" unicode="&#x3ab;" 
d="M468 0v455l-460 965h295l288 -660h18l288 660h295l-460 -965v-455h-264zM359 1586q-71 0 -121 50t-50 121t50 120.5t121 49.5t120.5 -49.5t49.5 -120.5t-49.5 -121t-120.5 -50zM841 1586q-71 0 -120.5 50t-49.5 121t49.5 120.5t120.5 49.5t121 -49.5t50 -120.5t-50 -121
t-121 -50z" />
    <glyph glyph-name="alphatonos" unicode="&#x3ac;" 
d="M468 -20q-200 0 -309.5 140t-109.5 400q0 267 110.5 413.5t312.5 146.5q222 0 244 -212h32v192h271v-818l146 -22v-220l-399 -10l-11 202h-35q-10 -104 -76.5 -158t-175.5 -54zM748 497v66q0 262 -199 262q-103 0 -159 -79.5t-56 -225.5q0 -285 217 -285q107 0 152 63.5
t45 198.5zM432 1248l186 380h287l-206 -380h-267z" />
    <glyph glyph-name="epsilontonos" unicode="&#x3ad;" 
d="M626 -20q-477 0 -477 283q0 214 356 256v35q-326 72 -326 276q0 250 463 250q296 0 425 -50l-65 -252q-145 46 -338 46q-198 0 -198 -77q0 -89 368 -99l-24 -242h-32q-342 0 -342 -91q0 -79 198 -79q32 0 63 1.5t54.5 3.5t52 6.5t44.5 7t44 9t38 9t38.5 10t33.5 8.5
l55 -263q-184 -48 -431 -48zM502 1248l186 380h287l-206 -380h-267z" />
    <glyph glyph-name="etatonos" unicode="&#x3ae;" 
d="M778 -460v1083q0 97 -39.5 149.5t-112.5 52.5q-204 0 -204 -296v-529h-271v1060h242l25 -192h30q15 109 74 160.5t175 51.5q168 0 260 -102t92 -288v-1150h-271zM452 1248l186 380h287l-206 -380h-267z" />
    <glyph glyph-name="iotatonos" unicode="&#x3af;" 
d="M764 -20q-192 0 -277.5 99.5t-85.5 320.5v411h-288v249h558v-583q0 -133 34 -186.5t139 -53.5q84 0 213 38l24 -253q-153 -42 -317 -42zM398 1248l186 380h287l-206 -380h-267z" />
    <glyph glyph-name="upsilondieresistonos" unicode="&#x3b0;" 
d="M640 -20q-422 0 -422 430v258q0 77 -25 108.5t-87 31.5h-101v252h200q157 0 220.5 -62.5t63.5 -217.5v-362q0 -181 151 -181q150 0 150 181v642h271v-650q0 -430 -421 -430zM448 1248l114 380h287l-134 -380h-267zM992 1231q-65 0 -111 46.5t-46 111.5q0 66 46 111.5
t111 45.5t111 -45.5t46 -111.5q0 -65 -46 -111.5t-111 -46.5zM272 1231q-65 0 -111 46.5t-46 111.5q0 66 46 111.5t111 45.5t111 -45.5t46 -111.5q0 -65 -46 -111.5t-111 -46.5z" />
    <glyph glyph-name="alpha" unicode="&#x3b1;" 
d="M468 -20q-200 0 -309.5 140t-109.5 400q0 267 110.5 413.5t312.5 146.5q222 0 244 -212h32v192h271v-818l146 -22v-220l-399 -10l-11 202h-35q-10 -104 -76.5 -158t-175.5 -54zM748 497v66q0 262 -199 262q-103 0 -159 -79.5t-56 -225.5q0 -285 217 -285q107 0 152 63.5
t45 198.5z" />
    <glyph glyph-name="beta" unicode="&#x3b2;" 
d="M704 -20q-111 0 -176.5 51t-77.5 145h-36v-636h-271v1403q0 497 469 497q209 0 324 -94.5t115 -265.5q0 -135 -86.5 -212.5t-243.5 -84.5v-25q176 -3 273 -96.5t97 -261.5q0 -200 -101 -310t-286 -110zM414 520q0 -283 202 -283q89 0 138.5 56.5t49.5 159.5q0 91 -50 141
t-142 50h-104v252h98q75 0 116.5 39t41.5 110q0 65 -40 101.5t-112 36.5q-198 0 -198 -260v-403z" />
    <glyph glyph-name="gamma" unicode="&#x3b3;" 
d="M259 -460q10 187 10 470q0 282 -22.5 442t-76.5 260t-161 180l164 208q130 -90 203 -191t111 -252.5t48 -389.5q341 126 341 793h271q0 -946 -607 -1063q0 -274 -10 -457h-271z" />
    <glyph glyph-name="delta" unicode="&#x3b4;" 
d="M603 -20q-223 0 -358.5 122t-135.5 324q0 167 88.5 264t251.5 106v33q-140 23 -203 96t-63 176q0 162 118 250.5t333 88.5q230 0 417 -107l-102 -230q-134 80 -315 80q-87 0 -126 -22.5t-39 -72.5q0 -47 33.5 -76.5t113.5 -51.5q100 -27 169.5 -54t133 -67.5t101 -91.5
t59.5 -123.5t22 -167.5q0 -215 -136.5 -345.5t-361.5 -130.5zM613 236q90 0 146 63t56 160q0 105 -57.5 164.5t-153.5 59.5q-94 0 -151.5 -62t-57.5 -165q0 -100 60 -160t158 -60z" />
    <glyph glyph-name="epsilon" unicode="&#x3b5;" 
d="M626 -20q-477 0 -477 283q0 214 356 256v35q-326 72 -326 276q0 250 463 250q296 0 425 -50l-65 -252q-145 46 -338 46q-198 0 -198 -77q0 -89 368 -99l-24 -242h-32q-342 0 -342 -91q0 -79 198 -79q32 0 63 1.5t54.5 3.5t52 6.5t44.5 7t44 9t38 9t38.5 10t33.5 8.5
l55 -263q-184 -48 -431 -48z" />
    <glyph glyph-name="zeta" unicode="&#x3b6;" 
d="M709 -480l-129 238q234 48 234 141q0 38 -28 59.5t-79 21.5q-262 0 -405 131t-143 374q0 427 551 720v44h-495v251h878v-251q-341 -218 -495 -396.5t-154 -357.5q0 -125 89 -191.5t253 -66.5q149 0 231 -84t82 -237q0 -305 -390 -396z" />
    <glyph glyph-name="eta" unicode="&#x3b7;" 
d="M778 -460v1083q0 97 -39.5 149.5t-112.5 52.5q-204 0 -204 -296v-529h-271v1060h242l25 -192h30q15 109 74 160.5t175 51.5q168 0 260 -102t92 -288v-1150h-271z" />
    <glyph glyph-name="theta" unicode="&#x3b8;" 
d="M600 -20q-253 0 -367 173t-114 557t114 557t367 173t367 -173t114 -557t-114 -557t-367 -173zM600 236q94 0 143 84t60 267h-406q11 -183 60 -267t143 -84zM398 839h404q-11 180 -60 262.5t-142 82.5t-142 -82.5t-60 -262.5z" />
    <glyph glyph-name="iota" unicode="&#x3b9;" 
d="M764 -20q-192 0 -277.5 99.5t-85.5 320.5v411h-288v249h558v-583q0 -133 34 -186.5t139 -53.5q84 0 213 38l24 -253q-153 -42 -317 -42z" />
    <glyph glyph-name="kappa" unicode="&#x3ba;" 
d="M141 0v1060h271v-756h38q6 198 154 375l331 401l199 -169l-318 -391l351 -520h-329l-199 304l-247 -304h-251z" />
    <glyph glyph-name="lambda" unicode="&#x3bb;" 
d="M1068 -20q-149 0 -236.5 60t-130.5 211l-137 476l-29 -9q37 -162 -25 -320l-153 -398h-307l426 1032l-33 116q-16 58 -49.5 81t-88.5 23q-31 0 -71 -8l-24 244q59 12 123 12q147 0 232.5 -57.5t126.5 -202.5l256 -891q34 -121 148 -121q31 0 71 8l24 -244
q-59 -12 -123 -12z" />
    <glyph glyph-name="uni03BC" unicode="&#x3bc;" 
d="M561 -20q-148 0 -155 224h-27l36 -664h-281v1520h271v-580q0 -115 41 -177.5t115 -62.5q97 0 144.5 70.5t47.5 229.5v520h271v-818l146 -22v-220l-399 -10l-15 214h-27q-7 -224 -168 -224z" />
    <glyph glyph-name="nu" unicode="&#x3bd;" 
d="M411 0l-113 390q-61 212 -136.5 326t-172.5 147l139 217q140 -51 224.5 -153.5t138.5 -316.5l95 -372h26l249 822h276l-359 -1060h-367z" />
    <glyph glyph-name="xi" unicode="&#x3be;" 
d="M614 -20q-475 0 -475 332q0 164 99.5 258.5t323.5 126.5v35q-210 12 -301.5 72.5t-91.5 175.5q0 99 67.5 155t205.5 76v38h-317v251h938v-251h-237q-372 -13 -372 -204q0 -219 557 -219l-14 -252h-232q-341 0 -341 -192q0 -150 257 -150h95q149 0 231 -83t82 -233
q0 -305 -349 -396l-100 238q164 53 164 149q0 35 -19.5 54t-54.5 19h-116z" />
    <glyph glyph-name="omicron" unicode="&#x3bf;" 
d="M600 -20q-229 0 -355 144t-126 406t126 406t355 144t355 -144t126 -406t-126 -406t-355 -144zM600 237q93 0 143.5 76.5t50.5 216.5q0 141 -50.5 217t-143.5 76t-143.5 -76t-50.5 -217q0 -140 51 -216.5t143 -76.5z" />
    <glyph glyph-name="pi" unicode="&#x3c0;" 
d="M978 -20q-160 0 -231.5 78.5t-71.5 251.5v498h-200v-808h-270v808h-152v252h1074v-252h-182v-421q0 -83 18.5 -116.5t74.5 -33.5q26 0 79 8l24 -253q-75 -12 -163 -12z" />
    <glyph glyph-name="rho" unicode="&#x3c1;" 
d="M720 -20q-119 0 -190.5 54.5t-84.5 159.5h-23v-654h-271v1040q0 239 126.5 369.5t358.5 130.5q485 0 485 -560q0 -260 -104.5 -400t-296.5 -140zM422 481q0 -132 45.5 -189t155.5 -57q213 0 213 285q0 305 -208 305q-99 0 -152.5 -66.5t-53.5 -187.5v-90z" />
    <glyph glyph-name="uni03C2" unicode="&#x3c2;" 
d="M680 -480l-95 238q79 23 122 59.5t43 81.5q0 38 -20 59t-56 22h-72q-232 0 -357.5 143t-125.5 409q0 261 144.5 404.5t410.5 143.5q160 0 275 -57.5t165 -162.5l-188 -181q-41 69 -109.5 106.5t-150.5 37.5q-123 0 -191.5 -73.5t-68.5 -207.5q0 -149 64.5 -227t185.5 -78
h90q138 -2 213.5 -84t75.5 -229q0 -148 -93 -254t-262 -150z" />
    <glyph glyph-name="sigma" unicode="&#x3c3;" 
d="M565 -20q-227 0 -351.5 141t-124.5 399q0 257 124.5 398.5t351.5 141.5h605v-257h-381v-40q104 -18 173 -117.5t69 -233.5q0 -195 -127.5 -313.5t-338.5 -118.5zM565 237q86 0 132.5 73.5t46.5 209.5t-46.5 209.5t-132.5 73.5q-91 0 -140 -73.5t-49 -209.5t49 -209.5
t140 -73.5z" />
    <glyph glyph-name="tau" unicode="&#x3c4;" 
d="M744 -20q-192 0 -277.5 99.5t-85.5 320.5v408h-288v252h974v-252h-416v-331q0 -133 34 -186.5t139 -53.5q95 0 213 38l24 -253q-144 -42 -317 -42z" />
    <glyph glyph-name="upsilon" unicode="&#x3c5;" 
d="M640 -20q-422 0 -422 430v258q0 77 -25 108.5t-87 31.5h-101v252h200q157 0 220.5 -62.5t63.5 -217.5v-362q0 -181 151 -181q150 0 150 181v642h271v-650q0 -430 -421 -430z" />
    <glyph glyph-name="phi" unicode="&#x3c6;" 
d="M461 -440l30 427q-204 29 -313 169t-109 374t108.5 373.5t312.5 168.5l-29 428h278l-29 -428q204 -29 312.5 -168.5t108.5 -373.5t-109 -374t-313 -169l30 -427h-278zM689 847v-634q158 59 158 317t-158 317zM511 213v634q-158 -59 -158 -317t158 -317z" />
    <glyph glyph-name="chi" unicode="&#x3c7;" 
d="M1023 -440q-138 0 -216.5 60.5t-140.5 210.5l-88 210l-202 -461h-307l401 720l-148 353q-39 93 -79 131.5t-100 38.5q-35 0 -79 -8l-24 253q59 12 123 12q136 0 212 -58t137 -202l99 -236l213 476h307l-413 -732l142 -341q39 -94 79.5 -132t103.5 -38q44 0 79 8l24 -253
q-51 -12 -123 -12z" />
    <glyph glyph-name="psi" unicode="&#x3c8;" 
d="M466 -440l26 427q-403 54 -403 543v530h269v-530q0 -226 141 -279l-28 1249h258l-28 -1249q141 53 141 279v530h269v-530q0 -489 -403 -543l26 -427h-268z" />
    <glyph glyph-name="omega" unicode="&#x3c9;" 
d="M852 -20q-115 0 -175.5 90.5t-72.5 286.5h-20q-12 -196 -75.5 -286.5t-182.5 -90.5q-115 0 -176 88.5t-61 251.5v740h271v-740q0 -85 64 -85q63 0 63 92l7 30h-7v503h214v-503h-7l7 -30q0 -49 16 -70.5t48 -21.5q63 0 63 85v740h271v-740q0 -163 -63.5 -251.5
t-183.5 -88.5z" />
    <glyph glyph-name="iotadieresis" unicode="&#x3ca;" 
d="M764 -20q-192 0 -277.5 99.5t-85.5 320.5v411h-288v249h558v-583q0 -133 34 -186.5t139 -53.5q84 0 213 38l24 -253q-153 -42 -317 -42zM762 1231q-65 0 -111 46.5t-46 111.5q0 66 46 111.5t111 45.5q66 0 112 -45.5t46 -111.5q0 -65 -46.5 -111.5t-111.5 -46.5z
M314 1231q-65 0 -111 46.5t-46 111.5q0 66 46 111.5t111 45.5t111 -45.5t46 -111.5q0 -65 -46 -111.5t-111 -46.5z" />
    <glyph glyph-name="upsilondieresis" unicode="&#x3cb;" 
d="M640 -20q-422 0 -422 430v258q0 77 -25 108.5t-87 31.5h-101v252h200q157 0 220.5 -62.5t63.5 -217.5v-362q0 -181 151 -181q150 0 150 181v642h271v-650q0 -430 -421 -430zM826 1231q-65 0 -111 46.5t-46 111.5q0 66 46 111.5t111 45.5q66 0 112 -45.5t46 -111.5
q0 -65 -46.5 -111.5t-111.5 -46.5zM378 1231q-65 0 -111 46.5t-46 111.5q0 66 46 111.5t111 45.5t111 -45.5t46 -111.5q0 -65 -46 -111.5t-111 -46.5z" />
    <glyph glyph-name="omicrontonos" unicode="&#x3cc;" 
d="M600 -20q-229 0 -355 144t-126 406t126 406t355 144t355 -144t126 -406t-126 -406t-355 -144zM600 237q93 0 143.5 76.5t50.5 216.5q0 141 -50.5 217t-143.5 76t-143.5 -76t-50.5 -217q0 -140 51 -216.5t143 -76.5zM462 1248l186 380h287l-206 -380h-267z" />
    <glyph glyph-name="upsilontonos" unicode="&#x3cd;" 
d="M640 -20q-422 0 -422 430v258q0 77 -25 108.5t-87 31.5h-101v252h200q157 0 220.5 -62.5t63.5 -217.5v-362q0 -181 151 -181q150 0 150 181v642h271v-650q0 -430 -421 -430zM462 1248l186 380h287l-206 -380h-267z" />
    <glyph glyph-name="omegatonos" unicode="&#x3ce;" 
d="M852 -20q-115 0 -175.5 90.5t-72.5 286.5h-20q-12 -196 -75.5 -286.5t-182.5 -90.5q-115 0 -176 88.5t-61 251.5v740h271v-740q0 -85 64 -85q63 0 63 92l7 30h-7v503h214v-503h-7l7 -30q0 -49 16 -70.5t48 -21.5q63 0 63 85v740h271v-740q0 -163 -63.5 -251.5
t-183.5 -88.5zM462 1248l186 380h287l-206 -380h-267z" />
    <glyph glyph-name="uni03CF" unicode="&#x3cf;" 
d="M133 0v1420h264v-694q111 21 198.5 86.5t140.5 161t80 209t27 237.5h268q0 -215 -71 -407.5t-203 -327.5l295 -492q47 -76 47 -187v-401h-264v381q0 72 -56 163l-233 382q-104 -53 -229 -71v-460h-264z" />
    <glyph glyph-name="uni03D7" unicode="&#x3d7;" 
d="M392 0h-251v1060h271v-756h38q6 198 154 375l331 401l199 -169l-308 -378l235 -323q33 -45 47 -86t14 -99v-420h-271v382q0 90 -40 142l-148 203z" />
    <glyph glyph-name="uni0400" unicode="&#x400;" 
d="M143 0v1420h974v-243h-710v-344h530v-244h-530v-346h710v-243h-974zM494 1580l-303 275h363l222 -275h-282z" />
    <glyph glyph-name="uni0401" unicode="&#x401;" 
d="M143 0v1420h974v-243h-710v-344h530v-244h-530v-346h710v-243h-974zM389 1586q-71 0 -121 50t-50 121t50 120.5t121 49.5t120.5 -49.5t49.5 -120.5t-49.5 -121t-120.5 -50zM871 1586q-71 0 -120.5 50t-49.5 121t49.5 120.5t120.5 49.5t121 -49.5t50 -120.5t-50 -121
t-121 -50z" />
    <glyph glyph-name="uni0402" unicode="&#x402;" 
d="M587 0v253q237 0 237 207t-194 207h-152v-667h-263v1230h-242v190h854v-190h-349v-319h152q469 0 469 -451q0 -460 -512 -460z" />
    <glyph glyph-name="uni0403" unicode="&#x403;" 
d="M163 0v1420h927v-243h-663v-1177h-264zM472 1580l222 275h364l-304 -275h-282z" />
    <glyph glyph-name="uni0404" unicode="&#x404;" 
d="M758 -20q-679 0 -679 732q0 347 171 537.5t484 190.5q141 0 250 -45.5t165 -129.5l-148 -193q-45 56 -114.5 86.5t-150.5 30.5q-151 0 -250.5 -88.5t-128.5 -251.5h505v-244h-508q49 -373 438 -373q145 0 286 60l46 -244q-174 -68 -366 -68z" />
    <glyph glyph-name="uni0405" unicode="&#x405;" 
d="M551 -20q-252 0 -439 78l36 270q226 -96 419 -96q107 0 164 38t57 109q0 44 -30.5 83t-86.5 65l-204 99q-152 74 -234.5 183.5t-82.5 240.5q0 186 123 288t348 102q131 0 248.5 -46t208.5 -133l-182 -209q-143 137 -274 137q-89 0 -137.5 -38t-48.5 -108q0 -95 133 -165
l192 -99q151 -79 232 -183t81 -222q0 -189 -136 -291.5t-387 -102.5z" />
    <glyph glyph-name="uni0406" unicode="&#x406;" 
d="M151 0v238h316v945h-316v237h898v-237h-318v-945h318v-238h-898z" />
    <glyph glyph-name="uni0407" unicode="&#x407;" 
d="M151 0v238h316v945h-316v237h898v-237h-318v-945h318v-238h-898zM359 1586q-71 0 -121 50t-50 121t50 120.5t121 49.5t120.5 -49.5t49.5 -120.5t-49.5 -121t-120.5 -50zM841 1586q-71 0 -120.5 50t-49.5 121t49.5 120.5t120.5 49.5t121 -49.5t50 -120.5t-50 -121
t-121 -50z" />
    <glyph glyph-name="uni0408" unicode="&#x408;" 
d="M574 -20q-242 0 -373.5 132t-131.5 372h275q0 -120 61.5 -186.5t173.5 -66.5q113 0 174.5 66t61.5 187v693h-325v243h589v-936q0 -239 -133.5 -371.5t-371.5 -132.5z" />
    <glyph glyph-name="uni0409" unicode="&#x409;" 
d="M53 0v262q77 0 105.5 39t28.5 144v975h546v-477h56q159 0 255.5 -129t96.5 -343q0 -213 -96.5 -342t-255.5 -129h-258v1177h-106v-725q0 -133 -18 -217.5t-62.5 -138t-113.5 -75t-178 -21.5zM733 230q64 13 99 76t35 165q0 103 -35 166t-99 76v-483z" />
    <glyph glyph-name="uni040A" unicode="&#x40a;" 
d="M111 0v1420h264v-582h132v582h246v-477h34q160 0 257 -129t97 -343q0 -213 -97 -342t-257 -129h-280v576h-132v-576h-264zM720 714v-485q70 9 108.5 72t38.5 170t-38.5 170.5t-108.5 72.5z" />
    <glyph glyph-name="uni040B" unicode="&#x40b;" 
d="M815 0v454q0 100 -39 145t-126 45h-172v-644h-263v1158h-212v262h854v-262h-379v-252h172q226 0 327.5 -100t101.5 -322v-484h-264z" />
    <glyph glyph-name="uni040C" unicode="&#x40c;" 
d="M123 0v1420h264v-588h159q76 0 110 32.5t39 109.5l13 184q11 150 89.5 208.5t245.5 58.5h85v-243h-65q-46 0 -68.5 -24t-27.5 -80l-15 -160q-16 -194 -253 -194h-71v-28h71q256 0 272 -194l15 -160q5 -56 27.5 -80t68.5 -24h65v-243h-94q-167 0 -245.5 58.5t-89.5 208.5
l-13 184q-5 77 -41 109.5t-118 32.5h-159v-588h-264zM452 1580l222 275h364l-304 -275h-282z" />
    <glyph glyph-name="uni040D" unicode="&#x40d;" 
d="M131 0v1420h262v-962h29l365 962h282v-1420h-262v962h-29l-365 -962h-282zM464 1580l-303 275h363l222 -275h-282z" />
    <glyph glyph-name="uni040E" unicode="&#x40e;" 
d="M193 0v243q122 0 188.5 4.5t115.5 22.5l-428 1150h287l301 -868h17l222 868h287l-324 -1060q-33 -105 -88.5 -175.5t-140 -111t-188.5 -57t-249 -16.5zM640 1553q-184 0 -285 80.5t-101 226.5h270q0 -71 29 -100t87 -29t87 29t29 100h270q0 -146 -101 -226.5t-285 -80.5z
" />
    <glyph glyph-name="uni040F" unicode="&#x40f;" 
d="M468 -290v290h-345v1420h264v-1177h426v1177h264v-1420h-345v-290h-264z" />
    <glyph glyph-name="uni0410" unicode="&#x410;" 
d="M28 0l410 1420h324l410 -1420h-285l-70 269h-434l-70 -269h-285zM446 513h308l-145 560h-18z" />
    <glyph glyph-name="uni0411" unicode="&#x411;" 
d="M143 0v1420h890v-243h-626v-284h283q213 0 330 -117t117 -329q0 -213 -117 -330t-330 -117h-547zM407 243h217q112 0 174 53.5t62 151.5q0 96 -61.5 148.5t-174.5 52.5h-217v-406z" />
    <glyph glyph-name="uni0412" unicode="&#x412;" 
d="M143 0v1420h439q224 0 346.5 -91.5t122.5 -260.5q0 -138 -86.5 -216t-245.5 -85v-33h46q184 0 285 -90t101 -254q0 -186 -116.5 -288t-330.5 -102h-561zM407 243h239q108 0 168 51t60 143q0 91 -63.5 141t-178.5 50h-225v-385zM407 872h179q188 0 188 160q0 145 -202 145
h-165v-305z" />
    <glyph glyph-name="uni0413" unicode="&#x413;" 
d="M163 0v1420h927v-243h-663v-1177h-264z" />
    <glyph glyph-name="uni0414" unicode="&#x414;" 
d="M13 -290v533h88q52 81 83 270t31 356v551h844v-1177h128v-533h-264v290h-646v-290h-264zM796 243v934h-320v-302q0 -165 -27.5 -349.5t-77.5 -282.5h425z" />
    <glyph glyph-name="uni0415" unicode="&#x415;" 
d="M143 0v1420h974v-243h-710v-344h530v-244h-530v-346h710v-243h-974z" />
    <glyph glyph-name="uni0416" unicode="&#x416;" 
d="M27 -5v243h23q21 0 35 16t14 48v243q0 64 42 101.5t112 39.5l96 4v40l-96 4q-70 3 -112 40.5t-42 100.5v243q0 32 -14 48t-35 16h-23v243h110q112 0 168 -59.5t56 -187.5v-246q0 -59 11.5 -75t66.5 -16h59v579h204v-579h76q55 0 66.5 16t11.5 75v246q0 128 56 187.5
t168 59.5h110v-243h-23q-21 0 -35 -16t-14 -48v-243q0 -63 -46.5 -100.5t-124.5 -40.5l-89 -4v-40l89 -4q78 -3 124.5 -40.5t46.5 -100.5v-243q0 -32 14 -48t35 -16h23v-243h-110q-112 0 -168 59.5t-56 187.5v246q0 59 -11.5 75t-66.5 16h-76v-579h-204v579h-59
q-55 0 -66.5 -16t-11.5 -75v-246q0 -128 -56 -187.5t-168 -59.5h-110z" />
    <glyph glyph-name="uni0417" unicode="&#x417;" 
d="M541 -20q-303 0 -494 171l169 192q91 -62 163 -86.5t175 -24.5q121 0 189.5 55t68.5 153q0 88 -75.5 136.5t-202.5 48.5h-158l-22 243q215 5 309 44t94 121q0 70 -66 112.5t-204 42.5q-129 0 -291 -40l-25 251q158 41 335 41q269 0 398 -92t129 -255q0 -123 -81.5 -200
t-263.5 -118v-28q109 -5 198 -45t146 -120.5t57 -187.5q0 -189 -148 -301.5t-400 -112.5z" />
    <glyph glyph-name="uni0418" unicode="&#x418;" 
d="M131 0v1420h262v-962h29l365 962h282v-1420h-262v962h-29l-365 -962h-282z" />
    <glyph glyph-name="uni0419" unicode="&#x419;" 
d="M131 0v1420h262v-962h29l365 962h282v-1420h-262v962h-29l-365 -962h-282zM600 1553q-184 0 -285 80.5t-101 226.5h270q0 -71 29 -100t87 -29t87 29t29 100h270q0 -146 -101 -226.5t-285 -80.5z" />
    <glyph glyph-name="uni041A" unicode="&#x41a;" 
d="M123 0v1420h264v-588h159q76 0 110 32.5t39 109.5l13 184q11 150 89.5 208.5t245.5 58.5h85v-243h-65q-46 0 -68.5 -24t-27.5 -80l-15 -160q-16 -194 -253 -194h-71v-28h71q256 0 272 -194l15 -160q5 -56 27.5 -80t68.5 -24h65v-243h-94q-167 0 -245.5 58.5t-89.5 208.5
l-13 184q-5 77 -41 109.5t-118 32.5h-159v-588h-264z" />
    <glyph glyph-name="uni041B" unicode="&#x41b;" 
d="M20 1v243q42 0 74 7t53.5 16.5t36 31t22 38t11 52t4 57.5t0.5 68v17v889h856v-1420h-264v1177h-331v-639q0 -61 -2 -106t-7.5 -95t-15.5 -86t-27.5 -73.5t-41.5 -62.5t-58.5 -48t-79 -36.5t-102.5 -21.5t-128 -8z" />
    <glyph glyph-name="uni041C" unicode="&#x41c;" 
d="M111 0v1420h377l104 -635h16l104 635h377v-1420h-246v1168h-31l-120 -671h-184l-120 671h-31v-1168h-246z" />
    <glyph glyph-name="uni041D" unicode="&#x41d;" 
d="M813 0v585h-426v-585h-264v1420h264v-591h426v591h264v-1420h-264z" />
    <glyph glyph-name="uni041E" unicode="&#x41e;" 
d="M600 -20q-541 0 -541 720q0 740 541 740t541 -740q0 -720 -541 -720zM600 232q264 0 264 468q0 489 -264 489t-264 -489q0 -468 264 -468z" />
    <glyph glyph-name="uni041F" unicode="&#x41f;" 
d="M813 0v1177h-426v-1177h-264v1420h954v-1420h-264z" />
    <glyph glyph-name="uni0420" unicode="&#x420;" 
d="M143 0v1420h435q267 0 413 -125.5t146 -354.5q0 -254 -146 -393.5t-413 -139.5h-171v-407h-264zM407 650h171q130 0 202 72t72 201q0 121 -71.5 187.5t-202.5 66.5h-171v-527z" />
    <glyph glyph-name="uni0421" unicode="&#x421;" 
d="M748 -20q-679 0 -679 732q0 347 171 537.5t484 190.5q141 0 250 -45.5t165 -129.5l-148 -193q-45 56 -114.5 86.5t-150.5 30.5q-175 0 -277 -123t-102 -344q0 -490 435 -490q145 0 286 60l46 -244q-174 -68 -366 -68z" />
    <glyph glyph-name="uni0422" unicode="&#x422;" 
d="M468 0v1177h-405v243h1074v-243h-405v-1177h-264z" />
    <glyph glyph-name="uni0423" unicode="&#x423;" 
d="M193 0v243q122 0 188.5 4.5t115.5 22.5l-428 1150h287l301 -868h17l222 868h287l-324 -1060q-33 -105 -88.5 -175.5t-140 -111t-188.5 -57t-249 -16.5z" />
    <glyph glyph-name="uni0424" unicode="&#x424;" 
d="M474 -20v127q-416 66 -416 595q0 561 416 630v128h250v-128q418 -68 418 -630q0 -530 -418 -595v-127h-250zM691 1080v-721q176 54 176 343q0 318 -176 378zM507 360v719q-174 -60 -174 -377q0 -287 174 -342z" />
    <glyph glyph-name="uni0425" unicode="&#x425;" 
d="M839 0l-239 469l-238 -469h-330l440 703l-440 717h330l238 -477l239 477h330l-441 -717l441 -703h-330z" />
    <glyph glyph-name="uni0426" unicode="&#x426;" 
d="M123 0v1420h264v-1177h416v1177h264v-1177h110v-533h-264v290h-790z" />
    <glyph glyph-name="uni0427" unicode="&#x427;" 
d="M530 509q-241 0 -349 122t-108 394v395h264v-395q0 -133 46 -193.5t147 -60.5h233v649h264v-1420h-264v509h-233z" />
    <glyph glyph-name="uni0428" unicode="&#x428;" 
d="M111 0v1420h264v-1178h123v1178h204v-1178h123v1178h264v-1420h-978z" />
    <glyph glyph-name="uni0429" unicode="&#x429;" 
d="M111 0v1420h264v-1178h123v1178h204v-1178h123v1178h264v-1178h88v-532h-264v290h-802z" />
    <glyph glyph-name="uni042A" unicode="&#x42a;" 
d="M223 0v1177h-233v243h497v-477h207q202 0 324.5 -129t122.5 -343q0 -213 -122.5 -342t-324.5 -129h-471zM487 243h149q108 0 168 60.5t60 167.5q0 108 -60 168t-168 60h-149v-456z" />
    <glyph glyph-name="uni042B" unicode="&#x42b;" 
d="M111 0v1420h264v-477h37q162 0 260.5 -129t98.5 -343q0 -213 -98.5 -342t-260.5 -129h-301zM827 0v1420h262v-1420h-262zM375 228q74 8 115 71.5t41 171.5q0 109 -41 172.5t-115 71.5v-487z" />
    <glyph glyph-name="uni042C" unicode="&#x42c;" 
d="M123 0v1420h264v-477h280q209 0 336.5 -129t127.5 -343q0 -213 -127.5 -342t-336.5 -129h-544zM387 243h214q124 0 188.5 58t64.5 170t-64 170t-189 58h-214v-456z" />
    <glyph glyph-name="uni042D" unicode="&#x42d;" 
d="M476 -20q-281 0 -459 154l161 191q70 -54 125.5 -74t133.5 -20q172 0 279 98t131 276h-514v244h508q-29 165 -129 252.5t-266 87.5q-152 0 -297 -50l-63 243q175 58 369 58q327 0 496.5 -186.5t169.5 -540.5q0 -348 -164 -540.5t-481 -192.5z" />
    <glyph glyph-name="uni042E" unicode="&#x42e;" 
d="M779 -20q-180 0 -268 144.5t-100 460.5h-86v-585h-262v1420h262v-591h87q13 319 101 465t266 146q190 0 276 -175.5t86 -564.5q0 -379 -86 -549.5t-276 -170.5zM769 232q57 0 82.5 111t25.5 357q0 257 -25.5 373t-82.5 116q-55 0 -80 -116t-25 -373q0 -245 25 -356.5
t80 -111.5z" />
    <glyph glyph-name="uni042F" unicode="&#x42f;" 
d="M55 -5v243h50q47 0 77 21.5t43 88.5l22 110q8 39 24.5 65.5t35.5 40.5t50.5 21.5t55 9t62.5 1.5h20v41q-400 15 -400 359q0 201 130 312.5t359 111.5h495v-1420h-264v503l-178 1q-76 -4 -107 -34t-37 -94l-14 -125q-11 -119 -101 -187.5t-263 -68.5h-60zM815 747v430
h-231q-99 0 -155.5 -50.5t-56.5 -146.5q0 -108 57.5 -170.5t154.5 -62.5h231z" />
    <glyph glyph-name="uni0430" unicode="&#x430;" 
d="M795 -10l-17 234h-24q-14 -121 -96 -182.5t-222 -61.5q-170 0 -263.5 83t-93.5 236q0 177 123 272.5t349 95.5q121 0 217 -21v3q0 84 -71 124t-217 44l-271 7l20 246l231 -3q568 -7 568 -433v-392l147 -22v-220zM768 423q-77 16 -204 16q-210 0 -210 -120q0 -54 38 -82.5
t111 -28.5q121 0 191.5 64t73.5 151z" />
    <glyph glyph-name="uni0431" unicode="&#x431;" 
d="M608 -20q-237 0 -365 137t-128 389v198q0 299 132.5 453.5t425.5 204.5l386 63l10 -265l-341 -55q-188 -32 -259.5 -96t-71.5 -203v-98h31q27 111 107.5 171.5t197.5 60.5q180 0 279 -123t99 -347q0 -233 -131.5 -361.5t-371.5 -128.5zM616 236q99 0 154 59t55 165
t-55.5 165t-153.5 59q-101 0 -157.5 -59t-56.5 -165t56.5 -165t157.5 -59z" />
    <glyph glyph-name="uni0432" unicode="&#x432;" 
d="M161 0v1060h551q171 0 265 -73.5t94 -206.5q0 -100 -84.5 -155.5t-239.5 -57.5v-34h5q171 0 265 -66t94 -187q0 -133 -88 -206.5t-249 -73.5h-613zM432 257h261q131 0 131 102q0 94 -134 94h-258v-196zM432 647h254q98 0 98 78t-100 78h-252v-156z" />
    <glyph glyph-name="uni0433" unicode="&#x433;" 
d="M259 0v1060h788v-252h-517v-808h-271z" />
    <glyph glyph-name="uni0434" unicode="&#x434;" 
d="M23 -270v522h120q96 141 96 422v386h782v-808h126v-522h-269v270h-586v-270h-269zM740 252v556h-235v-219q0 -216 -74 -337h309z" />
    <glyph glyph-name="uni0435" unicode="&#x435;" 
d="M694 -20q-276 0 -425.5 143t-149.5 409q0 260 128 404t359 144q228 0 351.5 -134t123.5 -386q0 -72 -6 -137h-673q62 -187 316 -187q134 0 285 28l26 -256q-159 -28 -335 -28zM389 611h426q0 106 -54.5 163.5t-152.5 57.5q-91 0 -148 -57t-71 -164z" />
    <glyph glyph-name="uni0436" unicode="&#x436;" 
d="M20 -10v240h60q25 0 42 15t17 44v84q0 62 40.5 98.5t104.5 42.5l20 2v28l-20 2q-64 6 -104.5 42.5t-40.5 98.5v84q0 29 -17 44t-42 15h-60v240h155q102 0 153.5 -46.5t51.5 -145.5v-132v-3q0 -57 10.5 -72.5t60.5 -15.5h50v405h196v-405h52q50 0 60.5 15.5t10.5 72.5v3
v132q0 99 51.5 145.5t153.5 46.5h155v-240h-60q-25 0 -42 -15t-17 -44v-84q0 -62 -40.5 -98.5t-104.5 -42.5l-20 -2v-28l20 -2q64 -6 104.5 -42.5t40.5 -98.5v-84q0 -29 17 -44t42 -15h60v-240h-155q-102 0 -153.5 46.5t-51.5 145.5v133v3q0 57 -10.5 72.5t-60.5 15.5h-52
v-406h-196v406h-50q-50 0 -60.5 -15.5t-10.5 -72.5v-3v-133q0 -99 -51.5 -145.5t-153.5 -46.5h-155z" />
    <glyph glyph-name="uni0437" unicode="&#x437;" 
d="M556 -20q-312 0 -458 130l127 203q65 -40 153 -58.5t170 -18.5q101 0 159.5 25.5t58.5 68.5q0 50 -71.5 73.5t-240.5 23.5h-42l-11 248h56q112 0 172.5 9t78 23.5t17.5 39.5q0 38 -65 57.5t-172 19.5q-33 0 -67.5 -2t-57 -4t-70 -7.5t-76.5 -8.5l-34 252q13 2 49 6.5
t50.5 6t46.5 5t55 5t56.5 2.5t69.5 1q238 0 370 -67.5t132 -205.5q0 -86 -75.5 -155t-206.5 -78v-28q158 -10 240.5 -76t82.5 -172q0 -144 -135 -231t-362 -87z" />
    <glyph glyph-name="uni0438" unicode="&#x438;" 
d="M151 0v1060h271v-620h28l323 620h276v-1060h-271v620h-28l-323 -620h-276z" />
    <glyph glyph-name="uni0439" unicode="&#x439;" 
d="M151 0v1060h271v-620h28l323 620h276v-1060h-271v620h-28l-323 -620h-276zM600 1238q-204 0 -300.5 90t-96.5 275h267q0 -90 30 -130.5t100 -40.5q71 0 100.5 40.5t29.5 130.5h267q0 -186 -97 -275.5t-300 -89.5z" />
    <glyph glyph-name="uni043A" unicode="&#x43a;" 
d="M141 0v1060h271v-404h107q110 0 132 82l44 157q49 170 298 170h77v-252h-60q-71 0 -89 -54l-27 -85q-17 -59 -69 -90.5t-133 -31.5h-11v-44h21q85 0 140 -31.5t72 -90.5l27 -85q18 -54 89 -54h50v-252h-77q-276 0 -316 170l-36 157q-19 82 -132 82h-107v-404h-271z" />
    <glyph glyph-name="uni043B" unicode="&#x43b;" 
d="M46 0v252q111 0 152 51.5t41 190.5v566h816v-1060h-271v808h-279v-307q0 -148 -21.5 -241.5t-76.5 -153t-140.5 -83t-220.5 -23.5z" />
    <glyph glyph-name="uni043C" unicode="&#x43c;" 
d="M111 0v1060h377l104 -543h16l104 543h377v-1060h-254v808h-34l-111 -588h-180l-111 588h-34v-808h-254z" />
    <glyph glyph-name="uni043D" unicode="&#x43d;" 
d="M778 0v406h-356v-406h-271v1060h271v-405h356v405h271v-1060h-271z" />
    <glyph glyph-name="uni043E" unicode="&#x43e;" 
d="M600 -20q-229 0 -355 144t-126 406t126 406t355 144t355 -144t126 -406t-126 -406t-355 -144zM600 237q93 0 143.5 76.5t50.5 216.5q0 141 -50.5 217t-143.5 76t-143.5 -76t-50.5 -217q0 -140 51 -216.5t143 -76.5z" />
    <glyph glyph-name="uni043F" unicode="&#x43f;" 
d="M778 0v808h-356v-808h-271v1060h898v-1060h-271z" />
    <glyph glyph-name="uni0440" unicode="&#x440;" 
d="M151 -460v1520h251l17 -192h19q19 108 82.5 160t182.5 52q199 0 308.5 -144.5t109.5 -406.5q0 -264 -109 -406.5t-307 -142.5q-112 0 -178.5 53.5t-82.5 158.5h-22v-652h-271zM422 529q0 -157 46.5 -225.5t160.5 -68.5q207 0 207 294q0 141 -54 218.5t-153 77.5
q-105 0 -156 -72t-51 -224z" />
    <glyph glyph-name="uni0441" unicode="&#x441;" 
d="M724 -20q-290 0 -447.5 143t-157.5 409q0 261 144.5 404.5t410.5 143.5q164 0 281.5 -64t166.5 -181l-196 -156q-44 69 -111.5 106.5t-148.5 37.5q-123 0 -191.5 -73.5t-68.5 -207.5q0 -149 88.5 -227t253.5 -78q135 0 283 26l28 -253q-135 -30 -335 -30z" />
    <glyph glyph-name="uni0442" unicode="&#x442;" 
d="M465 0v808h-392v252h1054v-252h-392v-808h-270z" />
    <glyph glyph-name="uni0443" unicode="&#x443;" 
d="M58 -480l-10 235l183 20q111 12 183.5 64.5t122.5 160.5h-143l-356 1060h287l263 -830h25l232 830h287l-298 -966q-90 -283 -221.5 -407t-357.5 -147z" />
    <glyph glyph-name="uni0444" unicode="&#x444;" 
d="M933 -20q-155 0 -187 174h-28v-594h-236v594h-28q-32 -174 -187 -174q-125 0 -182 128t-57 412q0 295 57 427.5t184 132.5q82 0 124.5 -49t60.5 -153h28v622h236v-622h28q18 104 60.5 153t124.5 49q127 0 184 -132.5t57 -427.5q0 -284 -57 -412t-182 -128zM497 596
q0 229 -100 229q-52 0 -75.5 -72t-23.5 -233q0 -150 24 -217.5t77 -67.5q98 0 98 205v156zM703 440q0 -205 99 -205q53 0 76.5 67.5t23.5 217.5q0 161 -23.5 233t-74.5 72q-101 0 -101 -229v-156z" />
    <glyph glyph-name="uni0445" unicode="&#x445;" 
d="M81 0l389 524l-389 536h323l196 -332l196 332h323l-394 -528l394 -532h-323l-200 332l-192 -332h-323z" />
    <glyph glyph-name="uni0446" unicode="&#x446;" 
d="M123 0v1060h271v-808h346v808h271v-808h136v-522h-269v270h-755z" />
    <glyph glyph-name="uni0447" unicode="&#x447;" 
d="M550 343q-234 0 -341.5 111.5t-107.5 355.5v250h271v-250q0 -114 52.5 -166t167.5 -52h176v468h271v-1060h-271v343h-218z" />
    <glyph glyph-name="uni0448" unicode="&#x448;" 
d="M95 0v1060h271v-810h126v810h214v-810h128v810h271v-1060h-1010z" />
    <glyph glyph-name="uni0449" unicode="&#x449;" 
d="M95 0v1060h271v-810h126v810h195v-810h127v810h271v-810h90v-520h-217v270h-863z" />
    <glyph glyph-name="uni044A" unicode="&#x44a;" 
d="M223 0v808h-223v252h493v-313h248q181 0 280.5 -97.5t99.5 -276.5q0 -178 -99.5 -275.5t-280.5 -97.5h-518zM493 252h195q146 0 146 121q0 122 -146 122h-195v-243z" />
    <glyph glyph-name="uni044B" unicode="&#x44b;" 
d="M95 0v1060h271v-313h40q173 0 268.5 -98t95.5 -276t-95.5 -275.5t-268.5 -97.5h-311zM834 0v1060h271v-1060h-271zM366 248h29q110 0 110 125q0 126 -110 126h-29v-251z" />
    <glyph glyph-name="uni044C" unicode="&#x44c;" 
d="M171 0v1060h271v-313h302q180 0 278.5 -97.5t98.5 -276.5q0 -178 -98.5 -275.5t-278.5 -97.5h-573zM442 252h249q143 0 143 121q0 122 -143 122h-249v-243z" />
    <glyph glyph-name="uni044D" unicode="&#x44d;" 
d="M526 -20q-129 0 -237 34t-174 89l121 210q124 -76 298 -76q105 0 174.5 44.5t96.5 127.5h-389v249h377q-78 165 -339 165q-133 0 -277 -21l26 261q121 17 275 17q289 0 446 -143t157 -409q0 -261 -144.5 -404.5t-410.5 -143.5z" />
    <glyph glyph-name="uni044E" unicode="&#x44e;" 
d="M792 -20q-159 0 -239 101t-95 322h-109v-403h-256v1060h256v-408h109q16 224 96.5 326t237.5 102q184 0 266.5 -132.5t82.5 -427.5q0 -284 -82.5 -412t-266.5 -128zM773 219q44 0 63.5 71t19.5 230q0 169 -19.5 245t-63.5 76q-43 0 -62.5 -76t-19.5 -245
q0 -158 19.5 -229.5t62.5 -71.5z" />
    <glyph glyph-name="uni044F" unicode="&#x44f;" 
d="M477 454q-162 0 -250.5 73t-88.5 206q0 156 109.5 241.5t309.5 85.5h487v-1060h-271v329h-39q-117 0 -162.5 -23.5t-62.5 -86.5l-14 -47q-28 -101 -103.5 -139t-222.5 -38h-60v252h50q42 0 67 15.5t42 53.5l17 34q19 44 75 59.5t150 15.5v29h-33zM773 581v227h-208
q-148 0 -148 -115q0 -112 148 -112h208z" />
    <glyph glyph-name="uni0450" unicode="&#x450;" 
d="M694 -20q-276 0 -425.5 143t-149.5 409q0 260 128 404t359 144q228 0 351.5 -134t123.5 -386q0 -72 -6 -137h-673q62 -187 316 -187q134 0 285 28l26 -256q-159 -28 -335 -28zM497 1248l-207 380h287l187 -380h-267zM389 611h426q0 106 -54.5 163.5t-152.5 57.5
q-91 0 -148 -57t-71 -164z" />
    <glyph glyph-name="uni0451" unicode="&#x451;" 
d="M694 -20q-276 0 -425.5 143t-149.5 409q0 260 128 404t359 144q228 0 351.5 -134t123.5 -386q0 -72 -6 -137h-673q62 -187 316 -187q134 0 285 28l26 -256q-159 -28 -335 -28zM836 1231q-65 0 -111 46.5t-46 111.5q0 66 46 111.5t111 45.5q66 0 112 -45.5t46 -111.5
q0 -65 -46.5 -111.5t-111.5 -46.5zM388 1231q-65 0 -111 46.5t-46 111.5q0 66 46 111.5t111 45.5t111 -45.5t46 -111.5q0 -65 -46 -111.5t-111 -46.5zM389 611h426q0 106 -54.5 163.5t-152.5 57.5q-91 0 -148 -57t-71 -164z" />
    <glyph glyph-name="uni0452" unicode="&#x452;" 
d="M191 0v1109h-191v249h191v142h271v-142h325v-249h-325v-361h32q15 212 248 212q146 0 226.5 -102t80.5 -288v-546q0 -244 -103.5 -356t-338.5 -136l-110 -12l-10 271l140 18q80 10 115.5 52.5t35.5 130.5v503q0 100 -35.5 155t-100.5 55q-180 0 -180 -304v-401h-271z" />
    <glyph glyph-name="uni0453" unicode="&#x453;" 
d="M259 0v1060h788v-252h-517v-808h-271zM552 1248l186 380h287l-206 -380h-267z" />
    <glyph glyph-name="uni0454" unicode="&#x454;" 
d="M724 -20q-290 0 -447.5 143t-157.5 409q0 261 144.5 404.5t410.5 143.5q164 0 281.5 -64t166.5 -181l-196 -156q-44 69 -111.5 106.5t-148.5 37.5q-94 0 -157 -42.5t-89 -122.5h364v-249h-357q70 -172 321 -172q135 0 283 26l28 -253q-135 -30 -335 -30z" />
    <glyph glyph-name="uni0455" unicode="&#x455;" 
d="M518 -20q-238 0 -379 30l32 259q256 -32 347 -32q131 0 189.5 18.5t58.5 59.5q0 24 -15 38t-48 24l-335 100q-108 32 -160.5 95.5t-52.5 169.5q0 171 144 254.5t437 83.5q129 0 297 -20l-29 -251q-171 14 -274 14q-152 0 -220 -17.5t-68 -57.5q0 -25 14 -38.5t46 -22.5
l287 -82q138 -40 205 -110t67 -181q0 -169 -134.5 -251.5t-408.5 -82.5z" />
    <glyph glyph-name="uni0456" unicode="&#x456;" 
d="M143 0v250h392v560h-332v250h602v-810h314v-250h-976zM658 1203q-77 0 -125 48t-48 125t48 125t125 48t125 -48t48 -125t-48 -125t-125 -48z" />
    <glyph glyph-name="uni0457" unicode="&#x457;" 
d="M143 0v250h392v560h-332v250h602v-810h314v-250h-976zM876 1231q-65 0 -111 46.5t-46 111.5q0 66 46 111.5t111 45.5q66 0 112 -45.5t46 -111.5q0 -65 -46.5 -111.5t-111.5 -46.5zM428 1231q-65 0 -111 46.5t-46 111.5q0 66 46 111.5t111 45.5t111 -45.5t46 -111.5
q0 -65 -46 -111.5t-111 -46.5z" />
    <glyph glyph-name="uni0458" unicode="&#x458;" 
d="M180 -480l-10 260l200 13q138 9 201 73t63 196v748h-370v250h641v-966q0 -281 -130.5 -411.5t-424.5 -150.5zM752 1203q-77 0 -125 48t-48 125t48 125t125 48t125 -48t48 -125t-48 -125t-125 -48z" />
    <glyph glyph-name="uni0459" unicode="&#x459;" 
d="M46 0v252q70 0 95.5 27t25.5 102v679h609v-313h48q173 0 268.5 -98t95.5 -276t-95.5 -275.5t-268.5 -97.5h-274v886h-117v-543q0 -198 -82 -270.5t-305 -72.5zM776 252h39q106 0 106 121q0 122 -106 122h-39v-243z" />
    <glyph glyph-name="uni045A" unicode="&#x45a;" 
d="M71 0v1060h271v-343h157v343h267v-343h58q173 0 268.5 -91.5t95.5 -259.5q0 -175 -95.5 -270.5t-268.5 -95.5h-325v481h-157v-481h-271zM733 252h73q55 0 85 29.5t30 84.5t-30 85t-85 30h-73v-229z" />
    <glyph glyph-name="uni045B" unicode="&#x45b;" 
d="M778 0v495q0 100 -35.5 155t-100.5 55q-180 0 -180 -304v-401h-271v1109h-191v249h191v142h271v-142h325v-249h-325v-361h32q15 212 248 212q146 0 226.5 -102t80.5 -288v-570h-271z" />
    <glyph glyph-name="uni045C" unicode="&#x45c;" 
d="M141 0v1060h271v-404h107q110 0 132 82l44 157q49 170 298 170h77v-252h-60q-71 0 -89 -54l-27 -85q-17 -59 -69 -90.5t-133 -31.5h-11v-44h21q85 0 140 -31.5t72 -90.5l27 -85q18 -54 89 -54h50v-252h-77q-276 0 -316 170l-36 157q-19 82 -132 82h-107v-404h-271z
M442 1248l186 380h287l-206 -380h-267z" />
    <glyph glyph-name="uni045D" unicode="&#x45d;" 
d="M151 0v1060h271v-620h28l323 620h276v-1060h-271v620h-28l-323 -620h-276zM487 1248l-207 380h287l187 -380h-267z" />
    <glyph glyph-name="uni045E" unicode="&#x45e;" 
d="M58 -480l-10 235l183 20q111 12 183.5 64.5t122.5 160.5h-143l-356 1060h287l263 -830h25l232 830h287l-298 -966q-90 -283 -221.5 -407t-357.5 -147zM615 1238q-204 0 -300.5 90t-96.5 275h267q0 -90 30 -130.5t100 -40.5q71 0 100.5 40.5t29.5 130.5h267
q0 -186 -97 -275.5t-300 -89.5z" />
    <glyph glyph-name="uni045F" unicode="&#x45f;" 
d="M479 -270v270h-323v1060h271v-811h346v811h271v-1060h-311v-270h-254z" />
    <glyph glyph-name="uni0490" unicode="&#x490;" 
d="M163 0v1420h684v310h263v-553h-683v-1177h-264z" />
    <glyph glyph-name="uni0491" unicode="&#x491;" 
d="M259 0v1060h539v260h269v-512h-537v-808h-271z" />
    <glyph glyph-name="uni0492" unicode="&#x492;" 
d="M-4 549v262h167v609h927v-243h-663v-366h298v-262h-298v-549h-264v549h-167z" />
    <glyph glyph-name="uni0493" unicode="&#x493;" 
d="M49 336v249h210v475h788v-252h-517v-223h235v-249h-235v-336h-271v336h-210z" />
    <glyph glyph-name="uni0496" unicode="&#x496;" 
d="M27 -5v243h23q21 0 35 16t14 48v243q0 64 42 101.5t112 39.5l89 4v40l-89 4q-70 3 -112 40.5t-42 100.5v243q0 32 -14 48t-35 16h-23v243h102q112 0 168 -59.5t56 -187.5v-246q0 -59 11 -75t63 -16h27v579h212v-579h43q53 0 64 16t11 75v246q0 128 56 187.5t168 59.5h102
v-243h-23q-21 0 -35 -16t-14 -48v-243q0 -63 -46.5 -100.5t-124.5 -40.5l-82 -4v-40l82 -4q78 -3 124.5 -40.5t46.5 -100.5v-242q0 -32 14 -48t35 -16h113v-529h-262v292q-154 34 -154 240v246q0 59 -11 75t-64 16h-43v-579h-212v579h-27q-52 0 -63 -16t-11 -75v-246
q0 -128 -56 -187.5t-168 -59.5h-102z" />
    <glyph glyph-name="uni0497" unicode="&#x497;" 
d="M22 -9v240h63q24 0 40.5 15t16.5 45v82q0 62 42 98.5t107 42.5l19 2v28l-19 2q-65 6 -107 42.5t-42 98.5v82q0 30 -16.5 45t-40.5 15h-63v240h155q103 0 154.5 -46.5t51.5 -146.5v-130v-3q0 -57 12 -72.5t71 -15.5h5v405h177v-405h6q59 0 71 15.5t12 72.5v3v130
q0 100 51.5 146.5t154.5 46.5h155v-240h-63q-24 0 -40.5 -15t-16.5 -45v-82q0 -62 -42 -98.5t-107 -42.5l-19 -2v-28l19 -2q65 -6 107 -42.5t42 -98.5v-81q0 -30 16.5 -45t40.5 -15h148v-502h-269v262q-177 12 -177 192v131v3q0 57 -12 72.5t-71 15.5h-6v-406h-177v406h-5
q-59 0 -71 -15.5t-12 -72.5v-3v-131q0 -100 -51.5 -146.5t-154.5 -46.5h-155z" />
    <glyph glyph-name="uni049A" unicode="&#x49a;" 
d="M123 0v1420h264v-588h159q76 0 110 32.5t39 109.5l13 184q11 150 89.5 208.5t245.5 58.5h85v-243h-65q-46 0 -68.5 -24t-27.5 -80l-15 -160q-16 -194 -253 -194h-71v-28h71q256 0 272 -194l15 -160q5 -56 27.5 -80t68.5 -24h95v-528h-262v297q-94 21 -141.5 81t-55.5 174
l-13 184q-5 77 -41 109.5t-118 32.5h-159v-588h-264z" />
    <glyph glyph-name="uni049B" unicode="&#x49b;" 
d="M141 0v1060h271v-404h107q110 0 132 82l44 157q49 170 298 170h77v-252h-60q-72 0 -89 -54l-27 -85q-17 -59 -69 -90.5t-133 -31.5h-11v-44h21q85 0 140 -31.5t72 -90.5l27 -85q17 -54 89 -54h143v-517h-269v272q-184 27 -217 163l-36 157q-19 82 -132 82h-107v-404h-271
z" />
    <glyph glyph-name="uni04A2" unicode="&#x4a2;" 
d="M915 -290v290h-102v585h-426v-585h-264v1420h264v-591h426v591h264v-1177h100v-533h-262z" />
    <glyph glyph-name="uni04A3" unicode="&#x4a3;" 
d="M914 -270v270h-136v406h-356v-406h-271v1060h271v-405h356v405h271v-808h134v-522h-269z" />
    <glyph glyph-name="uni04AE" unicode="&#x4ae;" 
d="M468 0v455l-460 965h295l288 -660h18l288 660h295l-460 -965v-455h-264z" />
    <glyph glyph-name="uni04AF" unicode="&#x4af;" 
d="M465 -460v473l-402 1047h276l261 -730l261 730h276l-402 -1047v-473h-270z" />
    <glyph glyph-name="uni04B0" unicode="&#x4b0;" 
d="M240 268v244h201l-433 908h295l288 -660h18l288 660h295l-433 -908h204v-244h-231v-268h-264v268h-228z" />
    <glyph glyph-name="uni04B1" unicode="&#x4b1;" 
d="M198 -249v249h267v13l-402 1047h276l261 -730l261 730h276l-402 -1047v-13h268v-249h-268v-211h-270v211h-267z" />
    <glyph glyph-name="uni04B2" unicode="&#x4b2;" 
d="M915 -290v290h-76l-239 469l-238 -469h-330l440 703l-440 717h330l238 -477l239 477h330l-441 -717l288 -460h161v-533h-262z" />
    <glyph glyph-name="uni04B3" unicode="&#x4b3;" 
d="M904 -270v270h-108l-200 332l-192 -332h-323l389 524l-389 536h323l196 -332l196 332h323l-394 -528l207 -280h241v-522h-269z" />
    <glyph glyph-name="uni04B6" unicode="&#x4b6;" 
d="M915 -290v290h-152v509h-233q-241 0 -349 122t-108 394v395h264v-395q0 -133 46 -193.5t147 -60.5h233v649h264v-1177h150v-533h-262z" />
    <glyph glyph-name="uni04B7" unicode="&#x4b7;" 
d="M914 -270v270h-146v343h-218q-234 0 -341.5 111.5t-107.5 355.5v250h271v-250q0 -114 52.5 -166t167.5 -52h176v468h271v-808h144v-522h-269z" />
    <glyph glyph-name="uni04BA" unicode="&#x4ba;" 
d="M813 0v470q0 99 -37.5 143.5t-122.5 44.5h-266v-658h-264v1420h264v-518h283q214 0 310.5 -98.5t96.5 -316.5v-487h-264z" />
    <glyph glyph-name="uni04BB" unicode="&#x4bb;" 
d="M778 0v640q0 89 -39.5 137t-112.5 48q-204 0 -204 -279v-546h-271v1500h271v-632h26q15 109 74 160.5t175 51.5q168 0 260 -102t92 -288v-690h-271z" />
    <glyph glyph-name="uni04C0" unicode="&#x4c0;" 
d="M151 0v238h316v945h-316v237h898v-237h-318v-945h318v-238h-898z" />
    <glyph glyph-name="uni04CF" unicode="&#x4cf;" 
d="M143 0v250h392v560h-332v250h602v-810h314v-250h-976z" />
    <glyph glyph-name="uni04D8" unicode="&#x4d8;" 
d="M600 -20q-541 0 -541 700q0 84 4 145h794q-42 364 -357 364q-173 0 -321 -39l-28 244q163 46 349 46q641 0 641 -740q0 -720 -541 -720zM859 581h-519q27 -349 260 -349q228 0 259 349z" />
    <glyph glyph-name="uni04D9" unicode="&#x4d9;" 
d="M594 -20q-227 0 -351 134t-124 387q0 73 6 136h673q-62 187 -316 187q-132 0 -285 -30l-26 255q156 31 335 31q276 0 425.5 -143t149.5 -409q0 -260 -128 -404t-359 -144zM811 449h-426q0 -106 54.5 -163.5t152.5 -57.5q91 0 148 57t71 164z" />
    <glyph glyph-name="uni04E2" unicode="&#x4e2;" 
d="M131 0v1420h262v-962h29l365 962h282v-1420h-262v962h-29l-365 -962h-282zM213 1563v238h774v-238h-774z" />
    <glyph glyph-name="uni04E3" unicode="&#x4e3;" 
d="M151 0v1060h271v-620h28l323 620h276v-1060h-271v620h-28l-323 -620h-276zM170 1248v251h860v-251h-860z" />
    <glyph glyph-name="uni04E8" unicode="&#x4e8;" 
d="M600 -20q-541 0 -541 720q0 740 541 740t541 -740q0 -720 -541 -720zM339 802h522q-25 387 -261 387t-261 -387zM600 232q239 0 261 380h-522q22 -380 261 -380z" />
    <glyph glyph-name="uni04E9" unicode="&#x4e9;" 
d="M600 -20q-229 0 -355 144t-126 406t126 406t355 144t355 -144t126 -406t-126 -406t-355 -144zM411 611h378q-14 103 -62 157.5t-127 54.5q-78 0 -127 -54.5t-62 -157.5zM600 237q78 0 126.5 55t62.5 157h-378q14 -102 62.5 -157t126.5 -55z" />
    <glyph glyph-name="uni04EE" unicode="&#x4ee;" 
d="M193 0v243q122 0 188.5 4.5t115.5 22.5l-428 1150h287l301 -868h17l222 868h287l-324 -1060q-33 -105 -88.5 -175.5t-140 -111t-188.5 -57t-249 -16.5zM253 1563v238h774v-238h-774z" />
    <glyph glyph-name="uni04EF" unicode="&#x4ef;" 
d="M58 -480l-10 235l183 20q111 12 183.5 64.5t122.5 160.5h-143l-356 1060h287l263 -830h25l232 830h287l-298 -966q-90 -283 -221.5 -407t-357.5 -147zM185 1248v251h860v-251h-860z" />
    <glyph glyph-name="uni0E3F" unicode="&#xe3f;" 
d="M457 -320v320h-314v1420h314v320h253v-329q165 -24 253 -112t88 -231q0 -138 -86.5 -216t-245.5 -85v-33h46q184 0 285 -90t101 -254q0 -185 -115 -287t-326 -103v-320h-253zM407 628v-385h239q108 0 168 51t60 143q0 91 -63.5 141t-178.5 50h-225zM407 872h179
q188 0 188 160q0 145 -202 145h-165v-305z" />
    <glyph glyph-name="uni1D00" unicode="&#x1d00;" 
d="M35 0l410 1079h310l410 -1079h-260l-70 197h-470l-70 -197h-260zM440 407h320l-151 424h-18z" />
    <glyph glyph-name="uni1DBB" unicode="&#x1dbb;" 
d="M303 790v204l310 222h-310v205h578v-205l-297 -222h310v-204h-591z" />
    <glyph glyph-name="uni1DBF" unicode="&#x1dbf;" 
d="M600 770q-171 0 -265 104.5t-94 294.5t94 294.5t265 104.5t265 -104.5t94 -294.5t-94 -294.5t-265 -104.5zM495 1216h210q-7 74 -34 113t-71 39t-71 -39t-34 -113zM600 970q44 0 71 39t34 113h-210q7 -74 34 -113t71 -39z" />
    <glyph glyph-name="uni1E24" unicode="&#x1e24;" 
d="M813 0v585h-426v-585h-264v1420h264v-591h426v591h264v-1420h-264zM600 -448q-71 0 -121 50t-50 120q0 72 50 121.5t121 49.5t121 -49.5t50 -121.5q0 -70 -50 -120t-121 -50z" />
    <glyph glyph-name="uni1E25" unicode="&#x1e25;" 
d="M778 0v640q0 89 -39.5 137t-112.5 48q-204 0 -204 -279v-546h-271v1500h271v-632h26q15 109 74 160.5t175 51.5q168 0 260 -102t92 -288v-690h-271zM600 -448q-71 0 -121 50t-50 120q0 72 50 121.5t121 49.5t121 -49.5t50 -121.5q0 -70 -50 -120t-121 -50z" />
    <glyph glyph-name="uni1E30" unicode="&#x1e30;" 
d="M133 0v1420h264v-694q111 21 198.5 86.5t140.5 161t80 209t27 237.5h268q0 -215 -71 -407.5t-203 -327.5l342 -685h-326l-238 525q-103 -47 -218 -65v-460h-264zM472 1580l222 275h364l-304 -275h-282z" />
    <glyph glyph-name="uni1E32" unicode="&#x1e32;" 
d="M133 0v1420h264v-694q111 21 198.5 86.5t140.5 161t80 209t27 237.5h268q0 -215 -71 -407.5t-203 -327.5l342 -685h-326l-238 525q-103 -47 -218 -65v-460h-264zM620 -448q-71 0 -121 50t-50 120q0 72 50 121.5t121 49.5t121 -49.5t50 -121.5q0 -70 -50 -120t-121 -50z
" />
    <glyph glyph-name="uni1E33" unicode="&#x1e33;" 
d="M143 0v1500h271v-866h16q178 0 263.5 96t116.5 330h279q-48 -376 -224 -545l292 -515h-321l-199 394q-74 -17 -157 -17h-66v-377h-271zM620 -448q-71 0 -121 50t-50 120q0 72 50 121.5t121 49.5t121 -49.5t50 -121.5q0 -70 -50 -120t-121 -50z" />
    <glyph glyph-name="uni1E34" unicode="&#x1e34;" 
d="M133 0v1420h264v-694q111 21 198.5 86.5t140.5 161t80 209t27 237.5h268q0 -215 -71 -407.5t-203 -327.5l342 -685h-326l-238 525q-103 -47 -218 -65v-460h-264zM190 -459v251h860v-251h-860z" />
    <glyph glyph-name="uni1E35" unicode="&#x1e35;" 
d="M143 0v1500h271v-866h16q178 0 263.5 96t116.5 330h279q-48 -376 -224 -545l292 -515h-321l-199 394q-74 -17 -157 -17h-66v-377h-271zM190 -459v251h860v-251h-860z" />
    <glyph glyph-name="uni1E36" unicode="&#x1e36;" 
d="M143 0v1420h264v-1177h710v-243h-974zM620 -448q-71 0 -121 50t-50 120q0 72 50 121.5t121 49.5t121 -49.5t50 -121.5q0 -70 -50 -120t-121 -50z" />
    <glyph glyph-name="uni1E37" unicode="&#x1e37;" 
d="M758 -20q-200 0 -288.5 109.5t-88.5 352.5v809h-300v249h570v-1048q0 -106 37 -148t150 -42q88 0 222 38l31 -278q-160 -42 -333 -42zM680 -448q-71 0 -121 50t-50 120q0 72 50 121.5t121 49.5t121 -49.5t50 -121.5q0 -70 -50 -120t-121 -50z" />
    <glyph glyph-name="uni1E3A" unicode="&#x1e3a;" 
d="M143 0v1420h264v-1177h710v-243h-974zM190 -459v251h860v-251h-860z" />
    <glyph glyph-name="uni1E3B" unicode="&#x1e3b;" 
d="M758 -20q-200 0 -288.5 109.5t-88.5 352.5v809h-300v249h570v-1048q0 -106 37 -148t150 -42q88 0 222 38l31 -278q-160 -42 -333 -42zM250 -459v251h860v-251h-860z" />
    <glyph glyph-name="uni1E48" unicode="&#x1e48;" 
d="M672 0l-250 1110h-37v-1110h-254v1420h397l250 -1110h37v1110h254v-1420h-397zM170 -459v251h860v-251h-860z" />
    <glyph glyph-name="uni1E49" unicode="&#x1e49;" 
d="M778 0v623q0 96 -39.5 148t-112.5 52q-204 0 -204 -294v-529h-271v1060h242l25 -192h30q15 109 74 160.5t175 51.5q168 0 260 -102t92 -288v-690h-271zM170 -459v251h860v-251h-860z" />
    <glyph glyph-name="uni1E50" unicode="&#x1e50;" 
d="M600 -20q-541 0 -541 720q0 740 541 740t541 -740q0 -720 -541 -720zM600 232q264 0 264 468q0 489 -264 489t-264 -489q0 -468 264 -468zM213 1563v238h774v-238h-774zM464 1880l-303 275h363l222 -275h-282z" />
    <glyph glyph-name="uni1E51" unicode="&#x1e51;" 
d="M600 -20q-229 0 -355 144t-126 406t126 406t355 144t355 -144t126 -406t-126 -406t-355 -144zM170 1248v251h860v-251h-860zM600 237q93 0 143.5 76.5t50.5 216.5q0 141 -50.5 217t-143.5 76t-143.5 -76t-50.5 -217q0 -140 51 -216.5t143 -76.5zM487 1588l-207 380h287
l187 -380h-267z" />
    <glyph glyph-name="uni1E52" unicode="&#x1e52;" 
d="M600 -20q-541 0 -541 720q0 740 541 740t541 -740q0 -720 -541 -720zM600 232q264 0 264 468q0 489 -264 489t-264 -489q0 -468 264 -468zM213 1563v238h774v-238h-774zM452 1880l222 275h364l-304 -275h-282z" />
    <glyph glyph-name="uni1E53" unicode="&#x1e53;" 
d="M600 -20q-229 0 -355 144t-126 406t126 406t355 144t355 -144t126 -406t-126 -406t-355 -144zM170 1248v251h860v-251h-860zM600 237q93 0 143.5 76.5t50.5 216.5q0 141 -50.5 217t-143.5 76t-143.5 -76t-50.5 -217q0 -140 51 -216.5t143 -76.5zM462 1588l186 380h287
l-206 -380h-267z" />
    <glyph glyph-name="uni1E5A" unicode="&#x1e5a;" 
d="M123 0v1420h505q229 0 354 -112.5t125 -317.5q0 -146 -54.5 -250.5t-157.5 -160.5l264 -579h-315l-209 520h-7h-241v-520h-264zM387 763h241q92 0 143 54.5t51 152.5q0 99 -51 153t-143 54h-241v-414zM610 -448q-71 0 -121 50t-50 120q0 72 50 121.5t121 49.5t121 -49.5
t50 -121.5q0 -70 -50 -120t-121 -50z" />
    <glyph glyph-name="uni1E5B" unicode="&#x1e5b;" 
d="M557 456v-224h248v-232h-742v232h224v596h-184v232h414l31 -239h38q16 259 271 259q151 0 231.5 -111.5t80.5 -319.5h-269q0 93 -34.5 134.5t-111.5 41.5q-98 0 -147.5 -95t-49.5 -274zM430 -448q-71 0 -121 50t-50 120q0 72 50 121.5t121 49.5t121 -49.5t50 -121.5
q0 -70 -50 -120t-121 -50z" />
    <glyph glyph-name="uni1E62" unicode="&#x1e62;" 
d="M551 -20q-252 0 -439 78l36 270q226 -96 419 -96q107 0 164 38t57 109q0 44 -30.5 83t-86.5 65l-204 99q-152 74 -234.5 183.5t-82.5 240.5q0 186 123 288t348 102q131 0 248.5 -46t208.5 -133l-182 -209q-143 137 -274 137q-89 0 -137.5 -38t-48.5 -108q0 -95 133 -165
l192 -99q151 -79 232 -183t81 -222q0 -189 -136 -291.5t-387 -102.5zM610 -448q-71 0 -121 50t-50 120q0 72 50 121.5t121 49.5t121 -49.5t50 -121.5q0 -70 -50 -120t-121 -50z" />
    <glyph glyph-name="uni1E63" unicode="&#x1e63;" 
d="M518 -20q-238 0 -379 30l32 259q256 -32 347 -32q131 0 189.5 18.5t58.5 59.5q0 24 -15 38t-48 24l-335 100q-108 32 -160.5 95.5t-52.5 169.5q0 171 144 254.5t437 83.5q129 0 297 -20l-29 -251q-171 14 -274 14q-152 0 -220 -17.5t-68 -57.5q0 -25 14 -38.5t46 -22.5
l287 -82q138 -40 205 -110t67 -181q0 -169 -134.5 -251.5t-408.5 -82.5zM590 -448q-71 0 -121 50t-50 120q0 72 50 121.5t121 49.5t121 -49.5t50 -121.5q0 -70 -50 -120t-121 -50z" />
    <glyph glyph-name="uni1E6E" unicode="&#x1e6e;" 
d="M468 0v1177h-405v243h1074v-243h-405v-1177h-264zM165 -459v251h860v-251h-860z" />
    <glyph glyph-name="Wgrave" unicode="&#x1e80;" 
d="M155 0l-152 1420h260l87 -1185h28l106 825h234l104 -825h28l87 1185h260l-152 -1420h-359l-80 787h-12l-80 -787h-359zM464 1580l-303 275h363l222 -275h-282z" />
    <glyph glyph-name="wgrave" unicode="&#x1e81;" 
d="M703 0l-107 799h-12l-107 -799h-354l-70 1060h263l38 -808h18l121 808h194l121 -808h18l65 808h256l-100 -1060h-344zM477 1248l-207 380h287l187 -380h-267z" />
    <glyph glyph-name="Wacute" unicode="&#x1e82;" 
d="M155 0l-152 1420h260l87 -1185h28l106 825h234l104 -825h28l87 1185h260l-152 -1420h-359l-80 787h-12l-80 -787h-359zM452 1580l222 275h364l-304 -275h-282z" />
    <glyph glyph-name="wacute" unicode="&#x1e83;" 
d="M703 0l-107 799h-12l-107 -799h-354l-70 1060h263l38 -808h18l121 808h194l121 -808h18l65 808h256l-100 -1060h-344zM452 1248l186 380h287l-206 -380h-267z" />
    <glyph glyph-name="Wdieresis" unicode="&#x1e84;" 
d="M155 0l-152 1420h260l87 -1185h28l106 825h234l104 -825h28l87 1185h260l-152 -1420h-359l-80 787h-12l-80 -787h-359zM359 1586q-71 0 -121 50t-50 121t50 120.5t121 49.5t120.5 -49.5t49.5 -120.5t-49.5 -121t-120.5 -50zM841 1586q-71 0 -120.5 50t-49.5 121
t49.5 120.5t120.5 49.5t121 -49.5t50 -120.5t-50 -121t-121 -50z" />
    <glyph glyph-name="wdieresis" unicode="&#x1e85;" 
d="M703 0l-107 799h-12l-107 -799h-354l-70 1060h263l38 -808h18l121 808h194l121 -808h18l65 808h256l-100 -1060h-344zM816 1231q-65 0 -111 46.5t-46 111.5q0 66 46 111.5t111 45.5q66 0 112 -45.5t46 -111.5q0 -65 -46.5 -111.5t-111.5 -46.5zM368 1231q-65 0 -111 46.5
t-46 111.5q0 66 46 111.5t111 45.5t111 -45.5t46 -111.5q0 -65 -46 -111.5t-111 -46.5z" />
    <glyph glyph-name="uni1E9E" unicode="&#x1e9e;" 
d="M123 0v930q0 268 126 389t407 121q264 0 465 -170h1l-223 -425q133 -50 204 -152.5t71 -246.5q0 -222 -134.5 -344t-378.5 -122q-120 0 -202 23l26 248q98 -18 192 -18q104 0 161.5 52t57.5 147q0 73 -46 127t-129 78l-175 50l249 471q-69 30 -139 30q-141 1 -205 -60.5
t-64 -197.5v-930h-264z" />
    <glyph glyph-name="uni1EA0" unicode="&#x1ea0;" 
d="M28 0l410 1420h324l410 -1420h-285l-70 269h-434l-70 -269h-285zM600 -448q-71 0 -121 50t-50 120q0 72 50 121.5t121 49.5t121 -49.5t50 -121.5q0 -70 -50 -120t-121 -50zM446 513h308l-145 560h-18z" />
    <glyph glyph-name="uni1EA1" unicode="&#x1ea1;" 
d="M795 -10l-17 234h-24q-14 -121 -96 -182.5t-222 -61.5q-170 0 -263.5 83t-93.5 236q0 177 123 272.5t349 95.5q121 0 217 -21v3q0 84 -71 124t-217 44l-271 7l20 246l231 -3q568 -7 568 -433v-392l147 -22v-220zM600 -448q-71 0 -121 50t-50 120q0 72 50 121.5t121 49.5
t121 -49.5t50 -121.5q0 -70 -50 -120t-121 -50zM768 423q-77 16 -204 16q-210 0 -210 -120q0 -54 38 -82.5t111 -28.5q121 0 191.5 64t73.5 151z" />
    <glyph glyph-name="uni1EA2" unicode="&#x1ea2;" 
d="M28 0l410 1420h324l410 -1420h-285l-70 269h-434l-70 -269h-285zM511 1529v21q0 48 66 95q38 23 38 49q0 34 -65 34q-87 0 -148 -43l-67 144q86 83 273 83q252 0 252 -171q0 -59 -28.5 -97.5t-98.5 -79.5q-3 -2 -8.5 -5t-8 -4.5t-6.5 -4t-6 -3.5t-4.5 -3t-4 -3.5
t-2.5 -3.5t-1.5 -4t-0.5 -4h-180zM446 513h308l-145 560h-18z" />
    <glyph glyph-name="uni1EA3" unicode="&#x1ea3;" 
d="M795 -10l-17 234h-24q-14 -121 -96 -182.5t-222 -61.5q-170 0 -263.5 83t-93.5 236q0 177 123 272.5t349 95.5q121 0 217 -21v3q0 84 -71 124t-217 44l-271 7l20 246l231 -3q568 -7 568 -433v-392l147 -22v-220zM477 1248v36q0 33 14 61t31 44.5t31 37.5t14 41
q0 18 -14.5 29t-38.5 11q-57 0 -99 -35l-76 144q36 34 103.5 54.5t142.5 20.5q109 0 174.5 -48t65.5 -128q0 -46 -22.5 -82t-49 -56.5t-49 -52t-22.5 -68.5v-9h-205zM768 423q-77 16 -204 16q-210 0 -210 -120q0 -54 38 -82.5t111 -28.5q121 0 191.5 64t73.5 151z" />
    <glyph glyph-name="uni1EA4" unicode="&#x1ea4;" 
d="M28 0l410 1420h324l410 -1420h-285l-70 269h-434l-70 -269h-285zM222 1580l243 260h272l243 -260h-297l-82 115l-82 -115h-297zM446 513h308l-145 560h-18zM836 1828l222 275h364l-304 -275h-282z" />
    <glyph glyph-name="uni1EA5" unicode="&#x1ea5;" 
d="M795 -10l-17 234h-24q-14 -121 -96 -182.5t-222 -61.5q-170 0 -263.5 83t-93.5 236q0 177 123 272.5t349 95.5q121 0 217 -21v3q0 84 -71 124t-217 44l-271 7l20 246l231 -3q568 -7 568 -433v-392l147 -22v-220zM196 1248l240 380h288l240 -380h-295l-89 221l-89 -221
h-295zM800 1588l186 380h287l-206 -380h-267zM768 423q-77 16 -204 16q-210 0 -210 -120q0 -54 38 -82.5t111 -28.5q121 0 191.5 64t73.5 151z" />
    <glyph glyph-name="uni1EA6" unicode="&#x1ea6;" 
d="M28 0l410 1420h324l410 -1420h-285l-70 269h-434l-70 -269h-285zM222 1580l243 260h272l243 -260h-297l-82 115l-82 -115h-297zM446 513h308l-145 560h-18zM848 1828l-303 275h363l222 -275h-282z" />
    <glyph glyph-name="uni1EA7" unicode="&#x1ea7;" 
d="M795 -10l-17 234h-24q-14 -121 -96 -182.5t-222 -61.5q-170 0 -263.5 83t-93.5 236q0 177 123 272.5t349 95.5q121 0 217 -21v3q0 84 -71 124t-217 44l-271 7l20 246l231 -3q568 -7 568 -433v-392l147 -22v-220zM196 1248l240 380h288l240 -380h-295l-89 221l-89 -221
h-295zM825 1588l-207 380h287l187 -380h-267zM768 423q-77 16 -204 16q-210 0 -210 -120q0 -54 38 -82.5t111 -28.5q121 0 191.5 64t73.5 151z" />
    <glyph glyph-name="uni1EA8" unicode="&#x1ea8;" 
d="M28 0l410 1420h324l410 -1420h-285l-70 269h-434l-70 -269h-285zM895 1777v21q0 48 66 95q38 23 38 49q0 34 -65 34q-87 0 -148 -43l-67 144q86 83 273 83q252 0 252 -171q0 -59 -28.5 -97.5t-98.5 -79.5q-3 -2 -8.5 -5t-8 -4.5t-6.5 -4t-6 -3.5t-4.5 -3t-4 -3.5
t-2.5 -3.5t-1.5 -4t-0.5 -4h-180zM222 1580l243 260h272l243 -260h-297l-82 115l-82 -115h-297zM446 513h308l-145 560h-18z" />
    <glyph glyph-name="uni1EA9" unicode="&#x1ea9;" 
d="M795 -10l-17 234h-24q-14 -121 -96 -182.5t-222 -61.5q-170 0 -263.5 83t-93.5 236q0 177 123 272.5t349 95.5q121 0 217 -21v3q0 84 -71 124t-217 44l-271 7l20 246l231 -3q568 -7 568 -433v-392l147 -22v-220zM196 1248l240 380h288l240 -380h-295l-89 221l-89 -221
h-295zM835 1588v36q0 33 14 61t31 44.5t31 37.5t14 41q0 18 -14.5 29t-38.5 11q-57 0 -99 -35l-76 144q36 34 103 54.5t143 20.5q109 0 174.5 -48t65.5 -128q0 -46 -22.5 -82t-49 -56.5t-49 -52t-22.5 -68.5v-9h-205zM768 423q-77 16 -204 16q-210 0 -210 -120
q0 -54 38 -82.5t111 -28.5q121 0 191.5 64t73.5 151z" />
    <glyph glyph-name="uni1EAA" unicode="&#x1eaa;" 
d="M28 0l410 1420h324l410 -1420h-285l-70 269h-434l-70 -269h-285zM208 1946v50q0 143 54.5 209t172.5 66q75 0 155 -32q103 -43 132 -43q33 0 33 47v52h257v-50q0 -138 -49 -201.5t-156 -63.5q-76 0 -176 47q-78 36 -108 36t-43.5 -13.5t-13.5 -43.5v-60h-258zM222 1580
l243 260h272l243 -260h-297l-82 115l-82 -115h-297zM446 513h308l-145 560h-18z" />
    <glyph glyph-name="uni1EAB" unicode="&#x1eab;" 
d="M795 -10l-17 234h-24q-14 -121 -96 -182.5t-222 -61.5q-170 0 -263.5 83t-93.5 236q0 177 123 272.5t349 95.5q121 0 217 -21v3q0 84 -71 124t-217 44l-271 7l20 246l231 -3q568 -7 568 -433v-392l147 -22v-220zM188 1776v40q0 292 235 292q43 0 75.5 -12t81.5 -41
q7 -4 18 -10.5t16.5 -10t14.5 -7.5t15 -6t14.5 -3.5t17.5 -1.5q54 0 54 60v61h247v-97q0 -121 -43.5 -180.5t-136.5 -59.5q-77 0 -171 50q-5 3 -20 11.5t-19 10.5t-15.5 7.5t-17.5 7t-15.5 3.5t-18.5 2q-38 0 -56 -16.5t-18 -57.5v-42h-258zM196 1248l240 380h288l240 -380
h-295l-89 221l-89 -221h-295zM768 423q-77 16 -204 16q-210 0 -210 -120q0 -54 38 -82.5t111 -28.5q121 0 191.5 64t73.5 151z" />
    <glyph glyph-name="uni1EAC" unicode="&#x1eac;" 
d="M28 0l410 1420h324l410 -1420h-285l-70 269h-434l-70 -269h-285zM222 1580l243 260h272l243 -260h-297l-82 115l-82 -115h-297zM600 -448q-71 0 -121 50t-50 120q0 72 50 121.5t121 49.5t121 -49.5t50 -121.5q0 -70 -50 -120t-121 -50zM446 513h308l-145 560h-18z" />
    <glyph glyph-name="uni1EAD" unicode="&#x1ead;" 
d="M795 -10l-17 234h-24q-14 -121 -96 -182.5t-222 -61.5q-170 0 -263.5 83t-93.5 236q0 177 123 272.5t349 95.5q121 0 217 -21v3q0 84 -71 124t-217 44l-271 7l20 246l231 -3q568 -7 568 -433v-392l147 -22v-220zM196 1248l240 380h288l240 -380h-295l-89 221l-89 -221
h-295zM600 -448q-71 0 -121 50t-50 120q0 72 50 121.5t121 49.5t121 -49.5t50 -121.5q0 -70 -50 -120t-121 -50zM768 423q-77 16 -204 16q-210 0 -210 -120q0 -54 38 -82.5t111 -28.5q121 0 191.5 64t73.5 151z" />
    <glyph glyph-name="uni1EAE" unicode="&#x1eae;" 
d="M28 0l410 1420h324l410 -1420h-285l-70 269h-434l-70 -269h-285zM600 1553q-186 0 -288.5 80.5t-102.5 226.5h267q0 -69 31.5 -99t92.5 -30q62 0 93 30t31 99h267q0 -146 -102.5 -226.5t-288.5 -80.5zM446 513h308l-145 560h-18zM452 1980l222 275h364l-304 -275h-282z
" />
    <glyph glyph-name="uni1EAF" unicode="&#x1eaf;" 
d="M795 -10l-17 234h-24q-14 -121 -96 -182.5t-222 -61.5q-170 0 -263.5 83t-93.5 236q0 177 123 272.5t349 95.5q121 0 217 -21v3q0 84 -71 124t-217 44l-271 7l20 246l231 -3q568 -7 568 -433v-392l147 -22v-220zM580 1238q-186 0 -288.5 84t-102.5 238v43h259v-43
q0 -62 34 -95t98 -33t98 33t34 95v43h259v-43q0 -154 -102.5 -238t-288.5 -84zM442 1728l186 380h287l-206 -380h-267zM768 423q-77 16 -204 16q-210 0 -210 -120q0 -54 38 -82.5t111 -28.5q121 0 191.5 64t73.5 151z" />
    <glyph glyph-name="uni1EB0" unicode="&#x1eb0;" 
d="M28 0l410 1420h324l410 -1420h-285l-70 269h-434l-70 -269h-285zM600 1553q-186 0 -288.5 80.5t-102.5 226.5h267q0 -69 31.5 -99t92.5 -30q62 0 93 30t31 99h267q0 -146 -102.5 -226.5t-288.5 -80.5zM446 513h308l-145 560h-18zM464 1980l-303 275h363l222 -275h-282z
" />
    <glyph glyph-name="uni1EB1" unicode="&#x1eb1;" 
d="M795 -10l-17 234h-24q-14 -121 -96 -182.5t-222 -61.5q-170 0 -263.5 83t-93.5 236q0 177 123 272.5t349 95.5q121 0 217 -21v3q0 84 -71 124t-217 44l-271 7l20 246l231 -3q568 -7 568 -433v-392l147 -22v-220zM580 1238q-186 0 -288.5 84t-102.5 238v43h259v-43
q0 -62 34 -95t98 -33t98 33t34 95v43h259v-43q0 -154 -102.5 -238t-288.5 -84zM467 1728l-207 380h287l187 -380h-267zM768 423q-77 16 -204 16q-210 0 -210 -120q0 -54 38 -82.5t111 -28.5q121 0 191.5 64t73.5 151z" />
    <glyph glyph-name="uni1EB2" unicode="&#x1eb2;" 
d="M28 0l410 1420h324l410 -1420h-285l-70 269h-434l-70 -269h-285zM600 1553q-186 0 -288.5 80.5t-102.5 226.5h267q0 -69 31.5 -99t92.5 -30q62 0 93 30t31 99h267q0 -146 -102.5 -226.5t-288.5 -80.5zM511 1929v21q0 48 66 95q38 23 38 49q0 34 -65 34q-87 0 -148 -43
l-67 144q86 83 273 83q252 0 252 -171q0 -59 -28.5 -97.5t-98.5 -79.5q-3 -2 -8.5 -5t-8 -4.5t-6.5 -4t-6 -3.5t-4.5 -3t-4 -3.5t-2.5 -3.5t-1.5 -4t-0.5 -4h-180zM446 513h308l-145 560h-18z" />
    <glyph glyph-name="uni1EB3" unicode="&#x1eb3;" 
d="M795 -10l-17 234h-24q-14 -121 -96 -182.5t-222 -61.5q-170 0 -263.5 83t-93.5 236q0 177 123 272.5t349 95.5q121 0 217 -21v3q0 84 -71 124t-217 44l-271 7l20 246l231 -3q568 -7 568 -433v-392l147 -22v-220zM580 1238q-186 0 -288.5 84t-102.5 238v43h259v-43
q0 -62 34 -95t98 -33t98 33t34 95v43h259v-43q0 -154 -102.5 -238t-288.5 -84zM477 1728v36q0 33 14 61t31 44.5t31 37.5t14 41q0 18 -14.5 29t-38.5 11q-57 0 -99 -35l-76 144q36 34 103.5 54.5t142.5 20.5q109 0 174.5 -48t65.5 -128q0 -46 -22.5 -82t-49 -56.5t-49 -52
t-22.5 -68.5v-9h-205zM768 423q-77 16 -204 16q-210 0 -210 -120q0 -54 38 -82.5t111 -28.5q121 0 191.5 64t73.5 151z" />
    <glyph glyph-name="uni1EB4" unicode="&#x1eb4;" 
d="M28 0l410 1420h324l410 -1420h-285l-70 269h-434l-70 -269h-285zM208 1966v50q0 143 54.5 209t172.5 66q75 0 155 -32q103 -43 132 -43q33 0 33 47v52h257v-50q0 -138 -49 -201.5t-156 -63.5q-76 0 -176 47q-78 36 -108 36t-43.5 -13.5t-13.5 -43.5v-60h-258zM600 1553
q-186 0 -288.5 80.5t-102.5 226.5h267q0 -69 31.5 -99t92.5 -30q62 0 93 30t31 99h267q0 -146 -102.5 -226.5t-288.5 -80.5zM446 513h308l-145 560h-18z" />
    <glyph glyph-name="uni1EB5" unicode="&#x1eb5;" 
d="M795 -10l-17 234h-24q-14 -121 -96 -182.5t-222 -61.5q-170 0 -263.5 83t-93.5 236q0 177 123 272.5t349 95.5q121 0 217 -21v3q0 84 -71 124t-217 44l-271 7l20 246l231 -3q568 -7 568 -433v-392l147 -22v-220zM188 1736v40q0 292 235 292q43 0 75.5 -12t81.5 -41
q7 -4 18 -10.5t16.5 -10t14.5 -7.5t15 -6t14.5 -3.5t17.5 -1.5q54 0 54 60v61h247v-97q0 -121 -43.5 -180.5t-136.5 -59.5q-77 0 -171 50q-5 3 -20 11.5t-19 10.5t-15.5 7.5t-17.5 7t-15.5 3.5t-18.5 2q-38 0 -56 -16.5t-18 -57.5v-42h-258zM580 1238q-186 0 -288.5 84
t-102.5 238v43h259v-43q0 -62 34 -95t98 -33t98 33t34 95v43h259v-43q0 -154 -102.5 -238t-288.5 -84zM768 423q-77 16 -204 16q-210 0 -210 -120q0 -54 38 -82.5t111 -28.5q121 0 191.5 64t73.5 151z" />
    <glyph glyph-name="uni1EB6" unicode="&#x1eb6;" 
d="M28 0l410 1420h324l410 -1420h-285l-70 269h-434l-70 -269h-285zM600 1553q-186 0 -288.5 80.5t-102.5 226.5h267q0 -69 31.5 -99t92.5 -30q62 0 93 30t31 99h267q0 -146 -102.5 -226.5t-288.5 -80.5zM600 -448q-71 0 -121 50t-50 120q0 72 50 121.5t121 49.5t121 -49.5
t50 -121.5q0 -70 -50 -120t-121 -50zM446 513h308l-145 560h-18z" />
    <glyph glyph-name="uni1EB7" unicode="&#x1eb7;" 
d="M795 -10l-17 234h-24q-14 -121 -96 -182.5t-222 -61.5q-170 0 -263.5 83t-93.5 236q0 177 123 272.5t349 95.5q121 0 217 -21v3q0 84 -71 124t-217 44l-271 7l20 246l231 -3q568 -7 568 -433v-392l147 -22v-220zM580 1238q-186 0 -288.5 84t-102.5 238v43h259v-43
q0 -62 34 -95t98 -33t98 33t34 95v43h259v-43q0 -154 -102.5 -238t-288.5 -84zM600 -448q-71 0 -121 50t-50 120q0 72 50 121.5t121 49.5t121 -49.5t50 -121.5q0 -70 -50 -120t-121 -50zM768 423q-77 16 -204 16q-210 0 -210 -120q0 -54 38 -82.5t111 -28.5q121 0 191.5 64
t73.5 151z" />
    <glyph glyph-name="uni1EB8" unicode="&#x1eb8;" 
d="M143 0v1420h974v-243h-710v-344h530v-244h-530v-346h710v-243h-974zM630 -448q-71 0 -121 50t-50 120q0 72 50 121.5t121 49.5t121 -49.5t50 -121.5q0 -70 -50 -120t-121 -50z" />
    <glyph glyph-name="uni1EB9" unicode="&#x1eb9;" 
d="M694 -20q-276 0 -425.5 143t-149.5 409q0 260 128 404t359 144q228 0 351.5 -134t123.5 -386q0 -72 -6 -137h-673q62 -187 316 -187q134 0 285 28l26 -256q-159 -28 -335 -28zM630 -448q-71 0 -121 50t-50 120q0 72 50 121.5t121 49.5t121 -49.5t50 -121.5
q0 -70 -50 -120t-121 -50zM389 611h426q0 106 -54.5 163.5t-152.5 57.5q-91 0 -148 -57t-71 -164z" />
    <glyph glyph-name="uni1EBA" unicode="&#x1eba;" 
d="M143 0v1420h974v-243h-710v-344h530v-244h-530v-346h710v-243h-974zM541 1529v21q0 48 66 95q38 23 38 49q0 34 -65 34q-87 0 -148 -43l-67 144q86 83 273 83q252 0 252 -171q0 -59 -28.5 -97.5t-98.5 -79.5q-3 -2 -8.5 -5t-8 -4.5t-6.5 -4t-6 -3.5t-4.5 -3t-4 -3.5
t-2.5 -3.5t-1.5 -4t-0.5 -4h-180z" />
    <glyph glyph-name="uni1EBB" unicode="&#x1ebb;" 
d="M694 -20q-276 0 -425.5 143t-149.5 409q0 260 128 404t359 144q228 0 351.5 -134t123.5 -386q0 -72 -6 -137h-673q62 -187 316 -187q134 0 285 28l26 -256q-159 -28 -335 -28zM507 1248v36q0 33 14 61t31 44.5t31 37.5t14 41q0 18 -14.5 29t-38.5 11q-57 0 -99 -35
l-76 144q36 34 103.5 54.5t142.5 20.5q109 0 174.5 -48t65.5 -128q0 -46 -22.5 -82t-49 -56.5t-49 -52t-22.5 -68.5v-9h-205zM389 611h426q0 106 -54.5 163.5t-152.5 57.5q-91 0 -148 -57t-71 -164z" />
    <glyph glyph-name="uni1EBC" unicode="&#x1ebc;" 
d="M143 0v1420h974v-243h-710v-344h530v-244h-530v-346h710v-243h-974zM238 1566v50q0 143 54.5 209t172.5 66q75 0 155 -32q103 -43 132 -43q33 0 33 47v52h257v-50q0 -138 -49 -201.5t-156 -63.5q-76 0 -176 47q-78 36 -108 36t-43.5 -13.5t-13.5 -43.5v-60h-258z" />
    <glyph glyph-name="uni1EBD" unicode="&#x1ebd;" 
d="M694 -20q-276 0 -425.5 143t-149.5 409q0 260 128 404t359 144q228 0 351.5 -134t123.5 -386q0 -72 -6 -137h-673q62 -187 316 -187q134 0 285 28l26 -256q-159 -28 -335 -28zM218 1256v40q0 292 235 292q43 0 75.5 -12t81.5 -41q7 -4 18 -10.5t16.5 -10t14.5 -7.5t15 -6
t14.5 -3.5t17.5 -1.5q54 0 54 60v61h247v-97q0 -121 -43.5 -180.5t-136.5 -59.5q-77 0 -171 50q-5 3 -20 11.5t-19 10.5t-15.5 7.5t-17.5 7t-15.5 3.5t-18.5 2q-38 0 -56 -16.5t-18 -57.5v-42h-258zM389 611h426q0 106 -54.5 163.5t-152.5 57.5q-91 0 -148 -57t-71 -164z
" />
    <glyph glyph-name="uni1EBE" unicode="&#x1ebe;" 
d="M143 0v1420h974v-243h-710v-344h530v-244h-530v-346h710v-243h-974zM252 1580l243 260h272l243 -260h-297l-82 115l-82 -115h-297zM866 1828l222 275h364l-304 -275h-282z" />
    <glyph glyph-name="uni1EBF" unicode="&#x1ebf;" 
d="M694 -20q-276 0 -425.5 143t-149.5 409q0 260 128 404t359 144q228 0 351.5 -134t123.5 -386q0 -72 -6 -137h-673q62 -187 316 -187q134 0 285 28l26 -256q-159 -28 -335 -28zM226 1248l240 380h288l240 -380h-295l-89 221l-89 -221h-295zM830 1588l186 380h287
l-206 -380h-267zM389 611h426q0 106 -54.5 163.5t-152.5 57.5q-91 0 -148 -57t-71 -164z" />
    <glyph glyph-name="uni1EC0" unicode="&#x1ec0;" 
d="M143 0v1420h974v-243h-710v-344h530v-244h-530v-346h710v-243h-974zM252 1580l243 260h272l243 -260h-297l-82 115l-82 -115h-297zM878 1828l-303 275h363l222 -275h-282z" />
    <glyph glyph-name="uni1EC1" unicode="&#x1ec1;" 
d="M694 -20q-276 0 -425.5 143t-149.5 409q0 260 128 404t359 144q228 0 351.5 -134t123.5 -386q0 -72 -6 -137h-673q62 -187 316 -187q134 0 285 28l26 -256q-159 -28 -335 -28zM226 1248l240 380h288l240 -380h-295l-89 221l-89 -221h-295zM944 1588l-207 380h287
l187 -380h-267zM389 611h426q0 106 -54.5 163.5t-152.5 57.5q-91 0 -148 -57t-71 -164z" />
    <glyph glyph-name="uni1EC2" unicode="&#x1ec2;" 
d="M143 0v1420h974v-243h-710v-344h530v-244h-530v-346h710v-243h-974zM925 1777v21q0 48 66 95q38 23 38 49q0 34 -65 34q-87 0 -148 -43l-67 144q86 83 273 83q252 0 252 -171q0 -59 -28.5 -97.5t-98.5 -79.5q-3 -2 -8.5 -5t-8 -4.5t-6.5 -4t-6 -3.5t-4.5 -3t-4 -3.5
t-2.5 -3.5t-1.5 -4t-0.5 -4h-180zM252 1580l243 260h272l243 -260h-297l-82 115l-82 -115h-297z" />
    <glyph glyph-name="uni1EC3" unicode="&#x1ec3;" 
d="M694 -20q-276 0 -425.5 143t-149.5 409q0 260 128 404t359 144q228 0 351.5 -134t123.5 -386q0 -72 -6 -137h-673q62 -187 316 -187q134 0 285 28l26 -256q-159 -28 -335 -28zM226 1248l240 380h288l240 -380h-295l-89 221l-89 -221h-295zM865 1588v36q0 33 14 61
t31 44.5t31 37.5t14 41q0 18 -14.5 29t-38.5 11q-57 0 -99 -35l-76 144q36 34 103.5 54.5t142.5 20.5q109 0 174.5 -48t65.5 -128q0 -46 -22.5 -82t-49 -56.5t-49 -52t-22.5 -68.5v-9h-205zM389 611h426q0 106 -54.5 163.5t-152.5 57.5q-91 0 -148 -57t-71 -164z" />
    <glyph glyph-name="uni1EC4" unicode="&#x1ec4;" 
d="M143 0v1420h974v-243h-710v-344h530v-244h-530v-346h710v-243h-974zM238 1946v50q0 143 54.5 209t172.5 66q75 0 155 -32q103 -43 132 -43q33 0 33 47v52h257v-50q0 -138 -49 -201.5t-156 -63.5q-76 0 -176 47q-78 36 -108 36t-43.5 -13.5t-13.5 -43.5v-60h-258z
M252 1580l243 260h272l243 -260h-297l-82 115l-82 -115h-297z" />
    <glyph glyph-name="uni1EC5" unicode="&#x1ec5;" 
d="M694 -20q-276 0 -425.5 143t-149.5 409q0 260 128 404t359 144q228 0 351.5 -134t123.5 -386q0 -72 -6 -137h-673q62 -187 316 -187q134 0 285 28l26 -256q-159 -28 -335 -28zM218 1776v40q0 292 235 292q43 0 75.5 -12t81.5 -41q7 -4 18 -10.5t16.5 -10t14.5 -7.5t15 -6
t14.5 -3.5t17.5 -1.5q54 0 54 60v61h247v-97q0 -121 -43.5 -180.5t-136.5 -59.5q-77 0 -171 50q-5 3 -20 11.5t-19 10.5t-15.5 7.5t-17.5 7t-15.5 3.5t-18.5 2q-38 0 -56 -16.5t-18 -57.5v-42h-258zM226 1248l240 380h288l240 -380h-295l-89 221l-89 -221h-295zM389 611h426
q0 106 -54.5 163.5t-152.5 57.5q-91 0 -148 -57t-71 -164z" />
    <glyph glyph-name="uni1EC6" unicode="&#x1ec6;" 
d="M143 0v1420h974v-243h-710v-344h530v-244h-530v-346h710v-243h-974zM252 1580l243 260h272l243 -260h-297l-82 115l-82 -115h-297zM630 -448q-71 0 -121 50t-50 120q0 72 50 121.5t121 49.5t121 -49.5t50 -121.5q0 -70 -50 -120t-121 -50z" />
    <glyph glyph-name="uni1EC7" unicode="&#x1ec7;" 
d="M694 -20q-276 0 -425.5 143t-149.5 409q0 260 128 404t359 144q228 0 351.5 -134t123.5 -386q0 -72 -6 -137h-673q62 -187 316 -187q134 0 285 28l26 -256q-159 -28 -335 -28zM226 1248l240 380h288l240 -380h-295l-89 221l-89 -221h-295zM630 -448q-71 0 -121 50
t-50 120q0 72 50 121.5t121 49.5t121 -49.5t50 -121.5q0 -70 -50 -120t-121 -50zM389 611h426q0 106 -54.5 163.5t-152.5 57.5q-91 0 -148 -57t-71 -164z" />
    <glyph glyph-name="uni1EC8" unicode="&#x1ec8;" 
d="M151 0v238h316v945h-316v237h898v-237h-318v-945h318v-238h-898zM511 1529v21q0 48 66 95q38 23 38 49q0 34 -65 34q-87 0 -148 -43l-67 144q86 83 273 83q252 0 252 -171q0 -59 -28.5 -97.5t-98.5 -79.5q-3 -2 -8.5 -5t-8 -4.5t-6.5 -4t-6 -3.5t-4.5 -3t-4 -3.5
t-2.5 -3.5t-1.5 -4t-0.5 -4h-180z" />
    <glyph glyph-name="uni1EC9" unicode="&#x1ec9;" 
d="M143 0v250h392v560h-332v250h602v-810h314v-250h-976zM547 1248v36q0 33 14 61t31 44.5t31 37.5t14 41q0 18 -14.5 29t-38.5 11q-57 0 -99 -35l-76 144q36 34 103.5 54.5t142.5 20.5q109 0 174.5 -48t65.5 -128q0 -46 -22.5 -82t-49 -56.5t-49 -52t-22.5 -68.5v-9h-205z
" />
    <glyph glyph-name="uni1ECA" unicode="&#x1eca;" 
d="M151 0v238h316v945h-316v237h898v-237h-318v-945h318v-238h-898zM600 -448q-71 0 -121 50t-50 120q0 72 50 121.5t121 49.5t121 -49.5t50 -121.5q0 -70 -50 -120t-121 -50z" />
    <glyph glyph-name="uni1ECB" unicode="&#x1ecb;" 
d="M143 0v250h392v560h-332v250h602v-810h314v-250h-976zM658 1203q-77 0 -125 48t-48 125t48 125t125 48t125 -48t48 -125t-48 -125t-125 -48zM670 -448q-71 0 -121 50t-50 120q0 72 50 121.5t121 49.5t121 -49.5t50 -121.5q0 -70 -50 -120t-121 -50z" />
    <glyph glyph-name="uni1ECC" unicode="&#x1ecc;" 
d="M600 -20q-541 0 -541 720q0 740 541 740t541 -740q0 -720 -541 -720zM600 232q264 0 264 468q0 489 -264 489t-264 -489q0 -468 264 -468zM600 -448q-71 0 -121 50t-50 120q0 72 50 121.5t121 49.5t121 -49.5t50 -121.5q0 -70 -50 -120t-121 -50z" />
    <glyph glyph-name="uni1ECD" unicode="&#x1ecd;" 
d="M600 -20q-229 0 -355 144t-126 406t126 406t355 144t355 -144t126 -406t-126 -406t-355 -144zM600 237q93 0 143.5 76.5t50.5 216.5q0 141 -50.5 217t-143.5 76t-143.5 -76t-50.5 -217q0 -140 51 -216.5t143 -76.5zM600 -448q-71 0 -121 50t-50 120q0 72 50 121.5
t121 49.5t121 -49.5t50 -121.5q0 -70 -50 -120t-121 -50z" />
    <glyph glyph-name="uni1ECE" unicode="&#x1ece;" 
d="M600 -20q-541 0 -541 720q0 740 541 740t541 -740q0 -720 -541 -720zM600 232q264 0 264 468q0 489 -264 489t-264 -489q0 -468 264 -468zM511 1529v21q0 48 66 95q38 23 38 49q0 34 -65 34q-87 0 -148 -43l-67 144q86 83 273 83q252 0 252 -171q0 -59 -28.5 -97.5
t-98.5 -79.5q-3 -2 -8.5 -5t-8 -4.5t-6.5 -4t-6 -3.5t-4.5 -3t-4 -3.5t-2.5 -3.5t-1.5 -4t-0.5 -4h-180z" />
    <glyph glyph-name="uni1ECF" unicode="&#x1ecf;" 
d="M600 -20q-229 0 -355 144t-126 406t126 406t355 144t355 -144t126 -406t-126 -406t-355 -144zM600 237q93 0 143.5 76.5t50.5 216.5q0 141 -50.5 217t-143.5 76t-143.5 -76t-50.5 -217q0 -140 51 -216.5t143 -76.5zM497 1248v36q0 33 14 61t31 44.5t31 37.5t14 41
q0 18 -14.5 29t-38.5 11q-57 0 -99 -35l-76 144q36 34 103.5 54.5t142.5 20.5q109 0 174.5 -48t65.5 -128q0 -46 -22.5 -82t-49 -56.5t-49 -52t-22.5 -68.5v-9h-205z" />
    <glyph glyph-name="uni1ED0" unicode="&#x1ed0;" 
d="M600 -20q-541 0 -541 720q0 740 541 740t541 -740q0 -720 -541 -720zM600 232q264 0 264 468q0 489 -264 489t-264 -489q0 -468 264 -468zM222 1580l243 260h272l243 -260h-297l-82 115l-82 -115h-297zM836 1828l222 275h364l-304 -275h-282z" />
    <glyph glyph-name="uni1ED1" unicode="&#x1ed1;" 
d="M600 -20q-229 0 -355 144t-126 406t126 406t355 144t355 -144t126 -406t-126 -406t-355 -144zM600 237q93 0 143.5 76.5t50.5 216.5q0 141 -50.5 217t-143.5 76t-143.5 -76t-50.5 -217q0 -140 51 -216.5t143 -76.5zM216 1248l240 380h288l240 -380h-295l-89 221l-89 -221
h-295zM820 1588l186 380h287l-206 -380h-267z" />
    <glyph glyph-name="uni1ED2" unicode="&#x1ed2;" 
d="M600 -20q-541 0 -541 720q0 740 541 740t541 -740q0 -720 -541 -720zM600 232q264 0 264 468q0 489 -264 489t-264 -489q0 -468 264 -468zM222 1580l243 260h272l243 -260h-297l-82 115l-82 -115h-297zM848 1828l-303 275h363l222 -275h-282z" />
    <glyph glyph-name="uni1ED3" unicode="&#x1ed3;" 
d="M600 -20q-229 0 -355 144t-126 406t126 406t355 144t355 -144t126 -406t-126 -406t-355 -144zM600 237q93 0 143.5 76.5t50.5 216.5q0 141 -50.5 217t-143.5 76t-143.5 -76t-50.5 -217q0 -140 51 -216.5t143 -76.5zM216 1248l240 380h288l240 -380h-295l-89 221l-89 -221
h-295zM934 1588l-207 380h287l187 -380h-267z" />
    <glyph glyph-name="uni1ED4" unicode="&#x1ed4;" 
d="M600 -20q-541 0 -541 720q0 740 541 740t541 -740q0 -720 -541 -720zM600 232q264 0 264 468q0 489 -264 489t-264 -489q0 -468 264 -468zM895 1777v21q0 48 66 95q38 23 38 49q0 34 -65 34q-87 0 -148 -43l-67 144q86 83 273 83q252 0 252 -171q0 -59 -28.5 -97.5
t-98.5 -79.5q-3 -2 -8.5 -5t-8 -4.5t-6.5 -4t-6 -3.5t-4.5 -3t-4 -3.5t-2.5 -3.5t-1.5 -4t-0.5 -4h-180zM222 1580l243 260h272l243 -260h-297l-82 115l-82 -115h-297z" />
    <glyph glyph-name="uni1ED5" unicode="&#x1ed5;" 
d="M600 -20q-229 0 -355 144t-126 406t126 406t355 144t355 -144t126 -406t-126 -406t-355 -144zM600 237q93 0 143.5 76.5t50.5 216.5q0 141 -50.5 217t-143.5 76t-143.5 -76t-50.5 -217q0 -140 51 -216.5t143 -76.5zM216 1248l240 380h288l240 -380h-295l-89 221l-89 -221
h-295zM855 1588v36q0 33 14 61t31 44.5t31 37.5t14 41q0 18 -14.5 29t-38.5 11q-57 0 -99 -35l-76 144q36 34 103.5 54.5t142.5 20.5q109 0 174.5 -48t65.5 -128q0 -46 -22.5 -82t-49 -56.5t-49 -52t-22.5 -68.5v-9h-205z" />
    <glyph glyph-name="uni1ED6" unicode="&#x1ed6;" 
d="M600 -20q-541 0 -541 720q0 740 541 740t541 -740q0 -720 -541 -720zM600 232q264 0 264 468q0 489 -264 489t-264 -489q0 -468 264 -468zM208 1946v50q0 143 54.5 209t172.5 66q75 0 155 -32q103 -43 132 -43q33 0 33 47v52h257v-50q0 -138 -49 -201.5t-156 -63.5
q-76 0 -176 47q-78 36 -108 36t-43.5 -13.5t-13.5 -43.5v-60h-258zM222 1580l243 260h272l243 -260h-297l-82 115l-82 -115h-297z" />
    <glyph glyph-name="uni1ED7" unicode="&#x1ed7;" 
d="M600 -20q-229 0 -355 144t-126 406t126 406t355 144t355 -144t126 -406t-126 -406t-355 -144zM208 1776v40q0 292 235 292q43 0 75.5 -12t81.5 -41q7 -4 18 -10.5t16.5 -10t14.5 -7.5t15 -6t14.5 -3.5t17.5 -1.5q54 0 54 60v61h247v-97q0 -121 -43.5 -180.5t-136.5 -59.5
q-77 0 -171 50q-5 3 -20 11.5t-19 10.5t-15.5 7.5t-17.5 7t-15.5 3.5t-18.5 2q-38 0 -56 -16.5t-18 -57.5v-42h-258zM600 237q93 0 143.5 76.5t50.5 216.5q0 141 -50.5 217t-143.5 76t-143.5 -76t-50.5 -217q0 -140 51 -216.5t143 -76.5zM216 1248l240 380h288l240 -380
h-295l-89 221l-89 -221h-295z" />
    <glyph glyph-name="uni1ED8" unicode="&#x1ed8;" 
d="M600 -20q-541 0 -541 720q0 740 541 740t541 -740q0 -720 -541 -720zM600 232q264 0 264 468q0 489 -264 489t-264 -489q0 -468 264 -468zM222 1580l243 260h272l243 -260h-297l-82 115l-82 -115h-297zM600 -448q-71 0 -121 50t-50 120q0 72 50 121.5t121 49.5t121 -49.5
t50 -121.5q0 -70 -50 -120t-121 -50z" />
    <glyph glyph-name="uni1ED9" unicode="&#x1ed9;" 
d="M600 -20q-229 0 -355 144t-126 406t126 406t355 144t355 -144t126 -406t-126 -406t-355 -144zM600 237q93 0 143.5 76.5t50.5 216.5q0 141 -50.5 217t-143.5 76t-143.5 -76t-50.5 -217q0 -140 51 -216.5t143 -76.5zM216 1248l240 380h288l240 -380h-295l-89 221l-89 -221
h-295zM600 -448q-71 0 -121 50t-50 120q0 72 50 121.5t121 49.5t121 -49.5t50 -121.5q0 -70 -50 -120t-121 -50z" />
    <glyph glyph-name="uni1EDA" unicode="&#x1eda;" 
d="M600 -20q-541 0 -541 720q0 740 541 740q126 0 222 -40l29 5q155 25 155 248h259q0 -323 -243 -422q119 -185 119 -531q0 -720 -541 -720zM600 232q264 0 264 468q0 489 -264 489t-264 -489q0 -468 264 -468zM452 1580l222 275h364l-304 -275h-282z" />
    <glyph glyph-name="uni1EDB" unicode="&#x1edb;" 
d="M600 -20q-229 0 -355 144t-126 406t126 406t355 144q61 0 110 -10l58 10q197 33 197 263h270q0 -319 -268 -421q114 -145 114 -392q0 -262 -126 -406t-355 -144zM600 237q93 0 143.5 76.5t50.5 216.5q0 141 -50.5 217t-143.5 76t-143.5 -76t-50.5 -217q0 -140 51 -216.5
t143 -76.5zM462 1248l186 380h287l-206 -380h-267z" />
    <glyph glyph-name="uni1EDC" unicode="&#x1edc;" 
d="M600 -20q-541 0 -541 720q0 740 541 740q126 0 222 -40l29 5q155 25 155 248h259q0 -323 -243 -422q119 -185 119 -531q0 -720 -541 -720zM600 232q264 0 264 468q0 489 -264 489t-264 -489q0 -468 264 -468zM464 1580l-303 275h363l222 -275h-282z" />
    <glyph glyph-name="uni1EDD" unicode="&#x1edd;" 
d="M600 -20q-229 0 -355 144t-126 406t126 406t355 144q61 0 110 -10l58 10q197 33 197 263h270q0 -319 -268 -421q114 -145 114 -392q0 -262 -126 -406t-355 -144zM600 237q93 0 143.5 76.5t50.5 216.5q0 141 -50.5 217t-143.5 76t-143.5 -76t-50.5 -217q0 -140 51 -216.5
t143 -76.5zM487 1248l-207 380h287l187 -380h-267z" />
    <glyph glyph-name="uni1EDE" unicode="&#x1ede;" 
d="M600 -20q-541 0 -541 720q0 740 541 740q126 0 222 -40l29 5q155 25 155 248h259q0 -323 -243 -422q119 -185 119 -531q0 -720 -541 -720zM600 232q264 0 264 468q0 489 -264 489t-264 -489q0 -468 264 -468zM511 1529v21q0 48 66 95q38 23 38 49q0 34 -65 34
q-87 0 -148 -43l-67 144q86 83 273 83q252 0 252 -171q0 -59 -28.5 -97.5t-98.5 -79.5q-3 -2 -8.5 -5t-8 -4.5t-6.5 -4t-6 -3.5t-4.5 -3t-4 -3.5t-2.5 -3.5t-1.5 -4t-0.5 -4h-180z" />
    <glyph glyph-name="uni1EDF" unicode="&#x1edf;" 
d="M600 -20q-229 0 -355 144t-126 406t126 406t355 144q61 0 110 -10l58 10q197 33 197 263h270q0 -319 -268 -421q114 -145 114 -392q0 -262 -126 -406t-355 -144zM600 237q93 0 143.5 76.5t50.5 216.5q0 141 -50.5 217t-143.5 76t-143.5 -76t-50.5 -217q0 -140 51 -216.5
t143 -76.5zM497 1248v36q0 33 14 61t31 44.5t31 37.5t14 41q0 18 -14.5 29t-38.5 11q-57 0 -99 -35l-76 144q36 34 103.5 54.5t142.5 20.5q109 0 174.5 -48t65.5 -128q0 -46 -22.5 -82t-49 -56.5t-49 -52t-22.5 -68.5v-9h-205z" />
    <glyph glyph-name="uni1EE0" unicode="&#x1ee0;" 
d="M600 -20q-541 0 -541 720q0 740 541 740q126 0 222 -40l29 5q155 25 155 248h259q0 -323 -243 -422q119 -185 119 -531q0 -720 -541 -720zM600 232q264 0 264 468q0 489 -264 489t-264 -489q0 -468 264 -468zM208 1566v50q0 143 54.5 209t172.5 66q75 0 155 -32
q103 -43 132 -43q33 0 33 47v52h257v-50q0 -138 -49 -201.5t-156 -63.5q-76 0 -176 47q-78 36 -108 36t-43.5 -13.5t-13.5 -43.5v-60h-258z" />
    <glyph glyph-name="uni1EE1" unicode="&#x1ee1;" 
d="M600 -20q-229 0 -355 144t-126 406t126 406t355 144q61 0 110 -10l58 10q197 33 197 263h270q0 -319 -268 -421q114 -145 114 -392q0 -262 -126 -406t-355 -144zM208 1256v40q0 292 235 292q43 0 75.5 -12t81.5 -41q7 -4 18 -10.5t16.5 -10t14.5 -7.5t15 -6t14.5 -3.5
t17.5 -1.5q54 0 54 60v61h247v-97q0 -121 -43.5 -180.5t-136.5 -59.5q-77 0 -171 50q-5 3 -20 11.5t-19 10.5t-15.5 7.5t-17.5 7t-15.5 3.5t-18.5 2q-38 0 -56 -16.5t-18 -57.5v-42h-258zM600 237q93 0 143.5 76.5t50.5 216.5q0 141 -50.5 217t-143.5 76t-143.5 -76
t-50.5 -217q0 -140 51 -216.5t143 -76.5z" />
    <glyph glyph-name="uni1EE2" unicode="&#x1ee2;" 
d="M600 -20q-541 0 -541 720q0 740 541 740q126 0 222 -40l29 5q155 25 155 248h259q0 -323 -243 -422q119 -185 119 -531q0 -720 -541 -720zM600 232q264 0 264 468q0 489 -264 489t-264 -489q0 -468 264 -468zM600 -448q-71 0 -121 50t-50 120q0 72 50 121.5t121 49.5
t121 -49.5t50 -121.5q0 -70 -50 -120t-121 -50z" />
    <glyph glyph-name="uni1EE3" unicode="&#x1ee3;" 
d="M600 -20q-229 0 -355 144t-126 406t126 406t355 144q61 0 110 -10l58 10q197 33 197 263h270q0 -319 -268 -421q114 -145 114 -392q0 -262 -126 -406t-355 -144zM600 237q93 0 143.5 76.5t50.5 216.5q0 141 -50.5 217t-143.5 76t-143.5 -76t-50.5 -217q0 -140 51 -216.5
t143 -76.5zM600 -448q-71 0 -121 50t-50 120q0 72 50 121.5t121 49.5t121 -49.5t50 -121.5q0 -70 -50 -120t-121 -50z" />
    <glyph glyph-name="uni1EE4" unicode="&#x1ee4;" 
d="M596 -20q-473 0 -473 476v964h264v-964q0 -112 52 -167.5t161 -55.5q213 0 213 223v964h264v-964q0 -237 -122 -356.5t-359 -119.5zM600 -448q-71 0 -121 50t-50 120q0 72 50 121.5t121 49.5t121 -49.5t50 -121.5q0 -70 -50 -120t-121 -50z" />
    <glyph glyph-name="uni1EE5" unicode="&#x1ee5;" 
d="M446 -20q-151 0 -234 99t-83 281v700h271v-633q0 -91 41 -140.5t115 -49.5q98 0 145 75t47 245v503h271v-818l146 -22v-220l-399 -10l-15 214h-31q-25 -107 -96.5 -165.5t-177.5 -58.5zM560 -448q-71 0 -121 50t-50 120q0 72 50 121.5t121 49.5t121 -49.5t50 -121.5
q0 -70 -50 -120t-121 -50z" />
    <glyph glyph-name="uni1EE6" unicode="&#x1ee6;" 
d="M596 -20q-473 0 -473 476v964h264v-964q0 -112 52 -167.5t161 -55.5q213 0 213 223v964h264v-964q0 -237 -122 -356.5t-359 -119.5zM511 1529v21q0 48 66 95q38 23 38 49q0 34 -65 34q-87 0 -148 -43l-67 144q86 83 273 83q252 0 252 -171q0 -59 -28.5 -97.5t-98.5 -79.5
q-3 -2 -8.5 -5t-8 -4.5t-6.5 -4t-6 -3.5t-4.5 -3t-4 -3.5t-2.5 -3.5t-1.5 -4t-0.5 -4h-180z" />
    <glyph glyph-name="uni1EE7" unicode="&#x1ee7;" 
d="M446 -20q-151 0 -234 99t-83 281v700h271v-633q0 -91 41 -140.5t115 -49.5q98 0 145 75t47 245v503h271v-818l146 -22v-220l-399 -10l-15 214h-31q-25 -107 -96.5 -165.5t-177.5 -58.5zM477 1248v36q0 33 14 61t31 44.5t31 37.5t14 41q0 18 -14.5 29t-38.5 11
q-57 0 -99 -35l-76 144q36 34 103.5 54.5t142.5 20.5q109 0 174.5 -48t65.5 -128q0 -46 -22.5 -82t-49 -56.5t-49 -52t-22.5 -68.5v-9h-205z" />
    <glyph glyph-name="uni1EE8" unicode="&#x1ee8;" 
d="M596 -20q-473 0 -473 476v964h264v-964q0 -112 52 -167.5t161 -55.5q213 0 213 223v964h14l50 2q80 2 121 64t41 167h259q0 -315 -221 -408v-789q0 -237 -122 -356.5t-359 -119.5zM452 1580l222 275h364l-304 -275h-282z" />
    <glyph glyph-name="uni1EE9" unicode="&#x1ee9;" 
d="M446 -20q-151 0 -234 99t-83 281v700h271v-633q0 -91 41 -140.5t115 -49.5q98 0 145 75t47 245v503h18l40 2q78 4 115 79t37 202h270q0 -167 -50.5 -277t-158.5 -170v-654l146 -22v-220l-399 -10l-15 214h-31q-25 -107 -96.5 -165.5t-177.5 -58.5zM442 1248l186 380h287
l-206 -380h-267z" />
    <glyph glyph-name="uni1EEA" unicode="&#x1eea;" 
d="M596 -20q-473 0 -473 476v964h264v-964q0 -112 52 -167.5t161 -55.5q213 0 213 223v964h14l50 2q80 2 121 64t41 167h259q0 -315 -221 -408v-789q0 -237 -122 -356.5t-359 -119.5zM464 1580l-303 275h363l222 -275h-282z" />
    <glyph glyph-name="uni1EEB" unicode="&#x1eeb;" 
d="M446 -20q-151 0 -234 99t-83 281v700h271v-633q0 -91 41 -140.5t115 -49.5q98 0 145 75t47 245v503h18l40 2q78 4 115 79t37 202h270q0 -167 -50.5 -277t-158.5 -170v-654l146 -22v-220l-399 -10l-15 214h-31q-25 -107 -96.5 -165.5t-177.5 -58.5zM467 1248l-207 380h287
l187 -380h-267z" />
    <glyph glyph-name="uni1EEC" unicode="&#x1eec;" 
d="M596 -20q-473 0 -473 476v964h264v-964q0 -112 52 -167.5t161 -55.5q213 0 213 223v964h14l50 2q80 2 121 64t41 167h259q0 -315 -221 -408v-789q0 -237 -122 -356.5t-359 -119.5zM511 1529v21q0 48 66 95q38 23 38 49q0 34 -65 34q-87 0 -148 -43l-67 144q86 83 273 83
q252 0 252 -171q0 -59 -28.5 -97.5t-98.5 -79.5q-3 -2 -8.5 -5t-8 -4.5t-6.5 -4t-6 -3.5t-4.5 -3t-4 -3.5t-2.5 -3.5t-1.5 -4t-0.5 -4h-180z" />
    <glyph glyph-name="uni1EED" unicode="&#x1eed;" 
d="M446 -20q-151 0 -234 99t-83 281v700h271v-633q0 -91 41 -140.5t115 -49.5q98 0 145 75t47 245v503h18l40 2q78 4 115 79t37 202h270q0 -167 -50.5 -277t-158.5 -170v-654l146 -22v-220l-399 -10l-15 214h-31q-25 -107 -96.5 -165.5t-177.5 -58.5zM477 1248v36
q0 33 14 61t31 44.5t31 37.5t14 41q0 18 -14.5 29t-38.5 11q-57 0 -99 -35l-76 144q36 34 103.5 54.5t142.5 20.5q109 0 174.5 -48t65.5 -128q0 -46 -22.5 -82t-49 -56.5t-49 -52t-22.5 -68.5v-9h-205z" />
    <glyph glyph-name="uni1EEE" unicode="&#x1eee;" 
d="M596 -20q-473 0 -473 476v964h264v-964q0 -112 52 -167.5t161 -55.5q213 0 213 223v964h14l50 2q80 2 121 64t41 167h259q0 -315 -221 -408v-789q0 -237 -122 -356.5t-359 -119.5zM208 1566v50q0 143 54.5 209t172.5 66q75 0 155 -32q103 -43 132 -43q33 0 33 47v52h257
v-50q0 -138 -49 -201.5t-156 -63.5q-76 0 -176 47q-78 36 -108 36t-43.5 -13.5t-13.5 -43.5v-60h-258z" />
    <glyph glyph-name="uni1EEF" unicode="&#x1eef;" 
d="M446 -20q-151 0 -234 99t-83 281v700h271v-633q0 -91 41 -140.5t115 -49.5q98 0 145 75t47 245v503h18l40 2q78 4 115 79t37 202h270q0 -167 -50.5 -277t-158.5 -170v-654l146 -22v-220l-399 -10l-15 214h-31q-25 -107 -96.5 -165.5t-177.5 -58.5zM188 1256v40
q0 292 235 292q43 0 75.5 -12t81.5 -41q7 -4 18 -10.5t16.5 -10t14.5 -7.5t15 -6t14.5 -3.5t17.5 -1.5q54 0 54 60v61h247v-97q0 -121 -43.5 -180.5t-136.5 -59.5q-77 0 -171 50q-5 3 -20 11.5t-19 10.5t-15.5 7.5t-17.5 7t-15.5 3.5t-18.5 2q-38 0 -56 -16.5t-18 -57.5v-42
h-258z" />
    <glyph glyph-name="uni1EF0" unicode="&#x1ef0;" 
d="M596 -20q-473 0 -473 476v964h264v-964q0 -112 52 -167.5t161 -55.5q213 0 213 223v964h14l50 2q80 2 121 64t41 167h259q0 -315 -221 -408v-789q0 -237 -122 -356.5t-359 -119.5zM600 -448q-71 0 -121 50t-50 120q0 72 50 121.5t121 49.5t121 -49.5t50 -121.5
q0 -70 -50 -120t-121 -50z" />
    </font>
</defs>
</svg>
