<?xml version="1.0" standalone="no"?>
<!DOCTYPE svg PUBLIC "-//W3C//DTD SVG 1.1//EN" "http://www.w3.org/Graphics/SVG/1.1/DTD/svg11.dtd" >
<svg xmlns="http://www.w3.org/2000/svg" xmlns:xlink="http://www.w3.org/1999/xlink" version="1.1">
<metadata>
Created by FontForge 20170731 at Tue May 25 23:17:37 2021
 By Aleksey,,,
(c) 2020 Microsoft Corporation. All Rights Reserved.
</metadata>
<defs>
<font id="CascadiaCodePL-Light" horiz-adv-x="1200" >
  <font-face 
    font-family="Cascadia Code PL Light"
    font-weight="300"
    font-stretch="normal"
    units-per-em="2048"
    panose-1="0 0 0 0 0 0 0 0 0 0"
    ascent="1638"
    descent="-410"
    x-height="1060"
    cap-height="1420"
    bbox="-120 -891 4520 2309"
    underline-thickness="100"
    underline-position="-200"
    unicode-range="U+000D-FB02"
  />
<missing-glyph 
d="M145 0v1420h910v-1420h-910zM924 122v1176h-648v-1176h648z" />
    <glyph glyph-name=".notdef" 
d="M145 0v1420h910v-1420h-910zM924 122v1176h-648v-1176h648z" />
    <glyph glyph-name=".null" horiz-adv-x="0" 
 />
    <glyph glyph-name="nonmarkingreturn" horiz-adv-x="682" 
 />
    <glyph glyph-name="CR" unicode="&#xd;" 
 />
    <glyph glyph-name="space" unicode=" " 
 />
    <glyph glyph-name="exclam" unicode="!" 
d="M539 389l-4 1041h130l-8 -1041h-118zM600 -20q-48 0 -82 33.5t-34 81.5t34 82t82 34t82 -34t34 -82t-34 -81.5t-82 -33.5z" />
    <glyph glyph-name="quotedbl" unicode="&#x22;" 
d="M351 780l-10 640h144l-10 -640h-124zM729 780l-10 640h144l-10 -640h-124z" />
    <glyph glyph-name="numbersign" unicode="#" 
d="M703 0l34 400h-326l-34 -400h-116l34 400h-179v115h189l32 390h-221v115h231l34 400h116l-34 -400h326l34 400h116l-34 -400h179v-115h-189l-32 -390h221v-115h-231l-34 -400h-116zM421 515h326l32 390h-326z" />
    <glyph glyph-name="dollar" unicode="$" 
d="M560 -320v300h-9q-226 0 -406 71l18 132q208 -81 397 -82v568l-140 72q-119 59 -178 138.5t-59 190.5q0 172 95.5 265.5t281.5 103.5v301h106v-302q222 -18 381 -169l-90 -91q-149 118 -291 137v-549l113 -57q132 -66 197 -155.5t65 -210.5q0 -318 -375 -357v-306h-106z
M666 107q242 31 242 232q0 153 -151 229l-91 47v-508zM560 820v497q-244 -17 -244 -237q0 -74 38.5 -125t117.5 -91z" />
    <glyph glyph-name="percent" unicode="%" 
d="M384 793q-142 0 -228 88.5t-86 233.5q0 147 86 235.5t228 88.5q141 0 226.5 -88.5t85.5 -235.5q0 -146 -85.5 -234t-226.5 -88zM838 -20q-142 0 -228 88.5t-86 233.5q0 146 86 235t228 89q141 0 226.5 -89t85.5 -235t-85.5 -234t-226.5 -88zM384 908q86 0 138 56.5
t52 150.5q0 95 -52 153t-138 58q-87 0 -139.5 -58t-52.5 -153q0 -94 52.5 -150.5t139.5 -56.5zM838 94q86 0 138 57t52 151q0 95 -52 152.5t-138 57.5q-87 0 -139.5 -57.5t-52.5 -152.5q0 -94 52.5 -151t139.5 -57zM186 306l-64 92l902 708l64 -90z" />
    <glyph glyph-name="ampersand" unicode="&#x26;" 
d="M1035 0l-148 152q-160 -172 -425 -172q-182 0 -286 97t-104 267q0 137 70 233t199 138q-130 161 -130 327q0 190 104.5 294t294.5 104q173 0 268.5 -83.5t95.5 -234.5h-133q0 94 -59.5 145.5t-167.5 51.5q-128 0 -198 -73t-70 -206q0 -145 139 -290l387 -401
q79 163 79 417h125q0 -315 -114 -511l246 -255h-173zM801 239l-382 392q-105 -39 -161.5 -110.5t-56.5 -166.5q0 -119 75.5 -186t209.5 -67q197 0 315 138z" />
    <glyph glyph-name="quotesingle" unicode="'" 
d="M538 780l-10 640h144l-10 -640h-124z" />
    <glyph glyph-name="parenleft" unicode="(" 
d="M947 -200q-317 0 -491 239.5t-174 676.5q0 431 174 667.5t491 236.5h35v-120h-28q-259 0 -400 -205t-141 -579q0 -380 141 -588t400 -208h28v-120h-35z" />
    <glyph glyph-name="parenright" unicode=")" 
d="M218 -200v120h28q259 0 400 208t141 588q0 374 -141 579t-400 205h-28v120h35q317 0 491 -236.5t174 -667.5q0 -437 -174 -676.5t-491 -239.5h-35z" />
    <glyph glyph-name="asterisk" unicode="*" 
d="M839 273l-239 339l-239 -339l-104 82l259 315l-392 117l43 125l381 -144l-14 408h132l-14 -408l381 144l43 -125l-392 -117l259 -315z" />
    <glyph glyph-name="plus" unicode="+" 
d="M537 190v459h-421v122h421v457h126v-457h421v-122h-421v-459h-126z" />
    <glyph glyph-name="comma" unicode="," 
d="M459 -436l80 690h142l-97 -690h-125z" />
    <glyph glyph-name="hyphen" unicode="-" 
d="M116 648v122h968v-122h-968z" />
    <glyph glyph-name="period" unicode="." 
d="M600 -20q-48 0 -82 33.5t-34 81.5t34 82t82 34t82 -34t34 -82t-34 -81.5t-82 -33.5z" />
    <glyph glyph-name="slash" unicode="/" 
d="M150 -190l848 1800h136l-848 -1800h-136z" />
    <glyph glyph-name="zero" unicode="0" 
d="M600 -20q-468 0 -468 720q0 740 468 740t468 -740q0 -720 -468 -720zM600 101q335 0 335 599q0 619 -335 619t-335 -619q0 -599 335 -599zM600 584q-53 0 -85 32t-32 84t32.5 84.5t84.5 32.5t84.5 -32.5t32.5 -84.5t-32 -84t-85 -32z" />
    <glyph glyph-name="one" unicode="1" 
d="M186 0v122h381v1165l-361 -116v129l361 120h126v-1298h343v-122h-850z" />
    <glyph glyph-name="two" unicode="2" 
d="M168 0v162q701 387 701 843q0 152 -78.5 233t-226.5 81q-200 0 -357 -155l-85 84q78 91 191.5 141.5t254.5 50.5q210 0 321 -112t111 -323q0 -486 -668 -868v-16h728v-121h-892z" />
    <glyph glyph-name="three" unicode="3" 
d="M514 -20q-192 0 -348 48l16 122q3 -1 23.5 -6.5t26.5 -7t25.5 -6.5t29 -6.5t29.5 -5.5t33 -6t34 -4.5t38.5 -3.5t40 -2t44.5 -1q185 0 288 71.5t103 200.5q0 137 -131 217.5t-354 80.5h-37l-17 102q239 32 374 121t135 211q0 102 -70 158t-198 56q-195 0 -367 -152
l-91 91q90 95 204.5 138.5t269.5 43.5q183 0 283 -83t100 -235q0 -133 -98 -231t-262 -134v-12q178 -20 284 -121.5t106 -256.5q0 -185 -134.5 -286t-379.5 -101z" />
    <glyph glyph-name="four" unicode="4" 
d="M89 324l1 2l184 1014h130l-164 -895h565v975h128v-975h171v-121h-171v-324h-128v324h-716z" />
    <glyph glyph-name="five" unicode="5" 
d="M614 -20q-222 0 -343.5 109t-121.5 309h132q0 -141 87.5 -219t247.5 -78q157 0 243.5 93.5t86.5 263.5q0 156 -80.5 242t-226.5 86q-166 0 -309 -106h-93l18 740h732v-121h-608l-15 -480q130 87 305 87q194 0 301 -117t107 -331q0 -228 -121 -353t-342 -125z" />
    <glyph glyph-name="six" unicode="6" 
d="M608 -20q-464 0 -464 499v128q0 392 199 595.5t605 223.5l13 -123q-342 -15 -510.5 -172.5t-169.5 -462.5h11q32 111 127 171.5t234 60.5q204 0 314.5 -115t110.5 -325q0 -233 -121 -356.5t-349 -123.5zM618 101q160 0 244.5 92t84.5 267q0 153 -84.5 236t-241.5 83
q-165 0 -254.5 -88.5t-89.5 -250.5q0 -160 90 -249.5t251 -89.5z" />
    <glyph glyph-name="seven" unicode="7" 
d="M517 0l431 1298h-705v-336h-128v458h1010l-472 -1420h-136z" />
    <glyph glyph-name="eight" unicode="8" 
d="M600 -20q-223 0 -345.5 104t-122.5 293q0 149 78 245t224 130v8q-127 33 -194.5 118.5t-67.5 214.5q0 165 112 256t316 91t316 -91t112 -256q0 -129 -67 -214t-193 -118v-10q145 -34 222.5 -130t77.5 -244q0 -189 -122.5 -293t-345.5 -104zM600 101q161 0 249 75t88 211
q0 143 -88.5 222t-248.5 79t-248.5 -79t-88.5 -222q0 -136 88 -211t249 -75zM600 812q141 0 219 63.5t78 177.5q0 127 -78 196.5t-219 69.5t-219 -69.5t-78 -196.5q0 -114 78 -177.5t219 -63.5z" />
    <glyph glyph-name="nine" unicode="9" 
d="M557 506q-204 0 -314.5 115t-110.5 325q0 233 121 356.5t349 123.5q464 0 464 -506v-121q0 -392 -199 -595.5t-605 -223.5l-13 123q342 15 510.5 172.5t169.5 462.5h-11q-32 -111 -127 -171.5t-234 -60.5zM589 627q165 0 254.5 88.5t89.5 250.5q0 160 -90 249.5
t-251 89.5q-160 0 -244.5 -92t-84.5 -267q0 -153 84.5 -236t241.5 -83z" />
    <glyph glyph-name="colon" unicode=":" 
d="M600 849q-48 0 -82 33.5t-34 81.5t34 82t82 34t82 -34t34 -82t-34 -81.5t-82 -33.5zM600 -20q-48 0 -82 33.5t-34 81.5t34 82t82 34t82 -34t34 -82t-34 -81.5t-82 -33.5z" />
    <glyph glyph-name="semicolon" unicode=";" 
d="M459 -436l80 690h142l-97 -690h-125zM600 849q-48 0 -82 33.5t-34 81.5t34 82t82 34t82 -34t34 -82t-34 -81.5t-82 -33.5z" />
    <glyph glyph-name="less" unicode="&#x3c;" 
d="M1038 214l-926 424v142l926 424v-137l-801 -352v-12l801 -352v-137z" />
    <glyph glyph-name="equal" unicode="=" 
d="M116 398v122h968v-122h-968zM116 898v122h968v-122h-968z" />
    <glyph glyph-name="greater" unicode="&#x3e;" 
d="M162 214v137l788 352v12l-788 352v137l926 -424v-142z" />
    <glyph glyph-name="question" unicode="?" 
d="M495 389v110q0 94 43 166.5t135 135.5q95 64 138.5 132t43.5 152q0 110 -68.5 171t-192.5 61q-197 0 -377 -159l-85 90q195 192 464 192q188 0 291 -90.5t103 -254.5q0 -115 -56.5 -207.5t-178.5 -176.5q-134 -92 -134 -226v-96h-126zM562 -20q-48 0 -82 33.5t-34 81.5
t34 82t82 34t82 -34t34 -82t-34 -81.5t-82 -33.5z" />
    <glyph glyph-name="at" unicode="@" 
d="M710 -216q-308 0 -447 193t-139 621q0 841 503 841q429 0 429 -546v-725h-117v205h-9q-20 -108 -83.5 -166.5t-157.5 -58.5q-140 0 -216.5 123.5t-76.5 347.5q0 234 76 352t219 118q88 0 151 -59t88 -166h9v23q0 435 -312 435q-386 0 -386 -724q0 -365 111.5 -529.5
t357.5 -164.5q125 0 197 25v-120q-79 -25 -197 -25zM707 271q111 0 171.5 86.5t60.5 245.5q0 363 -218 363q-205 0 -205 -346q0 -167 50 -258t141 -91z" />
    <glyph glyph-name="A" unicode="A" 
d="M61 0l448 1420h182l448 -1420h-131l-117 380h-582l-117 -380h-131zM346 502h508l-248 809h-12z" />
    <glyph glyph-name="B" unicode="B" 
d="M176 0v1420h406q208 0 322 -92.5t114 -260.5q0 -137 -82.5 -217t-234.5 -91v-10q199 -3 308 -98.5t109 -267.5q0 -183 -115 -283t-326 -100h-501zM303 122h356q156 0 242 71t86 200q0 141 -86 218.5t-242 77.5h-356v-567zM303 811h283q143 0 222 65t79 184q0 114 -79 176
t-223 62h-282v-487z" />
    <glyph glyph-name="C" unicode="C" 
d="M741 -20q-646 0 -646 732q0 347 162.5 537.5t459.5 190.5q142 0 246.5 -47t152.5 -132l-92 -94q-52 72 -132 112t-173 40q-226 0 -358.5 -157.5t-132.5 -439.5q0 -621 534 -621q149 0 297 65l32 -118q-166 -68 -350 -68z" />
    <glyph glyph-name="D" unicode="D" 
d="M149 0v1420h328q634 0 634 -730q0 -690 -634 -690h-328zM276 122h201q503 0 503 568q0 608 -503 608h-201v-1176z" />
    <glyph glyph-name="E" unicode="E" 
d="M176 0v1420h908v-122h-781v-526h601v-122h-601v-528h781v-122h-908z" />
    <glyph glyph-name="F" unicode="F" 
d="M196 0v1420h908v-122h-781v-586h628v-122h-628v-590h-127z" />
    <glyph glyph-name="G" unicode="G" 
d="M695 -20q-300 0 -460 188.5t-160 543.5q0 347 160.5 537.5t451.5 190.5q140 0 248 -42.5t164 -120.5l-95 -94q-54 65 -134 100.5t-171 35.5q-233 0 -362 -156.5t-129 -440.5q0 -300 132 -460.5t379 -160.5q103 0 225 33v421h-341v122h464v-637q-187 -60 -372 -60z" />
    <glyph glyph-name="H" unicode="H" 
d="M917 0v646h-634v-646h-127v1420h127v-652h634v652h127v-1420h-127z" />
    <glyph glyph-name="I" unicode="I" 
d="M184 0v122h352v1176h-352v122h832v-122h-354v-1176h354v-122h-832z" />
    <glyph glyph-name="J" unicode="J" 
d="M574 -20q-233 0 -352.5 125.5t-119.5 370.5h128q0 -185 88.5 -280.5t260.5 -95.5q169 0 254.5 95t85.5 281v822h-429v122h556v-944q0 -244 -120 -370t-352 -126z" />
    <glyph glyph-name="K" unicode="K" 
d="M166 0v1420h127v-815q314 10 484.5 230t170.5 585h130q0 -239 -71.5 -429.5t-206.5 -314.5l346 -676h-153l-302 594q-172 -105 -398 -114v-480h-127z" />
    <glyph glyph-name="L" unicode="L" 
d="M176 0v1420h127v-1298h781v-122h-908z" />
    <glyph glyph-name="M" unicode="M" 
d="M144 0v1420h203l249 -651h8l249 651h203v-1420h-124v1277h-15l-249 -644h-136l-249 644h-15v-1277h-124z" />
    <glyph glyph-name="N" unicode="N" 
d="M854 0l-554 1248h-12v-1248h-124v1420h183l554 -1248h11v1248h124v-1420h-182z" />
    <glyph glyph-name="O" unicode="O" 
d="M600 -20q-508 0 -508 720q0 740 508 740t508 -740q0 -720 -508 -720zM600 95q377 0 377 605q0 619 -377 619t-377 -619q0 -605 377 -605z" />
    <glyph glyph-name="P" unicode="P" 
d="M176 0v1420h415q248 0 380.5 -120.5t132.5 -346.5q0 -232 -132.5 -356t-380.5 -124h-288v-473h-127zM303 595h288q184 0 283 93t99 265q0 166 -99 255.5t-283 89.5h-288v-703z" />
    <glyph glyph-name="Q" unicode="Q" 
d="M963 -460q-209 0 -320 113t-111 327v3q-440 47 -440 717q0 740 508 740t508 -740q0 -677 -450 -718v-4q0 -154 79 -236.5t226 -82.5h64l-15 -119h-49zM600 95q377 0 377 605q0 619 -377 619t-377 -619q0 -605 377 -605z" />
    <glyph glyph-name="R" unicode="R" 
d="M156 0v1420h499q200 0 309.5 -109t109.5 -308q0 -158 -67 -262.5t-193 -143.5l312 -597h-153l-289 575q-10 -1 -29 -1h-372v-574h-127zM283 696h372q137 0 212.5 75t75.5 212q0 150 -75.5 232.5t-212.5 82.5h-372v-602z" />
    <glyph glyph-name="S" unicode="S" 
d="M551 -20q-226 0 -406 71l18 132q213 -82 404 -82q341 0 341 238q0 153 -151 229l-337 173q-119 59 -178 138.5t-59 190.5q0 182 106.5 276t313.5 94q264 0 444 -171l-90 -91q-179 141 -353 141q-288 0 -288 -239q0 -74 38.5 -125t117.5 -91l307 -155q132 -66 197 -155.5
t65 -210.5q0 -363 -490 -363z" />
    <glyph glyph-name="T" unicode="T" 
d="M537 0v1298h-441v122h1008v-122h-441v-1298h-126z" />
    <glyph glyph-name="U" unicode="U" 
d="M596 -20q-440 0 -440 476v964h127v-964q0 -178 77 -265.5t240 -87.5q317 0 317 353v964h127v-964q0 -237 -113.5 -356.5t-334.5 -119.5z" />
    <glyph glyph-name="V" unicode="V" 
d="M506 0l-445 1420h132l401 -1312h12l401 1312h132l-445 -1420h-188z" />
    <glyph glyph-name="W" unicode="W" 
d="M236 0l-200 1420h127l174 -1313h20l161 953h166l159 -953h20l174 1313h127l-200 -1420h-206l-152 947h-12l-152 -947h-206z" />
    <glyph glyph-name="X" unicode="X" 
d="M976 0l-376 601l-376 -601h-143l455 702l-455 718h143l376 -616l376 616h143l-456 -718l456 -702h-143z" />
    <glyph glyph-name="Y" unicode="Y" 
d="M537 0v507l-496 913h139l414 -780h12l414 780h139l-496 -913v-507h-126z" />
    <glyph glyph-name="Z" unicode="Z" 
d="M166 0v122l721 1176h-721v122h868v-122l-723 -1176h743v-122h-888z" />
    <glyph glyph-name="bracketleft" unicode="[" 
d="M388 -214v1848h594v-122h-467v-1604h467v-122h-594z" />
    <glyph glyph-name="backslash" unicode="\" 
d="M914 -190l-848 1800h136l848 -1800h-136z" />
    <glyph glyph-name="bracketright" unicode="]" 
d="M218 -214v122h463v1604h-463v122h594v-1848h-594z" />
    <glyph glyph-name="asciicircum" unicode="^" 
d="M221 820l293 600h172l293 -600h-141l-232 493h-12l-232 -493h-141z" />
    <glyph glyph-name="underscore" unicode="_" 
d="M100 -117v117h1000v-117h-1000z" />
    <glyph glyph-name="grave" unicode="`" 
d="M620 1248l-230 380h144l217 -380h-131z" />
    <glyph glyph-name="a" unicode="a" 
d="M859 -10l-10 234h-13q-18 -111 -125 -177.5t-264 -66.5q-160 0 -247.5 74.5t-87.5 210.5q0 166 117.5 251.5t347.5 85.5q148 0 253 -18v45q0 161 -87 235t-276 78l-225 4l20 124l198 -3q259 -4 379.5 -114.5t120.5 -343.5v-494l182 -16v-99zM830 474q-78 13 -257 13
q-330 0 -330 -214q0 -84 56 -129.5t159 -45.5q163 0 267.5 80t104.5 196v100z" />
    <glyph glyph-name="b" unicode="b" 
d="M414 -20q-100 0 -235 20v1500h131v-632h13q52 212 332 212q204 0 316 -125.5t112 -354.5q0 -295 -175 -457.5t-494 -162.5zM310 596v-487q61 -8 146 -8q235 0 364 130.5t129 368.5q0 172 -79 265.5t-225 93.5q-335 0 -335 -363z" />
    <glyph glyph-name="c" unicode="c" 
d="M702 -20q-269 0 -409.5 141t-140.5 411q0 261 136 404.5t386 143.5q149 0 255.5 -57.5t151.5 -162.5l-110 -76q-95 171 -305 171q-180 0 -279.5 -108t-99.5 -305q0 -215 108.5 -326t317.5 -111q147 0 310 31l16 -123q-138 -33 -337 -33z" />
    <glyph glyph-name="d" unicode="d" 
d="M535 -20q-209 0 -316 137t-107 403q0 276 108 418t319 142q140 0 225.5 -62.5t106.5 -180.5h12v663h133v-1503l-112 -7l-20 241h-11q-21 -120 -106 -185.5t-232 -65.5zM883 514v31q0 204 -81 309t-239 105q-157 0 -237 -111t-80 -328q0 -206 80.5 -312.5t237.5 -106.5
t238 105t81 308z" />
    <glyph glyph-name="e" unicode="e" 
d="M703 -20q-263 0 -407 146t-144 414q0 257 121 398.5t342 141.5q206 0 319.5 -128.5t113.5 -363.5q0 -62 -6 -104h-759q17 -183 131.5 -282t312.5 -99q124 0 250 28l19 -123q-137 -28 -293 -28zM283 598h637q0 171 -79.5 265t-223.5 94q-147 0 -234 -94t-100 -265z" />
    <glyph glyph-name="f" unicode="f" 
d="M441 0v674h-357v118h357v178q0 550 463 550q105 0 204 -20l-22 -119q-108 14 -188 14q-323 0 -323 -415v-188h457v-118h-457v-674h-134z" />
    <glyph glyph-name="g" unicode="g" 
d="M198 -478l-6 123l320 12q191 7 280.5 106.5t90.5 298.5v169h-13q-21 -120 -105.5 -185.5t-229.5 -65.5q-209 0 -316 137t-107 403q0 276 108 418t319 142q142 0 228 -62.5t107 -180.5h10l12 223h120v-966q0 -284 -125 -418t-399 -144zM883 545q0 204 -81 309t-239 105
q-157 0 -237 -111t-80 -328q0 -206 80.5 -312.5t237.5 -106.5t238 105t81 308v31z" />
    <glyph glyph-name="h" unicode="h" 
d="M883 0v693q0 127 -66.5 196.5t-186.5 69.5q-313 0 -313 -360v-599h-133v1500h133v-632h12q45 212 312 212q179 0 277 -102t98 -288v-690h-133z" />
    <glyph glyph-name="i" unicode="i" 
d="M176 0v118h427v824h-367v118h501v-942h349v-118h-910zM660 1291q-48 0 -82 34t-34 82t34 82t82 34t82 -34t34 -82t-34 -82t-82 -34z" />
    <glyph glyph-name="j" unicode="j" 
d="M192 -480l-6 120l184 17q195 18 282 112.5t87 292.5v880h-463v118h596v-966q0 -281 -122 -410.5t-400 -151.5zM785 1291q-48 0 -82 34t-34 82t34 82t82 34t82 -34t34 -82t-34 -82t-82 -34z" />
    <glyph glyph-name="k" unicode="k" 
d="M176 0v1500h131v-955h70q253 0 374 116t165 399h140q-54 -371 -246 -521l314 -539h-164l-267 471q-120 -49 -286 -49h-100v-422h-131z" />
    <glyph glyph-name="l" unicode="l" 
d="M805 -20q-181 0 -268.5 95t-87.5 292v1015h-335v118h469v-1130q0 -137 60 -201t195 -64q81 0 205 32l15 -122q-122 -35 -253 -35z" />
    <glyph glyph-name="m" unicode="m" 
d="M939 0v810q0 155 -125 155q-153 0 -153 -189v-776h-122v830q0 135 -126 135q-152 0 -152 -189v-776h-133v1060h116l10 -132h10q28 152 201 152q159 0 189 -152h9q12 73 61.5 112.5t133.5 39.5q109 0 161.5 -61.5t52.5 -188.5v-830h-133z" />
    <glyph glyph-name="n" unicode="n" 
d="M883 0v693q0 125 -66.5 193.5t-186.5 68.5q-313 0 -313 -356v-599h-133v1060h121l10 -192h14q45 212 312 212q179 0 277 -102t98 -288v-690h-133z" />
    <glyph glyph-name="o" unicode="o" 
d="M600 -20q-213 0 -330.5 144t-117.5 406t117.5 406t330.5 144t330.5 -144t117.5 -406t-117.5 -406t-330.5 -144zM600 105q149 0 230 111t81 314t-81 314t-230 111t-230 -111t-81 -314t81 -314t230 -111z" />
    <glyph glyph-name="p" unicode="p" 
d="M184 -460v1520h113l18 -223h11q21 118 107 180.5t228 62.5q211 0 319 -142t108 -418q0 -266 -107 -403t-316 -137q-145 0 -229.5 65.5t-105.5 185.5h-13v-691h-133zM317 514q0 -203 81 -308t238 -105t237.5 106.5t80.5 312.5q0 217 -80 328t-237 111q-158 0 -239 -105
t-81 -309v-31z" />
    <glyph glyph-name="q" unicode="q" 
d="M545 -20q-207 0 -320 141t-113 399q0 267 113.5 413.5t321.5 146.5q132 0 215.5 -54.5t108.5 -157.5h15l17 192h113v-1520h-133v624h-12q-21 -89 -106.5 -136.5t-219.5 -47.5zM883 609q0 169 -82 259.5t-234 90.5q-154 0 -237.5 -115t-83.5 -324q0 -202 83.5 -310.5
t239.5 -108.5q151 0 232.5 62t81.5 177v269z" />
    <glyph glyph-name="r" unicode="r" 
d="M489 456v-338h299v-118h-692v118h259v824h-219v118h326l24 -272h15q36 292 312 292q170 0 246.5 -94t76.5 -304h-134q0 146 -49 211.5t-157 65.5q-153 0 -230 -129.5t-77 -373.5z" />
    <glyph glyph-name="s" unicode="s" 
d="M518 -20q-222 0 -346 30l16 127q199 -32 330 -32q196 0 284.5 41t88.5 132q0 63 -41 103t-131 62l-238 60q-154 39 -223.5 104t-69.5 170q0 160 129.5 231.5t418.5 71.5q124 0 264 -20l-15 -119q-151 14 -255 14q-214 0 -309.5 -41.5t-95.5 -133.5q0 -56 48.5 -94
t155.5 -63l190 -46q163 -40 236 -110.5t73 -187.5q0 -157 -120.5 -228t-389.5 -71z" />
    <glyph glyph-name="t" unicode="t" 
d="M792 -20q-205 0 -303 104.5t-98 322.5v535h-305v118h305v320h134v-320h489v-118h-489v-532q0 -155 70 -230t217 -75q94 0 227 20l15 -121q-134 -24 -262 -24z" />
    <glyph glyph-name="u" unicode="u" 
d="M529 -20q-175 0 -271 99t-96 281v700h133v-700q0 -122 68.5 -188.5t192.5 -66.5q150 0 223.5 90.5t73.5 294.5v570h133v-947l146 -14v-99l-261 -10l-15 214h-13q-28 -107 -110.5 -165.5t-203.5 -58.5z" />
    <glyph glyph-name="v" unicode="v" 
d="M509 0l-413 1060h143l357 -947h11l354 947h143l-413 -1060h-182z" />
    <glyph glyph-name="w" unicode="w" 
d="M745 0l-149 934h-12l-145 -934h-197l-156 1060h123l133 -953h15l152 953h163l151 -953h15l150 953h126l-186 -1060h-183z" />
    <glyph glyph-name="x" unicode="x" 
d="M122 0l404 527l-404 533h159l321 -430l317 430h159l-401 -530l401 -530h-159l-319 428l-319 -428h-159z" />
    <glyph glyph-name="y" unicode="y" 
d="M91 -480l-6 124l100 15q128 20 218 98.5t166 242.5h-49l-449 1060h144l392 -947h9q8 20 12 31l327 916h144l-364 -966q-107 -284 -226 -409.5t-300 -149.5z" />
    <glyph glyph-name="z" unicode="z" 
d="M176 0v119l670 822h-670v119h824v-119l-668 -822h688v-119h-844z" />
    <glyph glyph-name="braceleft" unicode="{" 
d="M829 -214q-163 0 -252.5 97t-89.5 273q0 55 21 166t21 170q0 153 -254 153v140q105 0 179.5 41.5t74.5 111.5q0 62 -21 171.5t-21 164.5q0 168 89.5 260t252.5 92q87 0 154 -20l-17 -111q-81 11 -119 11q-111 0 -169.5 -60.5t-58.5 -171.5q0 -58 23 -166t23 -166
q0 -102 -69 -159.5t-193 -59.5v-16q123 -2 192.5 -60.5t69.5 -158.5q0 -62 -23 -170t-23 -162q0 -120 58.5 -185t169.5 -65q39 0 120 11l16 -111q-67 -20 -154 -20z" />
    <glyph glyph-name="bar" unicode="|" 
d="M537 -310v2040h126v-2040h-126z" />
    <glyph glyph-name="braceright" unicode="}" 
d="M371 -214q-87 0 -154 20l17 111q81 -11 119 -11q111 0 170 65t59 185q0 54 -23 162t-23 170q0 100 69.5 158.5t192.5 60.5v16q-124 2 -193 59.5t-69 159.5q0 58 23 166t23 166q0 111 -59 171.5t-170 60.5q-39 0 -118 -11l-18 111q67 20 154 20q163 0 252.5 -92t89.5 -260
q0 -55 -21 -164.5t-21 -171.5q0 -70 74.5 -111.5t179.5 -41.5v-140q-254 0 -254 -153q0 -59 21 -170t21 -166q0 -176 -89.5 -273t-252.5 -97z" />
    <glyph glyph-name="asciitilde" unicode="~" 
d="M116 486v80q0 173 60.5 251.5t193.5 78.5q64 0 122.5 -29.5t140.5 -99.5q77 -66 122.5 -93t88.5 -27q60 0 86.5 45.5t26.5 147.5v90h127v-80q0 -173 -53 -251.5t-171 -78.5q-70 0 -128.5 29t-134.5 97q-74 67 -121 95t-94 28q-73 0 -106 -46t-33 -147v-90h-127z" />
    <glyph glyph-name="uni00A0" unicode="&#xa0;" 
 />
    <glyph glyph-name="exclamdown" unicode="&#xa1;" 
d="M535 -370l4 1041h118l8 -1041h-130zM600 1080q48 0 82 -33.5t34 -81.5t-34 -82t-82 -34t-82 34t-34 82t34 81.5t82 33.5z" />
    <glyph glyph-name="cent" unicode="&#xa2;" 
d="M610 -334v319q-225 23 -341.5 162t-116.5 385q0 243 118.5 385t339.5 160v317h106v-315q133 -8 228 -65t137 -154l-110 -76q-83 148 -255 168v-847q145 0 307 31l16 -123q-130 -31 -323 -33v-314h-106zM610 113v839q-155 -17 -239 -123t-84 -287q0 -186 82 -294.5
t241 -134.5z" />
    <glyph glyph-name="sterling" unicode="&#xa3;" 
d="M140 0v122q144 247 152 475h-175v106h175v333q0 193 114 298.5t317 105.5q129 0 228.5 -58t152.5 -164l-105 -77q-49 85 -123 131.5t-161 46.5q-131 0 -210 -74.5t-79 -209.5v-332h463v-106h-463q-8 -230 -152 -475h814v-122h-948z" />
    <glyph glyph-name="currency" unicode="&#xa4;" 
d="M603 300q-143 0 -245 68l-181 -195l-89 90l182 188q-75 103 -75 249t75 248l-182 187l93 85l176 -188q102 68 246 68q140 0 242 -65l174 185l93 -85l-178 -184q77 -102 77 -251q0 -147 -77 -252l178 -185l-89 -90l-178 193q-100 -66 -242 -66zM603 423q124 0 198.5 76
t74.5 201t-74.5 201t-198.5 76t-198.5 -76t-74.5 -201t74.5 -201t198.5 -76z" />
    <glyph glyph-name="yen" unicode="&#xa5;" 
d="M162 506v106h318l-439 808h139l414 -780h12l414 780h139l-439 -808h320v-106h-377v-193h377v-106h-377v-207h-126v207h-375v106h375v193h-375z" />
    <glyph glyph-name="brokenbar" unicode="&#xa6;" 
d="M537 -310v860h126v-860h-126zM537 870v860h126v-860h-126z" />
    <glyph glyph-name="section" unicode="&#xa7;" 
d="M1115 674q0 -140 -82 -208.5t-251 -69.5v-18q119 -28 176 -94t57 -178q0 -166 -120 -246t-370 -80q-225 0 -346 30l24 125q201 -32 322 -32q180 0 267.5 49t87.5 150q0 78 -41 122t-125 60l-308 67q-165 34 -243 107t-78 200q0 148 103.5 220.5t315.5 71.5v13
q-169 41 -244 105.5t-75 169.5q0 169 124.5 249.5t383.5 80.5q133 0 264 -20l-22 -117q-149 14 -248 14q-187 0 -277 -48.5t-90 -148.5q0 -66 48 -106.5t148 -64.5l293 -80q158 -42 232 -118t74 -205zM220 668q0 -217 405 -217q181 0 268 54t87 165q0 116 -93.5 170.5
t-279.5 54.5q-197 0 -292 -55.5t-95 -171.5z" />
    <glyph glyph-name="dieresis" unicode="&#xa8;" 
d="M390 1261q-46 0 -78.5 32.5t-32.5 78.5t32.5 78.5t78.5 32.5t78.5 -32.5t32.5 -78.5t-32.5 -78.5t-78.5 -32.5zM810 1261q-46 0 -78.5 32.5t-32.5 78.5t32.5 78.5t78.5 32.5t78.5 -32.5t32.5 -78.5t-32.5 -78.5t-78.5 -32.5z" />
    <glyph glyph-name="copyright" unicode="&#xa9;" 
d="M600 15q-266 0 -412 178t-146 502q0 338 146 524t412 186t412 -186t146 -524q0 -324 -146 -502t-412 -178zM600 126q210 0 325 149t115 420q0 284 -115 440.5t-325 156.5t-325 -156.5t-115 -440.5q0 -271 115 -420t325 -149zM652 403q-160 0 -247.5 80t-87.5 229
q0 145 85.5 225t241.5 80q86 0 148 -30.5t88 -86.5l-87 -79q-55 82 -157 82q-92 0 -141.5 -47t-49.5 -134q0 -100 59.5 -152.5t171.5 -52.5q83 0 172 26l24 -110q-88 -30 -220 -30z" />
    <glyph glyph-name="ordfeminine" unicode="&#xaa;" 
d="M727 779l-6 135h-20q-28 -74 -79.5 -107.5t-152.5 -33.5q-105 0 -163 50.5t-58 142.5q0 104 70 160.5t199 56.5q109 0 186 -12v7q0 75 -53 115.5t-156 40.5h-169l11 106l146 -1q176 -1 256.5 -71t80.5 -209v-276l107 -13v-85zM703 1078v2q-61 8 -182 8q-154 0 -154 -112
q0 -104 126 -104q98 0 154 50.5t56 116.5v39z" />
    <glyph glyph-name="guillemotleft" unicode="&#xab;" 
d="M526 42l-446 459v56l438 461l86 -77l-384 -403v-18l392 -402zM1021 42l-446 459v56l438 461l86 -77l-384 -403v-18l392 -402z" />
    <glyph glyph-name="logicalnot" unicode="&#xac;" 
d="M116 781v122h968v-553h-127v431h-841z" />
    <glyph glyph-name="uni00AD" unicode="&#xad;" 
d="M116 648v122h968v-122h-968z" />
    <glyph glyph-name="registered" unicode="&#xae;" 
d="M600 15q-266 0 -412 178t-146 502q0 338 146 524t412 186t412 -186t146 -524q0 -324 -146 -502t-412 -178zM600 126q210 0 325 149t115 420q0 284 -115 440.5t-325 156.5t-325 -156.5t-115 -440.5q0 -271 115 -420t325 -149zM370 396v621h278q108 0 167 -51t59 -144
q0 -137 -110 -187l124 -239h-128l-106 217h-6h-162v-217h-116zM486 717h162q53 0 82.5 25.5t29.5 72.5t-29.5 72.5t-82.5 25.5h-162v-196z" />
    <glyph glyph-name="macron" unicode="&#xaf;" 
d="M187 1248v123h826v-123h-826z" />
    <glyph glyph-name="degree" unicode="&#xb0;" 
d="M600 690q-180 0 -281 99t-101 276t101 276t281 99t281 -99t101 -276t-101 -276t-281 -99zM600 808q119 0 186 68t67 189t-67 189t-186 68t-186 -68t-67 -189t67 -189t186 -68z" />
    <glyph glyph-name="plusminus" unicode="&#xb1;" 
d="M116 715v122h421v387h126v-387h421v-122h-421v-375h421v-122h-968v122h421v375h-421z" />
    <glyph glyph-name="uni00B2" unicode="&#xb2;" 
d="M371 802v124q167 74 248 146.5t81 149.5q0 103 -126 103q-92 0 -185 -45l-43 102q99 58 241 58q117 0 179.5 -51t62.5 -147q0 -195 -282 -320v-13h308v-107h-484z" />
    <glyph glyph-name="uni00B3" unicode="&#xb3;" 
d="M562 793q-116 -1 -202 26l32 107q102 -21 156 -21q81 0 125.5 23t44.5 66q0 35 -42.5 54.5t-120.5 19.5h-64l-10 98q219 20 219 102q0 61 -135 61q-99 0 -177 -29l-16 110q87 30 210 30q116 0 178 -39t62 -112q0 -53 -45.5 -92.5t-120.5 -53.5v-14q85 -11 134 -50.5
t49 -103.5q0 -87 -72 -133.5t-205 -48.5z" />
    <glyph glyph-name="acute" unicode="&#xb4;" 
d="M449 1248l217 380h144l-230 -380h-131z" />
    <glyph glyph-name="uni00B5" unicode="&#xb5;" 
d="M574 -20q-217 0 -275 224h-12l17 -664h-137v1520h133v-630q0 -153 72 -236t202 -83q144 0 214 89.5t70 289.5v570h133v-947l146 -14v-99l-261 -10l-15 214h-13q-25 -107 -97.5 -165.5t-176.5 -58.5z" />
    <glyph glyph-name="paragraph" unicode="&#xb6;" 
d="M459 0v681q-196 11 -301.5 104t-105.5 257q0 179 123 278.5t349 99.5h620v-122h-189v-1298h-126v1298h-244v-1298h-126z" />
    <glyph glyph-name="periodcentered" unicode="&#xb7;" 
d="M600 562q-48 0 -82 33.5t-34 81.5t34 82t82 34t82 -34t34 -82t-34 -81.5t-82 -33.5z" />
    <glyph glyph-name="cedilla" unicode="&#xb8;" 
d="M374 -480v104q120 0 175.5 25t55.5 80q0 50 -48 72.5t-153 22.5l79 211l92 -29l-35 -113q186 -20 186 -167q0 -107 -85 -156.5t-267 -49.5z" />
    <glyph glyph-name="uni00B9" unicode="&#xb9;" 
d="M357 801v107h204v397l-195 -51v114l195 53h114v-513h168v-107h-486z" />
    <glyph glyph-name="ordmasculine" unicode="&#xba;" 
d="M600 770q-148 0 -237 91.5t-89 243.5t89 243.5t237 91.5t237 -91.5t89 -243.5t-89 -243.5t-237 -91.5zM600 873q92 0 148 64t56 168q0 105 -56 168.5t-148 63.5t-148 -63.5t-56 -168.5q0 -104 56 -168t148 -64z" />
    <glyph glyph-name="guillemotright" unicode="&#xbb;" 
d="M179 42l-86 76l392 402v18l-384 403l86 77l438 -461v-56zM674 42l-86 76l392 402v18l-384 403l86 77l438 -461v-56z" />
    <glyph glyph-name="onequarter" unicode="&#xbc;" 
d="M583 106l1 2l78 477h117l-61 -374h191v407h114v-407h74v-105h-74v-106h-114v106h-326zM186 286l-67 96l905 704l67 -94zM97 801v107h204v397l-195 -51v114l195 53h114v-513h168v-107h-486z" />
    <glyph glyph-name="onehalf" unicode="&#xbd;" 
d="M641 -1v124q167 74 248 146.5t81 149.5q0 103 -126 103q-92 0 -185 -45l-43 102q99 58 241 58q117 0 179.5 -51t62.5 -147q0 -195 -282 -320v-13h308v-107h-484zM186 296l-67 96l905 704l67 -94zM97 801v107h204v397l-195 -51v114l195 53h114v-513h168v-107h-486z" />
    <glyph glyph-name="threequarters" unicode="&#xbe;" 
d="M322 793q-116 -1 -202 26l32 107q102 -21 156 -21q81 0 125.5 23t44.5 66q0 35 -42.5 54.5t-120.5 19.5h-64l-10 98q219 20 219 102q0 61 -135 61q-99 0 -177 -29l-16 110q87 30 210 30q116 0 178 -39t62 -112q0 -53 -45.5 -92.5t-120.5 -53.5v-14q85 -11 134 -50.5
t49 -103.5q0 -87 -72 -133.5t-205 -48.5zM583 106l1 2l78 477h117l-61 -374h191v407h114v-407h74v-105h-74v-106h-114v106h-326zM186 306l-67 96l905 704l67 -94z" />
    <glyph glyph-name="questiondown" unicode="&#xbf;" 
d="M604 -380q-188 0 -291 90.5t-103 254.5q0 115 56.5 207.5t178.5 176.5q134 92 134 226v96h126v-110q0 -94 -43 -166.5t-135 -135.5q-95 -64 -138.5 -132t-43.5 -152q0 -110 68.5 -171t192.5 -61q197 0 377 159l85 -90q-195 -192 -464 -192zM638 1080q48 0 82 -33.5
t34 -81.5t-34 -82t-82 -34t-82 34t-34 82t34 81.5t82 33.5z" />
    <glyph glyph-name="Agrave" unicode="&#xc0;" 
d="M61 0l448 1420h182l448 -1420h-131l-117 380h-582l-117 -380h-131zM346 502h508l-248 809h-12zM533 1580l-247 250h176l223 -250h-152z" />
    <glyph glyph-name="Aacute" unicode="&#xc1;" 
d="M61 0l448 1420h182l448 -1420h-131l-117 380h-582l-117 -380h-131zM346 502h508l-248 809h-12zM519 1580l223 250h176l-247 -250h-152z" />
    <glyph glyph-name="Acircumflex" unicode="&#xc2;" 
d="M61 0l448 1420h182l448 -1420h-131l-117 380h-582l-117 -380h-131zM346 502h508l-248 809h-12zM269 1580l277 260h112l277 -260h-159l-174 172l-174 -172h-159z" />
    <glyph glyph-name="Atilde" unicode="&#xc3;" 
d="M61 0l448 1420h182l448 -1420h-131l-117 380h-582l-117 -380h-131zM346 502h508l-248 809h-12zM238 1566v70q0 230 194 230q83 0 200 -78q112 -76 164 -76q70 0 70 105v73h117v-63q0 -227 -173 -227q-83 0 -209 84q-105 70 -157 70q-88 0 -88 -108v-80h-118z" />
    <glyph glyph-name="Adieresis" unicode="&#xc4;" 
d="M61 0l448 1420h182l448 -1420h-131l-117 380h-582l-117 -380h-131zM346 502h508l-248 809h-12zM392 1603q-46 0 -78.5 32t-32.5 78t32.5 79t78.5 33t78.5 -33t32.5 -79t-32.5 -78t-78.5 -32zM808 1603q-46 0 -78.5 32t-32.5 78t32.5 79t78.5 33t78.5 -33t32.5 -79
t-32.5 -78t-78.5 -32z" />
    <glyph glyph-name="Aring" unicode="&#xc5;" 
d="M61 0l448 1420h182l448 -1420h-131l-117 380h-582l-117 -380h-131zM346 502h508l-248 809h-12zM600 1488q-103 0 -164 55.5t-61 150.5t61 150.5t164 55.5t164 -55.5t61 -150.5t-61 -150.5t-164 -55.5zM600 1577q58 0 92.5 32t34.5 85t-34.5 85t-92.5 32t-92.5 -32
t-34.5 -85t34.5 -85t92.5 -32z" />
    <glyph glyph-name="AE" unicode="&#xc6;" 
d="M59 0l466 1420h558v-122h-336v-526h276v-122h-276v-528h336v-122h-456v270h-359l-89 -270h-120zM307 387h320v917h-17z" />
    <glyph glyph-name="Ccedilla" unicode="&#xc7;" 
d="M741 -20h-31l-27 -87q186 -20 186 -167q0 -107 -85 -156.5t-267 -49.5v104q120 0 175.5 25t55.5 80q0 50 -48 72.5t-153 22.5l62 165q-514 71 -514 723q0 347 162.5 537.5t459.5 190.5q142 0 246.5 -47t152.5 -132l-92 -94q-52 72 -132 112t-173 40q-226 0 -358.5 -157.5
t-132.5 -439.5q0 -621 534 -621q149 0 297 65l32 -118q-166 -68 -350 -68z" />
    <glyph glyph-name="Egrave" unicode="&#xc8;" 
d="M176 0v1420h908v-122h-781v-526h601v-122h-601v-528h781v-122h-908zM563 1580l-247 250h176l223 -250h-152z" />
    <glyph glyph-name="Eacute" unicode="&#xc9;" 
d="M176 0v1420h908v-122h-781v-526h601v-122h-601v-528h781v-122h-908zM549 1580l223 250h176l-247 -250h-152z" />
    <glyph glyph-name="Ecircumflex" unicode="&#xca;" 
d="M176 0v1420h908v-122h-781v-526h601v-122h-601v-528h781v-122h-908zM299 1580l277 260h112l277 -260h-159l-174 172l-174 -172h-159z" />
    <glyph glyph-name="Edieresis" unicode="&#xcb;" 
d="M176 0v1420h908v-122h-781v-526h601v-122h-601v-528h781v-122h-908zM422 1603q-46 0 -78.5 32t-32.5 78t32.5 79t78.5 33t78.5 -33t32.5 -79t-32.5 -78t-78.5 -32zM838 1603q-46 0 -78.5 32t-32.5 78t32.5 79t78.5 33t78.5 -33t32.5 -79t-32.5 -78t-78.5 -32z" />
    <glyph glyph-name="Igrave" unicode="&#xcc;" 
d="M184 0v122h352v1176h-352v122h832v-122h-354v-1176h354v-122h-832zM533 1580l-247 250h176l223 -250h-152z" />
    <glyph glyph-name="Iacute" unicode="&#xcd;" 
d="M184 0v122h352v1176h-352v122h832v-122h-354v-1176h354v-122h-832zM519 1580l223 250h176l-247 -250h-152z" />
    <glyph glyph-name="Icircumflex" unicode="&#xce;" 
d="M184 0v122h352v1176h-352v122h832v-122h-354v-1176h354v-122h-832zM269 1580l277 260h112l277 -260h-159l-174 172l-174 -172h-159z" />
    <glyph glyph-name="Idieresis" unicode="&#xcf;" 
d="M184 0v122h352v1176h-352v122h832v-122h-354v-1176h354v-122h-832zM392 1603q-46 0 -78.5 32t-32.5 78t32.5 79t78.5 33t78.5 -33t32.5 -79t-32.5 -78t-78.5 -32zM808 1603q-46 0 -78.5 32t-32.5 78t32.5 79t78.5 33t78.5 -33t32.5 -79t-32.5 -78t-78.5 -32z" />
    <glyph glyph-name="Eth" unicode="&#xd0;" 
d="M12 646v122h137v652h328q634 0 634 -730q0 -690 -634 -690h-328v646h-137zM276 122h201q503 0 503 568q0 608 -503 608h-201v-530h375v-122h-375v-524z" />
    <glyph glyph-name="Ntilde" unicode="&#xd1;" 
d="M854 0l-554 1248h-12v-1248h-124v1420h183l554 -1248h11v1248h124v-1420h-182zM238 1566v70q0 230 194 230q83 0 200 -78q112 -76 164 -76q70 0 70 105v73h117v-63q0 -227 -173 -227q-83 0 -209 84q-105 70 -157 70q-88 0 -88 -108v-80h-118z" />
    <glyph glyph-name="Ograve" unicode="&#xd2;" 
d="M600 -20q-508 0 -508 720q0 740 508 740t508 -740q0 -720 -508 -720zM600 95q377 0 377 605q0 619 -377 619t-377 -619q0 -605 377 -605zM533 1580l-247 250h176l223 -250h-152z" />
    <glyph glyph-name="Oacute" unicode="&#xd3;" 
d="M600 -20q-508 0 -508 720q0 740 508 740t508 -740q0 -720 -508 -720zM600 95q377 0 377 605q0 619 -377 619t-377 -619q0 -605 377 -605zM519 1580l223 250h176l-247 -250h-152z" />
    <glyph glyph-name="Ocircumflex" unicode="&#xd4;" 
d="M600 -20q-508 0 -508 720q0 740 508 740t508 -740q0 -720 -508 -720zM600 95q377 0 377 605q0 619 -377 619t-377 -619q0 -605 377 -605zM269 1580l277 260h112l277 -260h-159l-174 172l-174 -172h-159z" />
    <glyph glyph-name="Otilde" unicode="&#xd5;" 
d="M600 -20q-508 0 -508 720q0 740 508 740t508 -740q0 -720 -508 -720zM600 95q377 0 377 605q0 619 -377 619t-377 -619q0 -605 377 -605zM238 1566v70q0 230 194 230q83 0 200 -78q112 -76 164 -76q70 0 70 105v73h117v-63q0 -227 -173 -227q-83 0 -209 84
q-105 70 -157 70q-88 0 -88 -108v-80h-118z" />
    <glyph glyph-name="Odieresis" unicode="&#xd6;" 
d="M600 -20q-508 0 -508 720q0 740 508 740t508 -740q0 -720 -508 -720zM600 95q377 0 377 605q0 619 -377 619t-377 -619q0 -605 377 -605zM392 1603q-46 0 -78.5 32t-32.5 78t32.5 79t78.5 33t78.5 -33t32.5 -79t-32.5 -78t-78.5 -32zM808 1603q-46 0 -78.5 32t-32.5 78
t32.5 79t78.5 33t78.5 -33t32.5 -79t-32.5 -78t-78.5 -32z" />
    <glyph glyph-name="multiply" unicode="&#xd7;" 
d="M222 231l-85 78l381 378l-381 378l85 80l378 -376l378 376l85 -80l-381 -378l381 -378l-85 -78l-378 375z" />
    <glyph glyph-name="Oslash" unicode="&#xd8;" 
d="M194 -134l-91 55l125 227q-136 179 -136 552q0 740 508 740q174 0 288 -87l98 179l91 -55l-111 -202q142 -186 142 -575q0 -720 -508 -720q-177 0 -295 89zM600 95q377 0 377 605q0 289 -83 444l-526 -961q88 -88 232 -88zM299 279l525 958q-86 82 -224 82
q-377 0 -377 -619q0 -273 76 -421z" />
    <glyph glyph-name="Ugrave" unicode="&#xd9;" 
d="M596 -20q-440 0 -440 476v964h127v-964q0 -178 77 -265.5t240 -87.5q317 0 317 353v964h127v-964q0 -237 -113.5 -356.5t-334.5 -119.5zM533 1580l-247 250h176l223 -250h-152z" />
    <glyph glyph-name="Uacute" unicode="&#xda;" 
d="M596 -20q-440 0 -440 476v964h127v-964q0 -178 77 -265.5t240 -87.5q317 0 317 353v964h127v-964q0 -237 -113.5 -356.5t-334.5 -119.5zM519 1580l223 250h176l-247 -250h-152z" />
    <glyph glyph-name="Ucircumflex" unicode="&#xdb;" 
d="M596 -20q-440 0 -440 476v964h127v-964q0 -178 77 -265.5t240 -87.5q317 0 317 353v964h127v-964q0 -237 -113.5 -356.5t-334.5 -119.5zM269 1580l277 260h112l277 -260h-159l-174 172l-174 -172h-159z" />
    <glyph glyph-name="Udieresis" unicode="&#xdc;" 
d="M596 -20q-440 0 -440 476v964h127v-964q0 -178 77 -265.5t240 -87.5q317 0 317 353v964h127v-964q0 -237 -113.5 -356.5t-334.5 -119.5zM392 1603q-46 0 -78.5 32t-32.5 78t32.5 79t78.5 33t78.5 -33t32.5 -79t-32.5 -78t-78.5 -32zM808 1603q-46 0 -78.5 32t-32.5 78
t32.5 79t78.5 33t78.5 -33t32.5 -79t-32.5 -78t-78.5 -32z" />
    <glyph glyph-name="Yacute" unicode="&#xdd;" 
d="M537 0v507l-496 913h139l414 -780h12l414 780h139l-496 -913v-507h-126zM519 1580l223 250h176l-247 -250h-152z" />
    <glyph glyph-name="Thorn" unicode="&#xde;" 
d="M176 0v1420h127v-237h288q245 0 379 -123.5t134 -349.5t-134 -349.5t-379 -123.5h-288v-237h-127zM303 359h288q182 0 282 92t100 259q0 168 -100 259.5t-282 91.5h-288v-702z" />
    <glyph glyph-name="germandbls" unicode="&#xdf;" 
d="M818 -20q-149 0 -252 30l24 127q155 -32 228 -32q92 0 142.5 46.5t50.5 130.5q0 35 -9 64t-31 57.5t-36 43t-47 45.5q-8 8 -39 37t-41.5 40t-32.5 39t-31 48.5t-17 53t-8 67.5q0 60 19.5 108.5t55.5 105.5q28 43 41 65t27 65.5t14 88.5q0 86 -56.5 135t-158.5 50
q-139 0 -214.5 -82.5t-75.5 -232.5v-1080h-133v673h-154v118h154v279q0 215 112 332.5t317 117.5q165 0 255.5 -81t90.5 -229q0 -40 -5 -73t-18 -61.5t-21.5 -44.5t-29 -45t-27.5 -40q-21 -35 -28.5 -49t-17.5 -48t-10 -69q0 -44 27.5 -85.5t80.5 -95.5q88 -85 118 -126
q66 -90 66 -187q0 -146 -86 -226t-244 -80z" />
    <glyph glyph-name="agrave" unicode="&#xe0;" 
d="M859 -10l-10 234h-13q-18 -111 -125 -177.5t-264 -66.5q-160 0 -247.5 74.5t-87.5 210.5q0 166 117.5 251.5t347.5 85.5q148 0 253 -18v45q0 161 -87 235t-276 78l-225 4l20 124l198 -3q259 -4 379.5 -114.5t120.5 -343.5v-494l182 -16v-99zM830 474q-78 13 -257 13
q-330 0 -330 -214q0 -84 56 -129.5t159 -45.5q163 0 267.5 80t104.5 196v100zM539 1248l-230 380h144l217 -380h-131z" />
    <glyph glyph-name="aacute" unicode="&#xe1;" 
d="M859 -10l-10 234h-13q-18 -111 -125 -177.5t-264 -66.5q-160 0 -247.5 74.5t-87.5 210.5q0 166 117.5 251.5t347.5 85.5q148 0 253 -18v45q0 161 -87 235t-276 78l-225 4l20 124l198 -3q259 -4 379.5 -114.5t120.5 -343.5v-494l182 -16v-99zM830 474q-78 13 -257 13
q-330 0 -330 -214q0 -84 56 -129.5t159 -45.5q163 0 267.5 80t104.5 196v100zM509 1248l217 380h144l-230 -380h-131z" />
    <glyph glyph-name="acircumflex" unicode="&#xe2;" 
d="M859 -10l-10 234h-13q-18 -111 -125 -177.5t-264 -66.5q-160 0 -247.5 74.5t-87.5 210.5q0 166 117.5 251.5t347.5 85.5q148 0 253 -18v45q0 161 -87 235t-276 78l-225 4l20 124l198 -3q259 -4 379.5 -114.5t120.5 -343.5v-494l182 -16v-99zM830 474q-78 13 -257 13
q-330 0 -330 -214q0 -84 56 -129.5t159 -45.5q163 0 267.5 80t104.5 196v100zM254 1248l277 380h98l277 -380h-152l-174 261l-174 -261h-152z" />
    <glyph glyph-name="atilde" unicode="&#xe3;" 
d="M859 -10l-10 234h-13q-18 -111 -125 -177.5t-264 -66.5q-160 0 -247.5 74.5t-87.5 210.5q0 166 117.5 251.5t347.5 85.5q148 0 253 -18v45q0 161 -87 235t-276 78l-225 4l20 124l198 -3q259 -4 379.5 -114.5t120.5 -343.5v-494l182 -16v-99zM830 474q-78 13 -257 13
q-330 0 -330 -214q0 -84 56 -129.5t159 -45.5q163 0 267.5 80t104.5 196v100zM241 1256v40q0 250 194 250q40 0 77 -18t87 -53q112 -76 156 -76q68 0 68 111v90h116v-80q0 -240 -172 -240q-59 0 -180 77q-10 6 -33 22t-36 24.5t-31.5 16t-33.5 7.5q-94 0 -94 -121v-50h-118z
" />
    <glyph glyph-name="adieresis" unicode="&#xe4;" 
d="M859 -10l-10 234h-13q-18 -111 -125 -177.5t-264 -66.5q-160 0 -247.5 74.5t-87.5 210.5q0 166 117.5 251.5t347.5 85.5q148 0 253 -18v45q0 161 -87 235t-276 78l-225 4l20 124l198 -3q259 -4 379.5 -114.5t120.5 -343.5v-494l182 -16v-99zM830 474q-78 13 -257 13
q-330 0 -330 -214q0 -84 56 -129.5t159 -45.5q163 0 267.5 80t104.5 196v100zM372 1261q-46 0 -78.5 32.5t-32.5 78.5t32.5 78.5t78.5 32.5t78.5 -32.5t32.5 -78.5t-32.5 -78.5t-78.5 -32.5zM792 1261q-46 0 -78.5 32.5t-32.5 78.5t32.5 78.5t78.5 32.5t78.5 -32.5
t32.5 -78.5t-32.5 -78.5t-78.5 -32.5z" />
    <glyph glyph-name="aring" unicode="&#xe5;" 
d="M859 -10l-10 234h-13q-18 -111 -125 -177.5t-264 -66.5q-160 0 -247.5 74.5t-87.5 210.5q0 166 117.5 251.5t347.5 85.5q148 0 253 -18v45q0 161 -87 235t-276 78l-225 4l20 124l198 -3q259 -4 379.5 -114.5t120.5 -343.5v-494l182 -16v-99zM830 474q-78 13 -257 13
q-330 0 -330 -214q0 -84 56 -129.5t159 -45.5q163 0 267.5 80t104.5 196v100zM580 1198q-106 0 -164 56.5t-58 159.5t58 159.5t164 56.5t164 -56.5t58 -159.5t-58 -159.5t-164 -56.5zM580 1293q55 0 85 31.5t30 89.5t-30 89.5t-85 31.5t-85 -31.5t-30 -89.5t30 -89.5
t85 -31.5z" />
    <glyph glyph-name="ae" unicode="&#xe6;" 
d="M311 -20q-132 0 -206.5 78.5t-74.5 217.5q0 162 90.5 249t259.5 87q87 0 153 -12v66q0 127 -82.5 200t-232.5 79l-78 3l20 122l78 -3q136 -5 228 -67.5t133 -175.5q35 125 103 190.5t165 65.5q140 0 212.5 -131.5t72.5 -387.5q0 -57 -6 -104h-484q17 -169 97.5 -260.5
t214.5 -91.5q58 0 110 21l19 -123q-72 -23 -153 -23q-260 0 -347 277h-10q-19 -133 -91 -205t-191 -72zM533 374v113q-47 10 -157 10q-107 0 -163 -55.5t-56 -162.5q0 -85 46 -133t126 -48q94 0 149 74.5t55 201.5zM658 568h366q0 389 -162 389q-96 0 -148 -99.5t-56 -289.5
z" />
    <glyph glyph-name="ccedilla" unicode="&#xe7;" 
d="M702 -20h-7l-27 -87q186 -20 186 -167q0 -107 -85 -156.5t-267 -49.5v104q120 0 175.5 25t55.5 80q0 50 -48 72.5t-153 22.5l61 163q-216 27 -328.5 165.5t-112.5 379.5q0 261 136 404.5t386 143.5q149 0 255.5 -57.5t151.5 -162.5l-110 -76q-95 171 -305 171
q-180 0 -279.5 -108t-99.5 -305q0 -215 108.5 -326t317.5 -111q147 0 310 31l16 -123q-138 -33 -337 -33z" />
    <glyph glyph-name="egrave" unicode="&#xe8;" 
d="M703 -20q-263 0 -407 146t-144 414q0 257 121 398.5t342 141.5q206 0 319.5 -128.5t113.5 -363.5q0 -62 -6 -104h-759q17 -183 131.5 -282t312.5 -99q124 0 250 28l19 -123q-137 -28 -293 -28zM283 598h637q0 171 -79.5 265t-223.5 94q-147 0 -234 -94t-100 -265z
M569 1248l-230 380h144l217 -380h-131z" />
    <glyph glyph-name="eacute" unicode="&#xe9;" 
d="M703 -20q-263 0 -407 146t-144 414q0 257 121 398.5t342 141.5q206 0 319.5 -128.5t113.5 -363.5q0 -62 -6 -104h-759q17 -183 131.5 -282t312.5 -99q124 0 250 28l19 -123q-137 -28 -293 -28zM283 598h637q0 171 -79.5 265t-223.5 94q-147 0 -234 -94t-100 -265z
M539 1248l217 380h144l-230 -380h-131z" />
    <glyph glyph-name="ecircumflex" unicode="&#xea;" 
d="M703 -20q-263 0 -407 146t-144 414q0 257 121 398.5t342 141.5q206 0 319.5 -128.5t113.5 -363.5q0 -62 -6 -104h-759q17 -183 131.5 -282t312.5 -99q124 0 250 28l19 -123q-137 -28 -293 -28zM283 598h637q0 171 -79.5 265t-223.5 94q-147 0 -234 -94t-100 -265z
M284 1248l277 380h98l277 -380h-152l-174 261l-174 -261h-152z" />
    <glyph glyph-name="edieresis" unicode="&#xeb;" 
d="M703 -20q-263 0 -407 146t-144 414q0 257 121 398.5t342 141.5q206 0 319.5 -128.5t113.5 -363.5q0 -62 -6 -104h-759q17 -183 131.5 -282t312.5 -99q124 0 250 28l19 -123q-137 -28 -293 -28zM283 598h637q0 171 -79.5 265t-223.5 94q-147 0 -234 -94t-100 -265z
M402 1261q-46 0 -78.5 32.5t-32.5 78.5t32.5 78.5t78.5 32.5t78.5 -32.5t32.5 -78.5t-32.5 -78.5t-78.5 -32.5zM822 1261q-46 0 -78.5 32.5t-32.5 78.5t32.5 78.5t78.5 32.5t78.5 -32.5t32.5 -78.5t-32.5 -78.5t-78.5 -32.5z" />
    <glyph glyph-name="igrave" unicode="&#xec;" 
d="M176 0v118h427v824h-367v118h501v-942h349v-118h-910zM609 1248l-230 380h144l217 -380h-131z" />
    <glyph glyph-name="iacute" unicode="&#xed;" 
d="M176 0v118h427v824h-367v118h501v-942h349v-118h-910zM579 1248l217 380h144l-230 -380h-131z" />
    <glyph glyph-name="icircumflex" unicode="&#xee;" 
d="M176 0v118h427v824h-367v118h501v-942h349v-118h-910zM324 1248l277 380h98l277 -380h-152l-174 261l-174 -261h-152z" />
    <glyph glyph-name="idieresis" unicode="&#xef;" 
d="M176 0v118h427v824h-367v118h501v-942h349v-118h-910zM442 1261q-46 0 -78.5 32.5t-32.5 78.5t32.5 78.5t78.5 32.5t78.5 -32.5t32.5 -78.5t-32.5 -78.5t-78.5 -32.5zM862 1261q-46 0 -78.5 32.5t-32.5 78.5t32.5 78.5t78.5 32.5t78.5 -32.5t32.5 -78.5t-32.5 -78.5
t-78.5 -32.5z" />
    <glyph glyph-name="eth" unicode="&#xf0;" 
d="M579 -20q-214 0 -332 122t-118 341q0 228 112 352.5t317 124.5q136 0 229.5 -55.5t124.5 -156.5h11q-9 300 -171 478l-484 -162l-28 115l411 137q-124 91 -311 154l43 86q242 -79 389 -200l287 96l27 -115l-219 -73q196 -229 196 -650v-95q0 -236 -127.5 -367.5
t-356.5 -131.5zM582 103q153 0 243 81t99 227v67q-9 153 -95.5 236t-237.5 83q-157 0 -242 -92t-85 -262q0 -160 84 -250t234 -90z" />
    <glyph glyph-name="ntilde" unicode="&#xf1;" 
d="M883 0v693q0 125 -66.5 193.5t-186.5 68.5q-313 0 -313 -356v-599h-133v1060h121l10 -192h14q45 212 312 212q179 0 277 -102t98 -288v-690h-133zM251 1256v40q0 250 194 250q40 0 77 -18t87 -53q112 -76 156 -76q68 0 68 111v90h116v-80q0 -240 -172 -240q-59 0 -180 77
q-10 6 -33 22t-36 24.5t-31.5 16t-33.5 7.5q-94 0 -94 -121v-50h-118z" />
    <glyph glyph-name="ograve" unicode="&#xf2;" 
d="M600 -20q-213 0 -330.5 144t-117.5 406t117.5 406t330.5 144t330.5 -144t117.5 -406t-117.5 -406t-330.5 -144zM600 105q149 0 230 111t81 314t-81 314t-230 111t-230 -111t-81 -314t81 -314t230 -111zM559 1248l-230 380h144l217 -380h-131z" />
    <glyph glyph-name="oacute" unicode="&#xf3;" 
d="M600 -20q-213 0 -330.5 144t-117.5 406t117.5 406t330.5 144t330.5 -144t117.5 -406t-117.5 -406t-330.5 -144zM600 105q149 0 230 111t81 314t-81 314t-230 111t-230 -111t-81 -314t81 -314t230 -111zM529 1248l217 380h144l-230 -380h-131z" />
    <glyph glyph-name="ocircumflex" unicode="&#xf4;" 
d="M600 -20q-213 0 -330.5 144t-117.5 406t117.5 406t330.5 144t330.5 -144t117.5 -406t-117.5 -406t-330.5 -144zM600 105q149 0 230 111t81 314t-81 314t-230 111t-230 -111t-81 -314t81 -314t230 -111zM274 1248l277 380h98l277 -380h-152l-174 261l-174 -261h-152z" />
    <glyph glyph-name="otilde" unicode="&#xf5;" 
d="M600 -20q-213 0 -330.5 144t-117.5 406t117.5 406t330.5 144t330.5 -144t117.5 -406t-117.5 -406t-330.5 -144zM600 105q149 0 230 111t81 314t-81 314t-230 111t-230 -111t-81 -314t81 -314t230 -111zM261 1256v40q0 250 194 250q40 0 77 -18t87 -53q112 -76 156 -76
q68 0 68 111v90h116v-80q0 -240 -172 -240q-59 0 -180 77q-10 6 -33 22t-36 24.5t-31.5 16t-33.5 7.5q-94 0 -94 -121v-50h-118z" />
    <glyph glyph-name="odieresis" unicode="&#xf6;" 
d="M600 -20q-213 0 -330.5 144t-117.5 406t117.5 406t330.5 144t330.5 -144t117.5 -406t-117.5 -406t-330.5 -144zM600 105q149 0 230 111t81 314t-81 314t-230 111t-230 -111t-81 -314t81 -314t230 -111zM392 1261q-46 0 -78.5 32.5t-32.5 78.5t32.5 78.5t78.5 32.5
t78.5 -32.5t32.5 -78.5t-32.5 -78.5t-78.5 -32.5zM812 1261q-46 0 -78.5 32.5t-32.5 78.5t32.5 78.5t78.5 32.5t78.5 -32.5t32.5 -78.5t-32.5 -78.5t-78.5 -32.5z" />
    <glyph glyph-name="divide" unicode="&#xf7;" 
d="M116 648v122h968v-122h-968zM600 175q-49 0 -83 34t-34 82q0 49 34 83t83 34t83 -34t34 -83q0 -48 -34 -82t-83 -34zM600 1008q-49 0 -83 34t-34 83q0 48 34 82t83 34t83 -34t34 -82q0 -49 -34.5 -83t-82.5 -34z" />
    <glyph glyph-name="oslash" unicode="&#xf8;" 
d="M301 -134l-85 58l87 164q-151 143 -151 442q0 262 117.5 406t330.5 144q117 0 209 -46l87 164l95 -48l-95 -177q152 -144 152 -443q0 -262 -117.5 -406t-330.5 -144q-122 0 -212 48zM600 105q149 0 230 111t81 314q0 205 -83 317l-378 -704q64 -38 150 -38zM371 215
l376 704q-63 36 -147 36q-149 0 -230 -111t-81 -314q0 -204 82 -315z" />
    <glyph glyph-name="ugrave" unicode="&#xf9;" 
d="M529 -20q-175 0 -271 99t-96 281v700h133v-700q0 -122 68.5 -188.5t192.5 -66.5q150 0 223.5 90.5t73.5 294.5v570h133v-947l146 -14v-99l-261 -10l-15 214h-13q-28 -107 -110.5 -165.5t-203.5 -58.5zM539 1248l-230 380h144l217 -380h-131z" />
    <glyph glyph-name="uacute" unicode="&#xfa;" 
d="M529 -20q-175 0 -271 99t-96 281v700h133v-700q0 -122 68.5 -188.5t192.5 -66.5q150 0 223.5 90.5t73.5 294.5v570h133v-947l146 -14v-99l-261 -10l-15 214h-13q-28 -107 -110.5 -165.5t-203.5 -58.5zM509 1248l217 380h144l-230 -380h-131z" />
    <glyph glyph-name="ucircumflex" unicode="&#xfb;" 
d="M529 -20q-175 0 -271 99t-96 281v700h133v-700q0 -122 68.5 -188.5t192.5 -66.5q150 0 223.5 90.5t73.5 294.5v570h133v-947l146 -14v-99l-261 -10l-15 214h-13q-28 -107 -110.5 -165.5t-203.5 -58.5zM254 1248l277 380h98l277 -380h-152l-174 261l-174 -261h-152z" />
    <glyph glyph-name="udieresis" unicode="&#xfc;" 
d="M529 -20q-175 0 -271 99t-96 281v700h133v-700q0 -122 68.5 -188.5t192.5 -66.5q150 0 223.5 90.5t73.5 294.5v570h133v-947l146 -14v-99l-261 -10l-15 214h-13q-28 -107 -110.5 -165.5t-203.5 -58.5zM372 1261q-46 0 -78.5 32.5t-32.5 78.5t32.5 78.5t78.5 32.5
t78.5 -32.5t32.5 -78.5t-32.5 -78.5t-78.5 -32.5zM792 1261q-46 0 -78.5 32.5t-32.5 78.5t32.5 78.5t78.5 32.5t78.5 -32.5t32.5 -78.5t-32.5 -78.5t-78.5 -32.5z" />
    <glyph glyph-name="yacute" unicode="&#xfd;" 
d="M91 -480l-6 124l100 15q128 20 218 98.5t166 242.5h-49l-449 1060h144l392 -947h9q8 20 12 31l327 916h144l-364 -966q-107 -284 -226 -409.5t-300 -149.5zM544 1248l217 380h144l-230 -380h-131z" />
    <glyph glyph-name="thorn" unicode="&#xfe;" 
d="M184 -460v1960h133v-663h13q21 118 106 180.5t225 62.5q211 0 319 -142t108 -418q0 -266 -107 -403t-316 -137q-145 0 -229.5 65.5t-105.5 185.5h-13v-691h-133zM317 514q0 -203 81 -308t238 -105t237.5 106.5t80.5 312.5q0 217 -80 328t-237 111q-158 0 -239 -105
t-81 -309v-31z" />
    <glyph glyph-name="ydieresis" unicode="&#xff;" 
d="M91 -480l-6 124l100 15q128 20 218 98.5t166 242.5h-49l-449 1060h144l392 -947h9q8 20 12 31l327 916h144l-364 -966q-107 -284 -226 -409.5t-300 -149.5zM407 1261q-46 0 -78.5 32.5t-32.5 78.5t32.5 78.5t78.5 32.5t78.5 -32.5t32.5 -78.5t-32.5 -78.5t-78.5 -32.5z
M827 1261q-46 0 -78.5 32.5t-32.5 78.5t32.5 78.5t78.5 32.5t78.5 -32.5t32.5 -78.5t-32.5 -78.5t-78.5 -32.5z" />
    <glyph glyph-name="Amacron" unicode="&#x100;" 
d="M61 0l448 1420h182l448 -1420h-131l-117 380h-582l-117 -380h-131zM346 502h508l-248 809h-12zM213 1613v122h774v-122h-774z" />
    <glyph glyph-name="amacron" unicode="&#x101;" 
d="M859 -10l-10 234h-13q-18 -111 -125 -177.5t-264 -66.5q-160 0 -247.5 74.5t-87.5 210.5q0 166 117.5 251.5t347.5 85.5q148 0 253 -18v45q0 161 -87 235t-276 78l-225 4l20 124l198 -3q259 -4 379.5 -114.5t120.5 -343.5v-494l182 -16v-99zM830 474q-78 13 -257 13
q-330 0 -330 -214q0 -84 56 -129.5t159 -45.5q163 0 267.5 80t104.5 196v100zM167 1248v123h826v-123h-826z" />
    <glyph glyph-name="Abreve" unicode="&#x102;" 
d="M61 0l448 1420h182l448 -1420h-131l-117 380h-582l-117 -380h-131zM346 502h508l-248 809h-12zM600 1570q-171 0 -266 76t-95 214h119q0 -89 63.5 -138.5t178.5 -49.5t178.5 49.5t63.5 138.5h119q0 -138 -95 -214t-266 -76z" />
    <glyph glyph-name="abreve" unicode="&#x103;" 
d="M859 -10l-10 234h-13q-18 -111 -125 -177.5t-264 -66.5q-160 0 -247.5 74.5t-87.5 210.5q0 166 117.5 251.5t347.5 85.5q148 0 253 -18v45q0 161 -87 235t-276 78l-225 4l20 124l198 -3q259 -4 379.5 -114.5t120.5 -343.5v-494l182 -16v-99zM830 474q-78 13 -257 13
q-330 0 -330 -214q0 -84 56 -129.5t159 -45.5q163 0 267.5 80t104.5 196v100zM580 1238q-161 0 -250 84t-89 238v43h118v-43q0 -106 57.5 -163t163.5 -57t163.5 57t57.5 163v43h118v-43q0 -154 -89 -238t-250 -84z" />
    <glyph glyph-name="Aogonek" unicode="&#x104;" 
d="M1015 -424q-102 0 -154.5 45.5t-52.5 133.5q0 72 47 128.5t153 116.5l-117 380h-582l-117 -380h-131l448 1420h182l448 -1420h-1q-116 -57 -168 -109.5t-52 -115.5q0 -88 123 -88q7 0 77 5l-11 -110q-46 -6 -92 -6zM346 502h508l-248 809h-12z" />
    <glyph glyph-name="aogonek" unicode="&#x105;" 
d="M1017 -424q-111 0 -172 54.5t-61 153.5q0 64 31.5 114.5t88.5 79.5v14l-45 -2l-10 234h-13q-18 -111 -125 -177.5t-264 -66.5q-160 0 -247.5 74.5t-87.5 210.5q0 166 117.5 251.5t347.5 85.5q148 0 253 -18v45q0 161 -87 235t-276 78l-225 4l20 124l198 -3
q259 -4 379.5 -114.5t120.5 -343.5v-494l182 -16v-99l-34 -1q-101 -7 -157.5 -59t-56.5 -135q0 -56 39 -87t110 -31q29 0 78 7l-11 -109q-41 -9 -93 -9zM830 474q-78 13 -257 13q-330 0 -330 -214q0 -84 56 -129.5t159 -45.5q163 0 267.5 80t104.5 196v100z" />
    <glyph glyph-name="Cacute" unicode="&#x106;" 
d="M741 -20q-646 0 -646 732q0 347 162.5 537.5t459.5 190.5q142 0 246.5 -47t152.5 -132l-92 -94q-52 72 -132 112t-173 40q-226 0 -358.5 -157.5t-132.5 -439.5q0 -621 534 -621q149 0 297 65l32 -118q-166 -68 -350 -68zM614 1580l223 250h176l-247 -250h-152z" />
    <glyph glyph-name="cacute" unicode="&#x107;" 
d="M702 -20q-269 0 -409.5 141t-140.5 411q0 261 136 404.5t386 143.5q149 0 255.5 -57.5t151.5 -162.5l-110 -76q-95 171 -305 171q-180 0 -279.5 -108t-99.5 -305q0 -215 108.5 -326t317.5 -111q147 0 310 31l16 -123q-138 -33 -337 -33zM579 1248l217 380h144l-230 -380
h-131z" />
    <glyph glyph-name="Ccircumflex" unicode="&#x108;" 
d="M741 -20q-646 0 -646 732q0 347 162.5 537.5t459.5 190.5q142 0 246.5 -47t152.5 -132l-92 -94q-52 72 -132 112t-173 40q-226 0 -358.5 -157.5t-132.5 -439.5q0 -621 534 -621q149 0 297 65l32 -118q-166 -68 -350 -68zM364 1580l277 260h112l277 -260h-159l-174 172
l-174 -172h-159z" />
    <glyph glyph-name="ccircumflex" unicode="&#x109;" 
d="M702 -20q-269 0 -409.5 141t-140.5 411q0 261 136 404.5t386 143.5q149 0 255.5 -57.5t151.5 -162.5l-110 -76q-95 171 -305 171q-180 0 -279.5 -108t-99.5 -305q0 -215 108.5 -326t317.5 -111q147 0 310 31l16 -123q-138 -33 -337 -33zM324 1248l277 380h98l277 -380
h-152l-174 261l-174 -261h-152z" />
    <glyph glyph-name="Cdotaccent" unicode="&#x10a;" 
d="M741 -20q-646 0 -646 732q0 347 162.5 537.5t459.5 190.5q142 0 246.5 -47t152.5 -132l-92 -94q-52 72 -132 112t-173 40q-226 0 -358.5 -157.5t-132.5 -439.5q0 -621 534 -621q149 0 297 65l32 -118q-166 -68 -350 -68zM695 1603q-46 0 -78.5 32.5t-32.5 78.5t32.5 78.5
t78.5 32.5t78.5 -32.5t32.5 -78.5t-32.5 -78.5t-78.5 -32.5z" />
    <glyph glyph-name="cdotaccent" unicode="&#x10b;" 
d="M702 -20q-269 0 -409.5 141t-140.5 411q0 261 136 404.5t386 143.5q149 0 255.5 -57.5t151.5 -162.5l-110 -76q-95 171 -305 171q-180 0 -279.5 -108t-99.5 -305q0 -215 108.5 -326t317.5 -111q147 0 310 31l16 -123q-138 -33 -337 -33zM648 1261q-46 0 -78.5 32.5
t-32.5 78.5t32.5 78.5t78.5 32.5t78.5 -32.5t32.5 -78.5t-32.5 -78.5t-78.5 -32.5z" />
    <glyph glyph-name="Ccaron" unicode="&#x10c;" 
d="M741 -20q-646 0 -646 732q0 347 162.5 537.5t459.5 190.5q142 0 246.5 -47t152.5 -132l-92 -94q-52 72 -132 112t-173 40q-226 0 -358.5 -157.5t-132.5 -439.5q0 -621 534 -621q149 0 297 65l32 -118q-166 -68 -350 -68zM639 1580l-277 260h159l174 -169l174 169h159
l-277 -260h-112z" />
    <glyph glyph-name="ccaron" unicode="&#x10d;" 
d="M702 -20q-269 0 -409.5 141t-140.5 411q0 261 136 404.5t386 143.5q149 0 255.5 -57.5t151.5 -162.5l-110 -76q-95 171 -305 171q-180 0 -279.5 -108t-99.5 -305q0 -215 108.5 -326t317.5 -111q147 0 310 31l16 -123q-138 -33 -337 -33zM601 1210l-277 380h152l174 -261
l174 261h152l-277 -380h-98z" />
    <glyph glyph-name="Dcaron" unicode="&#x10e;" 
d="M149 0v1420h328q634 0 634 -730q0 -690 -634 -690h-328zM276 122h201q503 0 503 568q0 608 -503 608h-201v-1176zM481 1580l-277 260h159l174 -169l174 169h159l-277 -260h-112z" />
    <glyph glyph-name="dcaron" unicode="&#x10f;" 
d="M535 -20q-209 0 -316 137t-107 403q0 276 108 418t319 142q140 0 225.5 -62.5t106.5 -180.5h12v663h133v-1503l-112 -7l-20 241h-11q-21 -120 -106 -185.5t-232 -65.5zM883 514v31q0 204 -81 309t-239 105q-157 0 -237 -111t-80 -328q0 -206 80.5 -312.5t237.5 -106.5
t238 105t81 308zM1153 1188l59 380h132l-81 -380h-110z" />
    <glyph glyph-name="Dcroat" unicode="&#x110;" 
d="M149 0v646h-137v122h137v652h328q634 0 634 -730q0 -690 -634 -690h-328zM276 122h201q503 0 503 568q0 608 -503 608h-201v-530h375v-122h-375v-524z" />
    <glyph glyph-name="dcroat" unicode="&#x111;" 
d="M462 1246v118h421v136h133v-136h122v-118h-122v-1249l-112 -7l-20 241h-11q-21 -120 -106 -185.5t-232 -65.5q-209 0 -316 137t-107 403q0 276 108 418t319 142q140 0 225.5 -62.5t106.5 -180.5h12v409h-421zM883 514v31q0 204 -81 309t-239 105q-157 0 -237 -111
t-80 -328q0 -206 80.5 -312.5t237.5 -106.5t238 105t81 308z" />
    <glyph glyph-name="Emacron" unicode="&#x112;" 
d="M176 0v1420h908v-122h-781v-526h601v-122h-601v-528h781v-122h-908zM243 1613v122h774v-122h-774z" />
    <glyph glyph-name="emacron" unicode="&#x113;" 
d="M703 -20q-263 0 -407 146t-144 414q0 257 121 398.5t342 141.5q206 0 319.5 -128.5t113.5 -363.5q0 -62 -6 -104h-759q17 -183 131.5 -282t312.5 -99q124 0 250 28l19 -123q-137 -28 -293 -28zM283 598h637q0 171 -79.5 265t-223.5 94q-147 0 -234 -94t-100 -265z
M197 1248v123h826v-123h-826z" />
    <glyph glyph-name="Ebreve" unicode="&#x114;" 
d="M176 0v1420h908v-122h-781v-526h601v-122h-601v-528h781v-122h-908zM630 1570q-171 0 -266 76t-95 214h119q0 -89 63.5 -138.5t178.5 -49.5t178.5 49.5t63.5 138.5h119q0 -138 -95 -214t-266 -76z" />
    <glyph glyph-name="ebreve" unicode="&#x115;" 
d="M703 -20q-263 0 -407 146t-144 414q0 257 121 398.5t342 141.5q206 0 319.5 -128.5t113.5 -363.5q0 -62 -6 -104h-759q17 -183 131.5 -282t312.5 -99q124 0 250 28l19 -123q-137 -28 -293 -28zM283 598h637q0 171 -79.5 265t-223.5 94q-147 0 -234 -94t-100 -265z
M610 1238q-161 0 -250 84t-89 238v43h118v-43q0 -106 57.5 -163t163.5 -57t163.5 57t57.5 163v43h118v-43q0 -154 -89 -238t-250 -84z" />
    <glyph glyph-name="Edotaccent" unicode="&#x116;" 
d="M176 0v1420h908v-122h-781v-526h601v-122h-601v-528h781v-122h-908zM630 1603q-46 0 -78.5 32.5t-32.5 78.5t32.5 78.5t78.5 32.5t78.5 -32.5t32.5 -78.5t-32.5 -78.5t-78.5 -32.5z" />
    <glyph glyph-name="edotaccent" unicode="&#x117;" 
d="M703 -20q-263 0 -407 146t-144 414q0 257 121 398.5t342 141.5q206 0 319.5 -128.5t113.5 -363.5q0 -62 -6 -104h-759q17 -183 131.5 -282t312.5 -99q124 0 250 28l19 -123q-137 -28 -293 -28zM283 598h637q0 171 -79.5 265t-223.5 94q-147 0 -234 -94t-100 -265z
M608 1261q-46 0 -78.5 32.5t-32.5 78.5t32.5 78.5t78.5 32.5t78.5 -32.5t32.5 -78.5t-32.5 -78.5t-78.5 -32.5z" />
    <glyph glyph-name="Eogonek" unicode="&#x118;" 
d="M960 -424q-111 0 -172 54.5t-61 153.5q0 67 31 120t89 83v13h-671v1420h908v-122h-781v-526h601v-122h-601v-528h781v-122h-1q-115 0 -180.5 -53t-65.5 -142q0 -56 39 -87t110 -31q28 0 77 7l-10 -109q-41 -9 -93 -9z" />
    <glyph glyph-name="eogonek" unicode="&#x119;" 
d="M871 -424q-111 0 -172 52.5t-61 148.5q0 67 29.5 115.5t82.5 71.5v17q-16 -1 -47 -1q-263 0 -407 146t-144 414q0 257 121 398.5t342 141.5q206 0 319.5 -128.5t113.5 -363.5q0 -62 -6 -104h-759q17 -183 131.5 -282t312.5 -99q124 0 250 28l19 -123q-64 -18 -101.5 -33
t-75 -38t-54.5 -55.5t-17 -76.5q0 -53 38 -85.5t111 -32.5q27 0 78 7l-11 -109q-42 -9 -93 -9zM283 598h637q0 171 -79.5 265t-223.5 94q-147 0 -234 -94t-100 -265z" />
    <glyph glyph-name="Ecaron" unicode="&#x11a;" 
d="M176 0v1420h908v-122h-781v-526h601v-122h-601v-528h781v-122h-908zM574 1580l-277 260h159l174 -169l174 169h159l-277 -260h-112z" />
    <glyph glyph-name="ecaron" unicode="&#x11b;" 
d="M703 -20q-263 0 -407 146t-144 414q0 257 121 398.5t342 141.5q206 0 319.5 -128.5t113.5 -363.5q0 -62 -6 -104h-759q17 -183 131.5 -282t312.5 -99q124 0 250 28l19 -123q-137 -28 -293 -28zM283 598h637q0 171 -79.5 265t-223.5 94q-147 0 -234 -94t-100 -265z
M561 1210l-277 380h152l174 -261l174 261h152l-277 -380h-98z" />
    <glyph glyph-name="Gcircumflex" unicode="&#x11c;" 
d="M695 -20q-300 0 -460 188.5t-160 543.5q0 347 160.5 537.5t451.5 190.5q140 0 248 -42.5t164 -120.5l-95 -94q-54 65 -134 100.5t-171 35.5q-233 0 -362 -156.5t-129 -440.5q0 -300 132 -460.5t379 -160.5q103 0 225 33v421h-341v122h464v-637q-187 -60 -372 -60z
M344 1580l277 260h112l277 -260h-159l-174 172l-174 -172h-159z" />
    <glyph glyph-name="gcircumflex" unicode="&#x11d;" 
d="M198 -478l-6 123l320 12q191 7 280.5 106.5t90.5 298.5v169h-13q-21 -120 -105.5 -185.5t-229.5 -65.5q-209 0 -316 137t-107 403q0 276 108 418t319 142q142 0 228 -62.5t107 -180.5h10l12 223h120v-966q0 -284 -125 -418t-399 -144zM883 545q0 204 -81 309t-239 105
q-157 0 -237 -111t-80 -328q0 -206 80.5 -312.5t237.5 -106.5t238 105t81 308v31zM254 1248l277 380h98l277 -380h-152l-174 261l-174 -261h-152z" />
    <glyph glyph-name="Gbreve" unicode="&#x11e;" 
d="M695 -20q-300 0 -460 188.5t-160 543.5q0 347 160.5 537.5t451.5 190.5q140 0 248 -42.5t164 -120.5l-95 -94q-54 65 -134 100.5t-171 35.5q-233 0 -362 -156.5t-129 -440.5q0 -300 132 -460.5t379 -160.5q103 0 225 33v421h-341v122h464v-637q-187 -60 -372 -60z
M675 1570q-171 0 -266 76t-95 214h119q0 -89 63.5 -138.5t178.5 -49.5t178.5 49.5t63.5 138.5h119q0 -138 -95 -214t-266 -76z" />
    <glyph glyph-name="gbreve" unicode="&#x11f;" 
d="M198 -478l-6 123l320 12q191 7 280.5 106.5t90.5 298.5v169h-13q-21 -120 -105.5 -185.5t-229.5 -65.5q-209 0 -316 137t-107 403q0 276 108 418t319 142q142 0 228 -62.5t107 -180.5h10l12 223h120v-966q0 -284 -125 -418t-399 -144zM883 545q0 204 -81 309t-239 105
q-157 0 -237 -111t-80 -328q0 -206 80.5 -312.5t237.5 -106.5t238 105t81 308v31zM580 1238q-161 0 -250 84t-89 238v43h118v-43q0 -106 57.5 -163t163.5 -57t163.5 57t57.5 163v43h118v-43q0 -154 -89 -238t-250 -84z" />
    <glyph glyph-name="Gdotaccent" unicode="&#x120;" 
d="M695 -20q-300 0 -460 188.5t-160 543.5q0 347 160.5 537.5t451.5 190.5q140 0 248 -42.5t164 -120.5l-95 -94q-54 65 -134 100.5t-171 35.5q-233 0 -362 -156.5t-129 -440.5q0 -300 132 -460.5t379 -160.5q103 0 225 33v421h-341v122h464v-637q-187 -60 -372 -60z
M675 1603q-46 0 -78.5 32.5t-32.5 78.5t32.5 78.5t78.5 32.5t78.5 -32.5t32.5 -78.5t-32.5 -78.5t-78.5 -32.5z" />
    <glyph glyph-name="gdotaccent" unicode="&#x121;" 
d="M198 -478l-6 123l320 12q191 7 280.5 106.5t90.5 298.5v169h-13q-21 -120 -105.5 -185.5t-229.5 -65.5q-209 0 -316 137t-107 403q0 276 108 418t319 142q142 0 228 -62.5t107 -180.5h10l12 223h120v-966q0 -284 -125 -418t-399 -144zM883 545q0 204 -81 309t-239 105
q-157 0 -237 -111t-80 -328q0 -206 80.5 -312.5t237.5 -106.5t238 105t81 308v31zM578 1261q-46 0 -78.5 32.5t-32.5 78.5t32.5 78.5t78.5 32.5t78.5 -32.5t32.5 -78.5t-32.5 -78.5t-78.5 -32.5z" />
    <glyph glyph-name="uni0122" unicode="&#x122;" 
d="M695 -20q-300 0 -460 188.5t-160 543.5q0 347 160.5 537.5t451.5 190.5q140 0 248 -42.5t164 -120.5l-95 -94q-54 65 -134 100.5t-171 35.5q-233 0 -362 -156.5t-129 -440.5q0 -300 132 -460.5t379 -160.5q103 0 225 33v421h-341v122h464v-637q-187 -60 -372 -60z
M551 -480l76 340h139l-93 -340h-122z" />
    <glyph glyph-name="uni0123" unicode="&#x123;" 
d="M198 -478l-6 123l320 12q191 7 280.5 106.5t90.5 298.5v169h-13q-21 -120 -105.5 -185.5t-229.5 -65.5q-209 0 -316 137t-107 403q0 276 108 418t319 142q142 0 228 -62.5t107 -180.5h10l12 223h120v-966q0 -284 -125 -418t-399 -144zM883 545q0 204 -81 309t-239 105
q-157 0 -237 -111t-80 -328q0 -206 80.5 -312.5t237.5 -106.5t238 105t81 308v31zM515 1208l67 380h115l-46 -380h-136z" />
    <glyph glyph-name="Hcircumflex" unicode="&#x124;" 
d="M917 0v646h-634v-646h-127v1420h127v-652h634v652h127v-1420h-127zM269 1580l277 260h112l277 -260h-159l-174 172l-174 -172h-159z" />
    <glyph glyph-name="hcircumflex" unicode="&#x125;" 
d="M883 0v693q0 127 -66.5 196.5t-186.5 69.5q-313 0 -313 -360v-599h-133v1500h133v-632h12q45 212 312 212q179 0 277 -102t98 -288v-690h-133zM-81 1660l277 260h112l277 -260h-159l-174 172l-174 -172h-159z" />
    <glyph glyph-name="Hbar" unicode="&#x126;" 
d="M42 1036v122h114v262h127v-262h634v262h127v-262h114v-122h-114v-1036h-127v646h-634v-646h-127v1036h-114zM283 768h634v268h-634v-268z" />
    <glyph glyph-name="hbar" unicode="&#x127;" 
d="M22 1246v118h162v136h133v-136h421v-118h-421v-378h12q45 212 312 212q179 0 277 -102t98 -288v-690h-133v693q0 127 -66.5 196.5t-186.5 69.5q-313 0 -313 -360v-599h-133v1246h-162z" />
    <glyph glyph-name="Itilde" unicode="&#x128;" 
d="M184 0v122h352v1176h-352v122h832v-122h-354v-1176h354v-122h-832zM238 1566v70q0 230 194 230q83 0 200 -78q112 -76 164 -76q70 0 70 105v73h117v-63q0 -227 -173 -227q-83 0 -209 84q-105 70 -157 70q-88 0 -88 -108v-80h-118z" />
    <glyph glyph-name="itilde" unicode="&#x129;" 
d="M176 0v118h427v824h-367v118h501v-942h349v-118h-910zM311 1256v40q0 250 194 250q40 0 77 -18t87 -53q112 -76 156 -76q68 0 68 111v90h116v-80q0 -240 -172 -240q-59 0 -180 77q-10 6 -33 22t-36 24.5t-31.5 16t-33.5 7.5q-94 0 -94 -121v-50h-118z" />
    <glyph glyph-name="Imacron" unicode="&#x12a;" 
d="M184 0v122h352v1176h-352v122h832v-122h-354v-1176h354v-122h-832zM213 1613v122h774v-122h-774z" />
    <glyph glyph-name="imacron" unicode="&#x12b;" 
d="M176 0v118h427v824h-367v118h501v-942h349v-118h-910zM237 1248v123h826v-123h-826z" />
    <glyph glyph-name="Ibreve" unicode="&#x12c;" 
d="M184 0v122h352v1176h-352v122h832v-122h-354v-1176h354v-122h-832zM600 1570q-171 0 -266 76t-95 214h119q0 -89 63.5 -138.5t178.5 -49.5t178.5 49.5t63.5 138.5h119q0 -138 -95 -214t-266 -76z" />
    <glyph glyph-name="ibreve" unicode="&#x12d;" 
d="M176 0v118h427v824h-367v118h501v-942h349v-118h-910zM650 1238q-161 0 -250 84t-89 238v43h118v-43q0 -106 57.5 -163t163.5 -57t163.5 57t57.5 163v43h118v-43q0 -154 -89 -238t-250 -84z" />
    <glyph glyph-name="Iogonek" unicode="&#x12e;" 
d="M633 -424q-111 0 -172 54.5t-61 153.5q0 67 31.5 120t88.5 83v13h-336v122h352v1176h-352v122h832v-122h-354v-1176h354v-122h-246q-122 0 -191 -53t-69 -142q0 -56 39 -87t110 -31q29 0 78 7l-11 -109q-41 -9 -93 -9z" />
    <glyph glyph-name="iogonek" unicode="&#x12f;" 
d="M675 -424q-111 0 -172 54.5t-61 153.5q0 68 32 123t88 80v13h-386v118h427v824h-367v118h501v-942h349v-118h-287q-116 0 -181.5 -53t-65.5 -142q0 -56 39 -87t110 -31q29 0 78 7l-11 -109q-41 -9 -93 -9zM660 1291q-48 0 -82 34t-34 82t34 82t82 34t82 -34t34 -82
t-34 -82t-82 -34z" />
    <glyph glyph-name="Idotaccent" unicode="&#x130;" 
d="M184 0v122h352v1176h-352v122h832v-122h-354v-1176h354v-122h-832zM600 1603q-46 0 -78.5 32.5t-32.5 78.5t32.5 78.5t78.5 32.5t78.5 -32.5t32.5 -78.5t-32.5 -78.5t-78.5 -32.5z" />
    <glyph glyph-name="dotlessi" unicode="&#x131;" 
d="M176 0v118h427v824h-367v118h501v-942h349v-118h-910z" />
    <glyph glyph-name="IJ" unicode="&#x132;" 
d="M655 -20q-191 0 -292 100t-101 289h128q0 -130 70 -199.5t200 -69.5q135 0 207 80t72 229v889h-249v122h376v-1011q0 -208 -106 -318.5t-305 -110.5zM55 510v122h209v666h-209v122h524v-122h-191v-666h211v-122h-544z" />
    <glyph glyph-name="ij" unicode="&#x133;" 
d="M264 -480l-6 120l184 17q196 17 284.5 112.5t86.5 292.5l-2 288v710h133v-676l3 -290q2 -280 -122.5 -410.5t-402.5 -151.5zM283 0v1060h134v-1060h-134zM349 1291q-48 0 -82 34t-34 82t34 82t82 34t82 -34t34 -82t-34 -82t-82 -34zM877 1291q-48 0 -82 34t-34 82t34 82
t82 34t82 -34t34 -82t-34 -82t-82 -34z" />
    <glyph glyph-name="Jcircumflex" unicode="&#x134;" 
d="M574 -20q-233 0 -352.5 125.5t-119.5 370.5h128q0 -185 88.5 -280.5t260.5 -95.5q169 0 254.5 95t85.5 281v822h-429v122h556v-944q0 -244 -120 -370t-352 -126zM459 1580l277 260h112l277 -260h-159l-174 172l-174 -172h-159z" />
    <glyph glyph-name="jcircumflex" unicode="&#x135;" 
d="M192 -480l-6 120l184 17q196 17 284.5 112.5t86.5 292.5l-2 288v592h-463v118h596v-676l3 -290q2 -280 -122.5 -410.5t-402.5 -151.5zM479 1248l277 380h98l277 -380h-152l-174 261l-174 -261h-152z" />
    <glyph glyph-name="uni0136" unicode="&#x136;" 
d="M166 0v1420h127v-815q314 10 484.5 230t170.5 585h130q0 -239 -71.5 -429.5t-206.5 -314.5l346 -676h-153l-302 594q-172 -105 -398 -114v-480h-127zM476 -480l76 340h139l-93 -340h-122z" />
    <glyph glyph-name="uni0137" unicode="&#x137;" 
d="M176 0v1500h131v-955h70q253 0 374 116t165 399h140q-54 -371 -246 -521l314 -539h-164l-267 471q-120 -49 -286 -49h-100v-422h-131zM476 -480l76 340h139l-93 -340h-122z" />
    <glyph glyph-name="kgreenlandic" unicode="&#x138;" 
d="M176 0v1060h131v-515h70q253 0 374 116t165 399h140q-54 -371 -246 -521l314 -539h-164l-267 471q-120 -49 -286 -49h-100v-422h-131z" />
    <glyph glyph-name="Lacute" unicode="&#x139;" 
d="M176 0v1420h127v-1298h781v-122h-908zM158 1580l223 250h176l-247 -250h-152z" />
    <glyph glyph-name="lacute" unicode="&#x13a;" 
d="M805 -20q-181 0 -268.5 95t-87.5 292v1015h-335v118h469v-1130q0 -137 60 -201t195 -64q81 0 205 32l15 -122q-122 -35 -253 -35zM435 1660l223 250h176l-247 -250h-152z" />
    <glyph glyph-name="uni013B" unicode="&#x13b;" 
d="M176 0v1420h127v-1298h781v-122h-908zM476 -480l76 340h139l-93 -340h-122z" />
    <glyph glyph-name="uni013C" unicode="&#x13c;" 
d="M805 -20q-181 0 -268.5 95t-87.5 292v1015h-335v118h469v-1130q0 -137 60 -201t195 -64q81 0 205 32l15 -122q-122 -35 -253 -35zM536 -480l76 340h139l-93 -340h-122z" />
    <glyph glyph-name="Lcaron" unicode="&#x13d;" 
d="M176 0v1420h127v-1298h781v-122h-908zM785 1188l67 380h135l-83 -380h-119z" />
    <glyph glyph-name="lcaron" unicode="&#x13e;" 
d="M805 -20q-181 0 -268.5 95t-87.5 292v1015h-335v118h469v-1130q0 -137 60 -201t195 -64q81 0 205 32l15 -122q-122 -35 -253 -35zM799 1188l83 380h139l-97 -380h-125z" />
    <glyph glyph-name="Ldot" unicode="&#x13f;" 
d="M176 0v1420h127v-1298h781v-122h-908zM800 815q-48 0 -82 33.5t-34 81.5t34 82t82 34t82 -34t34 -82t-34 -81.5t-82 -33.5z" />
    <glyph glyph-name="ldot" unicode="&#x140;" 
d="M805 -20q-181 0 -268.5 95t-87.5 292v1015h-335v118h469v-1130q0 -137 60 -201t195 -64q81 0 205 32l15 -122q-122 -35 -253 -35zM916 862q-48 0 -82 33.5t-34 81.5t34 82t82 34t82 -34t34 -82t-34 -81.5t-82 -33.5z" />
    <glyph glyph-name="Lslash" unicode="&#x141;" 
d="M58 455v128l151 89v748h127v-672l528 312v-128l-528 -312v-498h748v-122h-875v544z" />
    <glyph glyph-name="lslash" unicode="&#x142;" 
d="M128 455v132l321 188v607h-335v118h469v-646l351 206v-132l-351 -206v-352q0 -137 60 -201t195 -64q81 0 205 32l15 -122q-122 -35 -253 -35q-181 0 -268.5 95t-87.5 292v276z" />
    <glyph glyph-name="Nacute" unicode="&#x143;" 
d="M854 0l-554 1248h-12v-1248h-124v1420h183l554 -1248h11v1248h124v-1420h-182zM519 1580l223 250h176l-247 -250h-152z" />
    <glyph glyph-name="nacute" unicode="&#x144;" 
d="M883 0v693q0 125 -66.5 193.5t-186.5 68.5q-313 0 -313 -356v-599h-133v1060h121l10 -192h14q45 212 312 212q179 0 277 -102t98 -288v-690h-133zM519 1248l217 380h144l-230 -380h-131z" />
    <glyph glyph-name="uni0145" unicode="&#x145;" 
d="M854 0l-554 1248h-12v-1248h-124v1420h183l554 -1248h11v1248h124v-1420h-182zM456 -480l76 340h139l-93 -340h-122z" />
    <glyph glyph-name="uni0146" unicode="&#x146;" 
d="M883 0v693q0 125 -66.5 193.5t-186.5 68.5q-313 0 -313 -356v-599h-133v1060h121l10 -192h14q45 212 312 212q179 0 277 -102t98 -288v-690h-133zM456 -480l76 340h139l-93 -340h-122z" />
    <glyph glyph-name="Ncaron" unicode="&#x147;" 
d="M854 0l-554 1248h-12v-1248h-124v1420h183l554 -1248h11v1248h124v-1420h-182zM544 1580l-277 260h159l174 -169l174 169h159l-277 -260h-112z" />
    <glyph glyph-name="ncaron" unicode="&#x148;" 
d="M883 0v693q0 125 -66.5 193.5t-186.5 68.5q-313 0 -313 -356v-599h-133v1060h121l10 -192h14q45 212 312 212q179 0 277 -102t98 -288v-690h-133zM541 1210l-277 380h152l174 -261l174 261h152l-277 -380h-98z" />
    <glyph glyph-name="napostrophe" unicode="&#x149;" 
d="M883 0v693q0 125 -66.5 193.5t-186.5 68.5q-313 0 -313 -356v-599h-133v1060h121l10 -192h14q45 212 312 212q179 0 277 -102t98 -288v-690h-133zM13 1248l110 380h146l-134 -380h-122z" />
    <glyph glyph-name="Eng" unicode="&#x14a;" 
d="M630 -480l-10 117l100 18q103 18 147.5 83t44.5 201v61h-58l-554 1248h-12v-1248h-124v1420h183l554 -1248h11v1248h124v-1489q0 -186 -71.5 -278.5t-231.5 -117.5z" />
    <glyph glyph-name="eng" unicode="&#x14b;" 
d="M510 -473l-6 120l80 10q158 18 228.5 112.5t70.5 292.5v631q0 127 -66.5 196.5t-186.5 69.5q-313 0 -313 -360v-599h-133v1060h121l10 -192h14q45 212 312 212q179 0 277 -102t98 -288v-603q0 -279 -106.5 -408.5t-345.5 -146.5z" />
    <glyph glyph-name="Omacron" unicode="&#x14c;" 
d="M600 -20q-508 0 -508 720q0 740 508 740t508 -740q0 -720 -508 -720zM600 95q377 0 377 605q0 619 -377 619t-377 -619q0 -605 377 -605zM213 1613v122h774v-122h-774z" />
    <glyph glyph-name="omacron" unicode="&#x14d;" 
d="M600 -20q-213 0 -330.5 144t-117.5 406t117.5 406t330.5 144t330.5 -144t117.5 -406t-117.5 -406t-330.5 -144zM600 105q149 0 230 111t81 314t-81 314t-230 111t-230 -111t-81 -314t81 -314t230 -111zM187 1248v123h826v-123h-826z" />
    <glyph glyph-name="Obreve" unicode="&#x14e;" 
d="M600 -20q-508 0 -508 720q0 740 508 740t508 -740q0 -720 -508 -720zM600 95q377 0 377 605q0 619 -377 619t-377 -619q0 -605 377 -605zM600 1570q-171 0 -266 76t-95 214h119q0 -89 63.5 -138.5t178.5 -49.5t178.5 49.5t63.5 138.5h119q0 -138 -95 -214t-266 -76z" />
    <glyph glyph-name="obreve" unicode="&#x14f;" 
d="M600 -20q-213 0 -330.5 144t-117.5 406t117.5 406t330.5 144t330.5 -144t117.5 -406t-117.5 -406t-330.5 -144zM600 105q149 0 230 111t81 314t-81 314t-230 111t-230 -111t-81 -314t81 -314t230 -111zM600 1238q-161 0 -250 84t-89 238v43h118v-43q0 -106 57.5 -163
t163.5 -57t163.5 57t57.5 163v43h118v-43q0 -154 -89 -238t-250 -84z" />
    <glyph glyph-name="Ohungarumlaut" unicode="&#x150;" 
d="M600 -20q-508 0 -508 720q0 740 508 740t508 -740q0 -720 -508 -720zM600 95q377 0 377 605q0 619 -377 619t-377 -619q0 -605 377 -605zM326 1580l163 250h175l-183 -250h-155zM676 1580l163 250h175l-183 -250h-155z" />
    <glyph glyph-name="ohungarumlaut" unicode="&#x151;" 
d="M600 -20q-213 0 -330.5 144t-117.5 406t117.5 406t330.5 144t330.5 -144t117.5 -406t-117.5 -406t-330.5 -144zM600 105q149 0 230 111t81 314t-81 314t-230 111t-230 -111t-81 -314t81 -314t230 -111zM323 1248l157 380h148l-170 -380h-135zM707 1248l157 380h148
l-170 -380h-135z" />
    <glyph glyph-name="OE" unicode="&#x152;" 
d="M520 -20q-203 0 -315 188.5t-112 531.5q0 352 112 546t315 194q37 0 93.5 -10t86.5 -10h383v-119h-336v-531h276v-118h-276v-533h336v-119h-383q-20 0 -79.5 -10t-100.5 -10zM530 101q55 0 97 6v1190q-47 22 -107 22q-141 0 -218 -162t-77 -457q0 -286 80 -442.5
t225 -156.5z" />
    <glyph glyph-name="oe" unicode="&#x153;" 
d="M357 -20q-321 0 -321 550t321 550q190 0 253 -244q35 119 102.5 181.5t161.5 62.5q140 0 212.5 -131.5t72.5 -387.5q0 -57 -6 -104h-484q17 -171 97.5 -264t214.5 -93q53 0 110 21l19 -118q-72 -23 -153 -23q-124 0 -211 67.5t-131 196.5q-60 -264 -258 -264zM357 105
q183 0 183 425t-183 425q-196 0 -196 -425t196 -425zM665 568h369q0 389 -167 389q-95 0 -146.5 -99.5t-55.5 -289.5z" />
    <glyph glyph-name="Racute" unicode="&#x154;" 
d="M156 0v1420h499q200 0 309.5 -109t109.5 -308q0 -158 -67 -262.5t-193 -143.5l312 -597h-153l-289 575q-10 -1 -29 -1h-372v-574h-127zM283 696h372q137 0 212.5 75t75.5 212q0 150 -75.5 232.5t-212.5 82.5h-372v-602zM479 1580l223 250h176l-247 -250h-152z" />
    <glyph glyph-name="racute" unicode="&#x155;" 
d="M489 456v-338h299v-118h-692v118h259v824h-219v118h326l24 -272h15q36 292 312 292q170 0 246.5 -94t76.5 -304h-134q0 146 -49 211.5t-157 65.5q-153 0 -230 -129.5t-77 -373.5zM529 1248l217 380h144l-230 -380h-131z" />
    <glyph glyph-name="uni0156" unicode="&#x156;" 
d="M156 0v1420h499q200 0 309.5 -109t109.5 -308q0 -158 -67 -262.5t-193 -143.5l312 -597h-153l-289 575q-10 -1 -29 -1h-372v-574h-127zM283 696h372q137 0 212.5 75t75.5 212q0 150 -75.5 232.5t-212.5 82.5h-372v-602zM466 -480l76 340h139l-93 -340h-122z" />
    <glyph glyph-name="uni0157" unicode="&#x157;" 
d="M489 456v-338h299v-118h-692v118h259v824h-219v118h326l24 -272h15q36 292 312 292q170 0 246.5 -94t76.5 -304h-134q0 146 -49 211.5t-157 65.5q-153 0 -230 -129.5t-77 -373.5zM286 -480l76 340h139l-93 -340h-122z" />
    <glyph glyph-name="Rcaron" unicode="&#x158;" 
d="M156 0v1420h499q200 0 309.5 -109t109.5 -308q0 -158 -67 -262.5t-193 -143.5l312 -597h-153l-289 575q-10 -1 -29 -1h-372v-574h-127zM283 696h372q137 0 212.5 75t75.5 212q0 150 -75.5 232.5t-212.5 82.5h-372v-602zM504 1580l-277 260h159l174 -169l174 169h159
l-277 -260h-112z" />
    <glyph glyph-name="rcaron" unicode="&#x159;" 
d="M489 456v-338h299v-118h-692v118h259v824h-219v118h326l24 -272h15q36 292 312 292q170 0 246.5 -94t76.5 -304h-134q0 146 -49 211.5t-157 65.5q-153 0 -230 -129.5t-77 -373.5zM551 1210l-277 380h152l174 -261l174 261h152l-277 -380h-98z" />
    <glyph glyph-name="Sacute" unicode="&#x15a;" 
d="M551 -20q-226 0 -406 71l18 132q213 -82 404 -82q341 0 341 238q0 153 -151 229l-337 173q-119 59 -178 138.5t-59 190.5q0 182 106.5 276t313.5 94q264 0 444 -171l-90 -91q-179 141 -353 141q-288 0 -288 -239q0 -74 38.5 -125t117.5 -91l307 -155q132 -66 197 -155.5
t65 -210.5q0 -363 -490 -363zM539 1580l223 250h176l-247 -250h-152z" />
    <glyph glyph-name="sacute" unicode="&#x15b;" 
d="M518 -20q-222 0 -346 30l16 127q199 -32 330 -32q196 0 284.5 41t88.5 132q0 63 -41 103t-131 62l-238 60q-154 39 -223.5 104t-69.5 170q0 160 129.5 231.5t418.5 71.5q124 0 264 -20l-15 -119q-151 14 -255 14q-214 0 -309.5 -41.5t-95.5 -133.5q0 -56 48.5 -94
t155.5 -63l190 -46q163 -40 236 -110.5t73 -187.5q0 -157 -120.5 -228t-389.5 -71zM559 1248l217 380h144l-230 -380h-131z" />
    <glyph glyph-name="Scircumflex" unicode="&#x15c;" 
d="M551 -20q-226 0 -406 71l18 132q213 -82 404 -82q341 0 341 238q0 153 -151 229l-337 173q-119 59 -178 138.5t-59 190.5q0 182 106.5 276t313.5 94q264 0 444 -171l-90 -91q-179 141 -353 141q-288 0 -288 -239q0 -74 38.5 -125t117.5 -91l307 -155q132 -66 197 -155.5
t65 -210.5q0 -363 -490 -363zM289 1580l277 260h112l277 -260h-159l-174 172l-174 -172h-159z" />
    <glyph glyph-name="scircumflex" unicode="&#x15d;" 
d="M518 -20q-222 0 -346 30l16 127q199 -32 330 -32q196 0 284.5 41t88.5 132q0 63 -41 103t-131 62l-238 60q-154 39 -223.5 104t-69.5 170q0 160 129.5 231.5t418.5 71.5q124 0 264 -20l-15 -119q-151 14 -255 14q-214 0 -309.5 -41.5t-95.5 -133.5q0 -56 48.5 -94
t155.5 -63l190 -46q163 -40 236 -110.5t73 -187.5q0 -157 -120.5 -228t-389.5 -71zM304 1248l277 380h98l277 -380h-152l-174 261l-174 -261h-152z" />
    <glyph glyph-name="Scedilla" unicode="&#x15e;" 
d="M462 -480v104q120 0 175.5 25t55.5 80q0 50 -48 72.5t-153 22.5l58 156q-225 0 -405 71l18 132q213 -82 404 -82q341 0 341 238q0 153 -151 229l-337 173q-119 59 -178 138.5t-59 190.5q0 182 106.5 276t313.5 94q264 0 444 -171l-90 -91q-179 141 -353 141
q-288 0 -288 -239q0 -74 38.5 -125t117.5 -91l307 -155q132 -66 197 -155.5t65 -210.5q0 -322 -385 -358l-28 -92q186 -20 186 -167q0 -107 -85 -156.5t-267 -49.5z" />
    <glyph glyph-name="scedilla" unicode="&#x15f;" 
d="M518 -20q-222 0 -346 30l16 127q199 -32 330 -32q196 0 284.5 41t88.5 132q0 63 -41 103t-131 62l-238 60q-154 39 -223.5 104t-69.5 170q0 160 129.5 231.5t418.5 71.5q124 0 264 -20l-15 -119q-151 14 -255 14q-214 0 -309.5 -41.5t-95.5 -133.5q0 -56 48.5 -94
t155.5 -63l190 -46q163 -40 236 -110.5t73 -187.5q0 -139 -93.5 -210t-298.5 -85l-28 -91q186 -20 186 -167q0 -107 -85 -156.5t-267 -49.5v104q120 0 175.5 25t55.5 80q0 50 -48 72.5t-153 22.5l58 156h-12z" />
    <glyph glyph-name="Scaron" unicode="&#x160;" 
d="M551 -20q-226 0 -406 71l18 132q213 -82 404 -82q341 0 341 238q0 153 -151 229l-337 173q-119 59 -178 138.5t-59 190.5q0 182 106.5 276t313.5 94q264 0 444 -171l-90 -91q-179 141 -353 141q-288 0 -288 -239q0 -74 38.5 -125t117.5 -91l307 -155q132 -66 197 -155.5
t65 -210.5q0 -363 -490 -363zM564 1580l-277 260h159l174 -169l174 169h159l-277 -260h-112z" />
    <glyph glyph-name="scaron" unicode="&#x161;" 
d="M518 -20q-222 0 -346 30l16 127q199 -32 330 -32q196 0 284.5 41t88.5 132q0 63 -41 103t-131 62l-238 60q-154 39 -223.5 104t-69.5 170q0 160 129.5 231.5t418.5 71.5q124 0 264 -20l-15 -119q-151 14 -255 14q-214 0 -309.5 -41.5t-95.5 -133.5q0 -56 48.5 -94
t155.5 -63l190 -46q163 -40 236 -110.5t73 -187.5q0 -157 -120.5 -228t-389.5 -71zM581 1210l-277 380h152l174 -261l174 261h152l-277 -380h-98z" />
    <glyph glyph-name="uni0162" unicode="&#x162;" 
d="M537 0v1298h-441v122h1008v-122h-441v-1298h-17l-33 -107q186 -20 186 -167q0 -107 -85 -156.5t-267 -49.5v104q120 0 175.5 25t55.5 80q0 50 -48 72.5t-153 22.5l66 176h-6z" />
    <glyph glyph-name="uni0163" unicode="&#x163;" 
d="M792 -20q-46 0 -81 4l-28 -91q186 -20 186 -167q0 -107 -85 -156.5t-267 -49.5v104q120 0 175.5 25t55.5 80q0 50 -48 72.5t-153 22.5l68 182q-224 77 -224 401v535h-305v118h305v320h134v-320h489v-118h-489v-532q0 -155 70 -230t217 -75q94 0 227 20l15 -121
q-134 -24 -262 -24z" />
    <glyph glyph-name="Tcaron" unicode="&#x164;" 
d="M537 0v1298h-441v122h1008v-122h-441v-1298h-126zM544 1580l-277 260h159l174 -169l174 169h159l-277 -260h-112z" />
    <glyph glyph-name="tcaron" unicode="&#x165;" 
d="M792 -20q-205 0 -303 104.5t-98 322.5v535h-305v118h305v320h134v-320h489v-118h-489v-532q0 -155 70 -230t217 -75q94 0 227 20l15 -121q-134 -24 -262 -24zM725 1228l64 380h132l-77 -380h-119z" />
    <glyph glyph-name="Tbar" unicode="&#x166;" 
d="M192 621v122h345v555h-441v122h1008v-122h-441v-555h345v-122h-345v-621h-126v621h-345z" />
    <glyph glyph-name="tbar" unicode="&#x167;" 
d="M86 524v118h305v300h-305v118h305v320h134v-320h489v-118h-489v-300h489v-118h-489v-114q0 -155 70 -230t217 -75q94 0 227 20l15 -121q-134 -24 -262 -24q-205 0 -303 104.5t-98 322.5v117h-305z" />
    <glyph glyph-name="Utilde" unicode="&#x168;" 
d="M596 -20q-440 0 -440 476v964h127v-964q0 -178 77 -265.5t240 -87.5q317 0 317 353v964h127v-964q0 -237 -113.5 -356.5t-334.5 -119.5zM238 1566v70q0 230 194 230q83 0 200 -78q112 -76 164 -76q70 0 70 105v73h117v-63q0 -227 -173 -227q-83 0 -209 84
q-105 70 -157 70q-88 0 -88 -108v-80h-118z" />
    <glyph glyph-name="utilde" unicode="&#x169;" 
d="M529 -20q-175 0 -271 99t-96 281v700h133v-700q0 -122 68.5 -188.5t192.5 -66.5q150 0 223.5 90.5t73.5 294.5v570h133v-947l146 -14v-99l-261 -10l-15 214h-13q-28 -107 -110.5 -165.5t-203.5 -58.5zM241 1256v40q0 250 194 250q40 0 77 -18t87 -53q112 -76 156 -76
q68 0 68 111v90h116v-80q0 -240 -172 -240q-59 0 -180 77q-10 6 -33 22t-36 24.5t-31.5 16t-33.5 7.5q-94 0 -94 -121v-50h-118z" />
    <glyph glyph-name="Umacron" unicode="&#x16a;" 
d="M596 -20q-440 0 -440 476v964h127v-964q0 -178 77 -265.5t240 -87.5q317 0 317 353v964h127v-964q0 -237 -113.5 -356.5t-334.5 -119.5zM213 1613v122h774v-122h-774z" />
    <glyph glyph-name="umacron" unicode="&#x16b;" 
d="M529 -20q-175 0 -271 99t-96 281v700h133v-700q0 -122 68.5 -188.5t192.5 -66.5q150 0 223.5 90.5t73.5 294.5v570h133v-947l146 -14v-99l-261 -10l-15 214h-13q-28 -107 -110.5 -165.5t-203.5 -58.5zM167 1248v123h826v-123h-826z" />
    <glyph glyph-name="Ubreve" unicode="&#x16c;" 
d="M596 -20q-440 0 -440 476v964h127v-964q0 -178 77 -265.5t240 -87.5q317 0 317 353v964h127v-964q0 -237 -113.5 -356.5t-334.5 -119.5zM600 1570q-171 0 -266 76t-95 214h119q0 -89 63.5 -138.5t178.5 -49.5t178.5 49.5t63.5 138.5h119q0 -138 -95 -214t-266 -76z" />
    <glyph glyph-name="ubreve" unicode="&#x16d;" 
d="M529 -20q-175 0 -271 99t-96 281v700h133v-700q0 -122 68.5 -188.5t192.5 -66.5q150 0 223.5 90.5t73.5 294.5v570h133v-947l146 -14v-99l-261 -10l-15 214h-13q-28 -107 -110.5 -165.5t-203.5 -58.5zM580 1238q-161 0 -250 84t-89 238v43h118v-43q0 -106 57.5 -163
t163.5 -57t163.5 57t57.5 163v43h118v-43q0 -154 -89 -238t-250 -84z" />
    <glyph glyph-name="Uring" unicode="&#x16e;" 
d="M596 -20q-440 0 -440 476v964h127v-964q0 -178 77 -265.5t240 -87.5q317 0 317 353v964h127v-964q0 -237 -113.5 -356.5t-334.5 -119.5zM600 1488q-103 0 -164 55.5t-61 150.5t61 150.5t164 55.5t164 -55.5t61 -150.5t-61 -150.5t-164 -55.5zM600 1577q58 0 92.5 32
t34.5 85t-34.5 85t-92.5 32t-92.5 -32t-34.5 -85t34.5 -85t92.5 -32z" />
    <glyph glyph-name="uring" unicode="&#x16f;" 
d="M529 -20q-175 0 -271 99t-96 281v700h133v-700q0 -122 68.5 -188.5t192.5 -66.5q150 0 223.5 90.5t73.5 294.5v570h133v-947l146 -14v-99l-261 -10l-15 214h-13q-28 -107 -110.5 -165.5t-203.5 -58.5zM580 1198q-106 0 -164 56.5t-58 159.5t58 159.5t164 56.5t164 -56.5
t58 -159.5t-58 -159.5t-164 -56.5zM580 1293q55 0 85 31.5t30 89.5t-30 89.5t-85 31.5t-85 -31.5t-30 -89.5t30 -89.5t85 -31.5z" />
    <glyph glyph-name="Uhungarumlaut" unicode="&#x170;" 
d="M596 -20q-440 0 -440 476v964h127v-964q0 -178 77 -265.5t240 -87.5q317 0 317 353v964h127v-964q0 -237 -113.5 -356.5t-334.5 -119.5zM326 1580l163 250h175l-183 -250h-155zM676 1580l163 250h175l-183 -250h-155z" />
    <glyph glyph-name="uhungarumlaut" unicode="&#x171;" 
d="M529 -20q-175 0 -271 99t-96 281v700h133v-700q0 -122 68.5 -188.5t192.5 -66.5q150 0 223.5 90.5t73.5 294.5v570h133v-947l146 -14v-99l-261 -10l-15 214h-13q-28 -107 -110.5 -165.5t-203.5 -58.5zM303 1248l157 380h148l-170 -380h-135zM687 1248l157 380h148
l-170 -380h-135z" />
    <glyph glyph-name="Uogonek" unicode="&#x172;" 
d="M644 -424q-111 0 -172 52.5t-61 148.5q0 69 33 119t92 73v13q-380 32 -380 474v964h127v-964q0 -178 77 -265.5t240 -87.5q317 0 317 353v964h127v-964q0 -392 -307 -461q-111 -34 -163.5 -74t-52.5 -116q0 -53 37.5 -85.5t111.5 -32.5q26 0 77 7l-10 -109q-42 -9 -93 -9
z" />
    <glyph glyph-name="uogonek" unicode="&#x173;" 
d="M1007 -424q-111 0 -172 53.5t-61 151.5q0 65 34.5 116.5t98.5 80.5v13l-36 -1l-15 214h-13q-28 -107 -110.5 -165.5t-203.5 -58.5q-175 0 -271 99t-96 281v700h133v-700q0 -122 68.5 -188.5t192.5 -66.5q150 0 223.5 90.5t73.5 294.5v570h133v-947l146 -14v-99l-36 -1
q-100 -8 -156 -60t-56 -134q0 -56 39 -87t110 -31q29 0 78 7l-11 -109q-41 -9 -93 -9z" />
    <glyph glyph-name="Wcircumflex" unicode="&#x174;" 
d="M236 0l-200 1420h127l174 -1313h20l161 953h166l159 -953h20l174 1313h127l-200 -1420h-206l-152 947h-12l-152 -947h-206zM269 1580l277 260h112l277 -260h-159l-174 172l-174 -172h-159z" />
    <glyph glyph-name="wcircumflex" unicode="&#x175;" 
d="M745 0l-149 934h-12l-145 -934h-197l-156 1060h123l133 -953h15l152 953h163l151 -953h15l150 953h126l-186 -1060h-183zM264 1248l277 380h98l277 -380h-152l-174 261l-174 -261h-152z" />
    <glyph glyph-name="Ycircumflex" unicode="&#x176;" 
d="M537 0v507l-496 913h139l414 -780h12l414 780h139l-496 -913v-507h-126zM269 1580l277 260h112l277 -260h-159l-174 172l-174 -172h-159z" />
    <glyph glyph-name="ycircumflex" unicode="&#x177;" 
d="M91 -480l-6 124l100 15q128 20 218 98.5t166 242.5h-49l-449 1060h144l392 -947h9q8 20 12 31l327 916h144l-364 -966q-107 -284 -226 -409.5t-300 -149.5zM289 1248l277 380h98l277 -380h-152l-174 261l-174 -261h-152z" />
    <glyph glyph-name="Ydieresis" unicode="&#x178;" 
d="M537 0v507l-496 913h139l414 -780h12l414 780h139l-496 -913v-507h-126zM392 1603q-46 0 -78.5 32t-32.5 78t32.5 79t78.5 33t78.5 -33t32.5 -79t-32.5 -78t-78.5 -32zM808 1603q-46 0 -78.5 32t-32.5 78t32.5 79t78.5 33t78.5 -33t32.5 -79t-32.5 -78t-78.5 -32z" />
    <glyph glyph-name="Zacute" unicode="&#x179;" 
d="M166 0v122l721 1176h-721v122h868v-122l-723 -1176h743v-122h-888zM519 1580l223 250h176l-247 -250h-152z" />
    <glyph glyph-name="zacute" unicode="&#x17a;" 
d="M176 0v119l670 822h-670v119h824v-119l-668 -822h688v-119h-844zM529 1248l217 380h144l-230 -380h-131z" />
    <glyph glyph-name="Zdotaccent" unicode="&#x17b;" 
d="M166 0v122l721 1176h-721v122h868v-122l-723 -1176h743v-122h-888zM600 1603q-46 0 -78.5 32.5t-32.5 78.5t32.5 78.5t78.5 32.5t78.5 -32.5t32.5 -78.5t-32.5 -78.5t-78.5 -32.5z" />
    <glyph glyph-name="zdotaccent" unicode="&#x17c;" 
d="M176 0v119l670 822h-670v119h824v-119l-668 -822h688v-119h-844zM598 1261q-46 0 -78.5 32.5t-32.5 78.5t32.5 78.5t78.5 32.5t78.5 -32.5t32.5 -78.5t-32.5 -78.5t-78.5 -32.5z" />
    <glyph glyph-name="Zcaron" unicode="&#x17d;" 
d="M166 0v122l721 1176h-721v122h868v-122l-723 -1176h743v-122h-888zM544 1580l-277 260h159l174 -169l174 169h159l-277 -260h-112z" />
    <glyph glyph-name="zcaron" unicode="&#x17e;" 
d="M176 0v119l670 822h-670v119h824v-119l-668 -822h688v-119h-844zM551 1210l-277 380h152l174 -261l174 261h152l-277 -380h-98z" />
    <glyph glyph-name="longs" unicode="&#x17f;" 
d="M489 0v673h-405v119h405v178q0 550 452 550q106 0 207 -23l-29 -119q-108 17 -184 17q-314 0 -314 -415v-980h-132z" />
    <glyph glyph-name="uni0186" unicode="&#x186;" 
d="M499 -20q-271 0 -443 171l95 93q97 -81 174 -111t185 -30q221 0 344.5 159.5t123.5 442.5q0 295 -134 453.5t-393 158.5q-149 0 -292 -60l-34 115q167 68 353 68q311 0 472 -186.5t161 -540.5q0 -349 -155.5 -541t-456.5 -192z" />
    <glyph glyph-name="uni018E" unicode="&#x18e;" 
d="M1024 0h-908v122h781v528h-601v122h601v526h-781v122h908v-1420z" />
    <glyph glyph-name="uni018F" unicode="&#x18f;" 
d="M600 -20q-507 0 -507 667q0 69 4 118h877q-24 554 -474 554q-155 0 -293 -43l-22 118q148 46 315 46q607 0 607 -740q0 -720 -507 -720zM974 641h-749q1 -540 375 -540q356 0 374 540z" />
    <glyph glyph-name="uni0190" unicode="&#x190;" 
d="M683 1440q147 0 258.5 -44t170.5 -118l-90 -97q-58 63 -146.5 100.5t-191.5 37.5q-172 0 -263.5 -69t-91.5 -192q0 -124 118.5 -183.5t390.5 -67.5l-22 -122h-150q-179 0 -285 -78t-106 -219q0 -134 105 -210.5t289 -76.5q120 0 197 13t187 51l31 -117
q-92 -39 -179.5 -53.5t-230.5 -14.5q-244 0 -387 105t-143 282q0 117 55 204.5t140.5 131.5t189.5 49v10q-169 24 -249 111t-80 220q0 164 123.5 255.5t359.5 91.5z" />
    <glyph glyph-name="florin" unicode="&#x192;" 
d="M98 -476l-6 120l87 13q146 22 211 102t65 250v583h-367v118h367v220q0 510 462 510q107 0 204 -20l-22 -119q-108 14 -188 14q-323 0 -323 -375v-230h480v-118h-480v-551q0 -251 -99.5 -364t-329.5 -145z" />
    <glyph glyph-name="uni0194" unicode="&#x194;" 
d="M600 -462q-130 0 -205.5 63.5t-75.5 172.5q0 71 39.5 134t133.5 136l-431 1376h132l401 -1312h12l401 1312h132l-431 -1376q94 -73 133.5 -136t39.5 -134q0 -109 -75.5 -172.5t-205.5 -63.5zM443 -211q0 -63 42 -99.5t115 -36.5t115 36.5t42 99.5q0 47 -35.5 96.5
t-121.5 122.5q-86 -73 -121.5 -122.5t-35.5 -96.5z" />
    <glyph glyph-name="uni0196" unicode="&#x196;" 
d="M805 -20q-181 0 -268.5 95t-87.5 292v1015h-335v118h469v-1130q0 -137 60 -201t195 -64q81 0 205 32l15 -122q-122 -35 -253 -35z" />
    <glyph glyph-name="uni019A" unicode="&#x19a;" 
d="M105 668v122h344v592h-335v118h469v-710h344v-122h-344v-298q0 -137 60 -201t195 -64q81 0 205 32l15 -122q-122 -35 -253 -35q-181 0 -268.5 95t-87.5 292v301h-344z" />
    <glyph glyph-name="uni019B" unicode="&#x19b;" 
d="M146 957l-28 115l380 119l-12 42q-23 79 -63 111.5t-110 32.5q-20 0 -53 -6l-17 117q44 12 90 12q113 0 175.5 -49.5t97.5 -170.5l15 -51l330 103l26 -115l-324 -101l244 -849q26 -90 69.5 -127t121.5 -37q23 0 54 8l16 -119q-44 -12 -90 -12q-118 0 -183.5 53.5
t-103.5 184.5l-216 743l-19 -6q19 -112 -23 -217l-300 -738h-140l448 1077z" />
    <glyph glyph-name="uni019D" unicode="&#x19d;" 
d="M-66 -471l-10 119l48 7q103 14 147.5 80.5t44.5 203.5v1481h183l554 -1248h11v1248h124v-1420h-182l-554 1248h-12v-1317q0 -188 -71.5 -282t-231.5 -114z" />
    <glyph glyph-name="Ohorn" unicode="&#x1a0;" 
d="M600 -20q-508 0 -508 720q0 740 508 740q169 0 281 -82l12 2q112 19 164 89t52 204h126q0 -168 -62.5 -263t-195.5 -130q131 -185 131 -560q0 -720 -508 -720zM600 95q377 0 377 605q0 619 -377 619t-377 -619q0 -605 377 -605z" />
    <glyph glyph-name="ohorn" unicode="&#x1a1;" 
d="M600 -20q-213 0 -330.5 144t-117.5 406t117.5 406t330.5 144q75 0 138 -18l50 8q124 21 185.5 88t61.5 185h134q0 -297 -270 -373q149 -143 149 -440q0 -262 -117.5 -406t-330.5 -144zM600 105q149 0 230 111t81 314t-81 314t-230 111t-230 -111t-81 -314t81 -314
t230 -111z" />
    <glyph glyph-name="uni01A9" unicode="&#x1a9;" 
d="M166 0v119l485 594l-485 585v122h868v-122h-702l488 -585l-494 -594h728v-119h-888z" />
    <glyph glyph-name="Uhorn" unicode="&#x1af;" 
d="M596 -20q-440 0 -440 476v964h127v-964q0 -178 77 -265.5t240 -87.5q317 0 317 353v964h2l60 10q94 16 137 68.5t43 154.5h126q0 -142 -58 -220.5t-183 -107.5v-869q0 -237 -113.5 -356.5t-334.5 -119.5z" />
    <glyph glyph-name="uhorn" unicode="&#x1b0;" 
d="M529 -20q-175 0 -271 99t-96 281v700h133v-700q0 -122 68.5 -188.5t192.5 -66.5q150 0 223.5 90.5t73.5 294.5v570l40 10q182 44 182 273h137q0 -143 -55.5 -231t-170.5 -128v-871l146 -14v-99l-261 -10l-15 214h-13q-28 -107 -110.5 -165.5t-203.5 -58.5z" />
    <glyph glyph-name="uni01B1" unicode="&#x1b1;" 
d="M120 1420h410v-121q-307 -119 -307 -646q0 -269 96.5 -410.5t280.5 -141.5t280.5 141.5t96.5 410.5q0 536 -283 646v121h386v-121h-206v-12q234 -133 234 -660q0 -316 -130 -481.5t-378 -165.5t-378 165.5t-130 481.5q0 518 258 661v11h-230v121z" />
    <glyph glyph-name="uni01B2" unicode="&#x1b2;" 
d="M660 1420h145q124 0 181.5 -64t57.5 -203v-697q0 -237 -113.5 -356.5t-334.5 -119.5q-440 0 -440 476v964h127v-964q0 -178 77 -265.5t240 -87.5q317 0 317 353v681q0 83 -33 121.5t-103 38.5h-121v123z" />
    <glyph glyph-name="uni01B7" unicode="&#x1b7;" 
d="M563 -20q-290 0 -473 171l93 92q102 -78 185 -109t200 -31q174 0 270.5 76t96.5 213q0 149 -123.5 225t-364.5 76h-109l-16 82l528 524h-671v121h821v-136l-488 -481q274 -11 414 -115t140 -296q0 -194 -133 -303t-370 -109z" />
    <glyph glyph-name="uni01CD" unicode="&#x1cd;" 
d="M61 0l448 1420h182l448 -1420h-131l-117 380h-582l-117 -380h-131zM346 502h508l-248 809h-12zM544 1580l-277 260h159l174 -169l174 169h159l-277 -260h-112z" />
    <glyph glyph-name="uni01CE" unicode="&#x1ce;" 
d="M859 -10l-10 234h-13q-18 -111 -125 -177.5t-264 -66.5q-160 0 -247.5 74.5t-87.5 210.5q0 166 117.5 251.5t347.5 85.5q148 0 253 -18v45q0 161 -87 235t-276 78l-225 4l20 124l198 -3q259 -4 379.5 -114.5t120.5 -343.5v-494l182 -16v-99zM830 474q-78 13 -257 13
q-330 0 -330 -214q0 -84 56 -129.5t159 -45.5q163 0 267.5 80t104.5 196v100zM531 1210l-277 380h152l174 -261l174 261h152l-277 -380h-98z" />
    <glyph glyph-name="uni01DD" unicode="&#x1dd;" 
d="M585 -20q-206 0 -319.5 128.5t-113.5 363.5q0 62 6 104h759q-17 183 -131.5 282t-312.5 99q-120 0 -250 -32l-19 120q130 35 293 35q263 0 407 -146t144 -414q0 -257 -121 -398.5t-342 -141.5zM917 462h-637q0 -171 79.5 -265t223.5 -94q147 0 234 94t100 265z" />
    <glyph glyph-name="uni01E4" unicode="&#x1e4;" 
d="M695 -20q-300 0 -460 188.5t-160 543.5q0 347 160.5 537.5t451.5 190.5q140 0 248 -42.5t164 -120.5l-95 -94q-54 65 -134 100.5t-171 35.5q-233 0 -362 -156.5t-129 -440.5q0 -300 132 -460.5t379 -160.5q97 0 205 32v273h-291v122h291v149h123v-149h153v-122h-153v-366
q-177 -60 -352 -60z" />
    <glyph glyph-name="uni01E5" unicode="&#x1e5;" 
d="M44 -213v95h815q24 76 24 180v169h-13q-21 -120 -105.5 -185.5t-229.5 -65.5q-209 0 -316 137t-107 403q0 276 108 418t319 142q142 0 228 -62.5t107 -180.5h10l12 223h120v-966q0 -121 -22 -212h162v-95h-193q-55 -124 -170.5 -186t-300.5 -69l-294 -10l-6 123l320 12
q210 7 300 130h-768zM883 545q0 204 -81 309t-239 105q-157 0 -237 -111t-80 -328q0 -206 80.5 -312.5t237.5 -106.5t238 105t81 308v31z" />
    <glyph glyph-name="Gcaron" unicode="&#x1e6;" 
d="M695 -20q-300 0 -460 188.5t-160 543.5q0 347 160.5 537.5t451.5 190.5q140 0 248 -42.5t164 -120.5l-95 -94q-54 65 -134 100.5t-171 35.5q-233 0 -362 -156.5t-129 -440.5q0 -300 132 -460.5t379 -160.5q103 0 225 33v421h-341v122h464v-637q-187 -60 -372 -60z
M619 1580l-277 260h159l174 -169l174 169h159l-277 -260h-112z" />
    <glyph glyph-name="gcaron" unicode="&#x1e7;" 
d="M198 -478l-6 123l320 12q191 7 280.5 106.5t90.5 298.5v169h-13q-21 -120 -105.5 -185.5t-229.5 -65.5q-209 0 -316 137t-107 403q0 276 108 418t319 142q142 0 228 -62.5t107 -180.5h10l12 223h120v-966q0 -284 -125 -418t-399 -144zM883 545q0 204 -81 309t-239 105
q-157 0 -237 -111t-80 -328q0 -206 80.5 -312.5t237.5 -106.5t238 105t81 308v31zM531 1210l-277 380h152l174 -261l174 261h152l-277 -380h-98z" />
    <glyph glyph-name="uni01EA" unicode="&#x1ea;" 
d="M641 -424q-112 0 -173 52.5t-61 148.5q0 69 33 119t93 73v14q-441 47 -441 717q0 740 508 740t508 -740q0 -582 -333 -694h-2l-2 -1l-18 -6q-61 -19 -97 -33t-71.5 -36t-51.5 -52.5t-16 -72.5q0 -53 38 -85.5t112 -32.5q26 0 77 7l-11 -109q-41 -9 -92 -9zM600 95
q377 0 377 605q0 619 -377 619t-377 -619q0 -605 377 -605z" />
    <glyph glyph-name="uni01EB" unicode="&#x1eb;" 
d="M662 -424q-111 0 -172 51t-61 144q0 69 31.5 120.5t87.5 75.5v15q-189 18 -292.5 160.5t-103.5 387.5q0 262 117.5 406t330.5 144t330.5 -144t117.5 -406q0 -200 -69.5 -332.5t-199.5 -185.5q-1 0 -4 -1t-4 -2q-3 -1 -10 -3.5t-11 -3.5q-43 -15 -70 -26t-57 -28.5
t-46 -36t-27 -45.5t-11 -61q0 -53 38 -85.5t111 -32.5q27 0 78 7l-11 -109q-42 -9 -93 -9zM600 105q149 0 230 111t81 314t-81 314t-230 111t-230 -111t-81 -314t81 -314t230 -111z" />
    <glyph glyph-name="uni01F0" unicode="&#x1f0;" 
d="M192 -480l-6 120l184 17q196 17 284.5 112.5t86.5 292.5l-2 288v592h-463v118h596v-676l3 -290q2 -280 -122.5 -410.5t-402.5 -151.5zM756 1210l-277 380h152l174 -261l174 261h152l-277 -380h-98z" />
    <glyph glyph-name="Aringacute" unicode="&#x1fa;" 
d="M61 0l448 1420h182l448 -1420h-131l-117 380h-582l-117 -380h-131zM346 502h508l-248 809h-12zM600 1488q-103 0 -164 55.5t-61 150.5q0 126 103 180l180 201h176l-178 -180q79 -14 124 -67t45 -134q0 -95 -61 -150.5t-164 -55.5zM600 1577q58 0 92.5 32t34.5 85
t-34.5 85t-92.5 32t-92.5 -32t-34.5 -85t34.5 -85t92.5 -32z" />
    <glyph glyph-name="aringacute" unicode="&#x1fb;" 
d="M859 -10l-10 234h-13q-18 -111 -125 -177.5t-264 -66.5q-160 0 -247.5 74.5t-87.5 210.5q0 166 117.5 251.5t347.5 85.5q148 0 253 -18v45q0 161 -87 235t-276 78l-225 4l20 124l198 -3q259 -4 379.5 -114.5t120.5 -343.5v-494l182 -16v-99zM580 1198q-106 0 -164 56.5
t-58 159.5q0 81 37.5 134.5t106.5 72.5l174 304h144l-182 -300q79 -15 121.5 -69.5t42.5 -141.5q0 -103 -58 -159.5t-164 -56.5zM830 474q-78 13 -257 13q-330 0 -330 -214q0 -84 56 -129.5t159 -45.5q163 0 267.5 80t104.5 196v100zM580 1293q55 0 85 31.5t30 89.5
t-30 89.5t-85 31.5t-85 -31.5t-30 -89.5t30 -89.5t85 -31.5z" />
    <glyph glyph-name="AEacute" unicode="&#x1fc;" 
d="M59 0l466 1420h558v-122h-336v-526h276v-122h-276v-528h336v-122h-456v270h-359l-89 -270h-120zM307 387h320v917h-17zM559 1580l223 250h176l-247 -250h-152z" />
    <glyph glyph-name="aeacute" unicode="&#x1fd;" 
d="M311 -20q-132 0 -206.5 78.5t-74.5 217.5q0 162 90.5 249t259.5 87q87 0 153 -12v66q0 127 -82.5 200t-232.5 79l-78 3l20 122l78 -3q136 -5 228 -67.5t133 -175.5q35 125 103 190.5t165 65.5q140 0 212.5 -131.5t72.5 -387.5q0 -57 -6 -104h-484q17 -169 97.5 -260.5
t214.5 -91.5q58 0 110 21l19 -123q-72 -23 -153 -23q-260 0 -347 277h-10q-19 -133 -91 -205t-191 -72zM533 374v113q-47 10 -157 10q-107 0 -163 -55.5t-56 -162.5q0 -85 46 -133t126 -48q94 0 149 74.5t55 201.5zM658 568h366q0 389 -162 389q-96 0 -148 -99.5t-56 -289.5
zM529 1248l217 380h144l-230 -380h-131z" />
    <glyph glyph-name="Oslashacute" unicode="&#x1fe;" 
d="M194 -134l-91 55l125 227q-136 179 -136 552q0 740 508 740q174 0 288 -87l98 179l91 -55l-111 -202q142 -186 142 -575q0 -720 -508 -720q-177 0 -295 89zM600 95q377 0 377 605q0 289 -83 444l-526 -961q88 -88 232 -88zM299 279l525 958q-86 82 -224 82
q-377 0 -377 -619q0 -273 76 -421zM519 1580l223 250h176l-247 -250h-152z" />
    <glyph glyph-name="oslashacute" unicode="&#x1ff;" 
d="M301 -134l-85 58l87 164q-151 143 -151 442q0 262 117.5 406t330.5 144q117 0 209 -46l87 164l95 -48l-95 -177q152 -144 152 -443q0 -262 -117.5 -406t-330.5 -144q-122 0 -212 48zM600 105q149 0 230 111t81 314q0 205 -83 317l-378 -704q64 -38 150 -38zM371 215
l376 704q-63 36 -147 36q-149 0 -230 -111t-81 -314q0 -204 82 -315zM529 1248l217 380h144l-230 -380h-131z" />
    <glyph glyph-name="uni0218" unicode="&#x218;" 
d="M551 -20q-226 0 -406 71l18 132q213 -82 404 -82q341 0 341 238q0 153 -151 229l-337 173q-119 59 -178 138.5t-59 190.5q0 182 106.5 276t313.5 94q264 0 444 -171l-90 -91q-179 141 -353 141q-288 0 -288 -239q0 -74 38.5 -125t117.5 -91l307 -155q132 -66 197 -155.5
t65 -210.5q0 -363 -490 -363zM466 -480l76 340h139l-93 -340h-122z" />
    <glyph glyph-name="uni0219" unicode="&#x219;" 
d="M518 -20q-222 0 -346 30l16 127q199 -32 330 -32q196 0 284.5 41t88.5 132q0 63 -41 103t-131 62l-238 60q-154 39 -223.5 104t-69.5 170q0 160 129.5 231.5t418.5 71.5q124 0 264 -20l-15 -119q-151 14 -255 14q-214 0 -309.5 -41.5t-95.5 -133.5q0 -56 48.5 -94
t155.5 -63l190 -46q163 -40 236 -110.5t73 -187.5q0 -157 -120.5 -228t-389.5 -71zM446 -480l76 340h139l-93 -340h-122z" />
    <glyph glyph-name="uni021A" unicode="&#x21a;" 
d="M537 0v1298h-441v122h1008v-122h-441v-1298h-126zM451 -480l76 340h139l-93 -340h-122z" />
    <glyph glyph-name="uni021B" unicode="&#x21b;" 
d="M792 -20q-205 0 -303 104.5t-98 322.5v535h-305v118h305v320h134v-320h489v-118h-489v-532q0 -155 70 -230t217 -75q94 0 227 20l15 -121q-134 -24 -262 -24zM521 -480l76 340h139l-93 -340h-122z" />
    <glyph glyph-name="uni021E" unicode="&#x21e;" 
d="M917 0v646h-634v-646h-127v1420h127v-652h634v652h127v-1420h-127zM544 1580l-277 260h159l174 -169l174 169h159l-277 -260h-112z" />
    <glyph glyph-name="uni021F" unicode="&#x21f;" 
d="M883 0v693q0 127 -66.5 196.5t-186.5 69.5q-313 0 -313 -360v-599h-133v1500h133v-632h12q45 212 312 212q179 0 277 -102t98 -288v-690h-133zM195 1660l-277 260h159l174 -169l174 169h159l-277 -260h-112z" />
    <glyph glyph-name="uni0232" unicode="&#x232;" 
d="M537 0v507l-496 913h139l414 -780h12l414 780h139l-496 -913v-507h-126zM213 1613v122h774v-122h-774z" />
    <glyph glyph-name="uni0233" unicode="&#x233;" 
d="M91 -480l-6 124l100 15q128 20 218 98.5t166 242.5h-49l-449 1060h144l392 -947h9q8 20 12 31l327 916h144l-364 -966q-107 -284 -226 -409.5t-300 -149.5zM202 1248v123h826v-123h-826z" />
    <glyph glyph-name="uni0237" unicode="&#x237;" 
d="M192 -480l-6 120l184 17q196 17 284.5 112.5t86.5 292.5l-2 288v592h-463v118h596v-676l3 -290q2 -280 -122.5 -410.5t-402.5 -151.5z" />
    <glyph glyph-name="uni023A" unicode="&#x23a;" 
d="M492 -330l-103 19l129 691h-209l-117 -380h-131l448 1420h182l12 -39l62 330l110 -19l-101 -534l365 -1158h-131l-117 380h-265zM541 502l118 637l-53 172h-12l-248 -809h195zM728 914l-79 -412h205z" />
    <glyph glyph-name="uni023B" unicode="&#x23b;" 
d="M543 -330l-103 19l60 323q-405 122 -405 700q0 347 162.5 537.5t459.5 190.5q33 0 48 -1l51 272l110 -19l-51 -269q173 -42 241 -162l-92 -94q-66 92 -173 129l-224 -1183q63 -12 135 -12q149 0 297 65l32 -118q-166 -68 -350 -68q-72 0 -138 9zM524 142l219 1176
q-8 1 -24 1q-226 0 -358.5 -157.5t-132.5 -439.5q0 -463 296 -580z" />
    <glyph glyph-name="uni023D" unicode="&#x23d;" 
d="M-20 668v122h196v630h127v-630h500v-122h-500v-546h781v-122h-908v668h-196z" />
    <glyph glyph-name="uni023E" unicode="&#x23e;" 
d="M405 -337l-98 31l230 723v881h-441v122h760l94 296l104 -31l-85 -265h135v-122h-174l-267 -831v-467h-126v74zM663 813l154 485h-154v-485z" />
    <glyph glyph-name="uni0245" unicode="&#x245;" 
d="M61 0l448 1420h182l448 -1420h-134l-399 1311h-12l-399 -1311h-134z" />
    <glyph glyph-name="uni0251" unicode="&#x251;" 
d="M525 -20q-204 0 -315 140t-111 400q0 267 112.5 413.5t318.5 146.5q130 0 206 -57.5t96 -161.5h13v199h133v-945l171 -17v-98l-283 -10l-10 209h-15q-16 -95 -101 -157t-215 -62zM845 463v134q0 179 -75.5 270.5t-222.5 91.5q-150 0 -232 -114.5t-82 -324.5
q0 -208 78.5 -313.5t233.5 -105.5q148 0 224 92t76 270z" />
    <glyph glyph-name="uni0254" unicode="&#x254;" 
d="M526 -20q-119 0 -218.5 34t-159.5 89l65 99q58 -42 142.5 -69.5t178.5 -27.5q181 0 280.5 108t99.5 305q0 213 -110.5 325t-316.5 112q-121 0 -259 -41l-32 119q132 47 302 47q264 0 407 -143t143 -409q0 -261 -136 -404.5t-386 -143.5z" />
    <glyph glyph-name="uni0259" unicode="&#x259;" 
d="M585 -20q-206 0 -319.5 128.5t-113.5 363.5q0 62 6 104h759q-17 183 -131.5 282t-312.5 99q-120 0 -250 -32l-19 120q130 35 293 35q263 0 407 -146t144 -414q0 -257 -121 -398.5t-342 -141.5zM917 462h-637q0 -171 79.5 -265t223.5 -94q147 0 234 94t100 265z" />
    <glyph glyph-name="uni025B" unicode="&#x25b;" 
d="M626 -20q-444 0 -444 287q0 216 290 259v21q-260 69 -260 268q0 265 430 265q272 0 392 -58l-43 -118q-140 53 -327 53q-314 0 -314 -172q0 -178 481 -200l-18 -120h-35q-458 0 -458 -188q0 -174 314 -174q76 0 148.5 9t107.5 17.5t96 24.5l38 -126q-165 -48 -398 -48z
" />
    <glyph glyph-name="uni0262" unicode="&#x262;" 
d="M676 -15q-283 0 -432.5 142.5t-149.5 413.5q0 264 154 408.5t433 144.5q147 0 260.5 -29.5t173.5 -84.5l-77 -112q-134 101 -345 101q-220 0 -340.5 -110t-120.5 -310q0 -213 120.5 -326t347.5 -113q120 0 257 25v272h-306v123h439v-500q-215 -45 -414 -45z" />
    <glyph glyph-name="uni0263" unicode="&#x263;" 
d="M600 -462q-131 0 -208 63.5t-77 172.5q0 71 40.5 134t136.5 136l-396 1016h143l357 -947h11l354 947h143l-396 -1016q96 -73 136.5 -136t40.5 -134q0 -109 -77 -172.5t-208 -63.5zM443 -211q0 -62 42 -97.5t115 -35.5t115 35.5t42 97.5q0 47 -35.5 96.5t-121.5 122.5
q-86 -73 -121.5 -122.5t-35.5 -96.5z" />
    <glyph glyph-name="uni0269" unicode="&#x269;" 
d="M804 -20q-176 0 -254.5 99.5t-78.5 320.5v541h-325v119h455v-650q0 -85 9.5 -138t35.5 -92.5t74 -56t124 -16.5q74 0 187 38l17 -123q-118 -42 -244 -42z" />
    <glyph glyph-name="uni026A" unicode="&#x26a;" 
d="M184 0v118h349v824h-349v118h832v-118h-349v-824h349v-118h-832z" />
    <glyph glyph-name="uni026B" unicode="&#x26b;" 
d="M94 589v97q0 121 49 176t157 55q75 0 149 -42v507h-335v118h469v-715q93 -64 156 -64q43 0 62 28t19 90v105h115v-97q0 -121 -43.5 -176t-139.5 -55q-88 0 -169 50v-296q0 -137 60 -201t195 -64q81 0 205 32l15 -122q-122 -35 -253 -35q-181 0 -268.5 95t-87.5 292v394
q-78 51 -139 51q-53 0 -77 -28t-24 -90v-105h-115z" />
    <glyph glyph-name="uni026C" unicode="&#x26c;" 
d="M303 620q-128 0 -198 69.5t-70 196.5t59.5 196t168.5 69q78 0 120.5 -33t53.5 -101h12v365h-335v118h469v-756h344v-124h-344v-250q0 -137 60 -201t195 -64q81 0 205 32l15 -122q-122 -35 -253 -35q-181 0 -268.5 95t-87.5 292v253h-146zM449 744v97q-6 93 -50.5 139
t-111.5 46q-55 0 -85 -37t-30 -104t34.5 -104t96.5 -37h146z" />
    <glyph glyph-name="uni0272" unicode="&#x272;" 
d="M883 0v693q0 127 -66.5 196.5t-186.5 69.5q-313 0 -313 -360v-512q0 -283 -94 -412t-319 -142l-18 -1l-6 120l39 5q140 14 202.5 110t62.5 295v998h121l10 -192h14q45 212 312 212q179 0 277 -102t98 -288v-690h-133z" />
    <glyph glyph-name="uni0283" unicode="&#x283;" 
d="M125 -476l-6 120l87 13q146 22 210.5 102t64.5 250v1001q0 510 463 510q105 0 204 -20l-22 -119q-108 14 -188 14q-323 0 -323 -375v-979q0 -170 -44 -275t-131.5 -158.5t-233.5 -73.5z" />
    <glyph glyph-name="uni028A" unicode="&#x28a;" 
d="M120 1059h410v-119q-134 -34 -214 -146t-80 -266q0 -191 98.5 -304.5t265.5 -113.5t265.5 113.5t98.5 304.5q0 157 -73.5 269t-196.5 143v119h386v-119h-206v-13q104 -44 165.5 -164.5t61.5 -279.5q0 -228 -136 -363t-365 -135t-365 135t-136 363q0 157 68 277.5
t183 167.5v12h-230v119z" />
    <glyph glyph-name="uni028B" unicode="&#x28b;" 
d="M600 -20q-207 0 -313.5 109t-107.5 321v650h130v-650q0 -151 74 -228t217 -77t217 77t74 228v387q0 73 -27 106.5t-85 33.5h-102v123h126q114 0 166 -59t52 -188v-403q0 -212 -106.5 -321t-314.5 -109z" />
    <glyph glyph-name="uni028C" unicode="&#x28c;" 
d="M111 0l394 1060h190l394 -1060h-141l-339 941h-18l-339 -941h-141z" />
    <glyph glyph-name="uni0292" unicode="&#x292;" 
d="M541 -460q-279 0 -446 179l87 92q92 -79 174 -112.5t196 -33.5q167 0 261.5 85t94.5 232q0 151 -104 234.5t-293 83.5h-172l-20 70l510 563h-640v118h791v-125l-463 -515h14q244 -1 379 -114t135 -313q0 -199 -133.5 -321.5t-370.5 -122.5z" />
    <glyph glyph-name="uni0294" unicode="&#x294;" 
d="M501 0v362q0 127 48.5 226.5t153.5 198.5q87 81 124.5 157.5t37.5 174.5q0 132 -79 205t-222 73q-176 0 -337 -159l-85 90q177 192 424 192q206 0 320 -102.5t114 -288.5q0 -126 -50.5 -224.5t-164.5 -206.5q-80 -78 -115 -162t-35 -188v-348h-134z" />
    <glyph glyph-name="uni0295" unicode="&#x295;" 
d="M567 0v348q0 104 -35.5 188t-115.5 162q-114 108 -164.5 206.5t-50.5 224.5q0 186 114 288.5t320 102.5q247 0 424 -192l-85 -90q-160 159 -337 159q-143 0 -222 -73t-79 -205q0 -98 38 -174.5t125 -157.5q105 -99 153 -198.5t48 -226.5v-362h-133z" />
    <glyph glyph-name="uni029F" unicode="&#x29f;" 
d="M175 0v1079h133v-961h778v-118h-911z" />
    <glyph glyph-name="uni02A7" unicode="&#x2a7;" 
d="M519 -20q-146 0 -211.5 71t-65.5 229v662h-209v118h209v320h133v-320h406v87q0 168 82.5 257t237.5 89q73 0 124 -11l-15 -120q-47 7 -89 7q-98 0 -152 -59.5t-54 -166.5v-1149q0 -227 -108.5 -337.5t-349.5 -128.5l-62 -5l-8 121l92 11q160 20 231 96.5t71 230.5v960
h-406v-652q0 -97 39 -141t125 -44q29 0 92 10l16 -121q-67 -14 -128 -14z" />
    <glyph glyph-name="uni02B7" unicode="&#x2b7;" 
d="M688 790l-87 508h-14l-86 -508h-157l-91 631h116l66 -519h17l93 519h98l93 -519h17l80 519h115l-111 -631h-149z" />
    <glyph glyph-name="uni02B8" unicode="&#x2b8;" 
d="M270 504v108h49q175 0 270 178h-51l-269 631h125l225 -534h12l195 534h126l-224 -575q-69 -176 -161 -259t-232 -83h-65z" />
    <glyph glyph-name="uni02BB" unicode="&#x2bb;" 
d="M405 780l330 690h102l-243 -690h-189z" />
    <glyph glyph-name="uni02BC" unicode="&#x2bc;" 
d="M539 683l-97 84l39 43q83 93 123 181.5t40 159.5q0 74 -43 110t-133 36h-45v123h55q152 0 225.5 -66.5t73.5 -202.5q0 -209 -203 -430z" />
    <glyph glyph-name="uni02C0" unicode="&#x2c0;" 
d="M513 790v117q0 62 30 109t101 99q64 47 86.5 88.5t22.5 98.5q0 72 -45.5 111.5t-129.5 39.5q-135 0 -251 -84l-62 92q122 107 327 107q143 0 221.5 -68t78.5 -192q0 -84 -38.5 -145t-120.5 -123q-52 -38 -73.5 -71t-21.5 -76v-103h-125z" />
    <glyph glyph-name="circumflex" unicode="&#x2c6;" 
d="M274 1248l277 380h98l277 -380h-152l-174 261l-174 -261h-152z" />
    <glyph glyph-name="caron" unicode="&#x2c7;" 
d="M551 1210l-277 380h152l174 -261l174 261h152l-277 -380h-98z" />
    <glyph glyph-name="uni02C9" unicode="&#x2c9;" 
d="M187 1248v123h826v-123h-826z" />
    <glyph glyph-name="uni02D0" unicode="&#x2d0;" 
d="M433 0l167 307l167 -307h-334zM600 753l-167 307h334z" />
    <glyph glyph-name="breve" unicode="&#x2d8;" 
d="M600 1238q-161 0 -250 84t-89 238v43h118v-43q0 -106 57.5 -163t163.5 -57t163.5 57t57.5 163v43h118v-43q0 -154 -89 -238t-250 -84z" />
    <glyph glyph-name="dotaccent" unicode="&#x2d9;" 
d="M600 1261q-46 0 -78.5 32.5t-32.5 78.5t32.5 78.5t78.5 32.5t78.5 -32.5t32.5 -78.5t-32.5 -78.5t-78.5 -32.5z" />
    <glyph glyph-name="ring" unicode="&#x2da;" 
d="M600 1198q-106 0 -164 56.5t-58 159.5t58 159.5t164 56.5t164 -56.5t58 -159.5t-58 -159.5t-164 -56.5zM600 1293q55 0 85 31.5t30 89.5t-30 89.5t-85 31.5t-85 -31.5t-30 -89.5t30 -89.5t85 -31.5z" />
    <glyph glyph-name="ogonek" unicode="&#x2db;" 
d="M622 -424q-111 0 -172 52t-61 146q0 67 36.5 120t103.5 83v54l216 1v-32q-115 0 -180.5 -53t-65.5 -142q0 -56 39 -87t110 -31q28 0 77 7l-10 -109q-41 -9 -93 -9z" />
    <glyph glyph-name="tilde" unicode="&#x2dc;" 
d="M253 1256v40q0 250 194 250q40 0 77 -18t87 -53q112 -76 156 -76q68 0 68 111v90h116v-80q0 -240 -172 -240q-59 0 -180 77q-10 6 -33 22t-36 24.5t-31.5 16t-33.5 7.5q-94 0 -94 -121v-50h-118z" />
    <glyph glyph-name="hungarumlaut" unicode="&#x2dd;" 
d="M283 1248l157 380h148l-170 -380h-135zM667 1248l157 380h148l-170 -380h-135z" />
    <glyph glyph-name="gravecomb" unicode="&#x300;" horiz-adv-x="0" 
d="M620 1248l-230 380h144l217 -380h-131z" />
    <glyph glyph-name="acutecomb" unicode="&#x301;" horiz-adv-x="0" 
d="M449 1248l217 380h144l-230 -380h-131z" />
    <glyph glyph-name="uni0302" unicode="&#x302;" horiz-adv-x="0" 
d="M274 1248l277 380h98l277 -380h-152l-174 261l-174 -261h-152z" />
    <glyph glyph-name="tildecomb" unicode="&#x303;" horiz-adv-x="0" 
d="M253 1256v40q0 250 194 250q40 0 77 -18t87 -53q112 -76 156 -76q68 0 68 111v90h116v-80q0 -240 -172 -240q-59 0 -180 77q-10 6 -33 22t-36 24.5t-31.5 16t-33.5 7.5q-94 0 -94 -121v-50h-118z" />
    <glyph glyph-name="uni0304" unicode="&#x304;" horiz-adv-x="0" 
d="M187 1248v123h826v-123h-826z" />
    <glyph glyph-name="uni0306" unicode="&#x306;" horiz-adv-x="0" 
d="M600 1238q-161 0 -250 84t-89 238v43h118v-43q0 -106 57.5 -163t163.5 -57t163.5 57t57.5 163v43h118v-43q0 -154 -89 -238t-250 -84z" />
    <glyph glyph-name="uni0307" unicode="&#x307;" horiz-adv-x="0" 
d="M600 1261q-46 0 -78.5 32.5t-32.5 78.5t32.5 78.5t78.5 32.5t78.5 -32.5t32.5 -78.5t-32.5 -78.5t-78.5 -32.5z" />
    <glyph glyph-name="uni0308" unicode="&#x308;" horiz-adv-x="0" 
d="M390 1261q-46 0 -78.5 32.5t-32.5 78.5t32.5 78.5t78.5 32.5t78.5 -32.5t32.5 -78.5t-32.5 -78.5t-78.5 -32.5zM810 1261q-46 0 -78.5 32.5t-32.5 78.5t32.5 78.5t78.5 32.5t78.5 -32.5t32.5 -78.5t-32.5 -78.5t-78.5 -32.5z" />
    <glyph glyph-name="hookabovecomb" unicode="&#x309;" horiz-adv-x="0" 
d="M522 1248v23q0 35 13 65t32 51t38 40.5t32 41t13 43.5q0 68 -90 68q-80 0 -139 -49l-52 90q32 33 87 52t119 19q94 0 144 -43t50 -123q0 -39 -13.5 -70.5t-32.5 -52.5t-38.5 -41.5t-33 -47t-13.5 -57.5v-9h-116z" />
    <glyph glyph-name="uni030A" unicode="&#x30a;" horiz-adv-x="0" 
d="M600 1198q-106 0 -164 56.5t-58 159.5t58 159.5t164 56.5t164 -56.5t58 -159.5t-58 -159.5t-164 -56.5zM600 1293q55 0 85 31.5t30 89.5t-30 89.5t-85 31.5t-85 -31.5t-30 -89.5t30 -89.5t85 -31.5z" />
    <glyph glyph-name="uni030B" unicode="&#x30b;" horiz-adv-x="0" 
d="M283 1248l157 380h148l-170 -380h-135zM667 1248l157 380h148l-170 -380h-135z" />
    <glyph glyph-name="uni030C" unicode="&#x30c;" horiz-adv-x="0" 
d="M551 1210l-277 380h152l174 -261l174 261h152l-277 -380h-98z" />
    <glyph glyph-name="uni0312" unicode="&#x312;" horiz-adv-x="0" 
d="M525 1208l67 380h115l-46 -380h-136z" />
    <glyph glyph-name="uni0313" unicode="&#x313;" horiz-adv-x="0" 
d="M525 1208l47 380h135l-66 -380h-116z" />
    <glyph glyph-name="uni0315" unicode="&#x315;" horiz-adv-x="0" 
d="M525 1208l47 380h135l-66 -380h-116z" />
    <glyph glyph-name="uni031B" unicode="&#x31b;" horiz-adv-x="0" 
d="M434 945l-43 115l60 10q124 21 185.5 88t61.5 185h134q0 -168 -84 -263.5t-254 -124.5z" />
    <glyph glyph-name="dotbelowcomb" unicode="&#x323;" horiz-adv-x="0" 
d="M600 -397q-46 0 -78.5 32t-32.5 78t32.5 79t78.5 33t78.5 -33t32.5 -79t-32.5 -78t-78.5 -32z" />
    <glyph glyph-name="uni0325" unicode="&#x325;" horiz-adv-x="0" 
d="M600 -500q-106 0 -164 56.5t-58 159.5t58 159.5t164 56.5t164 -56.5t58 -159.5t-58 -159.5t-164 -56.5zM600 -405q55 0 85 31.5t30 89.5t-30 89.5t-85 31.5t-85 -31.5t-30 -89.5t30 -89.5t85 -31.5z" />
    <glyph glyph-name="uni0326" unicode="&#x326;" horiz-adv-x="0" 
d="M456 -480l76 340h139l-93 -340h-122z" />
    <glyph glyph-name="uni0327" unicode="&#x327;" horiz-adv-x="0" 
d="M427 -480v104q120 0 175.5 25t55.5 80q0 50 -48 72.5t-153 22.5l79 211l92 -29l-35 -113q186 -20 186 -167q0 -107 -85 -156.5t-267 -49.5z" />
    <glyph glyph-name="uni0328" unicode="&#x328;" horiz-adv-x="0" 
d="M622 -424q-111 0 -172 52t-61 146q0 67 36.5 120t103.5 83v54l216 1v-32q-115 0 -180.5 -53t-65.5 -142q0 -56 39 -87t110 -31q28 0 77 7l-10 -109q-41 -9 -93 -9z" />
    <glyph glyph-name="uni0331" unicode="&#x331;" horiz-adv-x="0" 
d="M187 -331v123h826v-123h-826z" />
    <glyph glyph-name="uni0332" unicode="&#x332;" horiz-adv-x="0" 
d="M-40 -331v123h1280v-123h-1280z" />
    <glyph glyph-name="uni0340" unicode="&#x340;" horiz-adv-x="0" 
d="M620 1248l-230 380h144l217 -380h-131z" />
    <glyph glyph-name="uni0341" unicode="&#x341;" horiz-adv-x="0" 
d="M449 1248l217 380h144l-230 -380h-131z" />
    <glyph glyph-name="uni0342" unicode="&#x342;" horiz-adv-x="0" 
d="M253 1256v40q0 250 194 250q40 0 77 -18t87 -53q112 -76 156 -76q68 0 68 111v90h116v-80q0 -240 -172 -240q-59 0 -180 77q-10 6 -33 22t-36 24.5t-31.5 16t-33.5 7.5q-94 0 -94 -121v-50h-118z" />
    <glyph glyph-name="uni0374" unicode="&#x374;" 
d="M539 683l-97 84l39 43q83 93 123 181.5t40 159.5q0 74 -43 110t-133 36h-45v123h55q152 0 225.5 -66.5t73.5 -202.5q0 -209 -203 -430z" />
    <glyph glyph-name="uni0375" unicode="&#x375;" 
d="M459 -436l80 690h142l-97 -690h-125z" />
    <glyph glyph-name="uni037E" unicode="&#x37e;" 
d="M459 -436l80 690h142l-97 -690h-125zM600 849q-48 0 -82 33.5t-34 81.5t34 82t82 34t82 -34t34 -82t-34 -81.5t-82 -33.5z" />
    <glyph glyph-name="tonos" unicode="&#x384;" 
d="M449 1248l217 380h144l-230 -380h-131z" />
    <glyph glyph-name="dieresistonos" unicode="&#x385;" 
d="M491 1248l164 380h144l-176 -380h-132zM317 1238q-47 0 -79.5 32.5t-32.5 78.5t33 78.5t79 32.5t78.5 -32.5t32.5 -78.5t-32.5 -78.5t-78.5 -32.5zM900 1238q-46 0 -78.5 32.5t-32.5 78.5t32.5 78.5t78.5 32.5t78.5 -32.5t32.5 -78.5t-32.5 -78.5t-78.5 -32.5z" />
    <glyph glyph-name="Alphatonos" unicode="&#x386;" 
d="M306 0l296 1420h194l295 -1420h-133l-73 380h-372l-73 -380h-134zM536 502h325l-156 813h-13zM48 1040l90 380h139l-117 -380h-112z" />
    <glyph glyph-name="anoteleia" unicode="&#x387;" 
d="M600 848q-48 0 -82 33.5t-34 81.5t34 82t82 34t82 -34t34 -82t-34 -81.5t-82 -33.5z" />
    <glyph glyph-name="Epsilontonos" unicode="&#x388;" 
d="M360 0v1420h725v-122h-598v-526h418v-122h-418v-528h598v-122h-725zM15 1040l90 380h139l-117 -380h-112z" />
    <glyph glyph-name="Etatonos" unicode="&#x389;" 
d="M917 0v646h-451l1 -646h-127v1420h125l1 -652h451v652h127v-1420h-127zM15 1040l90 380h139l-117 -380h-112z" />
    <glyph glyph-name="Iotatonos" unicode="&#x38a;" 
d="M368 0v122h267v1176h-267v122h648v-122h-254v-1176h254v-122h-648zM15 1040l90 380h139l-117 -380h-112z" />
    <glyph glyph-name="Omicrontonos" unicode="&#x38c;" 
d="M692 -20q-416 0 -416 720q0 740 416 740t416 -740q0 -720 -416 -720zM692 95q285 0 285 605q0 619 -285 619t-285 -619q0 -605 285 -605zM15 1040l90 380h139l-117 -380h-112z" />
    <glyph glyph-name="Upsilontonos" unicode="&#x38e;" 
d="M688 0v494l-343 926h140l256 -783h18l260 783h140l-345 -927v-493h-126zM15 1040l90 380h139l-117 -380h-112z" />
    <glyph glyph-name="Omegatonos" unicode="&#x38f;" 
d="M320 0v121h220v17q-248 65 -248 622q0 680 408 680t408 -680q0 -565 -224 -619v-20h196v-121h-326v121q220 88 220 639q0 559 -274 559t-274 -559q0 -542 244 -639v-121h-350zM15 1040l90 380h139l-117 -380h-112z" />
    <glyph glyph-name="iotadieresistonos" unicode="&#x390;" 
d="M804 -20q-176 0 -254.5 99.5t-78.5 320.5v541h-325v119h455v-650q0 -85 9.5 -138t35.5 -92.5t74 -56t124 -16.5q74 0 187 38l17 -123q-118 -42 -244 -42zM449 1248l164 380h144l-176 -380h-132zM275 1238q-47 0 -79.5 32.5t-32.5 78.5t33 78.5t79 32.5t78.5 -32.5
t32.5 -78.5t-32.5 -78.5t-78.5 -32.5zM858 1238q-46 0 -78.5 32.5t-32.5 78.5t32.5 78.5t78.5 32.5t78.5 -32.5t32.5 -78.5t-32.5 -78.5t-78.5 -32.5z" />
    <glyph glyph-name="Alpha" unicode="&#x391;" 
d="M61 0l448 1420h182l448 -1420h-131l-117 380h-582l-117 -380h-131zM346 502h508l-248 809h-12z" />
    <glyph glyph-name="Beta" unicode="&#x392;" 
d="M176 0v1420h406q208 0 322 -92.5t114 -260.5q0 -137 -82.5 -217t-234.5 -91v-10q199 -3 308 -98.5t109 -267.5q0 -183 -115 -283t-326 -100h-501zM303 122h356q156 0 242 71t86 200q0 141 -86 218.5t-242 77.5h-356v-567zM303 811h283q143 0 222 65t79 184q0 114 -79 176
t-223 62h-282v-487z" />
    <glyph glyph-name="Gamma" unicode="&#x393;" 
d="M196 0v1420h878v-122h-751v-1298h-127z" />
    <glyph glyph-name="uni0394" unicode="&#x394;" 
d="M61 0l442 1420h194l442 -1420h-1078zM231 122h738l-363 1193h-12z" />
    <glyph glyph-name="Epsilon" unicode="&#x395;" 
d="M176 0v1420h908v-122h-781v-526h601v-122h-601v-528h781v-122h-908z" />
    <glyph glyph-name="Zeta" unicode="&#x396;" 
d="M166 0v122l721 1176h-721v122h868v-122l-723 -1176h743v-122h-888z" />
    <glyph glyph-name="Eta" unicode="&#x397;" 
d="M917 0v646h-634v-646h-127v1420h127v-652h634v652h127v-1420h-127z" />
    <glyph glyph-name="Theta" unicode="&#x398;" 
d="M600 -20q-508 0 -508 720q0 740 508 740t508 -740q0 -720 -508 -720zM600 95q361 0 376 554h-752q15 -554 376 -554zM224 771h752q-21 548 -376 548t-376 -548z" />
    <glyph glyph-name="Iota" unicode="&#x399;" 
d="M184 0v122h352v1176h-352v122h832v-122h-354v-1176h354v-122h-832z" />
    <glyph glyph-name="Kappa" unicode="&#x39a;" 
d="M166 0v1420h127v-815q314 10 484.5 230t170.5 585h130q0 -239 -71.5 -429.5t-206.5 -314.5l346 -676h-153l-302 594q-172 -105 -398 -114v-480h-127z" />
    <glyph glyph-name="Lambda" unicode="&#x39b;" 
d="M61 0l448 1420h182l448 -1420h-134l-399 1311h-12l-399 -1311h-134z" />
    <glyph glyph-name="Mu" unicode="&#x39c;" 
d="M144 0v1420h203l249 -651h8l249 651h203v-1420h-124v1277h-15l-249 -644h-136l-249 644h-15v-1277h-124z" />
    <glyph glyph-name="Nu" unicode="&#x39d;" 
d="M854 0l-554 1248h-12v-1248h-124v1420h183l554 -1248h11v1248h124v-1420h-182z" />
    <glyph glyph-name="Xi" unicode="&#x39e;" 
d="M116 0v122h968v-122h-968zM116 1298v122h968v-122h-968zM193 650v122h814v-122h-814z" />
    <glyph glyph-name="Omicron" unicode="&#x39f;" 
d="M600 -20q-508 0 -508 720q0 740 508 740t508 -740q0 -720 -508 -720zM600 95q377 0 377 605q0 619 -377 619t-377 -619q0 -605 377 -605z" />
    <glyph glyph-name="Pi" unicode="&#x3a0;" 
d="M917 0v1298h-634v-1298h-127v1420h888v-1420h-127z" />
    <glyph glyph-name="Rho" unicode="&#x3a1;" 
d="M176 0v1420h415q248 0 380.5 -120.5t132.5 -346.5q0 -232 -132.5 -356t-380.5 -124h-288v-473h-127zM303 595h288q184 0 283 93t99 265q0 166 -99 255.5t-283 89.5h-288v-703z" />
    <glyph glyph-name="Sigma" unicode="&#x3a3;" 
d="M166 0v119l485 594l-485 585v122h868v-122h-702l488 -585l-494 -594h728v-119h-888z" />
    <glyph glyph-name="Tau" unicode="&#x3a4;" 
d="M537 0v1298h-441v122h1008v-122h-441v-1298h-126z" />
    <glyph glyph-name="Upsilon" unicode="&#x3a5;" 
d="M537 0v507l-496 913h139l414 -780h12l414 780h139l-496 -913v-507h-126z" />
    <glyph glyph-name="Phi" unicode="&#x3a6;" 
d="M541 -20v149q-459 32 -459 581q0 568 459 601v149h116v-149q461 -32 461 -601q0 -551 -461 -581v-149h-116zM654 1196v-953q336 31 336 467q0 454 -336 486zM544 244v952q-334 -33 -334 -486q0 -435 334 -466z" />
    <glyph glyph-name="Chi" unicode="&#x3a7;" 
d="M976 0l-376 601l-376 -601h-143l455 702l-455 718h143l376 -616l376 616h143l-456 -718l456 -702h-143z" />
    <glyph glyph-name="Psi" unicode="&#x3a8;" 
d="M536 467v953h126v-953q319 30 319 383v570h127v-570q0 -475 -446 -505v-345h-126v345q-444 32 -444 505v570h127v-570q0 -353 317 -383z" />
    <glyph glyph-name="uni03A9" unicode="&#x3a9;" 
d="M120 0v121h230v11q-258 102 -258 628q0 680 508 680t508 -680q0 -532 -234 -627v-12h206v-121h-386v121q283 89 283 639q0 559 -377 559t-377 -559q0 -541 307 -639v-121h-410z" />
    <glyph glyph-name="Iotadieresis" unicode="&#x3aa;" 
d="M184 0v122h352v1176h-352v122h832v-122h-354v-1176h354v-122h-832zM392 1603q-46 0 -78.5 32t-32.5 78t32.5 79t78.5 33t78.5 -33t32.5 -79t-32.5 -78t-78.5 -32zM808 1603q-46 0 -78.5 32t-32.5 78t32.5 79t78.5 33t78.5 -33t32.5 -79t-32.5 -78t-78.5 -32z" />
    <glyph glyph-name="Upsilondieresis" unicode="&#x3ab;" 
d="M537 0v507l-496 913h139l414 -780h12l414 780h139l-496 -913v-507h-126zM392 1603q-46 0 -78.5 32t-32.5 78t32.5 79t78.5 33t78.5 -33t32.5 -79t-32.5 -78t-78.5 -32zM808 1603q-46 0 -78.5 32t-32.5 78t32.5 79t78.5 33t78.5 -33t32.5 -79t-32.5 -78t-78.5 -32z" />
    <glyph glyph-name="alphatonos" unicode="&#x3ac;" 
d="M525 -20q-204 0 -315 140t-111 400q0 267 112.5 413.5t318.5 146.5q130 0 206 -57.5t96 -161.5h13v199h133v-945l171 -17v-98l-283 -10l-10 209h-15q-16 -95 -101 -157t-215 -62zM845 463v134q0 179 -75.5 270.5t-222.5 91.5q-150 0 -232 -114.5t-82 -324.5
q0 -208 78.5 -313.5t233.5 -105.5q148 0 224 92t76 270zM516 1248l217 380h144l-230 -380h-131z" />
    <glyph glyph-name="epsilontonos" unicode="&#x3ad;" 
d="M626 -20q-444 0 -444 287q0 216 290 259v21q-260 69 -260 268q0 265 430 265q272 0 392 -58l-43 -118q-140 53 -327 53q-314 0 -314 -172q0 -178 481 -200l-18 -120h-35q-458 0 -458 -188q0 -174 314 -174q76 0 148.5 9t107.5 17.5t96 24.5l38 -126q-165 -48 -398 -48z
M569 1248l217 380h144l-230 -380h-131z" />
    <glyph glyph-name="etatonos" unicode="&#x3ae;" 
d="M883 -460v1153q0 127 -66.5 196.5t-186.5 69.5q-313 0 -313 -360v-599h-133v1060h121l10 -192h14q45 212 312 212q179 0 277 -102t98 -288v-1150h-133zM519 1248l217 380h144l-230 -380h-131z" />
    <glyph glyph-name="iotatonos" unicode="&#x3af;" 
d="M804 -20q-176 0 -254.5 99.5t-78.5 320.5v541h-325v119h455v-650q0 -85 9.5 -138t35.5 -92.5t74 -56t124 -16.5q74 0 187 38l17 -123q-118 -42 -244 -42zM465 1248l217 380h144l-230 -380h-131z" />
    <glyph glyph-name="upsilondieresistonos" unicode="&#x3b0;" 
d="M640 -20q-389 0 -389 430v387q0 73 -27 106.5t-85 33.5h-118v123h142q114 0 166.5 -59t52.5 -188v-403q0 -305 258 -305q257 0 257 305v650h131v-650q0 -430 -388 -430zM513 1248l164 380h144l-176 -380h-132zM339 1238q-47 0 -79.5 32.5t-32.5 78.5t33 78.5t79 32.5
t78.5 -32.5t32.5 -78.5t-32.5 -78.5t-78.5 -32.5zM922 1238q-46 0 -78.5 32.5t-32.5 78.5t32.5 78.5t78.5 32.5t78.5 -32.5t32.5 -78.5t-32.5 -78.5t-78.5 -32.5z" />
    <glyph glyph-name="alpha" unicode="&#x3b1;" 
d="M525 -20q-204 0 -315 140t-111 400q0 267 112.5 413.5t318.5 146.5q130 0 206 -57.5t96 -161.5h13v199h133v-945l171 -17v-98l-283 -10l-10 209h-15q-16 -95 -101 -157t-215 -62zM845 463v134q0 179 -75.5 270.5t-222.5 91.5q-150 0 -232 -114.5t-82 -324.5
q0 -208 78.5 -313.5t233.5 -105.5q148 0 224 92t76 270z" />
    <glyph glyph-name="beta" unicode="&#x3b2;" 
d="M634 -20q-133 0 -211.5 51t-92.5 145h-21v-636h-133v1443q0 457 439 457q194 0 298.5 -91.5t104.5 -261.5q0 -127 -68.5 -206.5t-195.5 -99.5v-15q146 -5 225 -103.5t79 -275.5q0 -194 -111 -300.5t-313 -106.5zM309 470q0 -365 307 -365q145 0 225 77t80 218
q0 147 -80.5 227.5t-228.5 80.5h-104v124h98q131 0 203 64t72 181q0 114 -69.5 176t-196.5 62q-306 0 -306 -335v-510z" />
    <glyph glyph-name="gamma" unicode="&#x3b3;" 
d="M292 -460q10 187 10 470q0 311 -20 487.5t-68.5 287t-144.5 198.5l79 117q112 -100 171 -216t86 -295t30 -480q544 58 544 951h135q0 -1022 -679 -1077q0 -264 -10 -443h-133z" />
    <glyph glyph-name="delta" unicode="&#x3b4;" 
d="M603 -20q-212 0 -336.5 113.5t-124.5 305.5q0 180 89 282.5t255 117.5v14q-138 46 -204 120t-66 181q0 156 105.5 241t299.5 85q219 0 397 -107l-73 -110q-137 92 -324 92q-132 0 -201 -49.5t-69 -144.5q0 -80 64.5 -135.5t200.5 -92.5q117 -32 193 -66t138.5 -89
t91.5 -135.5t29 -193.5q0 -204 -122 -316.5t-343 -112.5zM605 103q156 0 242 82t86 231q0 155 -89.5 242.5t-247.5 87.5q-144 0 -231.5 -92.5t-87.5 -244.5q0 -140 89 -223t239 -83z" />
    <glyph glyph-name="epsilon" unicode="&#x3b5;" 
d="M626 -20q-444 0 -444 287q0 216 290 259v21q-260 69 -260 268q0 265 430 265q272 0 392 -58l-43 -118q-140 53 -327 53q-314 0 -314 -172q0 -178 481 -200l-18 -120h-35q-458 0 -458 -188q0 -174 314 -174q76 0 148.5 9t107.5 17.5t96 24.5l38 -126q-165 -48 -398 -48z
" />
    <glyph glyph-name="zeta" unicode="&#x3b6;" 
d="M767 -480l-61 114q117 33 171.5 81t54.5 119q0 69 -50.5 104.5t-156.5 41.5q-263 11 -398 143t-135 379q0 471 690 856v20h-634v122h812v-122q-373 -244 -553.5 -456.5t-180.5 -409.5q0 -192 109.5 -294t323.5 -113q157 -7 232 -73.5t75 -197.5q0 -121 -72 -197
t-227 -117z" />
    <glyph glyph-name="eta" unicode="&#x3b7;" 
d="M883 -460v1153q0 127 -66.5 196.5t-186.5 69.5q-313 0 -313 -360v-599h-133v1060h121l10 -192h14q45 212 312 212q179 0 277 -102t98 -288v-1150h-133z" />
    <glyph glyph-name="theta" unicode="&#x3b8;" 
d="M600 -20q-236 0 -342 173t-106 557t106 557t342 173t342 -173t106 -557t-106 -557t-342 -173zM600 101q161 0 237 131t82 420h-638q6 -289 82 -420t237 -131zM281 774h638q-7 285 -83.5 415t-235.5 130t-235.5 -130t-83.5 -415z" />
    <glyph glyph-name="iota" unicode="&#x3b9;" 
d="M804 -20q-176 0 -254.5 99.5t-78.5 320.5v541h-325v119h455v-650q0 -85 9.5 -138t35.5 -92.5t74 -56t124 -16.5q74 0 187 38l17 -123q-118 -42 -244 -42z" />
    <glyph glyph-name="kappa" unicode="&#x3ba;" 
d="M174 0v1060h131v-882h15q60 160 245 380l436 522l101 -73l-340 -409l372 -598h-150l-308 494l-411 -494h-91z" />
    <glyph glyph-name="lambda" unicode="&#x3bb;" 
d="M1068 -20q-118 0 -183.5 53.5t-103.5 184.5l-216 743l-19 -6q19 -112 -23 -217l-300 -738h-140l448 1078l-45 155q-23 79 -63 111.5t-110 32.5q-20 0 -53 -6l-17 117q44 12 90 12q113 0 175.5 -49.5t97.5 -170.5l291 -1013q26 -90 69.5 -127t121.5 -37q23 0 54 8l16 -119
q-44 -12 -90 -12z" />
    <glyph glyph-name="uni03BC" unicode="&#x3bc;" 
d="M574 -20q-217 0 -275 224h-12l17 -664h-137v1520h133v-630q0 -153 72 -236t202 -83q144 0 214 89.5t70 289.5v570h133v-947l146 -14v-99l-261 -10l-15 214h-13q-25 -107 -97.5 -165.5t-176.5 -58.5z" />
    <glyph glyph-name="nu" unicode="&#x3bd;" 
d="M506 0l-151 473q-67 213 -146 335t-188 164l76 108q125 -46 214.5 -177t155.5 -353l129 -437h11l354 947h143l-413 -1060h-185z" />
    <glyph glyph-name="xi" unicode="&#x3be;" 
d="M614 -20q-442 0 -442 353q0 153 105 247t312 116v16q-193 21 -290 104t-97 235q0 241 240 313v14h-284v122h872v-122h-206q-488 -16 -488 -313q0 -303 642 -303l-14 -124h-89q-569 0 -569 -298q0 -237 374 -237h89q137 0 212 -70.5t75 -198.5q0 -118 -76.5 -198.5
t-222.5 -115.5l-46 111q101 29 156 81.5t55 121.5q0 70 -54 108t-153 38h-101z" />
    <glyph glyph-name="omicron" unicode="&#x3bf;" 
d="M600 -20q-213 0 -330.5 144t-117.5 406t117.5 406t330.5 144t330.5 -144t117.5 -406t-117.5 -406t-330.5 -144zM600 105q149 0 230 111t81 314t-81 314t-230 111t-230 -111t-81 -314t81 -314t230 -111z" />
    <glyph glyph-name="pi" unicode="&#x3c0;" 
d="M968 -20q-125 0 -181.5 72t-56.5 231v654h-329v-937h-134v937h-191v123h1008v-123h-222v-644q0 -100 33 -144t113 -44q26 0 73 8l17 -120q-62 -13 -130 -13z" />
    <glyph glyph-name="rho" unicode="&#x3c1;" 
d="M645 -20q-128 0 -210 62t-106 183h-12v-685h-133v1058q0 233 117 357.5t335 124.5t335 -145t117 -415q0 -259 -115.5 -399.5t-327.5 -140.5zM317 493q0 -185 85.5 -288.5t235.5 -103.5q152 0 234 108.5t82 310.5q0 211 -82.5 325t-235.5 114t-236 -96t-83 -274v-96z" />
    <glyph glyph-name="uni03C2" unicode="&#x3c2;" 
d="M697 -480l-57 109q109 36 168.5 95t59.5 130q0 124 -140 126h-90q-232 0 -359 144t-127 408q0 252 140.5 400t381.5 148q290 0 407 -220l-99 -75q-111 170 -316 170q-173 0 -275 -111.5t-102 -301.5q0 -210 96 -324.5t271 -114.5h90q126 -1 191 -64t65 -185
q0 -123 -79.5 -210t-225.5 -124z" />
    <glyph glyph-name="sigma" unicode="&#x3c3;" 
d="M565 -20q-212 0 -327.5 138t-115.5 392q0 262 116 406t327 144h589v-123h-365v-18q90 -26 149.5 -148.5t59.5 -287.5q0 -241 -113 -372t-320 -131zM565 105q141 0 218.5 102.5t77.5 289.5q0 211 -77 325.5t-219 114.5q-147 0 -226.5 -114.5t-79.5 -325.5
q0 -187 80 -289.5t226 -102.5z" />
    <glyph glyph-name="tau" unicode="&#x3c4;" 
d="M757 -20q-163 0 -236.5 85.5t-73.5 275.5v596h-321v123h908v-123h-452v-592q0 -128 50 -184t172 -56q81 0 207 38l17 -124q-130 -39 -271 -39z" />
    <glyph glyph-name="upsilon" unicode="&#x3c5;" 
d="M640 -20q-389 0 -389 430v387q0 73 -27 106.5t-85 33.5h-118v123h142q114 0 166.5 -59t52.5 -188v-403q0 -305 258 -305q257 0 257 305v650h131v-650q0 -430 -388 -430z" />
    <glyph glyph-name="phi" unicode="&#x3c6;" 
d="M535 -440l6 422q-439 31 -439 548t439 548l-6 422h130l-6 -422q439 -31 439 -548t-439 -548l6 -422h-130zM657 962v-864q310 31 310 432t-310 432zM543 98v864q-310 -31 -310 -432t310 -432z" />
    <glyph glyph-name="chi" unicode="&#x3c7;" 
d="M1036 -440q-105 0 -167 50t-118 181l-170 388l-328 -599h-151l423 727l-217 496q-36 86 -75.5 119t-102.5 33q-35 0 -55 -6l-15 119q55 12 90 12q102 0 161.5 -48.5t114.5 -174.5l179 -409l342 612h151l-437 -739l213 -486q36 -85 76 -117.5t106 -32.5q29 0 55 6l15 -119
q-55 -12 -90 -12z" />
    <glyph glyph-name="psi" unicode="&#x3c8;" 
d="M535 -440l6 422q-419 30 -419 495v583h130v-583q0 -340 290 -370l-5 1393h126l-5 -1393q290 30 290 370v583h130v-583q0 -465 -419 -495l6 -422h-130z" />
    <glyph glyph-name="omega" unicode="&#x3c9;" 
d="M814 -20q-98 0 -151 65t-66 206h-7q-12 -141 -67.5 -206t-158.5 -65q-117 0 -179.5 78t-62.5 222v780h133v-780q0 -86 33 -132.5t96 -46.5q76 0 113 43.5t37 142.5v573h120v-573q0 -99 35.5 -142.5t107.5 -43.5q66 0 101 46.5t35 132.5v780h133v-780q0 -145 -65 -222.5
t-187 -77.5z" />
    <glyph glyph-name="iotadieresis" unicode="&#x3ca;" 
d="M804 -20q-176 0 -254.5 99.5t-78.5 320.5v541h-325v119h455v-650q0 -85 9.5 -138t35.5 -92.5t74 -56t124 -16.5q74 0 187 38l17 -123q-118 -42 -244 -42zM328 1261q-46 0 -78.5 32.5t-32.5 78.5t32.5 78.5t78.5 32.5t78.5 -32.5t32.5 -78.5t-32.5 -78.5t-78.5 -32.5z
M748 1261q-46 0 -78.5 32.5t-32.5 78.5t32.5 78.5t78.5 32.5t78.5 -32.5t32.5 -78.5t-32.5 -78.5t-78.5 -32.5z" />
    <glyph glyph-name="upsilondieresis" unicode="&#x3cb;" 
d="M640 -20q-389 0 -389 430v387q0 73 -27 106.5t-85 33.5h-118v123h142q114 0 166.5 -59t52.5 -188v-403q0 -305 258 -305q257 0 257 305v650h131v-650q0 -430 -388 -430zM392 1261q-46 0 -78.5 32.5t-32.5 78.5t32.5 78.5t78.5 32.5t78.5 -32.5t32.5 -78.5t-32.5 -78.5
t-78.5 -32.5zM812 1261q-46 0 -78.5 32.5t-32.5 78.5t32.5 78.5t78.5 32.5t78.5 -32.5t32.5 -78.5t-32.5 -78.5t-78.5 -32.5z" />
    <glyph glyph-name="omicrontonos" unicode="&#x3cc;" 
d="M600 -20q-213 0 -330.5 144t-117.5 406t117.5 406t330.5 144t330.5 -144t117.5 -406t-117.5 -406t-330.5 -144zM600 105q149 0 230 111t81 314t-81 314t-230 111t-230 -111t-81 -314t81 -314t230 -111zM529 1248l217 380h144l-230 -380h-131z" />
    <glyph glyph-name="upsilontonos" unicode="&#x3cd;" 
d="M640 -20q-389 0 -389 430v387q0 73 -27 106.5t-85 33.5h-118v123h142q114 0 166.5 -59t52.5 -188v-403q0 -305 258 -305q257 0 257 305v650h131v-650q0 -430 -388 -430zM529 1248l217 380h144l-230 -380h-131z" />
    <glyph glyph-name="omegatonos" unicode="&#x3ce;" 
d="M814 -20q-98 0 -151 65t-66 206h-7q-12 -141 -67.5 -206t-158.5 -65q-117 0 -179.5 78t-62.5 222v780h133v-780q0 -86 33 -132.5t96 -46.5q76 0 113 43.5t37 142.5v573h120v-573q0 -99 35.5 -142.5t107.5 -43.5q66 0 101 46.5t35 132.5v780h133v-780q0 -145 -65 -222.5
t-187 -77.5zM529 1248l217 380h144l-230 -380h-131z" />
    <glyph glyph-name="uni03CF" unicode="&#x3cf;" 
d="M166 0v1420h127v-815q314 10 484.5 230t170.5 585h130q0 -238 -71 -428t-206 -315l296 -539q49 -90 49 -182v-351h-127v344q0 58 -42 133l-283 514q-172 -107 -401 -116v-480h-127z" />
    <glyph glyph-name="uni03D7" unicode="&#x3d7;" 
d="M265 0h-91v1060h131v-882h15q60 160 245 380l436 522l101 -73l-339 -408l276 -423q50 -74 50 -166v-405h-133v387q0 77 -40 139l-239 365z" />
    <glyph glyph-name="uni0400" unicode="&#x400;" 
d="M176 0v1420h908v-122h-781v-526h601v-122h-601v-528h781v-122h-908zM563 1580l-247 250h176l223 -250h-152z" />
    <glyph glyph-name="uni0401" unicode="&#x401;" 
d="M176 0v1420h908v-122h-781v-526h601v-122h-601v-528h781v-122h-908zM422 1603q-46 0 -78.5 32t-32.5 78t32.5 79t78.5 33t78.5 -33t32.5 -79t-32.5 -78t-78.5 -32zM838 1603q-46 0 -78.5 32t-32.5 78t32.5 79t78.5 33t78.5 -33t32.5 -79t-32.5 -78t-78.5 -32z" />
    <glyph glyph-name="uni0402" unicode="&#x402;" 
d="M612 0v123q158 0 242.5 82.5t84.5 236.5q0 138 -80 212t-229 74h-227v-728h-126v1298h-271v122h804v-122h-407v-448h227q212 0 324 -105t112 -303q0 -215 -117 -328.5t-337 -113.5z" />
    <glyph glyph-name="uni0403" unicode="&#x403;" 
d="M196 0v1420h878v-122h-751v-1298h-127zM539 1580l223 250h176l-247 -250h-152z" />
    <glyph glyph-name="uni0404" unicode="&#x404;" 
d="M751 -20q-646 0 -646 732q0 347 162.5 537.5t459.5 190.5q142 0 246.5 -47t152.5 -132l-92 -94q-52 72 -132 112t-173 40q-213 0 -344.5 -139.5t-147.5 -391.5h625v-122h-626q24 -565 536 -565q149 0 297 65l32 -118q-166 -68 -350 -68z" />
    <glyph glyph-name="uni0405" unicode="&#x405;" 
d="M551 -20q-226 0 -406 71l18 132q213 -82 404 -82q341 0 341 238q0 153 -151 229l-337 173q-119 59 -178 138.5t-59 190.5q0 182 106.5 276t313.5 94q264 0 444 -171l-90 -91q-179 141 -353 141q-288 0 -288 -239q0 -74 38.5 -125t117.5 -91l307 -155q132 -66 197 -155.5
t65 -210.5q0 -363 -490 -363z" />
    <glyph glyph-name="uni0406" unicode="&#x406;" 
d="M184 0v122h352v1176h-352v122h832v-122h-354v-1176h354v-122h-832z" />
    <glyph glyph-name="uni0407" unicode="&#x407;" 
d="M184 0v122h352v1176h-352v122h832v-122h-354v-1176h354v-122h-832zM392 1603q-46 0 -78.5 32t-32.5 78t32.5 79t78.5 33t78.5 -33t32.5 -79t-32.5 -78t-78.5 -32zM808 1603q-46 0 -78.5 32t-32.5 78t32.5 79t78.5 33t78.5 -33t32.5 -79t-32.5 -78t-78.5 -32z" />
    <glyph glyph-name="uni0408" unicode="&#x408;" 
d="M574 -20q-233 0 -352.5 125.5t-119.5 370.5h128q0 -185 88.5 -280.5t260.5 -95.5q169 0 254.5 95t85.5 281v822h-429v122h556v-944q0 -244 -120 -370t-352 -126z" />
    <glyph glyph-name="uni0409" unicode="&#x409;" 
d="M69 0v123q96 0 131.5 53t35.5 196v1048h479v-537h89q138 0 221 -121t83 -321t-83 -320.5t-221 -120.5h-209v1298h-246v-919q0 -218 -59.5 -298.5t-220.5 -80.5zM715 122h71q89 0 143 87t54 232t-54 232.5t-143 87.5h-71v-639z" />
    <glyph glyph-name="uni040A" unicode="&#x40a;" 
d="M144 0v1420h127v-651h320v651h126v-537h84q144 0 225.5 -117.5t81.5 -324.5q0 -206 -81.5 -323.5t-225.5 -117.5h-210v645h-320v-645h-127zM717 122h66q94 0 147 84.5t53 234.5q0 149 -53 233t-147 84h-66v-636z" />
    <glyph glyph-name="uni040B" unicode="&#x40b;" 
d="M919 0v390q0 173 -63.5 250.5t-205.5 77.5h-247v-718h-126v1298h-241v122h788v-122h-421v-458h247q209 0 302.5 -106.5t93.5 -343.5v-390h-127z" />
    <glyph glyph-name="uni040C" unicode="&#x40c;" 
d="M156 0v1420h127v-649h261q75 0 117 39t71 131l101 299q30 103 83 144.5t145 41.5h47v-124h-32q-50 0 -77.5 -23.5t-45.5 -78.5l-93 -281q-34 -106 -91 -154.5t-158 -48.5h-11v-11h11q104 0 162.5 -49t92.5 -154l93 -281q18 -55 46 -79t77 -24h32v-123h-49
q-93 0 -145.5 41.5t-82.5 144.5l-102 299q-28 91 -71 130t-120 39h-261v-649h-127zM519 1580l223 250h176l-247 -250h-152z" />
    <glyph glyph-name="uni040D" unicode="&#x40d;" 
d="M164 0v1420h124v-1183h20l584 1183h144v-1420h-124v1183h-20l-584 -1183h-144zM533 1580l-247 250h176l223 -250h-152z" />
    <glyph glyph-name="uni040E" unicode="&#x40e;" 
d="M209 0v122q131 0 217.5 24.5t145.5 80.5l-470 1193h137l413 -1052h17q17 39 29 75l315 977h137l-349 -1033q-76 -217 -207 -302t-385 -85zM640 1570q-156 0 -242 76t-86 214h125q0 -95 52.5 -143t150.5 -48t150.5 48t52.5 143h125q0 -138 -86 -214t-242 -76z" />
    <glyph glyph-name="uni040F" unicode="&#x40f;" 
d="M537 -290v290h-381v1420h127v-1298h634v1298h127v-1420h-381v-290h-126z" />
    <glyph glyph-name="uni0410" unicode="&#x410;" 
d="M61 0l448 1420h182l448 -1420h-131l-117 380h-582l-117 -380h-131zM346 502h508l-248 809h-12z" />
    <glyph glyph-name="uni0411" unicode="&#x411;" 
d="M176 0v1420h824v-122h-697v-466h360q211 0 326 -107t115 -302q0 -202 -115 -312.5t-326 -110.5h-487zM303 122h339q158 0 244.5 78.5t86.5 222.5q0 137 -86.5 212t-244.5 75h-339v-588z" />
    <glyph glyph-name="uni0412" unicode="&#x412;" 
d="M176 0v1420h406q208 0 322 -92.5t114 -260.5q0 -137 -82.5 -217t-234.5 -91v-10q199 -3 308 -98.5t109 -267.5q0 -183 -115 -283t-326 -100h-501zM303 122h356q156 0 242 71t86 200q0 141 -86 218.5t-242 77.5h-356v-567zM303 811h283q143 0 222 65t79 184q0 114 -79 176
t-223 62h-282v-487z" />
    <glyph glyph-name="uni0413" unicode="&#x413;" 
d="M196 0v1420h878v-122h-751v-1298h-127z" />
    <glyph glyph-name="uni0414" unicode="&#x414;" 
d="M46 -290v412h76q60 94 95.5 319.5t35.5 427.5v551h771v-1298h130v-412h-127v290h-854v-290h-127zM897 122v1176h-522v-423q0 -199 -31 -419.5t-88 -333.5h641z" />
    <glyph glyph-name="uni0415" unicode="&#x415;" 
d="M176 0v1420h908v-122h-781v-526h601v-122h-601v-528h781v-122h-908z" />
    <glyph glyph-name="uni0416" unicode="&#x416;" 
d="M14 -5v122h23q34 0 58.5 23.5t30.5 73.5l33 304q20 172 165 182l67 5v10l-67 5q-142 10 -165 188l-33 298q-7 49 -31 73t-58 24h-23v122h54q86 0 128.5 -45t53.5 -145l33 -312q12 -94 41.5 -123t116.5 -29h101v649h116v-649h101q87 0 116.5 29t41.5 123l33 312
q11 100 53.5 145t128.5 45h54v-122h-23q-34 0 -58 -24t-31 -73l-33 -298q-23 -178 -165 -188l-70 -5v-10l70 -5q145 -10 165 -182l33 -304q6 -50 30.5 -73.5t58.5 -23.5h23v-122h-54q-86 0 -128.5 44.5t-53.5 145.5l-33 319q-11 90 -40.5 117.5t-117.5 27.5h-101v-649h-116
v649h-101q-88 0 -117.5 -27.5t-40.5 -117.5l-33 -319q-11 -101 -53.5 -145.5t-128.5 -44.5h-54z" />
    <glyph glyph-name="uni0417" unicode="&#x417;" 
d="M553 -20q-290 0 -473 171l91 91q103 -78 186.5 -109.5t200.5 -31.5q172 0 269.5 81.5t97.5 225.5q0 131 -106 204t-285 73h-153l-14 122q267 9 384 71.5t117 192.5q0 247 -358 247q-118 0 -288 -44l-18 121q42 16 134 30.5t175 14.5q487 0 487 -347q0 -128 -78.5 -208.5
t-250.5 -117.5v-12q77 -4 145.5 -29t122.5 -69t85.5 -112t31.5 -151q0 -189 -136 -301.5t-367 -112.5z" />
    <glyph glyph-name="uni0418" unicode="&#x418;" 
d="M164 0v1420h124v-1183h20l584 1183h144v-1420h-124v1183h-20l-584 -1183h-144z" />
    <glyph glyph-name="uni0419" unicode="&#x419;" 
d="M164 0v1420h124v-1183h20l584 1183h144v-1420h-124v1183h-20l-584 -1183h-144zM600 1570q-156 0 -242 76t-86 214h125q0 -95 52.5 -143t150.5 -48t150.5 48t52.5 143h125q0 -138 -86 -214t-242 -76z" />
    <glyph glyph-name="uni041A" unicode="&#x41a;" 
d="M156 0v1420h127v-649h261q75 0 117 39t71 131l101 299q30 103 83 144.5t145 41.5h47v-124h-32q-50 0 -77.5 -23.5t-45.5 -78.5l-93 -281q-34 -106 -91 -154.5t-158 -48.5h-11v-11h11q104 0 162.5 -49t92.5 -154l93 -281q18 -55 46 -79t77 -24h32v-123h-49
q-93 0 -145.5 41.5t-82.5 144.5l-102 299q-28 91 -71 130t-120 39h-261v-649h-127z" />
    <glyph glyph-name="uni041B" unicode="&#x41b;" 
d="M53 1v123q39 0 69 6.5t52.5 22.5t38.5 33.5t26.5 48t16.5 58t9 71.5t4 79t1 91v886h774v-1420h-127v1298h-525v-757q0 -70 -2 -119.5t-7 -105t-16 -93.5t-27.5 -76.5t-42 -63t-60 -44.5t-80.5 -29t-104 -9z" />
    <glyph glyph-name="uni041C" unicode="&#x41c;" 
d="M144 0v1420h203l249 -651h8l249 651h203v-1420h-124v1277h-15l-249 -644h-136l-249 644h-15v-1277h-124z" />
    <glyph glyph-name="uni041D" unicode="&#x41d;" 
d="M917 0v646h-634v-646h-127v1420h127v-652h634v652h127v-1420h-127z" />
    <glyph glyph-name="uni041E" unicode="&#x41e;" 
d="M600 -20q-508 0 -508 720q0 740 508 740t508 -740q0 -720 -508 -720zM600 95q377 0 377 605q0 619 -377 619t-377 -619q0 -605 377 -605z" />
    <glyph glyph-name="uni041F" unicode="&#x41f;" 
d="M917 0v1298h-634v-1298h-127v1420h888v-1420h-127z" />
    <glyph glyph-name="uni0420" unicode="&#x420;" 
d="M176 0v1420h415q248 0 380.5 -120.5t132.5 -346.5q0 -232 -132.5 -356t-380.5 -124h-288v-473h-127zM303 595h288q184 0 283 93t99 265q0 166 -99 255.5t-283 89.5h-288v-703z" />
    <glyph glyph-name="uni0421" unicode="&#x421;" 
d="M741 -20q-646 0 -646 732q0 347 162.5 537.5t459.5 190.5q142 0 246.5 -47t152.5 -132l-92 -94q-52 72 -132 112t-173 40q-226 0 -358.5 -157.5t-132.5 -439.5q0 -621 534 -621q149 0 297 65l32 -118q-166 -68 -350 -68z" />
    <glyph glyph-name="uni0422" unicode="&#x422;" 
d="M537 0v1298h-441v122h1008v-122h-441v-1298h-126z" />
    <glyph glyph-name="uni0423" unicode="&#x423;" 
d="M209 0v122q131 0 217.5 24.5t145.5 80.5l-470 1193h137l413 -1052h17q17 39 29 75l315 977h137l-349 -1033q-76 -217 -207 -302t-385 -85z" />
    <glyph glyph-name="uni0424" unicode="&#x424;" 
d="M541 -20v149q-459 32 -459 581q0 568 459 601v149h116v-149q461 -32 461 -601q0 -551 -461 -581v-149h-116zM654 1196v-953q336 31 336 467q0 454 -336 486zM544 244v952q-334 -33 -334 -486q0 -435 334 -466z" />
    <glyph glyph-name="uni0425" unicode="&#x425;" 
d="M976 0l-376 601l-376 -601h-143l455 702l-455 718h143l376 -616l376 616h143l-456 -718l456 -702h-143z" />
    <glyph glyph-name="uni0426" unicode="&#x426;" 
d="M156 0v1420h127v-1298h640v1298h127v-1298h94v-412h-127v290h-861z" />
    <glyph glyph-name="uni0427" unicode="&#x427;" 
d="M543 572q-223 0 -323.5 113.5t-100.5 366.5v368h127v-368q0 -188 70.5 -273t226.5 -85h338v726h126v-1420h-126v572h-338z" />
    <glyph glyph-name="uni0428" unicode="&#x428;" 
d="M144 0v1420h127v-1301h271v1301h116v-1301h271v1301h127v-1420h-912z" />
    <glyph glyph-name="uni0429" unicode="&#x429;" 
d="M144 0v1420h127v-1301h271v1301h116v-1301h271v1301h127v-1301h88v-409h-127v290h-873z" />
    <glyph glyph-name="uni042A" unicode="&#x42a;" 
d="M256 0v1298h-250v122h377v-537h271q213 0 333.5 -117.5t120.5 -324.5q0 -206 -120.5 -323.5t-333.5 -117.5h-398zM383 122h246q164 0 256 84.5t92 234.5t-92.5 235t-255.5 85h-246v-639z" />
    <glyph glyph-name="uni042B" unicode="&#x42b;" 
d="M144 0v1420h127v-537h117q165 0 258.5 -117.5t93.5 -324.5q0 -206 -93.5 -323.5t-258.5 -117.5h-244zM271 122h98q116 0 181 84.5t65 234.5t-65 235t-181 85h-98v-639zM933 0v1420h123v-1420h-123z" />
    <glyph glyph-name="uni042C" unicode="&#x42c;" 
d="M156 0v1420h127v-537h374q207 0 324 -117.5t117 -324.5q0 -206 -117 -323.5t-324 -117.5h-501zM283 122h350q157 0 245.5 84.5t88.5 234.5t-88.5 235t-245.5 85h-350v-639z" />
    <glyph glyph-name="uni042D" unicode="&#x42d;" 
d="M476 -20q-272 0 -443 158l92 91q98 -73 175 -100.5t187 -27.5q213 0 337 149.5t133 414.5h-624v124h622q-19 256 -154.5 393t-379.5 137q-147 0 -288 -48l-32 116q168 53 354 53q311 0 472 -186.5t161 -540.5q0 -348 -155.5 -540.5t-456.5 -192.5z" />
    <glyph glyph-name="uni042E" unicode="&#x42e;" 
d="M775 -20q-169 0 -248 158.5t-84 507.5h-224v-646h-123v1420h123v-652h225q6 352 85 512t246 160q175 0 253.5 -175.5t78.5 -564.5q0 -379 -78.5 -549.5t-253.5 -170.5zM772 101q109 0 158 142t49 457q0 326 -49 472.5t-158 146.5t-158.5 -146.5t-49.5 -472.5
q0 -315 49.5 -457t158.5 -142z" />
    <glyph glyph-name="uni042F" unicode="&#x42f;" 
d="M88 -5v122h17q60 0 97.5 38t59.5 127l36 143q14 56 36.5 94.5t54 59t64.5 29t76 9.5v11q-36 0 -65 2t-72.5 10.5t-77 23t-70 42t-60.5 65t-40 95.5t-16 130q0 202 120 313t336 111h462v-1420h-127v564h-291q-46 0 -79 -7t-54 -18t-36 -33t-23 -44.5t-18 -60.5l-51 -197
q-28 -109 -85.5 -159t-164.5 -50h-29zM835 686h84v612h-335q-154 0 -239.5 -81t-85.5 -230q0 -142 86 -221t239 -79z" />
    <glyph glyph-name="uni0430" unicode="&#x430;" 
d="M859 -10l-10 234h-13q-18 -111 -125 -177.5t-264 -66.5q-160 0 -247.5 74.5t-87.5 210.5q0 166 117.5 251.5t347.5 85.5q148 0 253 -18v45q0 161 -87 235t-276 78l-225 4l20 124l198 -3q259 -4 379.5 -114.5t120.5 -343.5v-494l182 -16v-99zM830 474q-78 13 -257 13
q-330 0 -330 -214q0 -84 56 -129.5t159 -45.5q163 0 267.5 80t104.5 196v100z" />
    <glyph glyph-name="uni0431" unicode="&#x431;" 
d="M611 -20q-463 0 -463 526v198q0 304 140.5 460.5t451.5 210.5l286 50l10 -127l-241 -41q-149 -26 -245 -63t-157 -97.5t-86 -142.5t-25 -201v-45h13q32 110 129.5 171t238.5 61q198 0 306.5 -123t108.5 -347q0 -233 -122 -361.5t-345 -128.5zM626 103q149 0 233 94
t84 263t-83 263t-231 94q-161 0 -251.5 -94t-90.5 -263t89.5 -263t249.5 -94z" />
    <glyph glyph-name="uni0432" unicode="&#x432;" 
d="M194 0v1060h518q155 0 240.5 -70.5t85.5 -199.5q0 -110 -76.5 -171t-217.5 -63v-12h8q155 0 240.5 -70t85.5 -197q0 -132 -79.5 -204.5t-224.5 -72.5h-580zM327 123h422q91 0 141 45.5t50 128.5q0 94 -62.5 145t-175.5 51h-375v-370zM327 607h349q107 0 165.5 44.5
t58.5 125.5q0 76 -54 118t-151 42h-368v-330z" />
    <glyph glyph-name="uni0433" unicode="&#x433;" 
d="M289 0v1060h722v-123h-589v-937h-133z" />
    <glyph glyph-name="uni0434" unicode="&#x434;" 
d="M56 -270v393h85q111 181 111 551v386h739v-937h123v-393h-129v270h-800v-270h-129zM857 123v814h-480v-256q0 -361 -95 -558h575z" />
    <glyph glyph-name="uni0435" unicode="&#x435;" 
d="M703 -20q-263 0 -407 146t-144 414q0 257 121 398.5t342 141.5q206 0 319.5 -128.5t113.5 -363.5q0 -62 -6 -104h-759q17 -183 131.5 -282t312.5 -99q124 0 250 28l19 -123q-137 -28 -293 -28zM283 598h637q0 171 -79.5 265t-223.5 94q-147 0 -234 -94t-100 -265z" />
    <glyph glyph-name="uni0436" unicode="&#x436;" 
d="M37 -10v123h36q28 0 47.5 15t25.5 44l63 248q18 96 135 101h8v18h-8q-117 5 -135 101l-63 248q-6 29 -25.5 44t-47.5 15h-36v123h53q71 0 115 -35t55 -104l60 -251q9 -48 32 -69.5t69 -21.5h119v471h120v-471h119q46 0 69 21.5t32 69.5l60 251q11 69 55 104t115 35h53
v-123h-36q-28 0 -47.5 -15t-25.5 -44l-63 -248q-18 -96 -135 -101h-8v-18h8q117 -5 135 -101l63 -248q6 -29 25.5 -44t47.5 -15h36v-123h-53q-71 0 -115 35t-55 104l-60 251q-9 48 -32 69.5t-69 21.5h-119v-471h-120v471h-119q-46 0 -69 -21.5t-32 -69.5l-60 -251
q-11 -69 -55 -104t-115 -35h-53z" />
    <glyph glyph-name="uni0437" unicode="&#x437;" 
d="M556 -20q-295 0 -432 126l69 99q71 -53 167.5 -77.5t187.5 -24.5q165 0 250 50.5t85 148.5q0 192 -442 192h-29l-11 114h43q126 0 206.5 10.5t121.5 33t55.5 50t14.5 70.5q0 91 -90 138t-264 47q-103 0 -257 -22l-15 119q153 26 294 26q228 0 348.5 -72t120.5 -214
q0 -42 -14 -78.5t-45 -69.5t-87 -54.5t-132 -27.5v-13q319 -32 319 -261q0 -149 -120.5 -229.5t-343.5 -80.5z" />
    <glyph glyph-name="uni0438" unicode="&#x438;" 
d="M184 0v1060h133v-857h20l541 857h138v-1060h-133v857h-20l-541 -857h-138z" />
    <glyph glyph-name="uni0439" unicode="&#x439;" 
d="M184 0v1060h133v-857h20l541 857h138v-1060h-133v857h-20l-541 -857h-138zM600 1238q-170 0 -250.5 90t-80.5 275h125q0 -137 47.5 -198t158.5 -61q112 0 159 61.5t47 197.5h125q0 -186 -81 -275.5t-250 -89.5z" />
    <glyph glyph-name="uni043A" unicode="&#x43a;" 
d="M174 0v1060h133v-468h264q49 0 78 21t47 67l106 258q29 71 74.5 99t128.5 28h48v-123h-40q-65 0 -89 -54l-96 -231q-50 -119 -176 -120v-14h1q131 0 182 -120l96 -231q22 -54 89 -54h36v-123h-48q-83 0 -130 28.5t-76 98.5l-106 258q-18 46 -47 67t-78 21h-264v-468h-133
z" />
    <glyph glyph-name="uni043B" unicode="&#x43b;" 
d="M79 0v123q113 0 161 69.5t48 234.5v633h734v-1060h-133v937h-477v-503q0 -237 -75.5 -335.5t-257.5 -98.5z" />
    <glyph glyph-name="uni043C" unicode="&#x43c;" 
d="M145 0v1060h206l244 -703h10l244 703h206v-1060h-130v916h-12l-243 -696h-139l-244 696h-12v-916h-130z" />
    <glyph glyph-name="uni043D" unicode="&#x43d;" 
d="M883 0v471h-566v-471h-133v1060h133v-471h566v471h133v-1060h-133z" />
    <glyph glyph-name="uni043E" unicode="&#x43e;" 
d="M600 -20q-213 0 -330.5 144t-117.5 406t117.5 406t330.5 144t330.5 -144t117.5 -406t-117.5 -406t-330.5 -144zM600 105q149 0 230 111t81 314t-81 314t-230 111t-230 -111t-81 -314t81 -314t230 -111z" />
    <glyph glyph-name="uni043F" unicode="&#x43f;" 
d="M883 0v937h-566v-937h-133v1060h832v-1060h-133z" />
    <glyph glyph-name="uni0440" unicode="&#x440;" 
d="M184 -460v1520h113l18 -223h11q21 118 107 180.5t228 62.5q211 0 319 -142t108 -418q0 -266 -107 -403t-316 -137q-145 0 -229.5 65.5t-105.5 185.5h-13v-691h-133zM317 514q0 -203 81 -308t238 -105t237.5 106.5t80.5 312.5q0 217 -80 328t-237 111q-158 0 -239 -105
t-81 -309v-31z" />
    <glyph glyph-name="uni0441" unicode="&#x441;" 
d="M702 -20q-269 0 -409.5 141t-140.5 411q0 261 136 404.5t386 143.5q149 0 255.5 -57.5t151.5 -162.5l-110 -76q-95 171 -305 171q-180 0 -279.5 -108t-99.5 -305q0 -215 108.5 -326t317.5 -111q147 0 310 31l16 -123q-138 -33 -337 -33z" />
    <glyph glyph-name="uni0442" unicode="&#x442;" 
d="M533 0v937h-427v123h988v-123h-427v-937h-134z" />
    <glyph glyph-name="uni0443" unicode="&#x443;" 
d="M91 -480l-6 124l100 15q128 20 218 98.5t166 242.5h-49l-449 1060h144l392 -947h9q8 20 12 31l327 916h144l-364 -966q-107 -284 -226 -409.5t-300 -149.5z" />
    <glyph glyph-name="uni0444" unicode="&#x444;" 
d="M868 -20q-82 0 -132.5 41t-57.5 120h-10v-581h-130v581h-10q-7 -79 -59 -120t-137 -41q-143 0 -207 128t-64 412q0 295 64.5 427.5t208.5 132.5q176 0 194 -202h10v622h130v-622h10q18 202 188 202q144 0 208.5 -132.5t64.5 -427.5q0 -284 -64 -412t-207 -128zM543 596
q0 363 -159 363q-99 0 -144 -104t-45 -335q0 -220 45 -319.5t146 -99.5q157 0 157 239v256zM663 340q0 -239 151 -239q101 0 146 99.5t45 319.5q0 231 -45 335t-144 104q-153 0 -153 -363v-256z" />
    <glyph glyph-name="uni0445" unicode="&#x445;" 
d="M122 0l404 527l-404 533h159l321 -430l317 430h159l-401 -530l401 -530h-159l-319 428l-319 -428h-159z" />
    <glyph glyph-name="uni0446" unicode="&#x446;" 
d="M156 0v1060h133v-937h572v937h134v-937h119v-393h-129v270h-829z" />
    <glyph glyph-name="uni0447" unicode="&#x447;" 
d="M523 408q-396 0 -396 415v237h134v-237q0 -297 269 -297h336v534h133v-1060h-133v408h-343z" />
    <glyph glyph-name="uni0448" unicode="&#x448;" 
d="M128 0v1060h133v-940h277v940h122v-940h279v940h133v-1060h-944z" />
    <glyph glyph-name="uni0449" unicode="&#x449;" 
d="M128 0v1060h133v-940h268v940h120v-940h286v940h133v-940h74v-390h-129v270h-885z" />
    <glyph glyph-name="uni044A" unicode="&#x44a;" 
d="M288 0v937h-272v123h403v-377h292q180 0 278.5 -89.5t98.5 -252.5t-98.5 -252t-278.5 -89h-423zM419 123h277q121 0 188 57t67 161t-66.5 161t-188.5 57h-277v-436z" />
    <glyph glyph-name="uni044B" unicode="&#x44b;" 
d="M128 0v1060h133v-371h143q164 0 253.5 -90t89.5 -254q0 -165 -89.5 -255t-253.5 -90h-276zM261 117h128q110 0 170.5 59.5t60.5 168.5t-60.5 168.5t-170.5 59.5h-128v-456zM939 0v1060h133v-1060h-133z" />
    <glyph glyph-name="uni044C" unicode="&#x44c;" 
d="M204 0v1060h133v-377h407q164 0 254 -89.5t90 -252.5t-90 -252t-254 -89h-540zM337 123h386q109 0 168.5 57t59.5 161t-59.5 161t-168.5 57h-386v-436z" />
    <glyph glyph-name="uni044D" unicode="&#x44d;" 
d="M526 -20q-119 0 -218.5 34t-159.5 89l69 103q58 -44 141 -72.5t176 -28.5q170 0 269 96t110 273h-497v118h494q-20 177 -137 270t-319 93q-108 0 -229 -18l11 126q105 17 242 17q274 0 422 -143t148 -409q0 -261 -136 -404.5t-386 -143.5z" />
    <glyph glyph-name="uni044E" unicode="&#x44e;" 
d="M774 -20q-165 0 -243 116t-84 372h-193v-468h-128v1060h128v-474h193q8 259 85.5 376.5t241.5 117.5q176 0 255 -132.5t79 -427.5q0 -284 -79 -412t-255 -128zM770 92q107 0 155.5 101.5t48.5 326.5q0 236 -48.5 342t-155.5 106t-155 -106t-48 -342q0 -225 48 -326.5
t155 -101.5z" />
    <glyph glyph-name="uni044F" unicode="&#x44f;" 
d="M477 443q-146 0 -226 78t-80 220q0 152 101 235.5t285 83.5h454v-1060h-133v393h-179q-73 0 -110.5 -25t-71.5 -90l-43 -81q-59 -112 -123.5 -157t-174.5 -45h-34v125h17q64 0 107 27t76 87l46 81q33 59 73 86t96 27h6v15h-86zM878 517v420h-321q-119 0 -184 -56
t-65 -159q0 -98 65 -151.5t184 -53.5h321z" />
    <glyph glyph-name="uni0450" unicode="&#x450;" 
d="M703 -20q-263 0 -407 146t-144 414q0 257 121 398.5t342 141.5q206 0 319.5 -128.5t113.5 -363.5q0 -62 -6 -104h-759q17 -183 131.5 -282t312.5 -99q124 0 250 28l19 -123q-137 -28 -293 -28zM283 598h637q0 171 -79.5 265t-223.5 94q-147 0 -234 -94t-100 -265z
M569 1248l-230 380h144l217 -380h-131z" />
    <glyph glyph-name="uni0451" unicode="&#x451;" 
d="M703 -20q-263 0 -407 146t-144 414q0 257 121 398.5t342 141.5q206 0 319.5 -128.5t113.5 -363.5q0 -62 -6 -104h-759q17 -183 131.5 -282t312.5 -99q124 0 250 28l19 -123q-137 -28 -293 -28zM283 598h637q0 171 -79.5 265t-223.5 94q-147 0 -234 -94t-100 -265z
M402 1261q-46 0 -78.5 32.5t-32.5 78.5t32.5 78.5t78.5 32.5t78.5 -32.5t32.5 -78.5t-32.5 -78.5t-78.5 -32.5zM822 1261q-46 0 -78.5 32.5t-32.5 78.5t32.5 78.5t78.5 32.5t78.5 -32.5t32.5 -78.5t-32.5 -78.5t-78.5 -32.5z" />
    <glyph glyph-name="uni0452" unicode="&#x452;" 
d="M224 0v1174h-207v118h207v208h133v-208h413v-118h-413v-426h14q52 185 296 185q167 0 258 -95t91 -268v-573q0 -234 -86 -342.5t-279 -122.5l-111 -12l-6 120l137 17q111 10 161.5 88t50.5 240v585q0 116 -63 179t-177 63q-286 0 -286 -336v-476h-133z" />
    <glyph glyph-name="uni0453" unicode="&#x453;" 
d="M289 0v1060h722v-123h-589v-937h-133zM619 1248l217 380h144l-230 -380h-131z" />
    <glyph glyph-name="uni0454" unicode="&#x454;" 
d="M682 -20q-254 0 -392 143t-138 409q0 261 136 404.5t386 143.5q149 0 255.5 -57.5t151.5 -162.5l-110 -76q-95 171 -305 171q-168 0 -266.5 -94.5t-111.5 -268.5h496v-118h-495q17 -180 124 -274.5t293 -94.5q151 0 317 31l16 -123q-146 -33 -357 -33z" />
    <glyph glyph-name="uni0455" unicode="&#x455;" 
d="M518 -20q-222 0 -346 30l16 127q199 -32 330 -32q196 0 284.5 41t88.5 132q0 63 -41 103t-131 62l-238 60q-154 39 -223.5 104t-69.5 170q0 160 129.5 231.5t418.5 71.5q124 0 264 -20l-15 -119q-151 14 -255 14q-214 0 -309.5 -41.5t-95.5 -133.5q0 -56 48.5 -94
t155.5 -63l190 -46q163 -40 236 -110.5t73 -187.5q0 -157 -120.5 -228t-389.5 -71z" />
    <glyph glyph-name="uni0456" unicode="&#x456;" 
d="M176 0v118h427v824h-367v118h501v-942h349v-118h-910zM660 1291q-48 0 -82 34t-34 82t34 82t82 34t82 -34t34 -82t-34 -82t-82 -34z" />
    <glyph glyph-name="uni0457" unicode="&#x457;" 
d="M176 0v118h427v824h-367v118h501v-942h349v-118h-910zM442 1261q-46 0 -78.5 32.5t-32.5 78.5t32.5 78.5t78.5 32.5t78.5 -32.5t32.5 -78.5t-32.5 -78.5t-78.5 -32.5zM862 1261q-46 0 -78.5 32.5t-32.5 78.5t32.5 78.5t78.5 32.5t78.5 -32.5t32.5 -78.5t-32.5 -78.5
t-78.5 -32.5z" />
    <glyph glyph-name="uni0458" unicode="&#x458;" 
d="M192 -480l-6 120l184 17q195 18 282 112.5t87 292.5v880h-463v118h596v-966q0 -281 -122 -410.5t-400 -151.5zM785 1291q-48 0 -82 34t-34 82t34 82t82 34t82 -34t34 -82t-34 -82t-82 -34z" />
    <glyph glyph-name="uni0459" unicode="&#x459;" 
d="M79 0v123q82 0 116.5 38.5t34.5 129.5v769h500v-344h111q150 0 232 -93.5t82 -264.5t-82 -264.5t-232 -93.5h-237v942h-250v-644q0 -163 -62.5 -230.5t-212.5 -67.5zM730 123h93q96 0 148.5 61.5t52.5 173.5t-52.5 173.5t-148.5 61.5h-93v-470z" />
    <glyph glyph-name="uni045A" unicode="&#x45a;" 
d="M104 0v1060h133v-402h337v402h126v-402h134q158 0 239.5 -82t81.5 -242q0 -164 -81.5 -249t-239.5 -85h-260v540h-337v-540h-133zM700 123h123q201 0 201 211q0 206 -201 206h-123v-417z" />
    <glyph glyph-name="uni045B" unicode="&#x45b;" 
d="M883 0v570q0 116 -63 179t-177 63q-286 0 -286 -336v-476h-133v1174h-207v118h207v208h133v-208h413v-118h-413v-426h14q52 185 296 185q167 0 258 -95t91 -268v-570h-133z" />
    <glyph glyph-name="uni045C" unicode="&#x45c;" 
d="M174 0v1060h133v-468h264q49 0 78 21t47 67l106 258q29 71 74.5 99t128.5 28h48v-123h-40q-65 0 -89 -54l-96 -231q-50 -119 -176 -120v-14h1q131 0 182 -120l96 -231q22 -54 89 -54h36v-123h-48q-83 0 -130 28.5t-76 98.5l-106 258q-18 46 -47 67t-78 21h-264v-468h-133
zM509 1248l217 380h144l-230 -380h-131z" />
    <glyph glyph-name="uni045D" unicode="&#x45d;" 
d="M184 0v1060h133v-857h20l541 857h138v-1060h-133v857h-20l-541 -857h-138zM559 1248l-230 380h144l217 -380h-131z" />
    <glyph glyph-name="uni045E" unicode="&#x45e;" 
d="M91 -480l-6 124l100 15q128 20 218 98.5t166 242.5h-49l-449 1060h144l392 -947h9q8 20 12 31l327 916h144l-364 -966q-107 -284 -226 -409.5t-300 -149.5zM615 1238q-170 0 -250.5 90t-80.5 275h125q0 -137 47.5 -198t158.5 -61q112 0 159 61.5t47 197.5h125
q0 -186 -81 -275.5t-250 -89.5z" />
    <glyph glyph-name="uni045F" unicode="&#x45f;" 
d="M541 -270v270h-352v1060h133v-942h556v942h133v-1060h-340v-270h-130z" />
    <glyph glyph-name="uni0490" unicode="&#x490;" 
d="M180 0v1420h787v310h127v-432h-787v-1298h-127z" />
    <glyph glyph-name="uni0491" unicode="&#x491;" 
d="M289 0v1060h612v260h130v-383h-609v-937h-133z" />
    <glyph glyph-name="uni0492" unicode="&#x492;" 
d="M12 618v124h184v678h878v-122h-751v-556h385v-124h-385v-618h-127v618h-184z" />
    <glyph glyph-name="uni0493" unicode="&#x493;" 
d="M72 451v118h217v491h722v-123h-589v-368h316v-118h-316v-451h-133v451h-217z" />
    <glyph glyph-name="uni0496" unicode="&#x496;" 
d="M14 -5v122h23q34 0 58.5 23.5t30.5 73.5l33 304q20 172 165 182l70 5v10l-70 5q-142 10 -165 188l-33 298q-7 49 -31 73t-58 24h-23v122h54q86 0 128.5 -45t53.5 -145l33 -312q12 -93 40.5 -122.5t110.5 -29.5h94v649h117v-649h94q82 0 110.5 29.5t40.5 122.5l34 312
q11 100 53.5 145t128.5 45h54v-122h-23q-34 0 -58.5 -24t-30.5 -73l-34 -298q-22 -178 -164 -188l-74 -5v-10l74 -5q144 -10 164 -182l34 -302q6 -48 30 -71t59 -23h58v-412h-123v287q-68 7 -103 52t-45 136l-34 319q-11 90 -39.5 117.5t-111.5 27.5h-94v-649h-117v649h-94
q-83 0 -111.5 -27.5t-39.5 -117.5l-33 -319q-11 -101 -53.5 -145.5t-128.5 -44.5h-54z" />
    <glyph glyph-name="uni0497" unicode="&#x497;" 
d="M40 -8v123h43q57 0 69 61l64 244q18 96 141 101h8v18h-8q-123 5 -141 101l-64 244q-12 61 -69 61h-43v123h53q151 0 174 -140l60 -248q9 -49 35.5 -70t88.5 -21h79v471h113v-471h80q61 0 88 21t36 70l60 248q10 69 55 104.5t118 35.5h53v-123h-43q-57 0 -69 -61l-63 -244
q-18 -96 -142 -101h-8v-18h8q124 -5 142 -101l63 -243q11 -54 69 -54h74v-393h-129v266q-110 20 -128 136l-60 248q-9 49 -36 70t-88 21h-80v-471h-113v471h-79q-62 0 -88.5 -21t-35.5 -70l-60 -248q-23 -140 -174 -140h-53z" />
    <glyph glyph-name="uni049A" unicode="&#x49a;" 
d="M156 0v1420h127v-649h261q75 0 117 39t71 131l101 299q30 103 83 144.5t145 41.5h47v-124h-32q-50 0 -77.5 -23.5t-45.5 -78.5l-93 -281q-34 -106 -91 -154.5t-158 -48.5h-11v-11h11q104 0 162.5 -49t92.5 -154l93 -281q17 -54 45.5 -77.5t77.5 -23.5h62v-410h-123v287
q-71 8 -114.5 51t-69.5 133l-102 299q-28 91 -71 130t-120 39h-261v-649h-127z" />
    <glyph glyph-name="uni049B" unicode="&#x49b;" 
d="M174 0v1060h133v-468h264q49 0 78 21t47 67l106 258q29 71 74.5 99t128.5 28h48v-123h-40q-65 0 -89 -54l-96 -231q-50 -119 -176 -120v-14h1q131 0 182 -120l96 -231q22 -50 89 -50h120v-392h-129v265h-3q-83 0 -130 28.5t-76 98.5l-106 258q-18 46 -47 67t-78 21h-264
v-468h-133z" />
    <glyph glyph-name="uni04A2" unicode="&#x4a2;" 
d="M1010 -290v290h-93v646h-634v-646h-127v1420h127v-652h634v652h127v-1298h89v-412h-123z" />
    <glyph glyph-name="uni04A3" unicode="&#x4a3;" 
d="M993 -270v270h-110v471h-566v-471h-133v1060h133v-471h566v471h133v-937h106v-393h-129z" />
    <glyph glyph-name="uni04AE" unicode="&#x4ae;" 
d="M537 0v507l-496 913h139l414 -780h12l414 780h139l-496 -913v-507h-126z" />
    <glyph glyph-name="uni04AF" unicode="&#x4af;" 
d="M533 -460v481l-437 1039h143l361 -884l361 884h143l-437 -1039v-481h-134z" />
    <glyph glyph-name="uni04B0" unicode="&#x4b0;" 
d="M257 329v122h280v56l-496 913h139l414 -780h12l414 780h139l-496 -913v-56h283v-122h-283v-329h-126v329h-280z" />
    <glyph glyph-name="uni04B1" unicode="&#x4b1;" 
d="M215 -118v118h318v21l-437 1039h143l361 -884l361 884h143l-437 -1039v-21h319v-118h-319v-342h-134v342h-318z" />
    <glyph glyph-name="uni04B2" unicode="&#x4b2;" 
d="M1021 -290v290h-45l-376 601l-376 -601h-143l455 702l-455 718h143l376 -616l376 616h143l-456 -718l377 -580h104v-412h-123z" />
    <glyph glyph-name="uni04B3" unicode="&#x4b3;" 
d="M987 -270l-1 270h-67l-319 428l-319 -428h-159l404 527l-404 533h159l321 -430l317 430h159l-401 -530l309 -408v1h131v-393h-130z" />
    <glyph glyph-name="uni04B6" unicode="&#x4b6;" 
d="M974 -290v290h-93v572h-338q-223 0 -323.5 113.5t-100.5 366.5v368h127v-368q0 -188 70.5 -273t226.5 -85h338v726h126v-1298h90v-412h-123z" />
    <glyph glyph-name="uni04B7" unicode="&#x4b7;" 
d="M954 -270v270h-88v408h-343q-396 0 -396 415v237h134v-237q0 -297 269 -297h336v534h133v-937h84v-393h-129z" />
    <glyph glyph-name="uni04BA" unicode="&#x4ba;" 
d="M917 0v395q0 170 -70.5 247t-226.5 77h-337v-719h-127v1420h127v-579h337q223 0 323.5 -105.5t100.5 -340.5v-395h-127z" />
    <glyph glyph-name="uni04BB" unicode="&#x4bb;" 
d="M883 0v693q0 127 -66.5 196.5t-186.5 69.5q-313 0 -313 -360v-599h-133v1500h133v-632h12q45 212 312 212q179 0 277 -102t98 -288v-690h-133z" />
    <glyph glyph-name="uni04C0" unicode="&#x4c0;" 
d="M184 0v122h352v1176h-352v122h832v-122h-354v-1176h354v-122h-832z" />
    <glyph glyph-name="uni04CF" unicode="&#x4cf;" 
d="M176 0v118h427v824h-367v118h501v-942h349v-118h-910z" />
    <glyph glyph-name="uni04D8" unicode="&#x4d8;" 
d="M600 -20q-507 0 -507 667q0 69 4 118h877q-24 554 -474 554q-155 0 -293 -43l-22 118q148 46 315 46q607 0 607 -740q0 -720 -507 -720zM974 641h-749q1 -540 375 -540q356 0 374 540z" />
    <glyph glyph-name="uni04D9" unicode="&#x4d9;" 
d="M585 -20q-206 0 -319.5 128.5t-113.5 363.5q0 62 6 104h759q-17 183 -131.5 282t-312.5 99q-120 0 -250 -32l-19 120q130 35 293 35q263 0 407 -146t144 -414q0 -257 -121 -398.5t-342 -141.5zM917 462h-637q0 -171 79.5 -265t223.5 -94q147 0 234 94t100 265z" />
    <glyph glyph-name="uni04E2" unicode="&#x4e2;" 
d="M164 0v1420h124v-1183h20l584 1183h144v-1420h-124v1183h-20l-584 -1183h-144zM213 1613v122h774v-122h-774z" />
    <glyph glyph-name="uni04E3" unicode="&#x4e3;" 
d="M184 0v1060h133v-857h20l541 857h138v-1060h-133v857h-20l-541 -857h-138zM187 1248v123h826v-123h-826z" />
    <glyph glyph-name="uni04E8" unicode="&#x4e8;" 
d="M600 -20q-508 0 -508 720q0 740 508 740t508 -740q0 -720 -508 -720zM600 95q360 0 376 551h-752q16 -551 376 -551zM224 768h752q-21 551 -376 551t-376 -551z" />
    <glyph glyph-name="uni04E9" unicode="&#x4e9;" 
d="M600 -20q-213 0 -330.5 144t-117.5 406t117.5 406t330.5 144t330.5 -144t117.5 -406t-117.5 -406t-330.5 -144zM600 105q138 0 218 95.5t91 272.5h-618q11 -177 91 -272.5t218 -95.5zM291 587h618q-11 177 -91 272.5t-218 95.5t-218 -95.5t-91 -272.5z" />
    <glyph glyph-name="uni04EE" unicode="&#x4ee;" 
d="M209 0v122q131 0 217.5 24.5t145.5 80.5l-470 1193h137l413 -1052h17q17 39 29 75l315 977h137l-349 -1033q-76 -217 -207 -302t-385 -85zM253 1613v122h774v-122h-774z" />
    <glyph glyph-name="uni04EF" unicode="&#x4ef;" 
d="M91 -480l-6 124l100 15q128 20 218 98.5t166 242.5h-49l-449 1060h144l392 -947h9q8 20 12 31l327 916h144l-364 -966q-107 -284 -226 -409.5t-300 -149.5zM202 1248v123h826v-123h-826z" />
    <glyph glyph-name="uni0E3F" unicode="&#xe3f;" 
d="M530 -320v320h-354v1420h354v320h106v-322q183 -12 282.5 -103t99.5 -248q0 -137 -82.5 -217t-234.5 -91v-10q199 -3 308 -98.5t109 -267.5q0 -183 -115 -283t-326 -100h-41v-320h-106zM636 689v-567h23q156 0 242 71t86 200q0 141 -86 218.5t-242 77.5h-23zM530 122v567
h-227v-567h227zM303 811h227v487h-227v-487zM636 813q120 11 185.5 75t65.5 172q0 103 -65.5 164t-185.5 72v-483z" />
    <glyph glyph-name="uni1D00" unicode="&#x1d00;" 
d="M60 0l449 1079h182l449 -1079h-138l-112 272h-580l-112 -272h-138zM355 383h490l-239 581h-12z" />
    <glyph glyph-name="uni1DBB" unicode="&#x1dbb;" 
d="M321 790v103l397 425h-397v103h543v-103l-391 -425h404v-103h-556z" />
    <glyph glyph-name="uni1DBF" unicode="&#x1dbf;" 
d="M600 770q-155 0 -240.5 104.5t-85.5 294.5t85.5 294.5t240.5 104.5t240.5 -104.5t85.5 -294.5t-85.5 -294.5t-240.5 -104.5zM397 1210h406q-8 122 -61 188.5t-142 66.5t-142 -66.5t-61 -188.5zM600 873q89 0 142 66.5t61 188.5h-406q8 -122 61 -188.5t142 -66.5z" />
    <glyph glyph-name="uni1E24" unicode="&#x1e24;" 
d="M917 0v646h-634v-646h-127v1420h127v-652h634v652h127v-1420h-127zM600 -397q-46 0 -78.5 32t-32.5 78t32.5 79t78.5 33t78.5 -33t32.5 -79t-32.5 -78t-78.5 -32z" />
    <glyph glyph-name="uni1E25" unicode="&#x1e25;" 
d="M883 0v693q0 127 -66.5 196.5t-186.5 69.5q-313 0 -313 -360v-599h-133v1500h133v-632h12q45 212 312 212q179 0 277 -102t98 -288v-690h-133zM600 -397q-46 0 -78.5 32t-32.5 78t32.5 79t78.5 33t78.5 -33t32.5 -79t-32.5 -78t-78.5 -32z" />
    <glyph glyph-name="uni1E30" unicode="&#x1e30;" 
d="M166 0v1420h127v-815q314 10 484.5 230t170.5 585h130q0 -239 -71.5 -429.5t-206.5 -314.5l346 -676h-153l-302 594q-172 -105 -398 -114v-480h-127zM539 1580l223 250h176l-247 -250h-152z" />
    <glyph glyph-name="uni1E32" unicode="&#x1e32;" 
d="M166 0v1420h127v-815q314 10 484.5 230t170.5 585h130q0 -239 -71.5 -429.5t-206.5 -314.5l346 -676h-153l-302 594q-172 -105 -398 -114v-480h-127zM620 -397q-46 0 -78.5 32t-32.5 78t32.5 79t78.5 33t78.5 -33t32.5 -79t-32.5 -78t-78.5 -32z" />
    <glyph glyph-name="uni1E33" unicode="&#x1e33;" 
d="M176 0v1500h131v-955h70q253 0 374 116t165 399h140q-54 -371 -246 -521l314 -539h-164l-267 471q-120 -49 -286 -49h-100v-422h-131zM620 -397q-46 0 -78.5 32t-32.5 78t32.5 79t78.5 33t78.5 -33t32.5 -79t-32.5 -78t-78.5 -32z" />
    <glyph glyph-name="uni1E34" unicode="&#x1e34;" 
d="M166 0v1420h127v-815q314 10 484.5 230t170.5 585h130q0 -239 -71.5 -429.5t-206.5 -314.5l346 -676h-153l-302 594q-172 -105 -398 -114v-480h-127zM207 -331v123h826v-123h-826z" />
    <glyph glyph-name="uni1E35" unicode="&#x1e35;" 
d="M176 0v1500h131v-955h70q253 0 374 116t165 399h140q-54 -371 -246 -521l314 -539h-164l-267 471q-120 -49 -286 -49h-100v-422h-131zM207 -331v123h826v-123h-826z" />
    <glyph glyph-name="uni1E36" unicode="&#x1e36;" 
d="M176 0v1420h127v-1298h781v-122h-908zM620 -397q-46 0 -78.5 32t-32.5 78t32.5 79t78.5 33t78.5 -33t32.5 -79t-32.5 -78t-78.5 -32z" />
    <glyph glyph-name="uni1E37" unicode="&#x1e37;" 
d="M805 -20q-181 0 -268.5 95t-87.5 292v1015h-335v118h469v-1130q0 -137 60 -201t195 -64q81 0 205 32l15 -122q-122 -35 -253 -35zM680 -397q-46 0 -78.5 32t-32.5 78t32.5 79t78.5 33t78.5 -33t32.5 -79t-32.5 -78t-78.5 -32z" />
    <glyph glyph-name="uni1E3A" unicode="&#x1e3a;" 
d="M176 0v1420h127v-1298h781v-122h-908zM207 -331v123h826v-123h-826z" />
    <glyph glyph-name="uni1E3B" unicode="&#x1e3b;" 
d="M805 -20q-181 0 -268.5 95t-87.5 292v1015h-335v118h469v-1130q0 -137 60 -201t195 -64q81 0 205 32l15 -122q-122 -35 -253 -35zM267 -331v123h826v-123h-826z" />
    <glyph glyph-name="uni1E48" unicode="&#x1e48;" 
d="M854 0l-554 1248h-12v-1248h-124v1420h183l554 -1248h11v1248h124v-1420h-182zM187 -331v123h826v-123h-826z" />
    <glyph glyph-name="uni1E49" unicode="&#x1e49;" 
d="M883 0v693q0 125 -66.5 193.5t-186.5 68.5q-313 0 -313 -356v-599h-133v1060h121l10 -192h14q45 212 312 212q179 0 277 -102t98 -288v-690h-133zM187 -331v123h826v-123h-826z" />
    <glyph glyph-name="uni1E50" unicode="&#x1e50;" 
d="M600 -20q-508 0 -508 720q0 740 508 740t508 -740q0 -720 -508 -720zM600 95q377 0 377 605q0 619 -377 619t-377 -619q0 -605 377 -605zM213 1613v122h774v-122h-774zM533 1880l-247 250h176l223 -250h-152z" />
    <glyph glyph-name="uni1E51" unicode="&#x1e51;" 
d="M600 -20q-213 0 -330.5 144t-117.5 406t117.5 406t330.5 144t330.5 -144t117.5 -406t-117.5 -406t-330.5 -144zM600 105q149 0 230 111t81 314t-81 314t-230 111t-230 -111t-81 -314t81 -314t230 -111zM187 1248v123h826v-123h-826zM559 1561l-230 380h144l217 -380h-131
z" />
    <glyph glyph-name="uni1E52" unicode="&#x1e52;" 
d="M600 -20q-508 0 -508 720q0 740 508 740t508 -740q0 -720 -508 -720zM600 95q377 0 377 605q0 619 -377 619t-377 -619q0 -605 377 -605zM213 1613v122h774v-122h-774zM519 1880l223 250h176l-247 -250h-152z" />
    <glyph glyph-name="uni1E53" unicode="&#x1e53;" 
d="M600 -20q-213 0 -330.5 144t-117.5 406t117.5 406t330.5 144t330.5 -144t117.5 -406t-117.5 -406t-330.5 -144zM600 105q149 0 230 111t81 314t-81 314t-230 111t-230 -111t-81 -314t81 -314t230 -111zM187 1248v123h826v-123h-826zM529 1561l217 380h144l-230 -380h-131
z" />
    <glyph glyph-name="uni1E5A" unicode="&#x1e5a;" 
d="M156 0v1420h499q200 0 309.5 -109t109.5 -308q0 -158 -67 -262.5t-193 -143.5l312 -597h-153l-289 575q-10 -1 -29 -1h-372v-574h-127zM283 696h372q137 0 212.5 75t75.5 212q0 150 -75.5 232.5t-212.5 82.5h-372v-602zM610 -397q-46 0 -78.5 32t-32.5 78t32.5 79
t78.5 33t78.5 -33t32.5 -79t-32.5 -78t-78.5 -32z" />
    <glyph glyph-name="uni1E5B" unicode="&#x1e5b;" 
d="M489 456v-338h299v-118h-692v118h259v824h-219v118h326l24 -272h15q36 292 312 292q170 0 246.5 -94t76.5 -304h-134q0 146 -49 211.5t-157 65.5q-153 0 -230 -129.5t-77 -373.5zM430 -397q-46 0 -78.5 32t-32.5 78t32.5 79t78.5 33t78.5 -33t32.5 -79t-32.5 -78
t-78.5 -32z" />
    <glyph glyph-name="uni1E62" unicode="&#x1e62;" 
d="M551 -20q-226 0 -406 71l18 132q213 -82 404 -82q341 0 341 238q0 153 -151 229l-337 173q-119 59 -178 138.5t-59 190.5q0 182 106.5 276t313.5 94q264 0 444 -171l-90 -91q-179 141 -353 141q-288 0 -288 -239q0 -74 38.5 -125t117.5 -91l307 -155q132 -66 197 -155.5
t65 -210.5q0 -363 -490 -363zM610 -397q-46 0 -78.5 32t-32.5 78t32.5 79t78.5 33t78.5 -33t32.5 -79t-32.5 -78t-78.5 -32z" />
    <glyph glyph-name="uni1E63" unicode="&#x1e63;" 
d="M518 -20q-222 0 -346 30l16 127q199 -32 330 -32q196 0 284.5 41t88.5 132q0 63 -41 103t-131 62l-238 60q-154 39 -223.5 104t-69.5 170q0 160 129.5 231.5t418.5 71.5q124 0 264 -20l-15 -119q-151 14 -255 14q-214 0 -309.5 -41.5t-95.5 -133.5q0 -56 48.5 -94
t155.5 -63l190 -46q163 -40 236 -110.5t73 -187.5q0 -157 -120.5 -228t-389.5 -71zM590 -397q-46 0 -78.5 32t-32.5 78t32.5 79t78.5 33t78.5 -33t32.5 -79t-32.5 -78t-78.5 -32z" />
    <glyph glyph-name="uni1E6E" unicode="&#x1e6e;" 
d="M537 0v1298h-441v122h1008v-122h-441v-1298h-126zM182 -331v123h826v-123h-826z" />
    <glyph glyph-name="Wgrave" unicode="&#x1e80;" 
d="M236 0l-200 1420h127l174 -1313h20l161 953h166l159 -953h20l174 1313h127l-200 -1420h-206l-152 947h-12l-152 -947h-206zM533 1580l-247 250h176l223 -250h-152z" />
    <glyph glyph-name="wgrave" unicode="&#x1e81;" 
d="M745 0l-149 934h-12l-145 -934h-197l-156 1060h123l133 -953h15l152 953h163l151 -953h15l150 953h126l-186 -1060h-183zM549 1248l-230 380h144l217 -380h-131z" />
    <glyph glyph-name="Wacute" unicode="&#x1e82;" 
d="M236 0l-200 1420h127l174 -1313h20l161 953h166l159 -953h20l174 1313h127l-200 -1420h-206l-152 947h-12l-152 -947h-206zM519 1580l223 250h176l-247 -250h-152z" />
    <glyph glyph-name="wacute" unicode="&#x1e83;" 
d="M745 0l-149 934h-12l-145 -934h-197l-156 1060h123l133 -953h15l152 953h163l151 -953h15l150 953h126l-186 -1060h-183zM519 1248l217 380h144l-230 -380h-131z" />
    <glyph glyph-name="Wdieresis" unicode="&#x1e84;" 
d="M236 0l-200 1420h127l174 -1313h20l161 953h166l159 -953h20l174 1313h127l-200 -1420h-206l-152 947h-12l-152 -947h-206zM392 1603q-46 0 -78.5 32t-32.5 78t32.5 79t78.5 33t78.5 -33t32.5 -79t-32.5 -78t-78.5 -32zM808 1603q-46 0 -78.5 32t-32.5 78t32.5 79
t78.5 33t78.5 -33t32.5 -79t-32.5 -78t-78.5 -32z" />
    <glyph glyph-name="wdieresis" unicode="&#x1e85;" 
d="M745 0l-149 934h-12l-145 -934h-197l-156 1060h123l133 -953h15l152 953h163l151 -953h15l150 953h126l-186 -1060h-183zM382 1261q-46 0 -78.5 32.5t-32.5 78.5t32.5 78.5t78.5 32.5t78.5 -32.5t32.5 -78.5t-32.5 -78.5t-78.5 -32.5zM802 1261q-46 0 -78.5 32.5
t-32.5 78.5t32.5 78.5t78.5 32.5t78.5 -32.5t32.5 -78.5t-32.5 -78.5t-78.5 -32.5z" />
    <glyph glyph-name="uni1E9E" unicode="&#x1e9e;" 
d="M157 0v930q0 268 118 389t381 121q131 0 235 -41t196 -129h1l-275 -417q157 -53 242 -164.5t85 -263.5q0 -212 -125.5 -328.5t-353.5 -116.5q-120 0 -202 23l26 119q98 -18 192 -18q157 0 243.5 83t86.5 234q0 113 -69.5 198t-196.5 125l-120 37l294 452q-122 84 -259 84
q-195 1 -283.5 -91t-88.5 -296v-930h-127z" />
    <glyph glyph-name="uni1EA0" unicode="&#x1ea0;" 
d="M61 0l448 1420h182l448 -1420h-131l-117 380h-582l-117 -380h-131zM346 502h508l-248 809h-12zM600 -397q-46 0 -78.5 32t-32.5 78t32.5 79t78.5 33t78.5 -33t32.5 -79t-32.5 -78t-78.5 -32z" />
    <glyph glyph-name="uni1EA1" unicode="&#x1ea1;" 
d="M859 -10l-10 234h-13q-18 -111 -125 -177.5t-264 -66.5q-160 0 -247.5 74.5t-87.5 210.5q0 166 117.5 251.5t347.5 85.5q148 0 253 -18v45q0 161 -87 235t-276 78l-225 4l20 124l198 -3q259 -4 379.5 -114.5t120.5 -343.5v-494l182 -16v-99zM830 474q-78 13 -257 13
q-330 0 -330 -214q0 -84 56 -129.5t159 -45.5q163 0 267.5 80t104.5 196v100zM600 -397q-46 0 -78.5 32t-32.5 78t32.5 79t78.5 33t78.5 -33t32.5 -79t-32.5 -78t-78.5 -32z" />
    <glyph glyph-name="uni1EA2" unicode="&#x1ea2;" 
d="M61 0l448 1420h182l448 -1420h-131l-117 380h-582l-117 -380h-131zM346 502h508l-248 809h-12zM551 1529v21q0 24 16.5 42.5t53.5 42.5q44 26 62.5 47.5t18.5 45.5q0 68 -108 68q-106 0 -177 -53l-48 86q78 75 246 75q207 0 207 -156q0 -54 -28 -94.5t-98 -82.5
q-29 -18 -29 -42h-116z" />
    <glyph glyph-name="uni1EA3" unicode="&#x1ea3;" 
d="M859 -10l-10 234h-13q-18 -111 -125 -177.5t-264 -66.5q-160 0 -247.5 74.5t-87.5 210.5q0 166 117.5 251.5t347.5 85.5q148 0 253 -18v45q0 161 -87 235t-276 78l-225 4l20 124l198 -3q259 -4 379.5 -114.5t120.5 -343.5v-494l182 -16v-99zM830 474q-78 13 -257 13
q-330 0 -330 -214q0 -84 56 -129.5t159 -45.5q163 0 267.5 80t104.5 196v100zM522 1248v23q0 35 13 65t32 51t38 40.5t32 41t13 43.5q0 68 -90 68q-80 0 -139 -49l-52 90q32 33 87 52t119 19q94 0 144 -43t50 -123q0 -39 -13.5 -70.5t-32.5 -52.5t-38.5 -41.5t-33 -47
t-13.5 -57.5v-9h-116z" />
    <glyph glyph-name="uni1EA4" unicode="&#x1ea4;" 
d="M61 0l448 1420h182l448 -1420h-131l-117 380h-582l-117 -380h-131zM346 502h508l-248 809h-12zM269 1580l277 260h112l277 -260h-159l-174 172l-174 -172h-159zM827 1828l223 250h176l-247 -250h-152z" />
    <glyph glyph-name="uni1EA5" unicode="&#x1ea5;" 
d="M859 -10l-10 234h-13q-18 -111 -125 -177.5t-264 -66.5q-160 0 -247.5 74.5t-87.5 210.5q0 166 117.5 251.5t347.5 85.5q148 0 253 -18v45q0 161 -87 235t-276 78l-225 4l20 124l198 -3q259 -4 379.5 -114.5t120.5 -343.5v-494l182 -16v-99zM830 474q-78 13 -257 13
q-330 0 -330 -214q0 -84 56 -129.5t159 -45.5q163 0 267.5 80t104.5 196v100zM254 1248l277 380h98l277 -380h-152l-174 261l-174 -261h-152zM866 1588l217 380h144l-230 -380h-131z" />
    <glyph glyph-name="uni1EA6" unicode="&#x1ea6;" 
d="M61 0l448 1420h182l448 -1420h-131l-117 380h-582l-117 -380h-131zM346 502h508l-248 809h-12zM269 1580l277 260h112l277 -260h-159l-174 172l-174 -172h-159zM841 1828l-247 250h176l223 -250h-152z" />
    <glyph glyph-name="uni1EA7" unicode="&#x1ea7;" 
d="M859 -10l-10 234h-13q-18 -111 -125 -177.5t-264 -66.5q-160 0 -247.5 74.5t-87.5 210.5q0 166 117.5 251.5t347.5 85.5q148 0 253 -18v45q0 161 -87 235t-276 78l-225 4l20 124l198 -3q259 -4 379.5 -114.5t120.5 -343.5v-494l182 -16v-99zM830 474q-78 13 -257 13
q-330 0 -330 -214q0 -84 56 -129.5t159 -45.5q163 0 267.5 80t104.5 196v100zM254 1248l277 380h98l277 -380h-152l-174 261l-174 -261h-152zM896 1588l-230 380h144l217 -380h-131z" />
    <glyph glyph-name="uni1EA8" unicode="&#x1ea8;" 
d="M61 0l448 1420h182l448 -1420h-131l-117 380h-582l-117 -380h-131zM346 502h508l-248 809h-12zM859 1777v21q0 24 16.5 42.5t53.5 42.5q44 26 62.5 47.5t18.5 45.5q0 68 -108 68q-106 0 -177 -53l-48 86q78 75 246 75q207 0 207 -156q0 -54 -28 -94.5t-98 -82.5
q-29 -18 -29 -42h-116zM269 1580l277 260h112l277 -260h-159l-174 172l-174 -172h-159z" />
    <glyph glyph-name="uni1EA9" unicode="&#x1ea9;" 
d="M859 -10l-10 234h-13q-18 -111 -125 -177.5t-264 -66.5q-160 0 -247.5 74.5t-87.5 210.5q0 166 117.5 251.5t347.5 85.5q148 0 253 -18v45q0 161 -87 235t-276 78l-225 4l20 124l198 -3q259 -4 379.5 -114.5t120.5 -343.5v-494l182 -16v-99zM830 474q-78 13 -257 13
q-330 0 -330 -214q0 -84 56 -129.5t159 -45.5q163 0 267.5 80t104.5 196v100zM254 1248l277 380h98l277 -380h-152l-174 261l-174 -261h-152zM879 1588v23q0 35 13 65t32 51t38 40.5t32 41t13 43.5q0 68 -90 68q-80 0 -139 -49l-52 90q32 33 87 52t119 19q94 0 144 -43
t50 -123q0 -39 -13.5 -70.5t-33 -52.5t-38.5 -41.5t-32.5 -47t-13.5 -57.5v-9h-116z" />
    <glyph glyph-name="uni1EAA" unicode="&#x1eaa;" 
d="M61 0l448 1420h182l448 -1420h-131l-117 380h-582l-117 -380h-131zM346 502h508l-248 809h-12zM238 1946v70q0 230 194 230q83 0 200 -78q112 -76 164 -76q70 0 70 105v73h117v-63q0 -227 -173 -227q-83 0 -209 84q-105 70 -157 70q-88 0 -88 -108v-80h-118zM269 1580
l277 260h112l277 -260h-159l-174 172l-174 -172h-159z" />
    <glyph glyph-name="uni1EAB" unicode="&#x1eab;" 
d="M859 -10l-10 234h-13q-18 -111 -125 -177.5t-264 -66.5q-160 0 -247.5 74.5t-87.5 210.5q0 166 117.5 251.5t347.5 85.5q148 0 253 -18v45q0 161 -87 235t-276 78l-225 4l20 124l198 -3q259 -4 379.5 -114.5t120.5 -343.5v-494l182 -16v-99zM830 474q-78 13 -257 13
q-330 0 -330 -214q0 -84 56 -129.5t159 -45.5q163 0 267.5 80t104.5 196v100zM241 1776v40q0 250 194 250q40 0 77 -18t87 -53q112 -76 156 -76q68 0 68 111v90h116v-80q0 -240 -172 -240q-59 0 -180 77q-10 6 -33 22t-36 24.5t-31.5 16t-33.5 7.5q-94 0 -94 -121v-50h-118z
M254 1248l277 380h98l277 -380h-152l-174 261l-174 -261h-152z" />
    <glyph glyph-name="uni1EAC" unicode="&#x1eac;" 
d="M61 0l448 1420h182l448 -1420h-131l-117 380h-582l-117 -380h-131zM346 502h508l-248 809h-12zM269 1580l277 260h112l277 -260h-159l-174 172l-174 -172h-159zM600 -397q-46 0 -78.5 32t-32.5 78t32.5 79t78.5 33t78.5 -33t32.5 -79t-32.5 -78t-78.5 -32z" />
    <glyph glyph-name="uni1EAD" unicode="&#x1ead;" 
d="M859 -10l-10 234h-13q-18 -111 -125 -177.5t-264 -66.5q-160 0 -247.5 74.5t-87.5 210.5q0 166 117.5 251.5t347.5 85.5q148 0 253 -18v45q0 161 -87 235t-276 78l-225 4l20 124l198 -3q259 -4 379.5 -114.5t120.5 -343.5v-494l182 -16v-99zM830 474q-78 13 -257 13
q-330 0 -330 -214q0 -84 56 -129.5t159 -45.5q163 0 267.5 80t104.5 196v100zM254 1248l277 380h98l277 -380h-152l-174 261l-174 -261h-152zM600 -397q-46 0 -78.5 32t-32.5 78t32.5 79t78.5 33t78.5 -33t32.5 -79t-32.5 -78t-78.5 -32z" />
    <glyph glyph-name="uni1EAE" unicode="&#x1eae;" 
d="M61 0l448 1420h182l448 -1420h-131l-117 380h-582l-117 -380h-131zM346 502h508l-248 809h-12zM600 1570q-171 0 -266 76t-95 214h119q0 -89 63.5 -138.5t178.5 -49.5t178.5 49.5t63.5 138.5h119q0 -138 -95 -214t-266 -76zM519 1980l223 250h176l-247 -250h-152z" />
    <glyph glyph-name="uni1EAF" unicode="&#x1eaf;" 
d="M859 -10l-10 234h-13q-18 -111 -125 -177.5t-264 -66.5q-160 0 -247.5 74.5t-87.5 210.5q0 166 117.5 251.5t347.5 85.5q148 0 253 -18v45q0 161 -87 235t-276 78l-225 4l20 124l198 -3q259 -4 379.5 -114.5t120.5 -343.5v-494l182 -16v-99zM830 474q-78 13 -257 13
q-330 0 -330 -214q0 -84 56 -129.5t159 -45.5q163 0 267.5 80t104.5 196v100zM580 1238q-161 0 -250 84t-89 238v43h118v-43q0 -106 57.5 -163t163.5 -57t163.5 57t57.5 163v43h118v-43q0 -154 -89 -238t-250 -84zM509 1728l217 380h144l-230 -380h-131z" />
    <glyph glyph-name="uni1EB0" unicode="&#x1eb0;" 
d="M61 0l448 1420h182l448 -1420h-131l-117 380h-582l-117 -380h-131zM346 502h508l-248 809h-12zM600 1570q-171 0 -266 76t-95 214h119q0 -89 63.5 -138.5t178.5 -49.5t178.5 49.5t63.5 138.5h119q0 -138 -95 -214t-266 -76zM533 1980l-247 250h176l223 -250h-152z" />
    <glyph glyph-name="uni1EB1" unicode="&#x1eb1;" 
d="M859 -10l-10 234h-13q-18 -111 -125 -177.5t-264 -66.5q-160 0 -247.5 74.5t-87.5 210.5q0 166 117.5 251.5t347.5 85.5q148 0 253 -18v45q0 161 -87 235t-276 78l-225 4l20 124l198 -3q259 -4 379.5 -114.5t120.5 -343.5v-494l182 -16v-99zM830 474q-78 13 -257 13
q-330 0 -330 -214q0 -84 56 -129.5t159 -45.5q163 0 267.5 80t104.5 196v100zM580 1238q-161 0 -250 84t-89 238v43h118v-43q0 -106 57.5 -163t163.5 -57t163.5 57t57.5 163v43h118v-43q0 -154 -89 -238t-250 -84zM539 1728l-230 380h144l217 -380h-131z" />
    <glyph glyph-name="uni1EB2" unicode="&#x1eb2;" 
d="M61 0l448 1420h182l448 -1420h-131l-117 380h-582l-117 -380h-131zM346 502h508l-248 809h-12zM600 1570q-171 0 -266 76t-95 214h119q0 -89 63.5 -138.5t178.5 -49.5t178.5 49.5t63.5 138.5h119q0 -138 -95 -214t-266 -76zM551 1929v21q0 24 16.5 42.5t53.5 42.5
q44 26 62.5 47.5t18.5 45.5q0 68 -108 68q-106 0 -177 -53l-48 86q78 75 246 75q207 0 207 -156q0 -54 -28 -94.5t-98 -82.5q-29 -18 -29 -42h-116z" />
    <glyph glyph-name="uni1EB3" unicode="&#x1eb3;" 
d="M859 -10l-10 234h-13q-18 -111 -125 -177.5t-264 -66.5q-160 0 -247.5 74.5t-87.5 210.5q0 166 117.5 251.5t347.5 85.5q148 0 253 -18v45q0 161 -87 235t-276 78l-225 4l20 124l198 -3q259 -4 379.5 -114.5t120.5 -343.5v-494l182 -16v-99zM830 474q-78 13 -257 13
q-330 0 -330 -214q0 -84 56 -129.5t159 -45.5q163 0 267.5 80t104.5 196v100zM580 1238q-161 0 -250 84t-89 238v43h118v-43q0 -106 57.5 -163t163.5 -57t163.5 57t57.5 163v43h118v-43q0 -154 -89 -238t-250 -84zM522 1728v23q0 35 13 65t32 51t38 40.5t32 41t13 43.5
q0 68 -90 68q-80 0 -139 -49l-52 90q32 33 87 52t119 19q94 0 144 -43t50 -123q0 -39 -13.5 -70.5t-32.5 -52.5t-38.5 -41.5t-33 -47t-13.5 -57.5v-9h-116z" />
    <glyph glyph-name="uni1EB4" unicode="&#x1eb4;" 
d="M61 0l448 1420h182l448 -1420h-131l-117 380h-582l-117 -380h-131zM346 502h508l-248 809h-12zM238 1966v70q0 230 194 230q83 0 200 -78q112 -76 164 -76q70 0 70 105v73h117v-63q0 -227 -173 -227q-83 0 -209 84q-105 70 -157 70q-88 0 -88 -108v-80h-118zM600 1570
q-171 0 -266 76t-95 214h119q0 -89 63.5 -138.5t178.5 -49.5t178.5 49.5t63.5 138.5h119q0 -138 -95 -214t-266 -76z" />
    <glyph glyph-name="uni1EB5" unicode="&#x1eb5;" 
d="M859 -10l-10 234h-13q-18 -111 -125 -177.5t-264 -66.5q-160 0 -247.5 74.5t-87.5 210.5q0 166 117.5 251.5t347.5 85.5q148 0 253 -18v45q0 161 -87 235t-276 78l-225 4l20 124l198 -3q259 -4 379.5 -114.5t120.5 -343.5v-494l182 -16v-99zM830 474q-78 13 -257 13
q-330 0 -330 -214q0 -84 56 -129.5t159 -45.5q163 0 267.5 80t104.5 196v100zM241 1736v40q0 250 194 250q40 0 77 -18t87 -53q112 -76 156 -76q68 0 68 111v90h116v-80q0 -240 -172 -240q-59 0 -180 77q-10 6 -33 22t-36 24.5t-31.5 16t-33.5 7.5q-94 0 -94 -121v-50h-118z
M580 1238q-161 0 -250 84t-89 238v43h118v-43q0 -106 57.5 -163t163.5 -57t163.5 57t57.5 163v43h118v-43q0 -154 -89 -238t-250 -84z" />
    <glyph glyph-name="uni1EB6" unicode="&#x1eb6;" 
d="M61 0l448 1420h182l448 -1420h-131l-117 380h-582l-117 -380h-131zM346 502h508l-248 809h-12zM600 1570q-171 0 -266 76t-95 214h119q0 -89 63.5 -138.5t178.5 -49.5t178.5 49.5t63.5 138.5h119q0 -138 -95 -214t-266 -76zM600 -397q-46 0 -78.5 32t-32.5 78t32.5 79
t78.5 33t78.5 -33t32.5 -79t-32.5 -78t-78.5 -32z" />
    <glyph glyph-name="uni1EB7" unicode="&#x1eb7;" 
d="M859 -10l-10 234h-13q-18 -111 -125 -177.5t-264 -66.5q-160 0 -247.5 74.5t-87.5 210.5q0 166 117.5 251.5t347.5 85.5q148 0 253 -18v45q0 161 -87 235t-276 78l-225 4l20 124l198 -3q259 -4 379.5 -114.5t120.5 -343.5v-494l182 -16v-99zM830 474q-78 13 -257 13
q-330 0 -330 -214q0 -84 56 -129.5t159 -45.5q163 0 267.5 80t104.5 196v100zM580 1238q-161 0 -250 84t-89 238v43h118v-43q0 -106 57.5 -163t163.5 -57t163.5 57t57.5 163v43h118v-43q0 -154 -89 -238t-250 -84zM600 -397q-46 0 -78.5 32t-32.5 78t32.5 79t78.5 33
t78.5 -33t32.5 -79t-32.5 -78t-78.5 -32z" />
    <glyph glyph-name="uni1EB8" unicode="&#x1eb8;" 
d="M176 0v1420h908v-122h-781v-526h601v-122h-601v-528h781v-122h-908zM630 -397q-46 0 -78.5 32t-32.5 78t32.5 79t78.5 33t78.5 -33t32.5 -79t-32.5 -78t-78.5 -32z" />
    <glyph glyph-name="uni1EB9" unicode="&#x1eb9;" 
d="M703 -20q-263 0 -407 146t-144 414q0 257 121 398.5t342 141.5q206 0 319.5 -128.5t113.5 -363.5q0 -62 -6 -104h-759q17 -183 131.5 -282t312.5 -99q124 0 250 28l19 -123q-137 -28 -293 -28zM283 598h637q0 171 -79.5 265t-223.5 94q-147 0 -234 -94t-100 -265z
M630 -397q-46 0 -78.5 32t-32.5 78t32.5 79t78.5 33t78.5 -33t32.5 -79t-32.5 -78t-78.5 -32z" />
    <glyph glyph-name="uni1EBA" unicode="&#x1eba;" 
d="M176 0v1420h908v-122h-781v-526h601v-122h-601v-528h781v-122h-908zM581 1529v21q0 24 16.5 42.5t53.5 42.5q44 26 62.5 47.5t18.5 45.5q0 68 -108 68q-106 0 -177 -53l-48 86q78 75 246 75q207 0 207 -156q0 -54 -28 -94.5t-98 -82.5q-29 -18 -29 -42h-116z" />
    <glyph glyph-name="uni1EBB" unicode="&#x1ebb;" 
d="M703 -20q-263 0 -407 146t-144 414q0 257 121 398.5t342 141.5q206 0 319.5 -128.5t113.5 -363.5q0 -62 -6 -104h-759q17 -183 131.5 -282t312.5 -99q124 0 250 28l19 -123q-137 -28 -293 -28zM283 598h637q0 171 -79.5 265t-223.5 94q-147 0 -234 -94t-100 -265z
M552 1248v23q0 35 13 65t32 51t38 40.5t32 41t13 43.5q0 68 -90 68q-80 0 -139 -49l-52 90q32 33 87 52t119 19q94 0 144 -43t50 -123q0 -39 -13.5 -70.5t-32.5 -52.5t-38.5 -41.5t-33 -47t-13.5 -57.5v-9h-116z" />
    <glyph glyph-name="uni1EBC" unicode="&#x1ebc;" 
d="M176 0v1420h908v-122h-781v-526h601v-122h-601v-528h781v-122h-908zM268 1566v70q0 230 194 230q83 0 200 -78q112 -76 164 -76q70 0 70 105v73h117v-63q0 -227 -173 -227q-83 0 -209 84q-105 70 -157 70q-88 0 -88 -108v-80h-118z" />
    <glyph glyph-name="uni1EBD" unicode="&#x1ebd;" 
d="M703 -20q-263 0 -407 146t-144 414q0 257 121 398.5t342 141.5q206 0 319.5 -128.5t113.5 -363.5q0 -62 -6 -104h-759q17 -183 131.5 -282t312.5 -99q124 0 250 28l19 -123q-137 -28 -293 -28zM283 598h637q0 171 -79.5 265t-223.5 94q-147 0 -234 -94t-100 -265z
M271 1256v40q0 250 194 250q40 0 77 -18t87 -53q112 -76 156 -76q68 0 68 111v90h116v-80q0 -240 -172 -240q-59 0 -180 77q-10 6 -33 22t-36 24.5t-31.5 16t-33.5 7.5q-94 0 -94 -121v-50h-118z" />
    <glyph glyph-name="uni1EBE" unicode="&#x1ebe;" 
d="M176 0v1420h908v-122h-781v-526h601v-122h-601v-528h781v-122h-908zM299 1580l277 260h112l277 -260h-159l-174 172l-174 -172h-159zM857 1828l223 250h176l-247 -250h-152z" />
    <glyph glyph-name="uni1EBF" unicode="&#x1ebf;" 
d="M703 -20q-263 0 -407 146t-144 414q0 257 121 398.5t342 141.5q206 0 319.5 -128.5t113.5 -363.5q0 -62 -6 -104h-759q17 -183 131.5 -282t312.5 -99q124 0 250 28l19 -123q-137 -28 -293 -28zM283 598h637q0 171 -79.5 265t-223.5 94q-147 0 -234 -94t-100 -265z
M284 1248l277 380h98l277 -380h-152l-174 261l-174 -261h-152zM896 1588l217 380h144l-230 -380h-131z" />
    <glyph glyph-name="uni1EC0" unicode="&#x1ec0;" 
d="M176 0v1420h908v-122h-781v-526h601v-122h-601v-528h781v-122h-908zM299 1580l277 260h112l277 -260h-159l-174 172l-174 -172h-159zM871 1828l-247 250h176l223 -250h-152z" />
    <glyph glyph-name="uni1EC1" unicode="&#x1ec1;" 
d="M703 -20q-263 0 -407 146t-144 414q0 257 121 398.5t342 141.5q206 0 319.5 -128.5t113.5 -363.5q0 -62 -6 -104h-759q17 -183 131.5 -282t312.5 -99q124 0 250 28l19 -123q-137 -28 -293 -28zM283 598h637q0 171 -79.5 265t-223.5 94q-147 0 -234 -94t-100 -265z
M284 1248l277 380h98l277 -380h-152l-174 261l-174 -261h-152zM926 1588l-230 380h144l217 -380h-131z" />
    <glyph glyph-name="uni1EC2" unicode="&#x1ec2;" 
d="M176 0v1420h908v-122h-781v-526h601v-122h-601v-528h781v-122h-908zM889 1777v21q0 24 16.5 42.5t53.5 42.5q44 26 62.5 47.5t18.5 45.5q0 68 -108 68q-106 0 -177 -53l-48 86q78 75 246 75q207 0 207 -156q0 -54 -28 -94.5t-98 -82.5q-29 -18 -29 -42h-116zM299 1580
l277 260h112l277 -260h-159l-174 172l-174 -172h-159z" />
    <glyph glyph-name="uni1EC3" unicode="&#x1ec3;" 
d="M703 -20q-263 0 -407 146t-144 414q0 257 121 398.5t342 141.5q206 0 319.5 -128.5t113.5 -363.5q0 -62 -6 -104h-759q17 -183 131.5 -282t312.5 -99q124 0 250 28l19 -123q-137 -28 -293 -28zM283 598h637q0 171 -79.5 265t-223.5 94q-147 0 -234 -94t-100 -265z
M284 1248l277 380h98l277 -380h-152l-174 261l-174 -261h-152zM909 1588v23q0 35 13 65t32 51t38 40.5t32 41t13 43.5q0 68 -90 68q-80 0 -139 -49l-52 90q32 33 87 52t119 19q94 0 144 -43t50 -123q0 -39 -13.5 -70.5t-33 -52.5t-38.5 -41.5t-32.5 -47t-13.5 -57.5v-9h-116
z" />
    <glyph glyph-name="uni1EC4" unicode="&#x1ec4;" 
d="M176 0v1420h908v-122h-781v-526h601v-122h-601v-528h781v-122h-908zM268 1946v70q0 230 194 230q83 0 200 -78q112 -76 164 -76q70 0 70 105v73h117v-63q0 -227 -173 -227q-83 0 -209 84q-105 70 -157 70q-88 0 -88 -108v-80h-118zM299 1580l277 260h112l277 -260h-159
l-174 172l-174 -172h-159z" />
    <glyph glyph-name="uni1EC5" unicode="&#x1ec5;" 
d="M703 -20q-263 0 -407 146t-144 414q0 257 121 398.5t342 141.5q206 0 319.5 -128.5t113.5 -363.5q0 -62 -6 -104h-759q17 -183 131.5 -282t312.5 -99q124 0 250 28l19 -123q-137 -28 -293 -28zM283 598h637q0 171 -79.5 265t-223.5 94q-147 0 -234 -94t-100 -265z
M271 1776v40q0 250 194 250q40 0 77 -18t87 -53q112 -76 156 -76q68 0 68 111v90h116v-80q0 -240 -172 -240q-59 0 -180 77q-10 6 -33 22t-36 24.5t-31.5 16t-33.5 7.5q-94 0 -94 -121v-50h-118zM284 1248l277 380h98l277 -380h-152l-174 261l-174 -261h-152z" />
    <glyph glyph-name="uni1EC6" unicode="&#x1ec6;" 
d="M176 0v1420h908v-122h-781v-526h601v-122h-601v-528h781v-122h-908zM299 1580l277 260h112l277 -260h-159l-174 172l-174 -172h-159zM630 -397q-46 0 -78.5 32t-32.5 78t32.5 79t78.5 33t78.5 -33t32.5 -79t-32.5 -78t-78.5 -32z" />
    <glyph glyph-name="uni1EC7" unicode="&#x1ec7;" 
d="M703 -20q-263 0 -407 146t-144 414q0 257 121 398.5t342 141.5q206 0 319.5 -128.5t113.5 -363.5q0 -62 -6 -104h-759q17 -183 131.5 -282t312.5 -99q124 0 250 28l19 -123q-137 -28 -293 -28zM283 598h637q0 171 -79.5 265t-223.5 94q-147 0 -234 -94t-100 -265z
M284 1248l277 380h98l277 -380h-152l-174 261l-174 -261h-152zM630 -397q-46 0 -78.5 32t-32.5 78t32.5 79t78.5 33t78.5 -33t32.5 -79t-32.5 -78t-78.5 -32z" />
    <glyph glyph-name="uni1EC8" unicode="&#x1ec8;" 
d="M184 0v122h352v1176h-352v122h832v-122h-354v-1176h354v-122h-832zM551 1529v21q0 24 16.5 42.5t53.5 42.5q44 26 62.5 47.5t18.5 45.5q0 68 -108 68q-106 0 -177 -53l-48 86q78 75 246 75q207 0 207 -156q0 -54 -28 -94.5t-98 -82.5q-29 -18 -29 -42h-116z" />
    <glyph glyph-name="uni1EC9" unicode="&#x1ec9;" 
d="M176 0v118h427v824h-367v118h501v-942h349v-118h-910zM592 1248v23q0 35 13 65t32 51t38 40.5t32 41t13 43.5q0 68 -90 68q-80 0 -139 -49l-52 90q32 33 87 52t119 19q94 0 144 -43t50 -123q0 -39 -13.5 -70.5t-32.5 -52.5t-38.5 -41.5t-33 -47t-13.5 -57.5v-9h-116z" />
    <glyph glyph-name="uni1ECA" unicode="&#x1eca;" 
d="M184 0v122h352v1176h-352v122h832v-122h-354v-1176h354v-122h-832zM600 -397q-46 0 -78.5 32t-32.5 78t32.5 79t78.5 33t78.5 -33t32.5 -79t-32.5 -78t-78.5 -32z" />
    <glyph glyph-name="uni1ECB" unicode="&#x1ecb;" 
d="M176 0v118h427v824h-367v118h501v-942h349v-118h-910zM660 1291q-48 0 -82 34t-34 82t34 82t82 34t82 -34t34 -82t-34 -82t-82 -34zM670 -397q-46 0 -78.5 32t-32.5 78t32.5 79t78.5 33t78.5 -33t32.5 -79t-32.5 -78t-78.5 -32z" />
    <glyph glyph-name="uni1ECC" unicode="&#x1ecc;" 
d="M600 -20q-508 0 -508 720q0 740 508 740t508 -740q0 -720 -508 -720zM600 95q377 0 377 605q0 619 -377 619t-377 -619q0 -605 377 -605zM600 -397q-46 0 -78.5 32t-32.5 78t32.5 79t78.5 33t78.5 -33t32.5 -79t-32.5 -78t-78.5 -32z" />
    <glyph glyph-name="uni1ECD" unicode="&#x1ecd;" 
d="M600 -20q-213 0 -330.5 144t-117.5 406t117.5 406t330.5 144t330.5 -144t117.5 -406t-117.5 -406t-330.5 -144zM600 105q149 0 230 111t81 314t-81 314t-230 111t-230 -111t-81 -314t81 -314t230 -111zM600 -397q-46 0 -78.5 32t-32.5 78t32.5 79t78.5 33t78.5 -33
t32.5 -79t-32.5 -78t-78.5 -32z" />
    <glyph glyph-name="uni1ECE" unicode="&#x1ece;" 
d="M600 -20q-508 0 -508 720q0 740 508 740t508 -740q0 -720 -508 -720zM600 95q377 0 377 605q0 619 -377 619t-377 -619q0 -605 377 -605zM551 1529v21q0 24 16.5 42.5t53.5 42.5q44 26 62.5 47.5t18.5 45.5q0 68 -108 68q-106 0 -177 -53l-48 86q78 75 246 75
q207 0 207 -156q0 -54 -28 -94.5t-98 -82.5q-29 -18 -29 -42h-116z" />
    <glyph glyph-name="uni1ECF" unicode="&#x1ecf;" 
d="M600 -20q-213 0 -330.5 144t-117.5 406t117.5 406t330.5 144t330.5 -144t117.5 -406t-117.5 -406t-330.5 -144zM600 105q149 0 230 111t81 314t-81 314t-230 111t-230 -111t-81 -314t81 -314t230 -111zM542 1248v23q0 35 13 65t32 51t38 40.5t32 41t13 43.5q0 68 -90 68
q-80 0 -139 -49l-52 90q32 33 87 52t119 19q94 0 144 -43t50 -123q0 -39 -13.5 -70.5t-32.5 -52.5t-38.5 -41.5t-33 -47t-13.5 -57.5v-9h-116z" />
    <glyph glyph-name="uni1ED0" unicode="&#x1ed0;" 
d="M600 -20q-508 0 -508 720q0 740 508 740t508 -740q0 -720 -508 -720zM600 95q377 0 377 605q0 619 -377 619t-377 -619q0 -605 377 -605zM269 1580l277 260h112l277 -260h-159l-174 172l-174 -172h-159zM827 1828l223 250h176l-247 -250h-152z" />
    <glyph glyph-name="uni1ED1" unicode="&#x1ed1;" 
d="M600 -20q-213 0 -330.5 144t-117.5 406t117.5 406t330.5 144t330.5 -144t117.5 -406t-117.5 -406t-330.5 -144zM600 105q149 0 230 111t81 314t-81 314t-230 111t-230 -111t-81 -314t81 -314t230 -111zM274 1248l277 380h98l277 -380h-152l-174 261l-174 -261h-152z
M886 1588l217 380h144l-230 -380h-131z" />
    <glyph glyph-name="uni1ED2" unicode="&#x1ed2;" 
d="M600 -20q-508 0 -508 720q0 740 508 740t508 -740q0 -720 -508 -720zM600 95q377 0 377 605q0 619 -377 619t-377 -619q0 -605 377 -605zM269 1580l277 260h112l277 -260h-159l-174 172l-174 -172h-159zM841 1828l-247 250h176l223 -250h-152z" />
    <glyph glyph-name="uni1ED3" unicode="&#x1ed3;" 
d="M600 -20q-213 0 -330.5 144t-117.5 406t117.5 406t330.5 144t330.5 -144t117.5 -406t-117.5 -406t-330.5 -144zM600 105q149 0 230 111t81 314t-81 314t-230 111t-230 -111t-81 -314t81 -314t230 -111zM274 1248l277 380h98l277 -380h-152l-174 261l-174 -261h-152z
M916 1588l-230 380h144l217 -380h-131z" />
    <glyph glyph-name="uni1ED4" unicode="&#x1ed4;" 
d="M600 -20q-508 0 -508 720q0 740 508 740t508 -740q0 -720 -508 -720zM600 95q377 0 377 605q0 619 -377 619t-377 -619q0 -605 377 -605zM859 1777v21q0 24 16.5 42.5t53.5 42.5q44 26 62.5 47.5t18.5 45.5q0 68 -108 68q-106 0 -177 -53l-48 86q78 75 246 75
q207 0 207 -156q0 -54 -28 -94.5t-98 -82.5q-29 -18 -29 -42h-116zM269 1580l277 260h112l277 -260h-159l-174 172l-174 -172h-159z" />
    <glyph glyph-name="uni1ED5" unicode="&#x1ed5;" 
d="M600 -20q-213 0 -330.5 144t-117.5 406t117.5 406t330.5 144t330.5 -144t117.5 -406t-117.5 -406t-330.5 -144zM600 105q149 0 230 111t81 314t-81 314t-230 111t-230 -111t-81 -314t81 -314t230 -111zM274 1248l277 380h98l277 -380h-152l-174 261l-174 -261h-152z
M899 1588v23q0 35 13 65t32 51t38 40.5t32 41t13 43.5q0 68 -90 68q-80 0 -139 -49l-52 90q32 33 87 52t119 19q94 0 144 -43t50 -123q0 -39 -13.5 -70.5t-33 -52.5t-38.5 -41.5t-32.5 -47t-13.5 -57.5v-9h-116z" />
    <glyph glyph-name="uni1ED6" unicode="&#x1ed6;" 
d="M600 -20q-508 0 -508 720q0 740 508 740t508 -740q0 -720 -508 -720zM600 95q377 0 377 605q0 619 -377 619t-377 -619q0 -605 377 -605zM238 1946v70q0 230 194 230q83 0 200 -78q112 -76 164 -76q70 0 70 105v73h117v-63q0 -227 -173 -227q-83 0 -209 84
q-105 70 -157 70q-88 0 -88 -108v-80h-118zM269 1580l277 260h112l277 -260h-159l-174 172l-174 -172h-159z" />
    <glyph glyph-name="uni1ED7" unicode="&#x1ed7;" 
d="M600 -20q-213 0 -330.5 144t-117.5 406t117.5 406t330.5 144t330.5 -144t117.5 -406t-117.5 -406t-330.5 -144zM600 105q149 0 230 111t81 314t-81 314t-230 111t-230 -111t-81 -314t81 -314t230 -111zM261 1776v40q0 250 194 250q40 0 77 -18t87 -53q112 -76 156 -76
q68 0 68 111v90h116v-80q0 -240 -172 -240q-59 0 -180 77q-10 6 -33 22t-36 24.5t-31.5 16t-33.5 7.5q-94 0 -94 -121v-50h-118zM274 1248l277 380h98l277 -380h-152l-174 261l-174 -261h-152z" />
    <glyph glyph-name="uni1ED8" unicode="&#x1ed8;" 
d="M600 -20q-508 0 -508 720q0 740 508 740t508 -740q0 -720 -508 -720zM600 95q377 0 377 605q0 619 -377 619t-377 -619q0 -605 377 -605zM269 1580l277 260h112l277 -260h-159l-174 172l-174 -172h-159zM600 -397q-46 0 -78.5 32t-32.5 78t32.5 79t78.5 33t78.5 -33
t32.5 -79t-32.5 -78t-78.5 -32z" />
    <glyph glyph-name="uni1ED9" unicode="&#x1ed9;" 
d="M600 -20q-213 0 -330.5 144t-117.5 406t117.5 406t330.5 144t330.5 -144t117.5 -406t-117.5 -406t-330.5 -144zM600 105q149 0 230 111t81 314t-81 314t-230 111t-230 -111t-81 -314t81 -314t230 -111zM274 1248l277 380h98l277 -380h-152l-174 261l-174 -261h-152z
M600 -397q-46 0 -78.5 32t-32.5 78t32.5 79t78.5 33t78.5 -33t32.5 -79t-32.5 -78t-78.5 -32z" />
    <glyph glyph-name="uni1EDA" unicode="&#x1eda;" 
d="M600 -20q-508 0 -508 720q0 740 508 740q169 0 281 -82l12 2q112 19 164 89t52 204h126q0 -168 -62.5 -263t-195.5 -130q131 -185 131 -560q0 -720 -508 -720zM600 95q377 0 377 605q0 619 -377 619t-377 -619q0 -605 377 -605zM519 1580l223 250h176l-247 -250h-152z
" />
    <glyph glyph-name="uni1EDB" unicode="&#x1edb;" 
d="M600 -20q-213 0 -330.5 144t-117.5 406t117.5 406t330.5 144q75 0 138 -18l50 8q124 21 185.5 88t61.5 185h134q0 -297 -270 -373q149 -143 149 -440q0 -262 -117.5 -406t-330.5 -144zM600 105q149 0 230 111t81 314t-81 314t-230 111t-230 -111t-81 -314t81 -314
t230 -111zM529 1248l217 380h144l-230 -380h-131z" />
    <glyph glyph-name="uni1EDC" unicode="&#x1edc;" 
d="M600 -20q-508 0 -508 720q0 740 508 740q169 0 281 -82l12 2q112 19 164 89t52 204h126q0 -168 -62.5 -263t-195.5 -130q131 -185 131 -560q0 -720 -508 -720zM600 95q377 0 377 605q0 619 -377 619t-377 -619q0 -605 377 -605zM533 1580l-247 250h176l223 -250h-152z
" />
    <glyph glyph-name="uni1EDD" unicode="&#x1edd;" 
d="M600 -20q-213 0 -330.5 144t-117.5 406t117.5 406t330.5 144q75 0 138 -18l50 8q124 21 185.5 88t61.5 185h134q0 -297 -270 -373q149 -143 149 -440q0 -262 -117.5 -406t-330.5 -144zM600 105q149 0 230 111t81 314t-81 314t-230 111t-230 -111t-81 -314t81 -314
t230 -111zM559 1248l-230 380h144l217 -380h-131z" />
    <glyph glyph-name="uni1EDE" unicode="&#x1ede;" 
d="M600 -20q-508 0 -508 720q0 740 508 740q169 0 281 -82l12 2q112 19 164 89t52 204h126q0 -168 -62.5 -263t-195.5 -130q131 -185 131 -560q0 -720 -508 -720zM600 95q377 0 377 605q0 619 -377 619t-377 -619q0 -605 377 -605zM551 1529v21q0 24 16.5 42.5t53.5 42.5
q44 26 62.5 47.5t18.5 45.5q0 68 -108 68q-106 0 -177 -53l-48 86q78 75 246 75q207 0 207 -156q0 -54 -28 -94.5t-98 -82.5q-29 -18 -29 -42h-116z" />
    <glyph glyph-name="uni1EDF" unicode="&#x1edf;" 
d="M600 -20q-213 0 -330.5 144t-117.5 406t117.5 406t330.5 144q75 0 138 -18l50 8q124 21 185.5 88t61.5 185h134q0 -297 -270 -373q149 -143 149 -440q0 -262 -117.5 -406t-330.5 -144zM600 105q149 0 230 111t81 314t-81 314t-230 111t-230 -111t-81 -314t81 -314
t230 -111zM542 1248v23q0 35 13 65t32 51t38 40.5t32 41t13 43.5q0 68 -90 68q-80 0 -139 -49l-52 90q32 33 87 52t119 19q94 0 144 -43t50 -123q0 -39 -13.5 -70.5t-32.5 -52.5t-38.5 -41.5t-33 -47t-13.5 -57.5v-9h-116z" />
    <glyph glyph-name="uni1EE0" unicode="&#x1ee0;" 
d="M600 -20q-508 0 -508 720q0 740 508 740q169 0 281 -82l12 2q112 19 164 89t52 204h126q0 -168 -62.5 -263t-195.5 -130q131 -185 131 -560q0 -720 -508 -720zM600 95q377 0 377 605q0 619 -377 619t-377 -619q0 -605 377 -605zM238 1566v70q0 230 194 230q83 0 200 -78
q112 -76 164 -76q70 0 70 105v73h117v-63q0 -227 -173 -227q-83 0 -209 84q-105 70 -157 70q-88 0 -88 -108v-80h-118z" />
    <glyph glyph-name="uni1EE1" unicode="&#x1ee1;" 
d="M600 -20q-213 0 -330.5 144t-117.5 406t117.5 406t330.5 144q75 0 138 -18l50 8q124 21 185.5 88t61.5 185h134q0 -297 -270 -373q149 -143 149 -440q0 -262 -117.5 -406t-330.5 -144zM600 105q149 0 230 111t81 314t-81 314t-230 111t-230 -111t-81 -314t81 -314
t230 -111zM261 1256v40q0 250 194 250q40 0 77 -18t87 -53q112 -76 156 -76q68 0 68 111v90h116v-80q0 -240 -172 -240q-59 0 -180 77q-10 6 -33 22t-36 24.5t-31.5 16t-33.5 7.5q-94 0 -94 -121v-50h-118z" />
    <glyph glyph-name="uni1EE2" unicode="&#x1ee2;" 
d="M600 -20q-508 0 -508 720q0 740 508 740q169 0 281 -82l12 2q112 19 164 89t52 204h126q0 -168 -62.5 -263t-195.5 -130q131 -185 131 -560q0 -720 -508 -720zM600 95q377 0 377 605q0 619 -377 619t-377 -619q0 -605 377 -605zM600 -397q-46 0 -78.5 32t-32.5 78
t32.5 79t78.5 33t78.5 -33t32.5 -79t-32.5 -78t-78.5 -32z" />
    <glyph glyph-name="uni1EE3" unicode="&#x1ee3;" 
d="M600 -20q-213 0 -330.5 144t-117.5 406t117.5 406t330.5 144q75 0 138 -18l50 8q124 21 185.5 88t61.5 185h134q0 -297 -270 -373q149 -143 149 -440q0 -262 -117.5 -406t-330.5 -144zM600 105q149 0 230 111t81 314t-81 314t-230 111t-230 -111t-81 -314t81 -314
t230 -111zM600 -397q-46 0 -78.5 32t-32.5 78t32.5 79t78.5 33t78.5 -33t32.5 -79t-32.5 -78t-78.5 -32z" />
    <glyph glyph-name="uni1EE4" unicode="&#x1ee4;" 
d="M596 -20q-440 0 -440 476v964h127v-964q0 -178 77 -265.5t240 -87.5q317 0 317 353v964h127v-964q0 -237 -113.5 -356.5t-334.5 -119.5zM600 -397q-46 0 -78.5 32t-32.5 78t32.5 79t78.5 33t78.5 -33t32.5 -79t-32.5 -78t-78.5 -32z" />
    <glyph glyph-name="uni1EE5" unicode="&#x1ee5;" 
d="M529 -20q-175 0 -271 99t-96 281v700h133v-700q0 -122 68.5 -188.5t192.5 -66.5q150 0 223.5 90.5t73.5 294.5v570h133v-947l146 -14v-99l-261 -10l-15 214h-13q-28 -107 -110.5 -165.5t-203.5 -58.5zM560 -397q-46 0 -78.5 32t-32.5 78t32.5 79t78.5 33t78.5 -33
t32.5 -79t-32.5 -78t-78.5 -32z" />
    <glyph glyph-name="uni1EE6" unicode="&#x1ee6;" 
d="M596 -20q-440 0 -440 476v964h127v-964q0 -178 77 -265.5t240 -87.5q317 0 317 353v964h127v-964q0 -237 -113.5 -356.5t-334.5 -119.5zM551 1529v21q0 24 16.5 42.5t53.5 42.5q44 26 62.5 47.5t18.5 45.5q0 68 -108 68q-106 0 -177 -53l-48 86q78 75 246 75
q207 0 207 -156q0 -54 -28 -94.5t-98 -82.5q-29 -18 -29 -42h-116z" />
    <glyph glyph-name="uni1EE7" unicode="&#x1ee7;" 
d="M529 -20q-175 0 -271 99t-96 281v700h133v-700q0 -122 68.5 -188.5t192.5 -66.5q150 0 223.5 90.5t73.5 294.5v570h133v-947l146 -14v-99l-261 -10l-15 214h-13q-28 -107 -110.5 -165.5t-203.5 -58.5zM522 1248v23q0 35 13 65t32 51t38 40.5t32 41t13 43.5q0 68 -90 68
q-80 0 -139 -49l-52 90q32 33 87 52t119 19q94 0 144 -43t50 -123q0 -39 -13.5 -70.5t-32.5 -52.5t-38.5 -41.5t-33 -47t-13.5 -57.5v-9h-116z" />
    <glyph glyph-name="uni1EE8" unicode="&#x1ee8;" 
d="M596 -20q-440 0 -440 476v964h127v-964q0 -178 77 -265.5t240 -87.5q317 0 317 353v964h2l60 10q94 16 137 68.5t43 154.5h126q0 -142 -58 -220.5t-183 -107.5v-869q0 -237 -113.5 -356.5t-334.5 -119.5zM519 1580l223 250h176l-247 -250h-152z" />
    <glyph glyph-name="uni1EE9" unicode="&#x1ee9;" 
d="M529 -20q-175 0 -271 99t-96 281v700h133v-700q0 -122 68.5 -188.5t192.5 -66.5q150 0 223.5 90.5t73.5 294.5v570l40 10q182 44 182 273h137q0 -143 -55.5 -231t-170.5 -128v-871l146 -14v-99l-261 -10l-15 214h-13q-28 -107 -110.5 -165.5t-203.5 -58.5zM509 1248
l217 380h144l-230 -380h-131z" />
    <glyph glyph-name="uni1EEA" unicode="&#x1eea;" 
d="M596 -20q-440 0 -440 476v964h127v-964q0 -178 77 -265.5t240 -87.5q317 0 317 353v964h2l60 10q94 16 137 68.5t43 154.5h126q0 -142 -58 -220.5t-183 -107.5v-869q0 -237 -113.5 -356.5t-334.5 -119.5zM533 1580l-247 250h176l223 -250h-152z" />
    <glyph glyph-name="uni1EEB" unicode="&#x1eeb;" 
d="M529 -20q-175 0 -271 99t-96 281v700h133v-700q0 -122 68.5 -188.5t192.5 -66.5q150 0 223.5 90.5t73.5 294.5v570l40 10q182 44 182 273h137q0 -143 -55.5 -231t-170.5 -128v-871l146 -14v-99l-261 -10l-15 214h-13q-28 -107 -110.5 -165.5t-203.5 -58.5zM539 1248
l-230 380h144l217 -380h-131z" />
    <glyph glyph-name="uni1EEC" unicode="&#x1eec;" 
d="M596 -20q-440 0 -440 476v964h127v-964q0 -178 77 -265.5t240 -87.5q317 0 317 353v964h2l60 10q94 16 137 68.5t43 154.5h126q0 -142 -58 -220.5t-183 -107.5v-869q0 -237 -113.5 -356.5t-334.5 -119.5zM551 1529v21q0 24 16.5 42.5t53.5 42.5q44 26 62.5 47.5
t18.5 45.5q0 68 -108 68q-106 0 -177 -53l-48 86q78 75 246 75q207 0 207 -156q0 -54 -28 -94.5t-98 -82.5q-29 -18 -29 -42h-116z" />
    <glyph glyph-name="uni1EED" unicode="&#x1eed;" 
d="M529 -20q-175 0 -271 99t-96 281v700h133v-700q0 -122 68.5 -188.5t192.5 -66.5q150 0 223.5 90.5t73.5 294.5v570l40 10q182 44 182 273h137q0 -143 -55.5 -231t-170.5 -128v-871l146 -14v-99l-261 -10l-15 214h-13q-28 -107 -110.5 -165.5t-203.5 -58.5zM522 1248v23
q0 35 13 65t32 51t38 40.5t32 41t13 43.5q0 68 -90 68q-80 0 -139 -49l-52 90q32 33 87 52t119 19q94 0 144 -43t50 -123q0 -39 -13.5 -70.5t-32.5 -52.5t-38.5 -41.5t-33 -47t-13.5 -57.5v-9h-116z" />
    <glyph glyph-name="uni1EEE" unicode="&#x1eee;" 
d="M596 -20q-440 0 -440 476v964h127v-964q0 -178 77 -265.5t240 -87.5q317 0 317 353v964h2l60 10q94 16 137 68.5t43 154.5h126q0 -142 -58 -220.5t-183 -107.5v-869q0 -237 -113.5 -356.5t-334.5 -119.5zM238 1566v70q0 230 194 230q83 0 200 -78q112 -76 164 -76
q70 0 70 105v73h117v-63q0 -227 -173 -227q-83 0 -209 84q-105 70 -157 70q-88 0 -88 -108v-80h-118z" />
    <glyph glyph-name="uni1EEF" unicode="&#x1eef;" 
d="M529 -20q-175 0 -271 99t-96 281v700h133v-700q0 -122 68.5 -188.5t192.5 -66.5q150 0 223.5 90.5t73.5 294.5v570l40 10q182 44 182 273h137q0 -143 -55.5 -231t-170.5 -128v-871l146 -14v-99l-261 -10l-15 214h-13q-28 -107 -110.5 -165.5t-203.5 -58.5zM241 1256v40
q0 250 194 250q40 0 77 -18t87 -53q112 -76 156 -76q68 0 68 111v90h116v-80q0 -240 -172 -240q-59 0 -180 77q-10 6 -33 22t-36 24.5t-31.5 16t-33.5 7.5q-94 0 -94 -121v-50h-118z" />
    <glyph glyph-name="uni1EF0" unicode="&#x1ef0;" 
d="M596 -20q-440 0 -440 476v964h127v-964q0 -178 77 -265.5t240 -87.5q317 0 317 353v964h2l60 10q94 16 137 68.5t43 154.5h126q0 -142 -58 -220.5t-183 -107.5v-869q0 -237 -113.5 -356.5t-334.5 -119.5zM600 -397q-46 0 -78.5 32t-32.5 78t32.5 79t78.5 33t78.5 -33
t32.5 -79t-32.5 -78t-78.5 -32z" />
    <glyph glyph-name="uni1EF1" unicode="&#x1ef1;" 
d="M529 -20q-175 0 -271 99t-96 281v700h133v-700q0 -122 68.5 -188.5t192.5 -66.5q150 0 223.5 90.5t73.5 294.5v570l40 10q182 44 182 273h137q0 -143 -55.5 -231t-170.5 -128v-871l146 -14v-99l-261 -10l-15 214h-13q-28 -107 -110.5 -165.5t-203.5 -58.5zM560 -397
q-46 0 -78.5 32t-32.5 78t32.5 79t78.5 33t78.5 -33t32.5 -79t-32.5 -78t-78.5 -32z" />
    <glyph glyph-name="Ygrave" unicode="&#x1ef2;" 
d="M537 0v507l-496 913h139l414 -780h12l414 780h139l-496 -913v-507h-126zM533 1580l-247 250h176l223 -250h-152z" />
    </font>
</defs>
</svg>
