<svg width="319" height="62" viewBox="0 0 319 62" fill="none" xmlns="http://www.w3.org/2000/svg">
<path d="M33.408 0.276184L24.84 25.5482H22.284L16.992 10.0322L11.772 25.5482H9.21604L0.540039 0.276184H3.56404L10.476 20.6162L15.336 6.25218H18.684L23.544 20.5802L30.42 0.276184H33.408Z" fill="white"/>
<path d="M78.1144 25.5482H75.2344V22.7762C74.4664 23.8562 73.4944 24.6122 72.3184 25.0442C71.1424 25.4762 69.8464 25.6922 68.4304 25.6922C65.1424 25.6922 62.6944 24.9122 61.0864 23.3522C59.5024 21.7922 58.7104 19.3082 58.7104 15.9002C58.7104 12.5402 59.5024 10.0682 61.0864 8.48418C62.6704 6.90018 65.1064 6.10818 68.3944 6.10818C71.7064 6.10818 74.1544 6.90018 75.7384 8.48418C77.3224 10.0682 78.1144 12.5402 78.1144 15.9002V25.5482ZM68.3944 8.59218C67.0984 8.59218 66.0064 8.73618 65.1184 9.02418C64.2544 9.28818 63.5464 9.72018 62.9944 10.3202C62.4664 10.8962 62.0824 11.6522 61.8424 12.5882C61.6024 13.5002 61.4824 14.6042 61.4824 15.9002C61.4824 17.1962 61.6024 18.3122 61.8424 19.2482C62.0824 20.1602 62.4784 20.9162 63.0304 21.5162C63.5824 22.0922 64.2904 22.5242 65.1544 22.8122C66.0424 23.0762 67.1344 23.2082 68.4304 23.2082C69.7264 23.2082 70.8064 23.0762 71.6704 22.8122C72.5584 22.5242 73.2664 22.0922 73.7944 21.5162C74.3464 20.9162 74.7304 20.1602 74.9464 19.2482C75.1864 18.3122 75.3064 17.1962 75.3064 15.9002C75.3064 14.6042 75.1864 13.5002 74.9464 12.5882C74.7064 11.6522 74.3104 10.8962 73.7584 10.3202C73.2304 9.72018 72.5224 9.28818 71.6344 9.02418C70.7704 8.73618 69.6904 8.59218 68.3944 8.59218Z" fill="white"/>
<path d="M84.9485 25.5482H82.1765V0.348183H84.9485V25.5482Z" fill="white"/>
<path d="M101.337 25.5482C99.8492 25.5482 98.4932 25.4162 97.2692 25.1522C96.0692 24.8882 95.0252 24.4322 94.1372 23.7842C93.2492 23.1362 92.5532 22.2722 92.0492 21.1922C91.5452 20.1122 91.2572 18.7442 91.1852 17.0882V8.37618H87.9452V6.28818H91.1852V0.348183H94.0652V6.28818H101.445V8.37618H94.0652V16.9802C94.0652 18.2042 94.2452 19.2122 94.6052 20.0042C94.9652 20.7722 95.4572 21.3842 96.0812 21.8402C96.7292 22.2962 97.4972 22.6202 98.3852 22.8122C99.2732 23.0042 100.257 23.1002 101.337 23.1002V25.5482Z" fill="white"/>
<path d="M121.2 25.5482V14.9282C121.152 13.7522 120.984 12.7682 120.696 11.9762C120.432 11.1602 120.024 10.5122 119.472 10.0322C118.92 9.55218 118.224 9.20418 117.384 8.98818C116.544 8.77218 115.536 8.66418 114.36 8.66418C113.352 8.66418 112.428 8.76019 111.588 8.95218C110.772 9.12018 110.064 9.42018 109.464 9.85218C108.864 10.2842 108.396 10.8602 108.06 11.5802C107.724 12.2762 107.556 13.1522 107.556 14.2082V25.5122H104.712V0.276184H107.556V9.67218C107.892 8.97618 108.3 8.41218 108.78 7.98018C109.284 7.52418 109.824 7.17618 110.4 6.93618C111 6.67218 111.624 6.49218 112.272 6.39618C112.944 6.30018 113.64 6.25218 114.36 6.25218C116.448 6.25218 118.128 6.52818 119.4 7.08018C120.672 7.63218 121.656 8.32818 122.352 9.16818C123.048 10.0082 123.504 10.9322 123.72 11.9402C123.96 12.9482 124.08 13.9082 124.08 14.8202V25.5482H121.2Z" fill="white"/>
<path d="M127.08 25.5482V22.7042H129.96V25.5482C129.96 25.8122 129.924 26.1002 129.852 26.4122C129.804 26.7242 129.732 27.0122 129.636 27.2762C129.54 27.5642 129.42 27.8042 129.276 27.9962C129.156 28.1882 129.036 28.2962 128.916 28.3202H127.368C127.44 28.2482 127.536 28.0922 127.656 27.8522C127.776 27.6122 127.872 27.3482 127.944 27.0602C128.04 26.7722 128.112 26.4842 128.16 26.1962C128.232 25.9322 128.244 25.7162 128.196 25.5482H127.08Z" fill="white"/>
<path d="M156.884 25.5482C155.396 25.5482 154.04 25.4162 152.816 25.1522C151.616 24.8882 150.572 24.4322 149.684 23.7842C148.796 23.1362 148.1 22.2722 147.596 21.1922C147.092 20.1122 146.804 18.7442 146.732 17.0882V8.37618H143.492V6.28818H146.732V0.348183H149.612V6.28818H156.992V8.37618H149.612V16.9802C149.612 18.2042 149.792 19.2122 150.152 20.0042C150.512 20.7722 151.004 21.3842 151.628 21.8402C152.276 22.2962 153.044 22.6202 153.932 22.8122C154.82 23.0042 155.804 23.1002 156.884 23.1002V25.5482Z" fill="white"/>
<path d="M178.486 15.9002C178.486 19.2602 177.694 21.7322 176.11 23.3162C174.55 24.9002 172.102 25.6922 168.766 25.6922C165.43 25.6922 162.982 24.9002 161.422 23.3162C159.862 21.7322 159.082 19.2602 159.082 15.9002C159.082 12.5402 159.862 10.0682 161.422 8.48418C162.982 6.90018 165.43 6.10818 168.766 6.10818C172.102 6.10818 174.55 6.90018 176.11 8.48418C177.694 10.0682 178.486 12.5402 178.486 15.9002ZM175.678 15.9002C175.678 14.6282 175.558 13.5242 175.318 12.5882C175.102 11.6522 174.718 10.8842 174.166 10.2842C173.638 9.66018 172.93 9.20419 172.042 8.91619C171.154 8.62818 170.062 8.48418 168.766 8.48418C167.47 8.48418 166.378 8.62818 165.49 8.91619C164.626 9.20419 163.918 9.66018 163.366 10.2842C162.838 10.8842 162.454 11.6522 162.214 12.5882C161.974 13.5242 161.854 14.6282 161.854 15.9002C161.854 17.1722 161.974 18.2762 162.214 19.2122C162.454 20.1482 162.838 20.9162 163.366 21.5162C163.918 22.1162 164.626 22.5602 165.49 22.8482C166.378 23.1362 167.47 23.2802 168.766 23.2802C170.062 23.2802 171.154 23.1362 172.042 22.8482C172.93 22.5602 173.638 22.1162 174.166 21.5162C174.718 20.9162 175.102 20.1482 175.318 19.2122C175.558 18.2762 175.678 17.1722 175.678 15.9002Z" fill="white"/>
<path d="M184.97 0.276184V15.3962L194.402 6.28818H198.254L190.514 13.7402L202.214 25.5482H198.434L188.57 15.5762L184.97 19.0682V25.5482H182.126V0.276184H184.97Z" fill="white"/>
<path d="M211.129 6.10818C213.001 6.10818 214.573 6.36018 215.845 6.86418C217.141 7.34418 218.161 8.05218 218.905 8.98818C219.673 9.92418 220.189 11.0762 220.453 12.4442C220.741 13.8122 220.837 15.3842 220.741 17.1602H204.289C204.409 19.3442 205.021 20.9162 206.125 21.8762C207.229 22.8122 208.909 23.2802 211.165 23.2802C212.581 23.2802 213.769 23.1122 214.729 22.7762C215.689 22.4162 216.373 21.7922 216.781 20.9042C217.117 20.5442 217.369 20.0522 217.537 19.4282H220.381C220.069 20.6282 219.637 21.6362 219.085 22.4522C218.533 23.2442 217.861 23.8802 217.069 24.3602C216.301 24.8402 215.413 25.1882 214.405 25.4042C213.421 25.5962 212.317 25.6922 211.093 25.6922C207.805 25.6922 205.369 24.9002 203.785 23.3162C202.225 21.7082 201.445 19.2482 201.445 15.9362C201.445 12.6002 202.237 10.1282 203.821 8.52018C205.405 6.91218 207.841 6.10818 211.129 6.10818ZM211.165 8.55618C208.789 8.55618 207.061 9.06018 205.981 10.0682C204.901 11.0762 204.325 12.6842 204.253 14.8922H217.969C217.921 12.6842 217.369 11.0762 216.313 10.0682C215.257 9.06018 213.541 8.55618 211.165 8.55618Z" fill="white"/>
<path d="M240.835 25.5482C240.835 25.1162 240.835 24.5882 240.835 23.9642C240.835 23.3162 240.835 22.6562 240.835 21.9842C240.859 21.2882 240.871 20.6282 240.871 20.0042C240.871 19.3562 240.871 18.8162 240.871 18.3842C240.871 16.9442 240.835 15.6242 240.763 14.4242C240.691 13.2242 240.439 12.2042 240.007 11.3642C239.575 10.5002 238.891 9.82818 237.955 9.34818C237.043 8.86818 235.735 8.62818 234.031 8.62818C232.447 8.62818 231.199 8.86818 230.287 9.34818C229.399 9.80418 228.727 10.4402 228.271 11.2562C227.815 12.0722 227.527 13.0442 227.407 14.1722C227.311 15.3002 227.263 16.5362 227.263 17.8802V25.5482H224.419V6.25218H227.263V9.67218C227.623 8.97618 228.043 8.41218 228.523 7.98018C229.027 7.52418 229.567 7.17618 230.143 6.93618C230.743 6.67218 231.367 6.49218 232.015 6.39618C232.663 6.30018 233.335 6.25218 234.031 6.25218C235.447 6.25218 236.743 6.40818 237.919 6.72018C239.119 7.03218 240.139 7.53618 240.979 8.23218C241.843 8.90418 242.515 9.76818 242.995 10.8242C243.475 11.8802 243.715 13.1522 243.715 14.6402V25.5482H240.835Z" fill="white"/>
<path d="M248.079 4.95618V2.36418H250.959V4.95618H248.079ZM248.079 25.5482V6.25218H250.959V25.5482H248.079Z" fill="white"/>
<path d="M273.177 6.86418V8.98818L258.885 23.0642H274.041V25.5482H254.637V23.4242L269.109 9.31218H254.637V6.86418H273.177Z" fill="white"/>
<path d="M286.68 6.10818C288.552 6.10818 290.124 6.36018 291.396 6.86418C292.692 7.34418 293.712 8.05218 294.456 8.98818C295.224 9.92418 295.74 11.0762 296.004 12.4442C296.292 13.8122 296.388 15.3842 296.292 17.1602H279.84C279.96 19.3442 280.572 20.9162 281.676 21.8762C282.78 22.8122 284.46 23.2802 286.716 23.2802C288.132 23.2802 289.32 23.1122 290.28 22.7762C291.24 22.4162 291.924 21.7922 292.332 20.9042C292.668 20.5442 292.92 20.0522 293.088 19.4282H295.932C295.62 20.6282 295.188 21.6362 294.636 22.4522C294.084 23.2442 293.412 23.8802 292.62 24.3602C291.852 24.8402 290.964 25.1882 289.956 25.4042C288.972 25.5962 287.868 25.6922 286.644 25.6922C283.356 25.6922 280.92 24.9002 279.336 23.3162C277.776 21.7082 276.996 19.2482 276.996 15.9362C276.996 12.6002 277.788 10.1282 279.372 8.52018C280.956 6.91218 283.392 6.10818 286.68 6.10818ZM286.716 8.55618C284.34 8.55618 282.612 9.06018 281.532 10.0682C280.452 11.0762 279.876 12.6842 279.804 14.8922H293.52C293.472 12.6842 292.92 11.0762 291.864 10.0682C290.808 9.06018 289.092 8.55618 286.716 8.55618Z" fill="white"/>
<path d="M315.773 0.276184H318.617V25.5122H315.773V22.0562C315.125 23.4482 314.201 24.3962 313.001 24.9002C311.825 25.3802 310.469 25.6202 308.933 25.6202C307.493 25.6202 306.173 25.4642 304.973 25.1522C303.797 24.8402 302.777 24.3242 301.913 23.6042C301.073 22.8602 300.413 21.8642 299.933 20.6162C299.477 19.3682 299.249 17.8082 299.249 15.9362C299.249 14.0642 299.477 12.5162 299.933 11.2922C300.413 10.0442 301.073 9.04818 301.913 8.30418C302.777 7.56018 303.797 7.04418 304.973 6.75618C306.173 6.44418 307.493 6.28818 308.933 6.28818C310.469 6.28818 311.825 6.51618 313.001 6.97218C314.201 7.42818 315.125 8.34018 315.773 9.70818V0.276184ZM308.933 8.77218C307.661 8.77218 306.581 8.90418 305.693 9.16818C304.829 9.43218 304.133 9.85218 303.605 10.4282C303.077 11.0042 302.693 11.7482 302.453 12.6602C302.237 13.5722 302.129 14.6642 302.129 15.9362C302.129 17.1842 302.225 18.2642 302.417 19.1762C302.633 20.0642 302.993 20.8082 303.497 21.4082C304.025 22.0082 304.721 22.4522 305.585 22.7402C306.473 23.0282 307.601 23.1722 308.969 23.1722C310.217 23.1722 311.273 23.0282 312.137 22.7402C313.001 22.4282 313.697 21.9842 314.225 21.4082C314.777 20.8082 315.173 20.0522 315.413 19.1402C315.653 18.2282 315.773 17.1602 315.773 15.9362C315.773 14.6642 315.653 13.5722 315.413 12.6602C315.197 11.7482 314.813 11.0042 314.261 10.4282C313.733 9.85218 313.037 9.43218 312.173 9.16818C311.309 8.90418 310.229 8.77218 308.933 8.77218Z" fill="white"/>
<path d="M20.88 61.5482H18V58.7762C17.232 59.8562 16.26 60.6122 15.084 61.0442C13.908 61.4762 12.612 61.6922 11.196 61.6922C7.90804 61.6922 5.46004 60.9122 3.85204 59.3522C2.26804 57.7922 1.47604 55.3082 1.47604 51.9002C1.47604 48.5402 2.26804 46.0682 3.85204 44.4842C5.43604 42.9002 7.87204 42.1082 11.16 42.1082C14.472 42.1082 16.92 42.9002 18.504 44.4842C20.088 46.0682 20.88 48.5402 20.88 51.9002V61.5482ZM11.16 44.5922C9.86404 44.5922 8.77204 44.7362 7.88404 45.0242C7.02004 45.2882 6.31204 45.7202 5.76004 46.3202C5.23204 46.8962 4.84804 47.6522 4.60804 48.5882C4.36804 49.5002 4.24804 50.6042 4.24804 51.9002C4.24804 53.1962 4.36804 54.3122 4.60804 55.2482C4.84804 56.1602 5.24404 56.9162 5.79604 57.5162C6.34804 58.0922 7.05604 58.5242 7.92004 58.8122C8.80804 59.0762 9.90004 59.2082 11.196 59.2082C12.492 59.2082 13.572 59.0762 14.436 58.8122C15.324 58.5242 16.032 58.0922 16.56 57.5162C17.112 56.9162 17.496 56.1602 17.712 55.2482C17.952 54.3122 18.072 53.1962 18.072 51.9002C18.072 50.6042 17.952 49.5002 17.712 48.5882C17.472 47.6522 17.076 46.8962 16.524 46.3202C15.996 45.7202 15.288 45.2882 14.4 45.0242C13.536 44.7362 12.456 44.5922 11.16 44.5922Z" fill="white"/>
<path d="M41.3581 61.5482C41.3581 61.1162 41.3581 60.5882 41.3581 59.9642C41.3581 59.3162 41.3581 58.6562 41.3581 57.9842C41.3821 57.2882 41.3941 56.6282 41.3941 56.0042C41.3941 55.3562 41.3941 54.8162 41.3941 54.3842C41.3941 52.9442 41.3581 51.6242 41.2861 50.4242C41.2141 49.2242 40.9621 48.2042 40.5301 47.3642C40.0981 46.5002 39.4141 45.8282 38.4781 45.3482C37.5661 44.8682 36.2581 44.6282 34.5541 44.6282C32.9701 44.6282 31.7221 44.8682 30.8101 45.3482C29.9221 45.8042 29.2501 46.4402 28.7941 47.2562C28.3381 48.0722 28.0501 49.0442 27.9301 50.1722C27.8341 51.3002 27.7861 52.5362 27.7861 53.8802V61.5482H24.9421V42.2522H27.7861V45.6722C28.1461 44.9762 28.5661 44.4122 29.0461 43.9802C29.5501 43.5242 30.0901 43.1762 30.6661 42.9362C31.2661 42.6722 31.8901 42.4922 32.5381 42.3962C33.1861 42.3002 33.8581 42.2522 34.5541 42.2522C35.9701 42.2522 37.2661 42.4082 38.4421 42.7202C39.6421 43.0322 40.6621 43.5362 41.5021 44.2322C42.3661 44.9042 43.0381 45.7682 43.5181 46.8242C43.9981 47.8802 44.2381 49.1522 44.2381 50.6402V61.5482H41.3581Z" fill="white"/>
<path d="M64.4063 36.2762H67.2503V61.5122H64.4063V58.0562C63.7583 59.4482 62.8343 60.3962 61.6343 60.9002C60.4583 61.3802 59.1023 61.6202 57.5663 61.6202C56.1263 61.6202 54.8063 61.4642 53.6063 61.1522C52.4303 60.8402 51.4103 60.3242 50.5463 59.6042C49.7063 58.8602 49.0463 57.8642 48.5663 56.6162C48.1103 55.3682 47.8823 53.8082 47.8823 51.9362C47.8823 50.0642 48.1103 48.5162 48.5663 47.2922C49.0463 46.0442 49.7063 45.0482 50.5463 44.3042C51.4103 43.5602 52.4303 43.0442 53.6063 42.7562C54.8063 42.4442 56.1263 42.2882 57.5663 42.2882C59.1023 42.2882 60.4583 42.5162 61.6343 42.9722C62.8343 43.4282 63.7583 44.3402 64.4063 45.7082V36.2762ZM57.5663 44.7722C56.2943 44.7722 55.2143 44.9042 54.3263 45.1682C53.4623 45.4322 52.7663 45.8522 52.2383 46.4282C51.7103 47.0042 51.3263 47.7482 51.0863 48.6602C50.8703 49.5722 50.7623 50.6642 50.7623 51.9362C50.7623 53.1842 50.8583 54.2642 51.0503 55.1762C51.2663 56.0642 51.6263 56.8082 52.1303 57.4082C52.6583 58.0082 53.3543 58.4522 54.2183 58.7402C55.1063 59.0282 56.2343 59.1722 57.6023 59.1722C58.8503 59.1722 59.9063 59.0282 60.7703 58.7402C61.6343 58.4282 62.3303 57.9842 62.8583 57.4082C63.4103 56.8082 63.8063 56.0522 64.0463 55.1402C64.2863 54.2282 64.4063 53.1602 64.4063 51.9362C64.4063 50.6642 64.2863 49.5722 64.0463 48.6602C63.8303 47.7482 63.4463 47.0042 62.8943 46.4282C62.3663 45.8522 61.6703 45.4322 60.8063 45.1682C59.9423 44.9042 58.8623 44.7722 57.5663 44.7722Z" fill="white"/>
<path d="M99.0704 36.2762H101.914V61.5122H99.0704V58.0562C98.4224 59.4482 97.4983 60.3962 96.2983 60.9002C95.1223 61.3802 93.7664 61.6202 92.2304 61.6202C90.7904 61.6202 89.4703 61.4642 88.2703 61.1522C87.0943 60.8402 86.0744 60.3242 85.2104 59.6042C84.3704 58.8602 83.7104 57.8642 83.2304 56.6162C82.7744 55.3682 82.5463 53.8082 82.5463 51.9362C82.5463 50.0642 82.7744 48.5162 83.2304 47.2922C83.7104 46.0442 84.3704 45.0482 85.2104 44.3042C86.0744 43.5602 87.0943 43.0442 88.2703 42.7562C89.4703 42.4442 90.7904 42.2882 92.2304 42.2882C93.7664 42.2882 95.1223 42.5162 96.2983 42.9722C97.4983 43.4282 98.4224 44.3402 99.0704 45.7082V36.2762ZM92.2304 44.7722C90.9584 44.7722 89.8783 44.9042 88.9903 45.1682C88.1263 45.4322 87.4304 45.8522 86.9024 46.4282C86.3744 47.0042 85.9904 47.7482 85.7504 48.6602C85.5344 49.5722 85.4264 50.6642 85.4264 51.9362C85.4264 53.1842 85.5223 54.2642 85.7143 55.1762C85.9303 56.0642 86.2903 56.8082 86.7943 57.4082C87.3223 58.0082 88.0183 58.4522 88.8823 58.7402C89.7703 59.0282 90.8983 59.1722 92.2663 59.1722C93.5143 59.1722 94.5703 59.0282 95.4343 58.7402C96.2983 58.4282 96.9944 57.9842 97.5224 57.4082C98.0744 56.8082 98.4704 56.0522 98.7104 55.1402C98.9503 54.2282 99.0704 53.1602 99.0704 51.9362C99.0704 50.6642 98.9503 49.5722 98.7104 48.6602C98.4944 47.7482 98.1103 47.0042 97.5583 46.4282C97.0303 45.8522 96.3344 45.4322 95.4704 45.1682C94.6064 44.9042 93.5264 44.7722 92.2304 44.7722Z" fill="white"/>
<path d="M106.294 40.9562V38.3642H109.174V40.9562H106.294ZM106.294 61.5482V42.2522H109.174V61.5482H106.294Z" fill="white"/>
<path d="M122.86 61.7282C121.684 61.7282 120.556 61.6322 119.476 61.4402C118.396 61.2242 117.412 60.8762 116.524 60.3962C115.66 59.9162 114.904 59.2682 114.256 58.4522C113.632 57.6122 113.176 56.5802 112.888 55.3562H115.804C116.068 56.1722 116.44 56.8442 116.92 57.3722C117.4 57.8762 117.952 58.2722 118.576 58.5602C119.2 58.8242 119.884 59.0042 120.628 59.1002C121.372 59.1962 122.14 59.2442 122.932 59.2442C123.46 59.2442 124.072 59.2082 124.768 59.1362C125.464 59.0642 126.112 58.9202 126.712 58.7042C127.336 58.4642 127.852 58.1402 128.26 57.7322C128.692 57.3002 128.908 56.7362 128.908 56.0402C128.908 55.4162 128.68 54.9242 128.224 54.5642C127.768 54.1802 127.168 53.8802 126.424 53.6642C125.68 53.4482 124.828 53.2922 123.868 53.1962C122.908 53.0762 121.924 52.9562 120.916 52.8362C119.932 52.7162 118.96 52.5722 118 52.4042C117.04 52.2122 116.188 51.9482 115.444 51.6122C114.7 51.2762 114.1 50.8322 113.644 50.2802C113.188 49.7042 112.96 48.9722 112.96 48.0842C112.96 47.0042 113.236 46.0922 113.788 45.3482C114.34 44.5802 115.048 43.9562 115.912 43.4762C116.776 42.9722 117.724 42.6122 118.756 42.3962C119.788 42.1562 120.772 42.0362 121.708 42.0362C123.028 42.0362 124.228 42.1322 125.308 42.3242C126.412 42.4922 127.372 42.8162 128.188 43.2962C129.028 43.7762 129.736 44.4242 130.312 45.2402C130.888 46.0562 131.32 47.1002 131.608 48.3722H128.728C128.512 47.4602 128.188 46.7402 127.756 46.2122C127.324 45.6602 126.808 45.2522 126.208 44.9882C125.632 44.7002 124.972 44.5202 124.228 44.4482C123.484 44.3762 122.68 44.3402 121.816 44.3402C121.12 44.3402 120.412 44.4242 119.692 44.5922C118.996 44.7602 118.36 45.0002 117.784 45.3122C117.208 45.6002 116.74 45.9722 116.38 46.4282C116.02 46.8842 115.84 47.4002 115.84 47.9762C115.84 48.5522 116.068 49.0202 116.524 49.3802C116.98 49.7162 117.58 49.9802 118.324 50.1722C119.068 50.3642 119.92 50.5202 120.88 50.6402C121.84 50.7362 122.812 50.8442 123.796 50.9642C124.78 51.0842 125.752 51.2402 126.712 51.4322C127.672 51.6242 128.524 51.9122 129.268 52.2962C130.012 52.6562 130.612 53.1362 131.068 53.7362C131.524 54.3122 131.752 55.0682 131.752 56.0042C131.752 57.1802 131.464 58.1522 130.888 58.9202C130.336 59.6642 129.616 60.2402 128.728 60.6482C127.864 61.0562 126.904 61.3442 125.848 61.5122C124.816 61.6562 123.82 61.7282 122.86 61.7282Z" fill="white"/>
<path d="M147.533 61.5482C146.045 61.5482 144.689 61.4162 143.465 61.1522C142.265 60.8882 141.221 60.4322 140.333 59.7842C139.445 59.1362 138.749 58.2722 138.245 57.1922C137.741 56.1122 137.453 54.7442 137.381 53.0882V44.3762H134.141V42.2882H137.381V36.3482H140.261V42.2882H147.641V44.3762H140.261V52.9802C140.261 54.2042 140.441 55.2122 140.801 56.0042C141.161 56.7722 141.653 57.3842 142.277 57.8402C142.925 58.2962 143.693 58.6202 144.581 58.8122C145.469 59.0042 146.453 59.1002 147.533 59.1002V61.5482Z" fill="white"/>
<path d="M161.095 44.6642C159.967 44.6642 158.947 44.7722 158.035 44.9882C157.147 45.1802 156.379 45.5282 155.731 46.0322C155.107 46.5122 154.615 47.1602 154.255 47.9762C153.919 48.7682 153.751 49.7762 153.751 51.0002V61.5482H150.907V42.3242H153.751V45.7082C154.135 44.9402 154.591 44.3282 155.119 43.8722C155.647 43.3922 156.223 43.0322 156.847 42.7922C157.471 42.5282 158.143 42.3602 158.863 42.2882C159.583 42.2162 160.327 42.1802 161.095 42.1802V44.6642Z" fill="white"/>
<path d="M164.231 40.9562V38.3642H167.111V40.9562H164.231ZM164.231 61.5482V42.2522H167.111V61.5482H164.231Z" fill="white"/>
<path d="M174.317 58.0562V61.5122H171.473V36.2762H174.317V45.6362C175.013 44.2922 175.937 43.3802 177.089 42.9002C178.265 42.3962 179.621 42.1442 181.157 42.1442C184.445 42.1442 186.881 42.9482 188.465 44.5562C190.049 46.1402 190.841 48.6002 190.841 51.9362C190.841 55.2962 190.061 57.7682 188.501 59.3522C186.941 60.9362 184.493 61.7282 181.157 61.7282C179.621 61.7282 178.253 61.4642 177.053 60.9362C175.877 60.4082 174.965 59.4482 174.317 58.0562ZM181.157 44.7722C179.885 44.7722 178.805 44.9042 177.917 45.1682C177.053 45.4322 176.345 45.8522 175.793 46.4282C175.265 47.0042 174.881 47.7482 174.641 48.6602C174.425 49.5482 174.317 50.6402 174.317 51.9362C174.317 54.4082 174.833 56.2442 175.865 57.4442C176.921 58.6442 178.685 59.2442 181.157 59.2442C182.525 59.2442 183.653 59.1002 184.541 58.8122C185.429 58.5002 186.125 58.0442 186.629 57.4442C187.133 56.8202 187.481 56.0522 187.673 55.1402C187.889 54.2282 187.997 53.1602 187.997 51.9362C187.997 50.6402 187.877 49.5482 187.637 48.6602C187.397 47.7482 187.001 47.0042 186.449 46.4282C185.921 45.8522 185.225 45.4322 184.361 45.1682C183.497 44.9042 182.429 44.7722 181.157 44.7722Z" fill="white"/>
<path d="M210.81 42.2522H213.69V52.4762C213.69 55.6202 212.826 57.9362 211.098 59.4242C209.37 60.8882 206.982 61.6202 203.934 61.6202C200.526 61.6202 198.054 60.7922 196.518 59.1362C195.006 57.4802 194.226 55.0082 194.178 51.7202V42.2522H197.058V52.4402C197.058 54.8162 197.61 56.5322 198.714 57.5882C199.818 58.6202 201.558 59.1362 203.934 59.1362C206.19 59.1362 207.894 58.6082 209.046 57.5522C210.198 56.4722 210.774 54.7922 210.774 52.5122L210.81 42.2522Z" fill="white"/>
<path d="M229.798 61.5482C228.31 61.5482 226.954 61.4162 225.73 61.1522C224.53 60.8882 223.486 60.4322 222.598 59.7842C221.71 59.1362 221.014 58.2722 220.51 57.1922C220.006 56.1122 219.718 54.7442 219.646 53.0882V44.3762H216.406V42.2882H219.646V36.3482H222.526V42.2882H229.906V44.3762H222.526V52.9802C222.526 54.2042 222.706 55.2122 223.066 56.0042C223.426 56.7722 223.918 57.3842 224.542 57.8402C225.19 58.2962 225.958 58.6202 226.846 58.8122C227.734 59.0042 228.718 59.1002 229.798 59.1002V61.5482Z" fill="white"/>
<path d="M241.68 42.1082C243.552 42.1082 245.124 42.3602 246.396 42.8642C247.692 43.3442 248.712 44.0522 249.456 44.9882C250.224 45.9242 250.74 47.0762 251.004 48.4442C251.292 49.8122 251.388 51.3842 251.292 53.1602H234.84C234.96 55.3442 235.572 56.9162 236.676 57.8762C237.78 58.8122 239.46 59.2802 241.716 59.2802C243.132 59.2802 244.32 59.1122 245.28 58.7762C246.24 58.4162 246.924 57.7922 247.332 56.9042C247.668 56.5442 247.92 56.0522 248.088 55.4282H250.932C250.62 56.6282 250.188 57.6362 249.636 58.4522C249.084 59.2442 248.412 59.8802 247.62 60.3602C246.852 60.8402 245.964 61.1882 244.956 61.4042C243.972 61.5962 242.868 61.6922 241.644 61.6922C238.356 61.6922 235.92 60.9002 234.336 59.3162C232.776 57.7082 231.996 55.2482 231.996 51.9362C231.996 48.6002 232.788 46.1282 234.372 44.5202C235.956 42.9122 238.392 42.1082 241.68 42.1082ZM241.716 44.5562C239.34 44.5562 237.612 45.0602 236.532 46.0682C235.452 47.0762 234.876 48.6842 234.804 50.8922H248.52C248.472 48.6842 247.92 47.0762 246.864 46.0682C245.808 45.0602 244.092 44.5562 241.716 44.5562Z" fill="white"/>
<path d="M270.773 36.2762H273.617V61.5122H270.773V58.0562C270.125 59.4482 269.201 60.3962 268.001 60.9002C266.825 61.3802 265.469 61.6202 263.933 61.6202C262.493 61.6202 261.173 61.4642 259.973 61.1522C258.797 60.8402 257.777 60.3242 256.913 59.6042C256.073 58.8602 255.413 57.8642 254.933 56.6162C254.477 55.3682 254.249 53.8082 254.249 51.9362C254.249 50.0642 254.477 48.5162 254.933 47.2922C255.413 46.0442 256.073 45.0482 256.913 44.3042C257.777 43.5602 258.797 43.0442 259.973 42.7562C261.173 42.4442 262.493 42.2882 263.933 42.2882C265.469 42.2882 266.825 42.5162 268.001 42.9722C269.201 43.4282 270.125 44.3402 270.773 45.7082V36.2762ZM263.933 44.7722C262.661 44.7722 261.581 44.9042 260.693 45.1682C259.829 45.4322 259.133 45.8522 258.605 46.4282C258.077 47.0042 257.693 47.7482 257.453 48.6602C257.237 49.5722 257.129 50.6642 257.129 51.9362C257.129 53.1842 257.225 54.2642 257.417 55.1762C257.633 56.0642 257.993 56.8082 258.497 57.4082C259.025 58.0082 259.721 58.4522 260.585 58.7402C261.473 59.0282 262.601 59.1722 263.969 59.1722C265.217 59.1722 266.273 59.0282 267.137 58.7402C268.001 58.4282 268.697 57.9842 269.225 57.4082C269.777 56.8082 270.173 56.0522 270.413 55.1402C270.653 54.2282 270.773 53.1602 270.773 51.9362C270.773 50.6642 270.653 49.5722 270.413 48.6602C270.197 47.7482 269.813 47.0042 269.261 46.4282C268.733 45.8522 268.037 45.4322 267.173 45.1682C266.309 44.9042 265.229 44.7722 263.933 44.7722Z" fill="white"/>
<path d="M276.881 59.6042H279.761V60.1082H276.881V59.6042Z" fill="white"/>
<path fill-rule="evenodd" clip-rule="evenodd" d="M49.7124 10.6136C47.1004 9.18055 43.7625 9.57364 41.5487 11.7928C39.3284 14.0186 38.9387 17.3874 40.3797 20.0144L49.7124 10.6136ZM43.1478 22.7694L54.048 11.7895C54.8052 11.0268 54.8037 9.79558 54.0447 9.0347C49.8284 4.80818 43.0001 4.80818 38.7838 9.0347C35.0303 12.7974 34.6205 18.6429 37.5544 22.8604L36.256 24.1683C35.4962 24.9336 35.5007 26.17 36.2661 26.9297C37.0314 27.6895 38.2677 27.685 39.0275 26.9197L40.3236 25.6142C44.5264 28.5023 50.3102 28.0746 54.0447 24.331C54.8063 23.5675 54.8048 22.3311 54.0413 21.5695C53.2778 20.8078 52.0414 20.8094 51.2798 21.5728C49.0749 23.7831 45.755 24.1819 43.1478 22.7694Z" fill="#5B5B5B"/>
<path fill-rule="evenodd" clip-rule="evenodd" d="M49.7124 10.6136C47.1004 9.18055 43.7625 9.57364 41.5487 11.7928C39.3284 14.0186 38.9387 17.3874 40.3797 20.0144L49.7124 10.6136ZM43.1478 22.7694L54.048 11.7895C54.8052 11.0268 54.8037 9.79558 54.0447 9.0347C49.8284 4.80818 43.0001 4.80818 38.7838 9.0347C35.0303 12.7974 34.6205 18.6429 37.5544 22.8604L36.256 24.1683C35.4962 24.9336 35.5007 26.17 36.2661 26.9297C37.0314 27.6895 38.2677 27.685 39.0275 26.9197L40.3236 25.6142C44.5264 28.5023 50.3102 28.0746 54.0447 24.331C54.8063 23.5675 54.8048 22.3311 54.0413 21.5695C53.2778 20.8078 52.0414 20.8094 51.2798 21.5728C49.0749 23.7831 45.755 24.1819 43.1478 22.7694Z" fill="url(#paint0_linear_512_131)" fill-opacity="0.8"/>
<defs>
<linearGradient id="paint0_linear_512_131" x1="54.6149" y1="27.5009" x2="34.4042" y2="26.2945" gradientUnits="userSpaceOnUse">
<stop offset="0.249194" stop-color="#764BC1" stop-opacity="0.77"/>
<stop offset="0.482702" stop-color="#3972ED" stop-opacity="0.65"/>
<stop offset="1" stop-color="#32D4EF" stop-opacity="0.72"/>
</linearGradient>
</defs>
</svg>
