<svg width="65" height="65" viewBox="0 0 65 65" fill="none" xmlns="http://www.w3.org/2000/svg">
<rect x="0.5" y="0.147034" width="64" height="64" fill="#1C1F25"/>
<path d="M40.3806 28.7605H39.6254C39.1098 26.6101 37.6507 24.8075 35.6545 23.8553C33.6585 22.9031 31.3395 22.9031 29.3436 23.8553C27.3476 24.8076 25.8886 26.6101 25.3726 28.7605H24.6195C24.2321 28.7605 23.9182 29.0745 23.9182 29.4619V33.9439C23.9182 34.3309 24.2321 34.6448 24.6195 34.6452H25.1656V35.7118C25.1656 38.3319 26.5632 40.7536 28.8326 42.0637C31.1019 43.3741 33.8981 43.3741 36.1675 42.0637C38.4368 40.7536 39.8345 38.3319 39.8345 35.7118V34.6448H40.3806C40.768 34.6448 41.0819 34.3309 41.0819 33.9434V29.4619C41.0819 29.0745 40.768 28.7605 40.3806 28.7605ZM25.3213 33.2421V30.1632H39.6795V33.2421H25.3213ZM32.5005 24.5441C33.7738 24.5453 35.0129 24.9561 36.0352 25.7155C37.0576 26.4745 37.8086 27.5424 38.1785 28.7605H26.8255C27.1904 27.5398 27.9402 26.4694 28.9629 25.7096C29.9857 24.9498 31.2269 24.5407 32.5009 24.5441H32.5005ZM38.4323 35.7111C38.4323 37.8306 37.3018 39.789 35.4666 40.8485C33.631 41.908 31.37 41.908 29.5344 40.8485C27.6992 39.7889 26.5687 37.8306 26.5687 35.7111V34.6445H38.4326L38.4323 35.7111ZM32.5005 40.5997C33.0916 40.5997 33.659 40.3651 34.0773 39.9468C34.4952 39.5289 34.7302 38.9615 34.7302 38.3704C34.7302 37.7788 34.4956 37.2119 34.0773 36.7936C33.6594 36.3753 33.0921 36.1407 32.5009 36.1407C31.9094 36.1407 31.3425 36.3753 30.9242 36.7936C30.5058 37.2115 30.2712 37.7788 30.2712 38.37C30.2716 38.9611 30.5071 39.528 30.925 39.9459C31.3429 40.3638 31.9094 40.5989 32.5005 40.5997ZM32.5005 37.5434C32.8349 37.5429 33.1367 37.7446 33.2645 38.0535C33.3926 38.3624 33.3221 38.7181 33.0854 38.9548C32.8491 39.1911 32.4934 39.2621 32.1845 39.1339C31.8751 39.0062 31.6739 38.7048 31.6739 38.3699C31.6743 37.9137 32.0442 37.5438 32.5005 37.5434ZM56.396 50.669L8.60394 50.6694C8.21652 50.669 7.90259 50.355 7.90259 49.968V14.3497C7.90259 13.9627 8.21652 13.6488 8.60394 13.6484H56.396C56.7834 13.6488 57.0974 13.9627 57.0974 14.3497V49.968C57.0974 50.355 56.7834 50.669 56.396 50.6694V50.669ZM9.30608 49.2663H55.6949V15.0512H9.30608V49.2663ZM52.6555 46.9289L12.3445 46.9293C11.957 46.9293 11.6431 46.6149 11.6431 46.2279V18.0896C11.6431 17.7026 11.957 17.3883 12.3445 17.3883H26.4216C26.6078 17.3883 26.7861 17.4621 26.9176 17.5941L28.1149 18.7914L36.885 18.7909L38.0823 17.5937V17.5941C38.2138 17.4621 38.392 17.3883 38.5782 17.3883H52.6554C53.0428 17.3883 53.3568 17.7026 53.3568 18.0896V20.862C53.3568 21.249 53.0428 21.5633 52.6554 21.5633C52.268 21.5633 51.9541 21.249 51.9541 20.862V18.7909H38.8687L37.6714 19.9882C37.5399 20.1197 37.3616 20.1936 37.1754 20.1936H27.8241C27.6379 20.1936 27.4597 20.1197 27.3282 19.9882L26.1309 18.7909H13.0455V45.526H51.9544L51.954 26.973C51.954 26.586 52.2679 26.2717 52.6553 26.2717C53.0427 26.2717 53.3567 26.586 53.3567 26.973V46.2271C53.3567 46.6141 53.0427 46.9284 52.6553 46.9284L52.6555 46.9289Z" fill="white"/>
</svg>
