<svg width="65" height="65" viewBox="0 0 65 65" fill="none" xmlns="http://www.w3.org/2000/svg">
<rect x="0.5" y="0.147034" width="64" height="64" fill="#1C1F25"/>
<path d="M9.91138 39.7605V48.7887L16.7503 51.4466L23.5894 48.7887V48.78L23.5897 39.7689V39.7602L16.7506 37.1023L9.91138 39.7605ZM11.1577 41.5908L16.1272 43.5224V49.8681L11.1577 47.9364V41.5908ZM22.3432 47.9364L17.3735 49.8681V43.5224L22.3432 41.5908V47.9364ZM16.7702 42.4201H16.7302L11.6192 40.434L16.7501 38.4394L21.881 40.434L16.7702 42.4201Z" fill="white"/>
<path d="M27.4322 22.0122C28.3284 22.0122 29.0818 21.4171 29.3315 20.6033L31.0665 20.6033C31.3885 20.6033 31.6499 20.3419 31.6499 20.0199C31.6499 19.6978 31.3885 19.4364 31.0665 19.4364L29.3315 19.4364C29.0817 18.6234 28.3284 18.0275 27.4322 18.0275C26.3333 18.0275 25.4398 18.921 25.4398 20.0199C25.4398 21.1187 26.3333 22.0122 27.4322 22.0122ZM26.6069 20.0199C26.6069 19.5651 26.9775 19.1945 27.4322 19.1945C27.887 19.1945 28.2576 19.5651 28.2576 20.0199C28.2576 20.4746 27.887 20.8452 27.4322 20.8452C26.9774 20.8452 26.6069 20.4753 26.6069 20.0199Z" fill="white" stroke="white" stroke-width="0.3"/>
<path d="M18.743 33.26C18.743 32.3638 18.148 31.6104 17.3342 31.3606L17.3342 29.6257C17.3342 29.3036 17.0727 29.0422 16.7507 29.0422C16.4287 29.0422 16.1672 29.3036 16.1672 29.6257L16.1672 31.3607C15.3542 31.6104 14.7584 32.3637 14.7584 33.26C14.7584 34.3588 15.6519 35.2523 16.7507 35.2523C17.8495 35.2523 18.743 34.3588 18.743 33.26ZM16.7507 34.0852C16.2959 34.0852 15.9254 33.7147 15.9254 33.2599C15.9254 32.8051 16.2959 32.4346 16.7507 32.4346C17.2055 32.4346 17.576 32.8051 17.576 33.2599C17.576 33.7147 17.2061 34.0852 16.7507 34.0852Z" fill="white" stroke="white" stroke-width="0.3"/>
<path d="M29.6577 42.2823C28.7615 42.2823 28.0081 42.8774 27.7583 43.6911L26.0234 43.6911C25.7013 43.6911 25.4399 43.9526 25.4399 44.2746C25.4399 44.5967 25.7013 44.8581 26.0234 44.8581L27.7584 44.8581C28.0081 45.6711 28.7614 46.2669 29.6577 46.2669C30.7565 46.2669 31.65 45.3735 31.65 44.2746C31.65 43.1758 30.7565 42.2823 29.6577 42.2823ZM30.4829 44.2746C30.4829 44.7294 30.1124 45.1 29.6576 45.1C29.2029 45.1 28.8323 44.7294 28.8323 44.2746C28.8323 43.8199 29.2029 43.4493 29.6576 43.4493C30.1124 43.4493 30.4829 43.8192 30.4829 44.2746Z" fill="white" stroke="white" stroke-width="0.3"/>
<path d="M35.3423 22.0122C36.2385 22.0122 36.9919 21.4171 37.2417 20.6033L38.9766 20.6033C39.2987 20.6033 39.5601 20.3419 39.5601 20.0199C39.5601 19.6978 39.2987 19.4364 38.9766 19.4364L37.2416 19.4364C36.9919 18.6234 36.2386 18.0275 35.3423 18.0275C34.2435 18.0275 33.35 18.921 33.35 20.0199C33.35 21.1187 34.2435 22.0122 35.3423 22.0122ZM34.5171 20.0199C34.5171 19.5651 34.8876 19.1945 35.3424 19.1945C35.7971 19.1945 36.1677 19.5651 36.1677 20.0199C36.1677 20.4746 35.7971 20.8452 35.3424 20.8452C34.8876 20.8452 34.5171 20.4753 34.5171 20.0199Z" fill="white" stroke="white" stroke-width="0.3"/>
<path d="M37.5678 46.2669C36.6716 46.2669 35.9182 45.6719 35.6685 44.8581L33.9335 44.8581C33.6115 44.8581 33.3501 44.5967 33.3501 44.2746C33.3501 43.9526 33.6115 43.6911 33.9335 43.6911L35.6685 43.6911C35.9183 42.8781 36.6716 42.2823 37.5678 42.2823C38.6667 42.2823 39.5602 43.1758 39.5602 44.2746C39.5602 45.3735 38.6667 46.2669 37.5678 46.2669ZM38.3931 44.2746C38.3931 43.8199 38.0225 43.4493 37.5678 43.4493C37.113 43.4493 36.7424 43.8199 36.7424 44.2746C36.7424 44.7294 37.113 45.1 37.5678 45.1C38.0226 45.1 38.3931 44.7301 38.3931 44.2746Z" fill="white" stroke="white" stroke-width="0.3"/>
<path d="M48.249 37.1027L41.4102 39.7605V48.7887L48.249 51.4466L55.0885 48.7899V39.761L48.249 37.1027ZM42.6565 41.5914L47.626 43.5231V49.8687L42.6565 47.937V41.5914ZM53.842 47.937L48.8723 49.8687V43.5231L53.842 41.5914V47.937ZM48.2689 42.4208H48.2289L43.1178 40.4346L48.2487 38.4401L53.3796 40.4346L48.2689 42.4208Z" fill="white"/>
<path d="M23.5899 24.5349V15.5059L16.7508 12.8475L9.91187 15.5053V24.5343L16.7508 27.1922L23.5899 24.5349ZM22.3438 23.6821L17.3741 25.6135V19.2675L22.3438 17.3361V23.6821ZM16.7507 14.1843L21.8816 16.1789L16.7706 18.1648H16.7307L11.6195 16.1786L16.7507 14.1843ZM11.1582 17.3359L16.1276 19.2673V25.6129L11.1582 23.6819V17.3359Z" fill="white"/>
<path d="M55.0882 24.5349V15.5059L48.249 12.8475L41.4102 15.5053V24.5343L48.249 27.1922L55.0882 24.5349ZM53.8421 23.6821L48.8723 25.6135V19.2675L53.8421 17.3361V23.6821ZM48.249 14.1843L53.3799 16.1789L48.2689 18.1648H48.2289L43.1178 16.1786L48.249 14.1843ZM42.6565 17.3359L47.6259 19.2673V25.6129L42.6565 23.6819V17.3359Z" fill="white"/>
</svg>
