<svg width="65" height="65" viewBox="0 0 65 65" fill="none" xmlns="http://www.w3.org/2000/svg">
<rect x="0.5" y="0.135193" width="64" height="64" fill="#1C1F25"/>
<mask id="path-2-outside-1_236_39" maskUnits="userSpaceOnUse" x="15.3331" y="14.511" width="34" height="36" fill="black">
<rect fill="white" x="15.3331" y="14.511" width="34" height="36"/>
<path d="M45.8926 32.7743L48.4033 31.7018C48.5628 31.6333 48.6669 31.4766 48.6669 31.3032V23.4487C48.6669 23.369 48.6402 23.2985 48.6026 23.2355C48.5941 23.2188 48.5844 23.206 48.5732 23.1921C48.5283 23.1333 48.4745 23.081 48.4049 23.0516C48.4041 23.0516 48.4041 23.0508 48.4033 23.0508H48.4018L42.3505 20.4666C42.2421 20.4198 42.1182 20.4198 42.0099 20.4666L38.9867 21.7585V18.5283C38.9867 18.4486 38.96 18.3781 38.9225 18.315C38.9139 18.2984 38.9043 18.2856 38.893 18.2717C38.8481 18.2129 38.7943 18.1606 38.7247 18.1312C38.7239 18.1312 38.7239 18.1304 38.7231 18.1304H38.7224H38.7216L32.6703 15.5462C32.5619 15.4993 32.4381 15.4993 32.3297 15.5462L26.2784 18.1304H26.2769C26.2761 18.1304 26.2761 18.1312 26.2753 18.1312C26.206 18.1606 26.1522 18.2128 26.107 18.2717C26.0957 18.2864 26.0868 18.2995 26.0775 18.315C26.0404 18.3785 26.0133 18.4486 26.0133 18.5283V21.7585L22.9901 20.4666C22.8818 20.4198 22.7579 20.4198 22.6495 20.4666L16.5982 23.0508H16.5975H16.5967C16.5959 23.0508 16.5959 23.0516 16.5952 23.0516C16.5259 23.081 16.4721 23.1333 16.4268 23.1921C16.4156 23.2068 16.4067 23.22 16.3974 23.2355C16.3602 23.2989 16.3331 23.369 16.3331 23.4487V31.3032C16.3331 31.4766 16.4372 31.6333 16.5967 31.7018L19.1074 32.7743L16.5983 33.846H16.5975H16.5967C16.596 33.846 16.596 33.8467 16.5952 33.8467C16.5259 33.8761 16.4721 33.9284 16.4268 33.9872C16.4156 34.0019 16.4067 34.0151 16.3974 34.0306C16.3603 34.094 16.3332 34.1641 16.3332 34.2438V42.0976C16.3332 42.271 16.4373 42.4277 16.5967 42.4962L22.65 45.0817C22.7019 45.1041 22.7592 45.1165 22.8199 45.1165C22.8807 45.1165 22.938 45.1045 22.9898 45.0817L26.013 43.7909V46.8121C26.013 46.9855 26.1171 47.1423 26.2766 47.2108L32.3298 49.7962C32.3817 49.8186 32.439 49.831 32.4997 49.831C32.5605 49.831 32.6178 49.819 32.6697 49.7962L38.7229 47.2108C38.8824 47.1423 38.9865 46.9855 38.9865 46.8121V43.7909L42.0097 45.0817C42.0615 45.1041 42.1188 45.1165 42.1796 45.1165C42.2403 45.1165 42.2976 45.1045 42.3495 45.0817L48.4027 42.4962C48.5622 42.4277 48.6663 42.271 48.6663 42.0976V34.2438C48.6663 34.1641 48.6396 34.0937 48.6021 34.0306C48.5936 34.0139 48.5839 34.0012 48.5727 33.9872C48.5278 33.9284 48.474 33.8761 48.4043 33.8467C48.4035 33.8467 48.4035 33.846 48.4028 33.846H48.4012L45.8926 32.7743ZM47.1288 34.2447L42.1794 36.3583L38.9856 34.9936V32.9945L42.0088 34.2865C42.0607 34.3089 42.1179 34.3213 42.1787 34.3213C42.2395 34.3213 42.2967 34.3093 42.3486 34.2865L44.7881 33.2445L47.1288 34.2447ZM32.4985 41.0747L27.5491 38.9603L30.3954 37.745L32.3286 38.5713C32.3805 38.5938 32.4378 38.6061 32.4986 38.6061C32.5593 38.6061 32.6166 38.5942 32.6685 38.5713L34.6025 37.745L37.448 38.9603L32.4985 41.0747ZM23.2514 26.3205L28.4377 24.1056V26.41L26.2766 27.3335H26.275C26.2742 27.3335 26.2742 27.3342 26.2735 27.3342C26.2042 27.3637 26.1504 27.4159 26.1051 27.4747C26.0939 27.4894 26.085 27.5026 26.0757 27.5181C26.0385 27.5816 26.0114 27.6516 26.0114 27.7313V32.0515L23.2511 33.2303L23.2508 26.3206L23.2514 26.3205ZM32.4985 25.6184L37.4479 27.7328L32.4985 29.8476L27.5491 27.7332L29.0395 27.0969C29.0403 27.0969 29.0411 27.0962 29.0423 27.0962L32.4985 25.6184ZM36.5592 24.1055L41.7455 26.3204V33.2318L38.9852 32.0529V27.7327C38.9852 27.653 38.9585 27.5826 38.921 27.5195C38.9125 27.5028 38.9028 27.4901 38.8916 27.4761C38.8467 27.4173 38.7929 27.3651 38.7232 27.3356C38.7224 27.3356 38.7224 27.3349 38.7217 27.3349H38.7209H38.7201L36.5589 26.4114L36.5586 24.1055L36.5592 24.1055ZM26.8787 35.2809V35.2793V32.3386V32.337V28.3896L32.065 30.6046V37.5159L26.8787 35.3002V35.2809ZM34.4526 36.8658C34.4421 36.8692 34.4324 36.8743 34.4224 36.8789L32.9319 37.516V30.6047L38.1182 28.3897V32.3371V32.3379V35.2705V35.2887V35.2999L34.4526 36.8658ZM42.6124 33.2323V26.3209L47.7987 24.106V31.0173L42.6124 33.2323ZM42.1789 21.3336L47.1283 23.448L42.1789 25.5624L37.2295 23.448L38.72 22.8117C38.7208 22.8117 38.7215 22.8109 38.7227 22.8109L42.1789 21.3336ZM35.9565 23.0486L35.955 23.0494C35.9542 23.0494 35.9542 23.0501 35.9534 23.0501C35.8841 23.0795 35.8303 23.1318 35.7851 23.1906C35.7738 23.2053 35.7649 23.2185 35.7556 23.234C35.7185 23.2974 35.6914 23.3675 35.6914 23.4472V26.0384L32.9311 24.8595V21.3959L38.1174 19.181V22.1252L35.9565 23.0486ZM32.4984 16.4109L37.4478 18.5253L32.4984 20.6401L27.549 18.5257L32.4984 16.4109ZM26.8786 19.1817L32.0649 21.3967V24.8603L29.3046 26.0391V23.448C29.3046 23.3682 29.2779 23.2978 29.2403 23.2347C29.2318 23.2181 29.2221 23.2053 29.2109 23.1914C29.166 23.1325 29.1122 23.0803 29.0426 23.0509C29.0418 23.0509 29.0418 23.0501 29.041 23.0501H29.0402H29.0395L26.8783 22.1266L26.8779 19.1816L26.8786 19.1817ZM22.8178 21.3337L26.2745 22.8102C26.2753 22.8102 26.276 22.811 26.2772 22.811L27.7677 23.4473L22.8183 25.5616L17.8689 23.4473L22.8178 21.3337ZM17.198 24.1053L22.3844 26.3202V33.2316L20.3714 32.3716C20.3706 32.3708 20.3687 32.3708 20.3672 32.37L17.1978 31.0158L17.1974 24.1052L17.198 24.1053ZM20.2084 33.2447L22.6479 34.2867C22.6998 34.3091 22.7571 34.3215 22.8178 34.3215C22.8786 34.3215 22.9359 34.3095 22.9877 34.2867L26.0109 32.9948V34.9938L22.8171 36.3578L17.8677 34.2442L20.2084 33.2447ZM17.198 34.9017L22.3844 37.1166V44.0279L17.198 41.8122V34.9017ZM23.2513 44.0279V37.1166L26.1487 35.8797C26.187 35.9188 26.2222 35.9629 26.2752 35.9854L29.2906 37.2726L26.2764 38.5599H26.2749C26.2741 38.5599 26.2741 38.5607 26.2733 38.5607C26.204 38.5901 26.1502 38.6423 26.1049 38.7012C26.0937 38.7159 26.0848 38.729 26.0755 38.7445C26.0384 38.808 26.0113 38.878 26.0113 38.9578V42.8471L23.2513 44.0279ZM26.8786 43.1343V43.1327V39.6165L32.0649 41.8315V48.7428L26.8786 46.5271V43.1343ZM32.9319 48.7428V41.8315L38.1182 39.6165V46.527L32.9319 48.7428ZM38.9851 38.9597C38.9851 38.88 38.9584 38.8095 38.9209 38.7464C38.9124 38.7298 38.9027 38.717 38.8915 38.7031C38.8466 38.6443 38.7928 38.592 38.7231 38.5626C38.7223 38.5626 38.7223 38.5618 38.7216 38.5618H38.7208H38.72L35.7066 37.2746L38.722 35.9873C38.775 35.9648 38.8095 35.9215 38.8485 35.8816L41.7451 37.1186V44.0299L38.9848 42.851L38.984 38.9598L38.9851 38.9597ZM42.6124 44.0279V37.1166L47.7987 34.9016V41.8121L42.6124 44.0279Z"/>
</mask>
<path d="M45.8926 32.7743L48.4033 31.7018C48.5628 31.6333 48.6669 31.4766 48.6669 31.3032V23.4487C48.6669 23.369 48.6402 23.2985 48.6026 23.2355C48.5941 23.2188 48.5844 23.206 48.5732 23.1921C48.5283 23.1333 48.4745 23.081 48.4049 23.0516C48.4041 23.0516 48.4041 23.0508 48.4033 23.0508H48.4018L42.3505 20.4666C42.2421 20.4198 42.1182 20.4198 42.0099 20.4666L38.9867 21.7585V18.5283C38.9867 18.4486 38.96 18.3781 38.9225 18.315C38.9139 18.2984 38.9043 18.2856 38.893 18.2717C38.8481 18.2129 38.7943 18.1606 38.7247 18.1312C38.7239 18.1312 38.7239 18.1304 38.7231 18.1304H38.7224H38.7216L32.6703 15.5462C32.5619 15.4993 32.4381 15.4993 32.3297 15.5462L26.2784 18.1304H26.2769C26.2761 18.1304 26.2761 18.1312 26.2753 18.1312C26.206 18.1606 26.1522 18.2128 26.107 18.2717C26.0957 18.2864 26.0868 18.2995 26.0775 18.315C26.0404 18.3785 26.0133 18.4486 26.0133 18.5283V21.7585L22.9901 20.4666C22.8818 20.4198 22.7579 20.4198 22.6495 20.4666L16.5982 23.0508H16.5975H16.5967C16.5959 23.0508 16.5959 23.0516 16.5952 23.0516C16.5259 23.081 16.4721 23.1333 16.4268 23.1921C16.4156 23.2068 16.4067 23.22 16.3974 23.2355C16.3602 23.2989 16.3331 23.369 16.3331 23.4487V31.3032C16.3331 31.4766 16.4372 31.6333 16.5967 31.7018L19.1074 32.7743L16.5983 33.846H16.5975H16.5967C16.596 33.846 16.596 33.8467 16.5952 33.8467C16.5259 33.8761 16.4721 33.9284 16.4268 33.9872C16.4156 34.0019 16.4067 34.0151 16.3974 34.0306C16.3603 34.094 16.3332 34.1641 16.3332 34.2438V42.0976C16.3332 42.271 16.4373 42.4277 16.5967 42.4962L22.65 45.0817C22.7019 45.1041 22.7592 45.1165 22.8199 45.1165C22.8807 45.1165 22.938 45.1045 22.9898 45.0817L26.013 43.7909V46.8121C26.013 46.9855 26.1171 47.1423 26.2766 47.2108L32.3298 49.7962C32.3817 49.8186 32.439 49.831 32.4997 49.831C32.5605 49.831 32.6178 49.819 32.6697 49.7962L38.7229 47.2108C38.8824 47.1423 38.9865 46.9855 38.9865 46.8121V43.7909L42.0097 45.0817C42.0615 45.1041 42.1188 45.1165 42.1796 45.1165C42.2403 45.1165 42.2976 45.1045 42.3495 45.0817L48.4027 42.4962C48.5622 42.4277 48.6663 42.271 48.6663 42.0976V34.2438C48.6663 34.1641 48.6396 34.0937 48.6021 34.0306C48.5936 34.0139 48.5839 34.0012 48.5727 33.9872C48.5278 33.9284 48.474 33.8761 48.4043 33.8467C48.4035 33.8467 48.4035 33.846 48.4028 33.846H48.4012L45.8926 32.7743ZM47.1288 34.2447L42.1794 36.3583L38.9856 34.9936V32.9945L42.0088 34.2865C42.0607 34.3089 42.1179 34.3213 42.1787 34.3213C42.2395 34.3213 42.2967 34.3093 42.3486 34.2865L44.7881 33.2445L47.1288 34.2447ZM32.4985 41.0747L27.5491 38.9603L30.3954 37.745L32.3286 38.5713C32.3805 38.5938 32.4378 38.6061 32.4986 38.6061C32.5593 38.6061 32.6166 38.5942 32.6685 38.5713L34.6025 37.745L37.448 38.9603L32.4985 41.0747ZM23.2514 26.3205L28.4377 24.1056V26.41L26.2766 27.3335H26.275C26.2742 27.3335 26.2742 27.3342 26.2735 27.3342C26.2042 27.3637 26.1504 27.4159 26.1051 27.4747C26.0939 27.4894 26.085 27.5026 26.0757 27.5181C26.0385 27.5816 26.0114 27.6516 26.0114 27.7313V32.0515L23.2511 33.2303L23.2508 26.3206L23.2514 26.3205ZM32.4985 25.6184L37.4479 27.7328L32.4985 29.8476L27.5491 27.7332L29.0395 27.0969C29.0403 27.0969 29.0411 27.0962 29.0423 27.0962L32.4985 25.6184ZM36.5592 24.1055L41.7455 26.3204V33.2318L38.9852 32.0529V27.7327C38.9852 27.653 38.9585 27.5826 38.921 27.5195C38.9125 27.5028 38.9028 27.4901 38.8916 27.4761C38.8467 27.4173 38.7929 27.3651 38.7232 27.3356C38.7224 27.3356 38.7224 27.3349 38.7217 27.3349H38.7209H38.7201L36.5589 26.4114L36.5586 24.1055L36.5592 24.1055ZM26.8787 35.2809V35.2793V32.3386V32.337V28.3896L32.065 30.6046V37.5159L26.8787 35.3002V35.2809ZM34.4526 36.8658C34.4421 36.8692 34.4324 36.8743 34.4224 36.8789L32.9319 37.516V30.6047L38.1182 28.3897V32.3371V32.3379V35.2705V35.2887V35.2999L34.4526 36.8658ZM42.6124 33.2323V26.3209L47.7987 24.106V31.0173L42.6124 33.2323ZM42.1789 21.3336L47.1283 23.448L42.1789 25.5624L37.2295 23.448L38.72 22.8117C38.7208 22.8117 38.7215 22.8109 38.7227 22.8109L42.1789 21.3336ZM35.9565 23.0486L35.955 23.0494C35.9542 23.0494 35.9542 23.0501 35.9534 23.0501C35.8841 23.0795 35.8303 23.1318 35.7851 23.1906C35.7738 23.2053 35.7649 23.2185 35.7556 23.234C35.7185 23.2974 35.6914 23.3675 35.6914 23.4472V26.0384L32.9311 24.8595V21.3959L38.1174 19.181V22.1252L35.9565 23.0486ZM32.4984 16.4109L37.4478 18.5253L32.4984 20.6401L27.549 18.5257L32.4984 16.4109ZM26.8786 19.1817L32.0649 21.3967V24.8603L29.3046 26.0391V23.448C29.3046 23.3682 29.2779 23.2978 29.2403 23.2347C29.2318 23.2181 29.2221 23.2053 29.2109 23.1914C29.166 23.1325 29.1122 23.0803 29.0426 23.0509C29.0418 23.0509 29.0418 23.0501 29.041 23.0501H29.0402H29.0395L26.8783 22.1266L26.8779 19.1816L26.8786 19.1817ZM22.8178 21.3337L26.2745 22.8102C26.2753 22.8102 26.276 22.811 26.2772 22.811L27.7677 23.4473L22.8183 25.5616L17.8689 23.4473L22.8178 21.3337ZM17.198 24.1053L22.3844 26.3202V33.2316L20.3714 32.3716C20.3706 32.3708 20.3687 32.3708 20.3672 32.37L17.1978 31.0158L17.1974 24.1052L17.198 24.1053ZM20.2084 33.2447L22.6479 34.2867C22.6998 34.3091 22.7571 34.3215 22.8178 34.3215C22.8786 34.3215 22.9359 34.3095 22.9877 34.2867L26.0109 32.9948V34.9938L22.8171 36.3578L17.8677 34.2442L20.2084 33.2447ZM17.198 34.9017L22.3844 37.1166V44.0279L17.198 41.8122V34.9017ZM23.2513 44.0279V37.1166L26.1487 35.8797C26.187 35.9188 26.2222 35.9629 26.2752 35.9854L29.2906 37.2726L26.2764 38.5599H26.2749C26.2741 38.5599 26.2741 38.5607 26.2733 38.5607C26.204 38.5901 26.1502 38.6423 26.1049 38.7012C26.0937 38.7159 26.0848 38.729 26.0755 38.7445C26.0384 38.808 26.0113 38.878 26.0113 38.9578V42.8471L23.2513 44.0279ZM26.8786 43.1343V43.1327V39.6165L32.0649 41.8315V48.7428L26.8786 46.5271V43.1343ZM32.9319 48.7428V41.8315L38.1182 39.6165V46.527L32.9319 48.7428ZM38.9851 38.9597C38.9851 38.88 38.9584 38.8095 38.9209 38.7464C38.9124 38.7298 38.9027 38.717 38.8915 38.7031C38.8466 38.6443 38.7928 38.592 38.7231 38.5626C38.7223 38.5626 38.7223 38.5618 38.7216 38.5618H38.7208H38.72L35.7066 37.2746L38.722 35.9873C38.775 35.9648 38.8095 35.9215 38.8485 35.8816L41.7451 37.1186V44.0299L38.9848 42.851L38.984 38.9598L38.9851 38.9597ZM42.6124 44.0279V37.1166L47.7987 34.9016V41.8121L42.6124 44.0279Z" fill="white"/>
<path d="M45.8926 32.7743L48.4033 31.7018C48.5628 31.6333 48.6669 31.4766 48.6669 31.3032V23.4487C48.6669 23.369 48.6402 23.2985 48.6026 23.2355C48.5941 23.2188 48.5844 23.206 48.5732 23.1921C48.5283 23.1333 48.4745 23.081 48.4049 23.0516C48.4041 23.0516 48.4041 23.0508 48.4033 23.0508H48.4018L42.3505 20.4666C42.2421 20.4198 42.1182 20.4198 42.0099 20.4666L38.9867 21.7585V18.5283C38.9867 18.4486 38.96 18.3781 38.9225 18.315C38.9139 18.2984 38.9043 18.2856 38.893 18.2717C38.8481 18.2129 38.7943 18.1606 38.7247 18.1312C38.7239 18.1312 38.7239 18.1304 38.7231 18.1304H38.7224H38.7216L32.6703 15.5462C32.5619 15.4993 32.4381 15.4993 32.3297 15.5462L26.2784 18.1304H26.2769C26.2761 18.1304 26.2761 18.1312 26.2753 18.1312C26.206 18.1606 26.1522 18.2128 26.107 18.2717C26.0957 18.2864 26.0868 18.2995 26.0775 18.315C26.0404 18.3785 26.0133 18.4486 26.0133 18.5283V21.7585L22.9901 20.4666C22.8818 20.4198 22.7579 20.4198 22.6495 20.4666L16.5982 23.0508H16.5975H16.5967C16.5959 23.0508 16.5959 23.0516 16.5952 23.0516C16.5259 23.081 16.4721 23.1333 16.4268 23.1921C16.4156 23.2068 16.4067 23.22 16.3974 23.2355C16.3602 23.2989 16.3331 23.369 16.3331 23.4487V31.3032C16.3331 31.4766 16.4372 31.6333 16.5967 31.7018L19.1074 32.7743L16.5983 33.846H16.5975H16.5967C16.596 33.846 16.596 33.8467 16.5952 33.8467C16.5259 33.8761 16.4721 33.9284 16.4268 33.9872C16.4156 34.0019 16.4067 34.0151 16.3974 34.0306C16.3603 34.094 16.3332 34.1641 16.3332 34.2438V42.0976C16.3332 42.271 16.4373 42.4277 16.5967 42.4962L22.65 45.0817C22.7019 45.1041 22.7592 45.1165 22.8199 45.1165C22.8807 45.1165 22.938 45.1045 22.9898 45.0817L26.013 43.7909V46.8121C26.013 46.9855 26.1171 47.1423 26.2766 47.2108L32.3298 49.7962C32.3817 49.8186 32.439 49.831 32.4997 49.831C32.5605 49.831 32.6178 49.819 32.6697 49.7962L38.7229 47.2108C38.8824 47.1423 38.9865 46.9855 38.9865 46.8121V43.7909L42.0097 45.0817C42.0615 45.1041 42.1188 45.1165 42.1796 45.1165C42.2403 45.1165 42.2976 45.1045 42.3495 45.0817L48.4027 42.4962C48.5622 42.4277 48.6663 42.271 48.6663 42.0976V34.2438C48.6663 34.1641 48.6396 34.0937 48.6021 34.0306C48.5936 34.0139 48.5839 34.0012 48.5727 33.9872C48.5278 33.9284 48.474 33.8761 48.4043 33.8467C48.4035 33.8467 48.4035 33.846 48.4028 33.846H48.4012L45.8926 32.7743ZM47.1288 34.2447L42.1794 36.3583L38.9856 34.9936V32.9945L42.0088 34.2865C42.0607 34.3089 42.1179 34.3213 42.1787 34.3213C42.2395 34.3213 42.2967 34.3093 42.3486 34.2865L44.7881 33.2445L47.1288 34.2447ZM32.4985 41.0747L27.5491 38.9603L30.3954 37.745L32.3286 38.5713C32.3805 38.5938 32.4378 38.6061 32.4986 38.6061C32.5593 38.6061 32.6166 38.5942 32.6685 38.5713L34.6025 37.745L37.448 38.9603L32.4985 41.0747ZM23.2514 26.3205L28.4377 24.1056V26.41L26.2766 27.3335H26.275C26.2742 27.3335 26.2742 27.3342 26.2735 27.3342C26.2042 27.3637 26.1504 27.4159 26.1051 27.4747C26.0939 27.4894 26.085 27.5026 26.0757 27.5181C26.0385 27.5816 26.0114 27.6516 26.0114 27.7313V32.0515L23.2511 33.2303L23.2508 26.3206L23.2514 26.3205ZM32.4985 25.6184L37.4479 27.7328L32.4985 29.8476L27.5491 27.7332L29.0395 27.0969C29.0403 27.0969 29.0411 27.0962 29.0423 27.0962L32.4985 25.6184ZM36.5592 24.1055L41.7455 26.3204V33.2318L38.9852 32.0529V27.7327C38.9852 27.653 38.9585 27.5826 38.921 27.5195C38.9125 27.5028 38.9028 27.4901 38.8916 27.4761C38.8467 27.4173 38.7929 27.3651 38.7232 27.3356C38.7224 27.3356 38.7224 27.3349 38.7217 27.3349H38.7209H38.7201L36.5589 26.4114L36.5586 24.1055L36.5592 24.1055ZM26.8787 35.2809V35.2793V32.3386V32.337V28.3896L32.065 30.6046V37.5159L26.8787 35.3002V35.2809ZM34.4526 36.8658C34.4421 36.8692 34.4324 36.8743 34.4224 36.8789L32.9319 37.516V30.6047L38.1182 28.3897V32.3371V32.3379V35.2705V35.2887V35.2999L34.4526 36.8658ZM42.6124 33.2323V26.3209L47.7987 24.106V31.0173L42.6124 33.2323ZM42.1789 21.3336L47.1283 23.448L42.1789 25.5624L37.2295 23.448L38.72 22.8117C38.7208 22.8117 38.7215 22.8109 38.7227 22.8109L42.1789 21.3336ZM35.9565 23.0486L35.955 23.0494C35.9542 23.0494 35.9542 23.0501 35.9534 23.0501C35.8841 23.0795 35.8303 23.1318 35.7851 23.1906C35.7738 23.2053 35.7649 23.2185 35.7556 23.234C35.7185 23.2974 35.6914 23.3675 35.6914 23.4472V26.0384L32.9311 24.8595V21.3959L38.1174 19.181V22.1252L35.9565 23.0486ZM32.4984 16.4109L37.4478 18.5253L32.4984 20.6401L27.549 18.5257L32.4984 16.4109ZM26.8786 19.1817L32.0649 21.3967V24.8603L29.3046 26.0391V23.448C29.3046 23.3682 29.2779 23.2978 29.2403 23.2347C29.2318 23.2181 29.2221 23.2053 29.2109 23.1914C29.166 23.1325 29.1122 23.0803 29.0426 23.0509C29.0418 23.0509 29.0418 23.0501 29.041 23.0501H29.0402H29.0395L26.8783 22.1266L26.8779 19.1816L26.8786 19.1817ZM22.8178 21.3337L26.2745 22.8102C26.2753 22.8102 26.276 22.811 26.2772 22.811L27.7677 23.4473L22.8183 25.5616L17.8689 23.4473L22.8178 21.3337ZM17.198 24.1053L22.3844 26.3202V33.2316L20.3714 32.3716C20.3706 32.3708 20.3687 32.3708 20.3672 32.37L17.1978 31.0158L17.1974 24.1052L17.198 24.1053ZM20.2084 33.2447L22.6479 34.2867C22.6998 34.3091 22.7571 34.3215 22.8178 34.3215C22.8786 34.3215 22.9359 34.3095 22.9877 34.2867L26.0109 32.9948V34.9938L22.8171 36.3578L17.8677 34.2442L20.2084 33.2447ZM17.198 34.9017L22.3844 37.1166V44.0279L17.198 41.8122V34.9017ZM23.2513 44.0279V37.1166L26.1487 35.8797C26.187 35.9188 26.2222 35.9629 26.2752 35.9854L29.2906 37.2726L26.2764 38.5599H26.2749C26.2741 38.5599 26.2741 38.5607 26.2733 38.5607C26.204 38.5901 26.1502 38.6423 26.1049 38.7012C26.0937 38.7159 26.0848 38.729 26.0755 38.7445C26.0384 38.808 26.0113 38.878 26.0113 38.9578V42.8471L23.2513 44.0279ZM26.8786 43.1343V43.1327V39.6165L32.0649 41.8315V48.7428L26.8786 46.5271V43.1343ZM32.9319 48.7428V41.8315L38.1182 39.6165V46.527L32.9319 48.7428ZM38.9851 38.9597C38.9851 38.88 38.9584 38.8095 38.9209 38.7464C38.9124 38.7298 38.9027 38.717 38.8915 38.7031C38.8466 38.6443 38.7928 38.592 38.7231 38.5626C38.7223 38.5626 38.7223 38.5618 38.7216 38.5618H38.7208H38.72L35.7066 37.2746L38.722 35.9873C38.775 35.9648 38.8095 35.9215 38.8485 35.8816L41.7451 37.1186V44.0299L38.9848 42.851L38.984 38.9598L38.9851 38.9597ZM42.6124 44.0279V37.1166L47.7987 34.9016V41.8121L42.6124 44.0279Z" stroke="white" stroke-width="0.6" mask="url(#path-2-outside-1_236_39)"/>
<path d="M26.3077 12.3729V12.3729L26.3073 15.5157C26.3073 15.5157 26.3073 15.5157 26.3073 15.5157C26.3073 15.8377 26.0458 16.0992 25.7238 16.0992C25.4017 16.0992 25.1403 15.8377 25.1403 15.5157V13.3062L23.4533 14.1261C23.4828 14.2556 23.5028 14.3917 23.5028 14.5361C23.5028 15.6349 22.6093 16.5284 21.5104 16.5284C20.4115 16.5284 19.519 15.634 19.5198 14.5349M26.3077 12.3729L19.5198 14.5349M26.3077 12.3729C26.3077 12.1725 26.2042 11.9845 26.0335 11.878L25.9541 12.0052L26.0344 11.8786C25.8638 11.7704 25.6492 11.7606 25.4692 11.8478L25.4689 11.8479M26.3077 12.3729L25.4689 11.8479M19.5198 14.5349C19.5198 14.5349 19.5198 14.5349 19.5198 14.535H19.6698L19.5198 14.5349L19.5198 14.5349ZM25.4689 11.8479L22.888 13.1028L25.4689 11.8479ZM25.1403 13.1394L25.2903 13.0665V13.2333L25.1403 13.1394ZM21.5104 13.7107C21.9652 13.7107 22.3358 14.0813 22.3358 14.536C22.3358 14.9908 21.9652 15.3614 21.5104 15.3614C21.0557 15.3614 20.6851 14.9908 20.6851 14.536C20.6851 14.0813 21.0557 13.7107 21.5104 13.7107Z" fill="white" stroke="white" stroke-width="0.3"/>
<path d="M38.6917 15.5147C38.6909 15.7108 38.7874 15.8843 38.9356 15.9901M38.6917 15.5147C38.6917 15.5146 38.6917 15.5145 38.6917 15.5144L38.8417 15.5151H38.6917V15.5147ZM38.6917 15.5147V12.3731C38.6917 12.1714 38.7952 11.9848 38.9656 11.8783M38.9356 15.9901L38.8417 12.3731C38.8417 12.223 38.9187 12.0844 39.0453 12.0054M38.9356 15.9901L38.7701 16.0983H39.2739C39.5959 16.0983 39.8574 15.8368 39.8574 15.5148V13.3053L41.5441 14.1251C41.5144 14.2553 41.4949 14.3919 41.4949 14.5352C41.4949 15.634 42.3884 16.5275 43.4872 16.5275C44.5861 16.5275 45.4795 15.634 45.4795 14.5352C45.4795 13.4363 44.5861 12.5428 43.4872 12.5428C42.951 12.5428 42.468 12.7585 42.1112 13.1029L39.5305 11.8481C39.5305 11.8481 39.5304 11.8481 39.5304 11.8481C39.349 11.7597 39.1362 11.771 38.9656 11.8783M38.9356 15.9901L39.0453 12.0054M38.9656 11.8783C38.9655 11.8784 38.9654 11.8785 38.9653 11.8785L39.0453 12.0054M38.9656 11.8783C38.9657 11.8783 38.9658 11.8782 38.9659 11.8782L39.0453 12.0054M43.4864 13.7106C43.9412 13.7106 44.3118 14.0812 44.3118 14.5359C44.3118 14.9907 43.9412 15.3613 43.4864 15.3613C43.0317 15.3613 42.6611 14.9907 42.6611 14.5359C42.6611 14.0812 43.0317 13.7106 43.4864 13.7106Z" fill="white" stroke="white" stroke-width="0.3"/>
<path d="M30.5059 10.3094C30.5059 11.2056 31.1009 11.9589 31.9147 12.2087V13.9437C31.9147 14.2657 32.1762 14.5271 32.4982 14.5271C32.8202 14.5271 33.0817 14.2657 33.0817 13.9437V12.2087C33.8947 11.9589 34.4905 11.2056 34.4905 10.3094C34.4905 9.21054 33.597 8.31704 32.4982 8.31704C31.3994 8.31704 30.5059 9.21052 30.5059 10.3094ZM32.4982 9.4841C32.953 9.4841 33.3235 9.85469 33.3235 10.3094C33.3235 10.7642 32.953 11.1348 32.4982 11.1348C32.0434 11.1348 31.6729 10.7642 31.6729 10.3094C31.6729 9.85461 32.0428 9.4841 32.4982 9.4841Z" fill="white" stroke="white" stroke-width="0.3"/>
<path d="M39.5283 53.4915L39.5283 53.4915L39.5299 53.4907L42.112 52.2358C42.4689 52.5796 42.9525 52.7952 43.4879 52.7952C44.5867 52.7952 45.4802 51.9017 45.4802 50.8029V50.8028C45.4798 49.7036 44.5856 48.8102 43.4869 48.8102C42.388 48.8102 41.4945 49.7037 41.4945 50.8025C41.4945 50.9468 41.5145 51.0836 41.5444 51.2134L39.8578 52.0332V49.8245C39.8578 49.5025 39.5963 49.241 39.2743 49.241C38.9523 49.241 38.6908 49.5025 38.6908 49.8245V52.9657C38.6908 53.166 38.7941 53.3539 38.9647 53.4604C39.0597 53.5202 39.1677 53.5492 39.2743 53.5492C39.3623 53.5492 39.4483 53.5292 39.5283 53.4915ZM43.4869 51.6279C43.0321 51.6279 42.6615 51.2573 42.6615 50.8026C42.6615 50.3478 43.0321 49.9772 43.4869 49.9772C43.9416 49.9772 44.3122 50.3478 44.3122 50.8026C44.3122 51.2573 43.9416 51.6279 43.4869 51.6279Z" fill="white" stroke="white" stroke-width="0.3"/>
<path d="M25.14 49.8247V52.0334L23.4533 51.2136C23.4832 51.0836 23.5032 50.9467 23.5032 50.8027C23.5032 49.7039 22.6097 48.8104 21.5109 48.8104C20.4121 48.8104 19.5186 49.7039 19.5186 50.8027C19.5186 51.9015 20.4121 52.795 21.5109 52.795C22.0464 52.795 22.53 52.5794 22.8868 52.2356L25.4684 53.4903C25.4685 53.4904 25.4686 53.4904 25.4687 53.4905C25.5505 53.5305 25.6382 53.549 25.7245 53.549C25.8309 53.549 25.9394 53.5202 26.0343 53.4602C26.2045 53.3538 26.308 53.1672 26.308 52.9655L26.308 49.8244L26.308 49.8236C26.307 49.6188 26.2006 49.4383 26.0398 49.3344L26.1592 49.2412H25.7235C25.4014 49.2412 25.14 49.5026 25.14 49.8247ZM21.5109 51.6281C21.0562 51.6281 20.6856 51.2575 20.6856 50.8027C20.6856 50.348 21.0562 49.9774 21.5109 49.9774C21.9657 49.9774 22.3363 50.348 22.3363 50.8027C22.3363 51.2575 21.9657 51.6281 21.5109 51.6281Z" fill="white" stroke="white" stroke-width="0.3"/>
<path d="M33.0827 53.1283V51.3952C33.0827 51.0731 32.8212 50.8117 32.4992 50.8117C32.1771 50.8117 31.9157 51.0731 31.9157 51.3952V53.1294C31.1027 53.3799 30.5069 54.1335 30.5069 55.0294C30.5069 56.1282 31.4003 57.0217 32.4992 57.0217C33.598 57.0217 34.4915 56.1282 34.4915 55.0294C34.4915 54.1323 33.8964 53.379 33.0827 53.1283ZM32.4992 55.854C32.0444 55.854 31.6738 55.4834 31.6738 55.0287C31.6738 54.5739 32.0444 54.2033 32.4992 54.2033C32.9539 54.2033 33.3245 54.5739 33.3245 55.0287C33.3245 55.4835 32.9546 55.854 32.4992 55.854Z" fill="white" stroke="white" stroke-width="0.3"/>
</svg>
