<svg width="65" height="65" viewBox="0 0 65 65" fill="none" xmlns="http://www.w3.org/2000/svg">
<rect x="0.5" y="0.745911" width="64" height="64" fill="#1C1F25"/>
<path d="M32.5007 8.34168C20.5861 8.34168 10.8926 13.7242 10.8926 20.3411V45.152C10.8926 51.7679 20.5863 57.1505 32.5007 57.1505C44.4137 57.1505 54.1075 51.7689 54.1075 45.152V20.3399C54.1075 13.724 44.4143 8.34143 32.5007 8.34143V8.34168ZM32.5007 9.44762C43.8045 9.44762 53.0015 14.335 53.0015 20.3411C53.0015 21.6219 52.5572 22.8991 51.6788 24.1399V24.1409C48.6587 28.3844 40.9523 31.2341 32.5013 31.2341C24.0463 31.2341 16.3395 28.3828 13.3237 24.1383C13.3237 24.1373 13.3228 24.1373 13.3228 24.1373C12.4459 22.8976 12.0001 21.6214 12.0001 20.3406C11.9981 14.335 21.1961 9.44762 32.5009 9.44762H32.5007ZM53.0015 45.151C53.0015 51.1572 43.8055 56.0435 32.5007 56.0435C21.196 56.0435 11.9985 51.1577 11.9985 45.151V41.0466C14.8507 45.8219 22.9561 49.2805 32.5007 49.2805C42.0448 49.2805 50.1489 45.8225 53.0015 41.0466V45.151ZM53.0015 37.281C53.0015 43.2886 43.8055 48.1754 32.5007 48.1754C21.196 48.1754 11.9985 43.2881 11.9985 37.281V32.3409C14.8507 37.1151 22.9561 40.5722 32.5007 40.5722C42.0448 40.5722 50.1489 37.1151 53.0015 32.3409V37.281ZM53.0015 28.5752C53.0015 34.5804 43.8055 39.4667 32.5007 39.4667C21.196 39.4667 11.9985 34.5809 11.9985 28.5752V24.0898C12.1333 24.3189 12.2597 24.549 12.4187 24.7731C12.4187 24.7751 12.4187 24.7766 12.4197 24.7776C15.6841 29.3692 23.5663 32.3379 32.5009 32.3379C41.4303 32.3379 49.3124 29.3697 52.5796 24.7776C52.5796 24.7776 52.5796 24.7766 52.5806 24.7766C52.7411 24.5509 52.866 24.3209 53.0008 24.0918L53.0013 28.5753L53.0015 28.5752Z" fill="white"/>
<path d="M46.6731 17.2825C46.7827 17.3985 46.9284 17.4572 47.077 17.4572C47.2133 17.4572 47.349 17.4074 47.4552 17.3066C47.6774 17.0988 47.6887 16.7482 47.4794 16.5261C47.0548 16.0738 46.5314 15.627 45.9232 15.2024C45.6734 15.0256 45.3283 15.0873 45.1535 15.3371C44.9778 15.588 45.0385 15.9321 45.2883 16.1069C45.8349 16.4895 46.3004 16.8855 46.6731 17.2825Z" fill="white"/>
<path d="M37.2846 28.5832C37.3123 28.5832 37.3409 28.5812 37.3696 28.5768C38.1837 28.4519 38.9989 28.2869 39.7873 28.0914C40.3171 27.9631 40.8301 27.8169 41.3258 27.658C46.2364 26.0918 49.168 23.3557 49.168 20.3401C49.168 20.035 48.9202 19.7871 48.6151 19.7871C48.31 19.7871 48.0621 20.035 48.0621 20.3401C48.0621 22.8117 45.3516 25.2126 40.9886 26.6054C40.5166 26.7569 40.0298 26.8942 39.5232 27.0166C38.7623 27.2067 37.9813 27.3637 37.2007 27.4847C36.8985 27.5311 36.6922 27.8145 36.7386 28.1152C36.7815 28.3887 37.016 28.5832 37.2846 28.5832Z" fill="white"/>
<path d="M17.8444 24.4818C17.9515 24.5835 18.0887 24.6343 18.225 24.6343C18.3711 24.6343 18.5168 24.577 18.6264 24.463C18.8367 24.2418 18.8278 23.8903 18.6052 23.6809C18.0764 23.1788 17.6651 22.6481 17.3842 22.1039C17.0855 21.5278 16.9354 20.9338 16.9354 20.3399C16.9354 18.2011 18.892 16.1462 22.3037 14.703C22.5846 14.5835 22.7164 14.2597 22.5979 13.9777C22.4794 13.6968 22.1521 13.5684 21.8736 13.6835C18.034 15.3093 15.8309 17.7345 15.8309 20.3403C15.8309 21.1125 16.0235 21.8778 16.4036 22.612C16.7404 23.2652 17.2248 23.8943 17.8444 24.4818Z" fill="white"/>
<path d="M26.0584 13.5097C26.097 13.5097 26.1369 13.5052 26.1769 13.4963C26.96 13.326 27.7983 13.1833 28.6653 13.0717C29.9159 12.9182 31.207 12.8407 32.5006 12.8407C32.8057 12.8407 33.0536 12.5928 33.0536 12.2877C33.0536 11.9826 32.8057 11.7347 32.5006 11.7347C31.1611 11.7347 29.8251 11.8157 28.5271 11.9747C27.6255 12.0897 26.7556 12.2378 25.9415 12.4161C25.6428 12.4812 25.4537 12.7755 25.5188 13.0742C25.5751 13.3339 25.8042 13.5097 26.0584 13.5097Z" fill="white"/>
<path d="M30.8499 35.5349H29.1268C28.8217 35.5349 28.5739 35.7827 28.5739 36.0878C28.5739 36.3929 28.8217 36.6408 29.1268 36.6408H30.8499C31.1551 36.6408 31.4029 36.3929 31.4029 36.0878C31.4029 35.7827 31.1551 35.5349 30.8499 35.5349Z" fill="white"/>
<path d="M35.8717 35.5349H34.1485C33.8434 35.5349 33.5956 35.7827 33.5956 36.0878C33.5956 36.3929 33.8434 36.6408 34.1485 36.6408H35.8717C36.1768 36.6408 36.4246 36.3929 36.4246 36.0878C36.4246 35.7827 36.1778 35.5349 35.8717 35.5349Z" fill="white"/>
<path d="M30.8499 43.6833H29.1268C28.8217 43.6833 28.5739 43.9312 28.5739 44.2363C28.5739 44.5414 28.8217 44.7893 29.1268 44.7893H30.8499C31.1551 44.7893 31.4029 44.5414 31.4029 44.2363C31.4029 43.9307 31.1551 43.6833 30.8499 43.6833Z" fill="white"/>
<path d="M35.8717 43.6833H34.1485C33.8434 43.6833 33.5956 43.9312 33.5956 44.2363C33.5956 44.5414 33.8434 44.7893 34.1485 44.7893H35.8717C36.1768 44.7893 36.4246 44.5414 36.4246 44.2363C36.4246 43.9307 36.1778 43.6833 35.8717 43.6833Z" fill="white"/>
<path d="M30.8499 51.8293H29.1268C28.8217 51.8293 28.5739 52.0771 28.5739 52.3823C28.5739 52.6874 28.8217 52.9352 29.1268 52.9352H30.8499C31.1551 52.9352 31.4029 52.6874 31.4029 52.3823C31.4029 52.0771 31.1551 51.8293 30.8499 51.8293Z" fill="white"/>
<path d="M35.8717 51.8293H34.1485C33.8434 51.8293 33.5956 52.0771 33.5956 52.3823C33.5956 52.6874 33.8434 52.9352 34.1485 52.9352H35.8717C36.1768 52.9352 36.4246 52.6874 36.4246 52.3823C36.4246 52.0771 36.1778 51.8293 35.8717 51.8293Z" fill="white"/>
</svg>
